<svg width="49" height="138" viewBox="0 0 49 138" fill="none" xmlns="http://www.w3.org/2000/svg">
<path d="M5.1777 41.5858L43.3493 3.41421C44.6092 2.15428 46.7635 3.04662 46.7635 4.82843V81.1716C46.7635 82.9534 44.6092 83.8457 43.3493 82.5858L5.1777 44.4142C4.39665 43.6332 4.39665 42.3668 5.1777 41.5858Z" stroke="#E13A4B" stroke-width="3" stroke-linecap="round"/>
<path d="M14.8808 67.1081C15.1785 67.3214 15.4396 67.5785 15.6559 67.8691C13.5243 67.5031 11.3453 67.5078 9.21519 67.8829C9.43274 67.5861 9.69659 67.3235 9.9985 67.1059C10.5716 66.693 11.2554 66.4616 11.9615 66.4417L12.439 66.4283V66.4358L12.9249 66.4495C13.628 66.4692 14.3091 66.6985 14.8808 67.1081ZM12.7506 64.301L12.4474 64.4243V64.4155L12.1638 64.2793C12.0509 64.2251 11.954 64.1424 11.8827 64.0395C11.8113 63.9365 11.7679 63.8168 11.7567 63.692C11.7455 63.5673 11.767 63.4418 11.819 63.3277C11.8709 63.2138 11.9516 63.1152 12.0531 63.0418L12.462 62.7461L12.881 63.0268C12.9904 63.1 13.0778 63.2017 13.1338 63.3208C13.1898 63.44 13.2123 63.5721 13.1989 63.7031C13.1855 63.8341 13.1367 63.9589 13.0577 64.0642L13.4578 64.3642L13.0577 64.0642C12.9787 64.1695 12.8726 64.2514 12.7506 64.301ZM12.8671 62.2056L12.4567 62.5012L12.0381 62.2211C11.942 62.1568 11.8626 62.0704 11.8068 61.9691C11.7509 61.8678 11.7201 61.7546 11.717 61.6389C11.7139 61.5233 11.7385 61.4086 11.7888 61.3044C11.8391 61.2003 11.9137 61.1097 12.0062 61.0402L12.4439 60.7118L12.8795 61.0397C12.9701 61.108 13.0434 61.1966 13.0935 61.2984C13.1436 61.4002 13.1691 61.5124 13.1679 61.6258C13.1667 61.7393 13.1389 61.8508 13.0866 61.9516C13.0343 62.0523 12.9591 62.1393 12.8671 62.2056ZM12.8781 60.2419L12.4439 60.5712L12.0076 60.2415C11.9073 60.1656 11.8284 60.0648 11.7789 59.9492C11.7294 59.8335 11.711 59.7069 11.7254 59.582C11.7398 59.457 11.7865 59.3379 11.8611 59.2366C11.9356 59.1352 12.0352 59.055 12.1502 59.004L12.4438 58.8737L12.7354 59.0037C12.8503 59.0549 12.9499 59.1352 13.0243 59.2366C13.0988 59.338 13.1455 59.4571 13.1599 59.5821C13.1743 59.7071 13.1559 59.8337 13.1065 59.9494C13.0571 60.0651 12.9783 60.1659 12.8781 60.2419Z" stroke="#E13A4B"/>
<mask id="path-3-inside-1_43_9" fill="white">
<path d="M17.0364 89.3915H16.3654V88.6754C16.5027 88.6754 16.6344 88.6208 16.7315 88.5237C16.8287 88.4266 16.8832 88.2949 16.8832 88.1575V86.3738C13.9779 87.0949 10.94 87.0919 8.03616 86.365V87.0767H8.06921V88.1575C8.06921 88.2949 8.12376 88.4266 8.22087 88.5237C8.31798 88.6208 8.4497 88.6754 8.58703 88.6754V89.3915H7.91606C7.85273 89.3884 7.78945 89.3982 7.73003 89.4204C7.67061 89.4425 7.61629 89.4764 7.57039 89.5202C7.52448 89.5639 7.48793 89.6165 7.46296 89.6748C7.43798 89.733 7.42511 89.7958 7.42511 89.8592C7.42511 89.9226 7.43798 89.9853 7.46296 90.0436C7.48793 90.1019 7.52448 90.1545 7.57039 90.1982C7.61629 90.2419 7.67061 90.2759 7.73003 90.298C7.78945 90.3201 7.85273 90.33 7.91606 90.3269H11.9804V91.2083C11.0958 91.3167 10.2706 91.7108 9.63036 92.3308C8.99007 92.9508 8.56961 93.7628 8.4328 94.6435C8.41752 94.7465 8.43225 94.8517 8.47524 94.9464C8.51824 95.0412 8.58766 95.1216 8.67518 95.1779V115.501C8.67518 115.632 8.7274 115.758 8.82037 115.851C8.91335 115.944 9.03947 115.997 9.17097 115.997C9.30246 115.997 9.42855 115.944 9.52153 115.851C9.61451 115.758 9.66675 115.632 9.66675 115.501V95.2715H9.77693V115.504C9.77693 115.636 9.82915 115.762 9.92213 115.855C10.0151 115.948 10.1412 116 10.2727 116C10.4042 116 10.5303 115.948 10.6233 115.855C10.7163 115.762 10.7685 115.636 10.7685 115.504V95.2715H10.8787V115.504C10.8787 115.636 10.9309 115.762 11.0239 115.855C11.1169 115.948 11.243 116 11.3745 116C11.506 116 11.6321 115.948 11.725 115.855C11.818 115.762 11.8703 115.636 11.8703 115.504V95.2715H11.9804V115.504C11.9804 115.636 12.0326 115.762 12.1256 115.855C12.2186 115.948 12.3447 116 12.4762 116C12.6077 116 12.7338 115.948 12.8268 115.855C12.9198 115.762 12.972 115.636 12.972 115.504V95.2715H13.0822V115.504C13.0822 115.636 13.1344 115.762 13.2274 115.855C13.3204 115.948 13.4465 116 13.578 116C13.7095 116 13.8356 115.948 13.9285 115.855C14.0215 115.762 14.0738 115.636 14.0738 115.504V95.2715H14.1839V115.504C14.1839 115.636 14.2362 115.762 14.3291 115.855C14.4221 115.948 14.5482 116 14.6797 116C14.8112 116 14.9373 115.948 15.0303 115.855C15.1233 115.762 15.1755 115.636 15.1755 115.504V95.2715H15.2857V115.504C15.2857 115.636 15.3379 115.762 15.4309 115.855C15.5239 115.948 15.65 116 15.7815 116C15.913 116 16.0391 115.948 16.132 115.855C16.225 115.762 16.2773 115.636 16.2773 115.504V95.1812C16.3648 95.1249 16.4342 95.0445 16.4772 94.9497C16.5202 94.855 16.5349 94.7498 16.5196 94.6468C16.383 93.7661 15.9626 92.954 15.3223 92.3339C14.6819 91.7139 13.8567 91.3198 12.972 91.2116V90.3302H17.0364C17.0997 90.3333 17.163 90.3234 17.2224 90.3013C17.2818 90.2792 17.3361 90.2453 17.3821 90.2015C17.428 90.1578 17.4645 90.1052 17.4895 90.0469C17.5144 89.9886 17.5273 89.9259 17.5273 89.8625C17.5273 89.7991 17.5144 89.7363 17.4895 89.6781C17.4645 89.6198 17.428 89.5672 17.3821 89.5235C17.3361 89.4797 17.2818 89.4458 17.2224 89.4237C17.163 89.4015 17.0997 89.3917 17.0364 89.3948V89.3915Z"/>
</mask>
<path d="M17.0364 89.3915H18.0364V88.3915H17.0364V89.3915ZM16.3654 89.3915H15.3654V90.3915H16.3654V89.3915ZM16.3654 88.6754V87.6754H15.3654V88.6754H16.3654ZM16.8832 86.3738H17.8832V85.0952L16.6423 85.4032L16.8832 86.3738ZM8.03616 86.365L8.27899 85.3949L7.03616 85.0838V86.365H8.03616ZM8.03616 87.0767H7.03616V88.0767H8.03616V87.0767ZM8.06921 87.0767H9.06921V86.0767H8.06921V87.0767ZM8.58703 88.6754H9.58703V87.6754H8.58703V88.6754ZM8.58703 89.3915V90.3915H9.58703V89.3915H8.58703ZM7.91606 89.3915L7.86756 90.3903L7.8918 90.3915H7.91606V89.3915ZM7.91606 90.3269V89.3269H7.8918L7.86756 89.3281L7.91606 90.3269ZM11.9804 90.3269H12.9804V89.3269H11.9804V90.3269ZM11.9804 91.2083L12.1021 92.2009L12.9804 92.0932V91.2083H11.9804ZM8.4328 94.6435L7.44463 94.49L7.44363 94.4967L8.4328 94.6435ZM8.67518 95.1779H9.67518V94.6322L9.21628 94.3369L8.67518 95.1779ZM9.66675 95.2715V94.2715H8.66675V95.2715H9.66675ZM9.77693 95.2715H10.7769V94.2715H9.77693V95.2715ZM10.7685 95.2715V94.2715H9.7685V95.2715H10.7685ZM10.8787 95.2715H11.8787V94.2715H10.8787V95.2715ZM11.8703 95.2715V94.2715H10.8703V95.2715H11.8703ZM11.9804 95.2715H12.9804V94.2715H11.9804V95.2715ZM12.972 95.2715V94.2715H11.972V95.2715H12.972ZM13.0822 95.2715H14.0822V94.2715H13.0822V95.2715ZM14.0738 95.2715V94.2715H13.0738V95.2715H14.0738ZM14.1839 95.2715H15.1839V94.2715H14.1839V95.2715ZM15.1755 95.2715V94.2715H14.1755V95.2715H15.1755ZM15.2857 95.2715H16.2857V94.2715H15.2857V95.2715ZM16.2773 95.1812L15.7362 94.3402L15.2773 94.6355V95.1812H16.2773ZM16.5196 94.6468L17.5088 94.5L17.5078 94.4935L16.5196 94.6468ZM12.972 91.2116H11.972V92.0967L12.8506 92.2042L12.972 91.2116ZM12.972 90.3302V89.3302H11.972V90.3302H12.972ZM17.0364 90.3302L17.0848 89.3314L17.0606 89.3302H17.0364V90.3302ZM17.0364 89.3948H16.0364V90.4445L17.0848 90.3936L17.0364 89.3948ZM17.0364 88.3915H16.3654V90.3915H17.0364V88.3915ZM17.3654 89.3915V88.6754H15.3654V89.3915H17.3654ZM16.3654 89.6754C16.768 89.6754 17.154 89.5154 17.4387 89.2308L16.0244 87.8166C16.1148 87.7262 16.2375 87.6754 16.3654 87.6754V89.6754ZM17.4387 89.2308C17.7233 88.9462 17.8832 88.5601 17.8832 88.1575H15.8832C15.8832 88.0296 15.934 87.907 16.0244 87.8166L17.4387 89.2308ZM17.8832 88.1575V86.3738H15.8832V88.1575H17.8832ZM16.6423 85.4032C13.8959 86.0849 11.0241 86.0821 8.27899 85.3949L7.79332 87.3351C10.856 88.1017 14.06 88.1049 17.1241 87.3443L16.6423 85.4032ZM7.03616 86.365V87.0767H9.03616V86.365H7.03616ZM8.03616 88.0767H8.06921V86.0767H8.03616V88.0767ZM7.06921 87.0767V88.1575H9.06921V87.0767H7.06921ZM7.06921 88.1575C7.06921 88.56 7.22905 88.9461 7.51376 89.2308L8.92797 87.8166C9.01846 87.9071 9.06921 88.0297 9.06921 88.1575H7.06921ZM7.51376 89.2308C7.79842 89.5155 8.18451 89.6754 8.58703 89.6754V87.6754C8.71489 87.6754 8.83753 87.7261 8.92797 87.8166L7.51376 89.2308ZM7.58703 88.6754V89.3915H9.58703V88.6754H7.58703ZM8.58703 88.3915H7.91606V90.3915H8.58703V88.3915ZM7.96455 88.3927C7.76594 88.383 7.56749 88.4138 7.3812 88.4832L8.07885 90.3575C8.01141 90.3826 7.93952 90.3938 7.86756 90.3903L7.96455 88.3927ZM7.3812 88.4832C7.19499 88.5525 7.02466 88.6589 6.88064 88.7961L8.26014 90.2442C8.20792 90.2939 8.14623 90.3325 8.07885 90.3575L7.3812 88.4832ZM6.88064 88.7961C6.73672 88.9332 6.6221 89.0981 6.54379 89.2809L8.38213 90.0686C8.35375 90.1348 8.31224 90.1946 8.26014 90.2442L6.88064 88.7961ZM6.54379 89.2809C6.46547 89.4637 6.42511 89.6604 6.42511 89.8592H8.42511C8.42511 89.9312 8.4105 90.0024 8.38213 90.0686L6.54379 89.2809ZM6.42511 89.8592C6.42511 90.058 6.46547 90.2547 6.54379 90.4375L8.38213 89.6498C8.4105 89.716 8.42511 89.7872 8.42511 89.8592H6.42511ZM6.54379 90.4375C6.62214 90.6203 6.73678 90.7852 6.88064 90.9223L8.26014 89.4742C8.31218 89.5237 8.35372 89.5835 8.38213 89.6498L6.54379 90.4375ZM6.88064 90.9223C7.02457 91.0594 7.19487 91.1659 7.3812 91.2352L8.07885 89.3608C8.14634 89.386 8.20801 89.4245 8.26014 89.4742L6.88064 90.9223ZM7.3812 91.2352C7.56749 91.3045 7.76594 91.3353 7.96455 91.3257L7.86756 89.3281C7.93952 89.3246 8.01141 89.3357 8.07885 89.3608L7.3812 91.2352ZM7.91606 91.3269H11.9804V89.3269H7.91606V91.3269ZM10.9804 90.3269V91.2083H12.9804V90.3269H10.9804ZM11.8588 90.2157C10.7581 90.3506 9.7314 90.841 8.93472 91.6124L10.326 93.0492C10.8099 92.5806 11.4335 92.2828 12.1021 92.2009L11.8588 90.2157ZM8.93472 91.6124C8.13804 92.3839 7.61488 93.3942 7.44465 94.49L9.42095 94.797C9.52434 94.1314 9.84211 93.5178 10.326 93.0492L8.93472 91.6124ZM7.44363 94.4967C7.40012 94.7899 7.44207 95.0895 7.56456 95.3595L9.38593 94.5333C9.42243 94.6138 9.43492 94.7031 9.42196 94.7904L7.44363 94.4967ZM7.56456 95.3595C7.68702 95.6295 7.88477 95.8584 8.13408 96.0189L9.21628 94.3369C9.29054 94.3847 9.34945 94.4529 9.38593 94.5333L7.56456 95.3595ZM7.67518 95.1779V115.501H9.67518V95.1779H7.67518ZM7.67518 115.501C7.67518 115.897 7.83269 116.278 8.11327 116.558L9.52748 115.144C9.6221 115.239 9.67518 115.367 9.67518 115.501H7.67518ZM8.11327 116.558C8.39382 116.839 8.77431 116.997 9.17097 116.997V114.997C9.30464 114.997 9.43289 115.05 9.52748 115.144L8.11327 116.558ZM9.17097 116.997C9.56768 116.997 9.94813 116.839 10.2286 116.558L8.81442 115.144C8.90898 115.05 9.03723 114.997 9.17097 114.997V116.997ZM10.2286 116.558C10.5091 116.278 10.6668 115.898 10.6668 115.501H8.66675C8.66675 115.367 8.7199 115.239 8.81442 115.144L10.2286 116.558ZM10.6668 115.501V95.2715H8.66675V115.501H10.6668ZM9.66675 96.2715H9.77693V94.2715H9.66675V96.2715ZM8.77693 95.2715V115.504H10.7769V95.2715H8.77693ZM8.77693 115.504C8.77693 115.901 8.93444 116.281 9.21502 116.562L10.6292 115.148C10.7239 115.242 10.7769 115.37 10.7769 115.504H8.77693ZM9.21502 116.562C9.49557 116.842 9.87606 117 10.2727 117V115C10.4064 115 10.5346 115.053 10.6292 115.148L9.21502 116.562ZM10.2727 117C10.6694 117 11.0499 116.842 11.3304 116.562L9.91617 115.148C10.0107 115.053 10.139 115 10.2727 115V117ZM11.3304 116.562C11.6109 116.281 11.7685 115.901 11.7685 115.504H9.7685C9.7685 115.37 9.82165 115.242 9.91617 115.148L11.3304 116.562ZM11.7685 115.504V95.2715H9.7685V115.504H11.7685ZM10.7685 96.2715H10.8787V94.2715H10.7685V96.2715ZM9.87868 95.2715V115.504H11.8787V95.2715H9.87868ZM9.87868 115.504C9.87868 115.901 10.0362 116.281 10.3168 116.562L11.731 115.148C11.8256 115.242 11.8787 115.37 11.8787 115.504H9.87868ZM10.3168 116.562C10.5973 116.842 10.9778 117 11.3745 117V115C11.5081 115 11.6364 115.053 11.731 115.148L10.3168 116.562ZM11.3745 117C11.7712 117 12.1516 116.842 12.4321 116.562L11.0179 115.148C11.1125 115.053 11.2407 115 11.3745 115V117ZM12.4321 116.562C12.7126 116.281 12.8703 115.901 12.8703 115.504H10.8703C10.8703 115.37 10.9234 115.242 11.0179 115.148L12.4321 116.562ZM12.8703 115.504V95.2715H10.8703V115.504H12.8703ZM11.8703 96.2715H11.9804V94.2715H11.8703V96.2715ZM10.9804 95.2715V115.504H12.9804V95.2715H10.9804ZM10.9804 115.504C10.9804 115.901 11.1379 116.281 11.4185 116.562L12.8327 115.148C12.9274 115.242 12.9804 115.37 12.9804 115.504H10.9804ZM11.4185 116.562C11.6991 116.842 12.0796 117 12.4762 117V115C12.6099 115 12.7381 115.053 12.8327 115.148L11.4185 116.562ZM12.4762 117C12.8729 117 13.2534 116.842 13.5339 116.562L12.1197 115.148C12.2142 115.053 12.3425 115 12.4762 115V117ZM13.5339 116.562C13.8144 116.281 13.972 115.901 13.972 115.504H11.972C11.972 115.37 12.0252 115.242 12.1197 115.148L13.5339 116.562ZM13.972 115.504V95.2715H11.972V115.504H13.972ZM12.972 96.2715H13.0822V94.2715H12.972V96.2715ZM12.0822 95.2715V115.504H14.0822V95.2715H12.0822ZM12.0822 115.504C12.0822 115.901 12.2397 116.281 12.5203 116.562L13.9345 115.148C14.0291 115.242 14.0822 115.37 14.0822 115.504H12.0822ZM12.5203 116.562C12.8008 116.842 13.1813 117 13.578 117V115C13.7116 115 13.8399 115.053 13.9345 115.148L12.5203 116.562ZM13.578 117C13.9747 117 14.3551 116.842 14.6356 116.562L13.2214 115.148C13.316 115.053 13.4442 115 13.578 115V117ZM14.6356 116.562C14.9161 116.281 15.0738 115.901 15.0738 115.504H13.0738C13.0738 115.37 13.1269 115.242 13.2214 115.148L14.6356 116.562ZM15.0738 115.504V95.2715H13.0738V115.504H15.0738ZM14.0738 96.2715H14.1839V94.2715H14.0738V96.2715ZM13.1839 95.2715V115.504H15.1839V95.2715H13.1839ZM13.1839 115.504C13.1839 115.901 13.3414 116.281 13.622 116.562L15.0362 115.148C15.1309 115.242 15.1839 115.37 15.1839 115.504H13.1839ZM13.622 116.562C13.9026 116.842 14.2831 117 14.6797 117V115C14.8134 115 14.9416 115.053 15.0362 115.148L13.622 116.562ZM14.6797 117C15.0764 117 15.4569 116.842 15.7374 116.562L14.3232 115.148C14.4177 115.053 14.546 115 14.6797 115V117ZM15.7374 116.562C16.0179 116.281 16.1755 115.901 16.1755 115.504H14.1755C14.1755 115.37 14.2287 115.242 14.3232 115.148L15.7374 116.562ZM16.1755 115.504V95.2715H14.1755V115.504H16.1755ZM15.1755 96.2715H15.2857V94.2715H15.1755V96.2715ZM14.2857 95.2715V115.504H16.2857V95.2715H14.2857ZM14.2857 115.504C14.2857 115.901 14.4432 116.281 14.7238 116.562L16.138 115.148C16.2326 115.242 16.2857 115.37 16.2857 115.504H14.2857ZM14.7238 116.562C15.0043 116.842 15.3848 117 15.7815 117V115C15.9151 115 16.0434 115.053 16.138 115.148L14.7238 116.562ZM15.7815 117C16.1782 117 16.5586 116.842 16.8391 116.562L15.4249 115.148C15.5195 115.053 15.6477 115 15.7815 115V117ZM16.8391 116.562C17.1196 116.281 17.2773 115.901 17.2773 115.504H15.2773C15.2773 115.37 15.3304 115.242 15.4249 115.148L16.8391 116.562ZM17.2773 115.504V95.1812H15.2773V115.504H17.2773ZM16.8184 96.0222C17.0676 95.8618 17.2654 95.6329 17.3879 95.3628L15.5665 94.5366C15.603 94.4562 15.6619 94.388 15.7362 94.3402L16.8184 96.0222ZM17.3879 95.3628C17.5104 95.0928 17.5523 94.7932 17.5088 94.5L15.5305 94.7937C15.5175 94.7064 15.53 94.6171 15.5665 94.5366L17.3879 95.3628ZM17.5078 94.4935C17.3378 93.3976 16.8147 92.387 16.0179 91.6155L14.6266 93.0523C15.1105 93.5209 15.4282 94.1346 15.5315 94.8001L17.5078 94.4935ZM16.0179 91.6155C15.2211 90.844 14.1943 90.3537 13.0934 90.219L12.8506 92.2042C13.5192 92.286 14.1428 92.5838 14.6266 93.0523L16.0179 91.6155ZM13.972 91.2116V90.3302H11.972V91.2116H13.972ZM12.972 91.3302H17.0364V89.3302H12.972V91.3302ZM16.9879 91.329C17.1864 91.3387 17.3849 91.3079 17.5712 91.2385L16.8736 89.3641C16.9411 89.339 17.0129 89.3279 17.0848 89.3314L16.9879 91.329ZM17.5712 91.2385C17.7576 91.1692 17.9279 91.0627 18.0718 90.9256L16.6923 89.4775C16.7444 89.4278 16.8061 89.3893 16.8736 89.3641L17.5712 91.2385ZM18.0718 90.9256C18.2159 90.7883 18.3304 90.6233 18.4086 90.4408L16.5703 89.6531C16.5986 89.5871 16.64 89.5273 16.6923 89.4775L18.0718 90.9256ZM18.4086 90.4408C18.4869 90.258 18.5273 90.0613 18.5273 89.8625H16.5273C16.5273 89.7905 16.5419 89.7192 16.5703 89.6531L18.4086 90.4408ZM18.5273 89.8625C18.5273 89.6637 18.4869 89.467 18.4086 89.2842L16.5703 90.0719C16.5419 90.0057 16.5273 89.9345 16.5273 89.8625H18.5273ZM18.4086 89.2842C18.3304 89.1017 18.2159 88.9367 18.0718 88.7994L16.6923 90.2475C16.64 90.1977 16.5986 90.1379 16.5703 90.0719L18.4086 89.2842ZM18.0718 88.7994C17.9279 88.6623 17.7576 88.5558 17.5712 88.4865L16.8736 90.3608C16.8061 90.3357 16.7444 90.2972 16.6923 90.2475L18.0718 88.7994ZM17.5712 88.4865C17.3848 88.4171 17.1863 88.3863 16.9879 88.396L17.0848 90.3936C17.0131 90.3971 16.9412 90.386 16.8736 90.3608L17.5712 88.4865ZM18.0364 89.3948V89.3915H16.0364V89.3948H18.0364Z" fill="#E13A4B" mask="url(#path-3-inside-1_43_9)"/>
<path d="M13.439 85.7246V69.2907C13.7794 69.3094 14.1192 69.3384 14.4579 69.3776C15.1551 70.7393 15.6829 72.1817 16.0292 73.6724C16.9786 77.77 16.4891 81.7755 14.5681 85.6247C14.1929 85.6704 13.8163 85.7038 13.439 85.7246Z" stroke="#E13A4B"/>
<path d="M17.9697 73.223L17.9696 73.2227C17.7008 72.0653 17.3338 70.9336 16.8727 69.8398C17.228 69.9371 17.5798 70.0473 17.9273 70.1702C18.8941 71.4847 19.6219 72.9595 20.077 74.5272C21.0767 78.0388 20.4716 81.454 18.2434 84.728C17.8235 84.8875 17.3967 85.0281 16.9645 85.1496C18.9142 80.4201 18.653 76.1738 17.9697 73.223Z" stroke="#E13A4B"/>
<path d="M11.4474 69.2945V85.7206C11.0662 85.6982 10.6858 85.6629 10.3069 85.6149C8.3963 81.7831 7.90833 77.7932 8.84082 73.7121C9.18677 72.2104 9.71663 70.7575 10.4182 69.3862C10.7602 69.3452 11.1035 69.3146 11.4474 69.2945Z" stroke="#E13A4B"/>
<path d="M6.91005 73.2185L6.91003 73.2185C6.22709 76.1677 5.96569 80.4054 7.9058 85.1221C7.46781 84.9967 7.03559 84.8515 6.61049 84.6868C4.40333 81.4238 3.80711 78.0211 4.80272 74.5227C5.25352 72.9693 5.97213 71.5069 6.9258 70.2014C7.27847 70.0738 7.63567 69.9595 7.99665 69.8585C7.53998 70.9451 7.17636 72.0691 6.91005 73.2185Z" stroke="#E13A4B"/>
<path d="M2.89995 73.9381L2.89971 73.9389C2.24691 76.2044 1.95411 79.3546 3.37944 82.8582C1.55799 81.3946 0.5 79.5149 0.5 77.5071C0.5 75.4151 1.65094 73.4601 3.61542 71.9721C3.33372 72.6101 3.09461 73.2669 2.89995 73.9381Z" stroke="#E13A4B"/>
<path d="M21.9799 73.9385L21.9797 73.9376C21.7761 73.2368 21.5242 72.5517 21.2262 71.8871C23.2583 73.3851 24.4524 75.3753 24.4524 77.5069C24.4524 79.5539 23.3525 81.4678 21.4665 82.9434C22.9308 79.4028 22.638 76.2179 21.9799 73.9385Z" stroke="#E13A4B"/>
<path d="M37.8808 89.1081C38.1786 89.3214 38.4396 89.5785 38.656 89.8691C36.5243 89.5031 34.3453 89.5078 32.2152 89.8829C32.4328 89.5861 32.6966 89.3235 32.9985 89.1059C33.5716 88.693 34.2554 88.4616 34.9615 88.4417L35.439 88.4283V88.4358L35.925 88.4495C36.628 88.4692 37.3091 88.6985 37.8808 89.1081ZM35.7507 86.301L35.4474 86.4243V86.4155L35.1639 86.2793C35.051 86.2251 34.9541 86.1424 34.8827 86.0395C34.8113 85.9365 34.7679 85.8168 34.7567 85.692C34.7456 85.5673 34.767 85.4418 34.819 85.3277C34.871 85.2138 34.9516 85.1152 35.0531 85.0418L35.462 84.7461L35.8811 85.0268C35.9904 85.1 36.0778 85.2017 36.1338 85.3208C36.1898 85.44 36.2123 85.5721 36.1989 85.7031C36.1855 85.8341 36.1367 85.9589 36.0577 86.0642L36.4578 86.3642L36.0577 86.0642C35.9788 86.1695 35.8726 86.2514 35.7507 86.301ZM35.8671 84.2056L35.4567 84.5012L35.0382 84.2211C34.942 84.1568 34.8627 84.0704 34.8068 83.9691C34.7509 83.8678 34.7201 83.7546 34.717 83.6389C34.7139 83.5233 34.7385 83.4086 34.7888 83.3044C34.8392 83.2003 34.9137 83.1097 35.0062 83.0402L35.444 82.7118L35.8795 83.0397C35.9701 83.108 36.0435 83.1966 36.0936 83.2984C36.1437 83.4002 36.1692 83.5124 36.168 83.6258C36.1667 83.7393 36.1389 83.8508 36.0866 83.9516C36.0344 84.0523 35.9592 84.1393 35.8671 84.2056ZM35.8781 82.2419L35.4439 82.5712L35.0076 82.2415C34.9073 82.1656 34.8284 82.0648 34.779 81.9492C34.7294 81.8335 34.711 81.7069 34.7254 81.582C34.7398 81.457 34.7866 81.3379 34.8611 81.2366C34.9356 81.1352 35.0353 81.055 35.1503 81.004L35.4438 80.8737L35.7354 81.0037C35.8503 81.0549 35.9499 81.1352 36.0244 81.2366C36.0988 81.338 36.1455 81.4571 36.1599 81.5821C36.1743 81.7071 36.1559 81.8337 36.1065 81.9494C36.0571 82.0651 35.9784 82.1659 35.8781 82.2419Z" stroke="#E13A4B"/>
<mask id="path-12-inside-2_43_9" fill="white">
<path d="M40.0364 111.391H39.3654V110.675C39.5027 110.675 39.6344 110.621 39.7315 110.524C39.8287 110.427 39.8832 110.295 39.8832 110.158V108.374C36.9779 109.095 33.94 109.092 31.0362 108.365V109.077H31.0692V110.158C31.0692 110.295 31.1238 110.427 31.2209 110.524C31.318 110.621 31.4497 110.675 31.587 110.675V111.391H30.9161C30.8527 111.388 30.7894 111.398 30.73 111.42C30.6706 111.442 30.6163 111.476 30.5704 111.52C30.5245 111.564 30.4879 111.616 30.463 111.675C30.438 111.733 30.4251 111.796 30.4251 111.859C30.4251 111.923 30.438 111.985 30.463 112.044C30.4879 112.102 30.5245 112.154 30.5704 112.198C30.6163 112.242 30.6706 112.276 30.73 112.298C30.7894 112.32 30.8527 112.33 30.9161 112.327H34.9804V113.208C34.0958 113.317 33.2706 113.711 32.6304 114.331C31.9901 114.951 31.5696 115.763 31.4328 116.644C31.4175 116.746 31.4323 116.852 31.4752 116.946C31.5182 117.041 31.5877 117.122 31.6752 117.178V137.501C31.6752 137.632 31.7274 137.758 31.8204 137.851C31.9134 137.944 32.0395 137.997 32.171 137.997C32.3025 137.997 32.4286 137.944 32.5215 137.851C32.6145 137.758 32.6668 137.632 32.6668 137.501V117.272H32.7769V137.504C32.7769 137.636 32.8291 137.762 32.9221 137.855C33.0151 137.948 33.1412 138 33.2727 138C33.4042 138 33.5303 137.948 33.6233 137.855C33.7163 137.762 33.7685 137.636 33.7685 137.504V117.272H33.8787V137.504C33.8787 137.636 33.9309 137.762 34.0239 137.855C34.1169 137.948 34.243 138 34.3745 138C34.506 138 34.6321 137.948 34.725 137.855C34.818 137.762 34.8703 137.636 34.8703 137.504V117.272H34.9804V137.504C34.9804 137.636 35.0326 137.762 35.1256 137.855C35.2186 137.948 35.3447 138 35.4762 138C35.6077 138 35.7338 137.948 35.8268 137.855C35.9198 137.762 35.972 137.636 35.972 137.504V117.272H36.0822V137.504C36.0822 137.636 36.1344 137.762 36.2274 137.855C36.3204 137.948 36.4465 138 36.578 138C36.7095 138 36.8356 137.948 36.9285 137.855C37.0215 137.762 37.0738 137.636 37.0738 137.504V117.272H37.1839V137.504C37.1839 137.636 37.2362 137.762 37.3291 137.855C37.4221 137.948 37.5482 138 37.6797 138C37.8112 138 37.9373 137.948 38.0303 137.855C38.1233 137.762 38.1755 137.636 38.1755 137.504V117.272H38.2857V137.504C38.2857 137.636 38.3379 137.762 38.4309 137.855C38.5239 137.948 38.65 138 38.7815 138C38.913 138 39.0391 137.948 39.132 137.855C39.225 137.762 39.2773 137.636 39.2773 137.504V117.181C39.3648 117.125 39.4342 117.045 39.4772 116.95C39.5202 116.855 39.5349 116.75 39.5196 116.647C39.383 115.766 38.9626 114.954 38.3223 114.334C37.6819 113.714 36.8567 113.32 35.972 113.212V112.33H40.0364C40.0997 112.333 40.163 112.323 40.2224 112.301C40.2818 112.279 40.3361 112.245 40.3821 112.202C40.428 112.158 40.4645 112.105 40.4895 112.047C40.5144 111.989 40.5273 111.926 40.5273 111.862C40.5273 111.799 40.5144 111.736 40.4895 111.678C40.4645 111.62 40.428 111.567 40.3821 111.523C40.3361 111.48 40.2818 111.446 40.2224 111.424C40.163 111.402 40.0997 111.392 40.0364 111.395V111.391Z"/>
</mask>
<path d="M40.0364 111.391H41.0364V110.391H40.0364V111.391ZM39.3654 111.391H38.3654V112.391H39.3654V111.391ZM39.3654 110.675V109.675H38.3654V110.675H39.3654ZM39.8832 108.374H40.8832V107.095L39.6423 107.403L39.8832 108.374ZM31.0362 108.365L31.279 107.395L30.0362 107.084V108.365H31.0362ZM31.0362 109.077H30.0362V110.077H31.0362V109.077ZM31.0692 109.077H32.0692V108.077H31.0692V109.077ZM31.587 110.675H32.587V109.675H31.587V110.675ZM31.587 111.391V112.391H32.587V111.391H31.587ZM30.9161 111.391L30.8676 112.39L30.8918 112.391H30.9161V111.391ZM30.9161 112.327V111.327H30.8918L30.8676 111.328L30.9161 112.327ZM34.9804 112.327H35.9804V111.327H34.9804V112.327ZM34.9804 113.208L35.1021 114.201L35.9804 114.093V113.208H34.9804ZM31.4328 116.644L30.4446 116.49L30.4436 116.497L31.4328 116.644ZM31.6752 117.178H32.6752V116.632L32.2163 116.337L31.6752 117.178ZM32.6668 117.272V116.272H31.6668V117.272H32.6668ZM32.7769 117.272H33.7769V116.272H32.7769V117.272ZM33.7685 117.272V116.272H32.7685V117.272H33.7685ZM33.8787 117.272H34.8787V116.272H33.8787V117.272ZM34.8703 117.272V116.272H33.8703V117.272H34.8703ZM34.9804 117.272H35.9804V116.272H34.9804V117.272ZM35.972 117.272V116.272H34.972V117.272H35.972ZM36.0822 117.272H37.0822V116.272H36.0822V117.272ZM37.0738 117.272V116.272H36.0738V117.272H37.0738ZM37.1839 117.272H38.1839V116.272H37.1839V117.272ZM38.1755 117.272V116.272H37.1755V117.272H38.1755ZM38.2857 117.272H39.2857V116.272H38.2857V117.272ZM39.2773 117.181L38.7362 116.34L38.2773 116.636V117.181H39.2773ZM39.5196 116.647L40.5088 116.5L40.5078 116.494L39.5196 116.647ZM35.972 113.212H34.972V114.097L35.8506 114.204L35.972 113.212ZM35.972 112.33V111.33H34.972V112.33H35.972ZM40.0364 112.33L40.0848 111.331L40.0606 111.33H40.0364V112.33ZM40.0364 111.395H39.0364V112.445L40.0848 112.394L40.0364 111.395ZM40.0364 110.391H39.3654V112.391H40.0364V110.391ZM40.3654 111.391V110.675H38.3654V111.391H40.3654ZM39.3654 111.675C39.768 111.675 40.154 111.515 40.4387 111.231L39.0244 109.817C39.1148 109.726 39.2375 109.675 39.3654 109.675V111.675ZM40.4387 111.231C40.7233 110.946 40.8832 110.56 40.8832 110.158H38.8832C38.8832 110.03 38.934 109.907 39.0244 109.817L40.4387 111.231ZM40.8832 110.158V108.374H38.8832V110.158H40.8832ZM39.6423 107.403C36.8959 108.085 34.0241 108.082 31.279 107.395L30.7933 109.335C33.856 110.102 37.06 110.105 40.1241 109.344L39.6423 107.403ZM30.0362 108.365V109.077H32.0362V108.365H30.0362ZM31.0362 110.077H31.0692V108.077H31.0362V110.077ZM30.0692 109.077V110.158H32.0692V109.077H30.0692ZM30.0692 110.158C30.0692 110.56 30.229 110.946 30.5138 111.231L31.928 109.817C32.0185 109.907 32.0692 110.03 32.0692 110.158H30.0692ZM30.5138 111.231C30.7984 111.515 31.1845 111.675 31.587 111.675V109.675C31.7149 109.675 31.8375 109.726 31.928 109.817L30.5138 111.231ZM30.587 110.675V111.391H32.587V110.675H30.587ZM31.587 110.391H30.9161V112.391H31.587V110.391ZM30.9645 110.393C30.7659 110.383 30.5675 110.414 30.3812 110.483L31.0789 112.358C31.0114 112.383 30.9395 112.394 30.8676 112.39L30.9645 110.393ZM30.3812 110.483C30.195 110.552 30.0247 110.659 29.8806 110.796L31.2601 112.244C31.2079 112.294 31.1462 112.332 31.0789 112.358L30.3812 110.483ZM29.8806 110.796C29.7367 110.933 29.6221 111.098 29.5438 111.281L31.3821 112.069C31.3538 112.135 31.3122 112.195 31.2601 112.244L29.8806 110.796ZM29.5438 111.281C29.4655 111.464 29.4251 111.66 29.4251 111.859H31.4251C31.4251 111.931 31.4105 112.002 31.3821 112.069L29.5438 111.281ZM29.4251 111.859C29.4251 112.058 29.4655 112.255 29.5438 112.437L31.3821 111.65C31.4105 111.716 31.4251 111.787 31.4251 111.859H29.4251ZM29.5438 112.437C29.6221 112.62 29.7368 112.785 29.8806 112.922L31.2601 111.474C31.3122 111.524 31.3537 111.583 31.3821 111.65L29.5438 112.437ZM29.8806 112.922C30.0246 113.059 30.1949 113.166 30.3812 113.235L31.0789 111.361C31.1463 111.386 31.208 111.425 31.2601 111.474L29.8806 112.922ZM30.3812 113.235C30.5675 113.305 30.7659 113.335 30.9645 113.326L30.8676 111.328C30.9395 111.325 31.0114 111.336 31.0789 111.361L30.3812 113.235ZM30.9161 113.327H34.9804V111.327H30.9161V113.327ZM33.9804 112.327V113.208H35.9804V112.327H33.9804ZM34.8588 112.216C33.7581 112.351 32.7314 112.841 31.9347 113.612L33.326 115.049C33.8099 114.581 34.4335 114.283 35.1021 114.201L34.8588 112.216ZM31.9347 113.612C31.138 114.384 30.6149 115.394 30.4446 116.49L32.4209 116.797C32.5243 116.131 32.8421 115.518 33.326 115.049L31.9347 113.612ZM30.4436 116.497C30.4001 116.79 30.4421 117.09 30.5646 117.36L32.3859 116.533C32.4224 116.614 32.4349 116.703 32.422 116.79L30.4436 116.497ZM30.5646 117.36C30.687 117.63 30.8848 117.858 31.1341 118.019L32.2163 116.337C32.2905 116.385 32.3494 116.453 32.3859 116.533L30.5646 117.36ZM30.6752 117.178V137.501H32.6752V117.178H30.6752ZM30.6752 137.501C30.6752 137.897 30.8327 138.278 31.1133 138.558L32.5275 137.144C32.6221 137.239 32.6752 137.367 32.6752 137.501H30.6752ZM31.1133 138.558C31.3938 138.839 31.7743 138.997 32.171 138.997V136.997C32.3046 136.997 32.4329 137.05 32.5275 137.144L31.1133 138.558ZM32.171 138.997C32.5677 138.997 32.9481 138.839 33.2286 138.558L31.8144 137.144C31.909 137.05 32.0372 136.997 32.171 136.997V138.997ZM33.2286 138.558C33.5091 138.278 33.6668 137.898 33.6668 137.501H31.6668C31.6668 137.367 31.7199 137.239 31.8144 137.144L33.2286 138.558ZM33.6668 137.501V117.272H31.6668V137.501H33.6668ZM32.6668 118.272H32.7769V116.272H32.6668V118.272ZM31.7769 117.272V137.504H33.7769V117.272H31.7769ZM31.7769 137.504C31.7769 137.901 31.9344 138.281 32.215 138.562L33.6292 137.148C33.7239 137.242 33.7769 137.37 33.7769 137.504H31.7769ZM32.215 138.562C32.4956 138.842 32.8761 139 33.2727 139V137C33.4064 137 33.5346 137.053 33.6292 137.148L32.215 138.562ZM33.2727 139C33.6694 139 34.0499 138.842 34.3304 138.562L32.9162 137.148C33.0107 137.053 33.139 137 33.2727 137V139ZM34.3304 138.562C34.6109 138.281 34.7685 137.901 34.7685 137.504H32.7685C32.7685 137.37 32.8217 137.242 32.9162 137.148L34.3304 138.562ZM34.7685 137.504V117.272H32.7685V137.504H34.7685ZM33.7685 118.272H33.8787V116.272H33.7685V118.272ZM32.8787 117.272V137.504H34.8787V117.272H32.8787ZM32.8787 137.504C32.8787 137.901 33.0362 138.281 33.3168 138.562L34.731 137.148C34.8256 137.242 34.8787 137.37 34.8787 137.504H32.8787ZM33.3168 138.562C33.5973 138.842 33.9778 139 34.3745 139V137C34.5081 137 34.6364 137.053 34.731 137.148L33.3168 138.562ZM34.3745 139C34.7712 139 35.1516 138.842 35.4321 138.562L34.0179 137.148C34.1125 137.053 34.2407 137 34.3745 137V139ZM35.4321 138.562C35.7126 138.281 35.8703 137.901 35.8703 137.504H33.8703C33.8703 137.37 33.9234 137.242 34.0179 137.148L35.4321 138.562ZM35.8703 137.504V117.272H33.8703V137.504H35.8703ZM34.8703 118.272H34.9804V116.272H34.8703V118.272ZM33.9804 117.272V137.504H35.9804V117.272H33.9804ZM33.9804 137.504C33.9804 137.901 34.1379 138.281 34.4185 138.562L35.8327 137.148C35.9274 137.242 35.9804 137.37 35.9804 137.504H33.9804ZM34.4185 138.562C34.6991 138.842 35.0796 139 35.4762 139V137C35.6099 137 35.7381 137.053 35.8327 137.148L34.4185 138.562ZM35.4762 139C35.8729 139 36.2534 138.842 36.5339 138.562L35.1197 137.148C35.2142 137.053 35.3425 137 35.4762 137V139ZM36.5339 138.562C36.8144 138.281 36.972 137.901 36.972 137.504H34.972C34.972 137.37 35.0252 137.242 35.1197 137.148L36.5339 138.562ZM36.972 137.504V117.272H34.972V137.504H36.972ZM35.972 118.272H36.0822V116.272H35.972V118.272ZM35.0822 117.272V137.504H37.0822V117.272H35.0822ZM35.0822 137.504C35.0822 137.901 35.2397 138.281 35.5203 138.562L36.9345 137.148C37.0291 137.242 37.0822 137.37 37.0822 137.504H35.0822ZM35.5203 138.562C35.8008 138.842 36.1813 139 36.578 139V137C36.7116 137 36.8399 137.053 36.9345 137.148L35.5203 138.562ZM36.578 139C36.9747 139 37.3551 138.842 37.6356 138.562L36.2214 137.148C36.316 137.053 36.4442 137 36.578 137V139ZM37.6356 138.562C37.9161 138.281 38.0738 137.901 38.0738 137.504H36.0738C36.0738 137.37 36.1269 137.242 36.2214 137.148L37.6356 138.562ZM38.0738 137.504V117.272H36.0738V137.504H38.0738ZM37.0738 118.272H37.1839V116.272H37.0738V118.272ZM36.1839 117.272V137.504H38.1839V117.272H36.1839ZM36.1839 137.504C36.1839 137.901 36.3414 138.281 36.622 138.562L38.0362 137.148C38.1309 137.242 38.1839 137.37 38.1839 137.504H36.1839ZM36.622 138.562C36.9026 138.842 37.2831 139 37.6797 139V137C37.8134 137 37.9416 137.053 38.0362 137.148L36.622 138.562ZM37.6797 139C38.0764 139 38.4569 138.842 38.7374 138.562L37.3232 137.148C37.4177 137.053 37.546 137 37.6797 137V139ZM38.7374 138.562C39.0179 138.281 39.1755 137.901 39.1755 137.504H37.1755C37.1755 137.37 37.2287 137.242 37.3232 137.148L38.7374 138.562ZM39.1755 137.504V117.272H37.1755V137.504H39.1755ZM38.1755 118.272H38.2857V116.272H38.1755V118.272ZM37.2857 117.272V137.504H39.2857V117.272H37.2857ZM37.2857 137.504C37.2857 137.901 37.4432 138.281 37.7238 138.562L39.138 137.148C39.2326 137.242 39.2857 137.37 39.2857 137.504H37.2857ZM37.7238 138.562C38.0043 138.842 38.3848 139 38.7815 139V137C38.9151 137 39.0434 137.053 39.138 137.148L37.7238 138.562ZM38.7815 139C39.1782 139 39.5586 138.842 39.8391 138.562L38.4249 137.148C38.5195 137.053 38.6477 137 38.7815 137V139ZM39.8391 138.562C40.1196 138.281 40.2773 137.901 40.2773 137.504H38.2773C38.2773 137.37 38.3304 137.242 38.4249 137.148L39.8391 138.562ZM40.2773 137.504V117.181H38.2773V137.504H40.2773ZM39.8184 118.022C40.0676 117.862 40.2654 117.633 40.3879 117.363L38.5665 116.537C38.603 116.456 38.6619 116.388 38.7362 116.34L39.8184 118.022ZM40.3879 117.363C40.5104 117.093 40.5523 116.793 40.5088 116.5L38.5305 116.794C38.5175 116.706 38.53 116.617 38.5665 116.537L40.3879 117.363ZM40.5078 116.494C40.3378 115.398 39.8147 114.387 39.0179 113.616L37.6266 115.052C38.1105 115.521 38.4282 116.135 38.5315 116.8L40.5078 116.494ZM39.0179 113.616C38.2211 112.844 37.1943 112.354 36.0934 112.219L35.8506 114.204C36.5192 114.286 37.1428 114.584 37.6266 115.052L39.0179 113.616ZM36.972 113.212V112.33H34.972V113.212H36.972ZM35.972 113.33H40.0364V111.33H35.972V113.33ZM39.9879 113.329C40.1864 113.339 40.3849 113.308 40.5712 113.239L39.8736 111.364C39.9411 111.339 40.0129 111.328 40.0848 111.331L39.9879 113.329ZM40.5712 113.239C40.7576 113.169 40.9279 113.063 41.0718 112.926L39.6923 111.477C39.7444 111.428 39.8061 111.389 39.8736 111.364L40.5712 113.239ZM41.0718 112.926C41.2159 112.788 41.3304 112.623 41.4086 112.441L39.5703 111.653C39.5986 111.587 39.64 111.527 39.6923 111.477L41.0718 112.926ZM41.4086 112.441C41.4869 112.258 41.5273 112.061 41.5273 111.862H39.5273C39.5273 111.791 39.5419 111.719 39.5703 111.653L41.4086 112.441ZM41.5273 111.862C41.5273 111.664 41.4869 111.467 41.4086 111.284L39.5703 112.072C39.5419 112.006 39.5273 111.934 39.5273 111.862H41.5273ZM41.4086 111.284C41.3304 111.102 41.2159 110.937 41.0718 110.799L39.6923 112.248C39.64 112.198 39.5986 112.138 39.5703 112.072L41.4086 111.284ZM41.0718 110.799C40.9279 110.662 40.7576 110.556 40.5712 110.486L39.8736 112.361C39.8061 112.336 39.7444 112.297 39.6923 112.248L41.0718 110.799ZM40.5712 110.486C40.3848 110.417 40.1863 110.386 39.9879 110.396L40.0848 112.394C40.0131 112.397 39.9412 112.386 39.8736 112.361L40.5712 110.486ZM41.0364 111.395V111.391H39.0364V111.395H41.0364Z" fill="#E13A4B" mask="url(#path-12-inside-2_43_9)"/>
<path d="M36.439 107.725V91.2907C36.7794 91.3094 37.1192 91.3384 37.4579 91.3776C38.1551 92.7393 38.6829 94.1817 39.0292 95.6724C39.9786 99.77 39.4891 103.776 37.5681 107.625C37.1929 107.67 36.8163 107.704 36.439 107.725Z" stroke="#E13A4B"/>
<path d="M40.9697 95.223L40.9696 95.2227C40.7009 94.0653 40.3338 92.9336 39.8727 91.8398C40.228 91.9371 40.5798 92.0473 40.9273 92.1702C41.8941 93.4847 42.6219 94.9595 43.077 96.5272C44.0767 100.039 43.4716 103.454 41.2435 106.728C40.8235 106.888 40.3968 107.028 39.9645 107.15C41.9143 102.42 41.653 98.1738 40.9697 95.223Z" stroke="#E13A4B"/>
<path d="M34.4474 91.2945V107.721C34.0662 107.698 33.6858 107.663 33.3069 107.615C31.3963 103.783 30.9083 99.7932 31.8408 95.7121C32.1868 94.2104 32.7166 92.7575 33.4182 91.3862C33.7602 91.3452 34.1035 91.3146 34.4474 91.2945Z" stroke="#E13A4B"/>
<path d="M29.9101 95.2185L29.9101 95.2185C29.2271 98.1677 28.9657 102.405 30.9058 107.122C30.4678 106.997 30.0356 106.851 29.6105 106.687C27.4034 103.424 26.8071 100.021 27.8027 96.5227C28.2536 94.9693 28.9722 93.5069 29.9258 92.2014C30.2785 92.0738 30.6357 91.9595 30.9967 91.8585C30.54 92.9451 30.1764 94.0691 29.9101 95.2185Z" stroke="#E13A4B"/>
<path d="M25.9 95.9381L25.8997 95.9389C25.2469 98.2044 24.9541 101.355 26.3794 104.858C24.558 103.395 23.5 101.515 23.5 99.5071C23.5 97.4151 24.6509 95.4601 26.6154 93.9721C26.3337 94.6101 26.0946 95.2669 25.9 95.9381Z" stroke="#E13A4B"/>
<path d="M44.98 95.9385L44.9797 95.9376C44.7761 95.2368 44.5242 94.5517 44.2263 93.8871C46.2583 95.3851 47.4525 97.3753 47.4525 99.5069C47.4525 101.554 46.3525 103.468 44.4666 104.943C45.9308 101.403 45.638 98.2179 44.98 95.9385Z" stroke="#E13A4B"/>
</svg>
