<svg width="1163" height="284" viewBox="0 0 1163 284" fill="none" xmlns="http://www.w3.org/2000/svg">
<path d="M637.006 150.049C636.647 150.785 635.193 151.127 634.628 151.76C633.745 153.022 632.929 154.33 632.182 155.677C631.286 157.039 630.122 158.203 628.761 159.099C628.064 159.685 627.227 160.08 626.331 160.245C625.869 160.331 625.442 160.365 624.98 160.468C621.241 161.549 617.293 161.696 613.484 160.895C612.782 160.707 612.081 160.553 611.397 160.416C611.755 160.4 612.111 160.342 612.457 160.245C614.135 159.469 615.598 158.295 616.717 156.824C618.257 155.301 618.684 153.282 619.711 151.435C620.087 150.751 620.481 150.066 620.925 149.416C621.37 148.766 621.678 148.082 622.26 147.808C622.585 147.654 622.448 147.055 622.072 147.107C621.456 147.273 620.928 147.671 620.6 148.219C620.097 148.888 619.64 149.591 619.232 150.323C618.803 151.074 618.42 151.851 618.086 152.649C617.713 153.837 617.134 154.949 616.375 155.934C615.639 156.755 614.852 157.559 614.082 158.312C613.402 159.038 612.52 159.544 611.551 159.766C610.558 159.971 609.515 159.869 608.505 160.091L608.232 160.177C606.914 160.099 605.591 160.191 604.297 160.45C601.457 161.066 598.395 161.083 595.743 162.161C593.451 163.102 592.835 163.752 592.767 166.13C592.8 166.955 592.607 167.774 592.209 168.497C591.811 169.221 591.223 169.822 590.508 170.236C590.04 170.452 589.583 170.691 589.14 170.954C588.558 171.382 588.199 172.118 587.669 172.665C587.138 173.213 586.317 173.811 585.667 174.376C585.425 174.285 585.191 174.177 584.966 174.051C584.966 174.051 584.966 173.897 584.966 173.828C585.004 173.676 585.008 173.517 584.977 173.363C584.945 173.209 584.879 173.064 584.784 172.939C584.688 172.814 584.566 172.712 584.426 172.641C584.285 172.57 584.131 172.531 583.973 172.528H583.871C583.757 172.263 583.665 171.988 583.597 171.707C582.947 168.97 584.11 165.976 584.179 163.153C584.282 162.411 584.159 161.655 583.827 160.984C583.494 160.313 582.967 159.757 582.314 159.39C581.322 158.74 580.244 158.209 579.235 157.576C578.478 157.225 577.839 156.664 577.39 155.961C576.941 155.258 576.703 154.441 576.703 153.607C576.685 153.528 576.641 153.456 576.577 153.405C576.513 153.354 576.434 153.326 576.352 153.326C576.27 153.326 576.191 153.354 576.127 153.405C576.063 153.456 576.019 153.528 576.001 153.607C575.81 154.402 575.872 155.237 576.179 155.995C576.486 156.752 577.022 157.395 577.712 157.833C578.7 158.501 579.722 159.118 580.774 159.681C581.447 159.992 582.069 160.401 582.622 160.895C583.168 161.76 583.358 162.802 583.152 163.803C583.032 166.421 582.057 169.055 582.553 171.673C582.638 172.061 582.747 172.444 582.878 172.819C582.027 173.455 581.336 174.281 580.86 175.231C580.381 176.035 580.004 176.942 579.525 177.729C579.046 178.516 578.02 179.44 577.524 180.569C577.37 180.935 577.245 181.313 577.147 181.698C576.463 182.126 575.779 182.57 575.095 183.084C573.657 184.025 572.42 185.241 571.454 186.662C570.488 188.083 569.812 189.681 569.466 191.364C568.628 192.168 568.252 193.074 566.866 193.382C564.76 194.017 562.721 194.854 560.776 195.88C558.295 197.094 554.035 197.591 554.309 201.286C554.324 201.719 554.463 202.139 554.71 202.495C554.957 202.852 555.301 203.129 555.701 203.295C556.102 203.461 556.542 203.508 556.968 203.431C557.395 203.354 557.79 203.156 558.107 202.86C557.731 203.236 558.843 202.654 559.168 202.552C559.801 202.398 560.451 202.329 561.067 202.21C562.901 201.757 564.679 201.103 566.37 200.259C569.552 198.908 573.726 198.651 574.496 194.46C574.513 194.312 574.513 194.163 574.496 194.015C577.387 193.587 578.311 189.807 578.294 187.309C578.287 186.546 578.356 185.784 578.499 185.034C578.622 184.676 578.719 184.31 578.79 183.939C578.909 183.618 579.046 183.304 579.2 182.998L580.21 182.331C581.521 181.396 582.628 180.203 583.46 178.824C583.589 178.582 583.681 178.323 583.734 178.054C584.522 177.383 585.443 176.888 586.437 176.6C586.607 176.552 586.751 176.439 586.837 176.285C586.924 176.131 586.946 175.949 586.899 175.779C586.853 175.356 586.652 174.966 586.334 174.684C587.429 173.811 588.592 172.973 589.567 172.237C590.543 171.502 591.791 171.279 592.767 170.185C593.456 169.467 593.971 168.601 594.272 167.653C594.614 166.13 593.656 165.223 595.059 164.094C596.413 163.278 597.945 162.802 599.524 162.709C601.765 162.452 603.955 161.699 606.162 161.357C606.059 161.46 606.162 161.597 606.316 161.511C606.422 161.405 606.536 161.308 606.658 161.22C607.482 161.126 608.314 161.126 609.138 161.22C612.56 161.545 615.793 162.931 619.403 162.64C620.989 162.468 622.562 162.182 624.107 161.785C624.86 161.545 625.633 161.373 626.417 161.272C627.033 161.272 627.683 161.443 628.282 161.135C628.538 161.015 628.555 160.878 628.846 160.69C629.545 160.127 630.207 159.522 630.831 158.877C631.679 158.083 632.411 157.173 633.003 156.174C633.728 154.692 634.668 153.326 635.792 152.119C636.579 151.418 637.314 151.298 637.708 150.306C637.759 149.964 637.16 149.707 637.006 150.049ZM574.034 186.95C573.538 187.805 573.298 188.832 572.854 189.738C572.762 189.927 572.682 190.121 572.614 190.32C572.612 189.587 572.763 188.861 573.058 188.189C573.352 187.517 573.784 186.915 574.325 186.419C574.219 186.591 574.122 186.768 574.034 186.95Z" fill="#E13A4B"/>
<path d="M685.147 85.1092C686.681 83.1091 688.048 80.9864 689.235 78.7624C690.946 76.0936 693.17 73.8012 694.658 70.9956C694.722 70.8844 694.739 70.7526 694.705 70.6291C694.671 70.5056 694.59 70.4005 694.479 70.337C694.368 70.2735 694.236 70.2567 694.112 70.2904C693.989 70.3241 693.884 70.4054 693.82 70.5166C692.28 72.655 690.655 74.7422 689.098 76.8977C687.542 79.0532 686.481 81.6022 684.77 83.7407C683.367 85.4514 681.64 86.8371 680.254 88.5478C679.066 90.2326 678.008 92.0055 677.089 93.8512C675.977 95.7501 673.223 96.9134 671.358 97.9911C670.355 98.744 669.178 99.2323 667.937 99.4111C666.881 99.4622 665.829 99.5822 664.789 99.7703C662.87 100.124 660.923 100.307 658.972 100.318C656.857 100.549 654.784 101.073 652.814 101.875C650.999 102.619 649.276 103.572 647.681 104.714C647.117 105.005 646.587 105.347 646.056 105.672C646.704 105.038 647.278 104.332 647.767 103.568C648.775 102.036 649.58 100.38 650.162 98.6412C650.285 97.5962 650.611 96.5852 651.12 95.6645C651.556 95.2983 651.832 94.7768 651.89 94.2104C651.89 94.1078 651.753 94.0906 651.736 94.2104C651.479 94.9802 650.863 95.3395 650.453 95.9211C650.105 96.7021 649.858 97.5242 649.717 98.3675C649.427 99.2991 649.031 100.195 648.537 101.036C648.092 101.857 647.699 102.747 647.168 103.5C646.244 104.838 645.085 105.997 643.747 106.921C643.716 106.852 643.665 106.793 643.602 106.752C643.538 106.71 643.463 106.688 643.387 106.688C643.311 106.688 643.237 106.71 643.173 106.752C643.11 106.793 643.059 106.852 643.028 106.921C642.408 107.726 641.635 108.4 640.753 108.906C639.587 109.783 638.157 110.236 636.698 110.189H636.219C634.885 110.035 633.67 109.453 632.319 109.385C631.666 109.365 631.016 109.469 630.403 109.693C629.633 109.539 628.863 109.368 628.11 109.162C627.905 109.06 627.717 108.991 627.512 108.871L626.896 108.564C627.814 107.372 628.845 106.272 629.975 105.279C630.929 104.28 632.024 103.427 633.226 102.747C634.077 102.27 634.841 101.651 635.484 100.917C636.511 99.8614 637.614 98.8836 638.786 97.9911C639.877 96.8916 641.15 95.9888 642.549 95.3224C642.772 95.2368 642.686 94.8776 642.447 94.9631C640.569 95.8306 638.837 96.9849 637.314 98.3846C636.473 98.9974 635.683 99.6783 634.953 100.42C633.982 101.283 632.9 102.014 631.737 102.593C630.044 103.753 628.528 105.154 627.238 106.75C626.853 107.218 626.515 107.722 626.229 108.256C625.687 108.015 625.109 107.871 624.518 107.828C622.072 107.058 619.471 107.144 616.785 106.442C614.946 105.798 613.05 105.329 611.123 105.039C608.641 104.935 606.177 104.579 603.767 103.979C601.183 103.209 599.284 101.43 596.924 100.301L596.308 100.061C598.496 99.6055 600.63 98.9173 602.672 98.0082C605.38 96.5674 607.966 94.9082 610.404 93.0471C612.936 91.3364 615.126 89.7967 615.263 86.4265C615.34 85.0802 615.305 83.7298 615.16 82.3892C615.033 80.5735 615.326 78.7531 616.016 77.0688C616.517 75.8813 617.25 74.8054 618.171 73.9039C619.026 72.623 619.803 71.2919 620.498 69.9179C622.274 67.0119 624.598 64.4786 627.341 62.459C628.612 61.4585 629.937 60.5277 631.31 59.6705C632.354 59.1063 633.224 58.266 633.824 57.2413C633.927 57.036 634.013 56.8135 634.098 56.6083C634.79 56.1482 635.516 55.7421 636.271 55.3936C636.935 54.9706 637.707 54.7451 638.495 54.7436C639.01 54.8291 639.536 54.8291 640.051 54.7436C640.65 54.5144 641.278 54.3704 641.916 54.3159C642.6 54.3159 643.302 54.4356 644.003 54.4185C645.042 54.3557 646.07 54.172 647.066 53.8711C647.906 53.6604 648.693 53.2758 649.375 52.742C650.047 51.983 650.596 51.1228 651 50.193C651.631 49.3765 652.305 48.5941 653.019 47.8493C653.566 47.1136 654.165 45.5569 655.209 45.4714C655.499 45.4714 655.517 44.9924 655.209 44.9924C654.832 45.0362 654.47 45.1673 654.152 45.3751C653.834 45.583 653.569 45.8619 653.378 46.1898C652.694 47.0452 652.078 47.9006 651.325 48.6704C650.672 49.5645 650.1 50.5149 649.615 51.5103C648.767 52.5639 647.537 53.2402 646.193 53.3921C645.534 53.5434 644.865 53.6519 644.191 53.7171C643.439 53.7171 642.686 53.6316 641.933 53.7171C641.347 53.7643 640.771 53.8968 640.223 54.1106C639.502 54.2557 638.766 54.3075 638.033 54.2645C636.962 54.5247 635.951 54.9894 635.056 55.6332C634.801 55.7636 634.555 55.9122 634.32 56.0779C634.506 55.4023 634.615 54.708 634.646 54.0079C635.364 52.2972 634.646 50.0561 634.646 48.2256C634.954 46.5326 635.888 45.0178 637.263 43.983C639.913 41.5453 643.084 39.7434 646.535 38.7139C647.688 38.3619 648.707 37.6703 649.461 36.7294C650.62 35.5007 651.663 34.1662 652.574 32.7434C653.31 31.563 653.943 29.7325 655.328 29.1509C655.39 29.1327 655.441 29.091 655.472 29.0348C655.502 28.9787 655.509 28.9127 655.491 28.8515C655.473 28.7902 655.431 28.7387 655.375 28.7082C655.319 28.6778 655.253 28.6708 655.192 28.689C654.114 28.8772 653.481 30.0575 652.848 30.8958C652.215 31.7341 651.445 33.0172 650.692 34.0436C650.47 33.7357 650.248 33.4277 650.008 33.154C649.661 32.7813 649.283 32.438 648.879 32.1275C648.038 31.4867 647.315 30.7054 646.74 29.8181C646.274 28.9439 646.045 27.9629 646.075 26.9725C646.105 25.9822 646.393 25.0169 646.912 24.1726C646.912 24.0699 646.826 23.9502 646.74 24.0358C646.134 24.8121 645.757 25.7424 645.651 26.7218C645.545 27.7012 645.715 28.6906 646.142 29.5785C646.646 30.544 647.352 31.3899 648.212 32.0591C649.016 32.7777 649.837 33.4277 650.607 34.1633C650.364 34.5252 650.101 34.8736 649.82 35.2069C648.886 36.6116 647.496 37.651 645.885 38.1494C644.29 38.6161 642.766 39.2951 641.352 40.168C638.474 41.5614 636.057 43.7526 634.389 46.4807C634.337 45.7297 634.151 44.9941 633.841 44.3081C633.062 42.9901 632.193 41.7269 631.241 40.5273C630.531 39.5734 630.057 38.4657 629.855 37.294C629.866 36.7699 629.809 36.2465 629.684 35.7372C629.205 34.4028 627.974 33.8383 627.683 32.3157C627.6 31.1321 627.304 29.9732 626.81 28.8943C625.37 25.4527 624.783 21.7141 625.1 17.9968C625.1 14.8833 626.81 11.8895 626.314 8.7759C626.314 8.57062 625.938 8.62194 625.955 8.7759C626.177 11.6671 624.603 14.3358 624.244 17.1757C623.859 20.0998 623.859 23.0618 624.244 25.986C624.493 27.2322 624.919 28.4362 625.51 29.5614C625.924 30.3318 626.158 31.1856 626.194 32.0591C626.159 32.5943 626.211 33.1316 626.348 33.6501C626.81 34.8476 628.059 35.4464 628.384 36.7808C628.479 37.9054 628.751 39.008 629.188 40.0483C630.54 42.5973 632.798 44.2909 632.866 47.3361C632.866 50.0219 633.534 53.0842 632.866 55.6845C632.353 57.4979 630.831 58.1822 629.445 59.106C628.059 60.0298 627.016 60.8167 625.852 61.7919C623.376 63.6767 621.207 65.933 619.42 68.4808C618.616 69.6783 618.034 71.0128 617.213 72.2103C616.644 72.9362 615.996 73.5961 615.28 74.1776C615.28 73.9894 615.28 73.8012 615.383 73.613C615.671 70.9661 615.625 68.2935 615.246 65.6581C614.459 60.2522 609.583 57.1044 604.981 54.8462C603.27 54.0421 602.809 53.8882 602.312 51.9551C601.881 50.6971 601.633 49.3834 601.577 48.0545C601.748 46.6527 601.782 45.2376 601.68 43.8291C601.68 43.6409 601.577 43.4527 601.543 43.2645C601.885 40.3904 604.4 38.9021 606.367 36.9518C607.381 36.0932 608.213 35.0404 608.813 33.8554C609.168 33.0009 609.41 32.1037 609.532 31.1866L610.045 28.0047C610.052 27.9865 610.055 27.9668 610.053 27.9474C610.051 27.9279 610.044 27.9093 610.033 27.8931C610.022 27.8769 610.007 27.8636 609.99 27.8544C609.973 27.8453 609.953 27.8404 609.934 27.8404C609.914 27.8404 609.895 27.8453 609.878 27.8544C609.86 27.8636 609.846 27.8769 609.835 27.8931C609.824 27.9093 609.817 27.9279 609.815 27.9474C609.813 27.9668 609.815 27.9865 609.823 28.0047C609.207 29.9549 609.463 32.1618 608.574 34.0436C607.779 35.3918 606.747 36.5856 605.529 37.5677C603.818 39.1929 601.953 40.5957 601.577 42.9566C601.163 41.8459 600.849 40.701 600.636 39.5351C600.345 36.9519 601.064 34.1804 599.917 31.7512C599.305 30.5727 598.625 29.4303 597.882 28.3297C596.954 26.6768 596.295 24.8866 595.931 23.0264C595.931 22.8725 595.675 22.9409 595.692 23.0264C596.124 25.6696 597.141 28.1828 598.669 30.3826C600.636 33.5817 599.575 36.6781 600.174 40.1509C600.414 41.605 601.183 42.8539 601.286 44.3251C601.389 45.7964 601.047 47.1479 601.081 48.5678C601.216 49.6816 601.427 50.7848 601.714 51.8695C601.755 52.6132 601.947 53.3406 602.278 54.0079C602.711 54.5893 603.306 55.0297 603.989 55.2739C605.311 55.948 606.591 56.7022 607.821 57.5321C610.507 59.2428 613.295 61.3299 613.843 64.6659C614.596 69.1138 613.723 73.5104 613.484 77.9412C613.484 78.1807 613.347 78.4202 613.261 78.6426C612.628 80.3534 611.551 81.6878 610.935 83.3472C609.925 85.9475 607.513 86.7687 605.306 88.3084C602.804 90.2989 599.989 91.8598 596.975 92.9273C595.418 93.3892 593.827 93.7314 592.253 94.0906C590.679 94.4499 589.071 95.1513 587.429 95.4763C585.994 95.64 584.579 95.9437 583.203 96.383C581.743 97.0829 580.337 97.8891 578.995 98.7952C577.889 99.3917 576.746 99.9174 575.574 100.369L576.035 99.9756C577.011 99.1202 578.123 98.7096 579.132 97.9398C581.197 96.0434 582.805 93.7038 583.836 91.0968C584.812 89.0953 585.427 87.8122 584.333 85.6738C583.785 84.5789 582.964 83.638 582.434 82.5431C581.561 80.8324 582.245 79.652 582.69 77.9412C582.836 76.7195 582.836 75.4848 582.69 74.2631C582.72 73.3832 582.68 72.5023 582.571 71.6286C582.863 71.0152 583.231 70.4405 583.665 69.9179C584.658 68.9695 585.541 67.9138 586.3 66.7701C586.836 65.626 587.266 64.4348 587.583 63.2118C587.79 61.8717 588.299 60.5964 589.071 59.4823C589.09 59.4507 589.097 59.414 589.093 59.3777C589.089 59.3414 589.073 59.3074 589.048 59.2806C589.024 59.2538 588.991 59.2357 588.955 59.2289C588.919 59.2221 588.882 59.227 588.849 59.2428C588.01 60.2034 587.485 61.3971 587.343 62.6643C587.019 64.1377 586.507 65.5635 585.821 66.907C585.361 67.5749 584.827 68.1889 584.23 68.7375C583.716 69.2724 583.241 69.8442 582.81 70.4482L582.417 71.1325C582.381 70.9571 582.329 70.7852 582.263 70.6192C581.339 68.2584 578.944 66.2569 577.13 64.5461C576.976 64.3922 576.737 64.6317 576.891 64.8027C578.875 67.0609 581.407 69.3704 581.869 72.3984C581.692 73.056 581.651 73.7431 581.749 74.4171C581.749 74.554 582.006 74.5197 581.989 74.4171C581.981 74.2575 581.981 74.0976 581.989 73.9381C582.223 75.1841 582.28 76.4568 582.16 77.7189C581.852 78.8137 581.253 79.4296 581.27 80.5587C581.27 82.4747 582.656 83.9802 583.546 85.554C584.76 87.7096 584.127 88.9756 582.947 90.8745C582.093 92.1852 581.094 93.396 579.97 94.4841C578.259 96.1949 576.189 97.4437 574.325 99.086C571.993 100.747 569.513 102.19 566.917 103.397C565.047 104.724 563.527 106.485 562.486 108.529L562.281 108.871L561.306 109.556C558.209 111.874 555.441 114.602 553.077 117.665C552.428 118.517 551.823 119.402 551.264 120.316C551.264 119.632 551.264 118.948 551.264 118.246C551.504 115.823 551.504 113.382 551.264 110.959C551.231 110.545 551.089 110.148 550.851 109.808C550.614 109.468 550.29 109.198 549.912 109.025C550.487 107.19 550.809 105.285 550.87 103.363C550.918 102.675 550.785 101.986 550.485 101.365C550.185 100.744 549.728 100.212 549.16 99.8216C548.213 99.326 547.236 98.8917 546.234 98.5215C544.968 97.9056 543.754 97.1358 542.505 96.4857C541.872 96.1436 541.239 95.8356 540.589 95.5276H540.709C538.895 94.9118 537.698 93.1668 536.209 92.0207C534.721 90.8745 535.303 88.1031 535.696 86.3752C536.374 83.4179 536.099 80.3218 534.909 77.5307C534.407 76.6369 534.038 75.6744 533.814 74.6737C533.729 73.6377 533.729 72.5963 533.814 71.5602C533.917 69.4902 533.814 67.1636 535.115 65.4015C536.021 64.204 539.545 63.3486 539.46 61.5523C539.46 61.4497 539.289 61.4155 539.272 61.5523C539.066 62.8696 536.586 63.6908 535.628 64.4093C534.625 65.2129 533.94 66.3466 533.695 67.6084C533.284 69.5819 533.129 71.6 533.233 73.613C533.48 75.5284 533.898 77.4178 534.482 79.2585C534.909 81.3264 534.944 83.4562 534.584 85.5369C533.981 87.3814 533.618 89.2963 533.506 91.2337C533.512 91.4443 533.552 91.6524 533.626 91.8496C533.37 91.6956 533.13 91.5245 532.856 91.3877C531.884 90.9875 530.955 90.4888 530.085 89.8993C528.374 88.5136 527.673 85.5541 527.125 83.4841C526.544 80.4933 526.337 77.4419 526.509 74.4C526.509 73.0143 526.407 71.5944 526.509 70.2087C526.633 69.003 526.844 67.808 527.142 66.6332C527.22 65.6082 527.22 64.5789 527.142 63.5539C527.317 62.2996 527.58 61.059 527.929 59.8416C528.032 58.5699 527.998 57.2909 527.827 56.0266C527.768 54.3932 527.987 52.7618 528.477 51.2024C528.751 50.5755 528.863 49.8899 528.803 49.2085C528.743 48.527 528.513 47.8715 528.135 47.3019C526.715 45.6767 524.32 45.4371 522.506 44.4962C520.079 43.4083 517.783 42.0481 515.663 40.4418C514.71 38.3674 514.516 36.024 515.116 33.8212C515.358 30.855 515.266 27.871 514.842 24.9253C514.85 24.9046 514.852 24.8824 514.85 24.8605C514.847 24.8386 514.839 24.8177 514.826 24.7996C514.814 24.7814 514.797 24.7667 514.777 24.7564C514.758 24.7462 514.736 24.7408 514.714 24.7408C514.692 24.7408 514.67 24.7462 514.651 24.7564C514.631 24.7667 514.614 24.7814 514.602 24.7996C514.589 24.8177 514.581 24.8386 514.578 24.8605C514.575 24.8824 514.578 24.9046 514.586 24.9253C514.586 26.6361 514.894 28.3468 515.013 30.0575C515.062 31.6504 514.947 33.2439 514.671 34.8134C514.347 36.5973 514.537 38.4366 515.219 40.1167C511.455 36.8663 505.348 34.8647 504.954 29.2193C505.079 27.1609 504.604 25.1104 503.586 23.3172C502.373 21.258 500.994 19.3013 499.463 17.4665C499.138 17.1414 498.659 17.6375 498.967 17.9626C500.468 19.7488 501.813 21.6604 502.987 23.6765C504.407 25.7122 504.013 27.9191 504.372 30.2286C504.611 31.9352 505.47 33.4942 506.785 34.6081C508.148 35.845 509.594 36.9881 511.113 38.0296C512.191 38.5523 513.216 39.1767 514.175 39.8943C514.807 40.5049 515.475 41.0762 516.177 41.6051C518.071 42.7815 520.03 43.8495 522.044 44.8041C523.755 45.7108 527.04 46.0872 527.827 48.2256C528.272 49.4231 527.45 50.9286 527.142 52.0748C526.829 53.1866 526.708 54.3437 526.783 55.4963C526.898 56.6329 526.944 57.7756 526.92 58.9178C526.817 60.2008 526.219 61.3128 526.03 62.5617C525.842 63.8105 526.167 64.9909 526.03 66.2227C525.859 67.1807 525.483 68.0874 525.363 69.0625C525.178 71.6186 525.138 74.1831 525.244 76.7437C525.112 79.2262 525.187 81.7153 525.466 84.1855C525.466 84.7158 525.637 85.2461 525.74 85.7936C525.159 85.0944 524.671 84.324 524.286 83.5011C523.734 82.1961 523.299 80.8451 522.985 79.4638C522.695 78.3518 522.181 77.3767 521.839 76.2818C520.676 72.5182 521.754 67.6426 518.332 64.7514C514.911 61.8603 509.505 61.9458 505.433 60.064C504.238 59.6583 503.211 58.8708 502.508 57.8229C502.283 57.2192 501.94 56.6666 501.498 56.1977C500.215 55.0857 497.82 54.2988 497.102 52.5881C497.102 52.417 496.76 52.4683 496.828 52.5881C497.17 53.6658 498.436 54.5041 499.257 55.1884C499.992 55.6471 500.689 56.1619 501.344 56.728C501.909 57.3439 502.029 58.1651 502.559 58.7981C504.159 60.2312 506.136 61.1752 508.256 61.5181C510.732 62.0481 513.142 62.8514 515.441 63.9132C516.721 64.3867 517.85 65.1963 518.708 66.2569C519.284 67.2034 519.733 68.2214 520.043 69.2849C520.744 71.5088 520.385 73.9894 521.069 76.2476C521.394 77.3083 521.942 78.3005 522.25 79.3612C522.542 80.5218 522.901 81.6643 523.327 82.7827C523.665 83.7424 524.131 84.6517 524.713 85.4856C525.043 85.8525 525.403 86.1902 525.791 86.4949C526.003 87.7249 526.377 88.9214 526.903 90.0533C527.873 91.6508 529.256 92.957 530.906 93.834C532.801 95.1723 534.804 96.351 536.894 97.3582C539.152 98.4359 540.999 100.164 543.155 101.43C544.02 101.922 544.911 102.368 545.824 102.764C546.884 103.243 546.884 102.986 547.107 103.927C547.296 105.973 547.152 108.036 546.679 110.035C546.624 110.317 546.624 110.608 546.679 110.89C546.508 112.772 546.679 114.705 546.388 116.587C546.097 118.469 545.738 120.008 545.601 121.719C545.579 123.2 545.222 124.656 544.558 125.979C543.748 127.011 543.374 128.319 543.514 129.623C543.539 129.808 543.61 129.985 543.72 130.136C543.72 130.564 543.566 131.008 543.48 131.453C542.882 132.356 542.219 133.213 541.496 134.019C539.969 135.886 538.628 137.897 537.492 140.024C536.894 141.17 536.107 142.197 535.491 143.309C534.875 144.421 534.653 145.447 534.003 146.422L533.609 146.73C532.246 147.714 531.01 148.863 529.931 150.152C529.161 150.682 528.408 151.229 527.69 151.76C525.686 153.356 523.778 155.07 521.976 156.892C518.247 160.536 514.432 164.026 510.6 167.55C509.505 167.635 508.41 167.943 507.298 167.978C505.789 167.968 504.309 168.396 503.038 169.209C501.896 170.101 500.663 170.87 499.36 171.502C497.786 172.152 497.068 173.452 495.682 174.256C493.159 175.693 490.507 176.89 487.761 177.832C484.706 178.648 481.984 180.4 479.977 182.844C479.068 184.241 478.338 185.747 477.805 187.326C477.12 188.917 476.094 190.388 475.444 191.996C474.794 193.605 473.99 195.418 473.374 197.129C473.032 198.087 473.049 199.199 472.724 200.122C472.484 200.755 471.971 201.286 471.663 201.833C470.971 203.542 470.159 205.2 469.234 206.794C468.242 208.3 467.249 209.805 466.326 211.345C464.473 214.449 462.887 217.706 461.587 221.079C461.378 221.326 461.231 221.619 461.159 221.934L461.056 222.431C460.989 222.722 460.982 223.023 461.035 223.318C461.088 223.612 461.2 223.892 461.364 224.141C461.258 224.684 461.354 225.246 461.635 225.722C461.916 226.198 462.361 226.555 462.887 226.725C466.308 228.025 469.644 224.347 472.758 223.491C475.204 222.841 477.753 222.533 480.183 221.781C482.116 221.216 484.716 219.351 484.169 216.956V216.597C484.519 216.171 484.829 215.713 485.092 215.228C485.742 214.048 486.221 212.782 486.803 211.55C487.385 210.318 487.864 209.121 488.514 207.906C488.978 206.634 489.55 205.403 490.225 204.228C490.945 203.362 491.523 202.386 491.935 201.337C492.194 200.291 492.628 199.296 493.218 198.395C493.795 197.737 494.273 196.999 494.638 196.205C494.827 195.692 494.638 194.99 494.861 194.494C495.126 193.938 495.466 193.42 495.87 192.954C497.039 190.986 498.096 188.952 499.035 186.864C499.37 186.115 499.826 185.428 500.386 184.828C501.293 184.007 502.474 183.494 503.346 182.604C503.637 182.331 504.355 181.715 504.116 181.732C504.557 181.569 504.981 181.362 505.382 181.116C506.46 180.415 507.435 179.576 508.512 178.875C510.786 177.462 512.933 175.853 514.928 174.068L515.15 173.863C516.104 173.9 517.06 173.86 518.007 173.743C522.216 172.562 524.97 169.175 527.707 166.062C529.144 164.351 531.128 163.667 532.651 162.093C533.979 160.608 535.192 159.024 536.278 157.354C537.016 156.175 537.634 154.926 538.125 153.625C538.758 152.992 539.374 152.359 540.024 151.743C541.615 150.22 544.729 147.859 545.259 145.362C545.837 145.185 546.338 144.817 546.679 144.318C548.39 141.581 548.629 138.313 548.954 135.08C550.028 132.326 551.339 129.67 552.872 127.142C554.555 124.442 556.479 121.9 558.62 119.546C561.078 117.15 563.811 115.054 566.763 113.302C569.774 111.301 572.905 109.47 576.018 107.657C577.729 106.682 579.44 105.861 581.253 105.005C581.772 104.91 582.3 104.876 582.827 104.903C584.357 105.114 585.905 105.171 587.446 105.074C588.81 104.859 590.201 104.894 591.552 105.176C593.069 105.652 594.618 106.018 596.188 106.271C597.403 106.408 598.6 106.579 599.815 106.647C600.389 106.679 600.96 106.748 601.526 106.853C602.335 107.606 603.122 108.375 603.886 109.162C605.597 110.873 608.283 111.677 610.267 113.046C611.191 113.696 611.431 114.842 612.32 115.543C612.953 115.966 613.683 116.219 614.442 116.279C616.37 116.567 618.34 116.3 620.121 115.509C621.007 115.024 621.786 114.367 622.414 113.576C622.678 113.248 622.924 112.905 623.149 112.55C623.598 111.962 624.141 111.453 624.757 111.044C625.141 111.267 625.548 111.445 625.972 111.574C626.394 111.931 626.891 112.188 627.426 112.327C629.137 112.721 630.848 111.78 632.558 111.506C633.362 111.643 634.149 111.865 634.971 112.036C635.783 112.224 636.624 112.25 637.446 112.112C638.268 111.974 639.054 111.675 639.761 111.232C641.796 109.966 643.49 108.204 645.492 106.887C646.364 106.322 647.288 105.895 648.212 105.399C649.136 104.903 650.196 103.927 651.274 103.346C652.51 102.848 653.779 102.437 655.072 102.114C656.316 101.598 657.643 101.308 658.989 101.259C660.82 101.259 662.65 101.036 664.447 100.865C665.627 100.745 666.739 100.472 667.954 100.438C668.632 100.453 669.309 100.354 669.955 100.147C672.005 99.2071 673.954 98.0606 675.772 96.7252C676.196 96.4521 676.591 96.1369 676.952 95.7843C676.961 95.8065 676.976 95.8256 676.996 95.839C677.016 95.8524 677.039 95.8596 677.063 95.8596C677.087 95.8596 677.111 95.8524 677.131 95.839C677.15 95.8256 677.166 95.8065 677.175 95.7843C677.568 95.0896 678.126 94.5021 678.8 94.0736C679.425 93.7756 680.109 93.618 680.801 93.6116C682.148 93.6381 683.495 93.535 684.822 93.3037C686.49 93.0412 688.066 92.3648 689.406 91.3364C689.926 90.825 690.499 90.3718 691.117 89.9849C691.328 89.8837 691.503 89.7225 691.622 89.5215C691.741 89.3205 691.797 89.0888 691.784 88.8558C691.784 88.8195 691.77 88.7847 691.744 88.759C691.719 88.7334 691.684 88.7189 691.647 88.7189C691.611 88.7189 691.576 88.7334 691.551 88.759C691.525 88.7847 691.511 88.8195 691.511 88.8558C691.511 89.523 690.433 89.7454 689.971 90.1217C689.384 90.7016 688.743 91.223 688.055 91.6785C686.45 92.4633 684.706 92.9227 682.923 93.03C681.362 92.9594 679.805 93.2462 678.372 93.8683C678.766 93.1498 679.142 92.3799 679.655 91.5416C681.267 89.2203 683.107 87.0655 685.147 85.1092ZM496.965 176.891C496.965 176.891 496.811 176.6 496.965 176.891V176.891ZM488.069 180.825C488.323 180.472 488.692 180.218 489.113 180.107C489.549 179.946 490.003 179.837 490.464 179.782C490.755 179.782 491.063 179.782 491.354 179.679C491.659 179.605 491.957 179.502 492.243 179.371C492.769 179.159 493.264 178.878 493.715 178.533C493.986 178.33 494.286 178.169 494.604 178.054C494.895 177.968 495.186 177.968 495.477 177.883C495.545 177.864 495.617 177.862 495.686 177.876C495.755 177.89 495.821 177.919 495.877 177.962C495.933 178.005 495.979 178.06 496.01 178.124C496.042 178.187 496.058 178.257 496.058 178.328C496.058 179.029 495.425 179.559 494.929 179.936C494.314 180.399 493.626 180.757 492.893 180.996C492.495 181.113 492.11 181.274 491.747 181.475C491.473 181.696 491.188 181.901 490.892 182.091C490.525 182.232 490.129 182.277 489.74 182.223C489.351 182.169 488.982 182.018 488.668 181.783C488.551 181.794 488.434 181.772 488.329 181.72C488.224 181.668 488.136 181.588 488.074 181.488C488.012 181.389 487.979 181.275 487.978 181.158C487.977 181.04 488.008 180.925 488.069 180.825ZM494.604 183.939L494.228 184.315C494.052 184.409 493.869 184.489 493.68 184.555C493.304 184.743 493.218 185.188 492.842 185.41C492.516 185.596 492.179 185.762 491.833 185.906C491.386 185.983 490.928 185.983 490.481 185.906C489.989 185.967 489.51 186.105 489.061 186.317C488.18 186.51 487.271 186.551 486.375 186.437H486.153C486.13 186.437 486.109 186.428 486.093 186.411C486.077 186.395 486.068 186.374 486.068 186.351C486.068 186.328 486.077 186.307 486.093 186.291C486.109 186.274 486.13 186.265 486.153 186.265H486.358C487.303 186.322 488.251 186.195 489.147 185.889C489.485 185.702 489.848 185.564 490.225 185.479C490.68 185.513 491.138 185.513 491.593 185.479C491.79 185.399 491.979 185.301 492.158 185.188C492.312 185.188 492.483 185.068 492.637 184.982C492.791 184.897 493.03 184.384 493.39 184.213C493.595 184.142 493.795 184.056 493.988 183.956C494.156 183.842 494.306 183.704 494.433 183.545C494.775 183.203 495.152 182.895 495.528 182.587C495.528 182.587 495.716 182.587 495.648 182.69C495.288 183.152 494.912 183.545 494.57 183.939H494.604ZM497.855 179.269C497.617 179.955 497.175 180.552 496.589 180.979C495.887 181.637 495.112 182.211 494.279 182.69C493.338 183.152 492.346 183.528 491.371 183.939C490.535 184.291 489.663 184.549 488.77 184.709C488.103 184.808 487.422 184.662 486.854 184.298C486.341 183.973 485.657 183.203 485.007 183.272C485.007 183.272 484.904 183.135 485.007 183.118C485.879 182.878 486.718 183.956 487.505 184.195C488.365 184.344 489.251 184.218 490.036 183.836C490.808 183.611 491.563 183.33 492.295 182.998C493.86 182.274 495.317 181.336 496.623 180.209C497.187 179.748 497.649 179.354 497.581 178.499C497.566 178.244 497.526 177.992 497.461 177.746C497.385 177.466 497.264 177.2 497.102 176.959C497.178 176.985 497.247 177.026 497.307 177.079C497.46 177.289 497.57 177.528 497.632 177.78C497.822 178.252 497.887 178.764 497.82 179.269H497.855ZM565.053 106.853C566.378 105.557 567.94 104.529 569.654 103.825C568.166 104.749 566.609 105.792 565.053 106.853ZM622.927 111.592C622.241 112.759 621.334 113.781 620.258 114.602C619.054 115.228 617.715 115.551 616.358 115.543C615.513 115.717 614.635 115.622 613.847 115.272C613.059 114.923 612.4 114.336 611.961 113.593C611.652 113.058 611.194 112.625 610.644 112.344C609.703 111.831 608.933 111.164 607.907 110.634C606.463 110.048 605.123 109.233 603.938 108.221L602.672 107.058C603.2 107.216 603.715 107.416 604.211 107.657C606.384 108.735 609.446 107.657 611.79 107.657C613.501 107.546 615.218 107.586 616.922 107.777C617.43 107.894 617.944 107.985 618.462 108.05C619.599 108.302 620.706 108.675 621.764 109.162C622.582 109.603 623.376 110.088 624.142 110.616C623.695 110.886 623.287 111.214 622.927 111.592Z" fill="#E13A4B"/>
<path d="M698.49 92.4998C698.39 92.243 698.276 91.9917 698.148 91.7471V91.6273V91.5418C698.13 91.4586 698.101 91.3782 698.063 91.3023C697.987 91.0181 697.896 90.7382 697.789 90.464C697.721 90.2573 697.635 90.057 697.532 89.8653C697.532 89.8653 697.139 89.4034 697.156 89.3863C697.173 89.3692 697.31 89.5916 697.156 89.3863L697.036 89.2152L696.677 88.7533C696.487 88.5483 696.274 88.3647 696.044 88.2059C695.902 88.1469 695.742 88.1469 695.599 88.2059C695.537 88.1345 695.458 88.081 695.368 88.0508C695.279 88.0206 695.183 88.0147 695.091 88.0339C694.998 88.0531 694.913 88.0965 694.843 88.1599C694.773 88.2232 694.721 88.304 694.693 88.3941C694.5 88.8966 694.362 89.4186 694.282 89.9508C694.146 90.5129 694.146 91.0995 694.282 91.6616C694.58 92.4088 695.015 93.0935 695.565 93.6803C695.8 94.047 696.138 94.3366 696.537 94.513C696.935 94.6894 697.376 94.7448 697.806 94.6725C698.007 94.5891 698.186 94.463 698.333 94.3028C698.479 94.1427 698.589 93.9525 698.654 93.7455C698.719 93.5385 698.738 93.3197 698.71 93.1046C698.682 92.8894 698.607 92.683 698.49 92.4998Z" fill="white"/>
<path d="M698.046 91.627V91.5248C698.053 91.5585 698.053 91.5934 698.046 91.627Z" fill="white"/>
<path d="M700.937 66.5307C700.355 65.5727 699.124 66.1886 698.422 66.5307C697.831 66.9108 697.259 67.3219 696.711 67.7625C695.929 68.2404 695.276 68.9045 694.813 69.6956C694.607 69.8496 694.402 69.9864 694.214 70.1575C694.035 70.337 693.935 70.58 693.935 70.8332C693.935 71.0865 694.035 71.3295 694.214 71.509C694.393 71.6876 694.636 71.7879 694.889 71.7879C695.143 71.7879 695.386 71.6876 695.565 71.509L695.753 71.3379H695.856C695.976 71.2368 696.109 71.1507 696.25 71.0813C696.557 70.876 696.882 70.7049 697.225 70.5167C697.893 70.1708 698.529 69.7642 699.124 69.3021C699.551 68.96 699.962 68.5665 700.39 68.2073C700.817 67.848 701.33 67.1124 700.937 66.5307Z" fill="white"/>
<path d="M692.794 64.2725C692.768 63.8 692.637 63.3392 692.408 62.9246C692.18 62.5099 691.862 62.152 691.476 61.8775C691.268 61.7373 691.051 61.6116 690.826 61.5011C690.779 61.3156 690.722 61.1328 690.655 60.9537C690.655 60.7997 690.553 60.6629 690.501 60.526C690.424 60.3856 690.332 60.2538 690.227 60.1326C690.183 60.0613 690.122 60.0009 690.051 59.956C689.98 59.911 689.899 59.8826 689.816 59.8728C689.732 59.8629 689.647 59.8719 689.568 59.8991C689.488 59.9263 689.415 59.971 689.355 60.0299C689.193 60.1648 689.071 60.3412 689.002 60.54C688.933 60.7389 688.919 60.9528 688.962 61.159C688.971 61.2899 688.971 61.4215 688.962 61.5524V61.7577C688.855 61.9722 688.81 62.2118 688.831 62.4503C688.852 62.6888 688.939 62.9168 689.081 63.1092C689.116 63.4367 689.167 63.7622 689.235 64.0844C689.376 64.6913 689.619 65.2699 689.954 65.7951C690.262 66.3083 690.587 66.8387 690.929 67.3519C691.03 67.5193 691.178 67.6537 691.354 67.7387C691.53 67.8237 691.727 67.8558 691.921 67.8309C692.113 67.8045 692.293 67.7223 692.439 67.5946C692.585 67.4669 692.691 67.2993 692.742 67.1124C692.891 66.1727 692.908 65.2169 692.794 64.2725Z" fill="white"/>
<path d="M698.73 80.4905C698.613 80.3207 698.454 80.185 698.268 80.097C697.855 79.8564 697.39 79.7211 696.912 79.7032C696.435 79.6853 695.96 79.7853 695.531 79.9943L695.052 80.1654C694.96 80.1214 694.862 80.0924 694.761 80.0798C694.636 80.0621 694.509 80.0621 694.385 80.0798H694.282H693.974H693.187C692.212 80.0798 691.22 80.422 690.912 81.4656C690.832 81.7739 690.875 82.1011 691.031 82.3787C691.187 82.6562 691.445 82.8623 691.75 82.9539C692.675 83.1784 693.636 83.2075 694.573 83.0394C695.12 83.0394 695.651 83.0394 696.181 82.9368C696.851 82.9076 697.508 82.7447 698.114 82.4578C698.289 82.3749 698.445 82.2568 698.572 82.1107C698.699 81.9646 698.795 81.7938 698.853 81.609C698.911 81.4241 698.929 81.2294 698.908 81.0369C698.887 80.8444 698.826 80.6583 698.73 80.4905Z" fill="white"/>
<path d="M688.5 77.1889C688.021 76.2993 687.593 75.3755 687.097 74.4859C686.847 74.0585 686.555 73.6573 686.224 73.2883C686.079 73.0775 685.889 72.902 685.667 72.7747C685.444 72.6474 685.197 72.5716 684.941 72.5527C684.642 72.5646 684.358 72.6864 684.144 72.8948C683.929 73.1032 683.799 73.3834 683.778 73.6818C683.739 74.1567 683.84 74.6327 684.069 75.0505C684.267 75.42 684.508 75.7645 684.787 76.0769L685.318 76.6072C685.318 76.7612 685.523 76.898 685.626 77.052C685.478 77.0318 685.327 77.0619 685.198 77.1375C685.028 77.2364 684.883 77.3724 684.774 77.5353C684.664 77.6983 684.593 77.884 684.565 78.0785C684.428 78.8019 684.428 79.5447 684.565 80.2682C684.643 80.7296 684.746 81.1864 684.873 81.6368C684.921 82.4045 685.215 83.1365 685.711 83.7239C685.795 83.8093 685.9 83.8712 686.015 83.9035C686.13 83.9358 686.252 83.9373 686.368 83.9079C686.484 83.8784 686.59 83.8191 686.676 83.7358C686.762 83.6525 686.824 83.5481 686.857 83.4331C687.037 82.5065 687.037 81.554 686.857 80.6274C686.884 79.8121 686.78 78.9978 686.55 78.2153C686.778 78.376 687.025 78.5081 687.285 78.6088C687.471 78.6618 687.668 78.6575 687.851 78.5965C688.034 78.5354 688.195 78.4204 688.312 78.2666C688.445 78.1252 688.534 77.9476 688.568 77.756C688.601 77.5644 688.577 77.3672 688.5 77.1889Z" fill="white"/>
<path d="M655.722 89.1811C655.784 89.1134 655.831 89.0331 655.859 88.9456C655.887 88.8581 655.895 88.7655 655.884 88.6743C655.872 88.5832 655.841 88.4956 655.793 88.4177C655.744 88.3398 655.679 88.2733 655.602 88.2231C655.446 88.1253 655.27 88.0625 655.087 88.0389C654.904 88.0152 654.718 88.0314 654.542 88.0862C654.193 88.2213 653.891 88.4527 653.669 88.7534C653.534 88.9055 653.409 89.0654 653.293 89.2324L653.139 89.4377C653.139 89.4377 652.968 89.7285 653.139 89.4377C652.94 89.7138 652.717 89.9715 652.472 90.2075C651.856 90.8301 651.327 91.532 650.898 92.2946C650.739 92.548 650.645 92.8356 650.621 93.1333C650.597 93.431 650.645 93.7301 650.761 94.0054C650.955 94.2866 651.235 94.4971 651.559 94.6051C651.883 94.7131 652.233 94.7128 652.557 94.6041C653.186 94.4014 653.763 94.0636 654.248 93.6144C654.732 93.1652 655.113 92.6155 655.363 92.0038C655.597 91.4614 655.736 90.8827 655.773 90.293C655.805 89.9786 655.787 89.6613 655.722 89.3522V89.1811Z" fill="white"/>
<path d="M661.521 106.579L661.247 106.477L661.093 106.357C660.837 106.152 660.614 105.912 660.341 105.724C659.902 105.433 659.395 105.262 658.869 105.228C658.605 105.074 658.33 104.937 658.048 104.817C657.718 104.682 657.355 104.647 657.005 104.717C656.655 104.787 656.334 104.959 656.081 105.211C655.949 105.35 655.87 105.532 655.859 105.724C655.85 105.775 655.85 105.827 655.859 105.878C655.757 105.997 655.703 106.149 655.705 106.306C655.705 106.956 656.338 107.127 656.902 107.161C657.411 107.409 657.944 107.604 658.493 107.743L659.041 107.897C659.366 107.897 659.691 107.897 659.964 108.051C660.234 108.201 660.514 108.333 660.803 108.444C661.231 108.539 661.678 108.503 662.086 108.341C662.216 108.301 662.332 108.222 662.417 108.115C662.502 108.009 662.554 107.879 662.565 107.743C662.565 107.093 662.069 106.75 661.521 106.579Z" fill="white"/>
<path d="M681.007 131.282C680.743 130.657 680.379 130.079 679.929 129.572C679.771 129.225 679.645 128.864 679.553 128.494C679.467 128.22 679.347 127.946 679.245 127.656C679.142 127.365 678.868 126.236 678.287 125.945C678.154 125.89 678.011 125.861 677.868 125.861C677.724 125.861 677.581 125.89 677.448 125.945C677.377 125.918 677.301 125.908 677.225 125.916C677.15 125.924 677.077 125.95 677.014 125.992C676.95 126.034 676.897 126.09 676.86 126.156C676.823 126.222 676.801 126.297 676.798 126.373C676.756 127.21 676.756 128.05 676.798 128.887C676.798 129.349 676.798 129.828 676.798 130.29C676.819 131.269 677.084 132.228 677.568 133.079C677.832 133.52 678.254 133.844 678.749 133.985C679.061 134.056 679.387 134.037 679.69 133.931C679.992 133.825 680.259 133.637 680.459 133.387C680.707 133.102 680.885 132.764 680.98 132.399C681.075 132.034 681.084 131.652 681.007 131.282Z" fill="white"/>
<path d="M683.487 109.641C683.282 109.422 683.039 109.242 682.769 109.111L682.375 109.026L682.238 108.923C681.859 108.693 681.432 108.552 680.989 108.512H680.801C680.06 107.987 679.192 107.668 678.286 107.589C678.105 107.597 677.933 107.674 677.806 107.805C677.679 107.935 677.606 108.108 677.602 108.29C677.627 108.65 677.745 108.998 677.944 109.299C677.978 109.371 678.018 109.44 678.064 109.505C678.391 109.905 678.799 110.231 679.262 110.463C679.567 110.623 679.881 110.765 680.203 110.89C680.549 111.078 680.909 111.238 681.28 111.369C681.627 111.49 681.992 111.548 682.358 111.54H682.598C682.682 111.541 682.766 111.522 682.843 111.487C682.919 111.451 682.988 111.4 683.042 111.335C683.156 111.281 683.257 111.202 683.336 111.105C683.416 111.007 683.474 110.893 683.504 110.771C683.556 110.592 683.556 110.402 683.504 110.223C683.563 110.137 683.593 110.034 683.59 109.93C683.587 109.825 683.551 109.724 683.487 109.641Z" fill="white"/>
<path d="M633.123 80.1483C632.405 79.7035 631.635 80.3365 631.19 80.8668C630.546 81.6617 630.016 82.5427 629.616 83.4842L628.726 84.5449C628.333 85.0752 627.82 85.845 628.213 86.5122C628.607 87.1794 629.376 86.9742 629.924 86.7518C630.398 86.5685 630.829 86.2889 631.19 85.9306C631.545 85.5704 631.856 85.1683 632.114 84.733C632.221 84.5444 632.318 84.3503 632.405 84.1514C632.405 84.1514 632.405 83.9633 632.524 83.8606C632.798 83.2961 633.106 82.7315 633.345 82.1499C633.585 81.5682 633.79 80.5588 633.123 80.1483Z" fill="white"/>
<path d="M647.51 127.587C647.298 127.076 646.923 126.648 646.444 126.37C645.965 126.092 645.408 125.979 644.859 126.048C644.294 126.048 643.764 126.201 643.148 126.27H642.156C641.732 126.176 641.294 126.168 640.868 126.247C640.442 126.327 640.036 126.492 639.675 126.732C639.535 126.873 639.457 127.063 639.457 127.262C639.457 127.461 639.535 127.651 639.675 127.792C639.92 128.023 640.212 128.198 640.531 128.305C640.85 128.411 641.188 128.446 641.523 128.408C642.139 128.408 642.737 128.289 643.353 128.289H643.747L644.191 128.408C644.539 128.518 644.893 128.604 645.252 128.665C645.626 128.776 646.023 128.788 646.403 128.701C646.784 128.614 647.136 128.431 647.425 128.169C647.493 128.09 647.537 127.993 647.552 127.89C647.567 127.787 647.553 127.682 647.51 127.587Z" fill="white"/>
<path d="M644.944 160.314C644.26 159.493 643.233 158.158 642.087 158.346H642.002C641.925 158.293 641.835 158.26 641.742 158.251C641.648 158.242 641.554 158.257 641.468 158.295C641.383 158.332 641.308 158.392 641.251 158.467C641.195 158.541 641.159 158.63 641.146 158.723C641.123 159.093 641.17 159.464 641.283 159.818C641.258 159.942 641.258 160.07 641.283 160.194C641.419 160.623 641.66 161.011 641.985 161.323L642.07 161.426C642.099 161.657 642.145 161.885 642.207 162.11C642.519 163.016 643.014 163.849 643.661 164.556C644.209 165.155 645.611 166.028 646.227 165.001C646.302 164.853 646.337 164.688 646.33 164.522C646.443 164.491 646.546 164.431 646.627 164.346C646.708 164.262 646.765 164.157 646.792 164.043C646.761 163.327 646.581 162.625 646.263 161.983C645.945 161.34 645.496 160.772 644.944 160.314Z" fill="white"/>
<path d="M650.932 144.096C650.497 143.856 650.008 143.731 649.512 143.731C649.015 143.731 648.527 143.856 648.092 144.096L646.826 144.524C646.224 144.77 645.607 144.975 644.978 145.139C644.796 145.194 644.638 145.312 644.534 145.472C644.431 145.633 644.387 145.824 644.412 146.014C644.436 146.203 644.528 146.377 644.669 146.505C644.811 146.634 644.993 146.707 645.184 146.713C645.782 146.713 646.381 146.713 646.894 146.713H647.185C647.666 146.736 648.147 146.672 648.605 146.525C649.457 146.375 650.241 145.963 650.846 145.345C651.022 145.19 651.13 144.972 651.146 144.738C651.162 144.504 651.085 144.273 650.932 144.096Z" fill="white"/>
<path d="M607.171 138.142C606.384 137.903 605.837 138.604 605.734 139.306C605.606 140.088 605.606 140.885 605.734 141.667C605.762 141.838 605.814 142.005 605.888 142.163C605.888 142.334 605.888 142.505 606.025 142.676C606.083 143.052 606.186 143.42 606.333 143.771C606.393 143.87 606.482 143.948 606.589 143.993C606.589 143.993 606.589 144.079 606.589 144.13C606.589 144.524 607.205 144.609 607.274 144.233C607.282 144.153 607.282 144.073 607.274 143.993C607.36 143.963 607.437 143.91 607.496 143.841C607.556 143.773 607.598 143.689 607.616 143.6C607.674 143.346 607.674 143.083 607.616 142.83C607.793 141.98 607.885 141.115 607.89 140.247C607.924 139.477 608.112 138.416 607.171 138.142Z" fill="white"/>
<path d="M557.85 84.562C557.961 84.3887 558.014 84.1854 558.004 83.9803C558.004 83.1762 557.046 83.1591 556.465 83.3131C555.705 83.5373 554.992 83.8966 554.36 84.3737L553.608 84.7159C553.322 84.8269 553.063 84.9971 552.848 85.2152C552.633 85.4334 552.466 85.6947 552.359 85.9819C552.312 86.145 552.303 86.3166 552.332 86.4838C552.361 86.651 552.427 86.8096 552.526 86.9476C552.624 87.0857 552.753 87.1998 552.902 87.2814C553.051 87.3629 553.216 87.4099 553.385 87.4189C553.739 87.4273 554.088 87.3385 554.395 87.1623C554.73 87.0115 555.056 86.8401 555.37 86.6491C555.972 86.3043 556.544 85.9094 557.08 85.4687C557.23 85.3512 557.367 85.2194 557.491 85.0752C557.567 85.0277 557.636 84.9701 557.696 84.9041C557.776 84.8049 557.829 84.6872 557.85 84.562Z" fill="white"/>
<path d="M581.955 54.932C581.926 54.4683 581.846 54.0092 581.715 53.5634C581.707 53.4781 581.707 53.3921 581.715 53.3068C581.619 52.898 581.476 52.5018 581.287 52.1264C581.115 51.8111 581.021 51.4591 581.014 51.1C581.016 51.0267 581.004 50.9536 580.977 50.8852C580.951 50.8168 580.911 50.7544 580.86 50.7017C580.809 50.6491 580.747 50.6072 580.68 50.5786C580.612 50.5501 580.54 50.5354 580.466 50.5354C580.318 50.5397 580.177 50.6006 580.072 50.7055C579.967 50.8105 579.906 50.9516 579.902 51.1C579.894 51.3773 579.928 51.6543 580.004 51.9211C579.989 52.0117 579.989 52.1043 580.004 52.1948C579.996 52.3144 579.996 52.4345 580.004 52.5541C580.004 53.0673 580.004 53.5976 580.004 54.1108C580.006 54.5941 580.087 55.0738 580.244 55.5308C580.466 56.0953 580.962 56.6256 581.613 56.3006C582.263 55.9756 581.955 55.3768 581.955 54.932Z" fill="white"/>
<path d="M597.779 61.4328C597.474 61.3145 597.146 61.2677 596.821 61.2959C596.1 61.4182 595.42 61.7116 594.836 62.1513C594.348 62.3891 593.902 62.7071 593.519 63.0922C593.256 63.3657 593.099 63.7232 593.074 64.1015C593.044 64.3306 593.091 64.5633 593.209 64.762C593.327 64.9606 593.509 65.1137 593.724 65.1964C594.298 65.2598 594.875 65.114 595.35 64.7859H595.469C595.88 64.6502 596.272 64.4603 596.633 64.2213C596.958 64.016 597.334 63.8791 597.676 63.691C598.018 63.5028 598.737 62.9553 598.566 62.2881C598.521 62.0891 598.425 61.9053 598.287 61.7552C598.149 61.605 597.973 61.4938 597.779 61.4328Z" fill="white"/>
<path d="M601.902 69.6102C601.902 69.2168 601.799 68.8233 601.731 68.4128C601.641 67.693 601.39 67.0028 600.995 66.394C600.943 66.3226 600.877 66.2628 600.8 66.2186C600.723 66.1744 600.638 66.1468 600.55 66.1374C600.513 66.0486 600.447 65.9749 600.363 65.9284C600.278 65.8818 600.181 65.8651 600.086 65.8809C599.991 65.8968 599.904 65.9442 599.839 66.0156C599.774 66.087 599.736 66.1782 599.729 66.2743C599.644 67.0189 599.644 67.7708 599.729 68.5154C599.862 69.2952 600.247 70.0102 600.824 70.5512C600.882 70.6651 600.971 70.7601 601.081 70.8249C601.17 70.8915 601.278 70.9275 601.389 70.9275C601.5 70.9275 601.608 70.8915 601.697 70.8249C602.073 70.5341 601.953 70.0037 601.902 69.6102Z" fill="white"/>
<path d="M672.829 44.6502C672.799 44.526 672.735 44.4125 672.644 44.3221C672.554 44.2316 672.44 44.1676 672.316 44.137C671.845 44.0684 671.367 44.0684 670.896 44.137C670.245 44.1881 669.598 44.2911 668.963 44.4449C668.394 44.5688 667.85 44.7886 667.355 45.095C667.06 45.2551 666.832 45.5159 666.712 45.8298C666.593 46.1437 666.59 46.49 666.705 46.8057C666.91 47.3019 667.594 47.3874 668.073 47.4216C668.511 47.4727 668.953 47.4727 669.391 47.4216C669.924 47.3462 670.443 47.1905 670.93 46.9597C671.454 46.7646 671.928 46.4548 672.316 46.053C672.548 45.9119 672.725 45.6963 672.818 45.4415C672.911 45.1866 672.915 44.9076 672.829 44.6502Z" fill="white"/>
<path d="M657.313 96.349C657.171 96.2201 657.016 96.1055 656.851 96.0069C656.859 95.9444 656.859 95.8812 656.851 95.8187C656.848 95.6765 656.817 95.5364 656.758 95.407C656.699 95.2775 656.614 95.1615 656.509 95.0659C656.017 94.691 655.416 94.4868 654.798 94.4843C654.228 94.4494 653.657 94.4494 653.087 94.4843C652.998 94.4885 652.913 94.5258 652.85 94.5891C652.787 94.6524 652.749 94.7371 652.745 94.8265C652.112 94.9291 651.548 95.2199 651.479 95.9726C651.476 96.0614 651.496 96.1496 651.538 96.2278C651.58 96.3061 651.643 96.3716 651.719 96.4174C652.108 96.6204 652.548 96.7037 652.985 96.6569C653.477 97.0489 654.07 97.2922 654.695 97.3583C655.455 97.5381 656.246 97.5381 657.005 97.3583C657.119 97.3506 657.228 97.3084 657.318 97.2372C657.408 97.166 657.473 97.0693 657.507 96.9598C657.54 96.8504 657.54 96.7333 657.505 96.6242C657.47 96.5152 657.403 96.4191 657.313 96.349Z" fill="white"/>
<path d="M659.639 40.0827C659.345 39.9876 659.031 39.974 658.73 40.0433C658.429 40.1126 658.152 40.2621 657.929 40.4761C657.604 40.7841 657.33 41.1434 657.005 41.4684C656.68 41.7934 656.132 42.4777 655.705 42.9909C655.277 43.5042 654.661 43.9147 654.849 44.7017C654.87 44.8267 654.915 44.9463 654.983 45.0537C655.05 45.1611 655.138 45.254 655.241 45.3272C655.345 45.4004 655.461 45.4524 655.585 45.4801C655.709 45.5078 655.837 45.5107 655.961 45.4886C656.104 45.4464 656.242 45.3891 656.372 45.3176C656.668 45.1554 656.949 44.9664 657.21 44.753C657.815 44.2512 658.355 43.6766 658.818 43.0423C659.056 42.7378 659.231 42.3888 659.332 42.0158C659.383 41.8137 659.383 41.602 659.332 41.4L659.434 41.3144C659.314 41.4342 659.434 41.3144 659.434 41.3144C659.572 41.3049 659.702 41.248 659.803 41.1535C659.903 41.0589 659.968 40.9325 659.986 40.7957C660.004 40.6588 659.975 40.5199 659.902 40.4024C659.83 40.285 659.719 40.1961 659.588 40.1511L659.639 40.0827Z" fill="white"/>
<path d="M611.02 24.2413C610.948 23.9567 610.82 23.6892 610.644 23.4543L610.455 23.2319C610.438 22.9357 610.438 22.6386 610.455 22.3423C610.451 22.1713 610.381 22.0085 610.26 21.8875C610.139 21.7665 609.976 21.6966 609.805 21.6923C609.633 21.6964 609.468 21.7656 609.344 21.8862C609.22 22.0068 609.147 22.1697 609.138 22.3423C609.089 23.024 609.135 23.7091 609.275 24.3781C609.267 24.4405 609.267 24.5039 609.275 24.5663C609.404 24.8856 609.495 25.2185 609.549 25.5585C609.587 25.7644 609.662 25.9615 609.771 26.1401C609.841 26.2597 609.944 26.3559 610.069 26.4167C610.193 26.4775 610.333 26.5002 610.47 26.4819C610.607 26.4636 610.736 26.4051 610.84 26.3139C610.944 26.2226 611.018 26.1027 611.054 25.9691C611.18 25.3986 611.168 24.8063 611.02 24.2413Z" fill="white"/>
<path d="M635.552 5.28632C635.463 5.14408 635.324 5.04047 635.163 4.99609C635.001 4.95171 634.829 4.96982 634.68 5.04681C634.465 4.96201 634.227 4.96201 634.013 5.04681C633.637 5.20975 633.277 5.40433 632.935 5.62846C632.593 5.78732 632.293 6.0253 632.061 6.32277C631.829 6.62024 631.671 6.96865 631.6 7.3392C631.593 7.38571 631.597 7.43337 631.611 7.47808C631.626 7.52278 631.652 7.56319 631.686 7.59583C631.699 7.68519 631.732 7.77064 631.781 7.84643C631.83 7.92221 631.895 7.98656 631.971 8.03518C632.047 8.08381 632.133 8.11556 632.223 8.1283C632.312 8.14103 632.403 8.13446 632.49 8.10903C633.155 7.9649 633.787 7.69804 634.355 7.3221C634.534 7.1463 634.699 6.95761 634.851 6.75756C634.956 6.6121 635.047 6.4575 635.124 6.29565C635.206 6.27322 635.278 6.22524 635.33 6.15879C635.402 6.11645 635.465 6.0602 635.516 5.99329C635.566 5.92638 635.602 5.85015 635.623 5.769C635.644 5.68785 635.648 5.6034 635.636 5.52055C635.624 5.43769 635.595 5.35808 635.552 5.28632Z" fill="white"/>
<path d="M627.837 0.393464C627.802 0.283202 627.734 0.186327 627.642 0.115953C627.55 0.0455799 627.439 0.00511236 627.324 0C627.133 0.0174119 626.949 0.0734228 626.781 0.164611C626.614 0.255799 626.466 0.380242 626.348 0.530326C626.098 0.789483 625.915 1.10695 625.818 1.45412C625.767 1.80008 625.767 2.15171 625.818 2.49767C625.727 2.73956 625.669 2.99284 625.647 3.2504C625.423 4.06879 625.359 4.92263 625.459 5.76519C625.506 5.91876 625.611 6.04842 625.751 6.12786C625.89 6.20729 626.055 6.23053 626.212 6.19288C626.671 5.95033 627.065 5.6019 627.363 5.17647C627.66 4.75105 627.852 4.26088 627.922 3.74653C628.147 2.61708 628.147 1.4545 627.922 0.325045L627.837 0.393464Z" fill="white"/>
<path d="M652.3 20.6657C652.334 20.5483 652.334 20.4238 652.3 20.3064C652.184 20.1306 652.008 20.003 651.804 19.9471C651.42 19.8702 651.025 19.8702 650.641 19.9471C650.157 20.0102 649.681 20.1249 649.221 20.2893C648.879 20.409 648.4 20.5459 648.212 20.8881C648.162 20.9514 648.135 21.0297 648.135 21.1104C648.135 21.1911 648.162 21.2695 648.212 21.3328C648.189 21.4217 648.191 21.5151 648.218 21.6027C648.246 21.6903 648.297 21.7686 648.366 21.829C648.587 22.0312 648.871 22.1519 649.17 22.1711C649.47 22.2225 649.776 22.2225 650.076 22.1711C650.394 22.2141 650.716 22.2141 651.034 22.1711C651.616 22.0685 652.437 21.7263 652.403 21.0078C652.405 20.8858 652.37 20.7661 652.3 20.6657Z" fill="white"/>
<path d="M644.311 23.728L644.174 23.3345C644.037 23.0266 643.832 22.7528 643.678 22.462C643.366 21.7899 642.897 21.203 642.31 20.7512C642.234 20.7093 642.149 20.6849 642.062 20.6798C641.976 20.6748 641.889 20.6891 641.809 20.722C641.728 20.7548 641.656 20.8052 641.598 20.8694C641.54 20.9337 641.496 21.0102 641.471 21.0934C641.368 21.4959 641.36 21.9167 641.446 22.3232C641.532 22.7297 641.71 23.1109 641.967 23.4371C642.235 23.8251 642.572 24.1613 642.96 24.4293C643.101 24.6885 643.308 24.9066 643.558 25.0624C643.626 25.1028 643.701 25.1284 643.779 25.1373C643.857 25.1462 643.936 25.1382 644.011 25.1138C644.085 25.0895 644.154 25.0494 644.211 24.9962C644.269 24.943 644.315 24.8781 644.345 24.8057C644.462 24.7501 644.554 24.6523 644.602 24.532C644.645 24.4619 644.671 24.3832 644.68 24.3015C644.688 24.2198 644.678 24.1373 644.65 24.0601C644.622 23.9829 644.577 23.9129 644.518 23.8554C644.46 23.7979 644.389 23.7544 644.311 23.728Z" fill="white"/>
<path d="M659.143 28.7233C659.102 28.2832 658.998 27.8512 658.836 27.4402C658.647 27.0125 658.271 26.3967 657.706 26.5506C657.142 26.7046 657.091 27.4231 657.091 27.9192C657.126 28.54 657.206 29.1575 657.33 29.7668C657.375 30.05 657.437 30.33 657.518 30.6051C657.565 30.8272 657.646 31.0408 657.758 31.2381C657.814 31.33 657.894 31.406 657.988 31.4586C658.082 31.5113 658.189 31.539 658.297 31.539C658.405 31.539 658.511 31.5113 658.605 31.4586C658.7 31.406 658.779 31.33 658.836 31.2381C658.836 31.2381 658.836 31.2381 658.938 31.2381C659.044 31.134 659.12 31.0043 659.161 30.8617C659.168 30.7478 659.168 30.6335 659.161 30.5195V29.9208C659.184 29.5217 659.178 29.1215 659.143 28.7233Z" fill="white"/>
<path d="M673.907 31.7855C673.518 31.5125 673.046 31.3853 672.573 31.4263C672.168 31.1623 671.703 31.0036 671.221 30.9643C670.865 30.9446 670.509 31.003 670.178 31.1354C669.837 31.2418 669.549 31.4743 669.374 31.7855C669.297 31.8007 669.224 31.8313 669.159 31.8754C669.095 31.9195 669.04 31.9762 668.997 32.0421C668.927 32.1512 668.879 32.2736 668.857 32.4018C668.835 32.5299 668.839 32.6612 668.869 32.7877C668.9 32.9141 668.956 33.033 669.034 33.1372C669.111 33.2414 669.21 33.3286 669.322 33.3936C669.679 33.5624 670.078 33.6219 670.469 33.5647C670.696 33.5481 670.925 33.5481 671.153 33.5647H672.025C672.361 33.5905 672.699 33.5905 673.035 33.5647C673.374 33.5647 673.709 33.4825 674.01 33.3252C674.137 33.252 674.243 33.1475 674.317 33.0217C674.392 32.8959 674.434 32.753 674.437 32.6066C674.431 32.4347 674.378 32.2678 674.285 32.1233C674.192 31.9788 674.061 31.8622 673.907 31.7855Z" fill="white"/>
<path d="M555.626 49.2865C555.447 49.1326 555.236 49.0206 555.008 48.9584C554.78 48.8963 554.541 48.8856 554.309 48.9273C553.904 48.9922 553.504 49.0836 553.111 49.201L552.085 49.3892C551.655 49.4695 551.24 49.6137 550.853 49.8169C550.734 49.8943 550.625 49.9862 550.528 50.0905H550.323C550.323 50.0905 550.22 50.0905 550.323 50.0905C550.049 49.9537 549.639 50.1932 549.758 50.5354C549.828 50.7141 549.938 50.8739 550.081 51.0017C550.223 51.1296 550.394 51.2218 550.58 51.271C551.144 51.8355 552.136 51.7158 552.872 51.6645C553.6 51.6758 554.326 51.5836 555.028 51.3907C555.233 51.3537 555.425 51.2652 555.586 51.1335C555.748 51.0019 555.874 50.8314 555.951 50.638C555.978 50.5139 555.978 50.3857 555.951 50.2616C555.998 50.0851 555.991 49.8989 555.934 49.7258C555.876 49.5526 555.769 49.4 555.626 49.2865Z" fill="white"/>
<path d="M539.186 26.944C539.155 26.8505 539.105 26.765 539.037 26.6934C538.97 26.6218 538.887 26.5661 538.796 26.5301C538.704 26.4941 538.606 26.4788 538.508 26.4853C538.41 26.4918 538.314 26.5199 538.228 26.5677C537.749 26.5677 537.287 27.0809 537.013 27.4744C536.85 27.7099 536.712 27.9622 536.603 28.2271C536.489 28.4617 536.431 28.7192 536.432 28.9798C536.406 29.1442 536.406 29.3116 536.432 29.476C536.329 29.7497 536.209 30.0063 536.124 30.28C536.103 30.3519 536.097 30.4272 536.105 30.5015C536.114 30.5759 536.137 30.6478 536.174 30.7131C536.21 30.7783 536.26 30.8356 536.319 30.8817C536.378 30.9278 536.445 30.9617 536.517 30.9814C536.664 31.0138 536.818 30.9894 536.948 30.9133C537.078 30.8372 537.175 30.715 537.219 30.5709C537.219 30.7933 537.219 30.5709 537.219 30.5709C537.313 30.6233 537.423 30.6383 537.528 30.6129C537.632 30.5876 537.724 30.5237 537.783 30.434C537.783 30.434 537.886 30.3142 537.92 30.2458C537.927 30.2062 537.927 30.1656 537.92 30.1261C537.976 30.0048 538.045 29.89 538.125 29.7839L538.314 29.5273C538.394 29.4114 538.468 29.2915 538.536 29.168C538.801 28.8681 538.997 28.5132 539.11 28.1287C539.222 27.7443 539.248 27.3397 539.186 26.944Z" fill="white"/>
<path d="M540.435 33.291C540.198 33.1756 539.944 33.1005 539.682 33.0685C539.404 32.8264 539.086 32.6353 538.741 32.504C538.505 32.3962 538.248 32.3436 537.989 32.35H537.578C537.456 32.3949 537.348 32.4704 537.264 32.5693C537.18 32.6682 537.123 32.7872 537.099 32.9146C537.022 33.272 537.081 33.6452 537.265 33.9615C537.448 34.2778 537.743 34.5144 538.091 34.6253C538.745 34.9221 539.475 35.0058 540.178 34.8648C540.331 34.8445 540.479 34.7931 540.611 34.7137C540.743 34.6342 540.858 34.5285 540.948 34.4029C541.205 34.0095 540.845 33.4962 540.435 33.291Z" fill="white"/>
<path d="M517.99 22.6332C517.961 22.5037 517.896 22.3851 517.802 22.2912C517.708 22.1973 517.589 22.132 517.46 22.1029C517.134 22.0451 516.798 22.1122 516.519 22.291C516.111 22.6158 515.723 22.9643 515.355 23.3346C514.757 23.7924 514.266 24.3765 513.918 25.0453C513.871 25.1302 513.847 25.2257 513.848 25.3228C513.848 25.4198 513.874 25.5151 513.922 25.5993C513.97 25.6836 514.039 25.754 514.122 25.8038C514.206 25.8536 514.3 25.8811 514.397 25.8836C514.629 25.8786 514.855 25.8074 515.048 25.6783L515.338 25.4559L515.424 25.3704L515.698 25.1822C515.738 25.2018 515.781 25.212 515.826 25.212C515.87 25.212 515.914 25.2018 515.954 25.1822C516.172 25.1203 516.383 25.0402 516.587 24.9427C516.833 24.8119 517.053 24.638 517.237 24.4294C517.672 24.0669 517.953 23.5536 518.024 22.9924C518.028 22.8717 518.016 22.7511 517.99 22.6332Z" fill="white"/>
<path d="M503.106 51.8525C503.067 51.7231 502.979 51.6139 502.861 51.5472C502.744 51.4804 502.605 51.4611 502.474 51.4932C501.892 51.5959 501.618 52.2631 501.464 52.7763C501.391 52.9141 501.328 53.0571 501.276 53.204C501.176 53.5142 501.119 53.8364 501.105 54.162C501.01 54.6363 501.01 55.1246 501.105 55.599V55.6846C501.053 55.8924 501.053 56.1097 501.105 56.3175C501.137 56.4385 501.212 56.5436 501.316 56.6131C501.42 56.6826 501.546 56.7116 501.67 56.6948C501.794 56.678 501.908 56.6164 501.989 56.5218C502.071 56.4271 502.116 56.3058 502.114 56.1806C502.354 56.0209 502.525 55.7766 502.593 55.4964C502.757 55.0411 502.877 54.5715 502.953 54.0936C503.183 53.3698 503.236 52.601 503.106 51.8525Z" fill="white"/>
<path d="M505.382 55.1373C504.896 55.046 504.394 55.144 503.979 55.4111C503.88 55.434 503.783 55.4625 503.688 55.4966C503.252 55.7012 502.867 55.999 502.559 56.3691H502.422C502.373 56.3713 502.326 56.3884 502.288 56.4181C502.249 56.4479 502.22 56.4887 502.205 56.5353C502.19 56.5819 502.19 56.6319 502.204 56.6786C502.219 56.7253 502.247 56.7666 502.285 56.7968C502.243 56.9362 502.243 57.085 502.285 57.2244C502.32 57.3347 502.388 57.4316 502.48 57.5019C502.572 57.5723 502.683 57.6128 502.798 57.6179C503.413 57.5915 504.006 57.3896 504.509 57.0362C504.697 56.9265 504.874 56.8006 505.04 56.6599C505.219 56.548 505.386 56.416 505.536 56.2664C505.626 56.1941 505.701 56.1033 505.754 56.0001C505.807 55.8969 505.838 55.7836 505.844 55.6677C505.83 55.5427 505.778 55.4249 505.696 55.3301C505.613 55.2353 505.504 55.168 505.382 55.1373Z" fill="white"/>
<path d="M552.53 66.8388C552.28 66.6763 551.999 66.5667 551.704 66.5167C551.41 66.4667 551.109 66.4774 550.819 66.548C550.491 66.5541 550.164 66.5942 549.844 66.6677H549.741C549.551 66.6782 549.362 66.7068 549.177 66.7533C549.107 66.7808 549.044 66.8223 548.991 66.8753C548.938 66.9283 548.896 66.9915 548.869 67.0612L548.629 67.1638C548.564 67.1801 548.507 67.2215 548.472 67.2792C548.437 67.3368 548.426 67.406 548.441 67.4718C548.19 67.6706 548.024 67.9584 547.979 68.2758C547.984 68.4106 548.039 68.5387 548.134 68.634C548.23 68.7293 548.358 68.7848 548.492 68.7891C548.525 68.8804 548.58 68.9623 548.651 69.0279C548.723 69.0934 548.809 69.1407 548.903 69.1654C549.216 69.2417 549.539 69.2762 549.861 69.2681C550.197 69.3022 550.535 69.3022 550.87 69.2681C551.13 69.2098 551.374 69.0992 551.589 68.943C551.871 68.7455 552.101 68.481 552.256 68.1732C552.321 68.0336 552.356 67.8821 552.359 67.7284C552.441 67.693 552.513 67.6382 552.569 67.5686C552.625 67.4989 552.663 67.4167 552.68 67.3289C552.697 67.2412 552.692 67.1507 552.666 67.0652C552.64 66.9798 552.593 66.902 552.53 66.8388Z" fill="white"/>
<path d="M563.461 64.6488C563.305 64.2459 563.053 63.8876 562.726 63.6053L562.538 63.4684C562.538 63.3829 562.367 63.3145 562.281 63.2289C562.11 63.0236 561.939 62.8525 561.751 62.6643L561.511 62.2538L561.289 61.9972C561.292 61.9573 561.292 61.9173 561.289 61.8774C561.289 61.7748 561.289 61.655 561.152 61.6208H560.981C560.869 61.4961 560.726 61.4033 560.567 61.3522C560.408 61.3011 560.237 61.2934 560.074 61.33C559.97 61.3598 559.879 61.4227 559.814 61.5092C559.749 61.5957 559.714 61.7009 559.715 61.809C559.647 61.7725 559.569 61.761 559.494 61.7767C559.419 61.7923 559.352 61.8341 559.304 61.8945C559.251 61.9565 559.222 62.0353 559.222 62.1169C559.222 62.1984 559.251 62.2773 559.304 62.3393C559.304 62.3393 559.304 62.4933 559.304 62.5959C559.333 62.743 559.391 62.8828 559.475 63.0065C559.646 63.246 559.869 63.4513 560.057 63.6737C560.245 63.8961 560.057 63.6737 560.057 63.7592C560.125 63.9313 560.217 64.0926 560.331 64.2382C560.575 64.4983 560.873 64.7025 561.203 64.837L561.306 64.9225C561.355 64.9511 561.411 64.9661 561.468 64.9661C561.525 64.9661 561.582 64.9511 561.631 64.9225C561.751 65.162 561.853 65.4016 561.99 65.6411C562.068 65.7668 562.191 65.8581 562.334 65.8962C562.477 65.9344 562.63 65.9165 562.76 65.8464C562.826 65.8041 562.883 65.749 562.927 65.6843C562.971 65.6196 563.001 65.5468 563.017 65.47C563.105 65.4539 563.188 65.4183 563.261 65.3657C563.333 65.3131 563.393 65.2449 563.436 65.1661C563.479 65.0873 563.503 64.9998 563.507 64.9103C563.512 64.8208 563.496 64.7314 563.461 64.6488Z" fill="white"/>
<path d="M537.886 90.276C538.187 89.921 538.399 89.4985 538.502 89.0443C538.539 88.8863 538.538 88.7218 538.5 88.5642C538.461 88.4066 538.386 88.2604 538.279 88.1376C538.196 88.042 538.089 87.9696 537.969 87.9277C537.849 87.8857 537.72 87.8755 537.595 87.8981C537.383 87.9784 537.187 88.0941 537.013 88.2402L536.842 88.3771C536.681 88.4555 536.527 88.547 536.38 88.6508C536.004 88.9758 535.713 89.3864 535.371 89.7457C535.047 90.0444 534.806 90.4214 534.67 90.8405C534.61 91.0705 534.61 91.312 534.67 91.5419C534.641 91.6653 534.652 91.7948 534.701 91.9116C534.75 92.0284 534.835 92.1266 534.943 92.192C535.127 92.2521 535.325 92.2521 535.508 92.192L535.713 92.1065C536.089 91.9577 536.432 91.7369 536.723 91.4564C536.86 91.3196 536.979 91.1485 537.116 91.0116L537.39 90.7037C537.563 90.5704 537.729 90.4276 537.886 90.276Z" fill="white"/>
<path d="M630.54 62.3737C630.54 62.3737 630.54 62.2711 630.54 62.2027C630.49 62.0928 630.427 61.9894 630.352 61.8947C630.173 61.6622 629.937 61.4796 629.667 61.3644C629.376 61.2618 629.069 61.2104 628.778 61.1078C628.059 60.8511 627.272 60.3721 626.485 60.6801C626.394 60.7105 626.311 60.7597 626.24 60.8246C626.169 60.8894 626.113 60.9684 626.075 61.0564C626.028 61.1371 626.004 61.2285 626.004 61.3216C626.004 61.4147 626.028 61.5061 626.075 61.5868C626.041 61.7331 626.041 61.8852 626.075 62.0316C626.247 62.4571 626.569 62.8043 626.981 63.0067C627.45 63.2799 627.976 63.4378 628.518 63.4675C629.059 63.4973 629.6 63.398 630.095 63.1778C630.261 63.1301 630.4 63.0185 630.484 62.8678C630.567 62.717 630.587 62.5393 630.54 62.3737Z" fill="white"/>
<path d="M632.935 26.3625C632.855 26.2918 632.751 26.255 632.644 26.2599C632.644 26.2599 632.644 26.2599 632.558 26.1744C631.96 25.952 631.412 26.4481 631.019 26.8245C630.555 27.2668 630.157 27.7738 629.838 28.3299C629.582 28.7747 629.257 29.4248 629.582 29.9209C629.697 30.0812 629.861 30.1997 630.049 30.2583C630.237 30.317 630.44 30.3127 630.625 30.246C631.013 30.1054 631.351 29.8559 631.6 29.5274C631.863 29.2279 632.092 28.901 632.285 28.5523C632.422 28.3128 632.524 28.0733 632.644 27.8167C632.732 27.6522 632.807 27.4805 632.866 27.3035C632.907 27.1685 632.959 27.0369 633.02 26.91C633.062 26.8206 633.076 26.7207 633.061 26.6232C633.046 26.5257 633.002 26.4349 632.935 26.3625Z" fill="white"/>
<path d="M679.672 89.6429C679.595 89.4018 679.459 89.1835 679.277 89.0074C679.095 88.8314 678.872 88.7029 678.629 88.6335C678.261 88.4887 677.875 88.391 677.483 88.3427C677.136 88.2265 676.769 88.1856 676.405 88.2229C676.2 88.1973 675.993 88.1973 675.789 88.2229C675.736 88.2206 675.683 88.2291 675.633 88.2478C675.583 88.2666 675.538 88.2952 675.5 88.3319C675.461 88.3687 675.431 88.4129 675.41 88.4618C675.389 88.5107 675.378 88.5633 675.378 88.6164C675.326 88.6776 675.289 88.7501 675.271 88.8282C675.252 88.9063 675.251 88.9877 675.27 89.0659C675.288 89.1441 675.324 89.2169 675.376 89.2785C675.427 89.3401 675.493 89.3887 675.567 89.4205C675.576 89.4656 675.576 89.5121 675.567 89.5573C675.611 89.7016 675.701 89.8275 675.823 89.9165C676.069 90.1244 676.339 90.3024 676.627 90.4469C677.107 90.6986 677.643 90.8223 678.184 90.8062C678.42 90.7907 678.644 90.6939 678.817 90.5324H679.039C679.518 90.5667 679.672 90.0363 679.672 89.6429Z" fill="white"/>
<path d="M608.249 163.017C608.026 162.656 607.762 162.323 607.462 162.024C607.048 161.557 606.576 161.143 606.059 160.793C605.758 160.592 605.43 160.436 605.084 160.331L604.981 160.245C604.925 160.188 604.856 160.145 604.78 160.12C604.704 160.096 604.622 160.09 604.543 160.103C604.464 160.117 604.39 160.149 604.326 160.198C604.262 160.246 604.211 160.309 604.177 160.382C604.071 160.435 603.978 160.511 603.904 160.604C603.271 161.323 603.904 162.076 604.485 162.572C604.769 162.895 605.112 163.162 605.494 163.359C606.184 163.927 606.99 164.336 607.855 164.556C607.952 164.557 608.048 164.532 608.132 164.484C608.216 164.436 608.286 164.366 608.334 164.283C608.438 164.084 608.485 163.861 608.47 163.638C608.455 163.414 608.378 163.199 608.249 163.017Z" fill="white"/>
<path d="M591.586 149.057C591.607 148.967 591.606 148.873 591.582 148.783C591.558 148.694 591.512 148.612 591.449 148.544C591.384 148.476 591.302 148.428 591.212 148.404C591.121 148.38 591.026 148.381 590.936 148.407C590.401 148.623 589.904 148.923 589.465 149.297C589.242 149.433 589.054 149.587 588.849 149.741C588.641 149.916 588.456 150.117 588.301 150.34C588.113 150.511 587.925 150.665 587.754 150.853L587.429 151.264C587.375 151.259 587.321 151.269 587.273 151.293C587.224 151.318 587.184 151.355 587.155 151.401C587.025 151.581 586.947 151.794 586.933 152.017C586.933 152.165 586.985 152.308 587.078 152.423C587.171 152.539 587.301 152.618 587.446 152.65H587.549C588.195 152.601 588.802 152.322 589.259 151.863C589.5 151.665 589.728 151.454 589.944 151.23C590.52 150.947 590.963 150.45 591.175 149.844C591.36 149.609 591.499 149.342 591.586 149.057Z" fill="white"/>
<path d="M578.55 149.878C578.518 149.756 578.439 149.651 578.33 149.587C578.221 149.523 578.091 149.505 577.969 149.536C577.866 149.577 577.769 149.628 577.678 149.69C577.586 149.669 577.491 149.678 577.405 149.715C577.319 149.752 577.247 149.815 577.199 149.895C576.627 150.808 576.291 151.848 576.224 152.923C576.233 153.023 576.275 153.117 576.343 153.192C576.411 153.266 576.501 153.316 576.6 153.334C576.639 153.394 576.692 153.443 576.755 153.477C576.817 153.511 576.888 153.529 576.959 153.529C577.031 153.529 577.101 153.511 577.164 153.477C577.227 153.443 577.28 153.394 577.319 153.334C577.319 153.334 577.319 153.231 577.319 153.197C577.807 152.809 578.18 152.294 578.397 151.709C578.614 151.124 578.667 150.491 578.55 149.878Z" fill="white"/>
<path d="M622.448 138.741C622.388 138.64 622.303 138.555 622.201 138.496C622.099 138.436 621.984 138.403 621.866 138.399C621.542 138.449 621.239 138.592 620.994 138.81C620.889 138.841 620.799 138.908 620.737 138.998C620.73 139.055 620.73 139.112 620.737 139.169C620.551 139.405 620.396 139.664 620.275 139.939C620.086 140.328 619.953 140.743 619.882 141.17C619.832 141.303 619.832 141.449 619.882 141.581C619.874 141.695 619.874 141.809 619.882 141.923C619.863 141.963 619.854 142.007 619.854 142.051C619.854 142.096 619.863 142.14 619.882 142.18C619.89 142.277 619.89 142.374 619.882 142.471C619.885 142.613 619.938 142.749 620.032 142.856C620.126 142.962 620.254 143.032 620.395 143.052C620.54 143.079 620.689 143.049 620.813 142.97C620.937 142.89 621.026 142.767 621.062 142.625C621.062 142.625 621.062 142.505 621.062 142.436C621.062 142.3 621.182 142.146 621.251 142.009C621.319 141.872 621.251 141.786 621.387 141.667L621.593 141.513C621.845 141.28 622.059 141.009 622.226 140.709C622.499 140.161 622.876 139.374 622.448 138.741Z" fill="white"/>
<path d="M629.787 142.539C629.804 142.374 629.777 142.208 629.707 142.058C629.638 141.907 629.53 141.778 629.394 141.684C629.056 141.476 628.657 141.391 628.264 141.444C627.77 141.489 627.291 141.641 626.862 141.889C626.719 141.977 626.587 142.08 626.468 142.197C626.03 142.256 625.631 142.483 625.356 142.83C625.1 143.258 625.459 143.788 625.835 144.01C626.112 144.16 626.429 144.22 626.742 144.181C627.226 144.12 627.703 144.005 628.162 143.839C628.403 143.768 628.637 143.676 628.863 143.566C629.153 143.498 629.422 143.363 629.65 143.172C629.728 143.089 629.782 142.986 629.806 142.874C629.83 142.763 629.823 142.647 629.787 142.539Z" fill="white"/>
<path d="M1162.92 469.982C1162.92 466.027 1162.04 462.073 1161.36 458.074C1161.14 454.37 1160.57 450.679 1159.67 447.021C1157.64 441.089 1151.62 436.147 1149.59 430.17C1147.33 422.114 1146.56 413.906 1147.29 405.727C1147.66 402.106 1147.66 398.473 1147.29 394.852C1146.61 391.123 1144.85 387.528 1144.45 383.754C1143.63 375.711 1142.35 367.712 1141.74 359.714C1141.13 351.716 1141.13 344.212 1139.57 336.528C1138.02 328.845 1134.9 321.97 1132.81 314.601C1131.79 310.961 1131.45 307.232 1130.44 303.547C1129.67 301.401 1129.11 299.225 1128.75 297.032C1128.75 295.01 1129.29 292.988 1128.75 291.011C1127.73 286.113 1120.49 283.956 1114.67 281.799C1110.85 280.343 1106.87 279.082 1102.76 278.025C1096.4 276.542 1090.79 274.385 1084.63 272.768C1075.64 271.134 1066.26 270.706 1057.02 271.509C1045.58 271.509 1034.15 272.498 1022.71 272.184C1016.71 272.223 1010.77 271.379 1005.32 269.712C1000.92 268.229 996.93 266.252 992.464 264.949C982.523 262.714 972.245 261.208 961.811 260.456C956.767 259.569 951.797 258.504 946.924 257.266C941.504 256.413 936.273 255.099 931.361 253.356C928.21 251.813 924.858 250.46 921.346 249.312C916.62 248.421 911.767 247.864 906.865 247.65C896.079 246.878 885.219 246.667 874.384 247.021C868.769 247.183 863.156 246.681 857.806 245.538C852.189 244.235 846.911 242.303 841.363 240.775C830.739 237.854 819.844 235.607 809.356 232.507C798.867 229.407 787.499 226.711 777.078 223.026C768.078 219.256 758.616 215.994 748.793 213.275C744.192 212.242 740.132 210.669 735.733 209.591C730.492 208.716 725.151 208.13 719.764 207.838C714.35 207.119 709.14 205.771 703.727 205.053C698.313 204.334 691.682 203.615 685.592 202.896C674.165 201.343 663.119 198.742 652.773 195.167C643.87 192.336 634.26 190.615 624.42 190.09C618.804 189.685 613.458 188.697 607.909 188.202C602.549 187.933 597.165 187.933 591.804 188.202C583.696 188.276 575.904 190.304 569.88 193.909C560.88 198.402 547.753 198.762 536.723 199.121C525.821 199.23 514.933 198.567 504.243 197.144C493.988 196.283 483.633 196.073 473.318 196.515C468.514 196.515 463.507 196.515 458.77 197.009C453.076 197.903 447.283 198.489 441.447 198.762C436.926 198.522 432.376 198.673 427.913 199.211C423.029 200.11 418.292 201.329 413.771 202.851C408.561 204.378 403.283 205.277 397.937 206.535C393.599 207.76 389.055 208.635 384.403 209.142C379.396 209.411 374.659 210.714 369.719 210.894C364.293 210.985 358.905 211.529 353.682 212.512C343.239 214.775 333.023 217.476 323.096 220.6C317.751 222.172 312.405 223.341 306.924 224.554C301.443 225.767 295.285 226.171 290.007 227.699C285.811 228.957 282.225 230.889 278.097 232.192C272.77 233.563 267.197 234.47 261.519 234.888C237.97 237.54 214.152 233.855 190.333 235.877C185.47 236.458 180.676 237.269 175.987 238.303C171.204 238.876 166.514 239.749 161.98 240.91C156.431 242.527 151.491 244.819 145.875 246.347C140.517 247.817 135.025 249.063 129.432 250.076C118.808 252.008 109.47 255.648 99.0488 258.029C88.628 260.411 78.7486 260.995 68.6661 263.466C62.9453 264.948 56.9659 265.944 50.8695 266.432C46.8764 266.623 42.9012 266.953 38.9601 267.421C33.3219 268.421 28.034 270.146 23.3965 272.498C23.3965 271.959 22.449 271.509 21.84 272.004C19.0657 274.25 15.0734 275.823 12.6373 278.294C10.5807 281.47 10.3638 285.039 12.0283 288.315C14.3305 293.046 15.8728 297.926 16.6297 302.873C16.968 308.625 16.6297 314.376 16.6297 320.128C15.953 343.179 17.171 366.23 16.6297 389.281C16.6297 400.2 13.923 410.984 13.923 421.947V506.962C13.923 512.219 14.5997 517.521 13.923 522.734C13.5847 526.104 12.096 529.294 11.3516 532.664C10.8103 535.091 10.8779 537.517 10.6749 539.988C10.3384 546.786 9.11598 553.551 7.02101 560.208C4.65264 567.353 -3.46753 575.98 1.67521 583.304C1.76625 583.394 1.88651 583.469 2.02709 583.523C2.16768 583.578 2.32494 583.611 2.48719 583.619C6.45911 583.458 10.334 582.738 13.8553 581.507C18.9304 580.294 24.6821 579.8 29.8925 578.856C40.9973 577.228 52.4377 576.863 63.7263 577.778C75.9937 578.684 88.3299 579.12 100.673 579.081C112.881 578.713 125.113 578.909 137.281 579.665C160.626 581.507 183.227 586.45 206.843 586.225C218.468 585.686 230.135 585.686 241.76 586.225C253.872 587.169 265.714 588.876 277.894 589.415C302.187 590.494 326.344 587.708 350.705 588.067C375.065 588.427 400.17 590.314 425.139 589.955C436.981 589.955 448.823 589.955 460.597 589.326C472.371 588.697 485.093 587.978 497.408 587.708C521.125 587.244 544.769 585.743 568.188 583.215C580.801 581.398 593.569 580.092 606.421 579.305C618.736 578.946 631.119 579.305 643.435 579.305C668.404 579.036 693.103 576.834 717.869 574.812C742.636 572.79 767.605 571.307 792.304 570.723C804.957 570.453 817.273 569.69 829.859 568.971C841.363 568.342 852.934 568.971 864.437 568.072C875.941 567.173 888.933 565.825 901.451 565.466C913.97 565.106 924.932 565.466 936.706 565.196C961.568 564.896 986.432 565.677 1011.14 567.533C1035.82 569.624 1060.69 570.57 1085.57 570.364C1097.83 570.235 1110.09 570.67 1122.25 571.667C1128.02 572.191 1133.82 572.491 1139.64 572.565C1143.56 572.875 1147.52 572.439 1151.08 571.307C1155.68 569.24 1154.53 565.151 1154.53 561.961C1154.83 559.08 1155.39 556.214 1156.22 553.379C1156.92 549.532 1157.28 545.661 1157.3 541.786C1157.3 525.879 1162.58 510.332 1162.58 494.381C1162.92 486.293 1163.12 478.204 1162.92 469.982Z" fill="#E13A4B"/>
</svg>
