<svg width="155" height="248" viewBox="0 0 155 248" fill="none" xmlns="http://www.w3.org/2000/svg">
<path d="M69.1833 136.489C69.1833 136.004 69.1833 135.542 69.1833 135.057C69.1833 134.087 69.1833 133.117 69.1833 132.17C69.2106 131.917 69.1869 131.662 69.1138 131.42C69.0407 131.178 68.9198 130.955 68.7591 130.766C68.5984 130.577 68.4015 130.425 68.1813 130.321C67.9611 130.218 67.7225 130.164 67.4812 130.164C67.2399 130.164 67.0013 130.218 66.781 130.321C66.5608 130.425 66.3639 130.577 66.2032 130.766C66.0425 130.955 65.9217 131.178 65.8486 131.42C65.7755 131.662 65.7518 131.917 65.7791 132.17C65.7791 132.609 65.7791 133.047 65.7791 133.486C65.7791 133.925 65.7791 133.879 65.6693 134.064C65.4521 134.915 65.3413 135.793 65.3398 136.674C65.3398 136.836 65.3398 136.998 65.3398 137.159C65.3398 137.321 65.3398 137.344 65.3398 137.483C65.1077 137.818 64.9827 138.223 64.9827 138.638C64.9827 139.053 65.1077 139.457 65.3398 139.793C65.4486 140.016 65.6187 140.199 65.8279 140.319C66.0372 140.438 66.2758 140.489 66.5127 140.464C66.7497 140.439 66.9741 140.34 67.1566 140.179C67.3391 140.018 67.4714 139.803 67.5361 139.562C67.904 139.549 68.2588 139.415 68.5504 139.179C68.842 138.943 69.0557 138.616 69.1613 138.245C69.2654 137.666 69.2729 137.072 69.1833 136.489Z" fill="white"/>
<path d="M46.4302 133.788C46.2325 133.488 46.1007 133.141 45.9031 132.841L45.5517 132.356L45.2222 131.894C45.2222 131.894 44.9806 131.57 44.9147 131.478C44.8488 131.386 44.6073 130.877 44.2998 130.762C43.9889 130.635 43.6444 130.635 43.3334 130.762C42.9189 130.099 42.3717 129.539 41.7301 129.122C41.4627 128.958 41.1549 128.881 40.8459 128.901C40.5369 128.922 40.2407 129.039 39.9951 129.237C39.7512 129.437 39.5675 129.707 39.4661 130.015C39.3648 130.322 39.3502 130.654 39.4241 130.97C39.6671 131.679 39.9916 132.353 40.3904 132.979C40.7199 133.534 41.0713 134.088 41.3568 134.666V134.851V135.105L41.5544 135.497C41.6862 135.752 41.818 136.029 41.9717 136.283C42.1513 136.609 42.357 136.918 42.5867 137.207C42.8864 137.577 43.2968 137.83 43.7507 137.923C43.9049 137.962 44.0655 137.963 44.2202 137.927C44.3749 137.89 44.5194 137.816 44.6426 137.711C44.7658 137.606 44.8643 137.473 44.9306 137.321C44.9968 137.17 45.029 137.004 45.0246 136.837H45.2881C45.5662 136.801 45.8276 136.679 46.0389 136.485C46.2503 136.292 46.4018 136.036 46.4741 135.752C46.596 135.439 46.6551 135.103 46.6475 134.765C46.64 134.427 46.5659 134.094 46.4302 133.788Z" fill="white"/>
<path d="M31.0786 87.1923C30.6868 86.9689 30.2835 86.7684 29.8707 86.5917C29.755 86.3946 29.5934 86.2318 29.4013 86.1186C29.2091 86.0054 28.9928 85.9456 28.7725 85.9448H28.531C28.3577 85.7243 28.1497 85.5368 27.916 85.3904C27.1809 85.0113 26.3563 84.8668 25.544 84.9746L24.6875 84.5588C23.869 84.1389 22.9369 84.0327 22.052 84.2585C21.7956 84.339 21.5664 84.4948 21.3914 84.7076C21.2163 84.9204 21.1026 85.1813 21.0637 85.4597C21.0265 85.7402 21.0693 86.026 21.1866 86.2809C21.3039 86.5359 21.4904 86.7485 21.7225 86.892C23.0511 87.6398 24.4805 88.1695 25.9613 88.4629L26.2468 88.6014C27.6744 89.3407 29.9585 90.9115 31.3861 89.41C31.5303 89.2549 31.6385 89.067 31.7024 88.8608C31.7663 88.6546 31.784 88.4357 31.7542 88.2211C31.7245 88.0065 31.648 87.802 31.5309 87.6235C31.4137 87.4451 31.2589 87.2975 31.0786 87.1923Z" fill="white"/>
<path d="M21.8566 129.556C21.8782 129.287 21.8782 129.017 21.8566 128.748C21.8762 128.502 21.8762 128.254 21.8566 128.008C21.7508 127.74 21.6183 127.485 21.4613 127.246C21.3663 127.068 21.2338 126.915 21.0739 126.799C20.914 126.683 20.731 126.606 20.5389 126.576C20.344 126.395 20.096 126.289 19.836 126.276C19.6435 126.272 19.4537 126.324 19.2872 126.426C19.1207 126.528 18.9839 126.676 18.8917 126.853C18.82 127.009 18.7612 127.172 18.716 127.338V127.593C18.716 127.777 18.716 127.962 18.716 128.147L18.8477 127.824C18.6554 128.2 18.5571 128.621 18.5622 129.048C18.5622 129.048 18.5622 129.21 18.5622 129.302C18.5622 129.88 18.5622 130.457 18.5622 131.035C18.5679 131.425 18.7178 131.797 18.9802 132.073C19.2426 132.349 19.5968 132.507 19.9678 132.513H20.2533C20.5831 132.565 20.9196 132.488 21.1989 132.296C21.4782 132.105 21.681 131.812 21.7688 131.473C21.7797 131.351 21.7797 131.227 21.7688 131.104C21.7688 130.573 21.8566 130.018 21.8566 129.556Z" fill="white"/>
<path d="M40.545 144.209C40.3442 144.021 40.1031 143.886 39.8422 143.817C39.6598 143.794 39.4755 143.794 39.2931 143.817H39.0295H38.8099C38.6531 143.798 38.4944 143.818 38.3459 143.874C38.1974 143.93 38.0631 144.021 37.9534 144.14C37.9143 144.212 37.862 144.275 37.7996 144.325C37.7005 144.361 37.6049 144.408 37.5141 144.464H36.3501C36.1462 144.464 35.9507 144.549 35.8066 144.7C35.6624 144.852 35.5814 145.058 35.5814 145.272C35.5938 145.428 35.6557 145.574 35.7571 145.688L35.5375 145.85C35.3104 146.103 35.184 146.437 35.184 146.785C35.184 147.133 35.3104 147.468 35.5375 147.721C35.7037 147.966 35.9435 148.145 36.2183 148.229C36.5745 148.31 36.9463 148.261 37.2725 148.09C37.8148 147.799 38.3233 147.442 38.788 147.028L39.1174 146.82C39.3815 146.719 39.6534 146.641 39.93 146.589H39.5786C39.8857 146.595 40.1889 146.515 40.4571 146.358C40.6212 146.262 40.7609 146.126 40.8641 145.961C40.9674 145.796 41.0312 145.607 41.0501 145.411C41.0755 145.181 41.0421 144.949 40.9533 144.738C40.8644 144.526 40.7235 144.344 40.545 144.209Z" fill="white"/>
<path d="M80.0987 106.452C80.1423 106.161 80.1423 105.865 80.0987 105.574C80.0987 105.181 79.9668 104.835 79.9009 104.442V104.003V103.819C79.9118 103.611 79.9118 103.403 79.9009 103.195C79.9548 103.113 79.9837 103.017 79.9837 102.918C79.9837 102.818 79.9548 102.722 79.9009 102.64C79.884 102.248 79.7238 101.878 79.4538 101.607C79.1838 101.336 78.8248 101.185 78.4515 101.185C78.065 101.185 77.694 101.345 77.4186 101.63C77.1433 101.915 76.9857 102.303 76.9799 102.71C76.9799 103.403 76.9799 104.073 76.9799 104.766C76.9693 104.935 76.9693 105.105 76.9799 105.274V107.053C76.9856 107.461 77.1425 107.852 77.4172 108.141C77.6919 108.429 78.063 108.594 78.4515 108.6C78.7351 108.584 79.0091 108.487 79.2448 108.32C79.4806 108.154 79.6693 107.923 79.7912 107.653C80.0006 107.479 80.1602 107.247 80.2524 106.983V106.452H80.0987Z" fill="white"/>
<path d="M84.6238 71.1782C84.7687 70.9207 84.8107 70.6133 84.7407 70.3233C84.6708 70.0332 84.4945 69.7841 84.2504 69.6304H83.9868L83.3939 69.4918C83.0722 69.4679 82.7492 69.4679 82.4275 69.4918C82.1209 69.4578 81.8117 69.4578 81.505 69.4918H81.2195C81.0307 69.4891 80.8437 69.5312 80.6725 69.6153C80.5014 69.6993 80.3505 69.8229 80.2312 69.977C80.1177 70.1411 80.0424 70.331 80.0116 70.5314C79.9603 70.7625 79.9635 71.0033 80.0209 71.2328C80.0783 71.4623 80.1882 71.6735 80.341 71.8481C80.5895 72.0955 80.8801 72.2915 81.1976 72.4257C81.6306 72.87 82.101 73.272 82.6032 73.6269C82.8182 73.7523 83.0601 73.8181 83.306 73.8181C83.5519 73.8181 83.7938 73.7523 84.0088 73.6269C84.2197 73.4962 84.3951 73.3108 84.5181 73.0883C84.6412 72.8658 84.7078 72.6137 84.7116 72.3564C84.7091 72.0566 84.6571 71.7596 84.5579 71.4785L84.6238 71.1782Z" fill="white"/>
<path d="M125.695 56.3072C125.684 56.0422 125.596 55.787 125.443 55.5762C125.29 55.3655 125.079 55.2094 124.838 55.1291L124.114 54.9674C123.758 54.8985 123.399 54.8522 123.038 54.8288C122.417 54.7859 121.794 54.8483 121.193 55.0136C120.911 55.1085 120.665 55.2945 120.49 55.5449C120.322 55.5229 120.152 55.5229 119.985 55.5449C119.673 55.6418 119.41 55.8622 119.25 56.1597C119.09 56.4571 119.046 56.8082 119.128 57.1389C119.192 57.3514 119.306 57.5435 119.46 57.697C119.613 57.8506 119.802 57.9606 120.007 58.0167L120.731 58.1784H120.402C120.828 58.2429 121.248 58.3512 121.654 58.5018C122.048 58.7842 122.476 59.0095 122.928 59.1717C123.213 59.2473 123.513 59.2253 123.786 59.109C124.058 58.9927 124.289 58.7881 124.443 58.5249C124.556 58.3491 124.638 58.1535 124.685 57.9474C124.949 57.93 125.197 57.8087 125.381 57.6076C125.564 57.4064 125.668 57.1401 125.673 56.8617C125.716 56.6803 125.723 56.4917 125.695 56.3072Z" fill="white"/>
<path d="M9.11753 44.6817C9.17529 44.6743 9.22985 44.6498 9.27491 44.6111C9.31996 44.5724 9.35366 44.521 9.37206 44.4629C9.39046 44.4049 9.39282 44.3425 9.37886 44.2831C9.36491 44.2237 9.33523 44.1697 9.29324 44.1273C9.31403 43.9663 9.31403 43.8031 9.29324 43.6422C9.28234 43.2083 9.16098 42.7855 8.94183 42.4178C8.90469 42.344 8.8515 42.2804 8.78663 42.2323C8.72176 42.1841 8.64703 42.1527 8.56846 42.1406C8.5627 41.7832 8.42362 41.4424 8.18123 41.1918C7.93884 40.9411 7.61254 40.8007 7.27264 40.8008C6.93444 40.8065 6.61129 40.9488 6.37008 41.1982C6.12887 41.4476 5.98808 41.7851 5.97685 42.1406C5.97685 43.4574 5.97685 44.7741 5.97685 46.0909C5.97685 46.7377 5.97685 47.3845 5.97685 48.0313C5.88819 48.8231 6.01779 49.625 6.35021 50.3414C6.45308 50.5132 6.5957 50.6548 6.76469 50.7529C6.93369 50.851 7.12355 50.9025 7.31657 50.9025C7.5096 50.9025 7.6995 50.851 7.86849 50.7529C8.03748 50.6548 8.18007 50.5132 8.28294 50.3414C8.60544 49.6961 8.73555 48.9635 8.6563 48.2392C8.81911 48.1271 8.95134 47.9722 9.03992 47.7899C9.1285 47.6076 9.17036 47.4042 9.16143 47.1997C9.16143 46.7146 9.16144 46.2526 9.02966 45.7674C8.89789 45.2823 9.02966 45.2823 9.02966 45.0282C9.02966 44.7741 9.02966 45.0282 9.02966 45.0282C9.0423 44.9088 9.07193 44.7919 9.11753 44.6817Z" fill="white"/>
<path d="M38.3704 60.421C38.2985 60.3539 38.217 60.2993 38.1288 60.2593C38.0067 59.8667 37.7868 59.5156 37.4919 59.2428C37.2058 59.0063 36.9049 58.7902 36.5914 58.596C36.2712 58.3796 35.933 58.194 35.5811 58.0416L35.1418 57.8568H34.9661L33.6264 57.0713C33.1074 56.7501 32.5155 56.5825 31.9133 56.5862C31.717 56.5906 31.5259 56.6538 31.3625 56.7683C31.1992 56.8829 31.0702 57.0441 30.9909 57.2331C30.8619 57.1395 30.7083 57.0911 30.5516 57.0945C30.2502 56.9466 29.9154 56.8906 29.5853 56.9327C29.3176 56.955 29.0602 57.0505 28.8386 57.2099C28.6263 57.3766 28.4719 57.612 28.3993 57.8799C28.183 59.2615 28.1313 60.6661 28.2456 62.0611C28.2513 62.4002 28.3834 62.7233 28.6135 62.961C28.8435 63.1986 29.153 63.3317 29.4755 63.3317C29.7774 63.3267 30.0666 63.203 30.2861 62.985C30.5056 62.7669 30.6395 62.4703 30.6615 62.1535C30.982 62.1418 31.2861 62.001 31.5109 61.7602C31.7356 61.5195 31.864 61.1972 31.8694 60.8599C31.9242 60.1835 31.9242 59.5034 31.8694 58.827L32.6161 59.4507L34.1755 60.6058C35.1515 61.3565 36.2663 61.8838 37.4479 62.1535C37.6539 62.2114 37.8721 62.1977 38.07 62.1144C38.2679 62.0311 38.4349 61.8828 38.5461 61.6915C38.6602 61.4908 38.7051 61.2548 38.6731 61.0234C38.6411 60.7919 38.5342 60.5792 38.3704 60.421Z" fill="white"/>
<path d="M120.467 159.591C120.335 159.179 120.135 158.796 119.874 158.459L119.567 158.228C119.422 158.099 119.268 157.984 119.105 157.881C118.8 157.674 118.455 157.539 118.095 157.489L117.678 157.281C117.607 157.132 117.501 157.005 117.37 156.911C117.07 156.739 116.753 156.6 116.426 156.495C115.406 155.849 114.254 155.469 113.066 155.386C112.867 155.396 112.676 155.469 112.517 155.594C112.406 155.531 112.302 155.453 112.209 155.363C112.061 155.225 111.869 155.149 111.671 155.149C111.473 155.149 111.281 155.225 111.133 155.363C110.997 155.517 110.922 155.719 110.922 155.929C110.922 156.139 110.997 156.341 111.133 156.495C111.53 156.954 112.039 157.29 112.604 157.466C113.481 158.146 114.484 158.626 115.547 158.875L115.899 158.99H116.097C116.419 159.125 116.735 159.279 117.041 159.452C117.656 159.717 118.199 160.137 118.622 160.677C119.303 161.554 120.862 160.607 120.467 159.591Z" fill="white"/>
<path d="M77.201 187.728C77.1098 187.275 76.9543 186.839 76.7398 186.435C76.6156 186.216 76.4761 186.008 76.3225 185.811C76.3225 185.441 76.1907 185.049 76.1468 184.702V185.003C76.1328 184.744 76.0654 184.492 75.9491 184.263L76.1029 184.61C76.0938 184.525 76.0938 184.44 76.1029 184.356C76.0378 184.061 75.8797 183.798 75.6544 183.609C75.4291 183.421 75.1498 183.319 74.862 183.319C74.5742 183.319 74.2948 183.421 74.0695 183.609C73.8441 183.798 73.6861 184.061 73.6211 184.356C73.6105 184.448 73.6105 184.541 73.6211 184.633C73.6211 184.633 73.6211 184.818 73.6211 184.91V184.633C73.3692 184.823 73.1778 185.089 73.072 185.395C72.9408 185.925 72.9408 186.482 73.072 187.012C73.1057 187.177 73.1498 187.339 73.2038 187.497C73.2847 187.783 73.403 188.055 73.5552 188.306C73.8542 188.79 74.2425 189.207 74.6972 189.53C74.8531 189.791 75.0543 190.018 75.2902 190.2C75.487 190.308 75.7054 190.364 75.9271 190.364C76.1488 190.364 76.3673 190.308 76.5641 190.2C76.7694 190.125 76.9534 189.997 77.0992 189.827C77.2451 189.658 77.3481 189.452 77.3986 189.23C77.4193 188.721 77.3524 188.212 77.201 187.728Z" fill="white"/>
<path d="M82.2717 169.02C82.0892 168.616 81.7891 168.284 81.4151 168.072C81.0334 167.866 80.614 167.748 80.1852 167.726C79.9449 167.689 79.7008 167.689 79.4605 167.726H79.3287H78.9114C78.7387 167.621 78.5384 167.578 78.3404 167.603C78.1425 167.628 77.9575 167.72 77.8133 167.864C77.6816 168.02 77.5983 168.214 77.5748 168.42C77.5512 168.627 77.5885 168.836 77.6815 169.02C77.7805 169.139 77.8909 169.247 78.011 169.343C78.1837 169.528 78.3939 169.67 78.6259 169.759C79.0656 170.375 79.5662 170.94 80.1194 171.445C80.3315 171.662 80.6142 171.786 80.91 171.792C81.2068 171.791 81.4912 171.666 81.7007 171.445C81.8396 171.283 81.9311 171.083 81.9642 170.868C82.058 170.825 82.1421 170.762 82.2103 170.682C82.2786 170.603 82.3295 170.508 82.3596 170.406C82.5028 169.949 82.4713 169.452 82.2717 169.02Z" fill="white"/>
<path d="M42.5879 240.438C42.5879 240.101 42.4607 239.777 42.2341 239.539C42.0076 239.301 41.7004 239.167 41.38 239.167C41.0596 239.167 40.7524 239.301 40.5258 239.539C40.2993 239.777 40.172 240.101 40.172 240.438C40.172 240.692 40.172 240.946 40.172 241.2V241.546C40.0487 241.978 39.902 242.402 39.7328 242.817C39.3175 243.756 39.1216 244.785 39.1617 245.82C39.157 246.047 39.2147 246.271 39.3279 246.464C39.4412 246.657 39.6051 246.812 39.8 246.91C39.9949 247.007 40.2125 247.044 40.4266 247.014C40.6406 246.985 40.842 246.891 41.0066 246.744C41.1424 246.822 41.2919 246.869 41.4459 246.883C41.696 246.855 41.9329 246.751 42.1267 246.582C42.3584 246.179 42.5357 245.743 42.6538 245.289C42.5879 243.556 42.544 241.939 42.5879 240.438Z" fill="white"/>
<path d="M36.5061 215.908C36.3543 215.703 36.1482 215.549 35.9137 215.467C35.6792 215.385 35.4268 215.377 35.1883 215.446C34.7744 215.563 34.3813 215.751 34.0243 216C33.5892 216.298 33.1712 216.621 32.7724 216.971C32.399 217.271 32.0696 217.571 31.7401 217.895C31.4107 218.218 31.257 218.449 30.9934 218.703C30.7896 218.841 30.6232 219.032 30.5102 219.257C30.3522 219.555 30.2903 219.898 30.3339 220.236C30.3775 220.573 30.5241 220.887 30.7518 221.129C30.934 221.307 31.1516 221.441 31.3888 221.521C31.5761 221.576 31.7721 221.59 31.9647 221.562C32.1573 221.534 32.3425 221.465 32.5089 221.36L32.8163 221.129L33.0799 220.898C33.1846 220.798 33.2735 220.681 33.3434 220.551C33.6403 220.522 33.9262 220.419 34.178 220.251C34.5621 220.024 34.9044 219.727 35.1883 219.373C35.7059 218.737 36.1828 218.066 36.6159 217.363C36.7333 217.135 36.7855 216.877 36.766 216.618C36.7465 216.36 36.6562 216.113 36.5061 215.908Z" fill="white"/>
<path d="M62.5956 219.972L62.3321 219.625C62.317 219.58 62.317 219.532 62.3321 219.487V219.371C62.3321 219.371 62.3321 219.209 62.3321 219.371C62.3629 219.156 62.3243 218.937 62.2222 218.747C62.0993 218.542 61.9134 218.387 61.6952 218.309C61.5371 218.262 61.37 218.262 61.212 218.309C61.0989 217.986 60.9189 217.694 60.6849 217.454C60.4472 217.232 60.1453 217.102 59.8283 217.084C59.5714 217.092 59.3242 217.19 59.1255 217.361C58.9875 217.479 58.875 217.627 58.7955 217.794C58.716 217.962 58.6713 218.145 58.6643 218.332C58.6643 218.332 58.6643 218.332 58.6643 218.447C58.6536 218.5 58.6536 218.556 58.6643 218.609C58.6523 218.693 58.6523 218.779 58.6643 218.863C58.6918 218.952 58.7286 219.037 58.7741 219.117C59.0377 219.787 59.2573 220.48 59.5867 221.127C59.7702 221.495 60.0073 221.83 60.2895 222.12C60.4926 222.295 60.7053 222.457 60.9265 222.605L61.0802 222.79C61.2057 222.92 61.3587 223.017 61.5266 223.073C61.6945 223.13 61.8726 223.143 62.0465 223.114C62.2211 223.09 62.3885 223.026 62.5367 222.926C62.6848 222.826 62.81 222.693 62.9031 222.536C63.1269 222.132 63.2181 221.663 63.1625 221.199C63.1069 220.736 62.9077 220.304 62.5956 219.972Z" fill="white"/>
<path d="M164.921 0C156.439 2.14623 148.158 3.76471 141.285 9.64045C139.819 10.6775 138.612 12.069 137.766 13.6978C136.92 15.3265 136.46 17.1448 136.423 18.9994C136.613 20.5837 136.927 22.1487 137.362 23.6788C137.485 25.6048 137.834 27.5075 138.401 29.3435C138.804 30.3286 139.474 31.4897 140.078 32.8619C140.078 33.3896 140.078 33.9526 140.078 34.4804C139.962 34.8395 139.804 35.1821 139.608 35.5007C138.417 37.0621 137.03 38.447 135.485 39.6173C133.212 39.3255 130.906 39.6401 128.779 40.532C125.963 42.0449 126.5 44.3671 125.091 46.9707C122.46 50.9824 119.338 54.6139 115.805 57.7722C115.451 58.2 115.213 58.7185 115.112 59.2748C115.012 59.831 115.054 60.4052 115.235 60.9388C114.264 62.2563 113.138 63.4387 111.882 64.4572C109.609 65.5951 107.059 65.9757 104.573 65.5479C101.958 65.5479 99.3433 65.5479 96.7618 65.5479C91.4068 65.7224 86.0508 65.2382 80.8032 64.1053C78.3223 63.3665 76.9141 61.2906 74.9361 59.7073C73.3876 58.4695 71.6695 57.4849 69.8401 56.787C68.2201 56.1274 66.4843 55.8395 64.7494 55.9427C63.0145 56.0459 61.3208 56.5377 59.7822 57.3852C57.3929 58.6665 54.8581 59.6242 52.2388 60.2351C49.5902 60.6925 47.0421 60.0592 44.3935 60.2351C42.9906 60.4473 41.6541 60.9998 40.4902 61.8488C39.3262 62.6977 38.3669 63.8197 37.6883 65.1257C37.3865 65.5127 37.9901 65.8997 38.2918 65.6183C40.2491 63.4372 42.8934 62.0747 45.7347 61.7832C47.9809 61.7832 50.1266 62.2054 52.4399 61.7832C55.7898 60.8567 59.0725 59.681 62.2631 58.2648C68.6667 56.3648 72.5557 61.0443 76.8806 64.9849C79.5701 66.8326 82.6153 68.0341 85.7986 68.5033C90.1729 69.7361 94.6799 70.3747 99.2091 70.4033C103.394 70.9864 107.641 70.8438 111.782 69.9811C114.121 68.9416 116.05 67.0911 117.246 64.7387C117.18 65.3221 117.068 65.8988 116.911 66.4627C116.697 67.1321 116.518 67.8134 116.375 68.5033C115.369 69.4639 114.608 70.6735 114.162 72.0218C113.726 75.2134 113.794 78.4585 114.363 81.627C114.564 85.638 114.363 89.649 114.631 93.66C114.919 95.3074 115.043 96.9818 115 98.6561C114.564 100.767 113.089 101.119 111.647 101.26C111.872 101.015 112.158 100.842 112.473 100.761C112.787 100.68 113.117 100.694 113.424 100.802C113.659 100.802 113.76 100.486 113.424 100.415C112.318 100.169 112.419 100.415 111.48 100.662C109.803 101.154 108.127 101.295 106.283 101.787C102.881 102.89 99.6335 104.463 96.6276 106.467L95.89 106.96C94.3256 108.019 92.8354 109.195 91.431 110.478C90.5835 111.088 89.7769 111.758 89.0171 112.483C87.8724 113.96 86.5923 115.315 85.1951 116.53C82.0437 118.535 76.78 117.655 73.2598 117.233C69.7395 116.811 66.3198 115.298 62.766 114.77C59.1978 114.427 55.6006 114.871 52.2052 116.072C49.2224 116.854 46.2888 117.829 43.4214 118.992C40.4071 120.953 37.5978 123.241 35.0398 125.818C32.1565 127.964 28.5356 128.738 26.0546 131.553C25.0524 132.787 24.2175 134.161 23.5737 135.635C22.1857 138.24 19.8715 140.162 17.1367 140.982C13.9786 142.758 10.9526 144.781 8.08457 147.034C5.53656 148.582 2.18395 148.16 0.13884 150.553C0.0499231 150.646 0 150.772 0 150.904C0 151.036 0.0499231 151.163 0.13884 151.256C0.227758 151.35 0.348376 151.402 0.474124 151.402C0.599872 151.402 0.720388 151.35 0.809306 151.256C3.05557 149.216 6.84404 149.638 9.39204 147.738C10.9007 146.682 12.2418 145.38 13.7505 144.219C15.6902 143.052 17.7338 142.085 19.8523 141.334C22.1163 140.354 23.9388 138.504 24.9483 136.162C27.2952 131.553 30.279 130.322 34.3356 128C37.5206 126.17 39.5658 122.933 42.6838 120.963C46.5323 119.003 50.6143 117.595 54.8203 116.776C62.9001 114.735 70.8459 118.887 79.0263 119.098C80.9381 119.244 82.8591 119.018 84.6923 118.43C83.803 119.922 83.0294 121.487 82.3789 123.109C81.7597 125.056 81.5537 127.121 81.7755 129.161C81.7866 131.35 81.5616 133.534 81.1049 135.67C80.4679 139.188 80.8703 146.225 77.5847 147.562C76.1095 148.266 74.3997 148.723 72.8575 149.356C71.3153 149.99 69.9072 150.025 68.4655 150.482C65.5487 151.397 64.5094 155.021 62.4978 157.097C62.1626 157.449 62.6654 157.941 63.0342 157.625C64.0288 156.576 64.8857 155.393 65.5822 154.106C66.1611 152.996 67.0044 152.063 68.0297 151.397C68.7337 151.045 69.1696 151.221 69.8401 151.045C72.9662 149.797 76.1698 148.774 79.4286 147.984C79.5317 147.979 79.6303 147.938 79.7091 147.868C79.7878 147.798 79.8425 147.703 79.8645 147.597C80.8032 142.46 82.2113 137.429 82.8483 132.222C82.7736 129.27 83.021 126.319 83.5858 123.426C84.5045 121.046 85.7101 118.799 87.1732 116.741C89.2853 115.017 91.1963 112.624 93.2079 110.9C94.5923 109.447 96.1081 108.139 97.734 106.995C99.503 106.168 101.33 105.486 103.199 104.954C104.892 104.159 106.627 103.466 108.395 102.878C110.15 102.598 111.919 102.422 113.693 102.35C119.426 101.4 117.28 92.6396 117.38 88.2768C117.38 84.7584 117.38 81.24 117.38 77.7215C117.38 72.9013 120.063 71.2125 122.678 67.7645C125.187 63.8099 127.99 60.0689 131.059 56.576L132.333 55.4149C131.025 57.6894 129.838 60.0386 128.779 62.4517C127.874 65.4071 129.383 67.483 129.819 70.3329C130.368 75.5671 132.467 80.4889 135.82 84.4065C136.466 84.9677 137.082 85.5668 137.664 86.2009C138.198 87.1514 138.547 88.2037 138.691 89.2969C138.835 90.3901 138.771 91.5023 138.502 92.5692C137.871 96.0592 137.423 99.5829 137.161 103.124C136.993 110.759 137.161 118.465 137.362 126.1C137.362 129.618 137.362 133.136 137.362 136.655C137.208 138.728 136.435 140.697 135.153 142.283C133.871 143.868 132.145 144.989 130.221 145.486C127.036 146.788 124.086 147.456 121.27 149.004C121.244 148.974 121.213 148.951 121.179 148.934C121.144 148.918 121.106 148.909 121.068 148.909C121.03 148.909 120.993 148.918 120.958 148.934C120.923 148.951 120.892 148.974 120.867 149.004L120.599 149.356C119.623 149.916 118.702 150.576 117.85 151.327C113.625 154.845 110.005 160.263 104.439 161.882C101.886 162.147 99.44 163.092 97.3317 164.626C94.8172 166.737 92.3698 168.672 89.6877 170.502C86.335 172.93 82.1107 175.885 81.6414 180.564C81.6414 181.163 82.446 181.127 82.5131 180.564C83.2171 174.407 90.3918 171.663 94.549 168.461C96.8949 166.094 99.7283 164.324 102.83 163.289C105.232 162.806 107.514 161.813 109.535 160.369C112.888 157.976 115.536 154.634 118.721 151.995C117.662 153.716 116.956 155.65 116.65 157.674C116.344 159.697 116.444 161.766 116.945 163.747C117.306 164.953 117.754 166.13 118.286 167.265C118.806 168.607 118.806 170.11 118.286 171.452C117.284 174.2 115.894 176.774 114.162 179.087C113.961 179.368 114.397 179.65 114.598 179.368C117.045 176.026 120.767 171.346 118.788 166.913C117.369 164.135 116.796 160.967 117.146 157.836C117.569 155.363 118.533 153.026 119.962 151.01C120.264 150.799 120.532 150.517 120.834 150.341C125.494 147.316 131.16 147.492 135.518 143.692C138.871 140.666 138.401 137.112 138.401 132.714C138.401 125.115 138.569 117.48 138.401 109.845C138.122 105.608 138.245 101.354 138.77 97.1432C139.379 94.1008 139.671 90.9982 139.642 87.8897C139.642 83.5973 136.289 80.8529 134.948 76.8068C134.009 73.4995 133.54 70.157 132.735 66.8497C132.35 65.7446 132.246 64.553 132.434 63.3928C132.622 62.2325 133.096 61.1441 133.808 60.2351C134.48 59.029 134.978 57.7246 135.283 56.3649C136.021 53.1631 137.932 51.6854 139.24 48.9762C139.441 48.7299 139.675 48.5188 139.91 48.2725C142.088 46.0945 143.424 43.151 143.665 40.0043C143.682 39.8288 143.682 39.652 143.665 39.4765C144.315 38.738 144.847 37.8946 145.241 36.9785C147.588 31.2787 143.766 24.5937 147.822 19.3864C151.879 14.1792 161.602 12.3496 167.502 10.2737C168.464 9.6457 169.208 8.71088 169.626 7.60642C170.044 6.50197 170.114 5.28603 169.825 4.13693C169.536 2.98782 168.904 1.96606 168.021 1.22153C167.139 0.477004 166.052 0.0488845 164.921 0ZM133.54 49.7855C131.059 52.0724 128.31 54.1131 125.963 56.576L124.957 57.7722L125.494 56.8574C128.276 51.8965 133.205 48.8003 137.329 45.106L138.871 43.8041C137.421 46.0929 135.619 48.114 133.54 49.7855Z" fill="#202147"/>
</svg>
