<svg width="232" height="297" viewBox="0 0 232 297" fill="none" xmlns="http://www.w3.org/2000/svg">
<path d="M155.269 131.835C155.269 131.114 155.269 130.427 155.269 129.706C155.269 128.263 155.269 126.82 155.269 125.412C155.31 125.037 155.275 124.657 155.166 124.298C155.057 123.938 154.878 123.606 154.639 123.325C154.4 123.043 154.107 122.818 153.78 122.664C153.452 122.51 153.097 122.43 152.739 122.43C152.38 122.43 152.025 122.51 151.697 122.664C151.37 122.818 151.077 123.043 150.838 123.325C150.599 123.606 150.42 123.938 150.311 124.298C150.202 124.657 150.167 125.037 150.208 125.412C150.208 126.065 150.208 126.717 150.208 127.37C150.208 128.023 150.208 127.954 150.044 128.229C149.721 129.495 149.557 130.799 149.554 132.11C149.554 132.35 149.554 132.591 149.554 132.831C149.554 133.072 149.554 133.106 149.554 133.312C149.209 133.811 149.023 134.413 149.023 135.03C149.023 135.647 149.209 136.248 149.554 136.747C149.716 137.078 149.969 137.351 150.28 137.529C150.591 137.707 150.946 137.782 151.299 137.745C151.651 137.708 151.985 137.56 152.256 137.321C152.527 137.082 152.724 136.762 152.82 136.404C153.367 136.385 153.895 136.185 154.328 135.834C154.762 135.483 155.08 134.997 155.237 134.446C155.392 133.584 155.403 132.701 155.269 131.835Z" fill="white"/>
<path d="M121.437 127.819C121.144 127.372 120.948 126.857 120.654 126.41L120.131 125.689L119.641 125.002C119.641 125.002 119.282 124.521 119.184 124.384C119.086 124.246 118.727 123.491 118.27 123.319C117.807 123.131 117.295 123.131 116.833 123.319C116.216 122.333 115.403 121.501 114.449 120.88C114.051 120.636 113.594 120.522 113.134 120.553C112.675 120.583 112.234 120.757 111.869 121.052C111.506 121.349 111.233 121.751 111.083 122.208C110.932 122.665 110.91 123.158 111.02 123.628C111.381 124.682 111.864 125.686 112.457 126.616C112.947 127.441 113.469 128.265 113.894 129.124V129.399V129.776L114.188 130.36C114.384 130.738 114.58 131.15 114.808 131.528C115.075 132.013 115.381 132.472 115.723 132.902C116.168 133.453 116.778 133.828 117.453 133.967C117.683 134.025 117.921 134.027 118.151 133.972C118.381 133.918 118.596 133.808 118.78 133.652C118.963 133.496 119.109 133.297 119.208 133.072C119.306 132.847 119.354 132.6 119.347 132.353H119.739C120.153 132.299 120.542 132.117 120.856 131.829C121.17 131.541 121.395 131.161 121.503 130.738C121.684 130.273 121.772 129.774 121.761 129.271C121.749 128.769 121.639 128.274 121.437 127.819Z" fill="white"/>
<path d="M98.6113 58.5347C98.0286 58.2025 97.429 57.9043 96.8151 57.6416C96.6431 57.3485 96.4029 57.1065 96.1172 56.9382C95.8315 56.7699 95.5098 56.681 95.1823 56.6798H94.8231C94.5655 56.3519 94.2562 56.0731 93.9087 55.8555C92.8156 55.2918 91.5896 55.0768 90.3818 55.2371L89.1082 54.6189C87.8912 53.9945 86.5053 53.8366 85.1894 54.1723C84.8083 54.2921 84.4675 54.5238 84.2072 54.8402C83.9469 55.1566 83.7778 55.5445 83.7199 55.9585C83.6647 56.3756 83.7283 56.8005 83.9027 57.1795C84.0771 57.5586 84.3544 57.8748 84.6995 58.0881C86.675 59.2 88.8005 59.9877 91.0023 60.4239L91.4268 60.6299C93.5495 61.7291 96.9458 64.0648 99.0685 61.8321C99.2829 61.6016 99.4438 61.3222 99.5388 61.0156C99.6337 60.709 99.6601 60.3835 99.6158 60.0644C99.5716 59.7453 99.4579 59.4412 99.2837 59.1759C99.1094 58.9105 98.8793 58.6911 98.6113 58.5347Z" fill="white"/>
<path d="M84.8988 121.526C84.9309 121.126 84.9309 120.724 84.8988 120.324C84.9278 119.958 84.9278 119.59 84.8988 119.224C84.7414 118.826 84.5444 118.446 84.311 118.091C84.1697 117.826 83.9727 117.598 83.7349 117.426C83.4972 117.253 83.2251 117.14 82.9394 117.095C82.6496 116.825 82.2809 116.667 81.8944 116.648C81.6081 116.643 81.3258 116.72 81.0782 116.871C80.8307 117.023 80.6273 117.243 80.4902 117.507C80.3836 117.739 80.2962 117.98 80.2289 118.228V118.606C80.2289 118.881 80.2289 119.156 80.2289 119.43L80.4248 118.95C80.1388 119.509 79.9927 120.135 80.0003 120.77C80.0003 120.77 80.0003 121.011 80.0003 121.148C80.0003 122.007 80.0003 122.865 80.0003 123.724C80.0087 124.304 80.2316 124.858 80.6218 125.269C81.0119 125.679 81.5387 125.914 82.0903 125.922H82.5148C83.0052 126 83.5055 125.885 83.9208 125.6C84.3362 125.315 84.6377 124.88 84.7682 124.377C84.7844 124.194 84.7844 124.01 84.7682 123.827C84.7682 123.037 84.8988 122.213 84.8988 121.526Z" fill="white"/>
<path d="M112.687 143.314C112.388 143.034 112.03 142.833 111.642 142.73C111.371 142.697 111.097 142.697 110.825 142.73H110.433H110.107C109.874 142.703 109.638 142.732 109.417 142.815C109.196 142.898 108.997 143.034 108.833 143.211C108.775 143.318 108.697 143.411 108.605 143.486C108.457 143.54 108.315 143.609 108.18 143.692H106.449C106.146 143.692 105.856 143.819 105.641 144.044C105.427 144.27 105.306 144.575 105.306 144.894C105.325 145.125 105.417 145.343 105.568 145.512L105.241 145.753C104.904 146.129 104.715 146.627 104.715 147.144C104.715 147.661 104.904 148.159 105.241 148.535C105.488 148.9 105.845 149.166 106.253 149.291C106.783 149.412 107.336 149.339 107.821 149.085C108.627 148.651 109.383 148.121 110.074 147.505L110.564 147.196C110.957 147.045 111.361 146.93 111.772 146.852H111.25C111.707 146.861 112.157 146.743 112.556 146.509C112.8 146.366 113.008 146.163 113.161 145.918C113.315 145.673 113.41 145.392 113.438 145.1C113.476 144.759 113.426 144.414 113.294 144.099C113.162 143.785 112.952 143.514 112.687 143.314Z" fill="white"/>
<path d="M171.5 87.1722C171.564 86.7398 171.564 86.2994 171.5 85.867C171.5 85.283 171.304 84.7678 171.206 84.1839V83.5313V83.2565C171.222 82.9476 171.222 82.6379 171.206 82.329C171.286 82.2081 171.329 82.0642 171.329 81.9169C171.329 81.7695 171.286 81.6256 171.206 81.5047C171.18 80.9215 170.942 80.371 170.541 79.9679C170.139 79.5648 169.605 79.3401 169.05 79.3407C168.476 79.3406 167.924 79.5784 167.515 80.0026C167.105 80.4268 166.871 81.0033 166.862 81.6077C166.862 82.6382 166.862 83.6343 166.862 84.6648C166.846 84.9164 166.846 85.1688 166.862 85.4205V88.0653C166.871 88.6729 167.104 89.2531 167.513 89.6828C167.921 90.1125 168.473 90.3578 169.05 90.3667C169.472 90.3417 169.88 90.1978 170.23 89.95C170.581 89.7022 170.861 89.3597 171.042 88.9584C171.354 88.6992 171.591 88.3544 171.728 87.9622V87.1722H171.5Z" fill="white"/>
<path d="M231.524 166.185C231.328 165.573 231.029 165.003 230.642 164.502L230.185 164.158C229.97 163.967 229.741 163.795 229.499 163.643C229.045 163.334 228.532 163.135 227.997 163.059L227.376 162.75C227.271 162.529 227.114 162.339 226.919 162.2C226.472 161.945 226.002 161.738 225.515 161.582C223.998 160.621 222.285 160.056 220.518 159.933C220.223 159.948 219.938 160.055 219.702 160.242C219.537 160.148 219.384 160.033 219.245 159.899C219.024 159.694 218.74 159.58 218.445 159.58C218.15 159.58 217.866 159.694 217.645 159.899C217.443 160.128 217.33 160.428 217.33 160.74C217.33 161.053 217.443 161.353 217.645 161.582C218.235 162.264 218.992 162.763 219.833 163.025C221.137 164.036 222.627 164.75 224.209 165.12L224.731 165.292H225.025C225.505 165.492 225.974 165.722 226.429 165.979C227.344 166.372 228.152 166.997 228.781 167.799C229.793 169.104 232.112 167.696 231.524 166.185Z" fill="white"/>
<path d="M167.191 208.023C167.055 207.349 166.824 206.701 166.505 206.099C166.321 205.774 166.113 205.464 165.885 205.172C165.885 204.622 165.689 204.038 165.623 203.523V203.97C165.603 203.585 165.502 203.21 165.33 202.871L165.558 203.386C165.545 203.26 165.545 203.133 165.558 203.008C165.461 202.569 165.226 202.178 164.891 201.898C164.556 201.618 164.141 201.466 163.713 201.466C163.285 201.466 162.87 201.618 162.535 201.898C162.2 202.178 161.965 202.569 161.868 203.008C161.852 203.145 161.852 203.283 161.868 203.42C161.868 203.42 161.868 203.695 161.868 203.832V203.42C161.493 203.703 161.209 204.098 161.052 204.554C160.857 205.342 160.857 206.17 161.052 206.958C161.102 207.203 161.167 207.444 161.247 207.679C161.368 208.104 161.544 208.508 161.77 208.882C162.215 209.602 162.792 210.221 163.468 210.702C163.7 211.089 163.999 211.427 164.35 211.698C164.642 211.858 164.967 211.941 165.297 211.941C165.626 211.941 165.951 211.858 166.244 211.698C166.549 211.587 166.823 211.396 167.04 211.144C167.257 210.892 167.41 210.586 167.485 210.256C167.516 209.499 167.416 208.742 167.191 208.023Z" fill="white"/>
<path d="M174.731 180.205C174.459 179.605 174.013 179.111 173.457 178.796C172.889 178.489 172.266 178.314 171.628 178.281C171.271 178.227 170.908 178.227 170.551 178.281H170.355H169.734C169.477 178.125 169.18 178.061 168.885 178.098C168.591 178.135 168.316 178.272 168.101 178.487C167.906 178.718 167.782 179.006 167.747 179.314C167.712 179.621 167.767 179.932 167.905 180.205C168.053 180.382 168.217 180.543 168.395 180.685C168.652 180.961 168.965 181.172 169.31 181.304C169.963 182.22 170.708 183.06 171.53 183.811C171.846 184.134 172.266 184.318 172.706 184.326C173.147 184.325 173.57 184.14 173.882 183.811C174.088 183.571 174.224 183.272 174.273 182.953C174.413 182.89 174.538 182.796 174.639 182.677C174.741 182.559 174.817 182.418 174.861 182.266C175.074 181.587 175.027 180.848 174.731 180.205Z" fill="white"/>
<path d="M115.724 286.397C115.724 285.896 115.535 285.415 115.198 285.061C114.862 284.707 114.405 284.508 113.928 284.508C113.452 284.508 112.995 284.707 112.658 285.061C112.321 285.415 112.132 285.896 112.132 286.397C112.132 286.775 112.132 287.152 112.132 287.53V288.046C111.949 288.688 111.731 289.319 111.479 289.935C110.862 291.331 110.57 292.862 110.63 294.4C110.623 294.738 110.709 295.07 110.877 295.358C111.046 295.645 111.289 295.875 111.579 296.02C111.869 296.166 112.192 296.22 112.511 296.176C112.829 296.132 113.129 295.993 113.373 295.774C113.575 295.889 113.797 295.96 114.026 295.98C114.398 295.94 114.751 295.784 115.039 295.534C115.383 294.934 115.647 294.286 115.822 293.61C115.724 291.034 115.659 288.629 115.724 286.397Z" fill="white"/>
<path d="M106.681 249.923C106.456 249.618 106.149 249.39 105.8 249.268C105.452 249.145 105.077 249.135 104.722 249.236C104.106 249.411 103.522 249.69 102.991 250.061C102.344 250.503 101.723 250.984 101.13 251.503C100.575 251.95 100.085 252.396 99.5948 252.877C99.105 253.358 98.8764 253.702 98.4845 254.079C98.1815 254.285 97.934 254.568 97.7661 254.904C97.5311 255.346 97.4391 255.856 97.5038 256.358C97.5686 256.86 97.7867 257.326 98.1253 257.686C98.3962 257.952 98.7196 258.151 99.0723 258.27C99.3509 258.351 99.6423 258.372 99.9287 258.331C100.215 258.289 100.49 258.187 100.738 258.03L101.195 257.686L101.587 257.343C101.743 257.194 101.875 257.02 101.979 256.827C102.42 256.784 102.845 256.631 103.22 256.381C103.791 256.044 104.3 255.602 104.722 255.076C105.491 254.13 106.201 253.132 106.845 252.087C107.019 251.749 107.097 251.364 107.068 250.98C107.039 250.596 106.905 250.229 106.681 249.923Z" fill="white"/>
<path d="M145.474 255.966L145.082 255.451C145.06 255.384 145.06 255.311 145.082 255.245V255.073C145.082 255.073 145.082 254.832 145.082 255.073C145.128 254.753 145.07 254.427 144.919 254.145C144.736 253.84 144.459 253.61 144.135 253.493C143.9 253.424 143.652 253.424 143.417 253.493C143.249 253.013 142.981 252.579 142.633 252.222C142.279 251.893 141.831 251.699 141.359 251.672C140.977 251.685 140.61 251.83 140.314 252.085C140.109 252.26 139.942 252.479 139.823 252.728C139.705 252.977 139.639 253.249 139.628 253.527C139.628 253.527 139.628 253.527 139.628 253.699C139.613 253.778 139.613 253.86 139.628 253.939C139.611 254.065 139.611 254.192 139.628 254.317C139.669 254.449 139.724 254.576 139.792 254.695C140.184 255.691 140.51 256.722 141 257.683C141.273 258.23 141.625 258.729 142.045 259.16C142.347 259.42 142.663 259.661 142.992 259.882L143.221 260.156C143.407 260.35 143.635 260.494 143.884 260.578C144.134 260.661 144.399 260.682 144.658 260.637C144.917 260.603 145.166 260.508 145.386 260.359C145.607 260.21 145.793 260.012 145.931 259.779C146.264 259.179 146.399 258.48 146.317 257.791C146.234 257.102 145.938 256.46 145.474 255.966Z" fill="white"/>
<path d="M-1.96916 -0.507846C-1.89307 -1.42331 -1.61859 -2.30827 -1.16681 -3.09483C-0.715027 -3.88138 -0.0979309 -4.54862 0.637115 -5.04535C1.37216 -5.54209 2.2056 -5.85509 3.07353 -5.96038C3.94147 -6.06566 4.8208 -5.96045 5.64406 -5.65275C8.22852 -4.33243 10.3335 -2.1621 11.64 0.529429C12.2317 1.23739 12.7598 2.00131 13.2179 2.81145C14.7189 5.96665 16.3916 9.02819 18.2276 11.9809C20.1999 14.8023 22.1723 17.6237 24.1051 20.5696C24.8152 21.1505 25.4859 21.7728 26.1959 22.2707C30.1406 25.0921 31.9945 29.0753 35.5842 32.0626C38.789 34.353 41.6368 37.1524 44.0259 40.3608C49.4062 42.0399 54.401 44.8644 58.7001 48.659C61.2737 51.1257 64.5733 52.5901 68.049 52.8081C70.8193 52.8488 73.5851 53.0566 76.3328 53.4305C80.7509 53.7209 85.0111 50.4846 89.0741 48.8664C91.9073 47.5468 94.804 46.3834 97.7524 45.3812C100.478 44.9319 103.242 44.7928 105.997 44.9663C109.389 44.9663 112.111 43.1407 115.385 42.8502C120.158 42.4768 123.551 46.4184 127.219 48.9909C129.823 50.775 132.86 51.2729 135.464 53.14C137.945 55.442 140.672 57.4331 143.59 59.0732C144.063 59.0732 143.905 60.1935 143.353 60.069C139.053 59.1977 136.371 54.7167 132.387 52.9326C130.144 52.1053 127.989 51.0345 125.957 49.7378C123.738 47.7151 121.237 46.0637 118.541 44.8418C115.793 44.2987 112.951 44.7216 110.454 46.0451C107.681 46.5905 104.872 46.9096 102.052 46.9993C95.4645 47.9121 88.7586 52.3102 82.8415 55.2975C77.9896 57.787 73.0193 56.9157 67.9306 58.2434C65.8415 58.6165 63.7002 58.5053 61.6562 57.9177C59.6122 57.33 57.7148 56.2801 56.0966 54.8411C52.6647 52.5176 49.7851 49.8622 46.3927 47.8291C46.7412 50.9077 46.6747 54.0226 46.1954 57.0817C44.9848 62.7121 45.7703 68.6138 48.4044 73.6781C51.2051 79.2794 53.6509 85.0881 56.5699 90.6064C57.8956 92.779 59.3723 94.8453 60.988 96.7885C62.0499 98.7627 62.746 100.931 63.0393 103.178C63.0393 103.884 63.4731 104.63 63.7098 105.336C65.1828 107.855 66.4118 110.524 67.3783 113.302L67.6151 114.049C68.2489 114.92 69.0888 115.6 70.051 116.022C71.0132 116.445 72.0639 116.594 73.0982 116.455C80.9323 116.286 88.725 117.695 96.0562 120.604C96.6085 120.314 97.2002 120.065 97.7524 119.733C104.65 116.291 112.136 114.344 119.764 114.007C127.14 113.136 130.217 116.663 134.162 122.803C134.647 123.924 135.347 124.926 136.217 125.749C137.088 126.573 138.11 127.198 139.22 127.588C140.33 127.977 141.505 128.121 142.671 128.012C143.837 127.903 144.969 127.542 145.996 126.953C149.418 125.841 152.954 125.159 156.528 124.919C156.654 124.955 156.766 125.033 156.846 125.141C156.925 125.25 156.968 125.384 156.968 125.521C156.968 125.658 156.925 125.792 156.846 125.901C156.766 126.009 156.654 126.088 156.528 126.123C153.239 126.988 150.021 128.125 146.903 129.525C144.852 130.757 142.556 131.467 140.197 131.599C135.503 131.351 132.742 127.45 130.375 123.301C129.57 121.508 128.279 120.004 126.666 118.978C125.052 117.953 123.186 117.45 121.302 117.534C117.93 117.889 114.584 118.471 111.283 119.277C107.705 119.614 104.196 120.509 100.869 121.932L100.395 122.223L103.591 123.384C107.48 124.252 111.037 126.317 113.807 129.317C114.647 130.622 115.361 132.012 115.937 133.467C117.427 136.171 119.334 138.597 121.578 140.645C125.326 144.794 125.286 150.602 131.046 152.843C136.805 155.083 142.88 152.843 148.52 152.428C153.865 151.894 159.253 152.131 164.536 153.133C167.236 154.079 169.871 155.216 172.425 156.536C174.634 157.448 177.001 157.158 179.25 157.863C182.445 158.859 185.324 160.311 188.677 161.017C191.029 161.385 193.308 162.156 195.423 163.299C200.257 165.891 204.796 169.05 208.953 172.717C204.994 169.694 200.782 167.056 196.37 164.834C191.478 161.929 185.561 161.722 180.315 159.772C177.948 158.859 175.62 159.067 173.214 158.403C171.253 157.62 169.331 156.734 167.455 155.747C161.406 153.932 155.059 153.493 148.836 154.461C140.947 154.876 130.927 158.859 124.813 151.308C123.736 149.823 122.884 148.171 122.288 146.412C120.886 143.823 119.009 141.552 116.766 139.732C113.689 136.703 111.835 131.973 108.009 130.064C103.358 128.063 98.5184 126.589 93.5711 125.666H93.3344C87.1831 127.573 80.759 128.318 74.3605 127.865C72.5456 127.962 70.7402 127.533 69.1406 126.626C67.541 125.719 66.2084 124.368 65.2876 122.72C65.2876 123.177 65.5244 123.55 65.6033 124.007C66.7867 130.521 65.6033 140.105 70.0213 145.25C71.9228 147.257 73.652 149.437 75.1888 151.764C76.9695 154.467 79.4083 156.617 82.2499 157.988C86.4617 160.731 89.7674 164.773 91.7171 169.564C91.7646 169.688 91.7695 169.827 91.731 169.955C91.6926 170.083 91.613 170.193 91.506 170.266C91.3991 170.34 91.2713 170.372 91.1443 170.357C91.0173 170.343 90.8991 170.282 90.8098 170.186C89.0177 167.581 87.0677 165.1 84.9717 162.759C82.9405 160.92 80.6688 159.397 78.2262 158.237C76.0731 156.78 74.2975 154.784 73.0587 152.428C71.4019 149.69 68.9167 147.864 67.26 145.209C64.0648 140.064 64.6566 132.471 63.9071 126.579C63.1576 120.687 59.9623 115.46 58.6606 109.983C57.3233 108.146 55.6628 106.596 53.7692 105.419C50.8502 103.676 48.2467 101.477 45.367 99.6514C43.1924 98.4484 41.4277 96.5633 40.3179 94.2576C37.951 88.7393 40.3179 83.221 40.3179 77.6612C40.3559 77.1918 40.3559 76.7199 40.3179 76.2505C39.9912 76.5746 39.5913 76.8058 39.1562 76.9223C38.721 77.0388 38.2649 77.0368 37.8306 76.9163C37.3964 76.7959 36.9985 76.5611 36.6745 76.2341C36.3505 75.9071 36.111 75.4987 35.9787 75.0473C34.8347 71.811 35.3871 68.4917 34.0853 65.4214C32.7183 62.1149 30.9978 58.9829 28.9571 56.0859C24.5795 49.6284 20.9138 42.6686 18.0304 35.3404C14.4025 28.1526 10.3308 21.2226 5.84135 14.5949C4.76903 11.9986 3.22839 9.6456 1.30487 7.66589C0.173447 6.68169 -0.715088 5.42451 -1.28514 4.00136C-1.85519 2.57821 -2.08986 1.03123 -1.96916 -0.507846ZM84.8139 123.592H85.7212C81.9549 122.39 78.0081 121.939 74.0843 122.264C73.1771 122.264 72.3487 122.513 71.5992 122.554C75.1888 124.795 81.4609 124.09 84.8139 123.592ZM51.5996 95.0459C51.2446 94.5065 50.929 93.9672 50.6134 93.4278C48.3649 89.5276 46.4716 85.42 44.4203 81.3954C44.4856 83.4443 44.7098 85.4841 45.0909 87.4946C46.1559 91.6022 48.8384 93.1373 51.7969 95.0459H51.5996ZM39.0555 50.0282C39.0016 48.4872 38.6191 46.9788 37.9363 45.6142C37.2535 44.2497 36.2879 43.0641 35.1108 42.1449C34.4402 41.896 34.243 41.564 34.2825 42.4768C35.8998 45.1737 37.4777 47.4972 39.2528 50.0282H39.0555Z" fill="#202147"/>
</svg>
