<svg width="404" height="610" viewBox="0 0 404 610" fill="none" xmlns="http://www.w3.org/2000/svg">
<path d="M94.1291 331.461C94.1291 330.74 94.1291 330.053 94.1291 329.331C94.1291 327.889 94.1291 326.446 94.1291 325.038C94.1697 324.663 94.1345 324.283 94.0258 323.923C93.9171 323.564 93.7374 323.232 93.4985 322.951C93.2595 322.669 92.9667 322.444 92.6392 322.29C92.3118 322.135 91.9571 322.056 91.5983 322.056C91.2394 322.056 90.8847 322.135 90.5572 322.29C90.2297 322.444 89.937 322.669 89.698 322.951C89.4591 323.232 89.2794 323.564 89.1707 323.923C89.062 324.283 89.0268 324.663 89.0673 325.038C89.0673 325.69 89.0673 326.343 89.0673 326.996C89.0673 327.648 89.0674 327.58 88.9041 327.854C88.5811 329.12 88.4164 330.425 88.4142 331.736C88.4142 331.976 88.4142 332.217 88.4142 332.457C88.4142 332.698 88.4142 332.732 88.4142 332.938C88.0691 333.437 87.8832 334.038 87.8832 334.655C87.8832 335.273 88.0691 335.874 88.4142 336.373C88.576 336.704 88.829 336.977 89.14 337.155C89.4511 337.333 89.8059 337.408 90.1583 337.371C90.5106 337.334 90.8443 337.186 91.1156 336.947C91.387 336.708 91.5836 336.388 91.6799 336.029C92.2269 336.01 92.7545 335.811 93.1881 335.46C93.6217 335.109 93.9394 334.623 94.0965 334.072C94.2513 333.21 94.2623 332.327 94.1291 331.461Z" fill="white"/>
<path d="M60.2972 327.444C60.0033 326.998 59.8074 326.483 59.5135 326.036L58.991 325.315L58.5011 324.628C58.5011 324.628 58.1419 324.147 58.0439 324.009C57.9459 323.872 57.5867 323.116 57.1295 322.945C56.6672 322.757 56.1549 322.757 55.6927 322.945C55.0762 321.959 54.2626 321.127 53.3087 320.506C52.911 320.262 52.4534 320.148 51.9939 320.179C51.5345 320.209 51.0941 320.383 50.7288 320.678C50.3661 320.975 50.093 321.377 49.9423 321.834C49.7917 322.291 49.7699 322.784 49.8797 323.254C50.2411 324.308 50.7236 325.311 51.3166 326.242C51.8065 327.067 52.329 327.891 52.7535 328.75V329.024V329.402L53.0474 329.986C53.2434 330.364 53.4393 330.776 53.6679 331.154C53.9349 331.639 54.2408 332.098 54.5823 332.528C55.028 333.079 55.6382 333.454 56.3131 333.593C56.5423 333.651 56.7812 333.653 57.0112 333.598C57.2411 333.543 57.4561 333.434 57.6393 333.278C57.8224 333.122 57.969 332.923 58.0675 332.698C58.1659 332.472 58.2137 332.226 58.2072 331.978H58.5991C59.0125 331.925 59.4013 331.742 59.7155 331.455C60.0297 331.167 60.255 330.787 60.3625 330.364C60.5438 329.899 60.6316 329.4 60.6204 328.897C60.6091 328.395 60.4991 327.9 60.2972 327.444Z" fill="white"/>
<path d="M37.471 258.16C36.8884 257.828 36.2887 257.53 35.6749 257.267C35.5028 256.974 35.2626 256.732 34.9769 256.564C34.6912 256.396 34.3695 256.307 34.0421 256.306H33.6828C33.4252 255.978 33.1159 255.699 32.7685 255.481C31.6754 254.918 30.4493 254.703 29.2415 254.863L27.9679 254.245C26.751 253.62 25.365 253.462 24.0492 253.798C23.668 253.918 23.3272 254.15 23.0669 254.466C22.8066 254.782 22.6376 255.17 22.5796 255.584C22.5244 256.001 22.5881 256.426 22.7624 256.805C22.9368 257.184 23.2141 257.501 23.5593 257.714C25.5347 258.826 27.6602 259.614 29.862 260.05L30.2865 260.256C32.4092 261.355 35.8055 263.691 37.9282 261.458C38.1426 261.227 38.3035 260.948 38.3985 260.641C38.4934 260.335 38.5198 260.009 38.4756 259.69C38.4313 259.371 38.3177 259.067 38.1434 258.802C37.9692 258.536 37.7391 258.317 37.471 258.16Z" fill="white"/>
<path d="M23.7585 321.152C23.7906 320.752 23.7906 320.349 23.7585 319.949C23.7876 319.584 23.7876 319.216 23.7585 318.85C23.6011 318.452 23.4041 318.072 23.1707 317.717C23.0295 317.452 22.8324 317.224 22.5947 317.051C22.3569 316.879 22.0848 316.766 21.7991 316.721C21.5093 316.451 21.1406 316.293 20.7541 316.274C20.4678 316.269 20.1855 316.346 19.938 316.497C19.6904 316.649 19.4871 316.868 19.3499 317.133C19.2433 317.365 19.1559 317.606 19.0886 317.854V318.232C19.0886 318.507 19.0886 318.781 19.0886 319.056L19.2846 318.575C18.9986 319.135 18.8525 319.761 18.86 320.396C18.86 320.396 18.86 320.636 18.86 320.774C18.86 321.632 18.86 322.491 18.86 323.35C18.8684 323.93 19.0914 324.484 19.4815 324.895C19.8716 325.305 20.3984 325.539 20.9501 325.548H21.3746C21.865 325.625 22.3653 325.511 22.7806 325.226C23.1959 324.941 23.4974 324.506 23.6279 324.003C23.6441 323.82 23.6441 323.636 23.6279 323.453C23.6279 322.663 23.7585 321.839 23.7585 321.152Z" fill="white"/>
<path d="M51.5465 342.94C51.2481 342.659 50.8895 342.459 50.5015 342.356C50.2303 342.322 49.9563 342.322 49.6851 342.356H49.2932H48.9666C48.7335 342.328 48.4975 342.357 48.2768 342.441C48.056 342.524 47.8563 342.66 47.693 342.837C47.6349 342.943 47.5572 343.037 47.4645 343.112C47.317 343.166 47.1749 343.235 47.0399 343.318H45.3091C45.006 343.318 44.7153 343.444 44.5009 343.67C44.2866 343.895 44.1661 344.201 44.1661 344.52C44.1846 344.751 44.2766 344.969 44.4274 345.138L44.1009 345.379C43.7633 345.755 43.5752 346.253 43.5752 346.77C43.5752 347.287 43.7633 347.785 44.1009 348.161C44.348 348.525 44.7046 348.791 45.1132 348.917C45.6428 349.037 46.1956 348.965 46.6807 348.711C47.487 348.277 48.2431 347.746 48.934 347.13L49.4238 346.821C49.8165 346.671 50.2208 346.556 50.6322 346.478H50.1096C50.5663 346.487 51.0171 346.368 51.4159 346.134C51.6599 345.992 51.8676 345.789 52.0211 345.544C52.1747 345.299 52.2695 345.018 52.2976 344.726C52.3354 344.385 52.2857 344.039 52.1536 343.725C52.0215 343.411 51.8119 343.14 51.5465 342.94Z" fill="white"/>
<path d="M110.359 286.798C110.424 286.366 110.424 285.925 110.359 285.493C110.359 284.909 110.163 284.394 110.065 283.81V283.157V282.882C110.082 282.573 110.082 282.264 110.065 281.955C110.145 281.834 110.188 281.69 110.188 281.543C110.188 281.395 110.145 281.251 110.065 281.13C110.04 280.547 109.802 279.997 109.401 279.594C108.999 279.191 108.465 278.966 107.91 278.966C107.335 278.966 106.784 279.204 106.374 279.628C105.965 280.053 105.731 280.629 105.722 281.234C105.722 282.264 105.722 283.26 105.722 284.291C105.706 284.542 105.706 284.795 105.722 285.046V287.691C105.731 288.299 105.964 288.879 106.372 289.309C106.781 289.738 107.332 289.984 107.91 289.992C108.332 289.968 108.739 289.824 109.09 289.576C109.44 289.328 109.721 288.985 109.902 288.584C110.214 288.325 110.451 287.98 110.588 287.588V286.798H110.359Z" fill="white"/>
<path d="M117.088 234.349C117.303 233.966 117.366 233.509 117.262 233.078C117.158 232.646 116.896 232.276 116.533 232.048H116.141L115.259 231.841C114.781 231.806 114.301 231.806 113.822 231.841C113.366 231.791 112.906 231.791 112.451 231.841H112.026C111.745 231.837 111.467 231.9 111.213 232.025C110.958 232.15 110.734 232.334 110.557 232.563C110.388 232.807 110.276 233.089 110.23 233.387C110.154 233.731 110.158 234.089 110.244 234.43C110.329 234.771 110.493 235.085 110.72 235.345C111.089 235.713 111.521 236.004 111.993 236.204C112.637 236.864 113.337 237.462 114.083 237.99C114.403 238.176 114.763 238.274 115.128 238.274C115.494 238.274 115.854 238.176 116.173 237.99C116.487 237.796 116.748 237.52 116.931 237.189C117.114 236.858 117.213 236.483 117.218 236.101C117.215 235.655 117.137 235.213 116.99 234.795L117.088 234.349Z" fill="white"/>
<path d="M130.736 174.619C130.64 174.362 130.564 174.098 130.507 173.829C130.589 173.456 130.589 173.068 130.507 172.695C130.507 172.077 130.246 171.493 130.148 170.909C129.91 169.546 129.434 168.242 128.743 167.062C128.509 166.639 128.148 166.309 127.717 166.123C127.286 165.936 126.809 165.904 126.36 166.032C125.916 166.175 125.526 166.461 125.245 166.849C124.964 167.237 124.806 167.708 124.792 168.196C124.792 169.707 124.792 171.253 124.792 172.798C124.808 173.367 125.03 173.907 125.413 174.309C125.795 174.712 126.309 174.945 126.849 174.962L127.47 174.791L127.731 175.065C127.93 175.377 128.149 175.676 128.384 175.958C128.587 176.182 128.858 176.324 129.149 176.362C129.441 176.399 129.736 176.33 129.984 176.164C130.26 176.037 130.485 175.814 130.621 175.532C130.758 175.251 130.799 174.928 130.736 174.619Z" fill="white"/>
<path d="M178.157 212.237C178.141 211.843 178.01 211.464 177.782 211.15C177.555 210.837 177.241 210.605 176.883 210.485L175.806 210.245C175.277 210.142 174.742 210.074 174.206 210.039C173.283 209.975 172.357 210.068 171.462 210.314C171.044 210.455 170.678 210.731 170.417 211.104C170.168 211.071 169.916 211.071 169.666 211.104C169.203 211.248 168.811 211.575 168.574 212.018C168.336 212.46 168.271 212.982 168.393 213.474C168.488 213.79 168.657 214.075 168.886 214.304C169.114 214.532 169.394 214.695 169.699 214.779L170.777 215.019H170.287C170.921 215.115 171.544 215.276 172.148 215.5C172.734 215.92 173.371 216.255 174.042 216.496C174.466 216.609 174.913 216.576 175.318 216.403C175.724 216.23 176.066 215.926 176.296 215.535C176.463 215.273 176.585 214.982 176.655 214.676C177.048 214.65 177.417 214.47 177.689 214.171C177.962 213.871 178.117 213.476 178.124 213.061C178.188 212.792 178.199 212.511 178.157 212.237Z" fill="white"/>
<path d="M32.9618 186.844C32.481 186.29 31.8567 185.896 31.1657 185.71H30.9371L30.3493 185.367L29.1084 184.508L27.998 183.752C27.8374 183.458 27.5992 183.22 27.3123 183.065C26.2835 182.459 25.3008 181.77 24.3731 181.004C23.8833 180.695 23.3935 180.386 22.871 180.111C22.0537 179.68 21.1229 179.547 20.2258 179.734C20.2258 179.734 20.0298 179.734 19.8992 179.94C19.384 179.803 18.8395 179.866 18.3643 180.116C17.8891 180.365 17.5148 180.786 17.3094 181.302C17.1039 181.817 17.0809 182.392 17.2445 182.924C17.4081 183.456 17.7475 183.908 18.201 184.199C20.1422 185.474 22.1987 186.544 24.3405 187.393H24.7324L25.1896 187.634C25.6141 187.874 26.0386 188.115 26.4305 188.39C27.1882 188.916 27.9732 189.398 28.7818 189.832C30.1207 190.519 32.0474 191.206 33.0924 189.832C33.4261 189.405 33.5975 188.864 33.5733 188.312C33.5492 187.76 33.3313 187.237 32.9618 186.844Z" fill="white"/>
<path d="M4.81672 194.951C4.9026 194.94 4.98372 194.904 5.05072 194.846C5.11771 194.788 5.16782 194.712 5.19518 194.626C5.22254 194.539 5.22604 194.447 5.20529 194.358C5.18454 194.27 5.14041 194.19 5.07798 194.127C5.10889 193.887 5.10889 193.645 5.07798 193.405C5.06178 192.76 4.88133 192.132 4.55546 191.585C4.50023 191.475 4.42115 191.381 4.3247 191.309C4.22824 191.237 4.11713 191.191 4.0003 191.173C3.99174 190.641 3.78493 190.134 3.42452 189.762C3.06411 189.389 2.57892 189.18 2.07353 189.18C1.57065 189.189 1.09017 189.401 0.731507 189.771C0.37285 190.142 0.163502 190.644 0.146803 191.173C0.146803 193.131 0.146803 195.088 0.146803 197.046C0.146803 198.008 0.146803 198.97 0.146803 199.932C0.0149744 201.109 0.207675 202.301 0.701958 203.367C0.85492 203.622 1.06698 203.832 1.31826 203.978C1.56953 204.124 1.85184 204.201 2.13885 204.201C2.42587 204.201 2.70823 204.124 2.9595 203.978C3.21078 203.832 3.42279 203.622 3.57575 203.367C4.05528 202.407 4.24874 201.318 4.13091 200.241C4.37299 200.074 4.5696 199.844 4.70131 199.573C4.83302 199.302 4.89526 198.999 4.88199 198.695C4.88199 197.974 4.882 197.287 4.68606 196.565C4.49012 195.844 4.68606 195.844 4.68606 195.466C4.68606 195.088 4.68606 195.466 4.68606 195.466C4.70485 195.289 4.74891 195.115 4.81672 194.951Z" fill="white"/>
<path d="M48.3131 218.354C48.2063 218.254 48.0851 218.173 47.9539 218.113C47.7724 217.529 47.4453 217.008 47.0069 216.602C46.5815 216.25 46.1342 215.929 45.6679 215.64C45.1918 215.318 44.689 215.042 44.1657 214.816L43.5126 214.541H43.2513L41.2593 213.373C40.4876 212.895 39.6075 212.646 38.7121 212.652C38.4202 212.658 38.1361 212.752 37.8931 212.923C37.6502 213.093 37.4585 213.333 37.3405 213.614C37.1487 213.475 36.9203 213.402 36.6874 213.408C36.2392 213.188 35.7414 213.104 35.2505 213.167C34.8525 213.2 34.4697 213.342 34.1402 213.579C33.8245 213.827 33.595 214.177 33.4871 214.575C33.1654 216.63 33.0886 218.718 33.2584 220.792C33.267 221.297 33.4634 221.777 33.8055 222.13C34.1475 222.484 34.6078 222.682 35.0872 222.682C35.5361 222.674 35.9661 222.49 36.2925 222.166C36.6189 221.842 36.8181 221.401 36.8507 220.93C37.3273 220.912 37.7794 220.703 38.1137 220.345C38.4479 219.987 38.6387 219.508 38.6468 219.006C38.7283 218.001 38.7283 216.989 38.6468 215.984L39.7571 216.911L42.0757 218.628C43.527 219.745 45.1845 220.529 46.9415 220.93C47.2477 221.016 47.5722 220.995 47.8664 220.872C48.1607 220.748 48.409 220.527 48.5744 220.243C48.7441 219.944 48.8108 219.594 48.7632 219.249C48.7156 218.905 48.5567 218.589 48.3131 218.354Z" fill="white"/>
<path d="M170.383 365.811C170.188 365.199 169.889 364.628 169.502 364.127L169.045 363.784C168.83 363.593 168.6 363.421 168.359 363.269C167.905 362.96 167.392 362.76 166.857 362.685L166.236 362.376C166.131 362.154 165.974 361.965 165.779 361.826C165.332 361.571 164.861 361.363 164.375 361.208C162.858 360.247 161.145 359.682 159.378 359.559C159.083 359.573 158.798 359.681 158.562 359.868C158.397 359.774 158.243 359.658 158.105 359.525C157.884 359.319 157.599 359.206 157.305 359.206C157.01 359.206 156.725 359.319 156.504 359.525C156.302 359.753 156.19 360.054 156.19 360.366C156.19 360.678 156.302 360.979 156.504 361.208C157.095 361.89 157.852 362.389 158.692 362.651C159.996 363.662 161.487 364.376 163.068 364.746L163.591 364.918H163.885C164.365 365.118 164.834 365.347 165.289 365.605C166.204 365.998 167.012 366.623 167.64 367.425C168.653 368.73 170.971 367.322 170.383 365.811Z" fill="white"/>
<path d="M106.051 407.649C105.915 406.975 105.684 406.327 105.365 405.725C105.18 405.4 104.973 405.09 104.744 404.798C104.744 404.248 104.548 403.664 104.483 403.149V403.596C104.462 403.211 104.362 402.836 104.189 402.496L104.418 403.012C104.404 402.886 104.404 402.759 104.418 402.634C104.321 402.195 104.086 401.804 103.751 401.524C103.416 401.244 103.001 401.092 102.573 401.092C102.145 401.092 101.729 401.244 101.394 401.524C101.059 401.804 100.824 402.195 100.728 402.634C100.712 402.771 100.712 402.909 100.728 403.046C100.728 403.046 100.728 403.321 100.728 403.458V403.046C100.353 403.329 100.069 403.724 99.9113 404.179C99.7163 404.968 99.7163 405.795 99.9113 406.584C99.9615 406.829 100.027 407.07 100.107 407.305C100.228 407.729 100.403 408.134 100.63 408.507C101.074 409.227 101.652 409.847 102.328 410.328C102.56 410.715 102.859 411.053 103.21 411.324C103.502 411.484 103.827 411.567 104.157 411.567C104.486 411.567 104.811 411.484 105.104 411.324C105.409 411.212 105.683 411.022 105.899 410.77C106.116 410.517 106.269 410.212 106.345 409.881C106.375 409.125 106.276 408.368 106.051 407.649Z" fill="white"/>
<path d="M113.59 379.83C113.319 379.231 112.873 378.737 112.317 378.422C111.749 378.115 111.126 377.939 110.488 377.907C110.131 377.852 109.768 377.852 109.41 377.907H109.214H108.594C108.337 377.751 108.039 377.687 107.745 377.724C107.451 377.761 107.176 377.898 106.961 378.113C106.765 378.344 106.641 378.632 106.606 378.939C106.571 379.246 106.627 379.557 106.765 379.83C106.912 380.008 107.076 380.169 107.255 380.311C107.512 380.587 107.824 380.798 108.169 380.93C108.823 381.846 109.567 382.686 110.39 383.437C110.705 383.76 111.126 383.944 111.566 383.952C112.007 383.951 112.43 383.766 112.741 383.437C112.948 383.196 113.084 382.898 113.133 382.578C113.273 382.516 113.398 382.422 113.499 382.303C113.601 382.184 113.676 382.044 113.721 381.891C113.934 381.213 113.887 380.473 113.59 379.83Z" fill="white"/>
<path d="M54.5842 486.023C54.5842 485.522 54.395 485.041 54.0582 484.687C53.7213 484.332 53.2645 484.133 52.7881 484.133C52.3118 484.133 51.8549 484.332 51.5181 484.687C51.1812 485.041 50.992 485.522 50.992 486.023C50.992 486.4 50.992 486.778 50.992 487.156V487.671C50.8086 488.314 50.5905 488.944 50.3389 489.56C49.7213 490.956 49.4302 492.487 49.4898 494.026C49.4827 494.363 49.5685 494.696 49.7369 494.983C49.9053 495.271 50.149 495.501 50.4389 495.646C50.7287 495.791 51.0522 495.845 51.3705 495.802C51.6888 495.758 51.9883 495.618 52.2329 495.4C52.4348 495.515 52.6572 495.585 52.8861 495.606C53.2581 495.565 53.6103 495.41 53.8985 495.159C54.2429 494.559 54.5066 493.912 54.6822 493.236C54.5842 490.66 54.5189 488.255 54.5842 486.023Z" fill="white"/>
<path d="M45.5411 449.549C45.3154 449.244 45.0089 449.016 44.6602 448.894C44.3115 448.771 43.9363 448.76 43.5817 448.862C42.9662 449.037 42.3818 449.315 41.8509 449.687C41.2039 450.128 40.5823 450.61 39.9894 451.129C39.4343 451.576 38.9444 452.022 38.4546 452.503C37.9647 452.984 37.7361 453.327 37.3442 453.705C37.0412 453.91 36.7937 454.194 36.6258 454.53C36.3908 454.972 36.2988 455.482 36.3636 455.984C36.4284 456.486 36.6465 456.952 36.985 457.312C37.256 457.578 37.5794 457.777 37.9321 457.896C38.2106 457.977 38.502 457.998 38.7884 457.956C39.0748 457.915 39.3501 457.813 39.5976 457.655L40.0547 457.312L40.4466 456.968C40.6023 456.82 40.7346 456.646 40.8385 456.453C41.2799 456.409 41.7051 456.256 42.0794 456.007C42.6506 455.67 43.1595 455.228 43.5817 454.701C44.3512 453.756 45.0603 452.757 45.7043 451.713C45.879 451.374 45.9565 450.99 45.9275 450.606C45.8985 450.222 45.7643 449.855 45.5411 449.549Z" fill="white"/>
<path d="M84.3337 455.592L83.9418 455.077C83.9194 455.01 83.9194 454.937 83.9418 454.87V454.699C83.9418 454.699 83.9418 454.458 83.9418 454.699C83.9877 454.379 83.9302 454.052 83.7785 453.771C83.5957 453.466 83.3192 453.236 82.9948 453.119C82.7598 453.05 82.5113 453.05 82.2763 453.119C82.1083 452.639 81.8405 452.205 81.4926 451.848C81.1392 451.518 80.6903 451.325 80.2189 451.298C79.8369 451.31 79.4694 451.455 79.1739 451.71C78.9687 451.886 78.8015 452.105 78.6832 452.354C78.565 452.603 78.4985 452.875 78.4882 453.153C78.4882 453.153 78.4882 453.153 78.4882 453.325C78.4723 453.404 78.4723 453.486 78.4882 453.565C78.4703 453.69 78.4703 453.818 78.4882 453.943C78.529 454.075 78.5838 454.202 78.6514 454.321C79.0433 455.317 79.3699 456.347 79.8597 457.309C80.1325 457.856 80.4851 458.354 80.9047 458.786C81.2067 459.046 81.523 459.287 81.8518 459.508L82.0803 459.782C82.267 459.976 82.4945 460.12 82.7441 460.204C82.9938 460.287 83.2587 460.308 83.5172 460.263C83.7768 460.228 84.0258 460.133 84.2461 459.985C84.4663 459.836 84.6524 459.638 84.7908 459.404C85.1237 458.804 85.2592 458.106 85.1766 457.417C85.0939 456.727 84.7977 456.086 84.3337 455.592Z" fill="white"/>
<path d="M127.311 78.2318C127.195 77.9315 127.003 77.6703 126.756 77.4761L125.254 76.4113L124.339 75.7586C124.124 75.43 123.872 75.1301 123.588 74.8656C123.362 74.6306 123.057 74.4989 122.739 74.4989C122.421 74.4989 122.116 74.6306 121.89 74.8656C121.784 75.0136 121.696 75.1752 121.629 75.3465C121.437 75.3954 121.258 75.4893 121.106 75.6213C120.915 75.8196 120.78 76.069 120.714 76.3426C120.567 76.7283 120.567 77.159 120.714 77.5448L120.976 77.8539C121.287 78.2387 121.65 78.5743 122.053 78.8501L122.706 79.1592L122.935 79.3309C123.547 79.7621 124.192 80.1411 124.862 80.4644C125.255 80.6731 125.705 80.7338 126.135 80.6362C126.233 80.6535 126.332 80.6535 126.429 80.6362C126.692 80.6283 126.946 80.5349 127.157 80.3688C127.367 80.2027 127.524 79.9722 127.605 79.7088C127.707 79.4609 127.734 79.1856 127.681 78.9211C127.629 78.6565 127.499 78.4156 127.311 78.2318Z" fill="white"/>
<path d="M58.8257 107.377C58.7662 106.356 58.4989 105.36 58.0419 104.457C58.0572 104.24 58.0572 104.022 58.0419 103.805C58.0419 103.805 58.0419 103.805 58.0419 103.633C57.9442 102.746 57.7242 101.878 57.3888 101.057C56.9665 99.9518 56.3071 98.9644 55.4621 98.1716C55.39 98.0445 55.289 97.9383 55.1682 97.8625C54.8865 97.6954 54.5683 97.6083 54.2449 97.6099C53.9215 97.6115 53.6042 97.7017 53.324 97.8715C53.0438 98.0414 52.8106 98.2851 52.6472 98.5786C52.4838 98.8722 52.396 99.2054 52.3923 99.5455C52.6316 101.468 53.1378 103.342 53.8946 105.11C54.2175 105.979 54.5882 106.828 55.0049 107.652C55.0049 107.858 55.0049 108.064 55.2661 108.236V108.717C55.2661 108.717 55.2661 109.095 55.2661 109.163C55.2617 109.422 55.3068 109.678 55.3988 109.918C55.4908 110.158 55.6277 110.375 55.8015 110.558C55.9752 110.741 56.1822 110.885 56.41 110.982C56.6379 111.078 56.8819 111.126 57.1275 111.121C57.6186 111.112 58.0872 110.903 58.4345 110.538C58.7817 110.173 58.9806 109.68 58.989 109.163C58.984 108.564 58.9294 107.966 58.8257 107.377Z" fill="white"/>
<path d="M115.453 128.973C115.519 128.691 115.519 128.396 115.453 128.114C115.375 127.67 115.232 127.241 115.028 126.843C114.758 125.629 114.116 124.543 113.199 123.752C112.944 123.322 112.611 122.949 112.22 122.653C111.999 122.535 111.748 122.498 111.505 122.548C111.263 122.598 111.043 122.731 110.881 122.927C110.724 123.125 110.638 123.374 110.638 123.632C110.638 123.889 110.724 124.138 110.881 124.336V124.542C110.881 124.542 110.881 124.542 110.881 124.748C110.881 124.954 110.881 124.954 110.881 125.057V125.366C110.881 125.091 110.881 125.16 110.881 125.366C110.853 126.572 111.147 127.762 111.73 128.801C111.934 129.159 112.204 129.471 112.523 129.718C112.843 129.966 113.206 130.144 113.591 130.244L114.016 130.415H114.244L115.093 130.896C115.193 130.952 115.306 130.977 115.419 130.967C115.532 130.957 115.639 130.913 115.729 130.841C115.818 130.768 115.886 130.67 115.924 130.558C115.962 130.446 115.968 130.325 115.943 130.209C115.865 129.765 115.698 129.343 115.453 128.973Z" fill="white"/>
<path d="M123.359 117.668C119.846 117.262 116.323 118.336 113.562 120.657C113.346 120.889 113.208 121.188 113.167 121.51C113.126 121.832 113.184 122.159 113.333 122.443C113.485 122.733 113.726 122.96 114.018 123.085C114.309 123.21 114.632 123.226 114.933 123.13H115.26L115.946 122.821C116.479 122.855 117.013 122.855 117.546 122.821C118.068 122.748 118.582 122.621 119.081 122.443L119.963 122.065L120.583 121.756C120.809 121.719 121.028 121.65 121.236 121.55C121.453 121.423 121.617 121.214 121.693 120.966H123.196C123.568 120.966 123.925 120.81 124.188 120.533C124.452 120.256 124.6 119.88 124.6 119.489C124.637 119.283 124.634 119.071 124.591 118.867C124.549 118.662 124.467 118.469 124.351 118.299C124.234 118.128 124.087 117.985 123.916 117.876C123.746 117.768 123.556 117.697 123.359 117.668Z" fill="white"/>
<path d="M401.98 226.665V226.013C401.97 225.758 401.906 225.508 401.793 225.283C401.68 225.057 401.521 224.86 401.327 224.708C401.068 224.487 400.745 224.366 400.412 224.364C400.076 224.379 399.754 224.512 399.498 224.742C399.297 224.88 399.132 225.068 399.018 225.29C398.904 225.512 398.844 225.76 398.845 226.013C398.678 226.157 398.541 226.334 398.44 226.535C398.339 226.735 398.277 226.955 398.257 227.181C398.196 228.088 398.307 228.998 398.583 229.86C398.583 230.203 398.779 230.512 398.845 230.822C398.827 230.947 398.827 231.074 398.845 231.199V231.818C398.856 232.055 398.914 232.288 399.015 232.501C399.116 232.714 399.258 232.902 399.433 233.054C399.691 233.307 400.027 233.453 400.38 233.467C400.38 233.467 400.576 233.467 400.706 233.467H401.098H401.294C401.644 233.153 401.866 232.71 401.915 232.23C401.898 232.116 401.898 232 401.915 231.886V231.612C401.897 231.417 401.897 231.222 401.915 231.028C401.915 230.478 401.915 229.963 401.915 229.448V228.142C402.061 227.665 402.083 227.155 401.98 226.665Z" fill="white"/>
<path d="M382.882 222.848C382.896 222.757 382.896 222.664 382.882 222.573C382.915 222.426 382.915 222.273 382.882 222.127C382.75 221.906 382.584 221.709 382.392 221.543L382.066 221.268C381.869 221.169 381.66 221.099 381.445 221.062H380.988C380.772 221.094 380.562 221.163 380.368 221.268C380.165 221.39 379.987 221.554 379.845 221.749C379.748 221.867 379.68 222.008 379.649 222.161C379.66 222.241 379.66 222.322 379.649 222.401C379.649 222.401 379.323 222.608 379.225 222.745C379.061 223.026 378.93 223.325 378.833 223.638V223.81C378.754 223.964 378.688 224.124 378.637 224.291C378.553 224.583 378.487 224.882 378.441 225.184C378.441 225.355 378.441 225.527 378.441 225.699C378.378 225.935 378.378 226.184 378.441 226.42C378.52 226.657 378.655 226.87 378.833 227.039L379.192 227.313C379.39 227.444 379.613 227.526 379.845 227.554H380.335C380.567 227.526 380.79 227.444 380.988 227.313C381.324 227.079 381.585 226.744 381.739 226.352C381.963 225.878 382.214 225.419 382.49 224.978C382.682 224.619 382.835 224.238 382.947 223.844C382.963 223.719 382.963 223.592 382.947 223.466C382.981 223.32 382.981 223.167 382.947 223.02L382.882 222.848Z" fill="white"/>
<path d="M363.346 244.141C363.766 243.71 364.031 243.14 364.097 242.527C364.089 242.196 363.958 241.881 363.732 241.65C363.506 241.419 363.204 241.29 362.889 241.29C362.171 241.29 361.485 241.977 360.995 242.458L359.95 243.592C359.623 243.97 359.264 244.382 358.905 244.725C358.546 245.069 358.154 245.481 357.762 245.859C357.479 246.202 357.324 246.641 357.324 247.095C357.324 247.55 357.479 247.988 357.762 248.332C358.019 248.705 358.398 248.965 358.827 249.06C359.255 249.155 359.702 249.079 360.081 248.847L361.485 247.885C361.85 247.637 362.189 247.35 362.497 247.027L362.987 246.374C363.171 246.079 363.263 245.731 363.248 245.378C363.264 245.252 363.264 245.125 363.248 245V244.657C363.404 244.38 363.578 244.116 363.771 243.867L363.346 244.141Z" fill="white"/>
<path d="M358.383 197.763C358.259 196.792 358.085 195.829 357.86 194.878L357.664 193.573C357.641 193.184 357.641 192.794 357.664 192.405C357.632 191.821 357.632 191.236 357.664 190.653C357.646 190.371 357.562 190.098 357.42 189.858C357.277 189.619 357.081 189.42 356.848 189.279C356.848 188.695 356.554 188.145 356.456 187.562C356.358 186.978 354.725 186.565 354.595 187.562C354.458 188.702 354.458 189.856 354.595 190.996C354.545 191.969 354.545 192.944 354.595 193.916C354.56 195.251 354.876 196.571 355.509 197.729C355.689 198.353 355.788 199 355.803 199.652C355.803 200.062 355.958 200.455 356.233 200.745C356.509 201.035 356.883 201.198 357.273 201.198C357.662 201.198 358.036 201.035 358.312 200.745C358.587 200.455 358.742 200.062 358.742 199.652C358.699 199.009 358.579 198.374 358.383 197.763Z" fill="white"/>
<path d="M341.73 195.636C341.62 195.398 341.448 195.198 341.234 195.058C341.021 194.918 340.774 194.844 340.522 194.846C340.718 194.846 340.522 194.846 340.522 194.846H340.196L339.477 194.605H339.151L338.432 194.193L336.832 193.3L336.114 192.888L335.526 192.613C335.526 192.613 335.069 192.441 335.33 192.613C335.157 192.581 334.98 192.581 334.807 192.613L333.795 191.788C333.636 191.7 333.459 191.656 333.279 191.661C333.1 191.665 332.925 191.718 332.77 191.815C332.616 191.912 332.488 192.049 332.399 192.212C332.309 192.376 332.262 192.561 332.26 192.75C332.048 192.596 331.807 192.492 331.554 192.445C331.3 192.397 331.04 192.408 330.791 192.475C329.321 192.785 329.19 194.399 329.158 195.67C329.125 196.941 329.158 199.105 328.994 200.651C328.976 201.057 329.079 201.459 329.289 201.801C329.498 202.143 329.803 202.408 330.163 202.56C330.522 202.711 330.917 202.74 331.293 202.644C331.669 202.549 332.007 202.332 332.26 202.024C332.485 201.761 332.682 201.473 332.848 201.166C333.032 200.94 333.156 200.668 333.207 200.376C333.414 199.721 333.535 199.039 333.566 198.349C333.566 197.422 333.566 196.494 333.566 195.533C333.358 195.303 333.205 195.024 333.119 194.719C333.034 194.414 333.019 194.093 333.077 193.781L333.697 194.433C333.793 194.728 333.992 194.973 334.252 195.12L334.742 195.498C334.853 195.633 334.973 195.759 335.101 195.876C336.067 196.83 337.285 197.453 338.595 197.662C338.714 197.682 338.836 197.682 338.955 197.662C339.314 197.662 339.64 197.834 340 197.868C340.322 197.925 340.652 197.908 340.967 197.819C341.283 197.73 341.576 197.571 341.828 197.353C341.945 197.243 342.037 197.106 342.097 196.953C342.157 196.8 342.183 196.635 342.173 196.469C342.164 196.304 342.119 196.144 342.043 195.999C341.966 195.855 341.859 195.731 341.73 195.636Z" fill="white"/>
<path d="M295.362 234.974C295.315 234.845 295.24 234.728 295.144 234.633C295.048 234.538 294.933 234.467 294.807 234.424C294.725 234.227 294.603 234.051 294.448 233.909C294.2 233.68 293.911 233.505 293.599 233.394C293.349 233.316 293.086 233.294 292.827 233.329C292.568 233.365 292.319 233.457 292.097 233.6C291.206 234.088 290.537 234.929 290.235 235.936C290.039 236.417 289.909 236.898 289.745 237.378C289.451 237.562 289.214 237.833 289.063 238.156C288.913 238.479 288.854 238.842 288.896 239.199C288.704 239.63 288.593 240.097 288.57 240.573V241.122C288.628 241.381 288.752 241.619 288.929 241.809C289.183 242.167 289.537 242.431 289.941 242.565C290.36 242.67 290.8 242.633 291.199 242.46C291.597 242.288 291.934 241.988 292.162 241.603L292.521 241.054C292.535 240.917 292.535 240.779 292.521 240.642C292.783 240.28 293.023 239.901 293.24 239.508C293.597 238.801 293.903 238.066 294.154 237.31C294.317 236.892 294.514 236.49 294.742 236.108H294.938C295.118 235.995 295.257 235.822 295.334 235.617C295.411 235.412 295.421 235.186 295.362 234.974Z" fill="white"/>
<path d="M296.371 201.544C295.261 201.304 294.151 200.926 293.106 200.617C292.463 200.43 291.808 200.292 291.146 200.205H290.264C289.957 200.187 289.651 200.253 289.376 200.398C289.101 200.542 288.867 200.76 288.697 201.029C288.659 201.199 288.659 201.375 288.697 201.544C288.359 201.594 288.051 201.772 287.828 202.044C287.606 202.315 287.485 202.663 287.489 203.021C287.497 203.429 287.654 203.817 287.928 204.105C288.202 204.393 288.571 204.558 288.958 204.567C290.166 204.567 291.375 204.567 292.583 204.567H296.175C296.542 204.57 296.897 204.432 297.174 204.179C297.45 203.926 297.63 203.576 297.677 203.193C297.697 202.796 297.573 202.405 297.331 202.1C297.089 201.794 296.746 201.596 296.371 201.544Z" fill="white"/>
<path d="M299.993 210.689C300.132 210.511 300.207 210.288 300.207 210.058C300.207 209.829 300.132 209.606 299.993 209.428C299.855 209.25 299.662 209.128 299.448 209.082C299.234 209.037 299.011 209.07 298.818 209.178H298.622H298.295C297.933 209.114 297.561 209.195 297.253 209.404C296.945 209.614 296.723 209.938 296.63 210.311C296.63 210.311 296.63 210.586 296.63 210.724C296.581 211.1 296.581 211.481 296.63 211.857C296.63 212.235 296.63 212.613 296.63 212.956C296.368 214.09 295.552 215.155 296.336 216.391C296.459 216.593 296.622 216.765 296.813 216.895C297.005 217.026 297.221 217.111 297.446 217.147C297.664 217.175 297.885 217.153 298.094 217.082C298.302 217.01 298.494 216.892 298.654 216.735C298.768 216.65 298.868 216.545 298.948 216.425C299.138 216.3 299.296 216.128 299.41 215.925C299.523 215.722 299.589 215.493 299.601 215.258V214.811C299.764 214.357 299.873 213.884 299.928 213.403C299.994 212.718 299.994 212.027 299.928 211.342V211.033L299.993 210.689Z" fill="white"/>
<path d="M349.079 165.357C349.079 165.357 349.237 165.257 349.079 165.357V165.357Z" fill="white"/>
<path d="M351.33 162.13C350.63 161.976 349.907 161.976 349.207 162.13L348.554 162.405C348.222 162.213 347.842 162.137 347.467 162.186C347.091 162.235 346.74 162.408 346.464 162.679L346.17 162.885L345.484 163.298H345.321H345.125L344.341 163.572C343.982 163.676 343.659 163.889 343.414 164.184C343.169 164.479 343.012 164.844 342.963 165.233C342.914 165.622 342.976 166.017 343.139 166.369C343.303 166.722 343.562 167.015 343.884 167.213C344.331 167.44 344.837 167.501 345.321 167.385C345.462 167.405 345.604 167.405 345.745 167.385L346.137 167.213C346.608 167.124 347.062 166.95 347.476 166.698C347.891 166.454 348.258 166.128 348.554 165.736L349.109 165.29L349.827 164.74L350.187 164.534H350.35L351.232 164.259C351.45 164.204 351.644 164.072 351.781 163.884C351.918 163.697 351.989 163.465 351.983 163.229C352.004 162.996 351.952 162.761 351.834 162.563C351.715 162.364 351.538 162.212 351.33 162.13Z" fill="white"/>
<path d="M342.844 107.684C342.652 107.537 342.427 107.443 342.191 107.409C341.883 107.309 341.553 107.309 341.244 107.409C340.526 107.798 339.918 108.379 339.481 109.093C339.19 109.459 338.928 109.85 338.697 110.26H338.338C338.109 110.298 337.89 110.388 337.698 110.524C337.506 110.661 337.345 110.841 337.227 111.05C337.138 111.227 337.061 111.411 336.999 111.6C336.772 112.078 336.703 112.622 336.803 113.146C336.883 113.503 337.003 113.849 337.162 114.176C337.295 114.418 337.479 114.624 337.7 114.779C337.921 114.934 338.172 115.033 338.436 115.069C338.671 115.186 338.927 115.246 339.187 115.246C339.446 115.246 339.703 115.186 339.938 115.069C340.005 114.969 340.081 114.877 340.166 114.794C341.024 114.177 341.73 113.352 342.224 112.39C342.738 111.458 343.175 110.481 343.53 109.47C343.612 109.202 343.612 108.914 343.53 108.646C343.49 108.442 343.408 108.251 343.29 108.084C343.171 107.918 343.019 107.781 342.844 107.684Z" fill="white"/>
<path d="M377.949 56.9751C378.071 56.6525 378.12 56.3045 378.091 55.9587C378.063 55.6128 377.959 55.2787 377.786 54.9828C377.636 54.7702 377.417 54.6219 377.171 54.5651C376.925 54.5083 376.668 54.5469 376.447 54.6737C376.229 54.6728 376.015 54.732 375.827 54.8455C375.715 54.7323 375.595 54.6289 375.467 54.5363C375.186 54.3678 374.859 54.3019 374.538 54.3488C374.217 54.3957 373.92 54.5528 373.693 54.7957C373.466 55.0386 373.321 55.3536 373.282 55.6919C373.243 56.0301 373.31 56.3726 373.475 56.666L373.737 57.0781C373.726 57.1579 373.726 57.2388 373.737 57.3186V57.5247V57.7308C373.726 57.8679 373.726 58.0058 373.737 58.1429C373.722 58.2914 373.722 58.441 373.737 58.5895C373.702 59.5682 373.835 60.5455 374.128 61.4748C374.218 61.6674 374.34 61.8419 374.488 61.99C374.487 62.8807 374.585 63.7684 374.782 64.6349C374.887 65.0554 375.018 65.4683 375.173 65.8714C375.39 66.4063 375.754 66.8608 376.218 67.1767C376.872 67.7263 377.721 66.9706 377.753 66.2493C377.819 65.7824 377.819 65.3079 377.753 64.841C377.719 64.5329 377.719 64.2217 377.753 63.9136C377.704 63.0785 377.704 62.2411 377.753 61.4061C377.772 61.2924 377.772 61.1763 377.753 61.0626V60.8908C378.052 59.6101 378.118 58.2817 377.949 56.9751Z" fill="white"/>
<path d="M396.233 77.0731C396.099 76.6377 395.865 76.2437 395.551 75.9262C395.238 75.6086 394.855 75.3773 394.436 75.2526C394.018 75.1637 393.586 75.1763 393.173 75.2893C392.76 75.4024 392.377 75.6131 392.053 75.9052C391.18 76.5829 390.456 77.4497 389.93 78.447C389.701 78.8592 389.538 79.2714 389.342 79.6836L388.918 80.7141V81.0232C388.82 81.3708 388.82 81.7404 388.918 82.088C389.036 82.5088 389.276 82.8807 389.603 83.1528C389.937 83.435 390.351 83.5921 390.779 83.5993C391.296 83.5916 391.789 83.3694 392.15 82.9811C392.343 82.7516 392.508 82.4978 392.64 82.2254L392.836 81.8476L393.62 81.2637C393.917 81.1615 394.202 81.0231 394.469 80.8514C394.835 80.6304 395.174 80.3653 395.482 80.0614C395.806 79.7542 396.081 79.3948 396.298 78.9966C396.486 78.3665 396.463 77.6875 396.233 77.0731Z" fill="white"/>
<path d="M398.52 133.155C398.151 132.919 397.727 132.793 397.295 132.793C396.863 132.793 396.439 132.919 396.07 133.155C395.86 133.308 395.663 133.481 395.483 133.671C395.156 133.654 394.831 133.732 394.544 133.895C394.256 134.059 394.016 134.302 393.85 134.598C393.458 135.216 393.066 135.835 392.707 136.453C392.348 137.071 392.348 137.346 392.152 137.827C392.056 138.012 391.979 138.208 391.923 138.411C391.91 138.536 391.91 138.663 391.923 138.789C391.858 139.028 391.839 139.278 391.867 139.525C391.894 139.772 391.967 140.01 392.083 140.227C392.198 140.444 392.353 140.635 392.538 140.789C392.724 140.943 392.936 141.057 393.164 141.124C393.428 141.196 393.703 141.202 393.97 141.142C394.236 141.082 394.486 140.959 394.699 140.781C394.699 140.781 394.927 140.781 395.025 140.781C395.298 140.568 395.55 140.326 395.777 140.06C395.92 139.87 396.04 139.662 396.136 139.441C396.348 139.008 396.534 138.56 396.691 138.102C396.952 137.415 397.148 136.762 397.377 136.075C397.412 135.894 397.412 135.707 397.377 135.525L397.605 135.285H397.801C398.07 135.385 398.365 135.369 398.622 135.24C398.88 135.111 399.078 134.88 399.173 134.598C399.268 134.316 399.253 134.005 399.13 133.734C399.008 133.464 398.788 133.256 398.52 133.155Z" fill="white"/>
<path d="M392.184 193.246C392.184 192.731 392.184 192.215 392.184 191.666C392.167 191.449 392.167 191.23 392.184 191.013C392.298 190.704 392.298 190.361 392.184 190.052C392.184 190.052 392.184 190.052 392.184 189.845C392.154 189.552 392.089 189.263 391.988 188.987C392.005 188.769 392.005 188.551 391.988 188.334C391.989 187.957 391.848 187.595 391.598 187.326C391.348 187.056 391.008 186.9 390.65 186.891C390.288 186.9 389.944 187.055 389.689 187.324C389.433 187.592 389.286 187.954 389.278 188.334C389.278 189.193 389.278 190.017 389.278 190.876C389.229 191.757 389.229 192.64 389.278 193.521C389.295 193.852 389.403 194.171 389.588 194.439C389.773 194.707 390.029 194.913 390.323 195.032C390.417 195.262 390.571 195.458 390.768 195.598C390.965 195.738 391.196 195.816 391.433 195.822C391.768 195.813 392.088 195.669 392.325 195.42C392.562 195.171 392.699 194.835 392.707 194.482C392.602 194.042 392.425 193.623 392.184 193.246Z" fill="white"/>
<path d="M290.656 529.724C290.6 529.5 290.502 529.291 290.368 529.108C290.233 528.925 290.065 528.772 289.872 528.66C289.472 528.434 289.007 528.372 288.566 528.488C288.328 528.549 288.097 528.641 287.88 528.763C287.749 528.822 287.628 528.903 287.521 529.003C287.086 529.317 286.671 529.661 286.28 530.033L285.79 530.514C285.457 530.634 285.155 530.834 284.909 531.098C284.74 531.326 284.608 531.581 284.517 531.854C284.139 532.222 283.819 532.651 283.57 533.125C283.538 533.307 283.538 533.493 283.57 533.674C283.59 534.048 283.715 534.406 283.929 534.705C284.135 534.974 284.415 535.169 284.732 535.261C285.048 535.354 285.384 535.339 285.692 535.22C285.822 535.172 285.943 535.103 286.052 535.014C286.254 535.072 286.465 535.086 286.672 535.057C286.88 535.027 287.08 534.954 287.26 534.842C288.058 534.328 288.812 533.742 289.513 533.091C289.912 532.712 290.253 532.272 290.526 531.785C290.692 531.511 290.813 531.209 290.885 530.892C290.881 530.491 290.804 530.094 290.656 529.724Z" fill="white"/>
<path d="M236.544 546.786C236.544 545.48 236.316 544.209 236.283 542.939C236.269 542.574 236.143 542.225 235.924 541.942C235.849 541.704 235.704 541.496 235.511 541.348C235.318 541.2 235.085 541.12 234.846 541.118C234.633 541.123 234.427 541.194 234.252 541.323C234.078 541.451 233.944 541.631 233.866 541.839C233.72 541.977 233.603 542.147 233.524 542.337C233.445 542.526 233.406 542.732 233.409 542.939C233.409 544.003 233.409 545.103 233.409 546.202C233.378 546.739 233.378 547.278 233.409 547.816C233.409 547.816 233.409 547.988 233.409 548.057C233.409 548.125 233.409 548.915 233.409 549.327C233.394 549.395 233.394 549.466 233.409 549.534C233.263 549.681 233.157 549.866 233.102 550.07C233.046 550.275 233.043 550.491 233.093 550.697C233.143 550.903 233.244 551.091 233.385 551.243C233.527 551.395 233.704 551.504 233.899 551.56C234.163 551.654 234.437 551.712 234.715 551.732C234.953 551.723 235.184 551.653 235.39 551.527C235.595 551.401 235.767 551.224 235.891 551.011C236.516 549.706 236.744 548.231 236.544 546.786Z" fill="white"/>
<path d="M206.045 603.958C205.959 603.71 205.815 603.49 205.627 603.316C205.438 603.142 205.212 603.02 204.967 602.962C204.551 602.842 204.111 602.842 203.694 602.962C203.357 603.069 203.029 603.207 202.714 603.374C202.194 603.673 201.693 604.006 201.212 604.37C200.787 604.679 200.395 605.022 200.004 605.366C199.107 605.693 198.307 606.261 197.685 607.015C197.527 607.175 197.402 607.367 197.318 607.579C197.234 607.792 197.192 608.021 197.195 608.251C197.179 608.642 197.308 609.023 197.554 609.316C197.799 609.644 198.145 609.872 198.533 609.96C198.921 610.048 199.325 609.99 199.677 609.797H200.069C200.366 609.87 200.676 609.853 200.965 609.75C201.253 609.647 201.509 609.461 201.702 609.213C201.891 608.942 202.005 608.621 202.028 608.286C203.595 607.89 204.968 606.899 205.882 605.503C206.016 605.274 206.1 605.017 206.128 604.75C206.156 604.482 206.128 604.212 206.045 603.958Z" fill="white"/>
<path d="M278.147 590.148C278.199 590.012 278.197 589.859 278.142 589.724C278.087 589.589 277.983 589.482 277.853 589.427C277.723 589.373 277.578 589.374 277.449 589.432C277.321 589.49 277.219 589.6 277.167 589.736C276.942 589.523 276.653 589.402 276.351 589.393H275.926H275.73C275.476 589.4 275.226 589.473 275.005 589.605C274.783 589.737 274.595 589.923 274.457 590.148C273.942 590.975 273.67 591.943 273.673 592.931C273.673 593.412 273.673 593.893 273.673 594.373C273.691 594.499 273.691 594.626 273.673 594.751C273.54 595.049 273.387 595.336 273.216 595.61C273.226 595.701 273.226 595.793 273.216 595.885C272.884 596.09 272.613 596.387 272.432 596.743C272.272 597.048 272.188 597.391 272.188 597.74C272.188 598.088 272.272 598.431 272.432 598.736C272.555 598.958 272.725 599.148 272.929 599.291C273.133 599.434 273.366 599.525 273.609 599.558C273.852 599.591 274.099 599.565 274.331 599.482C274.563 599.399 274.773 599.261 274.947 599.079C275.238 598.823 275.491 598.522 275.698 598.186C275.877 598.025 276.002 597.809 276.057 597.568C276.314 597.096 276.533 596.602 276.71 596.091C277.339 595.3 277.796 594.374 278.049 593.377C278.212 592.585 278.212 591.765 278.049 590.973C277.886 590.801 278.049 590.492 278.147 590.148Z" fill="white"/>
<path d="M283.962 476.965H283.08C283.001 476.723 282.872 476.503 282.703 476.319C282.534 476.135 282.328 475.992 282.101 475.901L281.154 475.729C280.856 475.559 280.53 475.454 280.194 475.419C279.857 475.383 279.518 475.419 279.194 475.523C277.561 475.523 275.929 475.798 274.296 475.798C273.923 475.815 273.571 475.981 273.31 476.261C273.049 476.542 272.9 476.917 272.892 477.309C272.892 477.704 273.038 478.083 273.301 478.366C273.563 478.648 273.92 478.811 274.296 478.82H275.014C275.569 480.744 277.986 480.95 279.586 480.847C281.204 480.718 282.809 480.454 284.387 480.057C284.73 479.947 285.025 479.711 285.217 479.392C285.409 479.074 285.487 478.693 285.435 478.319C285.384 477.946 285.207 477.604 284.937 477.356C284.667 477.107 284.321 476.969 283.962 476.965Z" fill="white"/>
<path d="M382.685 499.359C381.919 498.471 380.953 497.798 379.877 497.401L379.256 496.955H378.897C378.745 496.843 378.58 496.751 378.407 496.68L378.015 496.439C377.517 496.059 376.951 495.79 376.35 495.649C376.102 495.597 375.847 495.597 375.599 495.649C375.397 495.586 375.183 495.579 374.977 495.627C374.772 495.675 374.581 495.777 374.423 495.924C374.226 496.147 374.101 496.43 374.065 496.732C374.03 497.035 374.087 497.341 374.227 497.607C374.713 498.374 375.442 498.934 376.285 499.187H376.481L377.101 499.497C377.321 499.677 377.563 499.827 377.82 499.943L378.473 500.184L378.897 500.561C379.555 501.136 380.293 501.599 381.085 501.935C381.413 502.048 381.768 502.039 382.09 501.91C382.412 501.78 382.682 501.538 382.855 501.224C383.027 500.909 383.091 500.542 383.037 500.184C382.982 499.826 382.812 499.498 382.555 499.256L382.685 499.359Z" fill="white"/>
<path d="M404.92 443.203C404.915 442.171 404.668 441.156 404.202 440.249C404.057 440.011 403.852 439.82 403.609 439.699C403.367 439.577 403.097 439.53 402.83 439.562C402.565 439.597 402.315 439.714 402.112 439.897C401.909 440.08 401.762 440.322 401.687 440.592C401.378 441.528 401.159 442.495 401.034 443.477V443.89C401.034 444.336 401.034 444.336 401.034 444.783C401.034 445.401 401.034 445.985 401.034 446.569C401.034 446.864 401.117 447.153 401.275 447.398C401.432 447.643 401.655 447.833 401.916 447.943C402.169 448.072 402.456 448.112 402.732 448.056C403.009 448 403.261 447.852 403.451 447.634C403.833 447.173 404.122 446.635 404.3 446.054C404.385 445.822 404.44 445.579 404.463 445.332C404.578 445.222 404.677 445.095 404.757 444.954C404.909 444.385 404.965 443.792 404.92 443.203Z" fill="white"/>
<path d="M367.728 527.869C367.812 527.45 367.866 527.025 367.891 526.598C367.94 525.981 367.94 525.36 367.891 524.743C367.891 524.365 367.891 523.987 367.891 523.61V522.991C367.891 522.572 367.733 522.17 367.451 521.874C367.169 521.578 366.787 521.411 366.389 521.411C365.99 521.411 365.608 521.578 365.326 521.874C365.045 522.17 364.887 522.572 364.887 522.991C364.887 524.125 364.887 525.258 364.887 526.426C364.784 527.569 364.784 528.719 364.887 529.861V530.101C364.916 530.473 365.072 530.821 365.326 531.082C365.58 531.342 365.915 531.497 366.269 531.518C366.623 531.539 366.972 531.424 367.252 531.196C367.532 530.967 367.724 530.639 367.793 530.273V529.998C367.852 529.288 367.83 528.573 367.728 527.869Z" fill="white"/>
<path d="M396.203 546.838C396.152 546.666 396.067 546.507 395.955 546.371C395.843 546.235 395.705 546.125 395.55 546.048C395.284 545.963 394.999 545.963 394.733 546.048C394.473 546.096 394.233 546.228 394.048 546.426C393.744 546.856 393.481 547.316 393.264 547.8C393.093 548.003 392.94 548.221 392.807 548.453L392.023 549.208C391.918 549.353 391.846 549.521 391.812 549.7C391.778 549.878 391.783 550.063 391.827 550.239L391.631 550.548C391.402 550.857 391.174 551.132 390.978 551.441C390.78 551.76 390.626 552.107 390.521 552.471C390.462 552.756 390.487 553.053 390.592 553.323C390.697 553.593 390.877 553.823 391.108 553.983C391.349 554.112 391.622 554.162 391.89 554.125C392.158 554.088 392.409 553.967 392.611 553.777L392.905 553.399V553.227C392.905 553.227 392.904 553.227 393.068 553.227C393.231 553.227 393.558 552.574 393.786 552.265C394.015 551.956 394.08 551.819 394.243 551.578L394.472 551.235C394.864 550.685 395.288 550.136 395.648 549.552C396.031 548.892 396.276 548.155 396.366 547.388C396.343 547.196 396.288 547.01 396.203 546.838Z" fill="white"/>
<path d="M333.402 485.063C333.312 484.831 333.158 484.632 332.961 484.492C332.763 484.351 332.531 484.275 332.292 484.273C331.727 484.238 331.17 484.421 330.725 484.789L330.496 484.96H330.333C329.875 485.201 329.451 485.51 329.026 485.785H328.602C328.026 485.862 327.477 486.086 327.002 486.437C326.795 486.597 326.618 486.795 326.479 487.021C326.36 487.041 326.239 487.041 326.12 487.021C325.807 487.022 325.501 487.117 325.238 487.296C325.048 487.453 324.903 487.662 324.82 487.901C324.736 488.139 324.717 488.397 324.764 488.646C324.812 488.895 324.924 489.126 325.088 489.312C325.252 489.498 325.463 489.632 325.695 489.7C325.978 489.735 326.262 489.735 326.544 489.7C327.598 489.662 328.632 489.393 329.582 488.91C330.535 488.503 331.394 487.882 332.096 487.09C332.437 486.822 332.764 486.536 333.076 486.231C333.216 486.079 333.32 485.893 333.376 485.69C333.433 485.486 333.442 485.271 333.402 485.063Z" fill="white"/>
<path d="M344.74 478.262C344.641 477.859 344.394 477.513 344.054 477.3C343.863 477.216 343.657 477.173 343.45 477.173C343.243 477.173 343.037 477.216 342.846 477.3C342.473 477.427 342.152 477.681 341.931 478.022C341.917 478.159 341.917 478.297 341.931 478.434C341.931 478.434 341.931 478.606 341.931 478.674C341.916 478.903 341.916 479.133 341.931 479.361V478.915C341.839 479.355 341.697 479.782 341.507 480.186C341.395 480.529 341.329 480.888 341.311 481.25C341.322 481.732 341.47 482.198 341.735 482.59C341.874 482.816 342.069 482.997 342.3 483.112C342.531 483.228 342.788 483.273 343.042 483.243C343.339 483.199 343.614 483.054 343.826 482.831C344.071 482.748 344.287 482.588 344.444 482.374C344.601 482.159 344.693 481.899 344.707 481.628V480.77C344.889 480.38 344.987 479.954 344.993 479.52C344.998 479.086 344.912 478.656 344.74 478.262Z" fill="white"/>
<path d="M301.467 441.373C301.252 441.322 301.029 441.322 300.814 441.373C300.763 441.346 300.707 441.332 300.651 441.332C300.594 441.332 300.538 441.346 300.487 441.373H299.703C299.723 441.294 299.723 441.211 299.703 441.132C299.657 440.82 299.507 440.534 299.28 440.327C299.053 440.119 298.763 440.003 298.463 439.999C297.65 439.979 296.842 440.119 296.079 440.411L295.328 440.617H294.838H294.217C293.905 440.617 293.606 440.747 293.386 440.979C293.165 441.211 293.042 441.526 293.042 441.854C293.042 442.182 293.165 442.496 293.386 442.728C293.606 442.96 293.905 443.09 294.217 443.09H294.838H295.001C296.215 443.208 297.438 443.007 298.56 442.506H300.063V442.85L299.703 443.605C299.169 444.345 298.8 445.202 298.626 446.113C298.607 446.296 298.607 446.48 298.626 446.663C298.604 446.843 298.645 447.026 298.741 447.177C298.837 447.329 298.982 447.439 299.148 447.487V447.693C298.73 448.45 298.558 449.331 298.658 450.201C298.7 450.359 298.771 450.508 298.868 450.638C298.964 450.767 299.085 450.875 299.222 450.955C299.358 451.035 299.509 451.085 299.665 451.103C299.82 451.121 299.978 451.106 300.128 451.059C300.37 450.975 300.581 450.814 300.733 450.599C300.885 450.384 300.97 450.125 300.977 449.857C300.995 449.778 300.995 449.696 300.977 449.617C300.977 449.617 300.977 449.617 300.977 449.41C300.977 449.204 300.977 449.101 300.977 449.41C300.977 449.72 300.977 449.41 300.977 449.41V449.204L301.173 448.827C301.5 448.229 301.763 447.596 301.957 446.937C302.38 445.622 302.579 444.238 302.545 442.85C302.583 442.676 302.585 442.496 302.549 442.322C302.514 442.148 302.442 441.984 302.339 441.843C302.236 441.701 302.104 441.586 301.953 441.504C301.802 441.423 301.636 441.378 301.467 441.373Z" fill="white"/>
<path d="M319.166 435.527H319.003V435.115C318.987 434.829 318.872 434.559 318.68 434.356C318.487 434.153 318.23 434.032 317.958 434.016C317.683 434.025 317.422 434.143 317.228 434.347C317.034 434.552 316.921 434.826 316.913 435.115C316.932 436.166 316.833 437.215 316.619 438.241C316.619 438.653 316.619 439.065 316.456 439.512C316.422 439.739 316.422 439.971 316.456 440.199C316.456 440.748 316.456 441.264 316.456 441.779C316.464 442.092 316.589 442.389 316.802 442.607C317.015 442.825 317.301 442.947 317.599 442.947C317.891 442.938 318.168 442.812 318.375 442.595C318.581 442.378 318.701 442.086 318.709 441.779C318.709 441.195 318.709 440.611 318.709 440.027V439.203V438.859L318.905 438.206C318.905 437.829 318.905 437.451 318.905 437.073L319.068 436.833C319.068 436.833 319.232 436.833 319.068 436.833C319.233 436.846 319.396 436.791 319.521 436.678C319.647 436.565 319.725 436.405 319.738 436.231C319.751 436.058 319.698 435.887 319.591 435.755C319.484 435.623 319.331 435.541 319.166 435.527Z" fill="white"/>
<path d="M268.449 444.495C268.321 444.367 268.152 444.295 267.975 444.295C267.799 444.295 267.63 444.367 267.502 444.495C267.137 444.762 266.755 445.003 266.359 445.216H266.196L265.771 445.491C265.136 445.91 264.525 446.368 263.942 446.865H263.746L263.42 447.105L262.603 447.827C262.333 448.051 262.11 448.332 261.947 448.651C261.784 448.97 261.685 449.321 261.656 449.682C261.628 449.829 261.628 449.981 261.656 450.128C261.608 450.315 261.615 450.513 261.675 450.696C261.736 450.88 261.847 451.039 261.996 451.154C262.144 451.269 262.322 451.335 262.506 451.342C262.69 451.348 262.872 451.297 263.028 451.193C263.511 450.881 263.942 450.486 264.302 450.025C264.757 449.714 265.174 449.345 265.543 448.926C266.294 448.17 266.914 447.277 267.665 446.487C267.767 446.361 267.841 446.212 267.881 446.051C267.92 445.89 267.925 445.722 267.894 445.56L268.416 445.113C268.47 445.021 268.501 444.916 268.507 444.808C268.513 444.7 268.493 444.593 268.449 444.495Z" fill="white"/>
<path d="M365.015 421.012C365.137 420.884 365.224 420.724 365.265 420.548C365.307 420.372 365.302 420.188 365.252 420.015C365.202 419.842 365.107 419.687 364.979 419.566C364.851 419.445 364.694 419.363 364.526 419.329C364.526 419.329 364.526 419.088 364.526 418.985C364.526 418.882 364.526 418.676 364.526 418.539C364.526 418.202 364.398 417.878 364.172 417.64C363.945 417.402 363.638 417.268 363.317 417.268C362.997 417.268 362.689 417.402 362.463 417.64C362.236 417.878 362.109 418.202 362.109 418.539C362.109 418.539 362.109 418.745 362.109 418.539V418.813C362.059 419.097 362.059 419.388 362.109 419.672C362.109 420.084 362.109 420.496 362.109 420.943C362.109 421.389 362.109 422.626 362.109 423.485C362.109 424.344 362.109 425.134 362.109 425.958C362.148 426.277 362.148 426.6 362.109 426.92C361.986 427.368 361.909 427.828 361.88 428.294C361.89 428.512 361.949 428.726 362.051 428.916C362.153 429.107 362.296 429.27 362.468 429.393C362.658 429.504 362.871 429.563 363.089 429.563C363.306 429.563 363.519 429.504 363.709 429.393C364.418 428.693 364.878 427.76 365.015 426.748C365.223 425.778 365.332 424.788 365.342 423.794C365.358 423.646 365.358 423.496 365.342 423.347C365.342 423.347 365.342 423.141 365.342 423.038C365.342 422.935 365.342 422.695 365.342 422.489C365.325 422.203 365.325 421.916 365.342 421.63C365.162 421.475 365.046 421.254 365.015 421.012Z" fill="white"/>
<path d="M333.406 376.116C333.263 375.768 333.007 375.485 332.685 375.315C332.362 375.146 331.993 375.101 331.643 375.189C331.11 375.353 330.587 375.548 330.075 375.773C329.765 375.855 329.459 375.958 329.161 376.082L327.789 376.7H327.561H327.104C326.21 376.986 325.354 377.39 324.556 377.902C324.143 377.911 323.749 378.088 323.457 378.395C323.165 378.702 322.997 379.117 322.989 379.551C322.959 379.721 322.959 379.896 322.989 380.066C322.955 380.379 323.024 380.694 323.185 380.959C323.333 381.203 323.535 381.406 323.774 381.55C324.013 381.693 324.281 381.774 324.556 381.784C325.826 381.756 327.071 381.402 328.181 380.753C329.137 380.289 330.064 379.761 330.957 379.173C331.232 378.978 331.447 378.704 331.578 378.383L332.688 377.834C332.97 377.67 333.193 377.413 333.323 377.103C333.453 376.792 333.482 376.446 333.406 376.116Z" fill="white"/>
<path d="M382.977 371.751C382.663 371.572 382.295 371.525 381.949 371.621C381.603 371.717 381.305 371.948 381.115 372.267L380.822 372.645L380.495 373.125L379.809 374.087L379.515 374.534C379.251 374.784 379.011 375.06 378.797 375.358C377.74 376.163 376.87 377.208 376.25 378.415C376.171 378.545 376.106 378.683 376.054 378.827C375.918 379.243 375.936 379.696 376.103 380.098C376.27 380.501 376.575 380.822 376.957 380.999C377.339 381.176 377.77 381.196 378.165 381.055C378.561 380.913 378.891 380.621 379.091 380.236L379.548 379.583C379.648 379.46 379.758 379.345 379.875 379.24C380.299 378.724 380.756 378.278 381.181 377.797C381.703 377.173 382.163 376.494 382.552 375.77C382.944 375.083 383.173 374.293 383.565 373.641C383.716 373.307 383.739 372.924 383.63 372.573C383.52 372.221 383.286 371.927 382.977 371.751Z" fill="white"/>
<path d="M326.128 331.467C325.821 330.37 325.234 329.384 324.429 328.616C324.261 328.451 324.057 328.333 323.834 328.273C323.612 328.213 323.378 328.213 323.156 328.272C322.939 328.338 322.741 328.461 322.581 328.629C322.421 328.797 322.304 329.005 322.241 329.234C322.104 329.738 322.017 330.256 321.98 330.78C321.948 331.363 321.948 331.948 321.98 332.531C321.949 332.92 321.949 333.311 321.98 333.699C322.05 334.049 322.171 334.385 322.339 334.695C322.442 335.062 322.652 335.386 322.939 335.62C323.226 335.854 323.576 335.987 323.94 336.001C324.12 336.002 324.297 335.948 324.448 335.844C324.599 335.74 324.718 335.591 324.789 335.417C325.078 335.425 325.36 335.314 325.572 335.108C325.956 334.603 326.208 334.002 326.306 333.364C326.403 332.726 326.342 332.072 326.128 331.467Z" fill="white"/>
<path d="M309.634 535.247C309.43 534.887 309.099 534.627 308.713 534.524C308.328 534.421 307.919 534.483 307.577 534.697C306.825 535.247 306.107 535.762 305.323 536.277C304.994 536.329 304.675 536.433 304.376 536.586L303.527 537.17C303.218 537.376 302.89 537.548 302.547 537.685C302.352 537.799 302.188 537.963 302.068 538.161C301.948 538.359 301.877 538.585 301.862 538.819C301.515 538.958 301.232 539.231 301.068 539.581C300.904 539.932 300.873 540.334 300.98 540.708C301.068 541.033 301.252 541.32 301.503 541.53C301.755 541.739 302.063 541.86 302.384 541.876H303.037C304.905 541.31 306.596 540.231 307.936 538.75C308.132 538.547 308.258 538.281 308.295 537.995L309.079 537.411C309.42 537.196 309.668 536.85 309.772 536.446C309.875 536.043 309.826 535.613 309.634 535.247Z" fill="white"/>
<path d="M411.045 379C401.065 381.531 391.322 383.439 383.235 390.368C381.511 391.591 380.091 393.232 379.095 395.153C378.1 397.074 377.558 399.218 377.515 401.405C377.739 403.273 378.108 405.119 378.62 406.923C378.764 409.194 379.175 411.438 379.843 413.603C380.316 414.765 381.105 416.134 381.815 417.752C381.815 418.375 381.815 419.038 381.815 419.661C381.679 420.084 381.493 420.488 381.263 420.864C379.861 422.705 378.229 424.338 376.411 425.719C373.736 425.374 371.023 425.745 368.521 426.797C365.208 428.581 365.839 431.32 364.182 434.39C361.086 439.121 357.412 443.403 353.255 447.128C352.84 447.632 352.559 448.244 352.441 448.9C352.323 449.556 352.373 450.233 352.585 450.862C351.443 452.416 350.117 453.81 348.64 455.011C345.966 456.353 342.965 456.802 340.041 456.297C336.964 456.297 333.887 456.297 330.85 456.297C324.549 456.503 318.247 455.932 312.073 454.596C309.154 453.725 307.497 451.277 305.17 449.41C303.348 447.95 301.326 446.789 299.174 445.966C297.268 445.188 295.225 444.849 293.184 444.97C291.143 445.092 289.15 445.672 287.34 446.671C284.529 448.183 281.546 449.312 278.464 450.032C275.348 450.572 272.35 449.825 269.234 450.032C267.583 450.283 266.01 450.934 264.641 451.935C263.271 452.936 262.143 454.259 261.344 455.8C260.989 456.256 261.699 456.712 262.054 456.38C264.357 453.808 267.469 452.202 270.812 451.858C273.454 451.858 275.979 452.356 278.701 451.858C282.642 450.765 286.505 449.379 290.259 447.709C297.793 445.468 302.369 450.987 307.458 455.634C310.622 457.812 314.205 459.229 317.95 459.783C323.097 461.236 328.4 461.989 333.729 462.023C338.653 462.711 343.65 462.543 348.522 461.525C351.275 460.299 353.544 458.117 354.952 455.343C354.874 456.031 354.742 456.711 354.557 457.376C354.305 458.166 354.094 458.969 353.926 459.783C352.742 460.915 351.847 462.342 351.322 463.932C350.81 467.695 350.89 471.522 351.559 475.259C351.796 479.989 351.559 484.719 351.875 489.449C352.214 491.391 352.359 493.366 352.309 495.34C351.796 497.83 350.06 498.245 348.364 498.411C348.628 498.122 348.965 497.918 349.335 497.822C349.705 497.727 350.093 497.744 350.455 497.871C350.731 497.871 350.849 497.498 350.455 497.415C349.153 497.125 349.271 497.415 348.167 497.705C346.194 498.286 344.222 498.452 342.053 499.033C338.049 500.333 334.229 502.189 330.692 504.551L329.824 505.132C327.983 506.382 326.23 507.769 324.577 509.281C323.58 510 322.631 510.79 321.737 511.646C320.391 513.388 318.884 514.986 317.24 516.418C313.532 518.783 307.339 517.746 303.197 517.248C299.055 516.75 295.032 514.966 290.85 514.343C286.652 513.939 282.42 514.462 278.425 515.878C274.915 516.8 271.464 517.95 268.09 519.322C264.543 521.634 261.238 524.332 258.228 527.372C254.836 529.902 250.575 530.815 247.656 534.134C246.477 535.59 245.495 537.209 244.737 538.947C243.104 542.02 240.381 544.287 237.163 545.254C233.448 547.348 229.887 549.733 226.513 552.391C223.515 554.216 219.57 553.718 217.164 556.54C217.059 556.65 217 556.799 217 556.955C217 557.11 217.059 557.259 217.164 557.369C217.268 557.48 217.41 557.541 217.558 557.541C217.706 557.541 217.848 557.48 217.953 557.369C220.596 554.963 225.053 555.461 228.051 553.22C229.826 551.976 231.404 550.44 233.179 549.071C235.461 547.694 237.866 546.555 240.359 545.669C243.022 544.513 245.167 542.331 246.354 539.57C249.116 534.134 252.626 532.682 257.4 529.944C261.147 527.786 263.553 523.969 267.222 521.646C271.75 519.334 276.553 517.674 281.502 516.708C291.008 514.302 300.357 519.198 309.982 519.447C312.232 519.619 314.492 519.352 316.649 518.658C315.602 520.418 314.692 522.264 313.927 524.177C313.198 526.473 312.956 528.908 313.217 531.313C313.23 533.895 312.965 536.47 312.428 538.989C311.678 543.138 312.152 551.436 308.286 553.013C306.55 553.843 304.539 554.382 302.724 555.129C300.909 555.876 299.253 555.917 297.557 556.457C294.125 557.535 292.902 561.809 290.535 564.257C290.141 564.672 290.732 565.253 291.166 564.879C292.336 563.643 293.344 562.247 294.164 560.73C294.845 559.421 295.837 558.321 297.044 557.535C297.872 557.121 298.385 557.328 299.174 557.121C302.852 555.649 306.621 554.443 310.456 553.511C310.577 553.505 310.693 553.457 310.786 553.374C310.878 553.292 310.943 553.179 310.968 553.054C312.073 546.997 313.73 541.064 314.479 534.923C314.391 531.442 314.682 527.962 315.347 524.55C316.428 521.743 317.846 519.094 319.568 516.667C322.053 514.634 324.301 511.812 326.668 509.779C328.297 508.066 330.081 506.524 331.994 505.174C334.075 504.199 336.225 503.395 338.423 502.767C340.415 501.829 342.457 501.012 344.538 500.319C346.602 499.989 348.683 499.781 350.77 499.697C357.516 498.577 354.991 488.245 355.109 483.101C355.109 478.951 355.109 474.802 355.109 470.653C355.109 464.969 358.265 462.977 361.342 458.911C364.295 454.248 367.592 449.836 371.204 445.717L372.703 444.348C371.163 447.03 369.767 449.801 368.521 452.646C367.456 456.131 369.231 458.579 369.744 461.94C370.391 468.113 372.86 473.917 376.805 478.537C377.566 479.198 378.29 479.905 378.975 480.653C379.603 481.773 380.014 483.014 380.184 484.304C380.353 485.593 380.277 486.904 379.961 488.162C379.218 492.278 378.692 496.433 378.383 500.61C378.186 509.613 378.383 518.7 378.62 527.703C378.62 531.853 378.62 536.002 378.62 540.151C378.438 542.595 377.529 544.918 376.02 546.787C374.512 548.657 372.481 549.979 370.217 550.565C366.47 552.1 362.999 552.888 359.685 554.714C359.656 554.679 359.619 554.65 359.578 554.631C359.538 554.612 359.493 554.602 359.449 554.602C359.404 554.602 359.359 554.612 359.319 554.631C359.278 554.65 359.241 554.679 359.212 554.714L358.896 555.129C357.747 555.789 356.664 556.567 355.662 557.452C350.691 561.602 346.431 567.991 339.883 569.9C336.879 570.213 334.001 571.327 331.52 573.136C328.562 575.625 325.682 577.908 322.526 580.065C318.582 582.928 313.611 586.413 313.059 591.931C313.059 592.637 314.006 592.595 314.085 591.931C314.913 584.671 323.355 581.434 328.246 577.659C331.006 574.867 334.34 572.78 337.99 571.559C340.815 570.99 343.5 569.818 345.879 568.116C349.824 565.294 352.94 561.353 356.687 558.241C355.44 560.27 354.61 562.551 354.25 564.937C353.89 567.324 354.008 569.763 354.597 572.099C355.021 573.522 355.549 574.909 356.174 576.248C356.786 577.831 356.786 579.602 356.174 581.185C354.996 584.426 353.361 587.461 351.322 590.189C351.086 590.521 351.599 590.853 351.835 590.521C354.715 586.579 359.093 581.061 356.766 575.833C355.096 572.557 354.421 568.82 354.833 565.128C355.331 562.212 356.466 559.457 358.147 557.079C358.502 556.83 358.817 556.498 359.172 556.291C364.656 552.722 371.322 552.93 376.45 548.449C380.395 544.881 379.843 540.69 379.843 535.504C379.843 526.542 380.04 517.538 379.843 508.535C379.513 503.539 379.659 498.521 380.277 493.556C380.992 489.969 381.336 486.31 381.302 482.644C381.302 477.582 377.357 474.346 375.78 469.575C374.675 465.674 374.123 461.733 373.176 457.833C372.722 456.529 372.6 455.124 372.821 453.756C373.043 452.388 373.6 451.104 374.438 450.032C375.229 448.61 375.814 447.072 376.174 445.468C377.042 441.693 379.29 439.95 380.829 436.755C381.065 436.465 381.342 436.216 381.618 435.925C384.18 433.357 385.752 429.886 386.036 426.175C386.055 425.968 386.055 425.759 386.036 425.553C386.8 424.682 387.426 423.687 387.89 422.607C390.651 415.885 386.154 408.002 390.927 401.861C395.7 395.721 407.14 393.563 414.082 391.115C415.213 390.374 416.089 389.272 416.581 387.97C417.073 386.667 417.155 385.233 416.815 383.878C416.475 382.523 415.732 381.318 414.693 380.44C413.655 379.562 412.376 379.057 411.045 379ZM374.123 437.709C371.204 440.406 367.969 442.813 365.208 445.717L364.024 447.128L364.655 446.049C367.93 440.199 373.728 436.548 378.58 432.191L380.395 430.656C378.688 433.355 376.569 435.738 374.123 437.709Z" fill="#202147"/>
<path d="M306.923 -9.50821C306.847 -10.4237 306.572 -11.3086 306.12 -12.0952C305.669 -12.8818 305.051 -13.549 304.316 -14.0457C303.581 -14.5425 302.748 -14.8555 301.88 -14.9607C301.012 -15.066 300.133 -14.9608 299.309 -14.6531C296.725 -13.3328 294.62 -11.1625 293.314 -8.47094C292.722 -7.76298 292.194 -6.99905 291.736 -6.18892C290.235 -3.03372 288.562 0.0278282 286.726 2.98056C284.754 5.80194 282.781 8.62336 280.848 11.5692C280.138 12.1501 279.468 12.7725 278.758 13.2704C274.813 16.0918 272.959 20.0749 269.369 23.0622C266.165 25.3527 263.317 28.152 260.928 31.3605C255.547 33.0395 250.553 35.864 246.253 39.6586C243.68 42.1253 240.38 43.5897 236.905 43.8078C234.134 43.8485 231.368 44.0562 228.621 44.4301C224.203 44.7205 219.942 41.4842 215.879 39.8661C213.046 38.5464 210.15 37.3831 207.201 36.3808C204.475 35.9315 201.711 35.7925 198.957 35.966C195.564 35.966 192.842 34.1403 189.568 33.8499C184.795 33.4765 181.403 37.4181 177.734 39.9905C175.131 41.7746 172.093 42.2725 169.49 44.1396C167.009 46.4417 164.282 48.4328 161.364 50.0729C160.891 50.0729 161.048 51.1931 161.601 51.0687C165.9 50.1974 168.583 45.7163 172.567 43.9322C174.81 43.1049 176.965 42.0342 178.997 40.7374C181.215 38.7147 183.716 37.0633 186.413 35.8414C189.161 35.2983 192.002 35.7212 194.499 37.0447C197.272 37.5902 200.081 37.9092 202.901 37.999C209.489 38.9118 216.195 43.3098 222.112 46.2972C226.964 48.7866 231.934 47.9154 237.023 49.2431C239.112 49.6162 241.253 49.505 243.297 48.9173C245.341 48.3297 247.239 47.2797 248.857 45.8408C252.289 43.5173 255.168 40.8618 258.561 38.8288C258.212 41.9073 258.279 45.0223 258.758 48.0813C259.969 53.7118 259.183 59.6134 256.549 64.6777C253.748 70.279 251.303 76.0878 248.384 81.6061C247.058 83.7786 245.581 85.8449 243.966 87.7882C242.904 89.7623 242.208 91.9306 241.914 94.1778C241.914 94.8832 241.48 95.63 241.244 96.3353C239.771 98.855 238.542 101.524 237.575 104.302L237.338 105.048C236.705 105.919 235.865 106.6 234.903 107.022C233.94 107.444 232.89 107.594 231.855 107.455C224.021 107.286 216.229 108.694 208.897 111.604C208.345 111.314 207.753 111.065 207.201 110.733C200.303 107.291 192.818 105.344 185.19 105.007C177.813 104.136 174.736 107.662 170.792 113.803C170.306 114.923 169.606 115.926 168.736 116.749C167.866 117.572 166.844 118.198 165.733 118.587C164.623 118.977 163.448 119.121 162.283 119.012C161.117 118.902 159.985 118.542 158.958 117.952C155.535 116.841 152 116.158 148.425 115.919C148.299 115.954 148.188 116.032 148.108 116.141C148.028 116.25 147.985 116.383 147.985 116.521C147.985 116.658 148.028 116.792 148.108 116.9C148.188 117.009 148.299 117.087 148.425 117.122C151.714 117.987 154.933 119.125 158.05 120.525C160.101 121.757 162.398 122.467 164.756 122.599C169.45 122.35 172.212 118.45 174.579 114.301C175.384 112.508 176.674 111.004 178.288 109.978C179.902 108.952 181.767 108.45 183.651 108.534C187.023 108.889 190.37 109.471 193.671 110.276C197.248 110.614 200.758 111.509 204.085 112.932L204.558 113.222L201.363 114.384C197.473 115.252 193.917 117.317 191.146 120.317C190.307 121.622 189.593 123.012 189.016 124.466C187.526 127.171 185.62 129.596 183.375 131.644C179.628 135.793 179.667 141.602 173.908 143.843C168.149 146.083 162.074 143.843 156.433 143.428C151.089 142.893 145.701 143.131 140.418 144.133C137.718 145.079 135.082 146.215 132.528 147.535C130.319 148.448 127.952 148.158 125.704 148.863C122.509 149.859 119.629 151.311 116.276 152.016C113.924 152.384 111.646 153.155 109.531 154.298C104.697 156.89 100.158 160.05 96.0005 163.717C99.9597 160.694 104.171 158.055 108.584 155.833C113.475 152.929 119.392 152.722 124.639 150.772C127.006 149.859 129.333 150.066 131.739 149.402C133.7 148.62 135.623 147.734 137.499 146.747C143.547 144.931 149.895 144.493 156.117 145.461C164.007 145.876 174.026 149.859 180.141 142.307C181.218 140.823 182.07 139.171 182.665 137.411C184.068 134.823 185.945 132.552 188.188 130.731C191.265 127.703 193.119 122.973 196.945 121.064C201.595 119.063 206.435 117.588 211.382 116.666H211.619C217.77 118.573 224.195 119.318 230.593 118.865C232.408 118.962 234.213 118.533 235.813 117.626C237.413 116.719 238.745 115.368 239.666 113.72C239.666 114.176 239.429 114.55 239.35 115.006C238.167 121.52 239.35 131.105 234.932 136.25C233.031 138.257 231.302 140.437 229.765 142.764C227.984 145.467 225.545 147.616 222.704 148.987C218.492 151.731 215.186 155.773 213.236 160.563C213.189 160.688 213.184 160.826 213.223 160.954C213.261 161.082 213.341 161.193 213.448 161.266C213.554 161.339 213.682 161.371 213.809 161.357C213.936 161.342 214.054 161.282 214.144 161.186C215.936 158.581 217.886 156.1 219.982 153.759C222.013 151.92 224.285 150.397 226.727 149.236C228.88 147.78 230.656 145.784 231.895 143.428C233.552 140.689 236.037 138.864 237.694 136.208C240.889 131.063 240.297 123.47 241.046 117.579C241.796 111.687 244.991 106.459 246.293 100.982C247.63 99.1453 249.291 97.5958 251.184 96.4183C254.103 94.6757 256.707 92.4767 259.587 90.6511C261.761 89.4481 263.526 87.5629 264.636 85.2572C267.003 79.7389 264.636 74.2206 264.636 68.6608C264.598 68.1915 264.598 67.7195 264.636 67.2501C264.962 67.5742 265.362 67.8054 265.797 67.9219C266.233 68.0384 266.689 68.0364 267.123 67.916C267.557 67.7956 267.955 67.5608 268.279 67.2337C268.603 66.9067 268.843 66.4983 268.975 66.0469C270.119 62.8106 269.566 59.4913 270.868 56.421C272.235 53.1146 273.956 49.9826 275.996 47.0855C280.374 40.628 284.04 33.6682 286.923 26.34C290.551 19.1522 294.623 12.2222 299.112 5.59451C300.185 2.99827 301.725 0.645233 303.649 -1.33448C304.78 -2.31868 305.669 -3.57585 306.239 -4.999C306.809 -6.42215 307.043 -7.96913 306.923 -9.50821ZM220.14 114.591H219.232C222.999 113.389 226.945 112.939 230.869 113.264C231.776 113.264 232.605 113.513 233.354 113.554C229.765 115.795 223.493 115.089 220.14 114.591ZM253.354 86.0456C253.709 85.5062 254.025 84.9668 254.34 84.4274C256.589 80.5273 258.482 76.4197 260.533 72.3951C260.468 74.4439 260.244 76.4838 259.863 78.4942C258.798 82.6018 256.115 84.137 253.157 86.0456H253.354ZM265.898 41.0278C265.952 39.4869 266.334 37.9784 267.017 36.6139C267.7 35.2493 268.666 34.0637 269.843 33.1445C270.513 32.8956 270.711 32.5637 270.671 33.4765C269.054 36.1734 267.476 38.4968 265.701 41.0278H265.898Z" fill="#202147"/>
</svg>
