<svg width="154" height="165" viewBox="0 0 154 165" fill="none" xmlns="http://www.w3.org/2000/svg">
<path d="M152.393 93.9342C152.548 94.4469 152.589 94.9856 152.512 95.5089C152.436 96.0322 152.244 96.5262 151.952 96.9531C151.66 97.38 151.275 97.7283 150.827 97.9714C150.379 98.2145 149.88 98.3459 149.367 98.3555C147.683 98.1935 146.076 97.4678 144.791 96.2884C144.319 96.0313 143.869 95.7303 143.447 95.3892C141.956 94 140.393 92.6984 138.765 91.4909C137.091 90.3837 135.417 89.2766 133.737 88.0935C133.228 87.9307 132.731 87.7369 132.239 87.6191C129.496 86.9347 127.637 85.1723 125.05 84.3217C122.821 83.7666 120.677 82.8591 118.694 81.6314C115.417 81.874 112.103 81.4129 108.959 80.2767C107.035 79.4908 104.932 79.4039 103.001 80.0306C101.49 80.6022 99.9455 81.0823 98.3755 81.4685C95.9176 82.2578 94.3012 84.9257 92.4449 86.6738C91.1915 87.9966 89.8701 89.2482 88.4862 90.4235C87.1044 91.2514 85.6354 91.9191 84.1048 92.4154C82.2653 93.1424 81.1807 94.7157 79.4676 95.5748C76.9596 96.8002 74.2753 95.39 71.7348 94.7814C69.9408 94.3719 68.1871 94.7529 66.3753 94.2985C64.5366 93.582 62.6312 93.0868 60.6975 92.8228C60.4409 92.9243 60.2863 92.283 60.6125 92.2322C63.1306 91.7831 65.5454 93.638 68.0881 93.7515C69.4816 93.7195 70.8795 93.8382 72.2592 94.1059C73.8956 94.7272 75.6058 95.0865 77.3297 95.1713C78.9362 94.8768 80.3863 94.0385 81.4566 92.7857C82.8434 91.8956 84.2982 91.1206 85.808 90.4676C89.1844 88.5608 91.878 84.7389 94.4461 81.851C96.5435 79.4613 99.4252 78.8685 101.9 77.058C102.953 76.408 104.138 76.0094 105.372 75.8899C106.606 75.7705 107.86 75.9332 109.046 76.3666C111.405 76.891 113.535 77.7137 115.81 78.0891C114.962 76.4945 114.33 74.7912 113.934 73.0298C113.384 69.7174 111.693 66.6857 109.18 64.5042C106.461 62.0672 103.89 59.4417 101.124 57.0751C99.9397 56.1812 98.6962 55.3773 97.4037 54.6698C96.4047 53.827 95.5626 52.8005 94.922 51.6448C94.7708 51.2623 94.3755 50.9504 94.096 50.6187C92.7573 49.5681 91.519 48.3844 90.3996 47.0853L90.1111 46.7311C89.5809 46.3948 88.9796 46.2058 88.3673 46.183C87.7551 46.1602 87.1534 46.3045 86.6223 46.6013C82.4106 48.3719 77.8834 49.2784 73.2845 49.2718C73.0473 49.5476 72.7799 49.8094 72.5516 50.1078C69.549 53.4524 65.9075 56.1124 61.8435 57.9297C58.0305 59.9831 55.6062 58.7302 52.1513 56.246C51.6479 55.7427 51.0536 55.3489 50.4053 55.0891C49.757 54.8293 49.0687 54.709 48.3832 54.7359C47.6978 54.7628 47.0299 54.9362 46.4212 55.2453C45.8125 55.5544 45.276 55.9925 44.8453 56.5324C43.2278 57.8686 41.4572 58.9963 39.5701 59.892C39.4942 59.9 39.4169 59.8816 39.3504 59.8397C39.2839 59.7977 39.2319 59.7346 39.2025 59.6601C39.1731 59.5857 39.1679 59.5041 39.1877 59.428C39.2076 59.3519 39.2514 59.2857 39.3122 59.2396C40.9101 58.0658 42.4114 56.7592 43.8021 55.332C44.6502 54.2244 45.7431 53.3471 46.9936 52.77C49.5923 51.8989 51.9254 53.4219 54.098 55.1644C54.919 55.9642 55.9408 56.5031 57.0358 56.7135C58.1307 56.9238 59.2499 56.7964 60.2535 56.3472C62.0057 55.4321 63.6957 54.3993 65.3129 53.255C67.1802 52.3052 68.8914 51.0678 70.3905 49.5833L70.5849 49.3243L68.6034 49.3792C66.3083 49.7423 63.9373 49.3846 61.7921 48.3516C61.0571 47.824 60.3723 47.2233 59.7478 46.5584C58.3604 45.4113 56.807 44.5046 55.1508 43.8752C52.2297 42.4285 51.0062 39.2704 47.4032 39.2898C43.8002 39.3092 40.9864 41.826 38.0167 43.2599C35.2335 44.6949 32.2608 45.721 29.1815 46.3098C27.515 46.3756 25.8421 46.3241 24.1745 46.1558C22.7811 46.1342 21.5599 46.799 20.1896 46.8984C18.2437 47.0432 16.3711 46.873 14.4018 47.2091C13.0477 47.5135 11.6469 47.5838 10.2551 47.4174C7.07862 47.0479 3.94029 46.3074 0.900139 45.2101C3.69472 46.0006 6.54396 46.5287 9.4128 46.7878C12.6875 47.3144 15.9404 46.1587 19.2031 46.0918C20.682 46.0795 21.8995 45.4682 23.3465 45.3125C24.5776 45.3164 25.8098 45.385 27.0384 45.518C30.7074 45.2061 34.2431 44.0835 37.4098 42.2252C41.5987 40.3094 46.178 36.0023 51.1117 38.7865C52.014 39.3607 52.8298 40.0737 53.5299 40.9002C54.8453 42.0033 56.3497 42.8322 57.956 43.3387C60.2734 44.3217 62.2924 46.489 64.7762 46.7039C67.7267 46.7924 70.6669 46.5546 73.5473 45.9945L73.6756 45.9438C76.6023 43.5914 79.9261 41.8109 83.4925 40.685C84.4559 40.2437 85.5267 40.0891 86.5884 40.2381C87.6502 40.3872 88.6623 40.8341 89.5147 41.5303C89.4169 41.2828 89.2085 41.1311 89.0679 40.9005C87.0302 37.622 85.6178 32.1714 82.1195 30.3286C80.6584 29.6477 79.2536 28.8364 77.9215 27.9039C76.3768 26.8199 74.5937 26.177 72.759 26.0425C69.8872 25.4576 67.2285 23.9743 65.1447 21.7946C65.0922 21.7372 65.06 21.6634 65.0534 21.5857C65.0468 21.508 65.0663 21.4312 65.1086 21.3685C65.1509 21.3058 65.2133 21.261 65.2853 21.2417C65.3572 21.2224 65.4343 21.2298 65.5033 21.2627C67.0333 22.2913 68.6224 23.2185 70.2605 24.0386C71.7561 24.6006 73.3143 24.9396 74.8874 25.0452C76.367 25.3735 77.7576 26.0753 78.9343 27.0874C80.4195 28.2172 82.1583 28.6745 83.6257 29.7593C86.4609 31.8642 87.7672 36.1081 89.4363 39.1421C91.1054 42.1762 93.9583 44.3261 95.8379 47.0168C96.9567 47.7263 98.1892 48.2106 99.4683 48.4433C101.425 48.7626 103.308 49.397 105.26 49.7697C106.697 49.956 108.058 50.6 109.154 51.6123C111.62 54.0972 111.519 57.5967 112.711 60.6113C112.791 60.874 112.892 61.1299 113.013 61.3763C113.121 61.1305 113.288 60.9195 113.499 60.763C113.71 60.6066 113.958 60.51 114.219 60.4822C114.48 60.4544 114.746 60.4964 114.992 60.6043C115.238 60.7122 115.455 60.8823 115.624 61.0987C116.938 62.6084 117.35 64.5266 118.713 65.9124C120.163 67.4123 121.767 68.7418 123.495 69.8754C127.252 72.4386 130.732 75.4268 133.866 78.7824C137.373 81.9023 141.066 84.7874 144.921 87.419C146.059 88.5969 147.399 89.5426 148.866 90.2038C149.69 90.495 150.441 90.9863 151.056 91.6358C151.67 92.2853 152.128 93.0738 152.393 93.9342ZM78.7403 45.2426L78.2483 45.437C80.5481 45.2816 82.7847 44.6799 84.8427 43.663C85.3346 43.4686 85.7305 43.156 86.128 42.9729C83.7014 42.5274 80.4516 44.254 78.7403 45.2426ZM102.868 53.6027C103.176 53.8191 103.463 54.0439 103.749 54.2687C105.804 55.9016 107.711 57.7231 109.686 59.4658C109.212 58.3688 108.653 57.3108 108.015 56.3023C106.558 54.3033 104.774 54.0458 102.761 53.645L102.868 53.6027ZM119.317 75.3242C119.677 76.1482 120.208 76.8842 120.87 77.4777C121.533 78.0713 122.311 78.5072 123.146 78.7534C123.563 78.7446 123.741 78.8824 123.524 78.3959C122.069 77.2801 120.715 76.3585 119.21 75.3665L119.317 75.3242Z" fill="#EEDAAE"/>
<path d="M57.9709 101.682C57.9709 101.4 57.9709 101.131 57.9709 100.849C57.9709 100.284 57.9709 99.719 57.9709 99.1676C57.9837 99.0208 57.9726 98.8721 57.9383 98.7312C57.904 98.5904 57.8473 98.4606 57.7719 98.3504C57.6965 98.2402 57.6041 98.152 57.5008 98.0916C57.3974 98.0312 57.2855 98 57.1723 98C57.0591 98 56.9471 98.0312 56.8438 98.0916C56.7404 98.152 56.6481 98.2402 56.5727 98.3504C56.4973 98.4606 56.4406 98.5904 56.4063 98.7312C56.372 98.8721 56.3609 99.0208 56.3737 99.1676C56.3737 99.4231 56.3737 99.6786 56.3737 99.9341C56.3737 100.19 56.3737 100.163 56.3221 100.27C56.2202 100.766 56.1683 101.277 56.1676 101.79C56.1676 101.884 56.1676 101.978 56.1676 102.072C56.1676 102.167 56.1676 102.18 56.1676 102.261C56.0587 102.456 56 102.692 56 102.933C56 103.175 56.0587 103.41 56.1676 103.606C56.2186 103.735 56.2984 103.842 56.3966 103.912C56.4948 103.981 56.6067 104.011 56.7179 103.996C56.8291 103.982 56.9344 103.924 57.02 103.83C57.1056 103.737 57.1677 103.611 57.198 103.471C57.3706 103.464 57.5371 103.386 57.6739 103.248C57.8108 103.111 57.911 102.92 57.9606 102.705C58.0094 102.367 58.0129 102.021 57.9709 101.682Z" fill="white"/>
<path d="M44.8801 99.7C44.7713 99.5342 44.6988 99.3429 44.5901 99.177L44.3967 98.9092L44.2155 98.6541C44.2155 98.6541 44.0826 98.4755 44.0463 98.4245C44.0101 98.3734 43.8772 98.0928 43.708 98.029C43.5369 97.9592 43.3474 97.9592 43.1763 98.029C42.9483 97.663 42.6472 97.3539 42.2943 97.1234C42.1471 97.0328 41.9778 96.9905 41.8078 97.0018C41.6378 97.0132 41.4748 97.0777 41.3397 97.1872C41.2055 97.2976 41.1044 97.4467 41.0487 97.6165C40.9929 97.7862 40.9849 97.9694 41.0255 98.1438C41.1592 98.5353 41.3378 98.9079 41.5572 99.2536C41.7384 99.5597 41.9318 99.8659 42.0888 100.185V100.287V100.427L42.1976 100.644C42.2701 100.784 42.3426 100.937 42.4272 101.078C42.526 101.258 42.6391 101.428 42.7655 101.588C42.9304 101.792 43.1562 101.932 43.4059 101.983C43.4907 102.005 43.5791 102.006 43.6642 101.985C43.7493 101.965 43.8288 101.924 43.8966 101.866C43.9644 101.808 44.0186 101.735 44.055 101.651C44.0915 101.567 44.1092 101.476 44.1067 101.384H44.2517C44.4047 101.364 44.5486 101.296 44.6648 101.189C44.7811 101.083 44.8644 100.941 44.9042 100.784C44.9713 100.612 45.0038 100.426 44.9996 100.239C44.9955 100.053 44.9548 99.8692 44.8801 99.7Z" fill="white"/>
<path d="M36.5496 73.0695C36.2937 72.9179 36.0303 72.7818 35.7606 72.6619C35.6851 72.5282 35.5795 72.4177 35.454 72.3409C35.3286 72.2641 35.1872 72.2235 35.0434 72.223H34.8856C34.7725 72.0733 34.6366 71.9461 34.484 71.8468C34.0038 71.5895 33.4653 71.4914 32.9348 71.5646L32.3753 71.2824C31.8408 70.9975 31.232 70.9254 30.654 71.0787C30.4866 71.1333 30.3369 71.239 30.2225 71.3834C30.1082 71.5278 30.0339 71.7049 30.0085 71.8938C29.9843 72.0841 30.0122 72.2781 30.0888 72.451C30.1654 72.624 30.2872 72.7683 30.4388 72.8657C31.3065 73.3731 32.2402 73.7326 33.2073 73.9316L33.3938 74.0257C34.3262 74.5273 35.818 75.5933 36.7504 74.5743C36.8446 74.4691 36.9153 74.3416 36.957 74.2017C36.9987 74.0618 37.0103 73.9132 36.9908 73.7676C36.9714 73.622 36.9215 73.4832 36.8449 73.3621C36.7684 73.241 36.6673 73.1409 36.5496 73.0695Z" fill="white"/>
<path d="M30.9902 97.5738C31.0033 97.4448 31.0033 97.315 30.9902 97.1859C31.002 97.0679 31.002 96.9493 30.9902 96.8313C30.9263 96.7027 30.8462 96.5801 30.7514 96.4656C30.694 96.38 30.614 96.3066 30.5174 96.2509C30.4208 96.1952 30.3103 96.1587 30.1942 96.1442C30.0765 96.0571 29.9267 96.0063 29.7696 96.0001C29.6533 95.9983 29.5386 96.0232 29.4381 96.0721C29.3375 96.1209 29.2549 96.1918 29.1991 96.2772C29.1558 96.3521 29.1203 96.4299 29.093 96.5099V96.6318C29.093 96.7205 29.093 96.8091 29.093 96.8978L29.1726 96.7426C29.0564 96.923 28.9971 97.1252 29.0001 97.33C29.0001 97.33 29.0001 97.4076 29.0001 97.4519C29.0001 97.729 29.0001 98.0061 29.0001 98.2831C29.0035 98.4703 29.0941 98.6491 29.2526 98.7815C29.4111 98.9139 29.6251 98.9896 29.8492 98.9924H30.0217C30.2209 99.0173 30.4242 98.9803 30.5929 98.8884C30.7617 98.7965 30.8841 98.656 30.9372 98.4937C30.9438 98.4347 30.9438 98.3753 30.9372 98.3164C30.9372 98.0615 30.9902 97.7955 30.9902 97.5738Z" fill="white"/>
<path d="M41.7378 106.183C41.6353 106.099 41.5121 106.039 41.3789 106.008C41.2857 105.997 41.1916 105.997 41.0985 106.008H40.9639H40.8517C40.7717 105.999 40.6906 106.008 40.6148 106.033C40.539 106.058 40.4704 106.099 40.4143 106.152C40.3943 106.184 40.3677 106.213 40.3358 106.235C40.2852 106.251 40.2363 106.272 40.19 106.297H39.5955C39.4914 106.297 39.3916 106.335 39.318 106.403C39.2443 106.471 39.203 106.563 39.203 106.659C39.2093 106.729 39.2409 106.794 39.2927 106.845L39.1805 106.918C39.0646 107.031 39 107.181 39 107.337C39 107.492 39.0646 107.642 39.1805 107.755C39.2654 107.865 39.3879 107.945 39.5282 107.983C39.7101 108.019 39.9 107.997 40.0666 107.921C40.3435 107.79 40.6032 107.631 40.8405 107.445L41.0088 107.352C41.1436 107.307 41.2825 107.272 41.4238 107.249H41.2443C41.4011 107.251 41.556 107.216 41.6929 107.145C41.7768 107.102 41.8481 107.041 41.9008 106.967C41.9535 106.894 41.9861 106.809 41.9958 106.721C42.0088 106.618 41.9917 106.514 41.9463 106.42C41.901 106.325 41.829 106.244 41.7378 106.183Z" fill="white"/>
<path d="M63.9532 83.8411C63.9664 83.6843 63.9664 83.5245 63.9532 83.3676C63.9532 83.1558 63.913 82.9689 63.8929 82.757V82.5203V82.4206C63.8962 82.3085 63.8962 82.1962 63.8929 82.0841C63.9093 82.0402 63.9181 81.9881 63.9181 81.9346C63.9181 81.8811 63.9093 81.8289 63.8929 81.7851C63.8877 81.5735 63.8389 81.3738 63.7566 81.2275C63.6743 81.0813 63.5648 80.9998 63.451 81C63.3332 81 63.2201 81.0862 63.1362 81.2401C63.0522 81.394 63.0042 81.6032 63.0024 81.8224C63.0024 82.1963 63.0024 82.5576 63.0024 82.9315C62.9992 83.0228 62.9992 83.1143 63.0024 83.2056V84.1651C63.0042 84.3855 63.052 84.596 63.1357 84.7519C63.2195 84.9078 63.3326 84.9968 63.451 85C63.5375 84.991 63.621 84.9388 63.6929 84.8489C63.7647 84.759 63.8223 84.6347 63.8594 84.4891C63.9233 84.3951 63.9719 84.27 64 84.1277V83.8411H63.9532Z" fill="white"/>
<path d="M66.9062 63.7868C66.9968 63.6684 67.0231 63.5271 66.9793 63.3938C66.9356 63.2605 66.8254 63.1461 66.6728 63.0754H66.508L66.1373 63.0117C65.9361 63.0007 65.7342 63.0007 65.5331 63.0117C65.3414 62.9961 65.1481 62.9961 64.9564 63.0117H64.7779C64.6598 63.0105 64.5429 63.0298 64.4359 63.0685C64.3289 63.1071 64.2346 63.1639 64.16 63.2347C64.089 63.3101 64.0419 63.3974 64.0227 63.4895C63.9906 63.5957 63.9926 63.7064 64.0285 63.8118C64.0644 63.9173 64.1331 64.0144 64.2286 64.0946C64.384 64.2083 64.5657 64.2984 64.7642 64.3601C65.0349 64.5643 65.329 64.749 65.6429 64.9121C65.7774 64.9697 65.9286 65 66.0823 65C66.2361 65 66.3873 64.9697 66.5217 64.9121C66.6536 64.8521 66.7632 64.7668 66.8402 64.6646C66.9171 64.5623 66.9587 64.4465 66.9611 64.3282C66.9595 64.1904 66.927 64.0539 66.865 63.9248L66.9062 63.7868Z" fill="white"/>
<path d="M90.9898 55.0169C90.9834 54.8362 90.9303 54.6622 90.8378 54.5185C90.7453 54.3749 90.6178 54.2684 90.4726 54.2137L90.0349 54.1034C89.8201 54.0565 89.6031 54.0249 89.3851 54.0089C89.0104 53.9797 88.6343 54.0223 88.271 54.1349C88.101 54.1997 87.9525 54.3264 87.8466 54.4972C87.7453 54.4822 87.6428 54.4822 87.5415 54.4972C87.3534 54.5633 87.1944 54.7135 87.0979 54.9163C87.0013 55.1191 86.975 55.3585 87.0243 55.5839C87.0629 55.7289 87.1318 55.8598 87.2245 55.9645C87.3173 56.0692 87.431 56.1442 87.5548 56.1824L87.9925 56.2927H87.7935C88.051 56.3367 88.3042 56.4105 88.5495 56.5132C88.7875 56.7057 89.0463 56.8594 89.3188 56.9699C89.491 57.0215 89.6725 57.0065 89.837 56.9272C90.0016 56.8479 90.1406 56.7084 90.2339 56.5289C90.3019 56.4091 90.3513 56.2757 90.3798 56.1352C90.5394 56.1234 90.6894 56.0406 90.7999 55.9035C90.9105 55.7663 90.9736 55.5848 90.9766 55.3949C91.0024 55.2713 91.0069 55.1427 90.9898 55.0169Z" fill="white"/>
<path d="M34.7387 45.6216C34.5339 45.4197 34.2681 45.2761 33.9738 45.2085H33.8765L33.6262 45.0833L33.0978 44.7703L32.625 44.4948C32.5566 44.3877 32.4552 44.3007 32.333 44.2444C31.8949 44.0235 31.4765 43.7723 31.0814 43.4932C30.8729 43.3806 30.6643 43.2679 30.4418 43.1677C30.0938 43.0104 29.6975 42.9619 29.3154 43.03C29.3154 43.03 29.232 43.03 29.1764 43.1051C28.957 43.0554 28.7251 43.0782 28.5228 43.1692C28.3204 43.2603 28.1611 43.4137 28.0736 43.6015C27.9861 43.7893 27.9763 43.9992 28.046 44.1929C28.1156 44.3867 28.2601 44.5516 28.4533 44.6576C29.2798 45.1225 30.1555 45.5125 31.0675 45.8219H31.2344L31.4291 45.9096C31.6099 45.9972 31.7906 46.0849 31.9575 46.185C32.2801 46.3769 32.6144 46.5525 32.9587 46.7109C33.5289 46.9613 34.3493 47.2117 34.7943 46.7109C34.9363 46.5553 35.0093 46.3578 34.999 46.1566C34.9888 45.9554 34.896 45.7648 34.7387 45.6216Z" fill="white"/>
<path d="M23.8428 48.3051C23.8764 48.3007 23.9081 48.2862 23.9343 48.2632C23.9605 48.2402 23.9801 48.2097 23.9908 48.1752C24.0015 48.1407 24.0029 48.1037 23.9948 48.0684C23.9867 48.0331 23.9694 48.001 23.945 47.9758C23.9571 47.8802 23.9571 47.7833 23.945 47.6877C23.9386 47.43 23.868 47.1789 23.7406 46.9605C23.7189 46.9166 23.688 46.8789 23.6503 46.8503C23.6125 46.8216 23.5691 46.803 23.5234 46.7958C23.52 46.5835 23.4391 46.3811 23.2981 46.2322C23.1571 46.0834 22.9673 46 22.7696 46C22.5728 46.0034 22.3849 46.0879 22.2445 46.2361C22.1042 46.3842 22.0223 46.5846 22.0158 46.7958C22.0158 47.5779 22.0158 48.36 22.0158 49.1421C22.0158 49.5263 22.0158 49.9105 22.0158 50.2947C21.9642 50.7649 22.0396 51.2412 22.233 51.6668C22.2928 51.7688 22.3758 51.8529 22.4741 51.9112C22.5724 51.9694 22.6828 52 22.7951 52C22.9074 52 23.0179 51.9694 23.1162 51.9112C23.2145 51.8529 23.2974 51.7688 23.3573 51.6668C23.5449 51.2835 23.6206 50.8483 23.5745 50.4182C23.6692 50.3515 23.7461 50.2596 23.7976 50.1513C23.8491 50.043 23.8735 49.9222 23.8683 49.8007C23.8683 49.5126 23.8683 49.2381 23.7916 48.95C23.715 48.6619 23.7916 48.6619 23.7916 48.5109C23.7916 48.36 23.7916 48.5109 23.7916 48.5109C23.799 48.44 23.8162 48.3706 23.8428 48.3051Z" fill="white"/>
<path d="M40.7914 57.274C40.7435 57.2342 40.6891 57.2018 40.6303 57.1781C40.5489 56.9453 40.4022 56.7371 40.2056 56.5754C40.0148 56.4351 39.8141 56.307 39.605 56.1918C39.3915 56.0635 39.166 55.9534 38.9313 55.863L38.6384 55.7535H38.5212L37.6278 55.2877C37.2817 55.0972 36.8869 54.9978 36.4853 55C36.3544 55.0026 36.227 55.0401 36.118 55.108C36.0091 55.176 35.9231 55.2716 35.8702 55.3836C35.7842 55.3281 35.6817 55.2994 35.5773 55.3014C35.3762 55.2137 35.153 55.1805 34.9328 55.2055C34.7543 55.2187 34.5826 55.2754 34.4348 55.3699C34.2933 55.4687 34.1903 55.6083 34.1419 55.7672C33.9977 56.5864 33.9632 57.4193 34.0394 58.2466C34.0432 58.4476 34.1313 58.6393 34.2847 58.7802C34.4381 58.9211 34.6446 59 34.8596 59C35.0609 58.9971 35.2538 58.9237 35.4002 58.7944C35.5466 58.6651 35.6359 58.4892 35.6505 58.3014C35.8643 58.2944 36.0671 58.2109 36.2169 58.0682C36.3668 57.9254 36.4524 57.7343 36.4561 57.5342C36.4926 57.1332 36.4926 56.7299 36.4561 56.3288L36.954 56.6986L37.9939 57.3836C38.6448 57.8287 39.3882 58.1414 40.1763 58.3014C40.3136 58.3357 40.4591 58.3275 40.5911 58.2782C40.7231 58.2288 40.8344 58.1408 40.9086 58.0274C40.9847 57.9084 41.0146 57.7684 40.9933 57.6312C40.9719 57.4939 40.9006 57.3678 40.7914 57.274Z" fill="white"/>
<path d="M87.9605 115.025C87.8783 114.744 87.7529 114.483 87.5902 114.254L87.3982 114.096C87.308 114.009 87.2116 113.93 87.1102 113.86C86.9197 113.719 86.7043 113.628 86.4794 113.593L86.2188 113.452C86.1747 113.35 86.1086 113.263 86.0268 113.2C85.8391 113.083 85.6415 112.988 85.4371 112.917C84.8001 112.477 84.0807 112.218 83.3388 112.162C83.2147 112.168 83.0952 112.217 82.996 112.303C82.9266 112.26 82.8622 112.207 82.804 112.146C82.7112 112.052 82.5918 112 82.468 112C82.3442 112 82.2247 112.052 82.132 112.146C82.0471 112.251 82 112.388 82 112.531C82 112.674 82.0471 112.812 82.132 112.917C82.3799 113.229 82.6977 113.458 83.0508 113.577C83.5984 114.041 84.2244 114.367 84.8885 114.537L85.108 114.616H85.2314C85.433 114.707 85.6299 114.812 85.8211 114.93C86.2053 115.11 86.5445 115.397 86.8085 115.764C87.2336 116.362 88.2073 115.717 87.9605 115.025Z" fill="white"/>
<path d="M62.6866 130.881C62.6341 130.62 62.5446 130.37 62.4212 130.137C62.3497 130.011 62.2695 129.891 62.1811 129.778C62.1811 129.565 62.1052 129.339 62.08 129.14V129.313C62.072 129.164 62.0331 129.019 61.9662 128.887L62.0547 129.087C62.0495 129.038 62.0495 128.989 62.0547 128.94C62.0173 128.771 61.9263 128.619 61.7967 128.511C61.667 128.403 61.5063 128.344 61.3407 128.344C61.1751 128.344 61.0143 128.403 60.8847 128.511C60.755 128.619 60.6641 128.771 60.6267 128.94C60.6206 128.993 60.6206 129.047 60.6267 129.1C60.6267 129.1 60.6267 129.206 60.6267 129.26V129.1C60.4817 129.209 60.3716 129.362 60.3107 129.539C60.2353 129.844 60.2353 130.164 60.3107 130.469C60.3302 130.564 60.3555 130.657 60.3866 130.748C60.4331 130.912 60.5012 131.069 60.5888 131.213C60.7608 131.492 60.9843 131.732 61.2459 131.918C61.3356 132.068 61.4514 132.199 61.5871 132.303C61.7004 132.365 61.826 132.397 61.9536 132.397C62.0811 132.397 62.2068 132.365 62.3201 132.303C62.4382 132.26 62.5441 132.186 62.628 132.089C62.712 131.991 62.7712 131.873 62.8003 131.745C62.8122 131.452 62.7737 131.16 62.6866 130.881Z" fill="white"/>
<path d="M65.8916 120.018C65.7794 119.729 65.5949 119.492 65.365 119.341C65.1303 119.193 64.8726 119.109 64.609 119.093C64.4612 119.067 64.3112 119.067 64.1635 119.093H64.0824H63.8259C63.7198 119.018 63.5966 118.987 63.4749 119.005C63.3532 119.023 63.2395 119.088 63.1509 119.192C63.0699 119.303 63.0187 119.442 63.0042 119.589C62.9897 119.737 63.0127 119.887 63.0699 120.018C63.1307 120.103 63.1986 120.181 63.2724 120.249C63.3786 120.382 63.5078 120.483 63.6504 120.546C63.9207 120.987 64.2284 121.391 64.5685 121.752C64.6989 121.907 64.8727 121.996 65.0545 122C65.237 121.999 65.4118 121.91 65.5405 121.752C65.6259 121.637 65.6822 121.493 65.7026 121.339C65.7602 121.309 65.8119 121.264 65.8538 121.207C65.8958 121.15 65.9271 121.082 65.9456 121.009C66.0336 120.683 66.0143 120.327 65.8916 120.018Z" fill="white"/>
<path d="M42.9623 160.809C42.9623 160.594 42.8895 160.388 42.76 160.237C42.6304 160.085 42.4547 160 42.2715 160C42.0883 160 41.9126 160.085 41.783 160.237C41.6535 160.388 41.5807 160.594 41.5807 160.809C41.5807 160.97 41.5807 161.132 41.5807 161.294V161.514C41.5102 161.789 41.4263 162.059 41.3295 162.323C41.092 162.92 40.98 163.575 41.0029 164.234C41.0002 164.378 41.0332 164.52 41.098 164.643C41.1627 164.767 41.2565 164.865 41.368 164.927C41.4794 164.989 41.6038 165.012 41.7263 164.994C41.8487 164.975 41.9639 164.915 42.058 164.822C42.1356 164.871 42.2212 164.901 42.3092 164.91C42.4523 164.893 42.5877 164.826 42.6986 164.719C42.831 164.462 42.9325 164.185 43 163.896C42.9623 162.793 42.9372 161.764 42.9623 160.809Z" fill="white"/>
<path d="M38.8773 147.247C38.8067 147.147 38.7108 147.073 38.6017 147.033C38.4926 146.993 38.3752 146.989 38.2643 147.023C38.0718 147.08 37.8889 147.171 37.7229 147.292C37.5205 147.436 37.3261 147.594 37.1406 147.763C36.9669 147.909 36.8137 148.055 36.6604 148.212C36.5072 148.369 36.4357 148.481 36.3131 148.605C36.2183 148.672 36.1409 148.764 36.0883 148.874C36.0148 149.018 35.9861 149.185 36.0063 149.349C36.0266 149.513 36.0948 149.665 36.2007 149.783C36.2855 149.869 36.3866 149.935 36.497 149.973C36.5841 150 36.6753 150.007 36.7649 149.993C36.8545 149.98 36.9406 149.946 37.018 149.895L37.161 149.783L37.2836 149.671C37.3323 149.622 37.3737 149.565 37.4062 149.502C37.5443 149.488 37.6773 149.438 37.7944 149.356C37.973 149.246 38.1322 149.102 38.2643 148.93C38.505 148.621 38.7269 148.295 38.9283 147.954C38.983 147.843 39.0072 147.718 38.9981 147.592C38.9891 147.467 38.9471 147.347 38.8773 147.247Z" fill="white"/>
<path d="M54.6135 149.433L54.4387 149.261C54.4287 149.239 54.4287 149.215 54.4387 149.192V149.135C54.4387 149.135 54.4387 149.055 54.4387 149.135C54.4591 149.028 54.4335 148.919 54.3658 148.825C54.2843 148.724 54.161 148.647 54.0162 148.608C53.9114 148.585 53.8006 148.585 53.6958 148.608C53.6208 148.448 53.5013 148.303 53.3461 148.183C53.1885 148.074 52.9883 148.009 52.778 148C52.6076 148.004 52.4437 148.052 52.3119 148.138C52.2204 148.196 52.1458 148.269 52.093 148.352C52.0403 148.435 52.0106 148.526 52.006 148.619C52.006 148.619 52.006 148.619 52.006 148.676C51.9989 148.703 51.9989 148.73 52.006 148.757C51.998 148.798 51.998 148.841 52.006 148.883C52.0242 148.927 52.0486 148.969 52.0788 149.009C52.2536 149.341 52.3993 149.685 52.6178 150.006C52.7395 150.189 52.8968 150.355 53.0839 150.499C53.2187 150.586 53.3597 150.666 53.5064 150.74L53.6083 150.832C53.6916 150.896 53.7931 150.945 53.9044 150.972C54.0158 151 54.1339 151.007 54.2493 150.992C54.3651 150.981 54.4761 150.949 54.5744 150.899C54.6727 150.85 54.7557 150.784 54.8174 150.706C54.9659 150.505 55.0263 150.272 54.9895 150.042C54.9526 149.812 54.8205 149.598 54.6135 149.433Z" fill="white"/>
</svg>
