<svg width="156" height="229" viewBox="0 0 156 229" fill="none" xmlns="http://www.w3.org/2000/svg">
<path d="M104.741 129.609C104.741 129.172 104.741 128.757 104.741 128.321C104.741 127.448 104.741 126.576 104.741 125.724C104.766 125.498 104.745 125.268 104.679 125.05C104.613 124.833 104.504 124.632 104.36 124.462C104.216 124.292 104.038 124.156 103.84 124.062C103.642 123.969 103.428 123.921 103.211 123.921C102.994 123.921 102.779 123.969 102.581 124.062C102.383 124.156 102.206 124.292 102.062 124.462C101.917 124.632 101.809 124.833 101.743 125.05C101.677 125.268 101.656 125.498 101.68 125.724C101.68 126.119 101.68 126.514 101.68 126.908C101.68 127.303 101.68 127.261 101.582 127.428C101.386 128.193 101.287 128.982 101.285 129.775C101.285 129.92 101.285 130.066 101.285 130.211C101.285 130.356 101.285 130.377 101.285 130.502C101.077 130.804 100.964 131.167 100.964 131.54C100.964 131.914 101.077 132.277 101.285 132.579C101.383 132.779 101.536 132.944 101.724 133.052C101.912 133.159 102.127 133.205 102.34 133.183C102.553 133.16 102.755 133.071 102.919 132.926C103.083 132.781 103.202 132.588 103.26 132.371C103.591 132.36 103.91 132.239 104.172 132.027C104.435 131.814 104.627 131.521 104.722 131.187C104.815 130.666 104.822 130.132 104.741 129.609Z" fill="white"/>
<path d="M84.2821 127.179C84.1043 126.909 83.9858 126.598 83.8081 126.328L83.4921 125.891L83.1959 125.476C83.1959 125.476 82.9786 125.185 82.9194 125.102C82.8601 125.019 82.6429 124.562 82.3664 124.458C82.0869 124.345 81.7771 124.345 81.4975 124.458C81.1247 123.862 80.6327 123.359 80.0559 122.983C79.8154 122.836 79.5386 122.767 79.2608 122.785C78.9829 122.804 78.7166 122.909 78.4957 123.087C78.2764 123.267 78.1112 123.51 78.0201 123.786C77.929 124.063 77.9158 124.361 77.9822 124.645C78.2008 125.283 78.4926 125.889 78.8512 126.452C79.1474 126.951 79.4634 127.449 79.7201 127.969V128.135V128.363L79.8979 128.716C80.0164 128.945 80.1349 129.194 80.2731 129.423C80.4346 129.716 80.6195 129.994 80.826 130.254C81.0956 130.587 81.4646 130.814 81.8727 130.898C82.0113 130.933 82.1558 130.934 82.2949 130.901C82.4339 130.868 82.5639 130.801 82.6747 130.707C82.7855 130.613 82.8741 130.493 82.9336 130.356C82.9932 130.22 83.0221 130.071 83.0181 129.921H83.2551C83.5052 129.889 83.7403 129.779 83.9303 129.605C84.1203 129.431 84.2565 129.201 84.3216 128.945C84.4312 128.664 84.4843 128.362 84.4775 128.058C84.4707 127.754 84.4041 127.455 84.2821 127.179Z" fill="white"/>
<path d="M70.4782 85.2811C70.1259 85.0802 69.7633 84.8999 69.392 84.741C69.288 84.5638 69.1427 84.4174 68.9699 84.3156C68.7972 84.2139 68.6026 84.1601 68.4046 84.1594H68.1874C68.0316 83.9611 67.8445 83.7925 67.6344 83.6609C66.9734 83.32 66.232 83.19 65.5016 83.287L64.7314 82.9131C63.9954 82.5355 63.1573 82.44 62.3615 82.643C62.131 82.7155 61.925 82.8556 61.7675 83.0469C61.6101 83.2382 61.5079 83.4729 61.4729 83.7232C61.4395 83.9754 61.478 84.2324 61.5834 84.4616C61.6889 84.6908 61.8566 84.882 62.0653 85.011C63.2599 85.6835 64.5453 86.1598 65.8768 86.4236L66.1335 86.5482C67.4172 87.2129 69.471 88.6254 70.7547 87.2752C70.8844 87.1358 70.9817 86.9668 71.0391 86.7814C71.0965 86.596 71.1125 86.3991 71.0857 86.2062C71.059 86.0132 70.9902 85.8293 70.8848 85.6689C70.7795 85.5084 70.6403 85.3757 70.4782 85.2811Z" fill="white"/>
<path d="M62.1858 123.374C62.2052 123.132 62.2052 122.889 62.1858 122.647C62.2034 122.426 62.2034 122.204 62.1858 121.982C62.0906 121.741 61.9715 121.512 61.8303 121.297C61.7449 121.137 61.6257 120.999 61.482 120.895C61.3382 120.79 61.1737 120.722 61.0009 120.695C60.8256 120.531 60.6027 120.436 60.3689 120.424C60.1958 120.421 60.0251 120.468 59.8754 120.559C59.7257 120.651 59.6027 120.784 59.5197 120.944C59.4553 121.084 59.4024 121.23 59.3617 121.38V121.608C59.3617 121.775 59.3617 121.941 59.3617 122.107L59.4802 121.816C59.3073 122.154 59.2189 122.533 59.2235 122.917C59.2235 122.917 59.2235 123.063 59.2235 123.146C59.2235 123.665 59.2235 124.184 59.2235 124.703C59.2286 125.054 59.3634 125.389 59.5993 125.638C59.8353 125.886 60.1538 126.028 60.4874 126.033H60.7441C61.0407 126.08 61.3432 126.01 61.5944 125.838C61.8456 125.666 62.0279 125.402 62.1068 125.098C62.1166 124.988 62.1166 124.876 62.1068 124.766C62.1068 124.288 62.1858 123.79 62.1858 123.374Z" fill="white"/>
<path d="M78.9902 136.55C78.8097 136.381 78.5928 136.259 78.3582 136.197C78.1942 136.177 78.0285 136.177 77.8645 136.197H77.6275H77.43C77.289 136.18 77.1463 136.198 77.0128 136.248C76.8793 136.299 76.7585 136.381 76.6598 136.488C76.6247 136.552 76.5777 136.609 76.5216 136.654C76.4324 136.687 76.3465 136.729 76.2649 136.779H75.2182C75.0349 136.779 74.8591 136.855 74.7294 136.992C74.5998 137.128 74.527 137.313 74.527 137.506C74.5381 137.646 74.5938 137.777 74.685 137.88L74.4875 138.025C74.2833 138.253 74.1696 138.553 74.1696 138.866C74.1696 139.179 74.2833 139.48 74.4875 139.708C74.637 139.928 74.8526 140.089 75.0997 140.165C75.42 140.238 75.7543 140.194 76.0476 140.04C76.5352 139.778 76.9925 139.457 77.4103 139.084L77.7065 138.897C77.944 138.806 78.1885 138.737 78.4372 138.69H78.1212C78.3974 138.695 78.67 138.624 78.9112 138.482C79.0587 138.396 79.1843 138.273 79.2772 138.125C79.37 137.977 79.4274 137.807 79.4444 137.63C79.4672 137.424 79.4372 137.215 79.3573 137.025C79.2774 136.835 79.1507 136.671 78.9902 136.55Z" fill="white"/>
<path d="M114.556 102.599C114.596 102.338 114.596 102.071 114.556 101.81C114.556 101.457 114.438 101.145 114.379 100.792V100.397V100.231C114.388 100.044 114.388 99.8572 114.379 99.6704C114.427 99.5973 114.453 99.5103 114.453 99.4212C114.453 99.3321 114.427 99.2451 114.379 99.1719C114.363 98.8192 114.219 98.4863 113.977 98.2426C113.734 97.9988 113.411 97.8629 113.075 97.8633C112.728 97.8632 112.394 98.007 112.147 98.2635C111.899 98.5201 111.757 98.8687 111.752 99.2342C111.752 99.8574 111.752 100.46 111.752 101.083C111.742 101.235 111.742 101.388 111.752 101.54V103.139C111.757 103.507 111.898 103.858 112.145 104.118C112.392 104.377 112.726 104.526 113.075 104.531C113.33 104.516 113.577 104.429 113.789 104.279C114.001 104.129 114.17 103.922 114.28 103.679C114.468 103.523 114.612 103.314 114.695 103.077V102.599H114.556Z" fill="white"/>
<path d="M118.625 70.8814C118.756 70.6498 118.793 70.3734 118.731 70.1126C118.668 69.8518 118.509 69.6278 118.29 69.4896H118.053L117.519 69.365C117.23 69.3435 116.94 69.3435 116.651 69.365C116.375 69.3344 116.097 69.3344 115.821 69.365H115.564C115.394 69.3625 115.226 69.4004 115.072 69.476C114.919 69.5515 114.783 69.6627 114.676 69.8012C114.574 69.9488 114.506 70.1196 114.478 70.2997C114.432 70.5075 114.435 70.724 114.487 70.9304C114.538 71.1368 114.637 71.3268 114.774 71.4838C114.998 71.7062 115.259 71.8824 115.545 72.0031C115.934 72.4026 116.357 72.7641 116.808 73.0832C117.002 73.1959 117.219 73.2551 117.44 73.2551C117.662 73.2551 117.879 73.1959 118.072 73.0832C118.262 72.9657 118.42 72.7989 118.53 72.5989C118.641 72.3988 118.701 72.1722 118.704 71.9407C118.702 71.6712 118.655 71.4041 118.566 71.1514L118.625 70.8814Z" fill="white"/>
<path d="M155.556 57.5096C155.546 57.2713 155.467 57.0418 155.33 56.8523C155.192 56.6628 155.002 56.5225 154.786 56.4503L154.134 56.3049C153.814 56.2429 153.491 56.2013 153.166 56.1802C152.609 56.1417 152.048 56.1978 151.508 56.3464C151.254 56.4318 151.033 56.599 150.876 56.8242C150.725 56.8044 150.572 56.8044 150.421 56.8242C150.141 56.9113 149.904 57.1095 149.761 57.377C149.617 57.6444 149.578 57.9601 149.651 58.2574C149.709 58.4486 149.811 58.6213 149.949 58.7593C150.088 58.8974 150.257 58.9963 150.441 59.0468L151.093 59.1922H150.797C151.18 59.2502 151.557 59.3476 151.922 59.483C152.277 59.7369 152.662 59.9395 153.068 60.0854C153.324 60.1533 153.594 60.1336 153.839 60.029C154.084 59.9244 154.291 59.7404 154.43 59.5038C154.532 59.3457 154.605 59.1698 154.648 58.9845C154.885 58.9689 155.109 58.8598 155.273 58.6789C155.438 58.498 155.532 58.2586 155.536 58.0082C155.575 57.8451 155.581 57.6755 155.556 57.5096Z" fill="white"/>
<path d="M50.731 47.0561C50.7829 47.0494 50.832 47.0274 50.8725 46.9926C50.913 46.9578 50.9433 46.9116 50.9599 46.8594C50.9764 46.8072 50.9785 46.7511 50.966 46.6977C50.9534 46.6442 50.9268 46.5957 50.889 46.5576C50.9077 46.4128 50.9077 46.2661 50.889 46.1213C50.8792 45.7313 50.7701 45.3511 50.573 45.0204C50.5396 44.9541 50.4918 44.8969 50.4335 44.8536C50.3751 44.8103 50.3079 44.7821 50.2373 44.7712C50.2321 44.4498 50.107 44.1433 49.8891 43.918C49.6711 43.6926 49.3777 43.5664 49.0721 43.5664C48.768 43.5716 48.4774 43.6995 48.2605 43.9238C48.0436 44.148 47.917 44.4515 47.9069 44.7712C47.9069 45.9552 47.9069 47.1392 47.9069 48.3232C47.9069 48.9048 47.9069 49.4864 47.9069 50.068C47.8272 50.78 47.9438 51.501 48.2427 52.1452C48.3352 52.2997 48.4634 52.427 48.6154 52.5152C48.7673 52.6034 48.938 52.6497 49.1116 52.6497C49.2852 52.6497 49.4559 52.6034 49.6079 52.5152C49.7598 52.427 49.888 52.2997 49.9806 52.1452C50.2705 51.565 50.3875 50.9062 50.3163 50.255C50.4627 50.1541 50.5816 50.0149 50.6612 49.851C50.7409 49.687 50.7785 49.5041 50.7705 49.3202C50.7705 48.884 50.7705 48.4686 50.652 48.0324C50.5335 47.5962 50.652 47.5962 50.652 47.3677C50.652 47.1392 50.652 47.3677 50.652 47.3677C50.6634 47.2602 50.69 47.1552 50.731 47.0561Z" fill="white"/>
<path d="M77.0348 61.2085C76.9702 61.1481 76.8969 61.099 76.8176 61.063C76.7078 60.71 76.51 60.3944 76.2449 60.1491C75.9876 59.9364 75.7171 59.7421 75.4352 59.5675C75.1472 59.3729 74.8432 59.206 74.5267 59.0689L74.1318 58.9028H73.9738L72.7691 58.1965C72.3024 57.9076 71.7702 57.7569 71.2287 57.7603C71.0522 57.7642 70.8804 57.821 70.7335 57.924C70.5865 58.0271 70.4706 58.172 70.3993 58.3419C70.2833 58.2578 70.1451 58.2142 70.0043 58.2173C69.7333 58.0843 69.4322 58.034 69.1354 58.0719C68.8947 58.0919 68.6632 58.1778 68.4639 58.3211C68.273 58.4709 68.1343 58.6826 68.069 58.9235C67.8745 60.1659 67.828 61.4288 67.9307 62.6833C67.9359 62.9882 68.0547 63.2787 68.2615 63.4924C68.4684 63.7061 68.7467 63.8258 69.0366 63.8257C69.3081 63.8213 69.5681 63.71 69.7655 63.514C69.9629 63.3179 70.0833 63.0512 70.1031 62.7664C70.3913 62.7558 70.6647 62.6292 70.8668 62.4127C71.0689 62.1963 71.1844 61.9064 71.1892 61.6031C71.2385 60.9949 71.2385 60.3834 71.1892 59.7752L71.8607 60.336L73.2628 61.3746C74.1404 62.0497 75.1428 62.5238 76.2054 62.7664C76.3905 62.8184 76.5867 62.806 76.7647 62.7311C76.9426 62.6563 77.0928 62.5229 77.1928 62.3509C77.2954 62.1704 77.3358 61.9582 77.307 61.7501C77.2782 61.542 77.1821 61.3507 77.0348 61.2085Z" fill="white"/>
<path d="M150.855 150.381C150.737 150.011 150.556 149.666 150.322 149.363L150.045 149.155C149.915 149.04 149.777 148.936 149.631 148.844C149.356 148.657 149.046 148.536 148.722 148.491L148.347 148.304C148.283 148.17 148.188 148.055 148.071 147.971C147.8 147.817 147.516 147.691 147.221 147.597C146.304 147.016 145.268 146.675 144.2 146.6C144.021 146.609 143.849 146.674 143.706 146.787C143.606 146.73 143.513 146.66 143.43 146.58C143.296 146.455 143.124 146.387 142.946 146.387C142.768 146.387 142.595 146.455 142.462 146.58C142.34 146.718 142.272 146.9 142.272 147.088C142.272 147.277 142.34 147.459 142.462 147.597C142.819 148.01 143.277 148.312 143.785 148.47C144.574 149.082 145.475 149.513 146.431 149.737L146.747 149.841H146.925C147.216 149.962 147.499 150.101 147.774 150.256C148.328 150.494 148.816 150.872 149.196 151.357C149.808 152.146 151.211 151.295 150.855 150.381Z" fill="white"/>
<path d="M111.951 175.682C111.869 175.275 111.729 174.882 111.536 174.519C111.424 174.322 111.299 174.135 111.161 173.958C111.161 173.626 111.042 173.272 111.003 172.961V173.231C110.99 172.998 110.93 172.772 110.825 172.566L110.963 172.878C110.955 172.802 110.955 172.725 110.963 172.649C110.905 172.384 110.763 172.148 110.56 171.978C110.357 171.809 110.106 171.717 109.848 171.717C109.589 171.717 109.338 171.809 109.135 171.978C108.932 172.148 108.79 172.384 108.732 172.649C108.722 172.732 108.722 172.816 108.732 172.899C108.732 172.899 108.732 173.065 108.732 173.148V172.899C108.505 173.07 108.333 173.308 108.238 173.584C108.12 174.061 108.12 174.561 108.238 175.038C108.268 175.186 108.308 175.332 108.357 175.474C108.429 175.731 108.536 175.976 108.673 176.201C108.941 176.637 109.291 177.011 109.699 177.302C109.84 177.537 110.021 177.741 110.233 177.905C110.41 178.001 110.606 178.052 110.805 178.052C111.005 178.052 111.201 178.001 111.378 177.905C111.563 177.837 111.728 177.722 111.859 177.569C111.99 177.417 112.083 177.232 112.129 177.032C112.147 176.575 112.087 176.117 111.951 175.682Z" fill="white"/>
<path d="M116.51 158.859C116.346 158.496 116.076 158.198 115.74 158.008C115.397 157.822 115.02 157.716 114.634 157.696C114.418 157.663 114.199 157.663 113.982 157.696H113.864H113.489C113.333 157.602 113.153 157.563 112.975 157.585C112.797 157.608 112.631 157.69 112.501 157.821C112.383 157.96 112.308 158.135 112.287 158.32C112.266 158.506 112.299 158.694 112.383 158.859C112.472 158.967 112.571 159.064 112.679 159.15C112.834 159.317 113.023 159.444 113.232 159.524C113.627 160.078 114.077 160.586 114.575 161.04C114.766 161.235 115.02 161.347 115.286 161.352C115.553 161.351 115.808 161.239 115.997 161.04C116.122 160.895 116.204 160.714 116.234 160.521C116.318 160.483 116.394 160.426 116.455 160.354C116.516 160.283 116.562 160.198 116.589 160.105C116.718 159.695 116.69 159.248 116.51 158.859Z" fill="white"/>
<path d="M80.8272 223.077C80.8272 222.774 80.7128 222.484 80.5091 222.27C80.3054 222.055 80.0291 221.935 79.7411 221.935C79.453 221.935 79.1767 222.055 78.973 222.27C78.7693 222.484 78.6549 222.774 78.6549 223.077C78.6549 223.306 78.6549 223.534 78.6549 223.763V224.075C78.544 224.463 78.4121 224.844 78.2599 225.217C77.8864 226.061 77.7104 226.987 77.7464 227.917C77.7421 228.121 77.794 228.323 77.8959 228.496C77.9977 228.67 78.1451 228.809 78.3204 228.897C78.4956 228.985 78.6913 229.018 78.8837 228.991C79.0762 228.965 79.2573 228.88 79.4053 228.748C79.5274 228.818 79.6619 228.86 79.8003 228.873C80.0252 228.848 80.2382 228.754 80.4125 228.603C80.6208 228.24 80.7803 227.849 80.8864 227.44C80.8272 225.882 80.7877 224.428 80.8272 223.077Z" fill="white"/>
<path d="M75.3585 201.02C75.222 200.836 75.0367 200.698 74.8258 200.624C74.6149 200.55 74.388 200.543 74.1735 200.605C73.8014 200.711 73.4479 200.879 73.1269 201.104C72.7356 201.371 72.3597 201.662 72.0012 201.976C71.6655 202.246 71.3692 202.516 71.073 202.807C70.7768 203.098 70.6385 203.305 70.4015 203.534C70.2183 203.658 70.0686 203.83 69.9671 204.032C69.825 204.3 69.7693 204.608 69.8085 204.912C69.8477 205.215 69.9796 205.497 70.1843 205.715C70.3482 205.876 70.5437 205.996 70.757 206.068C70.9255 206.117 71.1017 206.13 71.2749 206.105C71.4481 206.08 71.6146 206.018 71.7642 205.923L72.0407 205.715L72.2777 205.507C72.3718 205.417 72.4518 205.312 72.5147 205.196C72.7816 205.169 73.0387 205.077 73.2651 204.926C73.6105 204.722 73.9182 204.455 74.1735 204.136C74.6389 203.564 75.0677 202.961 75.4572 202.329C75.5628 202.124 75.6097 201.892 75.5922 201.659C75.5746 201.427 75.4935 201.205 75.3585 201.02Z" fill="white"/>
<path d="M98.8177 204.675L98.5807 204.363C98.5672 204.323 98.5672 204.279 98.5807 204.239V204.135C98.5807 204.135 98.5807 203.989 98.5807 204.135C98.6085 203.941 98.5737 203.744 98.482 203.574C98.3715 203.389 98.2042 203.25 98.008 203.179C97.8659 203.138 97.7157 203.138 97.5736 203.179C97.4719 202.889 97.31 202.627 97.0996 202.411C96.8859 202.212 96.6144 202.094 96.3294 202.078C96.0983 202.086 95.8761 202.173 95.6974 202.328C95.5733 202.434 95.4722 202.566 95.4007 202.717C95.3292 202.867 95.289 203.032 95.2827 203.2C95.2827 203.2 95.2827 203.2 95.2827 203.304C95.2731 203.352 95.2731 203.401 95.2827 203.449C95.2719 203.525 95.2719 203.602 95.2827 203.678C95.3074 203.758 95.3405 203.834 95.3815 203.906C95.6184 204.509 95.8159 205.132 96.1122 205.713C96.2771 206.044 96.4904 206.345 96.7441 206.607C96.9267 206.764 97.118 206.909 97.3168 207.043L97.455 207.209C97.5679 207.326 97.7055 207.413 97.8565 207.464C98.0074 207.514 98.1676 207.527 98.324 207.5C98.4809 207.479 98.6315 207.421 98.7647 207.331C98.8979 207.242 99.0105 207.122 99.0942 206.981C99.2954 206.618 99.3774 206.195 99.3274 205.778C99.2775 205.362 99.0983 204.974 98.8177 204.675Z" fill="white"/>
<path d="M-8.97632 4.21015C-8.91788 3.50837 -8.70711 2.82998 -8.36015 2.22703C-8.0132 1.62408 -7.53932 1.11259 -6.97484 0.731807C-6.41037 0.351026 -5.77034 0.111083 -5.10381 0.0303734C-4.43729 -0.0503357 -3.76201 0.0303159 -3.12979 0.266191C-1.14508 1.27832 0.471436 2.94204 1.47478 5.0053C1.92912 5.548 2.33473 6.1336 2.68648 6.75463C3.8392 9.17333 5.12369 11.5202 6.53366 13.7837C8.04829 15.9465 9.56293 18.1094 11.0473 20.3676C11.5925 20.8129 12.1076 21.29 12.6529 21.6716C15.6822 23.8344 17.1059 26.8878 19.8625 29.1778C22.3236 30.9336 24.5106 33.0795 26.3453 35.539C30.4771 36.8262 34.3128 38.9914 37.6142 41.9002C39.5906 43.7911 42.1245 44.9137 44.7936 45.0808C46.9211 45.112 49.0451 45.2713 51.1552 45.5579C54.548 45.7805 57.8196 43.2996 60.9397 42.0592C63.1155 41.0476 65.34 40.1558 67.6042 39.3875C69.6976 39.0431 71.8203 38.9365 73.9354 39.0695C76.5406 39.0695 78.6308 37.67 81.1452 37.4474C84.8106 37.1611 87.4158 40.1827 90.233 42.1546C92.2324 43.5223 94.5649 43.904 96.5643 45.3352C98.4696 47.0999 100.564 48.6262 102.805 49.8835C103.168 49.8835 103.047 50.7423 102.623 50.6469C99.3209 49.9789 97.261 46.5439 94.2014 45.1762C92.479 44.542 90.8241 43.7212 89.2636 42.7272C87.56 41.1766 85.6391 39.9107 83.5686 38.974C81.4582 38.5577 79.2761 38.8819 77.3585 39.8964C75.2289 40.3146 73.0717 40.5591 70.9061 40.628C65.8472 41.3277 60.6974 44.6991 56.1535 46.9891C52.4275 48.8975 48.6106 48.2296 44.7028 49.2474C43.0985 49.5334 41.454 49.4482 39.8843 48.9977C38.3147 48.5472 36.8576 47.7423 35.6149 46.6393C32.9794 44.8581 30.768 42.8226 28.1629 41.2641C28.4305 43.624 28.3794 46.0118 28.0113 48.3568C27.0817 52.673 27.6849 57.197 29.7077 61.0792C31.8585 65.373 33.7367 69.8259 35.9784 74.056C36.9964 75.7215 38.1304 77.3055 39.3712 78.7951C40.1867 80.3084 40.7213 81.9706 40.9465 83.6932C40.9465 84.2339 41.2796 84.8064 41.4614 85.3471C42.5926 87.2787 43.5364 89.3245 44.2786 91.4539L44.4605 92.0264C44.9472 92.6939 45.5922 93.2156 46.3311 93.5393C47.07 93.8631 47.8769 93.9775 48.6711 93.8711C54.6873 93.7416 60.6717 94.8212 66.3016 97.0517C66.7257 96.8291 67.1801 96.6382 67.6042 96.3838C72.9013 93.7453 78.6498 92.2527 84.5076 91.9946C90.1724 91.3267 92.5353 94.0302 95.5646 98.7374C95.9375 99.5961 96.4748 100.365 97.1432 100.996C97.8115 101.627 98.5964 102.106 99.4491 102.405C100.302 102.703 101.204 102.814 102.099 102.73C102.994 102.647 103.864 102.37 104.653 101.918C107.281 101.066 109.996 100.543 112.741 100.36C112.838 100.386 112.923 100.446 112.984 100.53C113.046 100.613 113.079 100.715 113.079 100.821C113.079 100.926 113.046 101.028 112.984 101.112C112.923 101.195 112.838 101.255 112.741 101.282C110.215 101.945 107.744 102.817 105.349 103.89C103.774 104.834 102.011 105.379 100.199 105.48C96.5946 105.289 94.474 102.3 92.6564 99.1191C92.038 97.7444 91.0472 96.5917 89.8079 95.8053C88.5686 95.0189 87.1358 94.6338 85.6891 94.6981C83.0997 94.9701 80.5296 95.4163 77.9947 96.0339C75.2476 96.2928 72.5524 96.9788 69.9974 98.0695L69.6339 98.2922L72.0876 99.1827C75.0748 99.8479 77.8059 101.431 79.9335 103.731C80.5783 104.731 81.1263 105.797 81.5693 106.912C82.7135 108.985 84.1773 110.844 85.9012 112.414C88.779 115.595 88.7487 120.047 93.1715 121.765C97.5942 123.482 102.259 121.765 106.591 121.447C110.695 121.037 114.833 121.219 118.89 121.988C120.963 122.713 122.987 123.584 124.949 124.596C126.645 125.295 128.463 125.073 130.189 125.613C132.643 126.377 134.854 127.49 137.429 128.031C139.235 128.313 140.985 128.904 142.61 129.78C146.322 131.767 149.807 134.189 153 137C149.96 134.683 146.725 132.66 143.337 130.957C139.58 128.73 135.036 128.571 131.007 127.077C129.19 126.377 127.402 126.536 125.555 126.027C124.049 125.427 122.572 124.748 121.132 123.991C116.487 122.6 111.612 122.264 106.834 123.005C100.775 123.323 93.0806 126.377 88.3852 120.588C87.5579 119.45 86.9038 118.184 86.4464 116.835C85.3692 114.85 83.9277 113.11 82.2054 111.714C79.8426 109.392 78.4188 105.767 75.4804 104.303C71.9092 102.769 68.1925 101.639 64.3932 100.932H64.2114C59.4876 102.394 54.5542 102.965 49.6405 102.618C48.2468 102.692 46.8603 102.363 45.632 101.668C44.4036 100.973 43.3802 99.9371 42.6731 98.6738C42.6731 99.0237 42.8549 99.3099 42.9155 99.6598C43.8243 104.653 42.9155 112.001 46.3083 115.944C47.7685 117.483 49.0964 119.154 50.2767 120.938C51.6441 123.01 53.5169 124.658 55.6991 125.709C58.9336 127.812 61.4722 130.911 62.9694 134.583C63.0059 134.678 63.0097 134.784 62.9801 134.882C62.9506 134.981 62.8895 135.065 62.8073 135.121C62.7252 135.178 62.627 135.202 62.5295 135.191C62.432 135.18 62.3412 135.133 62.2726 135.06C60.8965 133.063 59.399 131.161 57.7893 129.367C56.2295 127.957 54.485 126.789 52.6092 125.9C50.9557 124.783 49.5922 123.253 48.6408 121.447C47.3685 119.348 45.46 117.948 44.1877 115.913C41.734 111.969 42.1885 106.148 41.6129 101.632C41.0374 97.1154 38.5836 93.1078 37.5839 88.9094C36.557 87.5012 35.2817 86.3134 33.8276 85.4107C31.5859 84.0749 29.5866 82.3892 27.3752 80.9897C25.7052 80.0675 24.3501 78.6224 23.4977 76.8549C21.6801 72.6247 23.4977 68.3946 23.4977 64.1326C23.5269 63.7727 23.5269 63.411 23.4977 63.0512C23.2469 63.2996 22.9398 63.4768 22.6056 63.5661C22.2714 63.6554 21.9211 63.6539 21.5877 63.5616C21.2542 63.4693 20.9486 63.2893 20.6998 63.0386C20.451 62.7879 20.2671 62.4748 20.1655 62.1288C19.287 59.6479 19.7112 57.1034 18.7115 54.7498C17.6617 52.2152 16.3404 49.8143 14.7733 47.5935C11.4115 42.6433 8.59647 37.3081 6.38222 31.6905C3.59622 26.1805 0.46936 20.8682 -2.97829 15.7875C-3.80177 13.7973 -4.98488 11.9935 -6.46204 10.4759C-7.33092 9.72146 -8.01324 8.75774 -8.45102 7.66679C-8.88879 6.57584 -9.069 5.38996 -8.97632 4.21015ZM57.6681 99.3418H58.3649C55.4726 98.4204 52.4417 98.0751 49.4285 98.324C48.7317 98.324 48.0956 98.5148 47.52 98.5466C50.2766 100.264 55.0932 99.7234 57.6681 99.3418ZM32.1615 77.4593C31.8888 77.0458 31.6465 76.6323 31.4041 76.2188C29.6774 73.2291 28.2234 70.0803 26.6482 66.9951C26.6983 68.5657 26.8705 70.1294 27.1631 71.6706C27.981 74.8194 30.041 75.9962 32.313 77.4593H32.1615ZM22.5283 42.9498C22.4869 41.7685 22.1932 40.6122 21.6688 39.5662C21.1445 38.5202 20.403 37.6113 19.499 36.9067C18.984 36.7158 18.8326 36.4614 18.8629 37.1611C20.1049 39.2285 21.3167 41.0096 22.6798 42.9498H22.5283Z" fill="#202147"/>
</svg>
