<svg width="245" height="245" viewBox="0 0 245 245" fill="none" xmlns="http://www.w3.org/2000/svg">
<path d="M-15.4146 161.594C-15.6803 162.474 -15.7503 163.398 -15.6193 164.295C-15.4883 165.193 -15.1596 166.04 -14.6586 166.772C-14.1576 167.504 -13.4976 168.102 -12.7291 168.519C-11.9606 168.936 -11.1042 169.161 -10.2255 169.178C-7.33661 168.9 -4.58121 167.655 -2.3768 165.632C-1.56638 165.191 -0.794372 164.675 -0.0705995 164.09C2.48513 161.707 5.16604 159.475 7.95887 157.404C10.8302 155.505 13.7015 153.606 16.5819 151.577C17.4558 151.298 18.3083 150.965 19.1517 150.763C23.8573 149.589 27.0455 146.566 31.4819 145.108C35.3043 144.156 38.9817 142.599 42.3829 140.493C48.0038 140.91 53.6871 140.119 59.08 138.17C62.3801 136.822 65.987 136.673 69.2995 137.748C71.8909 138.728 74.5394 139.552 77.2322 140.214C81.4477 141.568 84.2201 146.144 87.4039 149.142C89.5536 151.411 91.82 153.557 94.1936 155.573C96.5636 156.993 99.083 158.138 101.708 158.989C104.863 160.236 106.723 162.935 109.662 164.408C113.963 166.51 118.567 164.091 122.924 163.047C126.001 162.345 129.009 162.999 132.117 162.219C135.27 160.99 138.538 160.141 141.855 159.688C142.295 159.862 142.56 158.762 142.001 158.675C137.682 157.905 133.54 161.086 129.179 161.281C126.789 161.226 124.391 161.43 122.025 161.889C119.218 162.954 116.285 163.571 113.328 163.716C110.573 163.211 108.086 161.773 106.25 159.625C103.872 158.098 101.377 156.769 98.7871 155.649C92.9961 152.378 88.3763 145.823 83.9716 140.87C80.3743 136.771 75.4317 135.755 71.1874 132.65C69.3816 131.535 67.3493 130.851 65.2324 130.646C63.1155 130.441 60.965 130.72 58.9312 131.464C54.8855 132.363 51.2314 133.774 47.3292 134.418C48.7849 131.683 49.868 128.762 50.5467 125.741C51.4905 120.059 54.3903 114.86 58.7015 111.118C63.365 106.938 67.7747 102.435 72.5178 98.3762C74.5493 96.8431 76.6821 95.4642 78.899 94.2509C80.6122 92.8052 82.0566 91.0446 83.1553 89.0625C83.4146 88.4066 84.0926 87.8715 84.572 87.3026C86.8681 85.5007 88.992 83.4705 90.9119 81.2424L91.4066 80.6349C92.3161 80.058 93.3474 79.7339 94.3975 79.6948C95.4476 79.6558 96.4795 79.9031 97.3904 80.4123C104.614 83.4491 112.379 85.0038 120.266 84.9925C120.673 85.4656 121.132 85.9146 121.524 86.4263C126.673 92.1627 132.919 96.7251 139.889 99.842C146.429 103.364 150.587 101.215 156.513 96.9542C157.376 96.0909 158.395 95.4155 159.507 94.9699C160.619 94.5243 161.8 94.318 162.975 94.3641C164.151 94.4102 165.297 94.7077 166.341 95.2378C167.385 95.7679 168.305 96.5194 169.043 97.4454C171.818 99.7372 174.855 101.671 178.091 103.208C178.221 103.221 178.354 103.19 178.468 103.118C178.582 103.046 178.671 102.938 178.722 102.81C178.772 102.682 178.781 102.542 178.747 102.412C178.713 102.281 178.638 102.168 178.533 102.089C175.793 100.075 173.218 97.8343 170.833 95.3866C169.378 93.487 167.504 91.9822 165.359 90.9923C160.902 89.4984 156.9 92.1105 153.174 95.0991C151.766 96.4709 150.013 97.3951 148.135 97.7559C146.257 98.1168 144.338 97.8982 142.616 97.1277C139.611 95.5583 136.713 93.7868 133.939 91.8242C130.736 90.1953 127.801 88.073 125.23 85.5267L124.897 85.0826L128.295 85.1767C132.232 85.7995 136.298 85.186 139.977 83.4143C141.238 82.5093 142.413 81.479 143.484 80.3386C145.863 78.3713 148.528 76.8161 151.368 75.7366C156.378 73.2554 158.477 67.8388 164.656 67.8721C170.836 67.9054 175.662 72.222 180.755 74.6814C185.529 77.1425 190.627 78.9025 195.909 79.9123C198.767 80.0251 201.636 79.9368 204.497 79.6481C206.886 79.6112 208.981 80.7513 211.331 80.9219C214.669 81.1703 217.88 80.8782 221.258 81.4547C223.58 81.9768 225.983 82.0975 228.37 81.8119C233.818 81.1782 239.201 79.9082 244.415 78.0262C239.622 79.382 234.735 80.2877 229.815 80.7322C224.198 81.6353 218.619 79.6532 213.023 79.5383C210.487 79.5172 208.398 78.4689 205.917 78.2018C203.805 78.2084 201.692 78.3261 199.584 78.5543C193.292 78.0193 187.228 76.094 181.796 72.9066C174.612 69.6208 166.758 62.2337 158.296 67.0089C156.748 67.9938 155.349 69.2167 154.148 70.6341C151.892 72.5262 149.312 73.9477 146.557 74.8165C142.582 76.5024 139.119 80.2197 134.859 80.5882C129.799 80.74 124.756 80.3321 119.816 79.3715L119.596 79.2845C114.576 75.2499 108.875 72.1961 102.758 70.2651C101.106 69.5081 99.2695 69.243 97.4485 69.4986C95.6275 69.7542 93.8916 70.5207 92.4296 71.7148C92.5973 71.2904 92.9548 71.0301 93.1959 70.6347C96.6909 65.0116 99.1133 55.6631 105.113 52.5024C107.619 51.3347 110.029 49.9431 112.313 48.3438C114.963 46.4847 118.021 45.382 121.168 45.1513C126.093 44.148 130.653 41.604 134.227 37.8656C134.317 37.7671 134.373 37.6405 134.384 37.5072C134.395 37.3739 134.362 37.2423 134.289 37.1347C134.217 37.0271 134.11 36.9503 133.986 36.9172C133.863 36.8842 133.731 36.8969 133.612 36.9533C130.988 38.7175 128.263 40.3078 125.453 41.7143C122.888 42.6782 120.215 43.2596 117.517 43.4408C114.98 44.0039 112.595 45.2074 110.576 46.9434C108.029 48.8811 105.047 49.6655 102.53 51.526C97.6673 55.1363 95.4267 62.4151 92.564 67.6188C89.7014 72.8226 84.8082 76.51 81.5844 81.1249C79.6655 82.3418 77.5516 83.1724 75.3578 83.5715C72.0026 84.1191 68.773 85.2072 65.4239 85.8465C62.9594 86.166 60.6253 87.2705 58.7456 89.0068C54.5161 93.2688 54.6888 99.2708 52.6451 104.441C52.508 104.892 52.3346 105.331 52.1266 105.753C51.942 105.332 51.6551 104.97 51.2932 104.701C50.9313 104.433 50.5063 104.267 50.0583 104.22C49.6102 104.172 49.1538 104.244 48.7323 104.429C48.3107 104.614 47.9379 104.906 47.6489 105.277C45.3955 107.867 44.689 111.156 42.3499 113.533C39.8632 116.106 37.1119 118.386 34.1492 120.33C27.7044 124.727 21.737 129.852 16.3619 135.607C10.3459 140.958 4.01193 145.906 -2.59943 150.42C-4.551 152.44 -6.8487 154.062 -9.36526 155.196C-10.7792 155.696 -12.0677 156.538 -13.1209 157.652C-14.1742 158.766 -14.9611 160.119 -15.4146 161.594ZM110.909 78.0819L111.753 78.4154C107.809 78.1488 103.972 77.1169 100.443 75.3727C99.5989 75.0392 98.92 74.5032 98.2383 74.1891C102.4 73.4249 107.974 76.3863 110.909 78.0819ZM69.5273 92.4205C68.9989 92.7917 68.5071 93.1773 68.0154 93.5629C64.4907 96.3635 61.22 99.4876 57.8331 102.477C58.6468 100.595 59.6051 98.7804 60.6986 97.0508C63.1989 93.6222 66.2578 93.1805 69.7108 92.4931L69.5273 92.4205ZM41.314 129.676C40.6974 131.089 39.7872 132.351 38.6507 133.369C37.5141 134.387 36.1803 135.135 34.7477 135.557C34.0326 135.542 33.7272 135.779 34.0994 134.944C36.5948 133.03 38.9163 131.45 41.4975 129.748L41.314 129.676Z" fill="#EEDAAE"/>
<path d="M153.971 116.682C153.971 116.4 153.971 116.131 153.971 115.849C153.971 115.284 153.971 114.719 153.971 114.168C153.984 114.021 153.973 113.872 153.938 113.731C153.904 113.59 153.847 113.461 153.772 113.35C153.696 113.24 153.604 113.152 153.501 113.092C153.397 113.031 153.285 113 153.172 113C153.059 113 152.947 113.031 152.844 113.092C152.74 113.152 152.648 113.24 152.573 113.35C152.497 113.461 152.441 113.59 152.406 113.731C152.372 113.872 152.361 114.021 152.374 114.168C152.374 114.423 152.374 114.679 152.374 114.934C152.374 115.19 152.374 115.163 152.322 115.27C152.22 115.766 152.168 116.277 152.168 116.79C152.168 116.884 152.168 116.978 152.168 117.072C152.168 117.167 152.168 117.18 152.168 117.261C152.059 117.456 152 117.692 152 117.933C152 118.175 152.059 118.41 152.168 118.606C152.219 118.735 152.298 118.842 152.397 118.912C152.495 118.981 152.607 119.011 152.718 118.996C152.829 118.982 152.934 118.924 153.02 118.83C153.106 118.737 153.168 118.611 153.198 118.471C153.371 118.464 153.537 118.386 153.674 118.248C153.811 118.111 153.911 117.92 153.961 117.705C154.009 117.367 154.013 117.021 153.971 116.682Z" fill="white"/>
<path d="M140.88 114.7C140.771 114.534 140.699 114.343 140.59 114.177L140.397 113.909L140.215 113.654C140.215 113.654 140.083 113.475 140.046 113.424C140.01 113.373 139.877 113.093 139.708 113.029C139.537 112.959 139.347 112.959 139.176 113.029C138.948 112.663 138.647 112.354 138.294 112.123C138.147 112.033 137.978 111.99 137.808 112.002C137.638 112.013 137.475 112.078 137.34 112.187C137.205 112.298 137.104 112.447 137.049 112.616C136.993 112.786 136.985 112.969 137.026 113.144C137.159 113.535 137.338 113.908 137.557 114.254C137.738 114.56 137.932 114.866 138.089 115.185V115.287V115.427L138.198 115.644C138.27 115.784 138.343 115.937 138.427 116.078C138.526 116.258 138.639 116.428 138.765 116.588C138.93 116.792 139.156 116.932 139.406 116.983C139.491 117.005 139.579 117.006 139.664 116.985C139.749 116.965 139.829 116.924 139.897 116.866C139.964 116.808 140.019 116.735 140.055 116.651C140.091 116.567 140.109 116.476 140.107 116.384H140.252C140.405 116.364 140.549 116.296 140.665 116.189C140.781 116.083 140.864 115.941 140.904 115.784C140.971 115.612 141.004 115.426 141 115.239C140.995 115.053 140.955 114.869 140.88 114.7Z" fill="white"/>
<path d="M132.55 88.0695C132.294 87.9179 132.03 87.7818 131.761 87.6619C131.685 87.5282 131.58 87.4177 131.454 87.3409C131.329 87.2641 131.187 87.2235 131.043 87.223H130.886C130.772 87.0733 130.637 86.9461 130.484 86.8468C130.004 86.5895 129.465 86.4914 128.935 86.5646L128.375 86.2824C127.841 85.9975 127.232 85.9254 126.654 86.0787C126.487 86.1333 126.337 86.239 126.223 86.3834C126.108 86.5278 126.034 86.7049 126.008 86.8938C125.984 87.0841 126.012 87.2781 126.089 87.451C126.165 87.624 126.287 87.7683 126.439 87.8657C127.307 88.3731 128.24 88.7326 129.207 88.9316L129.394 89.0257C130.326 89.5273 131.818 90.5933 132.75 89.5743C132.845 89.4691 132.915 89.3416 132.957 89.2017C132.999 89.0618 133.01 88.9132 132.991 88.7676C132.971 88.622 132.921 88.4832 132.845 88.3621C132.768 88.241 132.667 88.1409 132.55 88.0695Z" fill="white"/>
<path d="M126.99 112.574C127.003 112.445 127.003 112.315 126.99 112.186C127.002 112.068 127.002 111.949 126.99 111.831C126.926 111.703 126.846 111.58 126.751 111.466C126.694 111.38 126.614 111.307 126.517 111.251C126.421 111.195 126.31 111.159 126.194 111.144C126.076 111.057 125.927 111.006 125.77 111C125.653 110.998 125.539 111.023 125.438 111.072C125.337 111.121 125.255 111.192 125.199 111.277C125.156 111.352 125.12 111.43 125.093 111.51V111.632C125.093 111.72 125.093 111.809 125.093 111.898L125.173 111.743C125.056 111.923 124.997 112.125 125 112.33C125 112.33 125 112.408 125 112.452C125 112.729 125 113.006 125 113.283C125.004 113.47 125.094 113.649 125.253 113.782C125.411 113.914 125.625 113.99 125.849 113.992H126.022C126.221 114.017 126.424 113.98 126.593 113.888C126.762 113.796 126.884 113.656 126.937 113.494C126.944 113.435 126.944 113.375 126.937 113.316C126.937 113.061 126.99 112.795 126.99 112.574Z" fill="white"/>
<path d="M137.738 121.183C137.635 121.099 137.512 121.039 137.379 121.008C137.286 120.997 137.192 120.997 137.098 121.008H136.964H136.852C136.772 120.999 136.691 121.008 136.615 121.033C136.539 121.058 136.47 121.099 136.414 121.152C136.394 121.184 136.368 121.213 136.336 121.235C136.285 121.251 136.236 121.272 136.19 121.297H135.596C135.491 121.297 135.392 121.335 135.318 121.403C135.244 121.471 135.203 121.563 135.203 121.659C135.209 121.729 135.241 121.794 135.293 121.845L135.181 121.918C135.065 122.031 135 122.181 135 122.337C135 122.492 135.065 122.642 135.181 122.755C135.265 122.865 135.388 122.945 135.528 122.983C135.71 123.019 135.9 122.997 136.067 122.921C136.344 122.79 136.603 122.631 136.841 122.445L137.009 122.352C137.144 122.307 137.282 122.272 137.424 122.249H137.244C137.401 122.251 137.556 122.216 137.693 122.145C137.777 122.102 137.848 122.041 137.901 121.967C137.954 121.894 137.986 121.809 137.996 121.721C138.009 121.618 137.992 121.514 137.946 121.42C137.901 121.325 137.829 121.244 137.738 121.183Z" fill="white"/>
<path d="M159.953 98.8411C159.966 98.6843 159.966 98.5245 159.953 98.3676C159.953 98.1558 159.913 97.9689 159.893 97.757V97.5203V97.4206C159.896 97.3085 159.896 97.1962 159.893 97.0841C159.909 97.0402 159.918 96.9881 159.918 96.9346C159.918 96.8811 159.909 96.8289 159.893 96.7851C159.888 96.5735 159.839 96.3738 159.757 96.2275C159.674 96.0813 159.565 95.9998 159.451 96C159.333 96 159.22 96.0862 159.136 96.2401C159.052 96.394 159.004 96.6032 159.002 96.8224C159.002 97.1963 159.002 97.5576 159.002 97.9315C158.999 98.0228 158.999 98.1143 159.002 98.2056V99.1651C159.004 99.3855 159.052 99.596 159.136 99.7519C159.219 99.9078 159.333 99.9968 159.451 100C159.537 99.991 159.621 99.9388 159.693 99.8489C159.765 99.759 159.822 99.6347 159.859 99.4891C159.923 99.3951 159.972 99.27 160 99.1277V98.8411H159.953Z" fill="white"/>
<path d="M162.906 78.7868C162.997 78.6684 163.023 78.5271 162.979 78.3938C162.936 78.2605 162.825 78.1461 162.673 78.0754H162.508L162.137 78.0117C161.936 78.0007 161.734 78.0007 161.533 78.0117C161.341 77.9961 161.148 77.9961 160.956 78.0117H160.778C160.66 78.0105 160.543 78.0298 160.436 78.0685C160.329 78.1071 160.235 78.1639 160.16 78.2347C160.089 78.3101 160.042 78.3974 160.023 78.4895C159.991 78.5957 159.993 78.7064 160.028 78.8118C160.064 78.9173 160.133 79.0144 160.229 79.0946C160.384 79.2083 160.566 79.2984 160.764 79.3601C161.035 79.5643 161.329 79.749 161.643 79.9121C161.777 79.9697 161.929 80 162.082 80C162.236 80 162.387 79.9697 162.522 79.9121C162.654 79.8521 162.763 79.7668 162.84 79.6646C162.917 79.5623 162.959 79.4465 162.961 79.3282C162.96 79.1904 162.927 79.0539 162.865 78.9248L162.906 78.7868Z" fill="white"/>
<path d="M186.99 70.0169C186.983 69.8362 186.93 69.6622 186.838 69.5185C186.745 69.3749 186.618 69.2684 186.473 69.2137L186.035 69.1034C185.82 69.0565 185.603 69.0249 185.385 69.0089C185.01 68.9797 184.634 69.0223 184.271 69.1349C184.101 69.1997 183.952 69.3264 183.847 69.4972C183.745 69.4822 183.643 69.4822 183.542 69.4972C183.353 69.5633 183.194 69.7135 183.098 69.9163C183.001 70.1191 182.975 70.3585 183.024 70.5839C183.063 70.7289 183.132 70.8598 183.225 70.9645C183.317 71.0692 183.431 71.1442 183.555 71.1824L183.993 71.2927H183.794C184.051 71.3367 184.304 71.4105 184.55 71.5132C184.788 71.7057 185.046 71.8594 185.319 71.9699C185.491 72.0215 185.672 72.0065 185.837 71.9272C186.002 71.8479 186.141 71.7084 186.234 71.5289C186.302 71.4091 186.351 71.2757 186.38 71.1352C186.539 71.1234 186.689 71.0406 186.8 70.9035C186.911 70.7663 186.974 70.5848 186.977 70.3949C187.002 70.2713 187.007 70.1427 186.99 70.0169Z" fill="white"/>
<path d="M130.739 60.6216C130.534 60.4197 130.268 60.2761 129.974 60.2085H129.877L129.626 60.0833L129.098 59.7703L128.625 59.4948C128.557 59.3877 128.455 59.3007 128.333 59.2444C127.895 59.0235 127.476 58.7723 127.081 58.4932C126.873 58.3806 126.664 58.2679 126.442 58.1677C126.094 58.0104 125.697 57.9619 125.315 58.03C125.315 58.03 125.232 58.03 125.176 58.1051C124.957 58.0554 124.725 58.0782 124.523 58.1692C124.32 58.2603 124.161 58.4137 124.074 58.6015C123.986 58.7893 123.976 58.9992 124.046 59.1929C124.116 59.3867 124.26 59.5516 124.453 59.6576C125.28 60.1225 126.156 60.5125 127.068 60.8219H127.234L127.429 60.9096C127.61 60.9972 127.791 61.0849 127.958 61.185C128.28 61.3769 128.614 61.5525 128.959 61.7109C129.529 61.9613 130.349 62.2117 130.794 61.7109C130.936 61.5553 131.009 61.3578 130.999 61.1566C130.989 60.9554 130.896 60.7648 130.739 60.6216Z" fill="white"/>
<path d="M119.843 63.3051C119.876 63.3007 119.908 63.2862 119.934 63.2632C119.961 63.2402 119.98 63.2097 119.991 63.1752C120.002 63.1407 120.003 63.1037 119.995 63.0684C119.987 63.0331 119.969 63.001 119.945 62.9758C119.957 62.8802 119.957 62.7833 119.945 62.6877C119.939 62.43 119.868 62.1789 119.741 61.9605C119.719 61.9166 119.688 61.8789 119.65 61.8503C119.613 61.8216 119.569 61.803 119.523 61.7958C119.52 61.5835 119.439 61.3811 119.298 61.2322C119.157 61.0834 118.967 61 118.77 61C118.573 61.0034 118.385 61.0879 118.245 61.2361C118.104 61.3842 118.022 61.5846 118.016 61.7958C118.016 62.5779 118.016 63.36 118.016 64.1421C118.016 64.5263 118.016 64.9105 118.016 65.2947C117.964 65.7649 118.04 66.2412 118.233 66.6668C118.293 66.7688 118.376 66.8529 118.474 66.9112C118.572 66.9694 118.683 67 118.795 67C118.907 67 119.018 66.9694 119.116 66.9112C119.214 66.8529 119.297 66.7688 119.357 66.6668C119.545 66.2835 119.621 65.8483 119.574 65.4182C119.669 65.3515 119.746 65.2596 119.798 65.1513C119.849 65.043 119.873 64.9222 119.868 64.8007C119.868 64.5126 119.868 64.2381 119.792 63.95C119.715 63.6619 119.792 63.6619 119.792 63.5109C119.792 63.36 119.792 63.5109 119.792 63.5109C119.799 63.44 119.816 63.3706 119.843 63.3051Z" fill="white"/>
<path d="M136.791 72.274C136.744 72.2342 136.689 72.2018 136.63 72.1781C136.549 71.9453 136.402 71.7371 136.206 71.5754C136.015 71.4351 135.814 71.307 135.605 71.1918C135.392 71.0635 135.166 70.9534 134.931 70.863L134.638 70.7535H134.521L133.628 70.2877C133.282 70.0972 132.887 69.9978 132.485 70C132.354 70.0026 132.227 70.0401 132.118 70.108C132.009 70.176 131.923 70.2716 131.87 70.3836C131.784 70.3281 131.682 70.2994 131.577 70.3014C131.376 70.2137 131.153 70.1805 130.933 70.2055C130.754 70.2187 130.583 70.2754 130.435 70.3699C130.293 70.4687 130.19 70.6083 130.142 70.7672C129.998 71.5864 129.963 72.4193 130.039 73.2466C130.043 73.4476 130.131 73.6393 130.285 73.7802C130.438 73.9211 130.645 74 130.86 74C131.061 73.9971 131.254 73.9237 131.4 73.7944C131.547 73.6651 131.636 73.4892 131.65 73.3014C131.864 73.2944 132.067 73.2109 132.217 73.0682C132.367 72.9254 132.452 72.7343 132.456 72.5342C132.493 72.1332 132.493 71.7299 132.456 71.3288L132.954 71.6986L133.994 72.3836C134.645 72.8287 135.388 73.1414 136.176 73.3014C136.314 73.3357 136.459 73.3275 136.591 73.2782C136.723 73.2288 136.834 73.1408 136.909 73.0274C136.985 72.9084 137.015 72.7684 136.993 72.6312C136.972 72.4939 136.901 72.3678 136.791 72.274Z" fill="white"/>
<path d="M183.96 130.025C183.878 129.744 183.753 129.483 183.59 129.254L183.398 129.096C183.308 129.009 183.212 128.93 183.11 128.86C182.92 128.719 182.704 128.628 182.479 128.593L182.219 128.452C182.175 128.35 182.109 128.263 182.027 128.2C181.839 128.083 181.642 127.988 181.437 127.917C180.8 127.477 180.081 127.218 179.339 127.162C179.215 127.168 179.095 127.217 178.996 127.303C178.927 127.26 178.862 127.207 178.804 127.146C178.711 127.052 178.592 127 178.468 127C178.344 127 178.225 127.052 178.132 127.146C178.047 127.251 178 127.388 178 127.531C178 127.674 178.047 127.812 178.132 127.917C178.38 128.229 178.698 128.458 179.051 128.577C179.598 129.041 180.224 129.367 180.889 129.537L181.108 129.616H181.231C181.433 129.707 181.63 129.812 181.821 129.93C182.205 130.11 182.545 130.397 182.809 130.764C183.234 131.362 184.207 130.717 183.96 130.025Z" fill="white"/>
<path d="M158.687 145.881C158.634 145.62 158.545 145.37 158.421 145.137C158.35 145.011 158.269 144.891 158.181 144.778C158.181 144.565 158.105 144.339 158.08 144.14V144.313C158.072 144.164 158.033 144.019 157.966 143.887L158.055 144.087C158.049 144.038 158.049 143.989 158.055 143.94C158.017 143.771 157.926 143.619 157.797 143.511C157.667 143.403 157.506 143.344 157.341 143.344C157.175 143.344 157.014 143.403 156.885 143.511C156.755 143.619 156.664 143.771 156.627 143.94C156.621 143.993 156.621 144.047 156.627 144.1C156.627 144.1 156.627 144.206 156.627 144.26V144.1C156.482 144.209 156.372 144.362 156.311 144.539C156.235 144.844 156.235 145.164 156.311 145.469C156.33 145.564 156.355 145.657 156.387 145.748C156.433 145.912 156.501 146.069 156.589 146.213C156.761 146.492 156.984 146.732 157.246 146.918C157.336 147.068 157.451 147.199 157.587 147.303C157.7 147.365 157.826 147.397 157.954 147.397C158.081 147.397 158.207 147.365 158.32 147.303C158.438 147.26 158.544 147.186 158.628 147.089C158.712 146.991 158.771 146.873 158.8 146.745C158.812 146.452 158.774 146.16 158.687 145.881Z" fill="white"/>
<path d="M161.892 135.018C161.779 134.729 161.595 134.492 161.365 134.341C161.13 134.193 160.873 134.109 160.609 134.093C160.461 134.067 160.311 134.067 160.163 134.093H160.082H159.826C159.72 134.018 159.597 133.987 159.475 134.005C159.353 134.023 159.24 134.088 159.151 134.192C159.07 134.303 159.019 134.442 159.004 134.589C158.99 134.737 159.013 134.887 159.07 135.018C159.131 135.103 159.199 135.181 159.272 135.249C159.379 135.382 159.508 135.483 159.65 135.546C159.921 135.987 160.228 136.391 160.568 136.752C160.699 136.907 160.873 136.996 161.055 137C161.237 136.999 161.412 136.91 161.541 136.752C161.626 136.637 161.682 136.493 161.703 136.339C161.76 136.309 161.812 136.264 161.854 136.207C161.896 136.15 161.927 136.082 161.946 136.009C162.034 135.683 162.014 135.327 161.892 135.018Z" fill="white"/>
<path d="M138.962 175.809C138.962 175.594 138.89 175.388 138.76 175.237C138.63 175.085 138.455 175 138.272 175C138.088 175 137.913 175.085 137.783 175.237C137.653 175.388 137.581 175.594 137.581 175.809C137.581 175.97 137.581 176.132 137.581 176.294V176.514C137.51 176.789 137.426 177.059 137.33 177.323C137.092 177.92 136.98 178.575 137.003 179.234C137 179.378 137.033 179.52 137.098 179.643C137.163 179.767 137.256 179.865 137.368 179.927C137.479 179.989 137.604 180.012 137.726 179.994C137.849 179.975 137.964 179.915 138.058 179.822C138.136 179.871 138.221 179.901 138.309 179.91C138.452 179.893 138.588 179.826 138.699 179.719C138.831 179.462 138.932 179.185 139 178.896C138.962 177.793 138.937 176.764 138.962 175.809Z" fill="white"/>
<path d="M134.877 162.247C134.807 162.147 134.711 162.073 134.602 162.033C134.493 161.993 134.375 161.989 134.264 162.023C134.072 162.08 133.889 162.171 133.723 162.292C133.52 162.436 133.326 162.594 133.141 162.763C132.967 162.909 132.814 163.055 132.66 163.212C132.507 163.369 132.436 163.481 132.313 163.605C132.218 163.672 132.141 163.764 132.088 163.874C132.015 164.018 131.986 164.185 132.006 164.349C132.027 164.513 132.095 164.665 132.201 164.783C132.285 164.869 132.387 164.935 132.497 164.973C132.584 165 132.675 165.007 132.765 164.993C132.854 164.98 132.941 164.946 133.018 164.895L133.161 164.783L133.284 164.671C133.332 164.622 133.374 164.565 133.406 164.502C133.544 164.488 133.677 164.438 133.794 164.356C133.973 164.246 134.132 164.102 134.264 163.93C134.505 163.621 134.727 163.295 134.928 162.954C134.983 162.843 135.007 162.718 134.998 162.592C134.989 162.467 134.947 162.347 134.877 162.247Z" fill="white"/>
<path d="M150.613 164.433L150.439 164.261C150.429 164.239 150.429 164.215 150.439 164.192V164.135C150.439 164.135 150.439 164.055 150.439 164.135C150.459 164.028 150.433 163.919 150.366 163.825C150.284 163.724 150.161 163.647 150.016 163.608C149.911 163.585 149.801 163.585 149.696 163.608C149.621 163.448 149.501 163.303 149.346 163.183C149.189 163.074 148.988 163.009 148.778 163C148.608 163.004 148.444 163.052 148.312 163.138C148.22 163.196 148.146 163.269 148.093 163.352C148.04 163.435 148.011 163.526 148.006 163.619C148.006 163.619 148.006 163.619 148.006 163.676C147.999 163.703 147.999 163.73 148.006 163.757C147.998 163.798 147.998 163.841 148.006 163.883C148.024 163.927 148.049 163.969 148.079 164.009C148.254 164.341 148.399 164.685 148.618 165.006C148.739 165.189 148.897 165.355 149.084 165.499C149.219 165.586 149.36 165.666 149.506 165.74L149.608 165.832C149.692 165.896 149.793 165.945 149.904 165.972C150.016 166 150.134 166.007 150.249 165.992C150.365 165.981 150.476 165.949 150.574 165.899C150.673 165.85 150.756 165.784 150.817 165.706C150.966 165.505 151.026 165.272 150.989 165.042C150.953 164.812 150.82 164.598 150.613 164.433Z" fill="white"/>
</svg>
