<svg width="1036" height="603" viewBox="0 0 1036 603" fill="none" xmlns="http://www.w3.org/2000/svg">
<rect x="1" y="86" width="1034" height="516" rx="9" stroke="#E13A4B" stroke-width="2"/>
<rect x="10" y="94" width="1016" height="497" rx="9" stroke="#E13A4B" stroke-width="2"/>
<mask id="path-3-inside-1_43_10" fill="white">
<path d="M575.821 41.5021C575.85 41.4959 575.878 41.4876 575.905 41.4773C583.001 40.8702 586.831 37.9092 587 37.7775L585.903 36.3628C585.614 36.5698 585.313 36.761 585.003 36.9355V36.4048C584.993 36.1737 584.894 35.9557 584.728 35.7959C584.562 35.6362 584.342 35.547 584.112 35.547C583.883 35.547 583.662 35.6362 583.496 35.7959C583.33 35.9557 583.231 36.1737 583.221 36.4048V37.8347C582.88 37.9836 582.508 38.1364 582.107 38.2853V37.388C582.112 37.2666 582.094 37.1452 582.051 37.0314C582.009 36.9175 581.944 36.8135 581.861 36.7256C581.778 36.6376 581.677 36.5677 581.567 36.5198C581.456 36.472 581.336 36.4474 581.216 36.4474C581.095 36.4474 580.976 36.472 580.865 36.5198C580.754 36.5677 580.654 36.6376 580.57 36.7256C580.487 36.8135 580.422 36.9175 580.38 37.0314C580.338 37.1452 580.319 37.2666 580.324 37.388V38.8618C580.012 38.9496 579.688 39.033 579.351 39.1119V38.1364C579.34 37.9053 579.242 37.6872 579.076 37.5275C578.91 37.3677 578.689 37.2786 578.459 37.2786C578.23 37.2786 578.009 37.3677 577.843 37.5275C577.677 37.6872 577.579 37.9053 577.568 38.1364V39.4594C577.237 39.5109 576.897 39.5586 576.547 39.6006V38.5946C576.547 38.3566 576.453 38.1283 576.286 37.9601C576.119 37.7918 575.893 37.6973 575.657 37.6973C575.42 37.6973 575.194 37.7918 575.027 37.9601C574.86 38.1283 574.766 38.3566 574.766 38.5946V39.74H574.605C569.06 39.9825 565.668 35.2326 564.489 33.2338C564.385 32.9951 564.283 32.7508 564.184 32.4988H564.961V31.4698H562.938V30.2537H564.961V29.2246H554.824V26.6493H553.815C554.905 26.1615 555.963 25.6029 556.982 24.9769L561.042 22.4759V19.8566C561.042 19.8566 556.321 21.8574 551.117 21.4068C551.146 21.4019 551.173 21.3942 551.2 21.3839C558.297 20.7768 562.127 17.8158 562.296 17.6841L561.199 16.2675C560.91 16.4797 560.61 16.6748 560.299 16.8517V16.3267C560.288 16.0956 560.19 15.8776 560.024 15.7178C559.858 15.5581 559.637 15.4689 559.408 15.4689C559.178 15.4689 558.958 15.5581 558.792 15.7178C558.626 15.8776 558.527 16.0956 558.516 16.3267V17.7566C558.175 17.9055 557.804 18.0583 557.403 18.2072V17.3099C557.408 17.1885 557.389 17.0671 557.347 16.9533C557.305 16.8394 557.24 16.7354 557.157 16.6475C557.073 16.5595 556.973 16.4896 556.862 16.4417C556.751 16.3939 556.632 16.3693 556.511 16.3693C556.391 16.3693 556.271 16.3939 556.16 16.4417C556.049 16.4896 555.949 16.5595 555.866 16.6475C555.783 16.7354 555.718 16.8394 555.676 16.9533C555.633 17.0671 555.614 17.1885 555.62 17.3099V18.7837C555.307 18.8715 554.982 18.9549 554.646 19.0338V18.0449C554.652 17.9235 554.633 17.8021 554.591 17.6883C554.548 17.5744 554.484 17.4704 554.4 17.3825C554.317 17.2945 554.217 17.2246 554.106 17.1768C553.995 17.1289 553.876 17.1043 553.755 17.1043C553.634 17.1043 553.515 17.1289 553.404 17.1768C553.293 17.2246 553.193 17.2945 553.11 17.3825C553.026 17.4704 552.962 17.5744 552.919 17.6883C552.877 17.8021 552.858 17.9235 552.864 18.0449V19.3813C552.532 19.4347 552.193 19.4825 551.843 19.5245V18.5184C551.843 18.2804 551.749 18.0522 551.582 17.8839C551.415 17.7156 551.188 17.6211 550.952 17.6211C550.716 17.6211 550.49 17.7156 550.323 17.8839C550.156 18.0522 550.062 18.2804 550.062 18.5184V19.6638H549.901C544.362 19.9044 540.971 15.1698 539.789 13.1729C539.683 12.9304 539.579 12.6841 539.48 12.4302H540.257V11.4012H538.234V10.1851H540.257V9.15609H536.11V7.51998H531.817V4.10841H529.817V1.04238H524.769V4.76896H528.235V2.35011H526.06V3.02403H527.566V4.09504H525.435V1.71439H529.148V5.29397H524.123V1.04238H518.729V3.24549H518.333V0.67201H524.104V0H511.722V0.67201H517.667V3.23976H517.077V1.04238H511.684V5.29397H506.657V1.71439H510.37V4.09504H508.24V3.02403H509.744V2.35011H507.573V4.76896H511.04V1.04238H506.001V4.10841H503.991V7.51426H499.697V9.15036H495.595V10.1794H497.477V11.3955H495.603V12.4245H496.38C496.279 12.6784 496.177 12.9266 496.071 13.1671C494.889 15.1717 491.498 19.9082 485.957 19.6581H485.798V18.5126C485.798 18.2747 485.704 18.0464 485.537 17.8782C485.37 17.7099 485.144 17.6154 484.908 17.6154C484.671 17.6154 484.445 17.7099 484.278 17.8782C484.111 18.0464 484.017 18.2747 484.017 18.5126V19.5187C483.667 19.4767 483.328 19.429 482.996 19.3755V18.0449C483.002 17.9235 482.983 17.8021 482.94 17.6883C482.898 17.5744 482.833 17.4704 482.75 17.3825C482.667 17.2945 482.567 17.2246 482.456 17.1768C482.345 17.1289 482.225 17.1043 482.105 17.1043C481.984 17.1043 481.865 17.1289 481.754 17.1768C481.643 17.2246 481.543 17.2945 481.46 17.3825C481.376 17.4704 481.311 17.5744 481.269 17.6883C481.227 17.8021 481.208 17.9235 481.214 18.0449V19.0205C480.876 18.9428 480.551 18.8595 480.238 18.7704V17.2965C480.238 17.0586 480.144 16.8303 479.977 16.6621C479.81 16.4938 479.584 16.3993 479.348 16.3993C479.111 16.3993 478.885 16.4938 478.718 16.6621C478.551 16.8303 478.457 17.0586 478.457 17.2965V18.1938C478.054 18.0449 477.682 17.8922 477.343 17.7433V16.3267C477.333 16.0956 477.234 15.8776 477.068 15.7178C476.902 15.5581 476.682 15.4689 476.452 15.4689C476.223 15.4689 476.002 15.5581 475.836 15.7178C475.67 15.8776 475.571 16.0956 475.561 16.3267V16.8574C475.251 16.6832 474.952 16.492 474.663 16.2847L473.564 17.6994C473.731 17.8311 477.561 20.7921 484.659 21.3992C484.686 21.4095 484.714 21.4172 484.743 21.4221C479.539 21.8727 474.818 19.8719 474.818 19.8719V22.4912L478.878 24.9922C479.896 25.6182 480.955 26.1768 482.045 26.6645H481.185V29.2647H471.05V30.2937H473.072V31.5099H471.041V32.5389H471.816C471.717 32.7909 471.615 33.0352 471.511 33.2739C470.332 35.2727 466.94 40.0226 461.395 39.7801H461.236V38.6346C461.225 38.4036 461.127 38.1855 460.961 38.0258C460.795 37.866 460.574 37.7769 460.344 37.7769C460.115 37.7769 459.894 37.866 459.728 38.0258C459.562 38.1855 459.464 38.4036 459.453 38.6346V39.6178C459.103 39.5758 458.764 39.5281 458.432 39.4766V38.1536C458.421 37.9225 458.323 37.7044 458.157 37.5447C457.991 37.3849 457.77 37.2958 457.541 37.2958C457.311 37.2958 457.09 37.3849 456.924 37.5447C456.759 37.7044 456.66 37.9225 456.649 38.1536V39.1291C456.312 39.0515 455.988 38.9681 455.676 38.879V37.4052C455.681 37.2837 455.662 37.1624 455.62 37.0486C455.578 36.9347 455.513 36.8307 455.43 36.7428C455.346 36.6548 455.246 36.5848 455.135 36.537C455.024 36.4892 454.905 36.4646 454.784 36.4646C454.664 36.4646 454.544 36.4892 454.433 36.537C454.323 36.5848 454.222 36.6548 454.139 36.7428C454.056 36.8307 453.991 36.9347 453.949 37.0486C453.906 37.1624 453.888 37.2837 453.893 37.4052V38.3025C453.492 38.1535 453.12 38.0008 452.779 37.8519V36.422C452.779 36.184 452.685 35.9558 452.518 35.7875C452.351 35.6192 452.125 35.5247 451.889 35.5247C451.653 35.5247 451.426 35.6192 451.259 35.7875C451.092 35.9558 450.999 36.184 450.999 36.422V36.9451C450.688 36.7702 450.387 36.579 450.097 36.3723L449 37.787C449.169 37.9187 452.999 40.8798 460.095 41.4868C460.122 41.4969 460.15 41.5052 460.179 41.5117C454.975 41.9603 450.256 39.9596 450.256 39.9596V42.5789L454.314 45.0798C458.652 47.7503 463.637 49.1633 468.72 49.1634H464.82V50.1905H466.566V80.446H465.898V82.3819H464.933V86.832H472.875V82.3819H471.912V80.4327H471.244V52.7277H491.121V80.6007H490.452V82.5499H489.49V86.9981H497.431V82.5499H496.467V80.6007H495.8V45.664H496.598V47.0634H500.792V41.9699H503.728V43.9706H502.038V43.207H502.557V43.5067H503.226V42.535H501.369V44.6483H504.4V43.312H531.465V44.6483H534.496V42.5311H532.64V43.5029H533.306V43.2031H533.827V43.9668H532.138V41.9699H535.07V47.0634H539.266V45.6659H540.064V80.6026H539.395V82.5518H538.433V87H546.374V82.5518H545.404V80.6026H544.735V52.7296H564.762V80.4403H564.093V82.3819H563.131V86.832H571.072V82.3819H570.108V80.4327H569.441V50.1828H571.186V49.1634H567.285C572.366 49.1609 577.347 47.7473 581.683 45.0779L585.742 42.577V39.95C585.742 39.95 581.018 41.9508 575.821 41.5021ZM536.419 38.5736V36.8878H537.959V37.4605H537.533V37.1837H536.864V38.1383H538.628V37.6705H540.056V38.5812L536.419 38.5736ZM495.804 38.5736V37.6629H497.319V38.1306H499.081V37.1761H498.424V37.4529H497.998V36.8802H499.54V38.5659L495.804 38.5736ZM490.879 30.2785V31.4946H489.331V30.2785H490.879ZM501.921 10.1851V11.4012H500.362V10.1851H501.921ZM536.006 31.5996V30.0837H537.565V31.5996H536.006ZM538.624 34.9214V34.2189H540.052V36.9833H538.624V36.2101H537.51V34.9214H538.624ZM536.841 36.2101H535.743V36.9833H534.238V34.2246H535.743V34.9272H536.837L536.841 36.2101ZM499.104 36.2101V34.9214H500.199V34.2189H501.61V36.9833H500.199V36.2101H499.104ZM497.323 36.2101V36.9833H495.808V34.2246H497.323V34.9272H498.437V36.2158L497.323 36.2101ZM533.778 31.5996V30.0837H535.337V31.5996H533.778ZM533.109 31.5996H531.55V30.0837H533.109V31.5996ZM530.882 31.5996H529.323V30.0837H530.882V31.5996ZM528.656 31.5996H527.095V30.0837H528.656V31.5996ZM526.428 31.5996H524.869V30.0837H526.428V31.5996ZM524.2 31.5996H522.641V30.0837H524.2V31.5996ZM521.972 31.5996H520.413V30.0837H521.972V31.5996ZM519.745 31.5996H518.186V30.0837H519.745V31.5996ZM517.517 31.5996H515.958V30.0837H517.517V31.5996ZM515.284 31.5996H513.724V30.0837H515.284V31.5996ZM513.056 31.5996H511.495V30.0837H513.054L513.056 31.5996ZM510.83 31.5996H509.271V30.0837H510.83V31.5996ZM508.602 31.5996H507.043V30.0837H508.602V31.5996ZM506.38 31.5996H504.821V30.0837H506.38V31.5996ZM504.152 31.5996H502.591V30.0837H504.15L504.152 31.5996ZM501.925 31.5996H500.365V30.0837H501.925V31.5996ZM499.697 31.5996H498.138V30.0837H499.697V31.5996ZM497.477 31.5996H495.808V30.0837H497.477V31.5996ZM499.54 32.6286V34.2494H497.998V33.6767H498.424V33.9535H499.092V32.999H497.331V33.5373H495.815V32.6209L499.54 32.6286ZM501.623 33.545H500.212V32.6286H501.623V33.545ZM535.76 33.545H534.255V32.6286H535.743L535.76 33.545ZM515.958 13.6349V25.3835C515.952 25.4685 515.914 25.5479 515.852 25.6059C515.79 25.6638 515.708 25.696 515.624 25.696C515.539 25.696 515.458 25.6638 515.396 25.6059C515.334 25.5479 515.296 25.4685 515.289 25.3835V13.6349C515.296 13.5499 515.334 13.4704 515.396 13.4125C515.458 13.3545 515.539 13.3223 515.624 13.3223C515.708 13.3223 515.79 13.3545 515.852 13.4125C515.914 13.4704 515.952 13.5499 515.958 13.6349ZM513.73 13.6349V25.3835C513.724 25.4685 513.686 25.5479 513.624 25.6059C513.562 25.6638 513.48 25.696 513.396 25.696C513.311 25.696 513.23 25.6638 513.168 25.6059C513.106 25.5479 513.068 25.4685 513.061 25.3835V13.6349C513.068 13.5499 513.106 13.4704 513.168 13.4125C513.23 13.3545 513.311 13.3223 513.396 13.3223C513.48 13.3223 513.562 13.3545 513.624 13.4125C513.686 13.4704 513.724 13.5499 513.73 13.6349ZM511.502 13.6349V25.3835C511.502 25.4726 511.467 25.5581 511.405 25.6211C511.342 25.6841 511.257 25.7195 511.169 25.7195C511.081 25.7195 510.996 25.6841 510.933 25.6211C510.871 25.5581 510.836 25.4726 510.836 25.3835V13.6349C510.836 13.5458 510.871 13.4603 510.933 13.3973C510.996 13.3343 511.081 13.2989 511.169 13.2989C511.257 13.2989 511.342 13.3343 511.405 13.3973C511.467 13.4603 511.502 13.5458 511.502 13.6349ZM509.276 13.6349V25.3835C509.27 25.4685 509.232 25.5479 509.17 25.6059C509.108 25.6638 509.027 25.696 508.942 25.696C508.858 25.696 508.776 25.6638 508.714 25.6059C508.652 25.5479 508.614 25.4685 508.608 25.3835V13.6349C508.614 13.5499 508.652 13.4704 508.714 13.4125C508.776 13.3545 508.858 13.3223 508.942 13.3223C509.027 13.3223 509.108 13.3545 509.17 13.4125C509.232 13.4704 509.27 13.5499 509.276 13.6349ZM507.049 13.6349V25.3835C507.042 25.4685 507.004 25.5479 506.942 25.6059C506.88 25.6638 506.799 25.696 506.714 25.696C506.63 25.696 506.548 25.6638 506.486 25.6059C506.424 25.5479 506.386 25.4685 506.38 25.3835V13.6349C506.386 13.5499 506.424 13.4704 506.486 13.4125C506.548 13.3545 506.63 13.3223 506.714 13.3223C506.799 13.3223 506.88 13.3545 506.942 13.4125C507.004 13.4704 507.042 13.5499 507.049 13.6349ZM504.821 13.6349V25.3835C504.815 25.4685 504.777 25.5479 504.715 25.6059C504.653 25.6638 504.571 25.696 504.487 25.696C504.402 25.696 504.321 25.6638 504.259 25.6059C504.197 25.5479 504.159 25.4685 504.152 25.3835V13.6349C504.159 13.5499 504.197 13.4704 504.259 13.4125C504.321 13.3545 504.402 13.3223 504.487 13.3223C504.571 13.3223 504.653 13.3545 504.715 13.4125C504.777 13.4704 504.815 13.5499 504.821 13.6349ZM502.593 13.6349V25.3835C502.587 25.4685 502.549 25.5479 502.487 25.6059C502.425 25.6638 502.343 25.696 502.259 25.696C502.174 25.696 502.093 25.6638 502.031 25.6059C501.969 25.5479 501.931 25.4685 501.925 25.3835V13.6349C501.931 13.5499 501.969 13.4704 502.031 13.4125C502.093 13.3545 502.174 13.3223 502.259 13.3223C502.343 13.3223 502.425 13.3545 502.487 13.4125C502.549 13.4704 502.587 13.5499 502.593 13.6349ZM500.365 13.6349V25.3835C500.359 25.4685 500.321 25.5479 500.259 25.6059C500.197 25.6638 500.116 25.696 500.031 25.696C499.947 25.696 499.865 25.6638 499.803 25.6059C499.741 25.5479 499.703 25.4685 499.697 25.3835V13.6349C499.703 13.5499 499.741 13.4704 499.803 13.4125C499.865 13.3545 499.947 13.3223 500.031 13.3223C500.116 13.3223 500.197 13.3545 500.259 13.4125C500.321 13.4704 500.359 13.5499 500.365 13.6349ZM537.898 15.0304C537.987 15.0304 538.073 15.066 538.135 15.1294C538.198 15.1928 538.234 15.2787 538.234 15.3683V25.3835C538.227 25.4685 538.189 25.5479 538.127 25.6059C538.065 25.6638 537.984 25.696 537.899 25.696C537.815 25.696 537.733 25.6638 537.671 25.6059C537.609 25.5479 537.571 25.4685 537.565 25.3835V15.3721C537.564 15.3275 537.572 15.2832 537.589 15.2418C537.605 15.2004 537.629 15.1627 537.661 15.1308C537.692 15.099 537.729 15.0738 537.769 15.0565C537.81 15.0393 537.854 15.0304 537.898 15.0304ZM536.004 13.6349V25.3835C535.998 25.4685 535.96 25.5479 535.898 25.6059C535.836 25.6638 535.754 25.696 535.67 25.696C535.585 25.696 535.504 25.6638 535.442 25.6059C535.38 25.5479 535.342 25.4685 535.335 25.3835V13.6349C535.342 13.5499 535.38 13.4704 535.442 13.4125C535.504 13.3545 535.585 13.3223 535.67 13.3223C535.754 13.3223 535.836 13.3545 535.898 13.4125C535.96 13.4704 535.998 13.5499 536.004 13.6349ZM533.776 13.6349V25.3835C533.77 25.4685 533.732 25.5479 533.67 25.6059C533.608 25.6638 533.526 25.696 533.442 25.696C533.357 25.696 533.276 25.6638 533.214 25.6059C533.152 25.5479 533.114 25.4685 533.107 25.3835V13.6349C533.114 13.5499 533.152 13.4704 533.214 13.4125C533.276 13.3545 533.357 13.3223 533.442 13.3223C533.526 13.3223 533.608 13.3545 533.67 13.4125C533.732 13.4704 533.77 13.5499 533.776 13.6349ZM531.548 13.6349V25.3835C531.542 25.4685 531.504 25.5479 531.442 25.6059C531.38 25.6638 531.299 25.696 531.214 25.696C531.13 25.696 531.048 25.6638 530.986 25.6059C530.924 25.5479 530.886 25.4685 530.88 25.3835V13.6349C530.886 13.5499 530.924 13.4704 530.986 13.4125C531.048 13.3545 531.13 13.3223 531.214 13.3223C531.299 13.3223 531.38 13.3545 531.442 13.4125C531.504 13.4704 531.542 13.5499 531.548 13.6349ZM529.321 13.6349V25.3835C529.321 25.4726 529.286 25.5581 529.223 25.6211C529.16 25.6841 529.076 25.7195 528.987 25.7195C528.899 25.7195 528.814 25.6841 528.752 25.6211C528.689 25.5581 528.654 25.4726 528.654 25.3835V13.6349C528.654 13.5458 528.689 13.4603 528.752 13.3973C528.814 13.3343 528.899 13.2989 528.987 13.2989C529.076 13.2989 529.16 13.3343 529.223 13.3973C529.286 13.4603 529.321 13.5458 529.321 13.6349ZM527.093 13.6349V25.3835C527.093 25.4726 527.058 25.5581 526.995 25.6211C526.933 25.6841 526.848 25.7195 526.759 25.7195C526.671 25.7195 526.586 25.6841 526.524 25.6211C526.461 25.5581 526.426 25.4726 526.426 25.3835V13.6349C526.426 13.5458 526.461 13.4603 526.524 13.3973C526.586 13.3343 526.671 13.2989 526.759 13.2989C526.848 13.2989 526.933 13.3343 526.995 13.3973C527.058 13.4603 527.093 13.5458 527.093 13.6349ZM524.867 13.6349V25.3835C524.861 25.4685 524.823 25.5479 524.761 25.6059C524.699 25.6638 524.617 25.696 524.533 25.696C524.448 25.696 524.367 25.6638 524.305 25.6059C524.243 25.5479 524.205 25.4685 524.198 25.3835V13.6349C524.205 13.5499 524.243 13.4704 524.305 13.4125C524.367 13.3545 524.448 13.3223 524.533 13.3223C524.617 13.3223 524.699 13.3545 524.761 13.4125C524.823 13.4704 524.861 13.5499 524.867 13.6349ZM522.639 13.6349V25.3835C522.633 25.4685 522.595 25.5479 522.533 25.6059C522.471 25.6638 522.389 25.696 522.305 25.696C522.22 25.696 522.139 25.6638 522.077 25.6059C522.015 25.5479 521.977 25.4685 521.971 25.3835V13.6349C521.977 13.5499 522.015 13.4704 522.077 13.4125C522.139 13.3545 522.22 13.3223 522.305 13.3223C522.389 13.3223 522.471 13.3545 522.533 13.4125C522.595 13.4704 522.633 13.5499 522.639 13.6349ZM520.412 13.6349V25.3835C520.405 25.4685 520.367 25.5479 520.305 25.6059C520.243 25.6638 520.162 25.696 520.077 25.696C519.993 25.696 519.911 25.6638 519.849 25.6059C519.787 25.5479 519.749 25.4685 519.743 25.3835V13.6349C519.749 13.5499 519.787 13.4704 519.849 13.4125C519.911 13.3545 519.993 13.3223 520.077 13.3223C520.162 13.3223 520.243 13.3545 520.305 13.4125C520.367 13.4704 520.405 13.5499 520.412 13.6349ZM517.515 13.6349C517.521 13.5499 517.559 13.4704 517.621 13.4125C517.683 13.3545 517.765 13.3223 517.849 13.3223C517.934 13.3223 518.015 13.3545 518.077 13.4125C518.139 13.4704 518.177 13.5499 518.184 13.6349V25.3835C518.177 25.4685 518.139 25.5479 518.077 25.6059C518.015 25.6638 517.934 25.696 517.849 25.696C517.765 25.696 517.683 25.6638 517.621 25.6059C517.559 25.5479 517.521 25.4685 517.515 25.3835V13.6349ZM539.791 25.3835V17.4722C539.797 17.3872 539.835 17.3078 539.897 17.2498C539.959 17.1918 540.041 17.1596 540.125 17.1596C540.21 17.1596 540.291 17.1918 540.353 17.2498C540.415 17.3078 540.453 17.3872 540.459 17.4722V25.3931C540.453 25.478 540.415 25.5575 540.353 25.6154C540.291 25.6734 540.21 25.7056 540.125 25.7056C540.041 25.7056 539.959 25.6734 539.897 25.6154C539.835 25.5575 539.797 25.478 539.791 25.3931V25.3835ZM508.606 10.1851V11.4012H507.047V10.1851H508.606ZM509.275 10.1851H510.834V11.4012H509.275V10.1851ZM511.5 10.1851H513.06V11.4012H511.495L511.5 10.1851ZM513.728 10.1851H515.284V11.4012H513.724L513.728 10.1851ZM515.956 10.1851H517.515V11.4012H515.956V10.1851ZM527.093 11.4012V10.1851H528.654V11.4012H527.093ZM526.426 11.4012H524.867V10.1851H526.426V11.4012ZM524.198 11.4012H522.639V10.1851H524.198V11.4012ZM521.971 11.4012H520.412V10.1851H521.971V11.4012ZM519.743 11.4012H518.184V10.1851H519.743V11.4012ZM533.776 11.4012V10.1851H535.335V11.4012H533.776ZM533.107 11.4012H531.548V10.1851H533.107V11.4012ZM530.88 11.4012H529.321V10.1851H530.88V11.4012ZM506.378 11.4012H504.819V10.1851H506.38L506.378 11.4012ZM504.15 11.4012H502.591V10.1851H504.15V11.4012ZM498.138 15.3721V25.3873C498.131 25.4723 498.093 25.5517 498.031 25.6097C497.969 25.6677 497.888 25.6999 497.803 25.6999C497.719 25.6999 497.637 25.6677 497.575 25.6097C497.513 25.5517 497.475 25.4723 497.469 25.3873V15.3721C497.466 15.3258 497.472 15.2792 497.487 15.2353C497.502 15.1914 497.526 15.1511 497.557 15.117C497.589 15.0829 497.627 15.0557 497.669 15.0371C497.712 15.0185 497.757 15.0089 497.803 15.0089C497.849 15.0089 497.895 15.0185 497.937 15.0371C497.98 15.0557 498.018 15.0829 498.049 15.117C498.081 15.1511 498.105 15.1914 498.12 15.2353C498.135 15.2792 498.141 15.3258 498.138 15.3721ZM495.91 17.4722V25.3931C495.91 25.4822 495.875 25.5676 495.812 25.6307C495.75 25.6937 495.665 25.7291 495.577 25.7291C495.488 25.7291 495.403 25.6937 495.341 25.6307C495.278 25.5676 495.243 25.4822 495.243 25.3931V17.4722C495.243 17.3831 495.278 17.2976 495.341 17.2346C495.403 17.1716 495.488 17.1362 495.577 17.1362C495.665 17.1362 495.75 17.1716 495.812 17.2346C495.875 17.2976 495.91 17.3831 495.91 17.4722ZM500.199 37.6725H501.61V38.5831H500.199V37.6725ZM534.242 37.6725H535.743V38.5831H534.238L534.242 37.6725ZM540.052 33.5602H538.624V33.0123H536.86V33.9669H537.529V33.6901H537.955V34.2628H536.415V32.642H540.052V33.5602ZM540.052 31.6149H538.234V30.099H540.052V31.6149ZM537.565 11.4012H536.006V10.1851H537.565V11.4012ZM529.817 5.96788V4.78614H531.143V8.1939H535.438V9.14846H530.114V6.55589H527.119V5.96788H529.817ZM518.729 3.9175V5.96597H522.355V2.31384H519.79V4.24968H520.459V2.98776H521.688V5.29397H519.398V1.71439H523.454V5.96788H526.46V6.55589H518.333V3.9175H518.729ZM512.353 5.96597V1.71439H516.42V5.29397H514.13V2.98776H515.359V4.24968H516.026V2.31384H513.461V5.96788H517.087V3.9175H517.676V6.55397H509.362V5.96597H512.353ZM500.365 8.1939H504.66V4.78614H505.986V5.96788H508.678V6.55589H505.874V9.15609H500.365V8.1939ZM498.138 10.1851H499.697V11.4012H498.138V10.1851ZM488.655 30.2785V31.4946H487.095V30.2785H488.655ZM486.427 30.2785V31.4946H484.868V30.2785H486.427ZM484.201 30.2785V31.4946H482.642V30.2785H484.201ZM480.412 30.2785H481.971V31.4946H480.412V30.2785ZM478.184 30.2785H479.744V31.4946H478.184V30.2785ZM475.957 30.2785H477.516V31.4946H475.957V30.2785ZM473.729 30.2785H475.288V31.4946H473.729V30.2785ZM471.168 45.8129C471.124 45.8131 471.08 45.8046 471.04 45.7879C470.999 45.7711 470.962 45.7464 470.931 45.7152C470.9 45.6839 470.875 45.6468 470.858 45.6059C470.841 45.565 470.832 45.5212 470.832 45.4769V37.556C470.839 37.471 470.877 37.3916 470.939 37.3336C471.001 37.2757 471.082 37.2435 471.167 37.2435C471.251 37.2435 471.333 37.2757 471.395 37.3336C471.457 37.3916 471.495 37.471 471.501 37.556V45.4769C471.501 45.5657 471.466 45.6508 471.404 45.7138C471.342 45.7768 471.258 45.8124 471.17 45.8129H471.168ZM473.062 51.6987H471.244V50.1828H473.062V51.6987ZM473.731 45.4769C473.724 45.5619 473.686 45.6413 473.624 45.6993C473.562 45.7572 473.481 45.7894 473.396 45.7894C473.312 45.7894 473.23 45.7572 473.168 45.6993C473.106 45.6413 473.068 45.5619 473.062 45.4769V35.4617C473.059 35.4153 473.065 35.3687 473.08 35.3248C473.095 35.2809 473.119 35.2406 473.151 35.2065C473.182 35.1724 473.22 35.1452 473.262 35.1266C473.305 35.108 473.35 35.0984 473.396 35.0984C473.443 35.0984 473.488 35.108 473.531 35.1266C473.573 35.1452 473.611 35.1724 473.642 35.2065C473.674 35.2406 473.698 35.2809 473.713 35.3248C473.728 35.3687 473.734 35.4153 473.731 35.4617V45.4769ZM475.29 51.6987H473.731V50.1828H475.29V51.6987ZM475.959 45.4769C475.952 45.5619 475.914 45.6413 475.852 45.6993C475.79 45.7572 475.709 45.7894 475.624 45.7894C475.54 45.7894 475.458 45.7572 475.396 45.6993C475.334 45.6413 475.296 45.5619 475.29 45.4769V33.7282C475.296 33.6433 475.334 33.5638 475.396 33.5059C475.458 33.4479 475.54 33.4157 475.624 33.4157C475.709 33.4157 475.79 33.4479 475.852 33.5059C475.914 33.5638 475.952 33.6433 475.959 33.7282V45.4769ZM477.518 51.6987H475.959V50.1828H477.518V51.6987ZM478.186 45.4769C478.18 45.5619 478.142 45.6413 478.08 45.6993C478.018 45.7572 477.937 45.7894 477.852 45.7894C477.767 45.7894 477.686 45.7572 477.624 45.6993C477.562 45.6413 477.524 45.5619 477.518 45.4769V33.7282C477.524 33.6433 477.562 33.5638 477.624 33.5059C477.686 33.4479 477.767 33.4157 477.852 33.4157C477.937 33.4157 478.018 33.4479 478.08 33.5059C478.142 33.5638 478.18 33.6433 478.186 33.7282V45.4769ZM479.745 51.6987H478.186V50.1828H479.745V51.6987ZM480.414 45.4769C480.408 45.5619 480.37 45.6413 480.308 45.6993C480.246 45.7572 480.164 45.7894 480.08 45.7894C479.995 45.7894 479.914 45.7572 479.852 45.6993C479.79 45.6413 479.752 45.5619 479.745 45.4769V33.7282C479.752 33.6433 479.79 33.5638 479.852 33.5059C479.914 33.4479 479.995 33.4157 480.08 33.4157C480.164 33.4157 480.246 33.4479 480.308 33.5059C480.37 33.5638 480.408 33.6433 480.414 33.7282V45.4769ZM481.973 51.6987H480.414V50.1828H481.973V51.6987ZM482.642 45.4769C482.636 45.5619 482.598 45.6413 482.536 45.6993C482.474 45.7572 482.392 45.7894 482.308 45.7894C482.223 45.7894 482.141 45.7572 482.079 45.6993C482.017 45.6413 481.98 45.5619 481.973 45.4769V33.7282C481.98 33.6433 482.017 33.5638 482.079 33.5059C482.141 33.4479 482.223 33.4157 482.308 33.4157C482.392 33.4157 482.474 33.4479 482.536 33.5059C482.598 33.5638 482.636 33.6433 482.642 33.7282V45.4769ZM484.201 51.6987H482.642V50.1828H484.201V51.6987ZM484.868 45.4769C484.868 45.566 484.833 45.6515 484.77 45.7145C484.708 45.7775 484.623 45.8129 484.534 45.8129C484.446 45.8129 484.361 45.7775 484.299 45.7145C484.236 45.6515 484.201 45.566 484.201 45.4769V33.7282C484.201 33.6391 484.236 33.5537 484.299 33.4906C484.361 33.4276 484.446 33.3922 484.534 33.3922C484.623 33.3922 484.708 33.4276 484.77 33.4906C484.833 33.5537 484.868 33.6391 484.868 33.7282V45.4769ZM486.427 51.6987H484.868V50.1828H486.427V51.6987ZM487.095 45.4769C487.089 45.5619 487.051 45.6413 486.989 45.6993C486.927 45.7572 486.846 45.7894 486.761 45.7894C486.677 45.7894 486.595 45.7572 486.533 45.6993C486.471 45.6413 486.433 45.5619 486.427 45.4769V33.7282C486.433 33.6433 486.471 33.5638 486.533 33.5059C486.595 33.4479 486.677 33.4157 486.761 33.4157C486.846 33.4157 486.927 33.4479 486.989 33.5059C487.051 33.5638 487.089 33.6433 487.095 33.7282V45.4769ZM488.655 51.6987H487.095V50.1828H488.655V51.6987ZM489.331 45.4769C489.324 45.5619 489.286 45.6413 489.224 45.6993C489.162 45.7572 489.081 45.7894 488.996 45.7894C488.912 45.7894 488.83 45.7572 488.768 45.6993C488.706 45.6413 488.668 45.5619 488.662 45.4769V33.7282C488.668 33.6433 488.706 33.5638 488.768 33.5059C488.83 33.4479 488.912 33.4157 488.996 33.4157C489.081 33.4157 489.162 33.4479 489.224 33.5059C489.286 33.5638 489.324 33.6433 489.331 33.7282V45.4769ZM490.89 51.6987H489.331V50.1828H490.89V51.6987ZM490.89 45.4769V33.7282C490.89 33.656 490.914 33.5858 490.957 33.5281C491 33.4703 491.06 33.428 491.129 33.4075V45.7976C491.058 45.7785 490.996 45.7368 490.952 45.6789C490.908 45.621 490.883 45.5501 490.882 45.4769H490.89ZM495.815 44.9862V39.6026H497.899V43.522H496.618V44.9862H495.815ZM500.129 41.2959V46.3837H497.266V44.1997H499.14V45.2096H498.547V44.6865H497.878V45.8835H499.809V43.522H498.547V39.6026H501.61V40.6793H501.989V41.2959H500.129ZM504.397 41.9699H506.191V42.6304H504.389L504.397 41.9699ZM528.474 41.9699V42.6304H526.915V41.9699H528.474ZM526.246 42.6304H524.687V41.9699H526.246V42.6304ZM524.018 42.6304H522.459V41.9699H524.018V42.6304ZM521.791 42.6304H520.232V41.9699H521.791V42.6304ZM519.563 42.6304H518.004V41.9699H519.563V42.6304ZM517.335 42.6304H515.776V41.9699H517.335V42.6304ZM515.107 42.6304H513.548V41.9699H515.107V42.6304ZM512.881 42.6304H511.32V41.9699H512.881V42.6304ZM510.654 42.6304H509.095V41.9699H510.654V42.6304ZM508.426 42.6304H506.867V41.9699H508.426V42.6304ZM529.141 42.6304V41.9699H531.461V42.6304H529.141ZM531.793 41.294H502.667V40.6774H533.185V41.294H531.793ZM538.584 46.3837H535.725V41.2959H533.848V40.6793H534.238V39.6026H537.302V43.522H536.04V45.8797H537.97V44.6827H537.302V45.2058H536.707V44.1997H538.582L538.584 46.3837ZM539.253 44.9862V43.522H537.972V39.6026H540.056V44.9862H539.253ZM544.782 45.8129C544.764 45.8148 544.746 45.8148 544.727 45.8129V33.4037C544.746 33.4018 544.764 33.4018 544.782 33.4037C544.871 33.4037 544.956 33.4391 545.018 33.5021C545.081 33.5651 545.116 33.6506 545.116 33.7397V45.4883C545.113 45.5751 545.077 45.6574 545.015 45.7179C544.953 45.7784 544.87 45.8125 544.784 45.8129H544.782ZM546.677 51.6987H545.118V50.1828H546.677V51.6987ZM546.677 31.4946H545.118V30.2785H546.677V31.4946ZM547.01 45.8129C546.922 45.8129 546.837 45.7775 546.774 45.7145C546.712 45.6515 546.677 45.566 546.677 45.4769V33.7282C546.683 33.6433 546.721 33.5638 546.783 33.5059C546.845 33.4479 546.927 33.4157 547.011 33.4157C547.096 33.4157 547.177 33.4479 547.239 33.5059C547.301 33.5638 547.339 33.6433 547.345 33.7282V45.4769C547.345 45.5212 547.337 45.565 547.32 45.6059C547.303 45.6468 547.278 45.6839 547.247 45.7152C547.216 45.7464 547.179 45.7711 547.138 45.7879C547.098 45.8046 547.054 45.8131 547.01 45.8129ZM548.905 51.6987H547.345V50.1828H548.905V51.6987ZM548.905 31.4946H547.345V30.2785H548.905V31.4946ZM549.238 45.8129C549.149 45.8129 549.065 45.7775 549.002 45.7145C548.94 45.6515 548.905 45.566 548.905 45.4769V33.7282C548.911 33.6433 548.949 33.5638 549.011 33.5059C549.073 33.4479 549.154 33.4157 549.239 33.4157C549.323 33.4157 549.405 33.4479 549.467 33.5059C549.529 33.5638 549.567 33.6433 549.573 33.7282V45.4769C549.573 45.5212 549.565 45.565 549.548 45.6059C549.531 45.6468 549.506 45.6839 549.475 45.7152C549.444 45.7464 549.407 45.7711 549.366 45.7879C549.325 45.8046 549.282 45.8131 549.238 45.8129ZM551.132 51.6987H549.571V50.1828H551.13L551.132 51.6987ZM551.132 31.4946H549.571V30.2785H551.13L551.132 31.4946ZM551.466 45.8129C551.377 45.8129 551.292 45.7775 551.23 45.7145C551.167 45.6515 551.132 45.566 551.132 45.4769V33.7282C551.139 33.6433 551.177 33.5638 551.239 33.5059C551.301 33.4479 551.382 33.4157 551.467 33.4157C551.551 33.4157 551.633 33.4479 551.695 33.5059C551.757 33.5638 551.795 33.6433 551.801 33.7282V45.4769C551.801 45.5212 551.792 45.565 551.775 45.6059C551.759 45.6468 551.734 45.6839 551.703 45.7152C551.672 45.7464 551.635 45.7711 551.594 45.7879C551.553 45.8046 551.51 45.8131 551.466 45.8129ZM553.36 51.6987H551.801V50.1828H553.36V51.6987ZM553.36 31.4946H551.801V30.2785H553.36V31.4946ZM553.693 45.8129C553.605 45.8129 553.52 45.7775 553.458 45.7145C553.395 45.6515 553.36 45.566 553.36 45.4769V33.7282C553.36 33.6391 553.395 33.5537 553.458 33.4906C553.52 33.4276 553.605 33.3922 553.693 33.3922C553.782 33.3922 553.867 33.4276 553.929 33.4906C553.992 33.5537 554.027 33.6391 554.027 33.7282V45.4769C554.027 45.566 553.992 45.6515 553.929 45.7145C553.867 45.7775 553.782 45.8129 553.693 45.8129ZM555.588 51.6987H554.029V50.1828H555.588V51.6987ZM555.588 31.4946H554.029V30.2785H555.588V31.4946ZM555.923 45.8129C555.879 45.8131 555.836 45.8046 555.795 45.7879C555.754 45.7711 555.717 45.7464 555.686 45.7152C555.655 45.6839 555.63 45.6468 555.613 45.6059C555.596 45.565 555.588 45.5212 555.588 45.4769V33.7282C555.594 33.6433 555.632 33.5638 555.694 33.5059C555.756 33.4479 555.838 33.4157 555.922 33.4157C556.007 33.4157 556.088 33.4479 556.15 33.5059C556.212 33.5638 556.25 33.6433 556.257 33.7282V45.4769C556.257 45.5212 556.248 45.565 556.231 45.6059C556.214 45.6468 556.189 45.6839 556.158 45.7152C556.127 45.7464 556.09 45.7711 556.049 45.7879C556.009 45.8046 555.965 45.8131 555.921 45.8129H555.923ZM557.817 51.6987H556.258V50.1828H557.817V51.6987ZM557.817 31.4946H556.258V30.2785H557.817V31.4946ZM558.153 45.8129C558.109 45.8131 558.065 45.8046 558.025 45.7879C557.984 45.7711 557.947 45.7464 557.916 45.7152C557.885 45.6839 557.86 45.6468 557.843 45.6059C557.826 45.565 557.817 45.5212 557.817 45.4769V33.7282C557.824 33.6433 557.862 33.5638 557.924 33.5059C557.986 33.4479 558.067 33.4157 558.152 33.4157C558.236 33.4157 558.318 33.4479 558.38 33.5059C558.442 33.5638 558.48 33.6433 558.486 33.7282V45.4769C558.486 45.5213 558.477 45.5653 558.46 45.6064C558.443 45.6474 558.419 45.6846 558.387 45.7158C558.356 45.7471 558.319 45.7718 558.278 45.7884C558.237 45.8051 558.193 45.8134 558.149 45.8129H558.153ZM560.047 51.6987H558.475V50.1828H560.034L560.047 51.6987ZM560.047 31.4946H558.475V30.2785H560.034L560.047 31.4946ZM560.382 45.8129C560.338 45.8131 560.295 45.8046 560.254 45.7879C560.214 45.7711 560.177 45.7464 560.145 45.7152C560.114 45.6839 560.09 45.6468 560.073 45.6059C560.056 45.565 560.047 45.5212 560.047 45.4769V33.7282C560.053 33.6433 560.091 33.5638 560.153 33.5059C560.215 33.4479 560.297 33.4157 560.381 33.4157C560.466 33.4157 560.547 33.4479 560.609 33.5059C560.671 33.5638 560.709 33.6433 560.716 33.7282V45.4769C560.716 45.5222 560.707 45.567 560.689 45.6086C560.672 45.6503 560.646 45.6879 560.614 45.7193C560.581 45.7507 560.543 45.7752 560.501 45.7913C560.459 45.8073 560.414 45.8147 560.369 45.8129H560.382ZM562.277 51.6987H560.718V50.1828H562.264L562.277 51.6987ZM562.277 31.4946H560.718V30.2785H562.264L562.277 31.4946ZM562.61 45.8129C562.522 45.8129 562.437 45.7775 562.374 45.7145C562.312 45.6515 562.277 45.566 562.277 45.4769V35.4617C562.273 35.4153 562.279 35.3687 562.295 35.3248C562.31 35.2809 562.334 35.2406 562.365 35.2065C562.397 35.1724 562.435 35.1452 562.477 35.1266C562.519 35.108 562.565 35.0984 562.611 35.0984C562.657 35.0984 562.703 35.108 562.745 35.1266C562.788 35.1452 562.826 35.1724 562.857 35.2065C562.888 35.2406 562.912 35.2809 562.928 35.3248C562.943 35.3687 562.949 35.4153 562.945 35.4617V45.4769C562.945 45.5218 562.937 45.5663 562.919 45.6077C562.902 45.6491 562.876 45.6866 562.845 45.7179C562.813 45.7492 562.775 45.7738 562.733 45.7901C562.692 45.8064 562.647 45.8142 562.603 45.8129H562.61ZM564.764 51.6987H562.945V50.1828H564.764V51.6987ZM565.173 45.4769C565.167 45.5619 565.129 45.6413 565.067 45.6993C565.005 45.7572 564.923 45.7894 564.839 45.7894C564.754 45.7894 564.673 45.7572 564.611 45.6993C564.549 45.6413 564.511 45.5619 564.505 45.4769V37.556C564.511 37.471 564.549 37.3916 564.611 37.3336C564.673 37.2757 564.754 37.2435 564.839 37.2435C564.923 37.2435 565.005 37.2757 565.067 37.3336C565.129 37.3916 565.167 37.471 565.173 37.556V45.4769Z"/>
</mask>
<path d="M575.821 41.5021C575.85 41.4959 575.878 41.4876 575.905 41.4773C583.001 40.8702 586.831 37.9092 587 37.7775L585.903 36.3628C585.614 36.5698 585.313 36.761 585.003 36.9355V36.4048C584.993 36.1737 584.894 35.9557 584.728 35.7959C584.562 35.6362 584.342 35.547 584.112 35.547C583.883 35.547 583.662 35.6362 583.496 35.7959C583.33 35.9557 583.231 36.1737 583.221 36.4048V37.8347C582.88 37.9836 582.508 38.1364 582.107 38.2853V37.388C582.112 37.2666 582.094 37.1452 582.051 37.0314C582.009 36.9175 581.944 36.8135 581.861 36.7256C581.778 36.6376 581.677 36.5677 581.567 36.5198C581.456 36.472 581.336 36.4474 581.216 36.4474C581.095 36.4474 580.976 36.472 580.865 36.5198C580.754 36.5677 580.654 36.6376 580.57 36.7256C580.487 36.8135 580.422 36.9175 580.38 37.0314C580.338 37.1452 580.319 37.2666 580.324 37.388V38.8618C580.012 38.9496 579.688 39.033 579.351 39.1119V38.1364C579.34 37.9053 579.242 37.6872 579.076 37.5275C578.91 37.3677 578.689 37.2786 578.459 37.2786C578.23 37.2786 578.009 37.3677 577.843 37.5275C577.677 37.6872 577.579 37.9053 577.568 38.1364V39.4594C577.237 39.5109 576.897 39.5586 576.547 39.6006V38.5946C576.547 38.3566 576.453 38.1283 576.286 37.9601C576.119 37.7918 575.893 37.6973 575.657 37.6973C575.42 37.6973 575.194 37.7918 575.027 37.9601C574.86 38.1283 574.766 38.3566 574.766 38.5946V39.74H574.605C569.06 39.9825 565.668 35.2326 564.489 33.2338C564.385 32.9951 564.283 32.7508 564.184 32.4988H564.961V31.4698H562.938V30.2537H564.961V29.2246H554.824V26.6493H553.815C554.905 26.1615 555.963 25.6029 556.982 24.9769L561.042 22.4759V19.8566C561.042 19.8566 556.321 21.8574 551.117 21.4068C551.146 21.4019 551.173 21.3942 551.2 21.3839C558.297 20.7768 562.127 17.8158 562.296 17.6841L561.199 16.2675C560.91 16.4797 560.61 16.6748 560.299 16.8517V16.3267C560.288 16.0956 560.19 15.8776 560.024 15.7178C559.858 15.5581 559.637 15.4689 559.408 15.4689C559.178 15.4689 558.958 15.5581 558.792 15.7178C558.626 15.8776 558.527 16.0956 558.516 16.3267V17.7566C558.175 17.9055 557.804 18.0583 557.403 18.2072V17.3099C557.408 17.1885 557.389 17.0671 557.347 16.9533C557.305 16.8394 557.24 16.7354 557.157 16.6475C557.073 16.5595 556.973 16.4896 556.862 16.4417C556.751 16.3939 556.632 16.3693 556.511 16.3693C556.391 16.3693 556.271 16.3939 556.16 16.4417C556.049 16.4896 555.949 16.5595 555.866 16.6475C555.783 16.7354 555.718 16.8394 555.676 16.9533C555.633 17.0671 555.614 17.1885 555.62 17.3099V18.7837C555.307 18.8715 554.982 18.9549 554.646 19.0338V18.0449C554.652 17.9235 554.633 17.8021 554.591 17.6883C554.548 17.5744 554.484 17.4704 554.4 17.3825C554.317 17.2945 554.217 17.2246 554.106 17.1768C553.995 17.1289 553.876 17.1043 553.755 17.1043C553.634 17.1043 553.515 17.1289 553.404 17.1768C553.293 17.2246 553.193 17.2945 553.11 17.3825C553.026 17.4704 552.962 17.5744 552.919 17.6883C552.877 17.8021 552.858 17.9235 552.864 18.0449V19.3813C552.532 19.4347 552.193 19.4825 551.843 19.5245V18.5184C551.843 18.2804 551.749 18.0522 551.582 17.8839C551.415 17.7156 551.188 17.6211 550.952 17.6211C550.716 17.6211 550.49 17.7156 550.323 17.8839C550.156 18.0522 550.062 18.2804 550.062 18.5184V19.6638H549.901C544.362 19.9044 540.971 15.1698 539.789 13.1729C539.683 12.9304 539.579 12.6841 539.48 12.4302H540.257V11.4012H538.234V10.1851H540.257V9.15609H536.11V7.51998H531.817V4.10841H529.817V1.04238H524.769V4.76896H528.235V2.35011H526.06V3.02403H527.566V4.09504H525.435V1.71439H529.148V5.29397H524.123V1.04238H518.729V3.24549H518.333V0.67201H524.104V0H511.722V0.67201H517.667V3.23976H517.077V1.04238H511.684V5.29397H506.657V1.71439H510.37V4.09504H508.24V3.02403H509.744V2.35011H507.573V4.76896H511.04V1.04238H506.001V4.10841H503.991V7.51426H499.697V9.15036H495.595V10.1794H497.477V11.3955H495.603V12.4245H496.38C496.279 12.6784 496.177 12.9266 496.071 13.1671C494.889 15.1717 491.498 19.9082 485.957 19.6581H485.798V18.5126C485.798 18.2747 485.704 18.0464 485.537 17.8782C485.37 17.7099 485.144 17.6154 484.908 17.6154C484.671 17.6154 484.445 17.7099 484.278 17.8782C484.111 18.0464 484.017 18.2747 484.017 18.5126V19.5187C483.667 19.4767 483.328 19.429 482.996 19.3755V18.0449C483.002 17.9235 482.983 17.8021 482.94 17.6883C482.898 17.5744 482.833 17.4704 482.75 17.3825C482.667 17.2945 482.567 17.2246 482.456 17.1768C482.345 17.1289 482.225 17.1043 482.105 17.1043C481.984 17.1043 481.865 17.1289 481.754 17.1768C481.643 17.2246 481.543 17.2945 481.46 17.3825C481.376 17.4704 481.311 17.5744 481.269 17.6883C481.227 17.8021 481.208 17.9235 481.214 18.0449V19.0205C480.876 18.9428 480.551 18.8595 480.238 18.7704V17.2965C480.238 17.0586 480.144 16.8303 479.977 16.6621C479.81 16.4938 479.584 16.3993 479.348 16.3993C479.111 16.3993 478.885 16.4938 478.718 16.6621C478.551 16.8303 478.457 17.0586 478.457 17.2965V18.1938C478.054 18.0449 477.682 17.8922 477.343 17.7433V16.3267C477.333 16.0956 477.234 15.8776 477.068 15.7178C476.902 15.5581 476.682 15.4689 476.452 15.4689C476.223 15.4689 476.002 15.5581 475.836 15.7178C475.67 15.8776 475.571 16.0956 475.561 16.3267V16.8574C475.251 16.6832 474.952 16.492 474.663 16.2847L473.564 17.6994C473.731 17.8311 477.561 20.7921 484.659 21.3992C484.686 21.4095 484.714 21.4172 484.743 21.4221C479.539 21.8727 474.818 19.8719 474.818 19.8719V22.4912L478.878 24.9922C479.896 25.6182 480.955 26.1768 482.045 26.6645H481.185V29.2647H471.05V30.2937H473.072V31.5099H471.041V32.5389H471.816C471.717 32.7909 471.615 33.0352 471.511 33.2739C470.332 35.2727 466.94 40.0226 461.395 39.7801H461.236V38.6346C461.225 38.4036 461.127 38.1855 460.961 38.0258C460.795 37.866 460.574 37.7769 460.344 37.7769C460.115 37.7769 459.894 37.866 459.728 38.0258C459.562 38.1855 459.464 38.4036 459.453 38.6346V39.6178C459.103 39.5758 458.764 39.5281 458.432 39.4766V38.1536C458.421 37.9225 458.323 37.7044 458.157 37.5447C457.991 37.3849 457.77 37.2958 457.541 37.2958C457.311 37.2958 457.09 37.3849 456.924 37.5447C456.759 37.7044 456.66 37.9225 456.649 38.1536V39.1291C456.312 39.0515 455.988 38.9681 455.676 38.879V37.4052C455.681 37.2837 455.662 37.1624 455.62 37.0486C455.578 36.9347 455.513 36.8307 455.43 36.7428C455.346 36.6548 455.246 36.5848 455.135 36.537C455.024 36.4892 454.905 36.4646 454.784 36.4646C454.664 36.4646 454.544 36.4892 454.433 36.537C454.323 36.5848 454.222 36.6548 454.139 36.7428C454.056 36.8307 453.991 36.9347 453.949 37.0486C453.906 37.1624 453.888 37.2837 453.893 37.4052V38.3025C453.492 38.1535 453.12 38.0008 452.779 37.8519V36.422C452.779 36.184 452.685 35.9558 452.518 35.7875C452.351 35.6192 452.125 35.5247 451.889 35.5247C451.653 35.5247 451.426 35.6192 451.259 35.7875C451.092 35.9558 450.999 36.184 450.999 36.422V36.9451C450.688 36.7702 450.387 36.579 450.097 36.3723L449 37.787C449.169 37.9187 452.999 40.8798 460.095 41.4868C460.122 41.4969 460.15 41.5052 460.179 41.5117C454.975 41.9603 450.256 39.9596 450.256 39.9596V42.5789L454.314 45.0798C458.652 47.7503 463.637 49.1633 468.72 49.1634H464.82V50.1905H466.566V80.446H465.898V82.3819H464.933V86.832H472.875V82.3819H471.912V80.4327H471.244V52.7277H491.121V80.6007H490.452V82.5499H489.49V86.9981H497.431V82.5499H496.467V80.6007H495.8V45.664H496.598V47.0634H500.792V41.9699H503.728V43.9706H502.038V43.207H502.557V43.5067H503.226V42.535H501.369V44.6483H504.4V43.312H531.465V44.6483H534.496V42.5311H532.64V43.5029H533.306V43.2031H533.827V43.9668H532.138V41.9699H535.07V47.0634H539.266V45.6659H540.064V80.6026H539.395V82.5518H538.433V87H546.374V82.5518H545.404V80.6026H544.735V52.7296H564.762V80.4403H564.093V82.3819H563.131V86.832H571.072V82.3819H570.108V80.4327H569.441V50.1828H571.186V49.1634H567.285C572.366 49.1609 577.347 47.7473 581.683 45.0779L585.742 42.577V39.95C585.742 39.95 581.018 41.9508 575.821 41.5021ZM536.419 38.5736V36.8878H537.959V37.4605H537.533V37.1837H536.864V38.1383H538.628V37.6705H540.056V38.5812L536.419 38.5736ZM495.804 38.5736V37.6629H497.319V38.1306H499.081V37.1761H498.424V37.4529H497.998V36.8802H499.54V38.5659L495.804 38.5736ZM490.879 30.2785V31.4946H489.331V30.2785H490.879ZM501.921 10.1851V11.4012H500.362V10.1851H501.921ZM536.006 31.5996V30.0837H537.565V31.5996H536.006ZM538.624 34.9214V34.2189H540.052V36.9833H538.624V36.2101H537.51V34.9214H538.624ZM536.841 36.2101H535.743V36.9833H534.238V34.2246H535.743V34.9272H536.837L536.841 36.2101ZM499.104 36.2101V34.9214H500.199V34.2189H501.61V36.9833H500.199V36.2101H499.104ZM497.323 36.2101V36.9833H495.808V34.2246H497.323V34.9272H498.437V36.2158L497.323 36.2101ZM533.778 31.5996V30.0837H535.337V31.5996H533.778ZM533.109 31.5996H531.55V30.0837H533.109V31.5996ZM530.882 31.5996H529.323V30.0837H530.882V31.5996ZM528.656 31.5996H527.095V30.0837H528.656V31.5996ZM526.428 31.5996H524.869V30.0837H526.428V31.5996ZM524.2 31.5996H522.641V30.0837H524.2V31.5996ZM521.972 31.5996H520.413V30.0837H521.972V31.5996ZM519.745 31.5996H518.186V30.0837H519.745V31.5996ZM517.517 31.5996H515.958V30.0837H517.517V31.5996ZM515.284 31.5996H513.724V30.0837H515.284V31.5996ZM513.056 31.5996H511.495V30.0837H513.054L513.056 31.5996ZM510.83 31.5996H509.271V30.0837H510.83V31.5996ZM508.602 31.5996H507.043V30.0837H508.602V31.5996ZM506.38 31.5996H504.821V30.0837H506.38V31.5996ZM504.152 31.5996H502.591V30.0837H504.15L504.152 31.5996ZM501.925 31.5996H500.365V30.0837H501.925V31.5996ZM499.697 31.5996H498.138V30.0837H499.697V31.5996ZM497.477 31.5996H495.808V30.0837H497.477V31.5996ZM499.54 32.6286V34.2494H497.998V33.6767H498.424V33.9535H499.092V32.999H497.331V33.5373H495.815V32.6209L499.54 32.6286ZM501.623 33.545H500.212V32.6286H501.623V33.545ZM535.76 33.545H534.255V32.6286H535.743L535.76 33.545ZM515.958 13.6349V25.3835C515.952 25.4685 515.914 25.5479 515.852 25.6059C515.79 25.6638 515.708 25.696 515.624 25.696C515.539 25.696 515.458 25.6638 515.396 25.6059C515.334 25.5479 515.296 25.4685 515.289 25.3835V13.6349C515.296 13.5499 515.334 13.4704 515.396 13.4125C515.458 13.3545 515.539 13.3223 515.624 13.3223C515.708 13.3223 515.79 13.3545 515.852 13.4125C515.914 13.4704 515.952 13.5499 515.958 13.6349ZM513.73 13.6349V25.3835C513.724 25.4685 513.686 25.5479 513.624 25.6059C513.562 25.6638 513.48 25.696 513.396 25.696C513.311 25.696 513.23 25.6638 513.168 25.6059C513.106 25.5479 513.068 25.4685 513.061 25.3835V13.6349C513.068 13.5499 513.106 13.4704 513.168 13.4125C513.23 13.3545 513.311 13.3223 513.396 13.3223C513.48 13.3223 513.562 13.3545 513.624 13.4125C513.686 13.4704 513.724 13.5499 513.73 13.6349ZM511.502 13.6349V25.3835C511.502 25.4726 511.467 25.5581 511.405 25.6211C511.342 25.6841 511.257 25.7195 511.169 25.7195C511.081 25.7195 510.996 25.6841 510.933 25.6211C510.871 25.5581 510.836 25.4726 510.836 25.3835V13.6349C510.836 13.5458 510.871 13.4603 510.933 13.3973C510.996 13.3343 511.081 13.2989 511.169 13.2989C511.257 13.2989 511.342 13.3343 511.405 13.3973C511.467 13.4603 511.502 13.5458 511.502 13.6349ZM509.276 13.6349V25.3835C509.27 25.4685 509.232 25.5479 509.17 25.6059C509.108 25.6638 509.027 25.696 508.942 25.696C508.858 25.696 508.776 25.6638 508.714 25.6059C508.652 25.5479 508.614 25.4685 508.608 25.3835V13.6349C508.614 13.5499 508.652 13.4704 508.714 13.4125C508.776 13.3545 508.858 13.3223 508.942 13.3223C509.027 13.3223 509.108 13.3545 509.17 13.4125C509.232 13.4704 509.27 13.5499 509.276 13.6349ZM507.049 13.6349V25.3835C507.042 25.4685 507.004 25.5479 506.942 25.6059C506.88 25.6638 506.799 25.696 506.714 25.696C506.63 25.696 506.548 25.6638 506.486 25.6059C506.424 25.5479 506.386 25.4685 506.38 25.3835V13.6349C506.386 13.5499 506.424 13.4704 506.486 13.4125C506.548 13.3545 506.63 13.3223 506.714 13.3223C506.799 13.3223 506.88 13.3545 506.942 13.4125C507.004 13.4704 507.042 13.5499 507.049 13.6349ZM504.821 13.6349V25.3835C504.815 25.4685 504.777 25.5479 504.715 25.6059C504.653 25.6638 504.571 25.696 504.487 25.696C504.402 25.696 504.321 25.6638 504.259 25.6059C504.197 25.5479 504.159 25.4685 504.152 25.3835V13.6349C504.159 13.5499 504.197 13.4704 504.259 13.4125C504.321 13.3545 504.402 13.3223 504.487 13.3223C504.571 13.3223 504.653 13.3545 504.715 13.4125C504.777 13.4704 504.815 13.5499 504.821 13.6349ZM502.593 13.6349V25.3835C502.587 25.4685 502.549 25.5479 502.487 25.6059C502.425 25.6638 502.343 25.696 502.259 25.696C502.174 25.696 502.093 25.6638 502.031 25.6059C501.969 25.5479 501.931 25.4685 501.925 25.3835V13.6349C501.931 13.5499 501.969 13.4704 502.031 13.4125C502.093 13.3545 502.174 13.3223 502.259 13.3223C502.343 13.3223 502.425 13.3545 502.487 13.4125C502.549 13.4704 502.587 13.5499 502.593 13.6349ZM500.365 13.6349V25.3835C500.359 25.4685 500.321 25.5479 500.259 25.6059C500.197 25.6638 500.116 25.696 500.031 25.696C499.947 25.696 499.865 25.6638 499.803 25.6059C499.741 25.5479 499.703 25.4685 499.697 25.3835V13.6349C499.703 13.5499 499.741 13.4704 499.803 13.4125C499.865 13.3545 499.947 13.3223 500.031 13.3223C500.116 13.3223 500.197 13.3545 500.259 13.4125C500.321 13.4704 500.359 13.5499 500.365 13.6349ZM537.898 15.0304C537.987 15.0304 538.073 15.066 538.135 15.1294C538.198 15.1928 538.234 15.2787 538.234 15.3683V25.3835C538.227 25.4685 538.189 25.5479 538.127 25.6059C538.065 25.6638 537.984 25.696 537.899 25.696C537.815 25.696 537.733 25.6638 537.671 25.6059C537.609 25.5479 537.571 25.4685 537.565 25.3835V15.3721C537.564 15.3275 537.572 15.2832 537.589 15.2418C537.605 15.2004 537.629 15.1627 537.661 15.1308C537.692 15.099 537.729 15.0738 537.769 15.0565C537.81 15.0393 537.854 15.0304 537.898 15.0304ZM536.004 13.6349V25.3835C535.998 25.4685 535.96 25.5479 535.898 25.6059C535.836 25.6638 535.754 25.696 535.67 25.696C535.585 25.696 535.504 25.6638 535.442 25.6059C535.38 25.5479 535.342 25.4685 535.335 25.3835V13.6349C535.342 13.5499 535.38 13.4704 535.442 13.4125C535.504 13.3545 535.585 13.3223 535.67 13.3223C535.754 13.3223 535.836 13.3545 535.898 13.4125C535.96 13.4704 535.998 13.5499 536.004 13.6349ZM533.776 13.6349V25.3835C533.77 25.4685 533.732 25.5479 533.67 25.6059C533.608 25.6638 533.526 25.696 533.442 25.696C533.357 25.696 533.276 25.6638 533.214 25.6059C533.152 25.5479 533.114 25.4685 533.107 25.3835V13.6349C533.114 13.5499 533.152 13.4704 533.214 13.4125C533.276 13.3545 533.357 13.3223 533.442 13.3223C533.526 13.3223 533.608 13.3545 533.67 13.4125C533.732 13.4704 533.77 13.5499 533.776 13.6349ZM531.548 13.6349V25.3835C531.542 25.4685 531.504 25.5479 531.442 25.6059C531.38 25.6638 531.299 25.696 531.214 25.696C531.13 25.696 531.048 25.6638 530.986 25.6059C530.924 25.5479 530.886 25.4685 530.88 25.3835V13.6349C530.886 13.5499 530.924 13.4704 530.986 13.4125C531.048 13.3545 531.13 13.3223 531.214 13.3223C531.299 13.3223 531.38 13.3545 531.442 13.4125C531.504 13.4704 531.542 13.5499 531.548 13.6349ZM529.321 13.6349V25.3835C529.321 25.4726 529.286 25.5581 529.223 25.6211C529.16 25.6841 529.076 25.7195 528.987 25.7195C528.899 25.7195 528.814 25.6841 528.752 25.6211C528.689 25.5581 528.654 25.4726 528.654 25.3835V13.6349C528.654 13.5458 528.689 13.4603 528.752 13.3973C528.814 13.3343 528.899 13.2989 528.987 13.2989C529.076 13.2989 529.16 13.3343 529.223 13.3973C529.286 13.4603 529.321 13.5458 529.321 13.6349ZM527.093 13.6349V25.3835C527.093 25.4726 527.058 25.5581 526.995 25.6211C526.933 25.6841 526.848 25.7195 526.759 25.7195C526.671 25.7195 526.586 25.6841 526.524 25.6211C526.461 25.5581 526.426 25.4726 526.426 25.3835V13.6349C526.426 13.5458 526.461 13.4603 526.524 13.3973C526.586 13.3343 526.671 13.2989 526.759 13.2989C526.848 13.2989 526.933 13.3343 526.995 13.3973C527.058 13.4603 527.093 13.5458 527.093 13.6349ZM524.867 13.6349V25.3835C524.861 25.4685 524.823 25.5479 524.761 25.6059C524.699 25.6638 524.617 25.696 524.533 25.696C524.448 25.696 524.367 25.6638 524.305 25.6059C524.243 25.5479 524.205 25.4685 524.198 25.3835V13.6349C524.205 13.5499 524.243 13.4704 524.305 13.4125C524.367 13.3545 524.448 13.3223 524.533 13.3223C524.617 13.3223 524.699 13.3545 524.761 13.4125C524.823 13.4704 524.861 13.5499 524.867 13.6349ZM522.639 13.6349V25.3835C522.633 25.4685 522.595 25.5479 522.533 25.6059C522.471 25.6638 522.389 25.696 522.305 25.696C522.22 25.696 522.139 25.6638 522.077 25.6059C522.015 25.5479 521.977 25.4685 521.971 25.3835V13.6349C521.977 13.5499 522.015 13.4704 522.077 13.4125C522.139 13.3545 522.22 13.3223 522.305 13.3223C522.389 13.3223 522.471 13.3545 522.533 13.4125C522.595 13.4704 522.633 13.5499 522.639 13.6349ZM520.412 13.6349V25.3835C520.405 25.4685 520.367 25.5479 520.305 25.6059C520.243 25.6638 520.162 25.696 520.077 25.696C519.993 25.696 519.911 25.6638 519.849 25.6059C519.787 25.5479 519.749 25.4685 519.743 25.3835V13.6349C519.749 13.5499 519.787 13.4704 519.849 13.4125C519.911 13.3545 519.993 13.3223 520.077 13.3223C520.162 13.3223 520.243 13.3545 520.305 13.4125C520.367 13.4704 520.405 13.5499 520.412 13.6349ZM517.515 13.6349C517.521 13.5499 517.559 13.4704 517.621 13.4125C517.683 13.3545 517.765 13.3223 517.849 13.3223C517.934 13.3223 518.015 13.3545 518.077 13.4125C518.139 13.4704 518.177 13.5499 518.184 13.6349V25.3835C518.177 25.4685 518.139 25.5479 518.077 25.6059C518.015 25.6638 517.934 25.696 517.849 25.696C517.765 25.696 517.683 25.6638 517.621 25.6059C517.559 25.5479 517.521 25.4685 517.515 25.3835V13.6349ZM539.791 25.3835V17.4722C539.797 17.3872 539.835 17.3078 539.897 17.2498C539.959 17.1918 540.041 17.1596 540.125 17.1596C540.21 17.1596 540.291 17.1918 540.353 17.2498C540.415 17.3078 540.453 17.3872 540.459 17.4722V25.3931C540.453 25.478 540.415 25.5575 540.353 25.6154C540.291 25.6734 540.21 25.7056 540.125 25.7056C540.041 25.7056 539.959 25.6734 539.897 25.6154C539.835 25.5575 539.797 25.478 539.791 25.3931V25.3835ZM508.606 10.1851V11.4012H507.047V10.1851H508.606ZM509.275 10.1851H510.834V11.4012H509.275V10.1851ZM511.5 10.1851H513.06V11.4012H511.495L511.5 10.1851ZM513.728 10.1851H515.284V11.4012H513.724L513.728 10.1851ZM515.956 10.1851H517.515V11.4012H515.956V10.1851ZM527.093 11.4012V10.1851H528.654V11.4012H527.093ZM526.426 11.4012H524.867V10.1851H526.426V11.4012ZM524.198 11.4012H522.639V10.1851H524.198V11.4012ZM521.971 11.4012H520.412V10.1851H521.971V11.4012ZM519.743 11.4012H518.184V10.1851H519.743V11.4012ZM533.776 11.4012V10.1851H535.335V11.4012H533.776ZM533.107 11.4012H531.548V10.1851H533.107V11.4012ZM530.88 11.4012H529.321V10.1851H530.88V11.4012ZM506.378 11.4012H504.819V10.1851H506.38L506.378 11.4012ZM504.15 11.4012H502.591V10.1851H504.15V11.4012ZM498.138 15.3721V25.3873C498.131 25.4723 498.093 25.5517 498.031 25.6097C497.969 25.6677 497.888 25.6999 497.803 25.6999C497.719 25.6999 497.637 25.6677 497.575 25.6097C497.513 25.5517 497.475 25.4723 497.469 25.3873V15.3721C497.466 15.3258 497.472 15.2792 497.487 15.2353C497.502 15.1914 497.526 15.1511 497.557 15.117C497.589 15.0829 497.627 15.0557 497.669 15.0371C497.712 15.0185 497.757 15.0089 497.803 15.0089C497.849 15.0089 497.895 15.0185 497.937 15.0371C497.98 15.0557 498.018 15.0829 498.049 15.117C498.081 15.1511 498.105 15.1914 498.12 15.2353C498.135 15.2792 498.141 15.3258 498.138 15.3721ZM495.91 17.4722V25.3931C495.91 25.4822 495.875 25.5676 495.812 25.6307C495.75 25.6937 495.665 25.7291 495.577 25.7291C495.488 25.7291 495.403 25.6937 495.341 25.6307C495.278 25.5676 495.243 25.4822 495.243 25.3931V17.4722C495.243 17.3831 495.278 17.2976 495.341 17.2346C495.403 17.1716 495.488 17.1362 495.577 17.1362C495.665 17.1362 495.75 17.1716 495.812 17.2346C495.875 17.2976 495.91 17.3831 495.91 17.4722ZM500.199 37.6725H501.61V38.5831H500.199V37.6725ZM534.242 37.6725H535.743V38.5831H534.238L534.242 37.6725ZM540.052 33.5602H538.624V33.0123H536.86V33.9669H537.529V33.6901H537.955V34.2628H536.415V32.642H540.052V33.5602ZM540.052 31.6149H538.234V30.099H540.052V31.6149ZM537.565 11.4012H536.006V10.1851H537.565V11.4012ZM529.817 5.96788V4.78614H531.143V8.1939H535.438V9.14846H530.114V6.55589H527.119V5.96788H529.817ZM518.729 3.9175V5.96597H522.355V2.31384H519.79V4.24968H520.459V2.98776H521.688V5.29397H519.398V1.71439H523.454V5.96788H526.46V6.55589H518.333V3.9175H518.729ZM512.353 5.96597V1.71439H516.42V5.29397H514.13V2.98776H515.359V4.24968H516.026V2.31384H513.461V5.96788H517.087V3.9175H517.676V6.55397H509.362V5.96597H512.353ZM500.365 8.1939H504.66V4.78614H505.986V5.96788H508.678V6.55589H505.874V9.15609H500.365V8.1939ZM498.138 10.1851H499.697V11.4012H498.138V10.1851ZM488.655 30.2785V31.4946H487.095V30.2785H488.655ZM486.427 30.2785V31.4946H484.868V30.2785H486.427ZM484.201 30.2785V31.4946H482.642V30.2785H484.201ZM480.412 30.2785H481.971V31.4946H480.412V30.2785ZM478.184 30.2785H479.744V31.4946H478.184V30.2785ZM475.957 30.2785H477.516V31.4946H475.957V30.2785ZM473.729 30.2785H475.288V31.4946H473.729V30.2785ZM471.168 45.8129C471.124 45.8131 471.08 45.8046 471.04 45.7879C470.999 45.7711 470.962 45.7464 470.931 45.7152C470.9 45.6839 470.875 45.6468 470.858 45.6059C470.841 45.565 470.832 45.5212 470.832 45.4769V37.556C470.839 37.471 470.877 37.3916 470.939 37.3336C471.001 37.2757 471.082 37.2435 471.167 37.2435C471.251 37.2435 471.333 37.2757 471.395 37.3336C471.457 37.3916 471.495 37.471 471.501 37.556V45.4769C471.501 45.5657 471.466 45.6508 471.404 45.7138C471.342 45.7768 471.258 45.8124 471.17 45.8129H471.168ZM473.062 51.6987H471.244V50.1828H473.062V51.6987ZM473.731 45.4769C473.724 45.5619 473.686 45.6413 473.624 45.6993C473.562 45.7572 473.481 45.7894 473.396 45.7894C473.312 45.7894 473.23 45.7572 473.168 45.6993C473.106 45.6413 473.068 45.5619 473.062 45.4769V35.4617C473.059 35.4153 473.065 35.3687 473.08 35.3248C473.095 35.2809 473.119 35.2406 473.151 35.2065C473.182 35.1724 473.22 35.1452 473.262 35.1266C473.305 35.108 473.35 35.0984 473.396 35.0984C473.443 35.0984 473.488 35.108 473.531 35.1266C473.573 35.1452 473.611 35.1724 473.642 35.2065C473.674 35.2406 473.698 35.2809 473.713 35.3248C473.728 35.3687 473.734 35.4153 473.731 35.4617V45.4769ZM475.29 51.6987H473.731V50.1828H475.29V51.6987ZM475.959 45.4769C475.952 45.5619 475.914 45.6413 475.852 45.6993C475.79 45.7572 475.709 45.7894 475.624 45.7894C475.54 45.7894 475.458 45.7572 475.396 45.6993C475.334 45.6413 475.296 45.5619 475.29 45.4769V33.7282C475.296 33.6433 475.334 33.5638 475.396 33.5059C475.458 33.4479 475.54 33.4157 475.624 33.4157C475.709 33.4157 475.79 33.4479 475.852 33.5059C475.914 33.5638 475.952 33.6433 475.959 33.7282V45.4769ZM477.518 51.6987H475.959V50.1828H477.518V51.6987ZM478.186 45.4769C478.18 45.5619 478.142 45.6413 478.08 45.6993C478.018 45.7572 477.937 45.7894 477.852 45.7894C477.767 45.7894 477.686 45.7572 477.624 45.6993C477.562 45.6413 477.524 45.5619 477.518 45.4769V33.7282C477.524 33.6433 477.562 33.5638 477.624 33.5059C477.686 33.4479 477.767 33.4157 477.852 33.4157C477.937 33.4157 478.018 33.4479 478.08 33.5059C478.142 33.5638 478.18 33.6433 478.186 33.7282V45.4769ZM479.745 51.6987H478.186V50.1828H479.745V51.6987ZM480.414 45.4769C480.408 45.5619 480.37 45.6413 480.308 45.6993C480.246 45.7572 480.164 45.7894 480.08 45.7894C479.995 45.7894 479.914 45.7572 479.852 45.6993C479.79 45.6413 479.752 45.5619 479.745 45.4769V33.7282C479.752 33.6433 479.79 33.5638 479.852 33.5059C479.914 33.4479 479.995 33.4157 480.08 33.4157C480.164 33.4157 480.246 33.4479 480.308 33.5059C480.37 33.5638 480.408 33.6433 480.414 33.7282V45.4769ZM481.973 51.6987H480.414V50.1828H481.973V51.6987ZM482.642 45.4769C482.636 45.5619 482.598 45.6413 482.536 45.6993C482.474 45.7572 482.392 45.7894 482.308 45.7894C482.223 45.7894 482.141 45.7572 482.079 45.6993C482.017 45.6413 481.98 45.5619 481.973 45.4769V33.7282C481.98 33.6433 482.017 33.5638 482.079 33.5059C482.141 33.4479 482.223 33.4157 482.308 33.4157C482.392 33.4157 482.474 33.4479 482.536 33.5059C482.598 33.5638 482.636 33.6433 482.642 33.7282V45.4769ZM484.201 51.6987H482.642V50.1828H484.201V51.6987ZM484.868 45.4769C484.868 45.566 484.833 45.6515 484.77 45.7145C484.708 45.7775 484.623 45.8129 484.534 45.8129C484.446 45.8129 484.361 45.7775 484.299 45.7145C484.236 45.6515 484.201 45.566 484.201 45.4769V33.7282C484.201 33.6391 484.236 33.5537 484.299 33.4906C484.361 33.4276 484.446 33.3922 484.534 33.3922C484.623 33.3922 484.708 33.4276 484.77 33.4906C484.833 33.5537 484.868 33.6391 484.868 33.7282V45.4769ZM486.427 51.6987H484.868V50.1828H486.427V51.6987ZM487.095 45.4769C487.089 45.5619 487.051 45.6413 486.989 45.6993C486.927 45.7572 486.846 45.7894 486.761 45.7894C486.677 45.7894 486.595 45.7572 486.533 45.6993C486.471 45.6413 486.433 45.5619 486.427 45.4769V33.7282C486.433 33.6433 486.471 33.5638 486.533 33.5059C486.595 33.4479 486.677 33.4157 486.761 33.4157C486.846 33.4157 486.927 33.4479 486.989 33.5059C487.051 33.5638 487.089 33.6433 487.095 33.7282V45.4769ZM488.655 51.6987H487.095V50.1828H488.655V51.6987ZM489.331 45.4769C489.324 45.5619 489.286 45.6413 489.224 45.6993C489.162 45.7572 489.081 45.7894 488.996 45.7894C488.912 45.7894 488.83 45.7572 488.768 45.6993C488.706 45.6413 488.668 45.5619 488.662 45.4769V33.7282C488.668 33.6433 488.706 33.5638 488.768 33.5059C488.83 33.4479 488.912 33.4157 488.996 33.4157C489.081 33.4157 489.162 33.4479 489.224 33.5059C489.286 33.5638 489.324 33.6433 489.331 33.7282V45.4769ZM490.89 51.6987H489.331V50.1828H490.89V51.6987ZM490.89 45.4769V33.7282C490.89 33.656 490.914 33.5858 490.957 33.5281C491 33.4703 491.06 33.428 491.129 33.4075V45.7976C491.058 45.7785 490.996 45.7368 490.952 45.6789C490.908 45.621 490.883 45.5501 490.882 45.4769H490.89ZM495.815 44.9862V39.6026H497.899V43.522H496.618V44.9862H495.815ZM500.129 41.2959V46.3837H497.266V44.1997H499.14V45.2096H498.547V44.6865H497.878V45.8835H499.809V43.522H498.547V39.6026H501.61V40.6793H501.989V41.2959H500.129ZM504.397 41.9699H506.191V42.6304H504.389L504.397 41.9699ZM528.474 41.9699V42.6304H526.915V41.9699H528.474ZM526.246 42.6304H524.687V41.9699H526.246V42.6304ZM524.018 42.6304H522.459V41.9699H524.018V42.6304ZM521.791 42.6304H520.232V41.9699H521.791V42.6304ZM519.563 42.6304H518.004V41.9699H519.563V42.6304ZM517.335 42.6304H515.776V41.9699H517.335V42.6304ZM515.107 42.6304H513.548V41.9699H515.107V42.6304ZM512.881 42.6304H511.32V41.9699H512.881V42.6304ZM510.654 42.6304H509.095V41.9699H510.654V42.6304ZM508.426 42.6304H506.867V41.9699H508.426V42.6304ZM529.141 42.6304V41.9699H531.461V42.6304H529.141ZM531.793 41.294H502.667V40.6774H533.185V41.294H531.793ZM538.584 46.3837H535.725V41.2959H533.848V40.6793H534.238V39.6026H537.302V43.522H536.04V45.8797H537.97V44.6827H537.302V45.2058H536.707V44.1997H538.582L538.584 46.3837ZM539.253 44.9862V43.522H537.972V39.6026H540.056V44.9862H539.253ZM544.782 45.8129C544.764 45.8148 544.746 45.8148 544.727 45.8129V33.4037C544.746 33.4018 544.764 33.4018 544.782 33.4037C544.871 33.4037 544.956 33.4391 545.018 33.5021C545.081 33.5651 545.116 33.6506 545.116 33.7397V45.4883C545.113 45.5751 545.077 45.6574 545.015 45.7179C544.953 45.7784 544.87 45.8125 544.784 45.8129H544.782ZM546.677 51.6987H545.118V50.1828H546.677V51.6987ZM546.677 31.4946H545.118V30.2785H546.677V31.4946ZM547.01 45.8129C546.922 45.8129 546.837 45.7775 546.774 45.7145C546.712 45.6515 546.677 45.566 546.677 45.4769V33.7282C546.683 33.6433 546.721 33.5638 546.783 33.5059C546.845 33.4479 546.927 33.4157 547.011 33.4157C547.096 33.4157 547.177 33.4479 547.239 33.5059C547.301 33.5638 547.339 33.6433 547.345 33.7282V45.4769C547.345 45.5212 547.337 45.565 547.32 45.6059C547.303 45.6468 547.278 45.6839 547.247 45.7152C547.216 45.7464 547.179 45.7711 547.138 45.7879C547.098 45.8046 547.054 45.8131 547.01 45.8129ZM548.905 51.6987H547.345V50.1828H548.905V51.6987ZM548.905 31.4946H547.345V30.2785H548.905V31.4946ZM549.238 45.8129C549.149 45.8129 549.065 45.7775 549.002 45.7145C548.94 45.6515 548.905 45.566 548.905 45.4769V33.7282C548.911 33.6433 548.949 33.5638 549.011 33.5059C549.073 33.4479 549.154 33.4157 549.239 33.4157C549.323 33.4157 549.405 33.4479 549.467 33.5059C549.529 33.5638 549.567 33.6433 549.573 33.7282V45.4769C549.573 45.5212 549.565 45.565 549.548 45.6059C549.531 45.6468 549.506 45.6839 549.475 45.7152C549.444 45.7464 549.407 45.7711 549.366 45.7879C549.325 45.8046 549.282 45.8131 549.238 45.8129ZM551.132 51.6987H549.571V50.1828H551.13L551.132 51.6987ZM551.132 31.4946H549.571V30.2785H551.13L551.132 31.4946ZM551.466 45.8129C551.377 45.8129 551.292 45.7775 551.23 45.7145C551.167 45.6515 551.132 45.566 551.132 45.4769V33.7282C551.139 33.6433 551.177 33.5638 551.239 33.5059C551.301 33.4479 551.382 33.4157 551.467 33.4157C551.551 33.4157 551.633 33.4479 551.695 33.5059C551.757 33.5638 551.795 33.6433 551.801 33.7282V45.4769C551.801 45.5212 551.792 45.565 551.775 45.6059C551.759 45.6468 551.734 45.6839 551.703 45.7152C551.672 45.7464 551.635 45.7711 551.594 45.7879C551.553 45.8046 551.51 45.8131 551.466 45.8129ZM553.36 51.6987H551.801V50.1828H553.36V51.6987ZM553.36 31.4946H551.801V30.2785H553.36V31.4946ZM553.693 45.8129C553.605 45.8129 553.52 45.7775 553.458 45.7145C553.395 45.6515 553.36 45.566 553.36 45.4769V33.7282C553.36 33.6391 553.395 33.5537 553.458 33.4906C553.52 33.4276 553.605 33.3922 553.693 33.3922C553.782 33.3922 553.867 33.4276 553.929 33.4906C553.992 33.5537 554.027 33.6391 554.027 33.7282V45.4769C554.027 45.566 553.992 45.6515 553.929 45.7145C553.867 45.7775 553.782 45.8129 553.693 45.8129ZM555.588 51.6987H554.029V50.1828H555.588V51.6987ZM555.588 31.4946H554.029V30.2785H555.588V31.4946ZM555.923 45.8129C555.879 45.8131 555.836 45.8046 555.795 45.7879C555.754 45.7711 555.717 45.7464 555.686 45.7152C555.655 45.6839 555.63 45.6468 555.613 45.6059C555.596 45.565 555.588 45.5212 555.588 45.4769V33.7282C555.594 33.6433 555.632 33.5638 555.694 33.5059C555.756 33.4479 555.838 33.4157 555.922 33.4157C556.007 33.4157 556.088 33.4479 556.15 33.5059C556.212 33.5638 556.25 33.6433 556.257 33.7282V45.4769C556.257 45.5212 556.248 45.565 556.231 45.6059C556.214 45.6468 556.189 45.6839 556.158 45.7152C556.127 45.7464 556.09 45.7711 556.049 45.7879C556.009 45.8046 555.965 45.8131 555.921 45.8129H555.923ZM557.817 51.6987H556.258V50.1828H557.817V51.6987ZM557.817 31.4946H556.258V30.2785H557.817V31.4946ZM558.153 45.8129C558.109 45.8131 558.065 45.8046 558.025 45.7879C557.984 45.7711 557.947 45.7464 557.916 45.7152C557.885 45.6839 557.86 45.6468 557.843 45.6059C557.826 45.565 557.817 45.5212 557.817 45.4769V33.7282C557.824 33.6433 557.862 33.5638 557.924 33.5059C557.986 33.4479 558.067 33.4157 558.152 33.4157C558.236 33.4157 558.318 33.4479 558.38 33.5059C558.442 33.5638 558.48 33.6433 558.486 33.7282V45.4769C558.486 45.5213 558.477 45.5653 558.46 45.6064C558.443 45.6474 558.419 45.6846 558.387 45.7158C558.356 45.7471 558.319 45.7718 558.278 45.7884C558.237 45.8051 558.193 45.8134 558.149 45.8129H558.153ZM560.047 51.6987H558.475V50.1828H560.034L560.047 51.6987ZM560.047 31.4946H558.475V30.2785H560.034L560.047 31.4946ZM560.382 45.8129C560.338 45.8131 560.295 45.8046 560.254 45.7879C560.214 45.7711 560.177 45.7464 560.145 45.7152C560.114 45.6839 560.09 45.6468 560.073 45.6059C560.056 45.565 560.047 45.5212 560.047 45.4769V33.7282C560.053 33.6433 560.091 33.5638 560.153 33.5059C560.215 33.4479 560.297 33.4157 560.381 33.4157C560.466 33.4157 560.547 33.4479 560.609 33.5059C560.671 33.5638 560.709 33.6433 560.716 33.7282V45.4769C560.716 45.5222 560.707 45.567 560.689 45.6086C560.672 45.6503 560.646 45.6879 560.614 45.7193C560.581 45.7507 560.543 45.7752 560.501 45.7913C560.459 45.8073 560.414 45.8147 560.369 45.8129H560.382ZM562.277 51.6987H560.718V50.1828H562.264L562.277 51.6987ZM562.277 31.4946H560.718V30.2785H562.264L562.277 31.4946ZM562.61 45.8129C562.522 45.8129 562.437 45.7775 562.374 45.7145C562.312 45.6515 562.277 45.566 562.277 45.4769V35.4617C562.273 35.4153 562.279 35.3687 562.295 35.3248C562.31 35.2809 562.334 35.2406 562.365 35.2065C562.397 35.1724 562.435 35.1452 562.477 35.1266C562.519 35.108 562.565 35.0984 562.611 35.0984C562.657 35.0984 562.703 35.108 562.745 35.1266C562.788 35.1452 562.826 35.1724 562.857 35.2065C562.888 35.2406 562.912 35.2809 562.928 35.3248C562.943 35.3687 562.949 35.4153 562.945 35.4617V45.4769C562.945 45.5218 562.937 45.5663 562.919 45.6077C562.902 45.6491 562.876 45.6866 562.845 45.7179C562.813 45.7492 562.775 45.7738 562.733 45.7901C562.692 45.8064 562.647 45.8142 562.603 45.8129H562.61ZM564.764 51.6987H562.945V50.1828H564.764V51.6987ZM565.173 45.4769C565.167 45.5619 565.129 45.6413 565.067 45.6993C565.005 45.7572 564.923 45.7894 564.839 45.7894C564.754 45.7894 564.673 45.7572 564.611 45.6993C564.549 45.6413 564.511 45.5619 564.505 45.4769V37.556C564.511 37.471 564.549 37.3916 564.611 37.3336C564.673 37.2757 564.754 37.2435 564.839 37.2435C564.923 37.2435 565.005 37.2757 565.067 37.3336C565.129 37.3916 565.167 37.471 565.173 37.556V45.4769Z" stroke="#E13A4B" stroke-width="2" mask="url(#path-3-inside-1_43_10)"/>
</svg>
