<svg width="75" height="46" viewBox="0 0 75 46" fill="none" xmlns="http://www.w3.org/2000/svg">
<path d="M49.492 34.6154C49.4214 34.6159 49.3516 34.6006 49.2877 34.5706C49.2238 34.5406 49.1674 34.4967 49.1228 34.442C49.082 34.3936 49.0511 34.3377 49.0321 34.2773C49.0131 34.217 49.0062 34.1535 49.0119 34.0905C49.0176 34.0275 49.0357 33.9662 49.0652 33.9103C49.0947 33.8543 49.135 33.8047 49.1838 33.7644C50.284 32.8135 50.9672 31.4688 51.0864 30.0195C51.2056 28.5701 50.7514 27.1319 49.8214 26.0139C48.8915 24.8959 47.5599 24.1874 46.1131 24.0407C44.6663 23.8941 43.2197 24.321 42.0843 25.2297C42.0356 25.2702 41.9794 25.3006 41.9189 25.3194C41.8584 25.3382 41.7948 25.3448 41.7318 25.339C41.6687 25.3332 41.6074 25.315 41.5514 25.2855C41.4953 25.256 41.4457 25.2158 41.4052 25.1671C41.3647 25.1184 41.3342 25.0622 41.3155 25.0017C41.2967 24.9412 41.29 24.8776 41.2959 24.8145C41.3017 24.7515 41.3198 24.6902 41.3493 24.6341C41.3788 24.5781 41.4191 24.5284 41.4678 24.488C42.1231 23.9228 42.8843 23.4939 43.7072 23.2262C44.53 22.9584 45.3979 22.8573 46.2603 22.9287C47.1226 23.0001 47.9621 23.2425 48.7297 23.6419C49.4974 24.0412 50.1777 24.5895 50.7312 25.2547C51.2846 25.9198 51.7 26.6886 51.953 27.5161C52.2061 28.3435 52.2918 29.2131 52.2052 30.074C52.1185 30.935 51.8612 31.77 51.4483 32.5305C51.0354 33.2909 50.4752 33.9614 49.8003 34.503C49.7144 34.5764 49.605 34.6163 49.492 34.6154Z" fill="#E13A4B"/>
<path d="M61.0419 31.083C60.9142 31.083 60.7916 31.0323 60.7013 30.942C60.611 30.8516 60.5602 30.7291 60.5602 30.6014C60.5613 29.5034 60.2364 28.4299 59.6267 27.5168C59.0171 26.6037 58.1501 25.8921 57.1356 25.4722C56.1212 25.0524 55.0049 24.9431 53.9282 25.1582C52.8516 25.3734 51.8631 25.9033 51.0879 26.6808C50.9972 26.771 50.8744 26.8216 50.7464 26.8213C50.6184 26.821 50.4958 26.7699 50.4055 26.6792C50.3153 26.5885 50.2647 26.4656 50.265 26.3377C50.2653 26.2097 50.3164 26.0871 50.4071 25.9968C51.3178 25.0861 52.4781 24.466 53.7413 24.2147C55.0045 23.9635 56.3138 24.0924 57.5037 24.5853C58.6935 25.0781 59.7105 25.9128 60.4261 26.9836C61.1416 28.0545 61.5235 29.3135 61.5235 30.6014C61.5235 30.7291 61.4728 30.8516 61.3825 30.942C61.2921 31.0323 61.1696 31.083 61.0419 31.083Z" fill="#E13A4B"/>
<path d="M75 17.9663C74.9966 15.1375 73.8714 12.4255 71.8711 10.4252C69.8708 8.4249 67.1588 7.29963 64.3299 7.29623C63.617 7.29577 62.9058 7.36787 62.2075 7.51138C60.8628 4.94568 58.7564 2.8595 56.1778 1.53969C53.5992 0.219882 50.6751 -0.26876 47.8075 0.140947C44.9399 0.550654 42.2696 1.83859 40.1638 3.82768C38.058 5.81677 36.6201 8.40934 36.0477 11.2489C35.6078 11.2489 35.0041 11.2843 34.9174 11.2971C33.2602 11.4376 31.6503 11.9214 30.1903 12.7179C28.7302 13.5145 27.452 14.6062 26.4369 15.9236C25.4218 17.2411 24.692 18.7554 24.2941 20.3703C23.8961 21.9851 23.8386 23.6651 24.1253 25.3034C16.5603 25.9937 14.6144 31.8185 14.2195 33.4111C8.88284 33.5845 4.96223 35.1001 2.57005 37.9065C0.23246 40.6615 -0.0212072 44.4376 0.00126965 44.7619C0.0124523 44.882 0.0679758 44.9936 0.157036 45.0749C0.246097 45.1563 0.3623 45.2015 0.482916 45.2018C0.606491 45.1969 0.723539 45.145 0.810089 45.0566C0.896639 44.9683 0.946131 44.8502 0.948492 44.7266C0.954556 44.5621 0.969567 44.3981 0.99345 44.2353C1.33381 42.9862 3.24112 41.4385 5.5177 40.5427C7.03971 39.9454 10.9475 38.7959 14.3672 40.9922C20.468 44.9096 30.6532 43.7536 35.9321 41.6794C39.8045 40.1574 46.3356 42.2252 49.004 43.2014C51.7179 44.7126 54.8163 45.3924 57.9136 45.1564C61.0109 44.9203 63.9704 43.7788 66.424 41.8737C68.8776 39.9687 70.7169 37.3843 71.713 34.4421C72.7092 31.4998 72.8182 28.3296 72.0266 25.3259C73.9339 23.3506 74.9998 20.7121 75 17.9663ZM56.7264 44.2481C54.1817 44.2482 51.6796 43.5947 49.4599 42.3505L49.3893 42.3183C46.9136 41.4096 42.8999 40.1798 39.3389 40.1798C38.0648 40.1505 36.7962 40.3585 35.5981 40.7931C30.512 42.7904 20.7281 43.9238 14.9066 40.1895C12.2383 38.478 8.69339 38.2822 5.187 39.6532C3.83921 40.1617 2.59706 40.915 1.52327 41.8752C3.06775 37.0363 7.46359 34.5125 14.6208 34.3647C14.7315 34.3624 14.838 34.3223 14.9227 34.251C15.0074 34.1798 15.0652 34.0817 15.0864 33.973C15.1346 33.6776 16.297 26.7515 24.6712 26.2506C26.2767 26.3437 27.6477 26.8928 28.6785 28.2607C29.0719 28.7821 29.358 29.3764 29.5201 30.0092C29.6821 30.6419 29.7169 31.3006 29.6225 31.9469C29.5505 32.4517 29.3797 32.9373 29.1199 33.3761C28.8602 33.8148 28.5165 34.1981 28.1086 34.504C27.7007 34.81 27.2365 35.0325 26.7426 35.159C26.2487 35.2856 25.7346 35.3135 25.2299 35.2414C24.4404 35.1277 23.7283 34.7054 23.2498 34.0674C22.7712 33.4293 22.5653 32.6274 22.6772 31.8377C22.7654 31.2312 23.0903 30.6843 23.5807 30.3166C24.0711 29.949 24.6872 29.7905 25.2941 29.8758C25.753 29.9434 26.1667 30.1895 26.4451 30.5605C26.7235 30.9315 26.8442 31.3975 26.7808 31.857C26.7566 32.027 26.699 32.1905 26.6114 32.3382C26.5237 32.4859 26.4078 32.6148 26.2702 32.7175C26.1342 32.8207 25.9789 32.8957 25.8135 32.9382C25.6481 32.9806 25.4759 32.9897 25.3069 32.9648C25.0596 32.9258 24.8371 32.7921 24.6866 32.5919C24.5362 32.3917 24.4696 32.1408 24.501 31.8923C24.5101 31.8299 24.5067 31.7663 24.4911 31.7051C24.4755 31.644 24.4479 31.5866 24.41 31.5361C24.3721 31.4857 24.3246 31.4433 24.2702 31.4113C24.2159 31.3793 24.1557 31.3583 24.0932 31.3497C24.0306 31.3406 23.9668 31.3439 23.9055 31.3595C23.8441 31.3751 23.7865 31.4026 23.7358 31.4404C23.6851 31.4783 23.6423 31.5258 23.61 31.5802C23.5777 31.6346 23.5564 31.6948 23.5473 31.7574C23.4802 32.2583 23.6125 32.7656 23.9159 33.1698C24.2192 33.574 24.6692 33.8429 25.1689 33.9184C25.4641 33.9607 25.7647 33.9443 26.0535 33.8703C26.3424 33.7963 26.6138 33.6662 26.8524 33.4873C27.0909 33.3083 27.2919 33.0842 27.4438 32.8276C27.5957 32.571 27.6956 32.287 27.7377 31.9919C27.8385 31.2788 27.6525 30.5548 27.2203 29.9787C26.7881 29.4027 26.145 29.0215 25.4322 28.9189C24.5728 28.7978 23.7004 29.0221 23.006 29.5426C22.3115 30.0631 21.8516 30.8376 21.7267 31.6964C21.5782 32.7396 21.8499 33.799 22.4821 34.6419C23.1143 35.4849 24.0553 36.0423 25.0983 36.1918C25.3292 36.2237 25.5619 36.2398 25.795 36.24C26.959 36.2371 28.083 35.8153 28.9615 35.0517C29.84 34.2882 30.4143 33.2339 30.5794 32.0817C30.6947 31.2743 30.6426 30.4517 30.4263 29.6652C30.21 28.8787 29.8342 28.1452 29.3221 27.5102C28.8101 26.8753 28.1728 26.3526 27.45 25.9746C26.7272 25.5966 25.9343 25.3714 25.1207 25.313C24.8248 23.7798 24.8588 22.2011 25.2205 20.682C25.5821 19.1629 26.2632 17.7383 27.2182 16.5029C28.1733 15.2674 29.3804 14.2496 30.7594 13.5169C32.1385 12.7843 33.6577 12.3538 35.216 12.254C36.1793 12.2122 40.8513 12.1801 42.7682 15.4425C42.8001 15.4969 42.8423 15.5445 42.8926 15.5825C42.9428 15.6206 43 15.6484 43.061 15.6644C43.122 15.6803 43.1855 15.6841 43.2479 15.6755C43.3104 15.6669 43.3705 15.6461 43.4249 15.6143C43.4793 15.5824 43.5269 15.5402 43.5649 15.49C43.603 15.4397 43.6308 15.3825 43.6468 15.3215C43.6627 15.2606 43.6665 15.197 43.6579 15.1346C43.6493 15.0721 43.6285 15.012 43.5967 14.9576C42.0426 12.3086 39.0531 11.5444 37.0302 11.3453C37.5773 8.71925 38.9205 6.32566 40.877 4.49055C42.8335 2.65544 45.308 1.468 47.9637 1.08997C50.6193 0.711948 53.3269 1.16171 55.7178 2.378C58.1086 3.59429 60.0664 5.51798 61.3245 7.88706C61.0542 7.98977 60.7894 8.10659 60.5314 8.23705C59.4998 8.74947 58.5829 9.46587 57.8361 10.3429C57.0894 11.2198 56.5283 12.2392 56.1869 13.3393C55.6242 15.143 55.801 17.0963 56.6783 18.7697C57.5557 20.4431 59.0617 21.6995 60.8653 22.2626C61.5916 22.4912 62.3558 22.574 63.1142 22.5063C63.8726 22.4387 64.6102 22.2218 65.2845 21.8682C65.9588 21.5147 66.5566 21.0314 67.0436 20.446C67.5306 19.8607 67.8971 19.185 68.1221 18.4576C68.4942 17.2598 68.3764 15.9633 67.7944 14.8523C67.2123 13.7412 66.2136 12.9062 65.0171 12.5301C64.0339 12.2245 62.9696 12.3212 62.0577 12.7992C61.1457 13.2771 60.4606 14.0972 60.1525 15.0796C59.902 15.8904 59.9826 16.7673 60.3767 17.5188C60.7708 18.2703 61.4463 18.8352 62.2557 19.0902C62.9284 19.2994 63.6567 19.2333 64.2809 18.9065C64.905 18.5797 65.3741 18.0187 65.5854 17.3466C65.6189 17.2262 65.6042 17.0976 65.5446 16.9879C65.485 16.8781 65.3851 16.7958 65.2659 16.7583C65.1468 16.7208 65.0177 16.731 64.906 16.7869C64.7943 16.8427 64.7086 16.9398 64.6671 17.0576C64.5319 17.4865 64.2324 17.8444 63.8341 18.0532C63.4358 18.262 62.9711 18.3046 62.5414 18.1718C61.976 17.9923 61.5044 17.5966 61.2295 17.0709C60.9547 16.5452 60.8987 15.9322 61.074 15.3654C61.1872 14.9988 61.3715 14.6581 61.6165 14.3628C61.8614 14.0676 62.1622 13.8235 62.5016 13.6445C62.841 13.4656 63.2123 13.3553 63.5944 13.32C63.9764 13.2847 64.3617 13.3251 64.7281 13.4388C65.6817 13.7374 66.4779 14.402 66.942 15.2869C67.4062 16.1719 67.5003 17.2047 67.2038 18.159C66.821 19.3817 65.9686 20.4026 64.8338 20.9974C63.6989 21.5923 62.3744 21.7124 61.1511 21.3314C59.5944 20.8437 58.2946 19.7585 57.5368 18.3139C56.779 16.8693 56.6249 15.1831 57.1085 13.6251C57.411 12.6486 57.9084 11.7436 58.5707 10.9648C59.233 10.1861 60.0464 9.54977 60.9616 9.09439C61.7742 8.68219 62.6519 8.41385 63.5561 8.30127C63.8162 8.282 64.0795 8.26595 64.3428 8.26595C66.2654 8.26695 68.1445 8.83869 69.7418 9.90872C71.3392 10.9787 72.5829 12.4989 73.3154 14.2765C74.0479 16.0541 74.2362 18.0092 73.8564 19.8939C73.4767 21.7787 72.5459 23.5083 71.1821 24.8635C71.1208 24.9237 71.0768 24.9993 71.0548 25.0823C71.0328 25.1654 71.0335 25.2528 71.057 25.3355C71.6814 27.5485 71.7843 29.8761 71.3575 32.1355C70.9307 34.3949 69.9859 36.5247 68.5972 38.3574C67.2085 40.1901 65.4139 41.6758 63.3541 42.6979C61.2944 43.72 59.0258 44.2507 56.7264 44.2481Z" fill="#E13A4B"/>
<path d="M41.821 14.1003C41.7439 14.0994 41.6681 14.0807 41.5994 14.0457C41.4879 13.9869 41.404 13.8867 41.3656 13.7666C41.3271 13.6465 41.3373 13.5162 41.3939 13.4036C43.6416 9.03663 49.0746 9.89395 49.1292 9.90358C49.2569 9.92445 49.3711 9.99521 49.4467 10.1003C49.5223 10.2054 49.553 10.3362 49.5321 10.4639C49.5113 10.5916 49.4405 10.7059 49.3355 10.7814C49.2304 10.857 49.0996 10.8877 48.9718 10.8669C48.7728 10.8348 44.181 10.1219 42.248 13.8563C42.2053 13.9316 42.1432 13.994 42.068 14.0369C41.9929 14.0799 41.9075 14.1018 41.821 14.1003Z" fill="#E13A4B"/>
</svg>
