<svg width="433" height="465" viewBox="0 0 433 465" fill="none" xmlns="http://www.w3.org/2000/svg">
<path d="M333.108 465.518C330.824 463.162 328.354 460.992 325.723 459.031C323.916 457.586 322.024 456.25 320.057 455.031C317.835 453.46 315.766 451.683 313.878 449.724C309.826 445.939 306.369 441.565 303.621 436.75C300.878 431.622 298.493 426.058 295.57 420.879C293.493 416.395 290.82 412.212 287.622 408.443C284.033 404.854 280.11 401.674 276.597 398.008C272.92 394.258 269.888 389.926 267.623 385.188C266.392 382.624 265.059 380.06 263.495 377.496C262.208 374.916 261.194 372.209 260.469 369.419C259.598 366.855 258.239 364.496 257.316 361.958C256.569 359.502 255.978 357.001 255.547 354.471C253.966 349.771 251.683 345.336 248.777 341.318C246.124 336.254 243.96 330.948 242.316 325.472C241.164 322.851 240.146 320.172 239.265 317.447C238.782 314.611 238.878 311.707 239.547 308.909C240.405 304.24 240.56 299.47 240.009 294.756C239.675 292.192 239.342 289.628 238.957 287.064C238.804 285.884 238.496 284.782 238.265 283.628C237.971 282.022 237.867 280.387 237.958 278.756C237.958 273.013 237.957 267.295 237.701 261.552C237.409 258.663 237.582 255.745 238.214 252.911C238.584 251.891 238.842 250.834 238.983 249.757C238.983 248.347 238.804 246.963 238.983 245.552C239.291 239.604 242.367 234.014 245.239 228.963C246.579 226.942 247.535 224.69 248.06 222.323C248.521 219.579 249.085 216.836 249.572 214.092C250.06 211.349 250.419 208.708 250.957 206.067C251.419 203.862 252.47 201.862 252.752 199.606C252.957 196.936 253.008 194.256 252.906 191.58C252.906 188.632 252.906 185.683 252.906 182.734C252.872 180.211 252.606 177.696 252.111 175.222C251.849 172.956 251.244 170.742 250.316 168.658C249.433 166.593 248.268 164.66 246.855 162.915C245.312 161.219 243.678 159.61 241.957 158.094C240.891 157.238 240.031 156.152 239.441 154.919C238.851 153.685 238.545 152.334 238.547 150.967C238.534 148.264 238.791 145.567 239.316 142.916C240.328 137.684 240.869 132.372 240.932 127.044C240.932 123.327 240.778 118.301 236.881 116.378C235.547 115.712 234.47 116.378 233.24 116.994C230.676 118.25 227.599 117.814 224.83 118.737C222.558 119.326 220.256 119.789 217.933 120.122C215.369 120.634 212.805 120.839 210.241 121.404C207.677 121.968 205.113 123.121 202.549 123.968C199.985 124.814 197.421 125.506 194.857 126.403C192.464 127.317 190.127 128.37 187.857 129.557C185.289 130.784 182.643 131.838 179.934 132.711C177.402 133.697 174.772 134.41 172.088 134.839C169.668 135.095 167.227 135.095 164.807 134.839C160.195 134.007 155.483 133.877 150.833 134.454C145.705 135.506 141.295 139.121 137.038 141.941C134.731 143.454 132.449 145.069 130.013 146.351C127.577 147.633 125.372 147.89 123.244 149.146C121.116 150.402 119.296 152.069 117.142 153.248C114.988 154.428 112.68 155.607 110.475 156.941C107.898 158.437 105.152 159.625 102.296 160.479C99.7322 161.274 97.3477 162.248 94.8093 163.043C93.3935 163.44 91.9422 163.698 90.4762 163.812C89.2754 163.821 88.0764 163.907 86.8865 164.069C85.9978 164.329 85.1385 164.682 84.3225 165.12C82.7838 165.782 81.1261 166.122 79.451 166.12C74.4769 166.325 70.0411 166.12 65.7849 168.991C64.794 169.713 63.7064 170.291 62.5542 170.709C61.5462 170.974 60.5604 171.317 59.6057 171.735C57.8846 172.688 56.2763 173.832 54.811 175.145C53.2856 176.487 51.9409 178.021 50.811 179.709C49.3254 181.922 47.2706 183.694 44.8627 184.837C42.5807 185.965 40.2987 186.991 38.1193 188.324C35.9399 189.657 33.6323 191.247 31.3503 192.657C26.6839 195.58 21.9917 198.529 17.197 201.221C14.9407 202.503 12.6074 203.631 10.428 204.99C8.24862 206.349 6.68473 208.938 4.32585 208.605C4.09509 208.605 3.99253 208.939 4.32585 208.964C4.95163 209.055 5.59018 208.991 6.185 208.776C6.77981 208.561 7.31243 208.203 7.73585 207.733L8.37685 207.169C7.29997 208.4 6.40265 209.733 5.24885 211.015C3.75772 212.273 2.12231 213.349 0.377188 214.22C-3.16113 216.502 -3.05854 220.964 -2.95598 224.733C-2.82778 230.604 -2.95598 236.476 -2.95598 242.347C-2.95598 248.219 -2.82772 254.424 -3.21232 260.475C-3.59692 266.526 -3.67396 272.423 -4.62264 278.269C-5.05852 280.833 -5.54558 283.397 -5.80198 286.141C-6.05838 288.884 -5.93018 291.986 -5.80198 294.935C-5.80198 300.986 -5.80198 307.012 -5.80198 313.063C-5.73756 316.112 -5.89178 319.163 -6.26348 322.19C-6.67372 324.96 -7.21224 327.703 -7.62248 330.447C-8.41732 336.113 -8.28912 341.779 -8.90448 347.446C-9.51984 353.112 -11.4685 359.112 -12.4428 365.009C-13.3724 370.467 -13.8952 375.986 -14.0068 381.521C-14.0068 393.162 -13.1863 404.905 -14.0068 416.52C-14.8273 428.135 -17.3657 439.083 -16.9555 450.493C-16.7012 458.133 -15.1581 465.674 -12.3915 472.8C-9.82748 478.825 -5.64812 483.927 1.42852 483.056C4.15266 482.595 6.90032 482.287 9.65885 482.133C12.5305 482.133 15.3766 481.646 18.2227 481.312C20.8316 480.769 23.4678 480.367 26.1198 480.107C28.8672 480.005 31.6182 480.108 34.3502 480.415C37.0746 480.842 39.8239 481.09 42.5807 481.158C45.2371 481.064 47.8839 480.79 50.5034 480.338C53.375 479.876 56.2467 479.235 59.144 479.03C61.9196 478.876 64.7015 478.876 67.477 479.03C79.2869 479.242 91.0963 478.582 102.809 477.056C105.373 476.748 108.091 477.056 110.655 476.594C113.219 476.133 116.142 475.133 118.937 474.569C124.803 473.123 130.876 472.706 136.885 473.338C142.498 473.906 148.142 474.103 153.781 473.928C159.686 474.219 165.602 474.15 171.499 473.723C177.344 472.805 183.231 472.18 189.139 471.851C195.216 471.851 201.344 472.338 207.42 471.851C210.266 471.569 213.061 471.133 215.907 471.005C218.753 470.877 221.599 471.005 224.471 471.005C227.343 471.005 230.266 470.466 233.163 470.236C236.06 470.005 239.034 469.954 241.983 469.928C247.957 469.928 253.931 470.082 259.931 469.928C265.931 469.774 271.52 468.979 277.341 468.518C283.161 468.056 289.084 468.031 294.981 468.056C300.859 467.941 306.74 468.146 312.595 468.672C318.061 469.415 323.597 469.492 329.082 468.902C330.185 468.749 331.287 468.569 332.364 468.313C332.877 468.185 333.902 468.159 334.159 467.646C334.415 467.133 333.569 465.98 333.108 465.518Z" fill="#202147"/>
<path d="M53.2213 239.348H54.0931H54.6316L54.9904 239.065C56.4776 237.809 57.9904 236.502 59.5288 235.399L60.1441 234.937L61.4261 233.963L62.3491 233.194C62.6844 232.868 63.0445 232.567 63.4261 232.297C64.0185 231.898 64.679 231.611 65.3748 231.45C66.274 231.151 67.1347 230.747 67.9388 230.245C69.4655 229.309 71.0401 228.453 72.6564 227.681C74.3272 226.949 76.0395 226.316 77.7844 225.784C79.458 225.224 81.059 224.466 82.5534 223.528C83.9893 222.682 85.4765 221.938 86.9636 221.169C88.5168 220.366 89.9424 219.338 91.1941 218.118C92.4435 217.133 93.9126 216.464 95.4761 216.169C96.3582 215.955 97.217 215.654 98.0401 215.272C98.6738 214.982 99.3709 214.858 100.066 214.913H100.809H102.168V213.631V212.272H99.6041C99.0927 212.268 98.5832 212.337 98.0913 212.477C97.6474 212.614 97.218 212.794 96.8093 213.015C96.5023 213.165 96.1854 213.294 95.8606 213.4L95.2196 213.579C93.9574 213.871 92.7288 214.292 91.5531 214.836C90.6162 215.328 89.7532 215.949 88.9891 216.682C88.502 217.134 87.9789 217.545 87.4251 217.912C86.5962 218.405 85.7402 218.85 84.8611 219.246C84.1688 219.579 83.4766 219.912 82.8099 220.297L81.6048 221.015C80.4573 221.729 79.2574 222.354 78.0153 222.887C77.2461 223.194 76.4511 223.451 75.6819 223.707C74.9127 223.964 73.7078 224.348 72.7591 224.758C71.0705 225.469 69.4188 226.265 67.8104 227.143L66.9388 227.656C66.437 227.973 65.9145 228.255 65.3748 228.502L64.5029 228.784C63.9566 228.922 63.4244 229.111 62.9133 229.348C62.0859 229.796 61.319 230.347 60.6313 230.989C59.939 231.604 59.1955 232.168 58.4519 232.732L57.9391 233.143C56.294 234.332 54.7268 235.625 53.2469 237.014L52.6059 237.732L52.9136 238.527L53.2213 239.348ZM47.0164 311.857C47.6062 311.216 48.1959 310.575 48.8113 309.96C49.4266 309.345 50.0933 308.627 50.7343 307.909C51.3753 307.191 51.4265 307.114 51.8111 306.729L52.8624 305.678C53.5716 305.027 54.2314 304.324 54.8366 303.576L55.2469 303.012C55.7501 302.233 56.3935 301.555 57.1443 301.012C57.7083 300.678 58.298 300.371 58.8878 300.089C59.5732 299.756 60.2408 299.388 60.8878 298.986L62.0159 298.294C64.1184 296.961 66.2465 295.73 68.3746 294.371C69.1838 293.906 70.0442 293.536 70.9386 293.268L72.1949 292.833C73.4938 292.358 74.754 291.784 75.9641 291.115C76.6037 290.761 77.2202 290.367 77.8101 289.935L78.2716 289.576C78.4919 289.362 78.7423 289.18 79.0151 289.038C79.3192 288.931 79.6423 288.887 79.9639 288.91H81.3741C81.6555 288.936 81.9387 288.936 82.2201 288.91C82.8806 288.834 83.5229 288.643 84.1176 288.346C84.5235 288.097 84.887 287.786 85.1944 287.423L85.5791 287.038C85.9191 286.823 86.2798 286.642 86.6559 286.499L87.0149 286.371L88.1174 285.858L89.2199 285.32C89.68 285.17 90.1517 285.059 90.6301 284.987H90.8864C91.433 284.919 91.9489 284.696 92.3736 284.346C92.9724 283.727 93.3894 282.955 93.5788 282.115V281.833C93.5788 281.833 93.8351 281.218 95.2966 280.192C95.7784 279.904 96.2955 279.68 96.8349 279.525C97.5436 279.308 98.2238 279.007 98.8606 278.628C99.5014 278.166 100.035 277.571 100.425 276.884C100.598 276.595 100.795 276.32 101.014 276.064C101.911 275.097 102.981 274.305 104.168 273.731C104.698 273.552 105.174 273.244 105.553 272.833C106.937 271.936 108.347 271.141 109.758 270.269L110.783 269.654C112.85 268.474 114.845 267.173 116.757 265.757C117.566 265.194 118.424 264.704 119.321 264.295C120.342 263.821 121.313 263.245 122.219 262.577C122.836 262.134 123.488 261.74 124.167 261.398L125.013 260.936L127.295 259.577L128.552 258.834C129.38 258.333 130.236 257.879 131.116 257.475C132.403 256.882 133.645 256.196 134.833 255.424C135.782 254.783 136.808 254.244 137.885 253.655C138.961 253.065 139.679 252.706 140.449 252.168C141.178 251.717 141.931 251.306 142.705 250.937C144.012 250.391 145.251 249.694 146.397 248.86C147.1 248.359 147.847 247.921 148.628 247.552L149.038 247.347C149.549 247.079 150.038 246.77 150.499 246.424C150.922 246.083 151.388 245.799 151.884 245.578C152.574 245.323 153.303 245.193 154.038 245.193H155.089C156.423 245.005 157.768 244.902 159.115 244.886H165.037C165.571 244.876 166.105 244.927 166.627 245.04C168.195 245.366 169.794 245.52 171.396 245.501H173.601H175.498C177.068 245.543 178.638 245.449 180.191 245.219L182.473 244.86C184.15 244.619 185.805 244.241 187.421 243.732C189.528 243.122 191.49 242.093 193.19 240.706C193.864 240.141 194.626 239.691 195.446 239.373L196.472 239.117C197.147 238.994 197.808 238.805 198.446 238.553C199.504 238.041 200.656 237.753 201.831 237.707H203.267C204.138 237.707 205.01 237.707 205.831 237.707C208.109 237.45 210.364 237.013 212.574 236.399L213.625 236.143C214.397 235.959 215.158 235.737 215.907 235.476C216.548 235.245 217.189 234.937 217.804 234.655C218.42 234.373 218.83 234.168 219.343 233.963C220.705 233.473 222.102 233.087 223.522 232.809C224.497 232.579 225.471 232.373 226.42 232.091L227.086 231.886C228.9 231.524 230.603 230.743 232.06 229.604L232.778 228.989L232.471 228.143L232.112 227.245H230.701L230.368 227.527C228.732 228.599 226.889 229.316 224.958 229.63L223.65 229.938L221.984 230.348C220.226 230.708 218.509 231.241 216.856 231.938C212.377 233.959 207.514 234.991 202.6 234.963H202.292C201.214 234.927 200.135 235.039 199.087 235.296C198.569 235.455 198.063 235.652 197.575 235.886C197.115 236.105 196.634 236.277 196.139 236.399L195.626 236.527C194.842 236.638 194.081 236.872 193.37 237.219C192.583 237.634 191.844 238.132 191.165 238.707L190.498 239.194C188.751 240.368 186.777 241.163 184.703 241.527C183.547 241.79 182.373 241.97 181.191 242.065C180.561 242.12 179.936 242.214 179.319 242.347C178.778 242.464 178.23 242.541 177.678 242.578H177.165H175.934H174.601H172.524H170.704C169.588 242.56 168.478 242.414 167.396 242.142C166.707 241.983 166.001 241.914 165.294 241.937H159.217C158.235 241.885 157.251 241.885 156.268 241.937H155.217C153.203 241.926 151.221 242.448 149.474 243.45C148.756 243.937 147.987 244.373 147.218 244.809C146.212 245.363 145.236 245.971 144.295 246.629C143.742 247.011 143.149 247.329 142.525 247.578L141.602 248.014C140.72 248.469 139.864 248.974 139.038 249.527L138.423 249.911C137.511 250.474 136.569 250.988 135.603 251.45C134.93 251.768 134.286 252.146 133.68 252.578L132.628 253.244C132.082 253.554 131.517 253.828 130.936 254.065L129.834 254.552C128.859 255.039 127.911 255.603 126.988 256.167L126.295 256.603L124.449 257.68C122.988 258.526 121.475 259.398 120.065 260.398C119.347 260.885 118.578 261.27 117.783 261.706C116.691 262.228 115.652 262.855 114.68 263.577C112.811 264.984 110.83 266.236 108.758 267.321L107.706 267.91C107.014 268.269 106.347 268.628 105.681 269.039L105.142 269.398C104.852 269.524 104.591 269.707 104.373 269.936C103.732 270.372 103.117 270.808 102.45 271.192C102.12 271.364 101.777 271.51 101.425 271.628C100.814 271.856 100.23 272.149 99.6811 272.5L98.5016 273.346C97.9632 273.756 97.399 274.167 96.8349 274.526C95.6207 275.207 94.3177 275.716 92.9633 276.038C92.1171 276.269 91.2454 276.526 90.3993 276.833L89.2711 277.32C88.7609 277.58 88.229 277.794 87.6814 277.961C87.0404 278.115 86.3739 278.243 85.7329 278.346L84.0663 278.679C83.1964 278.903 82.3402 279.177 81.5023 279.5L80.8613 279.731C79.9305 280.01 78.9612 280.14 77.9896 280.115H77.7331H76.0153H73.8871C73.0277 280.097 72.1687 280.166 71.3231 280.32C69.4231 280.822 67.6669 281.762 66.1951 283.064L65.5798 283.551C65.1182 283.884 64.6568 284.166 64.1696 284.474C63.7616 284.697 63.3677 284.946 62.9901 285.217C62.3725 285.642 61.7818 286.105 61.2211 286.602L60.5801 287.14C58.9901 288.325 57.2695 289.323 55.4521 290.115L53.7854 290.91C52.8705 291.293 52.0088 291.793 51.2214 292.397C50.7659 292.758 50.3453 293.162 49.9651 293.602C49.5862 294.011 49.1745 294.388 48.7343 294.73C48.0209 295.261 47.405 295.912 46.9139 296.653C46.6641 297.126 46.2416 297.484 45.7344 297.653C45.3504 297.802 45.0014 298.029 44.7089 298.32C44.5102 298.488 44.3296 298.677 44.1704 298.884C43.9653 299.089 43.8371 299.243 43.6833 299.371L43.0936 299.704L42.2988 300.191C41.7987 300.53 41.3192 300.898 40.8629 301.294C40.4066 301.69 39.9272 302.058 39.4271 302.396C38.4528 303.037 37.5041 303.704 36.5298 304.396C35.5554 305.089 34.735 305.678 33.8119 306.294C32.8889 306.909 31.453 307.935 30.2736 308.858C29.4788 309.447 28.7096 310.037 27.8891 310.601C26.1181 311.774 24.2866 312.852 22.4021 313.832L21.8893 314.114C20.0338 315.076 18.3102 316.274 16.7613 317.678C16.3819 318.061 16.0225 318.463 15.6844 318.883C15.4059 319.226 15.1061 319.551 14.7869 319.857C14.4526 320.137 14.0704 320.354 13.6588 320.498C13.0723 320.708 12.5197 321.001 12.0179 321.37C11.582 321.729 11.1974 322.088 10.8128 322.472C10.4066 322.882 9.96942 323.259 9.5051 323.601C8.68076 324.178 7.82475 324.709 6.9411 325.19L6.63343 325.395C5.09503 326.267 3.63358 327.242 2.1721 328.216L0.505437 329.318L-2.54573 331.216C-4.69397 332.454 -6.75813 333.833 -8.7249 335.344L-9.1864 335.703L-9.41723 339.805L-7.13523 337.908C-5.94521 336.925 -4.69491 336.017 -3.39174 335.19L0.838769 332.472C3.40277 330.78 6.24879 329.011 8.99227 327.344C9.99817 326.775 10.966 326.141 11.8896 325.447C12.2815 325.141 12.65 324.807 12.9921 324.447C13.3325 324.039 13.7401 323.692 14.1973 323.421L14.6331 323.267C15.3863 322.998 16.0821 322.589 16.6843 322.062C17.144 321.632 17.5724 321.169 17.9663 320.678C18.274 320.319 18.5818 319.96 18.9151 319.626C20.4656 318.26 22.1899 317.105 24.0431 316.191C26.185 315.065 28.2493 313.797 30.2223 312.396L36.2476 308.14L37.5809 307.14L38.9143 306.14L40.1193 305.371C40.709 305.012 41.2732 304.653 41.8116 304.268C42.2134 303.982 42.5985 303.674 42.9653 303.345C43.3812 302.975 43.8273 302.641 44.2986 302.345L44.6063 302.166C44.9818 301.962 45.3418 301.73 45.6831 301.473C45.9244 301.27 46.1397 301.037 46.3241 300.781C46.4037 300.666 46.4987 300.563 46.6063 300.473C46.8021 300.311 47.0174 300.173 47.2473 300.063C47.8879 299.808 48.4526 299.393 48.8881 298.858C49.0163 298.653 49.1702 298.448 49.2728 298.243L49.5291 297.884C49.7748 297.59 50.0595 297.331 50.3753 297.114L50.8881 296.73C51.3064 296.363 51.7005 295.969 52.0676 295.55C52.358 295.217 52.6753 294.909 53.0163 294.627C53.8071 294.043 54.6686 293.56 55.5803 293.192L56.7341 292.653C58.7545 291.804 60.6586 290.701 62.4004 289.371C63.3491 288.602 64.3491 287.91 65.3491 287.217C66.3491 286.525 66.9901 286.089 67.7849 285.474C69.3662 283.966 71.4252 283.059 73.6051 282.91H73.8871H75.8871H78.0664C78.7439 282.918 79.421 282.875 80.0921 282.782C80.9064 282.636 81.7049 282.413 82.4766 282.115C82.7702 281.997 83.0697 281.894 83.3739 281.807C84.4252 281.491 85.4958 281.243 86.5789 281.064H86.9123C87.9105 280.922 88.8906 280.673 89.8353 280.32L90.5276 280.038C91.012 279.807 91.5083 279.601 92.0146 279.423C91.5906 279.925 91.2763 280.51 91.0916 281.141C91.0916 281.32 91.0917 281.525 90.8609 281.756C90.6302 281.987 90.8608 281.961 89.9378 282.089C89.5031 282.158 89.0744 282.261 88.6558 282.397C87.3738 282.91 86.0918 283.551 84.9636 284.115C84.3488 284.402 83.8058 284.822 83.3739 285.346C83.1821 285.537 82.9539 285.687 82.7029 285.789C82.4519 285.89 82.1831 285.94 81.9124 285.935H80.1178C79.4989 285.919 78.8821 286.014 78.2973 286.217C77.5534 286.525 76.8682 286.959 76.2718 287.499C75.9916 287.746 75.6913 287.969 75.3743 288.166C74.1405 288.911 72.8349 289.529 71.4771 290.012L70.2719 290.422C69.3892 290.7 68.5315 291.052 67.7079 291.474C66.99 291.833 66.3234 292.269 65.6311 292.704C65.0689 293.093 64.4869 293.453 63.8876 293.781C62.8107 294.345 61.8108 295.012 60.8364 295.627L59.9646 296.191C59.2807 296.629 58.57 297.023 57.8366 297.371C57.2982 297.653 56.7852 297.909 56.2724 298.217C55.1101 298.897 54.1121 299.825 53.3496 300.935C52.5796 301.925 51.7215 302.843 50.7856 303.678L50.5034 303.96C49.9137 304.55 49.3753 305.191 48.8113 305.806C48.2472 306.422 47.9908 306.755 47.5549 307.191L46.3498 308.422C45.7344 309.063 45.1191 309.678 44.5294 310.319C43.6518 311.356 42.6629 312.293 41.5808 313.114C40.2988 314.037 39.3245 314.78 38.4271 315.55C37.2989 316.531 36.0699 317.391 34.7606 318.114C33.93 318.527 33.0735 318.887 32.1966 319.19C31.6325 319.396 31.0684 319.626 30.5299 319.883C29.6922 320.228 28.8362 320.528 27.9659 320.78L26.5558 321.242C25.6013 321.638 24.7311 322.212 23.9918 322.934L23.4533 323.395C22.7866 323.934 22.12 324.421 21.4278 324.934C19.7583 326.079 18.2192 327.403 16.8381 328.882C16.2484 329.549 15.71 330.267 15.1716 330.985C14.6332 331.703 14.5562 331.78 14.2229 332.164C13.8896 332.549 13.505 333.036 13.1204 333.446C12.7358 333.857 12.1205 334.575 11.6589 335.164C10.7894 336.363 9.99311 337.613 9.27443 338.908C8.50761 340.238 7.65096 341.514 6.71043 342.728C5.17203 344.651 3.45406 346.497 1.8131 348.292L0.608097 349.6C-0.355203 350.636 -1.26244 351.723 -2.10974 352.856C-2.43165 353.328 -2.81057 353.758 -3.2379 354.138C-3.42995 354.28 -3.64754 354.385 -3.8789 354.445C-4.28554 354.596 -4.6729 354.794 -5.03273 355.035C-5.36175 355.274 -5.66272 355.549 -5.93007 355.856L-6.3404 356.24C-6.94762 356.729 -7.60016 357.158 -8.28906 357.522L-9.41723 358.138C-10.3106 358.612 -11.1676 359.152 -11.9812 359.753C-12.165 359.873 -12.3366 360.01 -12.4939 360.163L-12.8529 360.445L-13.0067 361.138L-11.7504 361.522L-13.0067 361.266L-13.6991 364.753L-10.6736 362.189C-10.4522 361.979 -10.2117 361.79 -9.95557 361.625C-9.31457 361.189 -8.59668 360.804 -7.9044 360.42L-6.41724 359.599C-5.80627 359.239 -5.21565 358.845 -4.64807 358.42C-4.38763 358.203 -4.13945 357.972 -3.90457 357.727C-3.67381 357.467 -3.40599 357.243 -3.10973 357.061L-2.69956 356.907C-2.31886 356.775 -1.95677 356.594 -1.62257 356.368C-1.01569 355.902 -0.480172 355.349 -0.0329027 354.728C1.27474 353.035 2.73623 351.42 4.14643 349.882L6.1206 347.677C8.07959 345.602 9.79968 343.314 11.2486 340.856C11.8896 339.703 12.5819 338.523 13.3254 337.446C13.8614 336.701 14.4438 335.99 15.0691 335.318L16.0946 334.113L17.3253 332.549C17.7355 332.036 18.1459 331.498 18.5818 330.985C19.3858 330.028 20.2978 329.168 21.2996 328.421L24.9404 325.575L25.7096 324.959C26.3389 324.348 27.0903 323.876 27.9146 323.575C29.1293 323.236 30.32 322.817 31.4786 322.319C32.0427 322.062 32.6324 321.831 33.1964 321.626C34.1318 321.274 35.0476 320.872 35.9399 320.421C37.2109 319.751 38.4207 318.97 39.5553 318.088L40.2219 317.524C41.0937 316.806 41.9654 316.114 42.7859 315.473C44.3292 314.433 45.7485 313.22 47.0164 311.857ZM115.219 209.092H116.603L116.937 208.862C117.34 208.602 117.77 208.387 118.219 208.221L118.885 207.939C119.549 207.616 120.169 207.211 120.731 206.733L121.296 206.323C121.81 205.999 122.373 205.756 122.962 205.605L123.654 205.349C124.167 205.195 124.654 204.99 125.167 204.785L126.526 204.272L127.372 203.99C127.911 203.829 128.442 203.641 128.962 203.426L130.064 202.939C130.653 202.63 131.272 202.381 131.91 202.195L132.603 202.016C133.384 201.955 134.135 201.685 134.775 201.234C135.416 200.783 135.923 200.167 136.244 199.452C136.372 199.17 136.449 198.888 136.551 198.606C136.677 198.186 136.849 197.782 137.064 197.4C137.429 196.862 137.869 196.378 138.372 195.965L138.833 195.529C140.237 194.176 141.556 192.737 142.782 191.221C143.139 190.758 143.572 190.359 144.064 190.042C144.643 189.747 145.267 189.547 145.91 189.452L146.525 189.298C147.287 189.103 148.026 188.828 148.73 188.478L150.038 187.939C150.781 187.606 151.525 187.298 152.269 186.914C153.36 186.313 154.414 185.645 155.422 184.914L157.089 183.786C158.186 183.131 159.316 182.532 160.473 181.991L162.345 181.093C163.068 180.744 163.824 180.47 164.601 180.273C165.212 180.09 165.798 179.831 166.345 179.504L166.986 179.17C168.55 178.427 170.242 177.837 171.858 177.247L172.729 176.94C173.627 176.632 174.499 176.247 175.293 175.889C176.088 175.53 177.293 175.042 178.319 174.709L180.293 174.145L180.857 173.991C181.421 173.991 181.96 173.684 182.498 173.504L183.755 173.094L185.19 172.76L186.524 172.453C187.407 172.198 188.265 171.863 189.088 171.453L189.395 171.325C190.251 170.91 191.169 170.641 192.113 170.53C192.994 170.447 193.832 170.108 194.523 169.555C195.627 168.913 196.864 168.535 198.139 168.453C198.831 168.453 199.523 168.222 200.19 168.068L200.856 167.889C202.985 167.35 205.113 166.812 207.215 166.222L208.01 165.991C208.831 165.761 209.625 165.556 210.395 165.274C211.099 165.032 211.77 164.705 212.394 164.299L213.112 163.889C213.437 163.76 213.771 163.658 214.112 163.581C214.579 163.496 215.035 163.358 215.471 163.171C216.251 162.74 216.905 162.112 217.369 161.351L217.83 160.658L217.497 159.94L217.061 159.197H215.625L215.24 159.71C214.676 160.453 214.471 160.658 213.984 160.761C213.084 160.923 212.217 161.235 211.42 161.684C209.972 162.476 208.418 163.054 206.805 163.402L206.318 163.53C205.241 163.838 204.138 164.094 203.061 164.376L200.215 165.094C199.446 165.299 198.677 165.402 197.908 165.53C196.752 165.68 195.611 165.928 194.498 166.274C193.964 166.49 193.457 166.765 192.985 167.094L192.395 167.479C192.042 167.613 191.67 167.691 191.293 167.709C190.78 167.748 190.272 167.843 189.78 167.991C189.062 168.248 188.395 168.556 187.703 168.863L187.37 169.017C186.421 169.414 185.433 169.706 184.421 169.889C183.242 170.145 182.114 170.504 180.96 170.837C180.267 171.068 179.55 171.273 178.857 171.453C177.529 171.85 176.228 172.329 174.96 172.889L173.037 173.632L170.986 174.401C169.806 174.812 168.627 175.222 167.473 175.683C166.319 176.145 165.755 176.401 164.909 176.837L164.601 177.017C164.37 177.152 164.13 177.271 163.884 177.376H163.345C163.058 177.42 162.775 177.489 162.499 177.581C161.912 177.794 161.345 178.06 160.807 178.376L160.345 178.606L157.525 179.965C156.217 180.656 154.957 181.435 153.756 182.299L152.576 183.093C151.073 184.012 149.495 184.801 147.859 185.452L147.294 185.709C146.47 186.063 145.611 186.329 144.73 186.503C143.764 186.685 142.841 187.051 142.013 187.58C141.115 188.259 140.328 189.072 139.679 189.991C139.372 190.375 139.064 190.785 138.731 191.144C138.397 191.503 137.756 192.093 137.269 192.555C136.342 193.333 135.484 194.191 134.705 195.119C134.175 195.907 133.769 196.772 133.5 197.683C133.412 197.989 133.283 198.283 133.116 198.554C132.807 198.725 132.467 198.829 132.116 198.862C130.701 199.22 129.319 199.701 127.988 200.298C127.244 200.58 126.526 200.888 125.783 201.144L123.885 201.862L122.757 202.272L121.962 202.554C121.154 202.778 120.378 203.105 119.655 203.528L118.757 204.195C118.408 204.496 118.03 204.763 117.629 204.99L116.962 205.298C116.278 205.563 115.632 205.916 115.039 206.349L114.27 207.041L114.578 207.913L115.219 209.092ZM239.137 313.986H238.419C237.227 313.945 236.042 314.182 234.958 314.678C233.547 315.345 232.137 315.985 230.701 316.55C230.112 316.78 229.522 316.934 228.907 317.114C228.185 317.306 227.475 317.537 226.778 317.806C225.498 318.334 224.249 318.934 223.035 319.601L221.83 320.216C220.884 320.654 219.975 321.168 219.112 321.754C218.868 321.962 218.591 322.127 218.292 322.242H217.933C217.593 322.312 217.259 322.406 216.933 322.524C216.4 322.795 215.908 323.14 215.471 323.549C214.974 323.932 214.421 324.235 213.83 324.447C213.17 324.72 212.494 324.951 211.805 325.139C210.204 325.565 208.687 326.258 207.318 327.19C206.571 327.78 205.877 328.432 205.241 329.139L204.651 329.78C203.841 330.678 202.985 331.534 202.087 332.344C201.104 333.166 200.018 333.855 198.857 334.395C197.934 334.831 197.062 335.369 196.164 335.882L195.19 336.421C194.51 336.812 193.808 337.163 193.088 337.472L191.523 338.19L191.216 338.369C190.754 338.63 190.264 338.837 189.754 338.985C189.391 339.069 189.023 339.129 188.652 339.164H187.96C185.147 339.703 182.507 340.917 180.268 342.702C179.037 343.6 178.063 344.266 177.037 344.882C175.896 345.522 174.807 346.25 173.781 347.061C172.883 347.826 172.027 348.64 171.217 349.497C170.253 350.563 169.188 351.533 168.037 352.394C167.557 352.724 167.051 353.016 166.524 353.266C165.986 353.548 165.448 353.856 164.935 354.189C163.988 354.82 163.127 355.57 162.371 356.42C162.111 356.702 161.872 357.002 161.653 357.317C161.32 357.851 160.885 358.313 160.371 358.676C160.038 358.825 159.683 358.92 159.32 358.958C158.659 359.047 158.017 359.246 157.422 359.548C157.128 359.727 156.846 359.924 156.576 360.138L156.192 360.42C155.798 360.672 155.387 360.895 154.961 361.086L154.628 361.24C153.86 361.64 153.138 362.122 152.474 362.676C152.064 362.984 151.653 363.291 151.243 363.548L150.448 364.009C149.593 364.448 148.807 365.009 148.115 365.676C147.769 366.06 147.443 366.462 147.141 366.881C146.802 367.378 146.406 367.835 145.961 368.24C145.448 368.65 144.884 368.983 144.346 369.342C143.728 369.682 143.137 370.068 142.577 370.496C141.492 371.355 140.519 372.345 139.679 373.445C138.817 374.609 138.07 375.854 137.449 377.163C136.989 378.119 136.466 379.044 135.885 379.932C135.628 380.291 135.372 380.675 135.09 381.034C134.808 381.393 134.115 382.419 133.68 383.137C133.028 384.272 132.462 385.455 131.987 386.675V386.983C131.386 388.348 130.881 389.753 130.475 391.188C130.173 392.184 129.751 393.139 129.218 394.034L128.782 394.854C128.151 396.113 127.719 397.463 127.5 398.854V399.444C127.5 399.854 127.347 400.264 127.244 400.649C127.168 400.948 127.065 401.24 126.936 401.521C126.808 401.854 126.68 402.187 126.577 402.546C126.339 403.597 126.261 404.677 126.347 405.751V406.546V407.905H127.629H129.013V405.828C128.924 404.855 129.011 403.873 129.27 402.931C129.643 401.761 129.951 400.571 130.193 399.367V398.957C130.435 397.747 130.876 396.585 131.5 395.521C132.229 394.324 132.782 393.029 133.141 391.675C133.481 390.51 133.9 389.371 134.398 388.265L134.577 387.854C135.068 386.557 135.686 385.312 136.423 384.137C136.756 383.65 137.09 383.162 137.449 382.701C137.808 382.239 138.269 381.573 138.628 380.983C139.063 380.284 139.448 379.556 139.782 378.803C139.987 378.393 140.167 377.983 140.397 377.598C141.54 375.362 143.246 373.463 145.346 372.086L145.859 371.778C146.866 371.218 147.79 370.519 148.602 369.701C148.935 369.353 149.235 368.976 149.5 368.573C149.853 368.048 150.285 367.581 150.782 367.189L152.012 366.445C152.678 366.074 153.32 365.663 153.935 365.214L154.499 364.753L155.345 364.112L156.243 363.676L157.038 363.291L158.115 362.599C158.535 362.246 159.024 361.984 159.55 361.83C160.657 361.74 161.711 361.321 162.576 360.625C163.095 360.131 163.567 359.59 163.986 359.009C164.242 358.676 164.499 358.343 164.781 358.035C165.446 357.317 166.215 356.704 167.063 356.215L167.858 355.779C168.712 355.337 169.527 354.822 170.294 354.24C171.315 353.451 172.283 352.594 173.191 351.676L173.832 351.035C174.419 350.375 175.053 349.758 175.729 349.189C176.549 348.567 177.405 347.993 178.293 347.471L178.986 347.061C179.832 346.548 180.652 345.984 181.55 345.395C182.89 344.403 184.324 343.544 185.831 342.831C186.984 342.383 188.191 342.09 189.421 341.959C190.606 341.741 191.749 341.334 192.805 340.754L194.395 340.01C195.267 339.6 196.113 339.19 196.959 338.703C197.805 338.215 199.267 337.395 200.472 336.805C202.764 335.577 204.821 333.954 206.549 332.01C206.801 331.758 207.041 331.493 207.266 331.216C207.823 330.575 208.441 329.991 209.113 329.472C210.007 328.869 210.994 328.419 212.035 328.139L212.728 327.908C213.548 327.626 214.394 327.37 215.292 327.036C215.903 326.779 216.487 326.462 217.035 326.088C217.234 325.957 217.423 325.811 217.599 325.652C217.825 325.427 218.096 325.252 218.394 325.139H218.779C218.982 325.115 219.18 325.063 219.369 324.985C219.975 324.779 220.539 324.466 221.035 324.062C221.695 323.621 222.389 323.236 223.112 322.908L224.291 322.319C225.495 321.641 226.736 321.034 228.009 320.498C228.395 320.364 228.789 320.252 229.189 320.165L229.881 319.985C230.573 319.78 231.291 319.498 232.137 319.165C233.471 318.626 234.701 318.062 236.06 317.447C236.932 317.035 237.891 316.842 238.855 316.883H239.214L240.547 316.678V314.114L239.137 313.986ZM239.675 303.448L239.111 303.704C238.496 303.93 237.923 304.259 237.419 304.678C236.573 305.334 235.63 305.853 234.624 306.217L233.265 306.729C232.957 306.823 232.639 306.884 232.317 306.909H231.65C230.948 307.046 230.294 307.364 229.753 307.832C229.569 307.998 229.361 308.136 229.137 308.242C228.944 308.288 228.742 308.288 228.548 308.242C228.279 308.26 228.013 308.303 227.753 308.37C227.191 308.496 226.66 308.732 226.189 309.063C225.41 309.536 224.606 309.964 223.779 310.345L223.112 310.652L219.445 312.524L216.881 313.883C214.958 314.857 213.061 315.652 211.036 316.447L210.446 316.703C209.677 317.013 208.946 317.408 208.266 317.883C207.507 318.515 206.88 319.291 206.42 320.165L206.266 320.447C206.115 320.762 205.9 321.043 205.635 321.273C205.371 321.502 205.062 321.675 204.728 321.78C204.228 321.884 203.723 321.961 203.215 322.011L201.908 322.19L201.164 322.319C200.421 322.447 199.703 322.575 198.959 322.754C197.791 323.099 196.671 323.59 195.626 324.216L194.267 324.959C192.472 325.934 190.6 326.959 188.806 328.139C187.703 328.857 186.754 329.549 185.908 330.216L185.344 330.728C184.908 331.113 184.319 331.652 183.96 331.652H183.703H182.447V332.831V334.062L183.626 334.267H184.114C184.895 334.226 185.646 333.949 186.267 333.472C186.729 333.139 187.19 332.754 187.626 332.395L188.652 331.549C190.494 330.173 192.45 328.955 194.498 327.908L196.062 327.062C197.441 326.225 198.936 325.595 200.497 325.19C201.497 324.985 202.523 324.78 203.523 324.677H203.856C204.734 324.631 205.598 324.45 206.42 324.139C207.376 323.708 208.168 322.979 208.677 322.062L208.959 321.575C209.302 320.894 209.792 320.299 210.395 319.831C211.066 319.446 211.769 319.12 212.497 318.857L212.805 318.729C213.933 318.293 215.035 317.806 216.138 317.293C217.753 316.524 219.369 315.703 220.958 314.883L222.753 313.96C223.804 313.447 224.83 312.909 225.881 312.422H226.189C226.552 312.268 226.903 312.088 227.24 311.883L227.727 311.575C227.995 311.367 228.299 311.21 228.625 311.114C228.787 311.1 228.95 311.1 229.112 311.114C229.605 311.1 230.092 310.996 230.548 310.806C230.936 310.618 231.291 310.366 231.599 310.063L231.983 309.781C232.232 309.666 232.505 309.613 232.778 309.627H233.471C234.045 309.513 234.605 309.332 235.137 309.088L235.906 308.806C236.888 308.464 237.826 308.008 238.701 307.447L239.368 306.909C239.545 306.721 239.753 306.565 239.983 306.447L241.034 305.96L241.701 305.473L241.983 302.448L239.675 303.448ZM129.167 317.55C129.551 317.021 129.894 316.464 130.193 315.883L130.449 315.447C130.757 314.909 131.09 314.37 131.449 313.857L131.731 313.447C132.698 312.053 133.434 310.512 133.91 308.883C134.116 308.191 134.295 307.499 134.474 306.806C134.965 304.477 135.831 302.243 137.038 300.191C137.699 299.298 138.475 298.496 139.346 297.807L140.397 296.884L141.115 296.191C142.09 295.294 143.038 294.397 144.064 293.627C145.09 292.858 146.628 291.73 147.782 290.807L148.218 290.499C149.041 289.861 149.821 289.167 150.551 288.422C150.884 288.089 151.217 287.756 151.576 287.448C152.213 286.888 152.92 286.414 153.679 286.038C154.331 285.687 154.965 285.302 155.576 284.884C156.532 284.12 157.448 283.307 158.32 282.448L159.499 281.32C160.807 280.166 162.063 278.961 163.345 277.731C163.547 277.536 163.687 277.286 163.746 277.012C163.806 276.738 163.782 276.453 163.678 276.192L163.217 275.295H162.345H161.73L161.345 275.679C160.063 276.961 158.781 278.243 157.371 279.423L156.217 280.5C155.443 281.346 154.583 282.111 153.653 282.782C153.243 283.064 152.807 283.294 152.397 283.525C151.402 284.035 150.472 284.664 149.628 285.397L148.807 286.192C148.013 287.018 147.156 287.781 146.243 288.474C144.91 289.448 143.679 290.422 142.295 291.474C140.91 292.525 140.372 293.166 139.449 294.038L138.5 294.935L137.577 295.73C136.634 296.492 135.775 297.351 135.013 298.294C134.286 299.359 133.7 300.514 133.269 301.73L133.013 302.371C132.498 303.667 132.095 305.005 131.808 306.37L131.603 307.191C131.238 308.738 130.614 310.212 129.757 311.55L129.295 312.216L128.423 313.524L127.911 314.473C127.705 314.832 127.526 315.191 127.295 315.524C126.434 316.66 125.385 317.64 124.193 318.421C123.293 319.121 122.437 319.874 121.629 320.678L120.578 321.626C120.065 322.088 119.526 322.498 118.988 322.934C118.212 323.508 117.476 324.134 116.783 324.806L115.424 326.139C114.757 326.857 114.065 327.549 113.321 328.216C112.578 328.882 112.27 329.216 111.732 329.754C111.157 330.368 110.549 330.95 109.911 331.498C108.811 332.475 107.868 333.616 107.117 334.882C106.758 335.421 106.373 335.933 105.988 336.446C105.347 337.344 104.681 338.241 104.117 339.215C103.783 339.754 103.476 340.318 103.168 340.882C102.694 341.83 102.145 342.739 101.527 343.6C101.168 344.113 100.758 344.625 100.348 345.113C99.705 345.864 99.1059 346.652 98.5529 347.471L97.6041 348.984C96.9887 349.958 96.3991 350.933 95.7324 351.856C95.0658 352.779 94.8606 352.984 94.3991 353.522C93.7676 354.243 93.1852 355.006 92.6556 355.804C92.2966 356.343 91.9634 356.933 91.6301 357.497C91.1421 358.388 90.5938 359.244 89.9891 360.061C89.0694 361.145 88.0937 362.18 87.0661 363.163L86.8611 363.343C85.7842 364.419 84.7841 365.548 83.8354 366.624C82.7457 367.93 81.5814 369.171 80.3484 370.342C79.6562 370.958 78.9127 371.547 78.1691 372.137C76.4433 373.371 74.9133 374.857 73.6308 376.547C73.1614 377.215 72.6565 377.857 72.1181 378.47C71.6053 379.06 71.1181 379.65 70.6566 380.265C69.7957 381.538 69.0493 382.885 68.4259 384.29L68.2721 384.649C67.7682 385.511 67.3144 386.402 66.9131 387.316C66.6567 388.06 66.4003 388.803 66.0669 389.547C65.6891 390.32 65.243 391.058 64.7338 391.752L63.7081 393.341L63.5029 393.726C62.7216 394.973 62.0687 396.296 61.5543 397.675C61.1103 399.284 60.9541 400.959 61.0928 402.623C61.2372 404.014 61.0529 405.419 60.5544 406.725C60.2868 407.261 59.9781 407.776 59.6313 408.264C59.3764 408.687 59.1617 409.134 58.9903 409.597C58.9903 409.854 58.7596 410.136 58.6314 410.366C58.0915 411.226 57.4826 412.041 56.8109 412.802L55.6828 414.187C54.6315 415.597 53.5546 416.981 52.5803 418.417L52.1188 419.058C51.3737 420.019 50.7535 421.07 50.2728 422.186C49.8967 423.007 49.4139 423.774 48.8369 424.468C48.4224 424.994 48.0372 425.542 47.6831 426.109C47.0015 427.328 46.1367 428.435 45.1191 429.391L44.4268 430.135L44.7344 430.955L45.1961 431.878H46.6574L47.0164 431.571C48.1884 430.458 49.1907 429.18 49.9908 427.776C50.3031 427.269 50.6455 426.781 51.0163 426.314C51.5616 425.614 52.0585 424.877 52.5034 424.109C52.6703 423.777 52.8159 423.435 52.9393 423.084C53.0263 422.83 53.129 422.581 53.2469 422.34C53.4971 421.94 53.7711 421.554 54.0674 421.186L54.6316 420.443C55.5803 419.084 56.5545 417.725 57.5544 416.417L58.7596 414.93C59.4519 414.058 60.1697 413.212 60.7851 412.366C61.0538 411.938 61.2772 411.482 61.4518 411.007L61.7081 410.392C61.8776 410.082 62.066 409.782 62.2723 409.495C62.503 409.161 62.7081 408.828 62.9133 408.469C63.7603 406.626 64.1053 404.591 63.9133 402.572C63.8461 401.527 63.8977 400.477 64.0671 399.444C64.3886 398.19 64.9079 396.996 65.6054 395.905L65.9644 395.239C66.2978 394.675 66.6567 394.111 67.0413 393.572C67.5616 392.844 68.0326 392.081 68.4514 391.29C68.8491 390.456 69.2001 389.6 69.5028 388.726C69.7267 387.974 70.0009 387.237 70.3233 386.521L70.5539 386.06C71.1199 384.774 71.7798 383.531 72.5283 382.342C72.9535 381.741 73.4159 381.167 73.9128 380.624C74.4512 380.009 74.9641 379.393 75.4256 378.752C76.2236 377.604 77.1919 376.584 78.2973 375.727C80.9706 373.683 83.4124 371.353 85.5791 368.778C86.5383 367.608 87.5747 366.503 88.6814 365.471C89.8652 364.354 90.9866 363.173 92.0403 361.932C92.7153 361.015 93.332 360.056 93.8864 359.061L94.5786 357.881C95.1122 357.077 95.6945 356.307 96.3221 355.574C96.758 355.087 97.1683 354.574 97.5529 354.061C98.3221 353.035 98.9888 351.933 99.6554 350.856L100.45 349.6C101.047 348.706 101.698 347.85 102.399 347.036L103.322 345.856C104.067 344.816 104.743 343.728 105.347 342.6C105.578 342.164 105.809 341.728 106.065 341.292C106.706 340.215 107.424 339.215 108.168 338.164L108.86 337.19C109.091 336.882 109.296 336.549 109.501 336.215C109.706 335.882 109.937 335.523 110.193 335.19C110.588 334.689 111.044 334.241 111.552 333.857C112.256 333.264 112.924 332.631 113.552 331.959C114.014 331.472 114.475 331.011 114.962 330.575C115.45 330.139 116.424 329.139 117.142 328.395L118.68 326.882C119.267 326.344 119.883 325.839 120.526 325.37C121.09 324.908 121.654 324.472 122.193 323.985L123.065 323.216C124.052 322.306 125.088 321.451 126.167 320.652C127.329 319.787 128.342 318.739 129.167 317.55Z" fill="#EEDAAE"/>
<path d="M297.186 328.652C297.086 327.914 296.732 327.234 296.186 326.729C294.853 325.729 293.289 327.472 292.648 328.472C291.59 330.307 290.73 332.25 290.084 334.267C289.567 335.36 289.113 336.481 288.725 337.626C288.396 338.866 288.206 340.138 288.161 341.42C288.161 343.087 288.161 344.779 288.161 346.548C288.161 347.446 288.161 348.369 288.161 349.266C288.161 350.164 287.802 351.112 287.648 352.035C287.443 353.831 287.391 355.641 287.494 357.445C287.494 358.266 287.494 359.086 287.494 360.009C287.494 361.009 287.494 361.984 287.494 362.984C287.493 363.03 287.507 363.076 287.535 363.113C287.563 363.15 287.603 363.177 287.648 363.189V363.317H287.827V363.163C287.843 363.136 287.851 363.105 287.851 363.073C287.851 363.042 287.843 363.011 287.827 362.984C288.112 361.647 288.551 360.348 289.135 359.112C289.268 357.743 289.517 356.388 289.879 355.061C290.417 353.753 291.571 353.035 292.443 351.933C292.767 351.531 292.987 351.056 293.084 350.548C293.067 349.86 293.127 349.172 293.263 348.497C293.468 347.933 293.853 347.42 294.083 346.882C294.372 346.216 294.612 345.531 294.801 344.831C295.212 343.42 295.468 341.985 295.776 340.549C296.784 337.789 297.431 334.911 297.699 331.985C297.64 330.859 297.468 329.743 297.186 328.652Z" fill="white"/>
<path d="M268.033 320.011C268.124 319.358 268.072 318.693 267.879 318.062C267.392 316.755 266.546 315.498 266.059 314.293C265.714 312.835 265.482 311.352 265.367 309.858C264.99 308.546 264.447 307.288 263.751 306.114C263.059 304.755 262.521 303.242 261.931 301.807C261.341 300.371 261.444 299.448 261.034 298.294C260.589 297.416 260.101 296.56 259.572 295.73C258.957 294.474 257.854 292.14 256.034 292.679C254.7 293.063 254.264 294.961 254.034 296.115C253.572 297.871 253.572 299.717 254.034 301.473C255.113 303.839 256.607 305.992 258.444 307.832C259.395 309.174 260.138 310.653 260.649 312.216C260.803 312.627 260.982 313.011 261.162 313.422C261.133 313.417 261.104 313.422 261.077 313.433C261.051 313.445 261.028 313.464 261.012 313.488C260.996 313.513 260.987 313.541 260.986 313.57C260.986 313.599 260.993 313.627 261.008 313.652C261.297 314.377 261.724 315.038 262.264 315.601L262.495 316.062C263.059 317.037 263.674 317.985 264.315 318.934C264.516 319.312 264.747 319.672 265.008 320.011C265.218 320.277 265.45 320.525 265.7 320.755C266.197 321.349 266.727 321.914 267.29 322.447C267.895 323.826 268.333 325.272 268.597 326.754C268.623 326.808 268.667 326.851 268.721 326.876C268.775 326.902 268.836 326.907 268.894 326.892C268.952 326.877 269.002 326.842 269.037 326.793C269.072 326.745 269.088 326.686 269.084 326.626C268.623 325.165 268.854 323.601 268.443 322.139C268.199 321.455 268.06 320.737 268.033 320.011Z" fill="white"/>
<path d="M318.954 361.343C318.775 360.83 318.339 360.779 317.877 360.856C317.001 360.991 316.172 361.343 315.467 361.881C314.71 362.367 313.982 362.898 313.288 363.471C313.288 363.471 313.288 363.343 313.134 363.343C312.339 363.343 311.955 364.086 311.647 364.727C311.431 365.115 311.182 365.484 310.903 365.83L310.391 366.368C310.008 366.751 309.566 367.072 309.083 367.317C308.131 367.91 307.267 368.635 306.519 369.471C305.573 370.105 304.826 370.994 304.365 372.035C304.365 372.214 304.519 372.368 304.647 372.265C305.113 371.933 305.601 371.633 306.109 371.368C306.775 371.035 307.57 371.009 308.262 370.727C309.402 370.123 310.491 369.428 311.519 368.65C312.017 368.333 312.576 368.124 313.16 368.035C313.501 367.975 313.82 367.825 314.083 367.599C315.083 366.778 316.108 366.009 317.006 365.035C317.574 364.457 318.081 363.821 318.518 363.138C318.749 362.625 319.159 361.907 318.954 361.343Z" fill="white"/>
<path d="M223.317 352.83C222.83 352.548 222.266 352.446 221.779 352.189C221.29 351.947 220.785 351.741 220.266 351.574C219.137 351.015 217.924 350.643 216.676 350.471C216.082 350.489 215.49 350.558 214.907 350.676C214.189 350.676 213.446 350.676 212.728 350.676C211.866 350.838 211.066 351.238 210.42 351.83C210.035 352.112 209.343 352.625 209.471 353.215C209.599 353.805 210.523 353.779 211.01 353.651C211.568 353.476 212.144 353.364 212.728 353.317C213.383 353.394 214.046 353.394 214.702 353.317C215.494 353.099 216.319 353.021 217.138 353.087C218.003 353.188 218.86 353.351 219.702 353.574C220.445 353.728 221.214 353.574 221.958 353.856C222.76 354.062 223.548 354.319 224.317 354.625C224.317 354.804 224.65 354.753 224.625 354.625C224.599 353.984 223.778 353.189 223.317 352.83Z" fill="white"/>
<path d="M285.161 66.1237V65.9955C285.161 65.9955 285.007 65.9955 285.161 66.1237Z" fill="#202147"/>
<path d="M293.93 88.892C293.886 88.7489 293.825 88.6113 293.75 88.4818C293.627 88.291 293.46 88.1327 293.263 88.0203L292.673 87.7383C292.291 87.5813 291.922 87.3926 291.571 87.1742L291.391 86.9947C291.235 86.8487 291.029 86.7675 290.814 86.7675C290.6 86.7675 290.394 86.8487 290.237 86.9947C290.086 87.1483 290 87.3556 290 87.5716C290 87.7876 290.086 87.9949 290.237 88.1485C290.779 88.6477 291.428 89.0161 292.135 89.2254H291.93L292.443 89.4818C292.574 89.5683 292.711 89.6454 292.853 89.7125C292.938 89.7012 293.024 89.7012 293.109 89.7125C293.223 89.744 293.343 89.7448 293.457 89.7148C293.571 89.6847 293.675 89.6249 293.759 89.5415C293.842 89.4581 293.902 89.354 293.932 89.2399C293.962 89.1258 293.961 89.0057 293.93 88.892Z" fill="white"/>
<path d="M325.877 69.1236C325.85 69.057 325.804 68.9999 325.745 68.9596C325.686 68.9194 325.616 68.8979 325.544 68.8979C325.472 68.8979 325.402 68.9194 325.342 68.9596C325.283 68.9999 325.237 69.057 325.21 69.1236V69.2518C325.132 69.3745 325.064 69.5031 325.005 69.6364V69.7903L324.8 70.0979L324.544 70.38L324.005 70.8671C323.95 70.9176 323.906 70.979 323.876 71.0474C323.846 71.1158 323.83 71.1898 323.83 71.2645C323.83 71.3393 323.846 71.4133 323.876 71.4817C323.906 71.5501 323.95 71.6115 324.005 71.662C324.11 71.7593 324.247 71.8134 324.39 71.8134C324.533 71.8134 324.67 71.7593 324.775 71.662C325.216 71.3064 325.597 70.8822 325.903 70.4056C326.056 70.1627 326.185 69.905 326.287 69.6364C326.18 69.4438 326.041 69.2704 325.877 69.1236Z" fill="white"/>
<path d="M331.338 56.0472C331.143 56.2142 330.978 56.4137 330.851 56.6369L330.467 57.2523C330.334 57.4839 330.239 57.7348 330.185 57.9958C330.109 58.2554 330.057 58.5215 330.031 58.7906C330.034 58.9062 330.077 59.0172 330.151 59.1056C330.226 59.1941 330.328 59.2547 330.441 59.2778C330.558 59.289 330.676 59.2594 330.774 59.194C330.872 59.1286 330.945 59.0314 330.979 58.9188C331.024 58.6984 331.093 58.4834 331.185 58.2778C331.185 58.2778 331.185 58.0727 331.185 58.2778V58.0215C331.173 57.9106 331.173 57.799 331.185 57.6881C331.241 57.4793 331.31 57.2739 331.39 57.0728C331.497 56.8569 331.558 56.6212 331.569 56.3805C331.577 56.3064 331.559 56.2318 331.516 56.1705C331.474 56.1091 331.411 56.0653 331.338 56.0472Z" fill="white"/>
<path d="M330.723 36.2531C330.671 36.2155 330.608 36.1953 330.544 36.1953C330.479 36.1953 330.416 36.2155 330.364 36.2531C330.21 36.3813 330.031 36.4839 329.903 36.6121L329.518 36.9966L328.749 37.7402C328.705 37.7733 328.668 37.8154 328.642 37.8638C328.616 37.9122 328.6 37.9657 328.596 38.0206C328.592 38.0756 328.6 38.1308 328.619 38.1824C328.638 38.234 328.669 38.2809 328.708 38.3198C328.747 38.3588 328.793 38.3889 328.845 38.4082C328.897 38.4275 328.952 38.4354 329.007 38.4315C329.062 38.4276 329.115 38.4119 329.164 38.3856C329.212 38.3592 329.254 38.3227 329.287 38.2786L330.031 37.5095L330.39 37.1248C330.532 36.9829 330.66 36.8285 330.774 36.6633C330.818 36.6008 330.837 36.5242 330.828 36.4483C330.818 36.3725 330.781 36.3029 330.723 36.2531Z" fill="white"/>
<path d="M327.338 53.996C327.268 53.9329 327.177 53.8981 327.082 53.8981C326.987 53.8981 326.896 53.9329 326.826 53.996C326.644 54.1185 326.472 54.2557 326.313 54.4062C326.161 54.5866 326.032 54.7846 325.928 54.996C325.689 55.3992 325.565 55.8604 325.569 56.3292C325.566 56.392 325.575 56.4548 325.597 56.5138C325.618 56.5727 325.652 56.6267 325.695 56.6723C325.738 56.7179 325.79 56.7542 325.848 56.779C325.906 56.8038 325.968 56.8165 326.031 56.8164C326.096 56.8201 326.161 56.8101 326.222 56.7869C326.282 56.7637 326.338 56.728 326.384 56.682C326.43 56.636 326.465 56.5808 326.489 56.52C326.512 56.4592 326.522 56.3942 326.518 56.3292C326.506 56.2528 326.506 56.1749 326.518 56.0985C326.508 56.0133 326.508 55.9272 326.518 55.8421C326.518 55.8421 326.518 55.8421 326.518 55.7139L326.826 55.2267L326.979 55.0216C327.115 55.0692 327.265 55.0608 327.395 54.9983C327.524 54.9358 327.624 54.8243 327.672 54.6883C327.719 54.5523 327.711 54.4029 327.648 54.2731C327.586 54.1433 327.474 54.0436 327.338 53.996Z" fill="white"/>
<path d="M332.082 52.5602H331.518H330.005C329.903 52.5602 329.805 52.6007 329.733 52.6728C329.661 52.7449 329.621 52.8427 329.621 52.9447C329.621 53.0467 329.661 53.1446 329.733 53.2167C329.805 53.2888 329.903 53.3294 330.005 53.3294H331.518H332.082C332.082 53.3294 332.287 53.1755 332.287 53.0729C332.326 53.0302 332.351 52.9776 332.361 52.921C332.372 52.8644 332.366 52.8061 332.344 52.7527C332.323 52.6993 332.287 52.6529 332.241 52.6189C332.194 52.5849 332.139 52.5645 332.082 52.5602Z" fill="white"/>
<path d="M325.877 49.509C325.159 49.6885 324.98 50.5089 324.903 51.1499C324.903 51.2781 324.903 51.4063 324.903 51.5602C324.915 51.6194 324.915 51.6805 324.903 51.7396C324.903 51.6114 324.903 51.7396 324.903 51.7396C324.917 51.8072 324.917 51.8772 324.903 51.9448C324.91 51.9958 324.91 52.0476 324.903 52.0986C324.824 52.2121 324.788 52.3497 324.8 52.4872C324.813 52.6247 324.873 52.7535 324.971 52.8511C325.068 52.9487 325.197 53.009 325.335 53.0214C325.472 53.0339 325.61 52.9976 325.723 52.9191C325.952 52.6454 326.111 52.3197 326.185 51.9704C326.224 51.664 326.224 51.3538 326.185 51.0474C326.172 50.9195 326.172 50.7907 326.185 50.6628V50.3807C326.173 50.3128 326.173 50.2435 326.185 50.1756V49.9705C326.196 49.9199 326.197 49.8676 326.187 49.8167C326.178 49.7658 326.158 49.7173 326.129 49.6742C326.1 49.6311 326.063 49.5943 326.02 49.5659C325.977 49.5375 325.928 49.5181 325.877 49.509Z" fill="white"/>
<path d="M285.879 31.6123C285.889 31.5014 285.889 31.3898 285.879 31.2789C285.828 31.1922 285.751 31.1234 285.659 31.0821C285.567 31.0408 285.465 31.0289 285.366 31.0482C285.264 31.0759 285.174 31.1359 285.109 31.2191C285.045 31.3023 285.009 31.4043 285.007 31.5097V31.6892C284.994 31.7656 284.994 31.8435 285.007 31.9199C285.019 31.9964 285.019 32.0742 285.007 32.1507V32.3558C285.007 32.1763 285.007 32.3558 285.007 32.3558L284.776 32.843C284.725 32.9838 284.725 33.138 284.776 33.2788C284.832 33.4243 284.93 33.5494 285.058 33.6378C285.199 33.6887 285.353 33.6887 285.494 33.6378C285.644 33.591 285.772 33.4906 285.853 33.3558C286.025 32.9904 286.17 32.6134 286.289 32.2276C286.314 32.0232 286.314 31.8166 286.289 31.6123C286.155 31.5738 286.013 31.5738 285.879 31.6123Z" fill="white"/>
<path d="M291.058 33.8173L290.878 33.5353V33.3558C290.834 33.2289 290.774 33.1083 290.699 32.9968V32.843C290.518 32.3191 290.23 31.8387 289.853 31.4328C289.771 31.3514 289.661 31.3057 289.545 31.3057C289.43 31.3057 289.319 31.3514 289.238 31.4328C289.155 31.5188 289.108 31.6337 289.108 31.7533C289.108 31.8728 289.155 31.9877 289.238 32.0738C289.247 32.116 289.247 32.1597 289.238 32.202C289.321 32.3034 289.389 32.4155 289.443 32.5353C289.571 32.7448 289.674 32.9685 289.75 33.2019C289.844 33.4452 289.964 33.6774 290.109 33.8942C290.265 34.0977 290.456 34.2714 290.673 34.407C290.752 34.458 290.847 34.4759 290.938 34.4566C291.03 34.4374 291.11 34.3827 291.161 34.3045C291.212 34.2263 291.229 34.131 291.21 34.0397C291.191 33.9483 291.136 33.8683 291.058 33.8173Z" fill="white"/>
<path d="M287.417 25.792C287.403 25.7756 287.385 25.7625 287.365 25.7535C287.345 25.7446 287.324 25.7399 287.302 25.7399C287.28 25.7399 287.258 25.7446 287.238 25.7535C287.219 25.7625 287.201 25.7756 287.186 25.792C287.011 25.9927 286.823 26.1811 286.622 26.3561C286.603 26.3673 286.581 26.3733 286.558 26.3733C286.536 26.3733 286.514 26.3673 286.494 26.3561C286.401 26.3789 286.305 26.3789 286.212 26.3561C286.116 26.3855 286.034 26.4494 285.981 26.5355C285.954 26.5861 285.938 26.6414 285.932 26.6983C285.926 26.7553 285.932 26.8128 285.949 26.8676C285.966 26.9223 285.993 26.9733 286.029 27.0175C286.066 27.0617 286.11 27.0984 286.161 27.1253C286.217 27.1508 286.278 27.1639 286.34 27.1639C286.402 27.1639 286.463 27.1508 286.52 27.1253C286.776 27.0024 286.99 26.806 287.135 26.5612C287.263 26.3561 287.34 26.0997 287.468 25.8689C287.457 25.8397 287.44 25.8134 287.417 25.792Z" fill="white"/>
<path d="M291.699 22.7152V22.3049C291.711 22.2199 291.711 22.1335 291.699 22.0485C291.679 21.98 291.639 21.9191 291.584 21.8734C291.529 21.8278 291.462 21.7995 291.391 21.7921C291.318 21.7911 291.246 21.8164 291.19 21.8634C291.133 21.9105 291.096 21.9761 291.083 22.0485C291.083 22.0485 291.083 22.228 291.083 22.3049V22.7152V23.5613C291.039 23.668 291.039 23.7879 291.083 23.8946C291.184 23.982 291.31 24.0358 291.442 24.0485C291.566 24.0308 291.682 23.9773 291.776 23.8946C291.823 23.8536 291.859 23.8018 291.881 23.7437C291.903 23.6857 291.911 23.6231 291.904 23.5613L291.699 22.7152Z" fill="white"/>
<path d="M304.083 27.1509C303.975 27.0635 303.854 26.9943 303.724 26.9458H303.57C303.373 26.8413 303.184 26.7212 303.006 26.5868C302.596 26.261 302.111 26.041 301.596 25.9458C301.398 25.8686 301.178 25.8686 300.981 25.9458C300.888 25.9945 300.807 26.0637 300.745 26.1481C300.683 26.2325 300.641 26.3299 300.622 26.433C300.578 26.5296 300.555 26.6345 300.555 26.7406C300.555 26.8468 300.578 26.9517 300.622 27.0483C300.724 27.2223 300.889 27.3506 301.083 27.4073C301.453 27.4785 301.814 27.5903 302.16 27.7406H301.981C302.277 27.8949 302.585 28.0236 302.904 28.1252H303.288C303.45 28.1507 303.614 28.1507 303.775 28.1252L304.057 27.997C304.123 27.9486 304.177 27.8859 304.215 27.8137C304.252 27.7415 304.273 27.6617 304.276 27.5802C304.278 27.4987 304.262 27.4177 304.229 27.3434C304.195 27.269 304.146 27.2032 304.083 27.1509Z" fill="white"/>
<path d="M303.955 36.2018C303.754 35.9921 303.54 35.7952 303.314 35.6121C303.131 35.4631 302.959 35.3002 302.801 35.1249C302.732 35.0282 302.672 34.9252 302.622 34.8173V34.6121C302.607 34.4415 302.607 34.27 302.622 34.0994C302.604 34.0332 302.573 33.9713 302.531 33.9172C302.489 33.8632 302.437 33.8181 302.377 33.7846C302.317 33.7512 302.251 33.73 302.183 33.7224C302.115 33.7148 302.046 33.7209 301.981 33.7404C301.846 33.7767 301.731 33.8637 301.659 33.9833C301.587 34.1028 301.565 34.2455 301.596 34.3814C301.719 35.0118 302.012 35.5968 302.442 36.0736C302.893 36.4424 303.383 36.7606 303.904 37.0223C304.012 37.0291 304.119 36.9924 304.201 36.9203C304.283 36.8482 304.333 36.7465 304.339 36.6377C304.346 36.5289 304.31 36.4219 304.237 36.3401C304.165 36.2584 304.064 36.2086 303.955 36.2018Z" fill="white"/>
<path d="M304.083 20.1768C304.095 20.1203 304.093 20.0619 304.079 20.006C304.065 19.95 304.039 19.8979 304.002 19.8536C303.965 19.8093 303.918 19.7738 303.866 19.7499C303.813 19.726 303.756 19.7141 303.698 19.7153C303.59 19.6782 303.473 19.6782 303.365 19.7153L303.16 19.8948C303.055 19.9795 302.968 20.0841 302.904 20.2025C302.824 20.3203 302.763 20.4501 302.724 20.5871C302.709 20.732 302.709 20.878 302.724 21.0229C302.712 21.0994 302.712 21.1772 302.724 21.2537C302.712 21.3129 302.712 21.3739 302.724 21.4332C302.833 21.5424 302.98 21.6065 303.134 21.6126C303.212 21.6157 303.289 21.6012 303.36 21.5701C303.431 21.539 303.494 21.4922 303.545 21.4332C303.654 21.3238 303.718 21.1774 303.724 21.0229C303.711 20.9379 303.711 20.8515 303.724 20.7665C303.724 20.7665 303.724 20.7665 303.724 20.6127L303.852 20.4076C303.94 20.335 304.003 20.2362 304.032 20.1255L304.083 20.1768Z" fill="white"/>
<path d="M307.262 31.2276L307.032 31.0995L306.596 30.8174C306.243 30.5945 305.834 30.4786 305.416 30.4841C305.331 30.4787 305.245 30.493 305.166 30.5258C305.086 30.5586 305.016 30.6091 304.959 30.6733C304.902 30.7376 304.86 30.814 304.837 30.8968C304.815 30.9795 304.811 31.0664 304.827 31.1507C304.835 31.2364 304.862 31.3193 304.905 31.3935C304.949 31.4678 305.008 31.5316 305.079 31.5804C305.15 31.6293 305.23 31.6621 305.315 31.6764C305.4 31.6908 305.487 31.6864 305.57 31.6635H305.801H306.032H306.442C306.738 31.7723 307.05 31.833 307.365 31.843C307.447 31.8294 307.52 31.784 307.568 31.7167C307.616 31.6493 307.635 31.5657 307.621 31.4841C307.608 31.4025 307.562 31.3296 307.495 31.2815C307.428 31.2334 307.344 31.214 307.262 31.2276Z" fill="white"/>
<path d="M309.16 24.2023L307.186 24.0228C307.116 24.0227 307.047 24.0368 306.983 24.0642C306.919 24.0915 306.862 24.1316 306.814 24.182C306.766 24.2323 306.728 24.2919 306.704 24.3571C306.68 24.4223 306.669 24.4918 306.673 24.5613C306.673 24.6973 306.727 24.8277 306.823 24.9239C306.919 25.0201 307.05 25.0741 307.186 25.0741L309.16 24.9202C309.365 24.9202 309.544 24.7664 309.519 24.5613C309.523 24.5132 309.516 24.4648 309.499 24.4195C309.483 24.3742 309.456 24.333 309.422 24.2989C309.388 24.2647 309.347 24.2384 309.302 24.2217C309.256 24.2051 309.208 24.1985 309.16 24.2023Z" fill="white"/>
<path d="M266.905 43.9451C266.803 43.9808 266.708 44.0328 266.623 44.0989L266.392 44.2784L265.982 44.6374L265.726 44.8168V44.945L265.546 45.0989L265.29 45.2271H265.136C264.954 45.2335 264.782 45.3084 264.653 45.4369C264.525 45.5654 264.45 45.7378 264.444 45.9194C264.45 46.0985 264.526 46.268 264.655 46.3924C264.784 46.5167 264.957 46.5861 265.136 46.586C265.436 46.5793 265.731 46.5122 266.004 46.3889C266.277 46.2655 266.522 46.0884 266.726 45.8681C266.932 45.6756 267.105 45.4504 267.238 45.2015L267.418 44.9194C267.442 44.801 267.442 44.6789 267.418 44.5605C267.446 44.4843 267.454 44.4019 267.44 44.3218C267.427 44.2417 267.392 44.1666 267.34 44.1041C267.288 44.0417 267.22 43.9941 267.144 43.9661C267.068 43.9382 266.985 43.9309 266.905 43.9451Z" fill="white"/>
<path d="M277.289 42.5093C276.901 42.6536 276.544 42.8712 276.238 43.1503L275.802 43.4323L275.494 43.7144L275.084 43.9964H274.828H274.571H274.392C274.145 44.022 273.896 44.022 273.648 43.9964C273.462 43.9963 273.284 44.0684 273.15 44.1975C273.016 44.3266 272.937 44.5027 272.93 44.6887C272.937 44.877 273.015 45.056 273.148 45.1892C273.281 45.3225 273.46 45.4002 273.648 45.4066C274.546 45.5244 275.456 45.315 276.212 44.8169C276.553 44.5826 276.856 44.2972 277.11 43.9707L277.494 43.5092C277.667 43.3346 277.814 43.1359 277.93 42.9195C277.935 42.8421 277.919 42.7649 277.884 42.6957C277.848 42.6266 277.795 42.5681 277.73 42.5263C277.665 42.4845 277.59 42.4609 277.512 42.4579C277.435 42.4549 277.358 42.4726 277.289 42.5093Z" fill="white"/>
<path d="M363.799 73.3798H363.645C363.303 73.4994 362.983 73.6725 362.696 73.8926C362.145 74.3751 361.631 74.8979 361.158 75.4567C361.071 75.5512 361.023 75.6747 361.023 75.8028C361.023 75.931 361.071 76.0544 361.158 76.149C361.255 76.2303 361.377 76.275 361.504 76.275C361.631 76.275 361.753 76.2303 361.85 76.149L362.619 75.3285L363.029 74.9439C363.083 74.8778 363.143 74.8176 363.209 74.7644H363.414L363.799 74.6105C363.991 74.549 364.167 74.4437 364.311 74.3029C364.445 74.1376 364.542 73.9451 364.593 73.7388C364.641 73.6334 364.645 73.5134 364.604 73.4052C364.563 73.297 364.481 73.2095 364.376 73.1619C364.27 73.1143 364.15 73.1105 364.042 73.1514C363.934 73.1923 363.846 73.2744 363.799 73.3798Z" fill="white"/>
<path d="M374.593 51.2525C374.247 51.1139 373.92 50.9331 373.619 50.7141C373.294 50.4809 372.941 50.2912 372.568 50.15C371.736 49.8588 370.877 49.6527 370.004 49.5346C369.95 49.5193 369.893 49.5153 369.838 49.5226C369.782 49.53 369.729 49.5487 369.681 49.5775C369.632 49.6064 369.591 49.6448 369.558 49.6903C369.526 49.7358 369.503 49.7876 369.491 49.8423C369.471 49.8944 369.463 49.9501 369.467 50.0056C369.471 50.0611 369.487 50.115 369.513 50.1638C369.54 50.2125 369.577 50.2549 369.622 50.2879C369.667 50.3209 369.718 50.3439 369.773 50.3551C370.645 50.4508 371.505 50.6399 372.337 50.9192C372.67 50.9192 372.978 51.2525 373.311 51.4064C373.664 51.5972 374.066 51.6776 374.465 51.6371C374.593 51.6115 374.593 51.432 374.593 51.2525Z" fill="white"/>
<path d="M374.978 41.176C374.897 41.1021 374.792 41.0611 374.683 41.0611C374.573 41.0611 374.468 41.1021 374.388 41.176L373.85 41.6119C373.667 41.7612 373.495 41.924 373.337 42.099L372.311 43.099C372.217 43.1949 372.165 43.3237 372.165 43.458C372.165 43.5922 372.217 43.7211 372.311 43.8169C372.359 43.8673 372.417 43.9075 372.481 43.9349C372.544 43.9624 372.613 43.9765 372.683 43.9765C372.752 43.9765 372.821 43.9624 372.885 43.9349C372.949 43.9075 373.007 43.8673 373.055 43.8169L374.029 42.817C374.21 42.6743 374.373 42.5108 374.516 42.3298L374.978 41.7657C375.052 41.6853 375.093 41.5801 375.093 41.4709C375.093 41.3617 375.052 41.2564 374.978 41.176Z" fill="white"/>
<path d="M353.004 39.6376C352.985 39.5244 352.925 39.4223 352.835 39.3512C352.745 39.28 352.632 39.2451 352.517 39.253C352.401 39.2493 352.286 39.2854 352.193 39.3553C352.1 39.4252 352.033 39.5248 352.004 39.6376C351.99 39.7482 351.99 39.8603 352.004 39.9709V39.8171C352.013 39.8938 352.013 39.9711 352.004 40.0478L351.697 40.3299C351.305 40.5991 350.893 40.8391 350.466 41.0478C350.333 41.1324 350.238 41.2646 350.2 41.4172C350.162 41.5698 350.184 41.7312 350.261 41.8683C350.341 42.0052 350.472 42.1057 350.625 42.1487C350.778 42.1917 350.941 42.1739 351.081 42.099C351.44 41.9196 351.799 41.7401 352.132 41.535C352.566 41.29 352.928 40.9366 353.184 40.5094C353.271 40.3239 353.323 40.124 353.338 39.9196C353.241 39.8094 353.129 39.7144 353.004 39.6376Z" fill="white"/>
<path d="M323.903 29.7149L322.698 29.5098C322.246 29.4588 321.79 29.4588 321.339 29.5098C321.162 29.5098 320.992 29.58 320.867 29.7051C320.742 29.8301 320.672 29.9997 320.672 30.1765C320.672 30.3533 320.742 30.5228 320.867 30.6478C320.992 30.7728 321.162 30.8431 321.339 30.8431C321.791 30.8686 322.245 30.8686 322.698 30.8431L323.903 30.6123C324.022 30.6123 324.136 30.5651 324.22 30.4809C324.304 30.3968 324.352 30.2826 324.352 30.1636C324.352 30.0446 324.304 29.9305 324.22 29.8463C324.136 29.7622 324.022 29.7149 323.903 29.7149Z" fill="white"/>
<path d="M241.598 34.9711C241.599 34.8985 241.58 34.827 241.544 34.7639C241.508 34.7009 241.456 34.6485 241.393 34.6122C241.278 34.5338 241.147 34.4817 241.01 34.4595C240.873 34.4374 240.732 34.4457 240.598 34.484C240.401 34.5479 240.212 34.6339 240.034 34.7404C239.692 34.993 239.389 35.2955 239.137 35.6378C239.099 35.7132 239.079 35.7967 239.079 35.8813C239.079 35.966 239.099 36.0494 239.137 36.1249C239.156 36.2046 239.191 36.2796 239.239 36.3457C239.288 36.4117 239.349 36.4674 239.419 36.5095C239.576 36.571 239.749 36.571 239.906 36.5095C240.069 36.4598 240.206 36.3497 240.291 36.2018C240.408 36.0466 240.546 35.9085 240.701 35.7916L241.009 35.5865L241.163 35.4583C241.226 35.4634 241.289 35.4538 241.348 35.4304C241.407 35.4069 241.459 35.3701 241.501 35.3229C241.544 35.2757 241.574 35.2194 241.591 35.1584C241.608 35.0974 241.61 35.0333 241.598 34.9711Z" fill="white"/>
<path d="M245.009 22.9716C244.975 22.913 244.926 22.8643 244.868 22.8305C244.809 22.7966 244.743 22.7788 244.675 22.7788C244.608 22.7788 244.541 22.7966 244.483 22.8305C244.424 22.8643 244.376 22.913 244.342 22.9716C244.335 23.0226 244.335 23.0744 244.342 23.1254C244.018 23.2363 243.714 23.4009 243.444 23.6126C242.847 24.0715 242.32 24.6158 241.88 25.2279C241.839 25.2984 241.813 25.3765 241.802 25.4574C241.792 25.5383 241.797 25.6206 241.819 25.6993C241.84 25.778 241.877 25.8517 241.927 25.916C241.977 25.9804 242.04 26.0341 242.111 26.074C242.253 26.1428 242.414 26.1573 242.565 26.1147C242.717 26.0722 242.847 25.9756 242.932 25.8433L243.111 25.6125L243.47 25.2279C243.738 25.0107 243.995 24.7797 244.239 24.5356C244.301 24.4609 244.37 24.3922 244.444 24.3305L244.675 24.1766C244.811 24.0828 244.925 23.9603 245.009 23.8177C245.023 23.7329 245.023 23.6461 245.009 23.5613C245.069 23.3695 245.069 23.1634 245.009 22.9716Z" fill="white"/>
<path d="M258.162 31.6379L257.803 31.4841H257.649C257.393 31.279 257.162 31.0482 256.905 30.8687C256.649 30.6892 255.572 30.1764 254.957 29.7662C254.843 29.7078 254.712 29.6938 254.589 29.727C254.465 29.7601 254.359 29.8381 254.29 29.9457C254.232 30.0592 254.218 30.1904 254.251 30.3137C254.284 30.437 254.362 30.5435 254.47 30.6123C255.136 31.0226 255.88 31.2533 256.495 31.6892L256.803 31.9456L257.213 32.2533C257.497 32.4569 257.838 32.5647 258.187 32.5609C258.469 32.3558 258.598 31.7405 258.162 31.6379Z" fill="white"/>
<path d="M262.521 74.8669C262.284 74.8538 262.047 74.8956 261.829 74.989C261.611 75.0824 261.418 75.2249 261.264 75.4054C261.241 75.4893 261.241 75.5778 261.264 75.6618C261.268 75.7208 261.283 75.7786 261.31 75.8314C261.336 75.8843 261.373 75.9313 261.418 75.9695C261.494 76.0416 261.595 76.0818 261.7 76.0818C261.805 76.0818 261.906 76.0416 261.982 75.9695L262.162 75.79H262.341H262.572C262.64 75.8038 262.709 75.8038 262.777 75.79C262.8 75.7236 262.8 75.6512 262.777 75.5849C262.872 75.5509 262.95 75.4804 262.993 75.3891C263.037 75.2977 263.042 75.1929 263.008 75.0977C262.974 75.0025 262.903 74.9247 262.812 74.8814C262.721 74.8381 262.616 74.8329 262.521 74.8669Z" fill="white"/>
<path d="M280.879 58.9702H280.469H280.264L280.084 58.842H279.956L279.52 58.5599C279.233 58.374 278.923 58.2274 278.597 58.124C278.202 58.0209 277.787 58.0209 277.392 58.124C277.255 58.1658 277.139 58.2579 277.068 58.3816C276.997 58.5053 276.975 58.6515 277.007 58.7907C277.049 58.9273 277.141 59.043 277.265 59.1143C277.389 59.1857 277.535 59.2075 277.674 59.1753H278.033H278.443H278.623L279.033 59.4317C279.311 59.6207 279.629 59.7443 279.962 59.7931C280.295 59.842 280.635 59.8148 280.956 59.7137C281.028 59.6864 281.089 59.6369 281.13 59.5722C281.172 59.5076 281.192 59.4314 281.187 59.3548C281.199 59.3085 281.2 59.2601 281.19 59.2133C281.18 59.1666 281.159 59.1228 281.129 59.0855C281.099 59.0481 281.061 59.0183 281.018 58.9983C280.974 58.9783 280.927 58.9686 280.879 58.9702Z" fill="white"/>
<path d="M292.058 52.4832C291.947 52.3679 291.804 52.2877 291.648 52.2525H291.366C291.17 52.227 290.972 52.227 290.776 52.2525C290.52 52.3022 290.271 52.3796 290.032 52.4832L289.673 52.6371H289.494C289.269 52.7515 289.037 52.8542 288.802 52.9447C288.735 52.9714 288.678 53.0173 288.638 53.0768C288.597 53.1362 288.576 53.2063 288.576 53.2781C288.576 53.3498 288.597 53.4199 288.638 53.4793C288.678 53.5388 288.735 53.5848 288.802 53.6114L289.494 53.7652C289.757 53.8027 290.025 53.8027 290.289 53.7652H290.955H291.263H291.417H291.596H291.827C291.907 53.7462 291.982 53.7114 292.048 53.6629C292.114 53.6145 292.17 53.5534 292.212 53.4832C292.344 53.4628 292.463 53.3905 292.543 53.2824C292.622 53.1742 292.655 53.0389 292.635 52.9063C292.614 52.7737 292.542 52.6546 292.434 52.5753C292.326 52.4959 292.19 52.4628 292.058 52.4832Z" fill="white"/>
<path d="M298.57 47.6885C298.554 47.6437 298.527 47.6037 298.491 47.5724C298.455 47.541 298.412 47.5192 298.365 47.5091H297.391C297.327 47.507 297.264 47.5199 297.206 47.5466C297.148 47.5733 297.098 47.6131 297.058 47.6629C296.978 47.7459 296.932 47.8556 296.93 47.9706C296.929 48.0939 296.974 48.213 297.058 48.3039C297.166 48.3391 297.283 48.3391 297.391 48.3039H298.135H298.365C298.436 48.2673 298.498 48.2146 298.545 48.1501C298.565 48.115 298.576 48.0752 298.576 48.0347C298.576 47.9942 298.565 47.9544 298.545 47.9193C298.567 47.8856 298.581 47.8471 298.585 47.807C298.59 47.7669 298.585 47.7263 298.57 47.6885Z" fill="white"/>
<path d="M304.775 60.6111C304.705 60.4094 304.591 60.2256 304.442 60.0727L304.032 59.765C303.822 59.5938 303.599 59.4395 303.365 59.3035L302.699 58.8676L302.545 58.7394L302.211 58.4574C302.103 58.3663 301.965 58.3191 301.824 58.3251C301.683 58.3311 301.549 58.3899 301.449 58.4898C301.349 58.5898 301.29 58.7235 301.284 58.8647C301.278 59.0059 301.326 59.1441 301.417 59.2522C301.778 59.6524 302.172 60.0212 302.596 60.3547L303.34 60.9188H303.493C303.493 60.9188 303.724 61.1496 303.878 61.1752H304.083C304.181 61.1995 304.282 61.2006 304.38 61.1783C304.478 61.1561 304.57 61.1111 304.647 61.047C304.744 60.9234 304.79 60.7674 304.775 60.6111Z" fill="white"/>
<path d="M306.339 54.637C306.297 54.5991 306.242 54.5782 306.186 54.5782C306.129 54.5782 306.074 54.5991 306.032 54.637H305.878H305.724H305.365H305.186H304.724C304.636 54.6125 304.541 54.6227 304.46 54.6657C304.379 54.7086 304.318 54.7809 304.288 54.8677C304.277 54.9116 304.274 54.9572 304.281 55.002C304.288 55.0467 304.304 55.0896 304.328 55.128C304.352 55.1664 304.384 55.1995 304.421 55.2252C304.458 55.251 304.5 55.269 304.545 55.278C304.872 55.3674 305.217 55.3674 305.545 55.278L305.955 55.0729L306.186 54.8677C306.194 54.791 306.194 54.7137 306.186 54.637C306.235 54.6569 306.29 54.6569 306.339 54.637Z" fill="white"/>
<path d="M309.75 50.0474H309.544L309.314 49.8167C309.006 49.509 308.775 49.1757 308.468 48.868C308.429 48.8243 308.382 48.7894 308.329 48.7654C308.276 48.7415 308.218 48.7291 308.16 48.7291C308.102 48.7291 308.044 48.7415 307.991 48.7654C307.938 48.7894 307.891 48.8243 307.852 48.868C307.771 48.9497 307.725 49.0603 307.725 49.1757C307.725 49.291 307.771 49.4017 307.852 49.4834C308.185 49.791 308.442 50.15 308.801 50.4577C308.976 50.6231 309.175 50.7614 309.391 50.8679L309.775 50.9961C309.876 51.0211 309.982 51.0211 310.083 50.9961H310.237C310.363 50.9315 310.457 50.8196 310.501 50.6849C310.544 50.5503 310.532 50.404 310.467 50.2782C310.403 50.1524 310.291 50.0574 310.156 50.0141C310.022 49.9708 309.875 49.9828 309.75 50.0474Z" fill="white"/>
<path d="M315.826 73.3285H315.621C315.529 73.3022 315.431 73.3022 315.339 73.3285H312.775C312.66 73.3285 312.549 73.3745 312.467 73.4562C312.385 73.538 312.339 73.6489 312.339 73.7645C312.345 73.8781 312.393 73.9854 312.474 74.0658C312.554 74.1463 312.662 74.1942 312.775 74.2003H315.621L315.877 74.0721C315.946 74.0345 316.003 73.9779 316.041 73.9091C316.078 73.8403 316.095 73.7622 316.09 73.6839C316.085 73.6057 316.057 73.5306 316.01 73.4676C315.963 73.4047 315.9 73.3564 315.826 73.3285Z" fill="white"/>
<path d="M319.339 65.9955H318.903C318.544 65.9955 318.211 65.9955 317.852 65.9955C317.736 65.9955 317.625 66.0414 317.544 66.1232C317.462 66.2049 317.416 66.3158 317.416 66.4314C317.422 66.545 317.47 66.6523 317.55 66.7328C317.631 66.8132 317.738 66.8611 317.852 66.8673C318.261 66.9057 318.673 66.9057 319.082 66.8673C319.3 66.8346 319.508 66.7531 319.69 66.6288C319.872 66.5044 320.024 66.3406 320.134 66.1494C320.082 66.0981 319.621 65.7134 319.339 65.9955Z" fill="white"/>
<path d="M324.749 73.9952L323.954 73.226C323.786 73.0751 323.606 72.938 323.416 72.8157L322.877 72.5337C322.17 72.1538 321.394 71.9185 320.595 71.8414C320.211 71.8414 320.108 72.4568 320.595 72.5081C321.298 72.6579 321.968 72.936 322.57 73.3285L323.057 73.6618L323.569 73.8926C323.903 74.0464 324.21 74.226 324.518 74.4054C324.568 74.4106 324.618 74.4011 324.663 74.3782C324.707 74.3552 324.744 74.3197 324.768 74.2761C324.793 74.2325 324.804 74.1827 324.801 74.1327C324.797 74.0828 324.779 74.035 324.749 73.9952Z" fill="white"/>
<path d="M289.032 14.7668H288.827C288.726 14.7407 288.62 14.7407 288.52 14.7668H287.981C287.639 14.8732 287.336 15.0784 287.109 15.3565C287.062 15.3986 287.024 15.4499 286.998 15.5072C286.972 15.5646 286.957 15.6267 286.956 15.6898C286.954 15.7535 286.966 15.8168 286.993 15.8747C287.02 15.9325 287.06 15.9834 287.109 16.0232C287.15 16.0717 287.201 16.1108 287.259 16.1375C287.316 16.1643 287.379 16.1782 287.443 16.1782C287.506 16.1782 287.569 16.1643 287.626 16.1375C287.684 16.1108 287.735 16.0717 287.776 16.0232L287.981 15.8437L288.161 15.7155H288.417H288.648C288.775 15.7404 288.905 15.7404 289.032 15.7155C289.091 15.7319 289.153 15.7319 289.212 15.7155C289.231 15.6398 289.231 15.5604 289.212 15.4847C289.272 15.4354 289.316 15.3702 289.34 15.2966C289.364 15.2231 289.367 15.1443 289.348 15.0692C289.329 14.9942 289.29 14.9259 289.234 14.8724C289.178 14.8189 289.108 14.7823 289.032 14.7668Z" fill="white"/>
<path d="M276.905 5.8697C276.623 5.8697 276.315 5.8697 276.007 5.8697H275.187C274.664 5.79617 274.155 5.64944 273.674 5.43382C273.617 5.4027 273.554 5.3833 273.49 5.37678C273.425 5.37027 273.36 5.37676 273.298 5.39588C273.235 5.41499 273.178 5.44634 273.128 5.48809C273.078 5.52983 273.037 5.58113 273.007 5.63895C272.983 5.69931 272.972 5.76406 272.975 5.82893C272.978 5.89381 272.995 5.95736 273.024 6.01544C273.053 6.07351 273.094 6.12482 273.144 6.16598C273.194 6.20715 273.252 6.23725 273.315 6.25432C273.885 6.4986 274.491 6.64591 275.11 6.6902C275.707 6.74174 276.308 6.74174 276.905 6.6902C277.013 6.6902 277.118 6.64699 277.195 6.57005C277.272 6.49312 277.315 6.38875 277.315 6.27995C277.315 6.17115 277.272 6.06678 277.195 5.98985C277.118 5.91291 277.013 5.8697 276.905 5.8697Z" fill="white"/>
<path d="M279.725 0.921198L279.546 0.79299C279.429 0.755689 279.303 0.755689 279.187 0.79299C279.074 0.893803 278.944 0.972129 278.802 1.02374H278.597H278.289H277.828C277.76 1.02158 277.693 1.03425 277.631 1.06083C277.569 1.08741 277.514 1.12725 277.469 1.17757C277.413 1.21822 277.37 1.27298 277.343 1.3361C277.316 1.39923 277.306 1.46841 277.315 1.53653C277.312 1.60781 277.325 1.67884 277.351 1.74506C277.378 1.81129 277.418 1.87127 277.469 1.92116C277.552 1.94686 277.642 1.94686 277.725 1.92116C278.047 1.98343 278.378 1.98343 278.699 1.92116L278.982 1.79295C279.082 1.75731 279.17 1.69532 279.238 1.61349C279.37 1.49794 279.491 1.36903 279.597 1.22887C279.621 1.13637 279.621 1.03932 279.597 0.946824C279.641 0.945186 279.684 0.936543 279.725 0.921198Z" fill="white"/>
<path d="M309.262 6.27993H309.057H308.75C308.54 6.2626 308.333 6.21953 308.134 6.15172C307.75 6.00911 307.381 5.82877 307.032 5.6133C306.348 5.14756 305.712 4.61502 305.134 4.0236C305.042 3.9318 304.918 3.88025 304.788 3.88025C304.658 3.88025 304.534 3.9318 304.442 4.0236C304.35 4.1154 304.299 4.23994 304.299 4.36976C304.299 4.49959 304.35 4.62409 304.442 4.71589C305.089 5.40715 305.802 6.03398 306.57 6.5876C306.982 6.87027 307.43 7.09463 307.903 7.25426C308.385 7.42032 308.909 7.42032 309.391 7.25426C309.52 7.23726 309.637 7.16962 309.716 7.06624C309.796 6.96285 309.831 6.83218 309.814 6.70297C309.797 6.57377 309.729 6.45665 309.626 6.37731C309.522 6.29797 309.392 6.26293 309.262 6.27993Z" fill="white"/>
<path d="M223.676 45.1758C223.638 45.1229 223.588 45.0797 223.53 45.05C223.472 45.0202 223.408 45.0047 223.343 45.0047C223.278 45.0047 223.213 45.0202 223.155 45.05C223.097 45.0797 223.047 45.1229 223.009 45.1758L222.779 45.5091L222.574 45.8425C222.477 45.9984 222.365 46.1443 222.24 46.2784L222.086 46.5347L221.779 46.9706L221.625 47.2014L221.343 47.5091V47.6373C221.217 47.7213 221.126 47.8488 221.088 47.9955C221.05 48.1421 221.068 48.2976 221.138 48.4321C221.218 48.5629 221.345 48.6574 221.494 48.6956C221.642 48.7339 221.799 48.713 221.933 48.6372C222.355 48.3173 222.719 47.927 223.009 47.4834C223.189 47.227 223.368 46.9963 223.522 46.7399C223.69 46.4649 223.827 46.1727 223.932 45.8681V45.5091C223.875 45.3788 223.787 45.2643 223.676 45.1758Z" fill="white"/>
<path d="M220.933 48.5603H220.676H220.471C220.599 48.5603 220.471 48.5603 220.471 48.5603L220.292 48.3808C220.282 48.2956 220.282 48.2096 220.292 48.1244C220.292 48.1244 220.292 48.1244 220.292 47.9962C220.292 47.9078 220.256 47.823 220.194 47.7605C220.131 47.698 220.047 47.6629 219.958 47.6629C219.87 47.6629 219.785 47.698 219.723 47.7605C219.66 47.823 219.625 47.9078 219.625 47.9962C219.614 48.0469 219.614 48.0994 219.625 48.1501C219.6 48.2597 219.6 48.3737 219.625 48.4834C219.654 48.6195 219.706 48.7496 219.779 48.868C219.874 49.0767 220.004 49.2675 220.163 49.4321C220.344 49.5836 220.542 49.7127 220.753 49.8167H221.061H221.215C221.341 49.8422 221.472 49.8422 221.599 49.8167C221.66 49.7913 221.712 49.7486 221.748 49.6939C221.785 49.6391 221.804 49.5748 221.804 49.509C221.804 49.4432 221.785 49.3788 221.748 49.3241C221.712 49.2693 221.66 49.2266 221.599 49.2013L220.933 48.5603Z" fill="white"/>
<path d="M254.572 43.1503C254.31 43.1715 254.061 43.2696 253.854 43.4323C253.591 43.5996 253.343 43.7882 253.111 43.9964C252.675 44.3554 252.265 44.7656 251.829 45.0989C251.789 45.1371 251.758 45.183 251.736 45.2336C251.715 45.2843 251.704 45.3387 251.704 45.3938C251.704 45.4488 251.715 45.5032 251.736 45.5539C251.758 45.6046 251.789 45.6503 251.829 45.6886C251.907 45.7555 252.007 45.7922 252.111 45.7922C252.214 45.7922 252.314 45.7555 252.393 45.6886L253.547 44.5348L253.854 44.2528L254.008 44.0989C254.188 43.9451 254.393 43.8426 254.572 43.7144C254.647 43.7144 254.719 43.6846 254.772 43.6317C254.824 43.5788 254.854 43.5071 254.854 43.4323C254.854 43.3575 254.824 43.2858 254.772 43.2329C254.719 43.18 254.647 43.1503 254.572 43.1503Z" fill="white"/>
<path d="M265.059 19.9717C264.794 19.8027 264.52 19.6487 264.239 19.5102C263.968 19.3644 263.685 19.2442 263.392 19.1512C262.777 19.0097 262.137 19.0097 261.521 19.1512C261.521 19.1512 261.521 19.1512 261.521 19.3051C262.125 19.3836 262.718 19.5298 263.29 19.7409C263.854 19.8948 264.418 20.1255 264.982 20.3307C265.11 20.2537 265.187 20.0486 265.059 19.9717Z" fill="white"/>
<path d="M351.697 58.124L351.158 57.8933L350.722 57.7394H350.491L350.081 57.5856C349.807 57.4767 349.524 57.391 349.235 57.3292H348.671C348.461 57.3446 348.254 57.3877 348.056 57.4574C347.977 57.4865 347.91 57.539 347.862 57.6078C347.814 57.6765 347.788 57.7582 347.788 57.842C347.788 57.9257 347.814 58.0075 347.862 58.0762C347.91 58.145 347.977 58.1974 348.056 58.2266C348.223 58.2624 348.386 58.314 348.543 58.3804H349.004H349.235L349.62 58.5855C349.915 58.7482 350.224 58.8854 350.543 58.9958H350.953C351.188 59.0601 351.436 59.0601 351.671 58.9958C351.753 58.9578 351.823 58.8976 351.873 58.822C351.923 58.7464 351.951 58.6584 351.954 58.5678C351.956 58.4773 351.934 58.3878 351.888 58.3094C351.843 58.231 351.776 58.1668 351.697 58.124Z" fill="white"/>
<path d="M252.239 10.408C251.914 10.3152 251.577 10.272 251.239 10.2798C251.079 10.2416 250.912 10.2416 250.752 10.2798L250.47 10.4593C250.021 10.7638 249.593 11.0979 249.188 11.4592C249.188 11.4592 249.188 11.4592 249.188 11.4592C249.188 11.4592 249.726 11.1259 250.008 10.9977C250.187 10.8933 250.391 10.8401 250.598 10.8439H250.88C250.908 10.8575 250.939 10.8645 250.97 10.8645C251.001 10.8645 251.032 10.8575 251.06 10.8439H251.265C251.578 10.8028 251.887 10.7342 252.188 10.6387C252.219 10.6103 252.241 10.5728 252.25 10.5315C252.259 10.4902 252.255 10.447 252.239 10.408Z" fill="white"/>
</svg>
