<svg width="376" height="411" viewBox="0 0 376 411" fill="none" xmlns="http://www.w3.org/2000/svg">
<path d="M200 184C250.81 184 292 142.81 292 92C292 41.1898 250.81 0 200 0C149.19 0 108 41.1898 108 92C108 142.81 149.19 184 200 184Z" fill="#E13A4B"/>
<path d="M287.738 413.684C285.735 411.617 283.569 409.714 281.261 407.993C279.675 406.725 278.016 405.554 276.29 404.485C274.341 403.106 272.526 401.548 270.87 399.829C267.316 396.509 264.283 392.672 261.873 388.448C259.466 383.95 257.375 379.069 254.811 374.526C252.988 370.592 250.643 366.923 247.838 363.618C244.69 360.469 241.248 357.68 238.167 354.464C234.942 351.174 232.282 347.374 230.295 343.218C229.215 340.969 228.046 338.719 226.674 336.47C225.545 334.207 224.656 331.833 224.02 329.385C223.255 327.136 222.063 325.067 221.253 322.84C220.599 320.686 220.08 318.492 219.701 316.273C218.315 312.15 216.313 308.26 213.764 304.735C211.436 300.293 209.538 295.638 208.096 290.835C207.085 288.535 206.192 286.185 205.419 283.795C204.995 281.307 205.079 278.76 205.667 276.305C206.419 272.21 206.556 268.026 206.072 263.89C205.779 261.641 205.487 259.392 205.149 257.143C205.014 256.108 204.745 255.141 204.542 254.129C204.284 252.72 204.193 251.285 204.272 249.855C204.272 244.817 204.272 239.802 204.047 234.764C203.791 232.229 203.943 229.67 204.497 227.184C204.822 226.289 205.048 225.361 205.172 224.417C205.172 223.18 205.014 221.966 205.172 220.729C205.442 215.511 208.141 210.608 210.66 206.177C211.835 204.403 212.674 202.429 213.134 200.351C213.539 197.945 214.034 195.538 214.461 193.132C214.888 190.725 215.203 188.408 215.675 186.092C216.08 184.158 217.002 182.403 217.25 180.424C217.43 178.082 217.475 175.731 217.385 173.384C217.385 170.798 217.385 168.211 217.385 165.625C217.355 163.411 217.122 161.205 216.688 159.035C216.458 157.046 215.927 155.105 215.113 153.277C214.339 151.465 213.317 149.769 212.077 148.239C210.724 146.751 209.29 145.339 207.781 144.01C206.846 143.259 206.091 142.307 205.574 141.224C205.056 140.142 204.788 138.957 204.79 137.758C204.778 135.387 205.004 133.021 205.464 130.695C206.352 126.106 206.826 121.447 206.881 116.773C206.881 113.512 206.746 109.103 203.328 107.416C202.158 106.832 201.213 107.416 200.134 107.956C197.885 109.058 195.186 108.676 192.757 109.486C190.764 110.003 188.744 110.408 186.706 110.7C184.457 111.15 182.208 111.33 179.959 111.825C177.71 112.32 175.461 113.332 173.211 114.074C170.962 114.816 168.713 115.423 166.464 116.211C164.365 117.012 162.315 117.936 160.324 118.977C158.071 120.053 155.75 120.978 153.374 121.744C151.153 122.609 148.845 123.234 146.492 123.61C144.368 123.835 142.227 123.835 140.104 123.61C136.058 122.88 131.926 122.767 127.846 123.273C123.348 124.195 119.479 127.366 115.745 129.841C113.721 131.168 111.72 132.584 109.583 133.709C107.446 134.834 105.512 135.059 103.645 136.161C101.778 137.263 100.181 138.725 98.2922 139.759C96.4029 140.794 94.3785 141.828 92.4443 142.998C90.183 144.311 87.7747 145.353 85.2695 146.102C83.0203 146.799 80.9286 147.654 78.702 148.351C77.46 148.699 76.1869 148.925 74.9009 149.026C73.8476 149.034 72.7958 149.109 71.752 149.251C70.9724 149.479 70.2187 149.788 69.5029 150.173C68.1531 150.754 66.6989 151.052 65.2296 151.05C60.8662 151.23 56.9751 151.05 53.2415 153.569C52.3723 154.202 51.4183 154.709 50.4076 155.076C49.5234 155.308 48.6587 155.609 47.8211 155.976C46.3114 156.812 44.9006 157.815 43.6152 158.967C42.2771 160.144 41.0975 161.49 40.1064 162.971C38.8033 164.912 37.0007 166.466 34.8885 167.469C32.8868 168.458 30.885 169.358 28.9732 170.528C27.0614 171.697 25.0372 173.092 23.0354 174.329C18.942 176.893 14.826 179.479 10.6201 181.841C8.6408 182.966 6.59403 183.955 4.68225 185.147C2.77047 186.339 1.39861 188.611 -0.670607 188.318C-0.87303 188.318 -0.962996 188.611 -0.670607 188.633C-0.121666 188.713 0.438475 188.656 0.960249 188.468C1.48203 188.28 1.94924 187.966 2.32067 187.554L2.88296 187.059C1.93831 188.139 1.15117 189.308 0.139055 190.433C-1.16898 191.536 -2.60356 192.48 -4.13439 193.244C-7.23822 195.246 -7.14823 199.159 -7.05826 202.466C-6.9458 207.616 -7.05826 212.767 -7.05826 217.917C-7.05826 223.068 -6.94575 228.511 -7.28312 233.819C-7.6205 239.127 -7.68808 244.3 -8.52027 249.428C-8.90262 251.677 -9.32987 253.926 -9.55479 256.333C-9.77971 258.74 -9.66725 261.461 -9.55479 264.048C-9.55479 269.356 -9.55479 274.641 -9.55479 279.949C-9.49828 282.624 -9.63356 285.3 -9.95962 287.956C-10.3195 290.385 -10.7919 292.792 -11.1517 295.198C-11.849 300.169 -11.7365 305.14 -12.2763 310.11C-12.8161 315.081 -14.5255 320.344 -15.3802 325.517C-16.1956 330.304 -16.6542 335.146 -16.7521 340.001C-16.7521 350.213 -16.0324 360.514 -16.7521 370.702C-17.4718 380.891 -19.6986 390.495 -19.3387 400.504C-19.1156 407.205 -17.762 413.821 -15.3351 420.071C-13.086 425.357 -9.41982 429.833 -3.21216 429.068C-0.822529 428.664 1.58773 428.393 4.00753 428.258C6.52659 428.258 9.02321 427.831 11.5198 427.538C13.8083 427.062 16.1208 426.709 18.4472 426.481C20.8572 426.392 23.2704 426.482 25.6669 426.751C28.0567 427.126 30.4685 427.344 32.8867 427.404C35.2169 427.321 37.5388 427.08 39.8365 426.684C42.3556 426.279 44.8746 425.717 47.4162 425.537C49.8509 425.402 52.2912 425.402 54.7259 425.537C65.0856 425.723 75.4449 425.144 85.7193 423.805C87.9685 423.535 90.3526 423.805 92.6017 423.4C94.8509 422.995 97.4149 422.118 99.8664 421.623C105.012 420.354 110.34 419.989 115.611 420.544C120.534 421.042 125.486 421.215 130.433 421.061C135.612 421.316 140.802 421.256 145.974 420.881C151.102 420.076 156.266 419.528 161.448 419.239C166.779 419.239 172.154 419.666 177.485 419.239C179.981 418.992 182.433 418.609 184.929 418.497C187.426 418.384 189.923 418.497 192.442 418.497C194.961 418.497 197.525 418.025 200.066 417.822C202.608 417.62 205.217 417.575 207.803 417.552C213.044 417.552 218.285 417.687 223.548 417.552C228.811 417.417 233.714 416.72 238.819 416.315C243.925 415.91 249.12 415.888 254.293 415.91C259.45 415.809 264.608 415.989 269.745 416.45C274.54 417.102 279.396 417.17 284.207 416.653C285.174 416.518 286.141 416.36 287.086 416.135C287.536 416.023 288.435 416 288.66 415.55C288.885 415.101 288.143 414.089 287.738 413.684Z" fill="#202147"/>
<path d="M42.2207 215.286H42.9855H43.4579L43.7726 215.038C45.0771 213.936 46.4042 212.789 47.7537 211.822L48.2934 211.417L49.418 210.563L50.2277 209.888C50.5218 209.602 50.8377 209.338 51.1724 209.101C51.6921 208.751 52.2715 208.499 52.8818 208.358C53.6706 208.096 54.4256 207.741 55.131 207.301C56.4702 206.48 57.8515 205.729 59.2693 205.052C60.7349 204.41 62.237 203.854 63.7676 203.388C65.2357 202.896 66.6401 202.232 67.951 201.409C69.2106 200.666 70.5151 200.014 71.8196 199.339C73.1821 198.635 74.4327 197.733 75.5307 196.663C76.6266 195.799 77.9154 195.212 79.2868 194.953C80.0606 194.766 80.814 194.502 81.536 194.166C82.0919 193.912 82.7034 193.804 83.3128 193.851H83.965H85.1571V192.727V191.535H82.908C82.4593 191.531 82.0124 191.592 81.5809 191.715C81.1915 191.835 80.8149 191.993 80.4563 192.187C80.1871 192.319 79.909 192.431 79.6241 192.524L79.0619 192.682C77.9547 192.938 76.8769 193.307 75.8456 193.784C75.0238 194.216 74.2667 194.761 73.5964 195.403C73.1691 195.8 72.7103 196.161 72.2245 196.483C71.4973 196.915 70.7464 197.305 69.9753 197.653C69.368 197.945 68.7608 198.237 68.176 198.575L67.1189 199.204C66.1123 199.831 65.0597 200.379 63.9701 200.846C63.2954 201.116 62.5981 201.341 61.9233 201.566C61.2486 201.791 60.1916 202.128 59.3594 202.488C57.8782 203.112 56.4292 203.81 55.0184 204.58L54.2538 205.03C53.8136 205.308 53.3553 205.556 52.8818 205.772L52.117 206.019C51.6378 206.14 51.1709 206.306 50.7226 206.514C49.9968 206.907 49.3241 207.391 48.7208 207.954C48.1135 208.493 47.4613 208.988 46.8091 209.483L46.3592 209.843C44.9162 210.886 43.5413 212.02 42.2432 213.239L41.6809 213.869L41.9508 214.566L42.2207 215.286ZM36.7778 278.892C37.2951 278.33 37.8124 277.767 38.3522 277.227C38.892 276.688 39.4768 276.058 40.0391 275.428C40.6014 274.798 40.6463 274.731 40.9837 274.394L41.9059 273.471C42.528 272.9 43.1068 272.284 43.6377 271.627L43.9976 271.132C44.439 270.45 45.0034 269.855 45.662 269.378C46.1568 269.086 46.6741 268.816 47.1914 268.568C47.7926 268.277 48.3783 267.954 48.9458 267.601L49.9354 266.994C51.7797 265.824 53.6465 264.745 55.5133 263.553C56.2231 263.144 56.9779 262.82 57.7624 262.586L58.8645 262.203C60.0039 261.787 61.1094 261.283 62.1708 260.696C62.7319 260.386 63.2727 260.04 63.7902 259.662L64.195 259.347C64.3882 259.158 64.6079 258.999 64.8472 258.874C65.114 258.78 65.3973 258.742 65.6795 258.762H66.9165C67.1634 258.785 67.4118 258.785 67.6586 258.762C68.2381 258.696 68.8015 258.528 69.3231 258.267C69.6792 258.049 69.998 257.776 70.2677 257.457L70.6051 257.12C70.9034 256.931 71.2198 256.773 71.5498 256.648L71.8647 256.535L72.8318 256.085L73.7989 255.613C74.2025 255.482 74.6162 255.384 75.0359 255.321H75.2608C75.7402 255.261 76.1928 255.066 76.5653 254.758C77.0906 254.216 77.4564 253.539 77.6225 252.802V252.554C77.6225 252.554 77.8474 252.015 79.1294 251.115C79.552 250.862 80.0056 250.666 80.4788 250.53C81.1005 250.34 81.6971 250.075 82.2558 249.743C82.8178 249.338 83.2858 248.816 83.6277 248.213C83.7797 247.959 83.9527 247.719 84.145 247.494C84.9316 246.645 85.8699 245.951 86.9115 245.447C87.3759 245.291 87.7935 245.02 88.126 244.66C89.3406 243.873 90.5776 243.175 91.8147 242.411L92.7142 241.871C94.527 240.836 96.2769 239.694 97.9548 238.452C98.6645 237.958 99.4173 237.529 100.204 237.17C101.099 236.754 101.951 236.249 102.746 235.663C103.287 235.274 103.859 234.928 104.455 234.629L105.197 234.224L107.199 233.032L108.301 232.379C109.027 231.94 109.778 231.542 110.55 231.187C111.679 230.667 112.769 230.066 113.811 229.388C114.643 228.826 115.543 228.353 116.488 227.836C117.432 227.319 118.062 227.004 118.737 226.532C119.377 226.137 120.038 225.776 120.716 225.452C121.863 224.973 122.95 224.361 123.955 223.63C124.572 223.191 125.227 222.807 125.912 222.483L126.272 222.303C126.72 222.068 127.149 221.797 127.554 221.493C127.925 221.195 128.333 220.945 128.768 220.751C129.373 220.528 130.013 220.414 130.657 220.414H131.58C132.75 220.249 133.929 220.158 135.111 220.144H140.306C140.775 220.135 141.243 220.181 141.701 220.279C143.077 220.565 144.479 220.701 145.884 220.684H147.818H149.483C150.859 220.721 152.237 220.638 153.599 220.436L155.601 220.122C157.072 219.91 158.524 219.579 159.941 219.132C161.79 218.597 163.511 217.694 165.002 216.478C165.593 215.982 166.262 215.587 166.981 215.308L167.881 215.083C168.473 214.975 169.053 214.81 169.613 214.589C170.541 214.14 171.552 213.887 172.582 213.846H173.841C174.606 213.846 175.371 213.846 176.09 213.846C178.089 213.621 180.067 213.238 182.006 212.699L182.928 212.474C183.605 212.314 184.273 212.119 184.93 211.89C185.492 211.687 186.054 211.417 186.594 211.17C187.134 210.922 187.494 210.743 187.943 210.563C189.138 210.132 190.364 209.794 191.61 209.55C192.464 209.348 193.319 209.168 194.151 208.921L194.736 208.741C196.327 208.423 197.821 207.738 199.099 206.739L199.729 206.199L199.459 205.457L199.144 204.67H197.907L197.615 204.917C196.179 205.857 194.563 206.486 192.869 206.762L191.722 207.031L190.26 207.391C188.718 207.708 187.212 208.175 185.762 208.786C181.833 210.559 177.567 211.464 173.256 211.44H172.987C172.04 211.408 171.094 211.506 170.175 211.732C169.72 211.871 169.277 212.044 168.848 212.249C168.445 212.442 168.023 212.593 167.589 212.699L167.139 212.812C166.451 212.909 165.783 213.114 165.16 213.419C164.469 213.783 163.821 214.22 163.225 214.724L162.64 215.151C161.108 216.181 159.376 216.878 157.557 217.198C156.543 217.429 155.513 217.586 154.476 217.67C153.924 217.718 153.376 217.8 152.834 217.917C152.36 218.019 151.879 218.087 151.395 218.12H150.945H149.865H148.696H146.874H145.277C144.298 218.104 143.325 217.976 142.376 217.737C141.771 217.598 141.151 217.537 140.531 217.557H135.201C134.339 217.512 133.476 217.512 132.614 217.557H131.692C129.925 217.547 128.187 218.005 126.654 218.885C126.024 219.312 125.35 219.694 124.675 220.077C123.792 220.563 122.936 221.096 122.111 221.673C121.626 222.008 121.106 222.287 120.559 222.506L119.749 222.888C118.975 223.287 118.224 223.73 117.5 224.215L116.96 224.552C116.16 225.046 115.334 225.496 114.486 225.902C113.896 226.181 113.331 226.513 112.799 226.892L111.877 227.476C111.398 227.748 110.902 227.988 110.393 228.196L109.425 228.623C108.571 229.051 107.739 229.545 106.929 230.04L106.322 230.423L104.702 231.367C103.42 232.11 102.093 232.874 100.856 233.751C100.226 234.179 99.5518 234.516 98.8545 234.898C97.8967 235.357 96.9853 235.907 96.133 236.54C94.493 237.774 92.7554 238.872 90.9375 239.824L90.0152 240.341C89.408 240.656 88.8232 240.971 88.2384 241.331L87.7661 241.646C87.5118 241.757 87.2823 241.917 87.0913 242.118C86.5291 242.501 85.9893 242.883 85.4045 243.22C85.1148 243.371 84.8141 243.498 84.5049 243.603C83.9695 243.803 83.4568 244.059 82.9755 244.367L81.9408 245.11C81.4685 245.469 80.9736 245.829 80.4788 246.144C79.4137 246.742 78.2707 247.188 77.0826 247.471C76.3404 247.674 75.5757 247.899 74.8334 248.168L73.8438 248.596C73.3963 248.824 72.9297 249.012 72.4493 249.158C71.887 249.293 71.3024 249.406 70.7401 249.495L69.2781 249.788C68.515 249.984 67.764 250.224 67.0289 250.508L66.4667 250.71C65.6502 250.956 64.7999 251.069 63.9476 251.047H63.7226H62.2157H60.3489C59.595 251.032 58.8415 251.092 58.0997 251.227C56.433 251.667 54.8925 252.492 53.6014 253.634L53.0616 254.061C52.6568 254.354 52.252 254.601 51.8246 254.871C51.4667 255.067 51.1212 255.285 50.79 255.523C50.2482 255.896 49.7301 256.301 49.2382 256.738L48.6759 257.21C47.2812 258.249 45.7719 259.124 44.1776 259.819L42.7156 260.516C41.913 260.853 41.1571 261.291 40.4664 261.821C40.0669 262.138 39.6979 262.492 39.3644 262.878C39.032 263.237 38.6708 263.568 38.2847 263.868C37.6589 264.333 37.1187 264.904 36.6879 265.554C36.4688 265.969 36.0981 266.283 35.6532 266.432C35.3163 266.563 35.0102 266.762 34.7536 267.016C34.5793 267.164 34.4209 267.33 34.2813 267.511C34.1013 267.691 33.9889 267.826 33.8539 267.939L33.3367 268.231L32.6394 268.658C32.2007 268.955 31.7802 269.278 31.3799 269.625C30.9796 269.973 30.5591 270.295 30.1204 270.593C29.2657 271.155 28.4335 271.74 27.5788 272.347C26.7242 272.954 26.0044 273.471 25.1947 274.011C24.385 274.551 23.1255 275.451 22.0909 276.26C21.3937 276.778 20.7189 277.295 19.9992 277.79C18.4457 278.818 16.839 279.764 15.186 280.624L14.7361 280.871C13.1085 281.716 11.5966 282.766 10.2378 283.997C9.90504 284.333 9.58978 284.686 9.2932 285.055C9.04885 285.356 8.78585 285.641 8.50592 285.909C8.21265 286.155 7.87737 286.345 7.51628 286.472C7.00187 286.655 6.51706 286.913 6.07693 287.236C5.69457 287.551 5.35713 287.866 5.01976 288.203C4.66349 288.562 4.27997 288.893 3.87267 289.193C3.14955 289.699 2.39866 290.165 1.62351 290.587L1.35362 290.767C0.00413132 291.532 -1.27786 292.387 -2.55988 293.242L-4.02189 294.209L-6.69838 295.873C-8.58284 296.96 -10.3935 298.169 -12.1188 299.494L-12.5236 299.809L-12.7261 303.408L-10.7243 301.743C-9.68043 300.881 -8.58365 300.085 -7.44051 299.359L-3.72948 296.975C-1.48033 295.491 1.01621 293.939 3.42281 292.477C4.30519 291.978 5.15418 291.422 5.96436 290.812C6.30814 290.545 6.6314 290.251 6.93148 289.935C7.23006 289.577 7.58764 289.273 7.98866 289.036L8.37097 288.901C9.03168 288.664 9.64202 288.305 10.1703 287.844C10.5736 287.466 10.9494 287.06 11.2948 286.629C11.5647 286.314 11.8348 285.999 12.1272 285.707C13.4873 284.508 14.9998 283.495 16.6255 282.693C18.5044 281.705 20.3152 280.593 22.0459 279.364L27.3313 275.631L28.5009 274.753L29.6705 273.876L30.7276 273.202C31.2449 272.887 31.7398 272.572 32.2121 272.234C32.5645 271.984 32.9023 271.714 33.2241 271.425C33.589 271.1 33.9802 270.807 34.3937 270.548L34.6636 270.39C34.993 270.211 35.3088 270.008 35.6082 269.783C35.8198 269.604 36.0087 269.4 36.1705 269.176C36.2403 269.075 36.3236 268.984 36.418 268.906C36.5898 268.763 36.7787 268.642 36.9803 268.546C37.5423 268.322 38.0376 267.958 38.4196 267.489C38.5321 267.309 38.6671 267.129 38.7571 266.949L38.9819 266.634C39.1974 266.376 39.4472 266.149 39.7242 265.959L40.174 265.622C40.541 265.3 40.8867 264.954 41.2087 264.587C41.4635 264.295 41.7418 264.024 42.0409 263.778C42.7346 263.265 43.4903 262.842 44.29 262.518L45.3022 262.046C47.0745 261.301 48.7447 260.334 50.2727 259.167C51.1049 258.492 51.9821 257.885 52.8593 257.278C53.7365 256.67 54.2988 256.288 54.996 255.748C56.3831 254.425 58.1893 253.63 60.1015 253.499H60.3489H62.1033H64.015C64.6093 253.506 65.2033 253.468 65.7919 253.387C66.5062 253.259 67.2067 253.063 67.8836 252.802C68.1412 252.698 68.4039 252.608 68.6708 252.532C69.593 252.254 70.5321 252.037 71.4822 251.88H71.7746C72.6503 251.755 73.51 251.536 74.3387 251.227L74.946 250.98C75.3709 250.777 75.8063 250.597 76.2504 250.44C75.8785 250.881 75.6028 251.394 75.4408 251.947C75.4408 252.104 75.4408 252.284 75.2384 252.487C75.036 252.689 75.2383 252.667 74.4286 252.779C74.0473 252.84 73.6713 252.93 73.304 253.049C72.1795 253.499 71.0549 254.061 70.0652 254.556C69.5259 254.808 69.0496 255.177 68.6708 255.636C68.5025 255.803 68.3023 255.935 68.0821 256.024C67.8619 256.113 67.6262 256.157 67.3887 256.153H65.8144C65.2716 256.138 64.7305 256.222 64.2175 256.4C63.565 256.67 62.9639 257.051 62.4407 257.525C62.1949 257.741 61.9316 257.937 61.6534 258.11C60.5712 258.763 59.4259 259.306 58.2348 259.729L57.1776 260.089C56.4033 260.332 55.6509 260.641 54.9285 261.011C54.2987 261.326 53.7139 261.708 53.1067 262.091C52.6135 262.432 52.103 262.747 51.5773 263.035C50.6326 263.53 49.7554 264.115 48.9008 264.655L48.136 265.15C47.5361 265.533 46.9127 265.879 46.2693 266.184C45.797 266.432 45.347 266.657 44.8972 266.926C43.8776 267.523 43.0022 268.337 42.3333 269.311C41.6579 270.179 40.9051 270.985 40.0841 271.717L39.8366 271.964C39.3193 272.482 38.847 273.044 38.3522 273.584C37.8574 274.124 37.6325 274.416 37.2502 274.798L36.193 275.878C35.6532 276.44 35.1135 276.98 34.5962 277.542C33.8263 278.452 32.9589 279.274 32.0096 279.994C30.885 280.804 30.0304 281.456 29.2432 282.131C28.2535 282.992 27.1754 283.746 26.0269 284.38C25.2983 284.743 24.547 285.058 23.7778 285.324C23.2829 285.504 22.7881 285.707 22.3158 285.932C21.5809 286.235 20.83 286.497 20.0666 286.719L18.8296 287.124C17.9923 287.471 17.229 287.975 16.5804 288.608L16.1081 289.013C15.5233 289.485 14.9386 289.913 14.3313 290.363C12.8668 291.367 11.5167 292.528 10.3052 293.826C9.78791 294.411 9.31567 295.041 8.84334 295.671C8.37102 296.3 8.30356 296.368 8.01117 296.705C7.71878 297.043 7.38142 297.47 7.04405 297.83C6.70668 298.19 6.16686 298.819 5.76201 299.337C4.99924 300.388 4.30075 301.485 3.67032 302.62C2.99766 303.787 2.2462 304.907 1.42117 305.972C0.0716724 307.659 -1.43534 309.278 -2.87479 310.852L-3.93183 311.999C-4.77684 312.908 -5.57267 313.862 -6.31593 314.856C-6.59831 315.27 -6.9307 315.648 -7.30556 315.98C-7.47402 316.106 -7.6649 316.197 -7.86785 316.25C-8.22456 316.382 -8.56435 316.556 -8.88 316.768C-9.16861 316.977 -9.43262 317.219 -9.66715 317.487L-10.0271 317.825C-10.5597 318.253 -11.1322 318.63 -11.7365 318.949L-12.7261 319.489C-13.5097 319.905 -14.2615 320.379 -14.9753 320.906C-15.1364 321.011 -15.287 321.132 -15.425 321.266L-15.7399 321.513L-15.8748 322.121L-14.7728 322.458L-15.8748 322.233L-16.4821 325.292L-13.8282 323.043C-13.6339 322.859 -13.4231 322.693 -13.1983 322.548C-12.636 322.166 -12.0063 321.828 -11.399 321.491L-10.0945 320.771C-9.55855 320.455 -9.04045 320.11 -8.54257 319.737C-8.31411 319.546 -8.09641 319.344 -7.89036 319.129C-7.68794 318.901 -7.45301 318.704 -7.19313 318.545L-6.83333 318.41C-6.49937 318.294 -6.18175 318.135 -5.88858 317.937C-5.35623 317.528 -4.88647 317.043 -4.49412 316.498C-3.34705 315.013 -2.06502 313.596 -0.827989 312.247L0.903767 310.313C2.6222 308.493 4.13107 306.486 5.40207 304.33C5.96436 303.318 6.57163 302.283 7.22388 301.338C7.69401 300.685 8.20495 300.061 8.75343 299.472L9.65301 298.415L10.7326 297.043C11.0924 296.593 11.4524 296.12 11.8348 295.671C12.5401 294.831 13.3401 294.077 14.2189 293.421L17.4126 290.925L18.0873 290.385C18.6394 289.849 19.2985 289.435 20.0216 289.171C21.0871 288.874 22.1316 288.505 23.1479 288.068C23.6427 287.844 24.16 287.641 24.6548 287.461C25.4753 287.152 26.2787 286.799 27.0614 286.404C28.1763 285.816 29.2376 285.131 30.2328 284.357L30.8176 283.863C31.5823 283.233 32.347 282.626 33.0668 282.063C34.4205 281.151 35.6656 280.087 36.7778 278.892ZM96.6054 188.746H97.8199L98.1123 188.543C98.4657 188.316 98.8428 188.127 99.2368 187.981L99.8216 187.734C100.404 187.45 100.947 187.095 101.441 186.677L101.936 186.317C102.387 186.032 102.881 185.82 103.398 185.687L104.005 185.462C104.455 185.327 104.882 185.147 105.332 184.967L106.524 184.517L107.266 184.27C107.739 184.129 108.205 183.964 108.661 183.775L109.628 183.348C110.144 183.077 110.687 182.858 111.247 182.696L111.855 182.538C112.54 182.485 113.198 182.248 113.76 181.852C114.322 181.456 114.767 180.916 115.048 180.289C115.161 180.042 115.228 179.794 115.318 179.547C115.428 179.179 115.579 178.824 115.768 178.49C116.088 178.017 116.474 177.593 116.915 177.23L117.32 176.848C118.551 175.661 119.708 174.399 120.784 173.069C121.097 172.663 121.477 172.313 121.908 172.035C122.417 171.776 122.963 171.601 123.528 171.517L124.067 171.382C124.736 171.211 125.384 170.97 126.002 170.663L127.149 170.19C127.801 169.898 128.453 169.628 129.106 169.291C130.063 168.764 130.987 168.178 131.872 167.536L133.334 166.547C134.297 165.973 135.288 165.447 136.303 164.972L137.945 164.185C138.578 163.879 139.242 163.638 139.924 163.465C140.46 163.305 140.974 163.078 141.453 162.791L142.016 162.498C143.388 161.846 144.872 161.329 146.289 160.811L147.054 160.541C147.841 160.272 148.606 159.934 149.303 159.619C150 159.304 151.057 158.877 151.957 158.585L153.689 158.09L154.184 157.955C154.678 157.955 155.151 157.685 155.623 157.528L156.725 157.168L157.985 156.875L159.154 156.605C159.929 156.382 160.682 156.088 161.403 155.728L161.673 155.616C162.424 155.252 163.229 155.016 164.057 154.919C164.83 154.846 165.565 154.549 166.172 154.064C167.139 153.5 168.225 153.169 169.343 153.097C169.95 153.097 170.557 152.894 171.142 152.759L171.727 152.602C173.594 152.13 175.461 151.657 177.305 151.14L178.002 150.938C178.722 150.735 179.419 150.555 180.094 150.308C180.712 150.096 181.301 149.809 181.848 149.453L182.478 149.093C182.763 148.98 183.056 148.89 183.355 148.823C183.765 148.748 184.164 148.627 184.547 148.463C185.231 148.085 185.805 147.534 186.212 146.867L186.616 146.259L186.324 145.63L185.942 144.977H184.682L184.345 145.427C183.85 146.079 183.67 146.259 183.243 146.349C182.453 146.492 181.693 146.765 180.994 147.159C179.724 147.853 178.36 148.361 176.945 148.666L176.518 148.778C175.573 149.048 174.606 149.273 173.661 149.521L171.165 150.15C170.49 150.33 169.815 150.42 169.141 150.533C168.127 150.664 167.126 150.882 166.149 151.185C165.681 151.374 165.236 151.616 164.822 151.905L164.305 152.242C163.995 152.36 163.669 152.429 163.338 152.445C162.888 152.478 162.443 152.561 162.011 152.692C161.381 152.917 160.796 153.187 160.189 153.457L159.896 153.592C159.065 153.94 158.197 154.196 157.31 154.356C156.275 154.581 155.286 154.896 154.274 155.188C153.666 155.391 153.036 155.571 152.429 155.728C151.264 156.076 150.123 156.497 149.011 156.988L147.324 157.64L145.524 158.315C144.49 158.675 143.455 159.035 142.443 159.439C141.431 159.844 140.936 160.069 140.194 160.451L139.924 160.609C139.721 160.727 139.511 160.832 139.294 160.924H138.822C138.57 160.963 138.322 161.023 138.08 161.104C137.565 161.29 137.068 161.524 136.595 161.801L136.19 162.003L133.716 163.195C132.569 163.801 131.464 164.485 130.41 165.242L129.375 165.939C128.057 166.745 126.673 167.437 125.237 168.009L124.742 168.234C124.019 168.544 123.265 168.778 122.493 168.931C121.645 169.09 120.836 169.411 120.109 169.875C119.322 170.47 118.631 171.183 118.062 171.99C117.792 172.327 117.522 172.687 117.23 173.002C116.938 173.317 116.375 173.834 115.948 174.239C115.134 174.922 114.382 175.674 113.699 176.488C113.234 177.179 112.878 177.938 112.642 178.737C112.564 179.006 112.451 179.263 112.304 179.502C112.034 179.651 111.735 179.743 111.427 179.772C110.186 180.086 108.974 180.507 107.806 181.031C107.154 181.279 106.524 181.549 105.872 181.773L104.207 182.403L103.218 182.763L102.521 183.01C101.812 183.207 101.131 183.494 100.496 183.865L99.7091 184.45C99.4028 184.714 99.0715 184.948 98.7196 185.147L98.1348 185.417C97.5348 185.65 96.9677 185.96 96.4479 186.339L95.773 186.947L96.0431 187.711L96.6054 188.746ZM205.307 280.759H204.677C203.632 280.723 202.592 280.931 201.641 281.366C200.404 281.951 199.167 282.513 197.907 283.008C197.39 283.21 196.873 283.345 196.333 283.503C195.7 283.671 195.077 283.874 194.466 284.11C193.343 284.573 192.247 285.099 191.182 285.684L190.125 286.224C189.295 286.608 188.498 287.059 187.741 287.574C187.527 287.756 187.283 287.9 187.021 288.001H186.706C186.409 288.063 186.115 288.145 185.829 288.248C185.362 288.486 184.93 288.789 184.547 289.148C184.111 289.484 183.626 289.749 183.108 289.935C182.529 290.175 181.935 290.377 181.331 290.543C179.927 290.916 178.596 291.524 177.395 292.342C176.74 292.859 176.131 293.431 175.573 294.051L175.056 294.613C174.345 295.401 173.594 296.152 172.807 296.863C171.945 297.584 170.992 298.189 169.973 298.662C169.163 299.044 168.398 299.517 167.611 299.966L166.756 300.439C166.16 300.782 165.544 301.09 164.912 301.361L163.54 301.991L163.27 302.148C162.865 302.377 162.435 302.558 161.988 302.688C161.67 302.762 161.347 302.815 161.021 302.845H160.414C157.946 303.318 155.631 304.383 153.666 305.949C152.587 306.736 151.732 307.321 150.832 307.861C149.831 308.422 148.876 309.061 147.976 309.773C147.188 310.444 146.438 311.157 145.727 311.909C144.881 312.845 143.947 313.696 142.938 314.451C142.516 314.741 142.073 314.996 141.611 315.216C141.138 315.463 140.666 315.733 140.216 316.025C139.386 316.579 138.63 317.237 137.967 317.982C137.74 318.23 137.529 318.493 137.337 318.769C137.046 319.238 136.663 319.643 136.213 319.961C135.921 320.092 135.609 320.176 135.291 320.209C134.711 320.287 134.148 320.462 133.626 320.726C133.369 320.883 133.121 321.056 132.884 321.243L132.547 321.491C132.202 321.712 131.841 321.908 131.467 322.076L131.175 322.211C130.502 322.562 129.868 322.984 129.285 323.47C128.926 323.74 128.566 324.01 128.206 324.235L127.509 324.64C126.759 325.024 126.069 325.517 125.462 326.102C125.158 326.438 124.873 326.791 124.607 327.159C124.31 327.595 123.963 327.995 123.573 328.351C123.123 328.711 122.628 329.003 122.156 329.318C121.614 329.616 121.095 329.954 120.604 330.33C119.653 331.083 118.799 331.952 118.062 332.917C117.306 333.938 116.65 335.03 116.105 336.178C115.702 337.017 115.244 337.828 114.734 338.607C114.509 338.922 114.284 339.259 114.036 339.574C113.789 339.889 113.182 340.789 112.799 341.418C112.227 342.414 111.731 343.452 111.315 344.522V344.792C110.788 345.989 110.344 347.222 109.988 348.481C109.723 349.355 109.353 350.193 108.886 350.977L108.503 351.697C107.95 352.801 107.57 353.985 107.379 355.206V355.723C107.379 356.083 107.244 356.443 107.154 356.78C107.087 357.043 106.997 357.299 106.884 357.545C106.771 357.837 106.659 358.13 106.569 358.444C106.36 359.366 106.291 360.314 106.367 361.256V361.953V363.145H107.491H108.706V361.323C108.628 360.47 108.704 359.609 108.931 358.782C109.258 357.755 109.528 356.712 109.74 355.656V355.296C109.953 354.234 110.34 353.216 110.887 352.282C111.527 351.232 112.012 350.096 112.327 348.908C112.625 347.887 112.993 346.887 113.429 345.917L113.586 345.557C114.017 344.419 114.559 343.326 115.206 342.296C115.498 341.868 115.791 341.441 116.105 341.036C116.42 340.631 116.825 340.046 117.14 339.529C117.521 338.916 117.86 338.277 118.152 337.617C118.332 337.257 118.49 336.898 118.692 336.56C119.694 334.599 121.191 332.932 123.033 331.725L123.483 331.455C124.366 330.963 125.177 330.35 125.889 329.633C126.181 329.328 126.445 328.996 126.677 328.643C126.986 328.183 127.366 327.773 127.801 327.429L128.881 326.776C129.464 326.451 130.028 326.09 130.568 325.697L131.062 325.292L131.805 324.73L132.592 324.347L133.289 324.01L134.234 323.403C134.602 323.093 135.031 322.863 135.493 322.728C136.464 322.649 137.388 322.281 138.147 321.671C138.603 321.238 139.017 320.763 139.384 320.254C139.609 319.961 139.834 319.669 140.081 319.399C140.665 318.77 141.34 318.231 142.083 317.802L142.78 317.42C143.53 317.032 144.245 316.581 144.917 316.07C145.813 315.378 146.662 314.627 147.459 313.821L148.021 313.259C148.536 312.68 149.092 312.139 149.685 311.64C150.405 311.093 151.156 310.59 151.934 310.133L152.542 309.773C153.284 309.323 154.004 308.828 154.791 308.311C155.967 307.441 157.225 306.687 158.547 306.062C159.558 305.669 160.617 305.412 161.696 305.297C162.736 305.106 163.738 304.749 164.665 304.24L166.059 303.588C166.824 303.228 167.566 302.868 168.308 302.441C169.05 302.013 170.333 301.293 171.39 300.776C173.4 299.699 175.205 298.275 176.72 296.57C176.942 296.349 177.152 296.116 177.35 295.873C177.838 295.311 178.38 294.799 178.969 294.344C179.754 293.815 180.62 293.42 181.533 293.174L182.141 292.972C182.86 292.724 183.603 292.499 184.39 292.207C184.926 291.982 185.439 291.703 185.919 291.375C186.094 291.26 186.259 291.132 186.414 290.992C186.612 290.795 186.85 290.642 187.111 290.543H187.449C187.626 290.522 187.801 290.476 187.966 290.408C188.498 290.227 188.993 289.952 189.428 289.598C190.006 289.211 190.616 288.873 191.25 288.586L192.284 288.068C193.34 287.474 194.429 286.941 195.546 286.472C195.884 286.354 196.23 286.256 196.58 286.179L197.187 286.022C197.795 285.842 198.424 285.594 199.167 285.302C200.336 284.83 201.416 284.335 202.608 283.795C203.373 283.434 204.214 283.264 205.059 283.3H205.374L206.544 283.12V280.871L205.307 280.759ZM205.779 271.515L205.284 271.74C204.744 271.938 204.242 272.227 203.8 272.594C203.058 273.169 202.231 273.625 201.348 273.944L200.156 274.394C199.885 274.476 199.606 274.529 199.324 274.551H198.739C198.123 274.671 197.55 274.95 197.075 275.361C196.913 275.506 196.732 275.627 196.535 275.721C196.365 275.761 196.188 275.761 196.018 275.721C195.782 275.736 195.549 275.774 195.321 275.833C194.828 275.943 194.362 276.15 193.949 276.44C193.266 276.855 192.56 277.231 191.834 277.565L191.25 277.835L188.033 279.477L185.784 280.669C184.097 281.523 182.433 282.221 180.656 282.918L180.139 283.143C179.464 283.414 178.823 283.761 178.227 284.177C177.561 284.732 177.011 285.412 176.608 286.179L176.473 286.427C176.34 286.703 176.151 286.95 175.919 287.151C175.687 287.352 175.416 287.504 175.123 287.596C174.685 287.687 174.242 287.755 173.796 287.799L172.649 287.956L171.997 288.068C171.345 288.181 170.715 288.293 170.063 288.451C169.038 288.753 168.055 289.184 167.139 289.733L165.947 290.385C164.372 291.24 162.73 292.139 161.156 293.174C160.189 293.804 159.357 294.411 158.614 294.996L158.12 295.446C157.737 295.783 157.22 296.255 156.905 296.255H156.68H155.578V297.29V298.37L156.613 298.549H157.04C157.726 298.513 158.385 298.27 158.929 297.852C159.334 297.56 159.739 297.222 160.121 296.908L161.021 296.165C162.637 294.958 164.353 293.89 166.149 292.972L167.521 292.229C168.731 291.495 170.042 290.942 171.412 290.587C172.289 290.408 173.189 290.228 174.066 290.138H174.358C175.128 290.097 175.887 289.938 176.608 289.665C177.446 289.287 178.14 288.648 178.587 287.844L178.834 287.416C179.135 286.819 179.566 286.297 180.094 285.887C180.683 285.549 181.3 285.263 181.938 285.032L182.208 284.92C183.198 284.537 184.165 284.11 185.132 283.66C186.549 282.985 187.966 282.266 189.36 281.546L190.935 280.736C191.857 280.286 192.757 279.814 193.679 279.387H193.949C194.267 279.252 194.575 279.094 194.871 278.914L195.298 278.644C195.533 278.462 195.8 278.324 196.085 278.24C196.228 278.227 196.371 278.227 196.513 278.24C196.946 278.228 197.372 278.136 197.772 277.97C198.113 277.804 198.425 277.584 198.694 277.317L199.032 277.07C199.25 276.969 199.489 276.923 199.729 276.935H200.336C200.84 276.835 201.331 276.677 201.798 276.463L202.473 276.215C203.334 275.915 204.157 275.515 204.925 275.023L205.509 274.551C205.665 274.386 205.847 274.249 206.049 274.146L206.971 273.719L207.556 273.291L207.804 270.637L205.779 271.515ZM108.841 283.885C109.177 283.421 109.478 282.933 109.74 282.423L109.965 282.041C110.235 281.568 110.528 281.096 110.842 280.646L111.09 280.286C111.938 279.063 112.584 277.712 113.002 276.283C113.182 275.676 113.339 275.068 113.496 274.461C113.927 272.418 114.686 270.458 115.746 268.658C116.325 267.875 117.006 267.171 117.77 266.567L118.692 265.757L119.322 265.15C120.176 264.362 121.009 263.575 121.908 262.9C122.808 262.226 124.157 261.236 125.17 260.426L125.552 260.156C126.275 259.596 126.958 258.987 127.599 258.335C127.891 258.042 128.183 257.75 128.498 257.48C129.057 256.989 129.677 256.573 130.343 256.243C130.915 255.935 131.471 255.598 132.007 255.231C132.845 254.56 133.649 253.847 134.414 253.094L135.448 252.104C136.595 251.092 137.697 250.035 138.822 248.956C138.999 248.785 139.122 248.566 139.174 248.326C139.226 248.085 139.205 247.835 139.114 247.606L138.709 246.819H137.945H137.405L137.068 247.156C135.943 248.281 134.818 249.406 133.581 250.44L132.569 251.385C131.89 252.127 131.136 252.798 130.32 253.387C129.96 253.634 129.578 253.836 129.218 254.039C128.345 254.486 127.53 255.037 126.789 255.681L126.069 256.378C125.373 257.103 124.621 257.772 123.82 258.38C122.651 259.234 121.571 260.089 120.356 261.011C119.142 261.933 118.669 262.496 117.86 263.26L117.028 264.047L116.218 264.745C115.391 265.413 114.637 266.167 113.969 266.994C113.331 267.928 112.817 268.941 112.439 270.008L112.214 270.57C111.763 271.707 111.409 272.881 111.157 274.079L110.977 274.798C110.658 276.155 110.11 277.448 109.358 278.622L108.953 279.207L108.188 280.354L107.739 281.186C107.559 281.501 107.401 281.816 107.199 282.108C106.443 283.104 105.523 283.964 104.477 284.65C103.688 285.263 102.937 285.924 102.228 286.629L101.306 287.461C100.856 287.866 100.384 288.226 99.9116 288.608C99.2312 289.112 98.585 289.661 97.9773 290.25L96.7852 291.42C96.2004 292.049 95.5931 292.657 94.9409 293.242C94.2886 293.826 94.0187 294.119 93.5464 294.591C93.0421 295.129 92.5091 295.64 91.9496 296.12C90.984 296.978 90.157 297.979 89.498 299.089C89.1831 299.562 88.8457 300.011 88.5083 300.461C87.946 301.249 87.3613 302.036 86.8665 302.89C86.5741 303.363 86.3042 303.858 86.0343 304.352C85.6181 305.184 85.1367 305.981 84.5948 306.736C84.2799 307.186 83.92 307.636 83.5602 308.063C82.9965 308.723 82.4709 309.414 81.9859 310.133L81.1535 311.46C80.6138 312.314 80.0965 313.169 79.5117 313.979C78.9269 314.788 78.747 314.968 78.3421 315.441C77.7882 316.073 77.2772 316.742 76.8127 317.442C76.4978 317.915 76.2055 318.432 75.9131 318.927C75.485 319.708 75.0041 320.46 74.4736 321.176C73.6669 322.127 72.811 323.035 71.9096 323.897L71.7297 324.055C70.7851 325 69.9078 325.989 69.0756 326.934C68.1197 328.079 67.0984 329.168 66.0168 330.195C65.4095 330.735 64.7573 331.252 64.1051 331.769C62.5912 332.852 61.249 334.156 60.124 335.638C59.7123 336.224 59.2694 336.787 58.7971 337.325C58.3473 337.842 57.9199 338.36 57.5151 338.899C56.7599 340.016 56.1051 341.198 55.5583 342.431L55.4234 342.745C54.9813 343.501 54.5833 344.283 54.2312 345.084C54.0063 345.737 53.7814 346.389 53.489 347.041C53.1576 347.72 52.7663 348.367 52.3195 348.976L51.4198 350.37L51.2398 350.707C50.5544 351.801 49.9817 352.962 49.5305 354.171C49.141 355.583 49.004 357.052 49.1256 358.512C49.2523 359.732 49.0906 360.965 48.6534 362.111C48.4186 362.581 48.1478 363.032 47.8436 363.46C47.62 363.832 47.4317 364.223 47.2813 364.63C47.2813 364.855 47.079 365.102 46.9665 365.304C46.4929 366.059 45.9588 366.773 45.3696 367.441L44.3799 368.656C43.4578 369.893 42.5131 371.107 41.6584 372.367L41.2536 372.929C40.6 373.772 40.0559 374.694 39.6343 375.673C39.3043 376.393 38.8808 377.066 38.3747 377.675C38.0111 378.136 37.6732 378.616 37.3626 379.114C36.7647 380.183 36.0061 381.154 35.1134 381.993L34.5061 382.645L34.776 383.365L35.181 384.175H36.4629L36.7778 383.905C37.8059 382.929 38.685 381.808 39.3869 380.576C39.6609 380.131 39.9612 379.703 40.2865 379.294C40.7649 378.68 41.2007 378.034 41.591 377.36C41.7374 377.068 41.8651 376.768 41.9733 376.46C42.0497 376.237 42.1398 376.02 42.2432 375.808C42.4626 375.456 42.703 375.118 42.963 374.796L43.4579 374.144C44.29 372.952 45.1446 371.759 46.0218 370.612L47.079 369.308C47.6862 368.543 48.3159 367.801 48.8557 367.059C49.0914 366.683 49.2874 366.283 49.4405 365.867L49.6654 365.327C49.8141 365.055 49.9794 364.792 50.1603 364.54C50.3627 364.247 50.5426 363.955 50.7226 363.64C51.4656 362.023 51.7683 360.239 51.5998 358.467C51.5408 357.55 51.5861 356.63 51.7347 355.723C52.0168 354.623 52.4723 353.576 53.0842 352.619L53.3991 352.034C53.6915 351.54 54.0063 351.045 54.3437 350.572C54.8001 349.933 55.2133 349.265 55.5807 348.571C55.9295 347.839 56.2374 347.088 56.5029 346.322C56.6994 345.661 56.9398 345.015 57.2227 344.387L57.425 343.982C57.9214 342.854 58.5003 341.764 59.1569 340.721C59.5299 340.194 59.9355 339.691 60.3714 339.214C60.8437 338.674 61.2936 338.135 61.6985 337.572C62.3985 336.565 63.2479 335.67 64.2175 334.918C66.5625 333.126 68.7045 331.082 70.6051 328.823C71.4466 327.796 72.3557 326.827 73.3265 325.922C74.365 324.942 75.3486 323.906 76.2729 322.818C76.8651 322.013 77.406 321.172 77.8924 320.299L78.4996 319.264C78.9677 318.559 79.4784 317.883 80.029 317.24C80.4113 316.813 80.7713 316.363 81.1087 315.913C81.7834 315.013 82.3682 314.046 82.953 313.102L83.6502 311.999C84.174 311.216 84.7449 310.465 85.3596 309.75L86.1693 308.716C86.8227 307.803 87.4162 306.849 87.946 305.859C88.1485 305.477 88.351 305.095 88.5759 304.712C89.1382 303.768 89.7679 302.89 90.4202 301.968L91.0274 301.114C91.2298 300.844 91.4097 300.551 91.5897 300.259C91.7696 299.966 91.9721 299.652 92.197 299.359C92.5428 298.92 92.9433 298.527 93.389 298.19C94.0061 297.67 94.5919 297.114 95.1434 296.525C95.5482 296.098 95.953 295.693 96.3804 295.311C96.8077 294.928 97.6625 294.051 98.2922 293.399L99.6417 292.072C100.156 291.6 100.697 291.157 101.261 290.745C101.756 290.34 102.251 289.958 102.723 289.53L103.488 288.856C104.354 288.058 105.262 287.307 106.209 286.607C107.228 285.848 108.117 284.929 108.841 283.885Z" fill="#EEDAAE"/>
<path d="M256.228 293.624C256.14 292.977 255.83 292.38 255.35 291.937C254.181 291.06 252.809 292.589 252.247 293.466C251.319 295.076 250.565 296.78 249.997 298.549C249.544 299.508 249.146 300.492 248.805 301.496C248.517 302.583 248.351 303.7 248.311 304.825C248.311 306.286 248.311 307.771 248.311 309.323C248.311 310.11 248.311 310.92 248.311 311.707C248.311 312.494 247.996 313.326 247.861 314.136C247.681 315.711 247.636 317.299 247.726 318.882C247.726 319.601 247.726 320.321 247.726 321.131C247.726 322.008 247.726 322.863 247.726 323.74C247.725 323.781 247.737 323.821 247.762 323.854C247.786 323.886 247.821 323.91 247.861 323.92V324.032H248.018V323.897C248.032 323.873 248.039 323.846 248.039 323.819C248.039 323.791 248.032 323.764 248.018 323.74C248.268 322.567 248.653 321.428 249.165 320.344C249.282 319.143 249.501 317.954 249.818 316.79C250.29 315.643 251.302 315.013 252.067 314.046C252.352 313.694 252.545 313.277 252.629 312.832C252.614 312.228 252.667 311.624 252.787 311.032C252.966 310.537 253.304 310.088 253.506 309.615C253.759 309.032 253.97 308.43 254.136 307.816C254.496 306.579 254.721 305.319 254.991 304.06C255.875 301.639 256.442 299.114 256.678 296.548C256.626 295.56 256.475 294.581 256.228 293.624Z" fill="white"/>
<path d="M230.655 286.044C230.734 285.471 230.688 284.888 230.52 284.335C230.092 283.188 229.35 282.086 228.923 281.028C228.62 279.749 228.417 278.448 228.316 277.137C227.985 275.987 227.509 274.884 226.899 273.854C226.291 272.662 225.819 271.335 225.302 270.075C224.784 268.816 224.874 268.006 224.515 266.994C224.125 266.223 223.697 265.473 223.233 264.745C222.693 263.643 221.726 261.596 220.129 262.068C218.959 262.406 218.577 264.07 218.374 265.082C217.969 266.623 217.969 268.242 218.374 269.783C219.321 271.858 220.631 273.747 222.243 275.361C223.077 276.538 223.729 277.835 224.177 279.207C224.312 279.567 224.47 279.904 224.627 280.264C224.602 280.26 224.576 280.264 224.553 280.274C224.53 280.285 224.51 280.301 224.496 280.323C224.482 280.344 224.474 280.368 224.473 280.394C224.473 280.419 224.479 280.444 224.492 280.466C224.746 281.102 225.12 281.682 225.594 282.176L225.797 282.58C226.291 283.435 226.831 284.267 227.393 285.099C227.569 285.431 227.772 285.747 228.001 286.044C228.186 286.277 228.389 286.495 228.608 286.696C229.044 287.218 229.509 287.713 230.003 288.181C230.533 289.391 230.918 290.659 231.15 291.959C231.172 292.007 231.21 292.045 231.258 292.067C231.305 292.089 231.359 292.093 231.41 292.08C231.46 292.067 231.505 292.036 231.535 291.994C231.566 291.951 231.58 291.899 231.577 291.847C231.172 290.565 231.374 289.193 231.015 287.911C230.8 287.311 230.679 286.681 230.655 286.044Z" fill="white"/>
<path d="M275.323 322.301C275.166 321.851 274.783 321.806 274.378 321.873C273.61 321.992 272.883 322.301 272.264 322.773C271.6 323.199 270.961 323.665 270.352 324.167C270.352 324.167 270.352 324.055 270.217 324.055C269.52 324.055 269.183 324.707 268.913 325.27C268.724 325.61 268.506 325.934 268.261 326.237L267.811 326.709C267.475 327.045 267.088 327.326 266.664 327.541C265.828 328.061 265.071 328.697 264.415 329.43C263.585 329.987 262.93 330.766 262.525 331.68C262.525 331.837 262.66 331.972 262.773 331.882C263.181 331.59 263.61 331.327 264.055 331.095C264.639 330.802 265.337 330.78 265.944 330.533C266.943 330.003 267.899 329.393 268.8 328.711C269.238 328.433 269.728 328.249 270.24 328.171C270.539 328.119 270.819 327.987 271.05 327.789C271.927 327.069 272.826 326.394 273.614 325.539C274.112 325.032 274.557 324.474 274.941 323.875C275.143 323.425 275.503 322.795 275.323 322.301Z" fill="white"/>
<path d="M191.43 314.833C191.002 314.586 190.507 314.496 190.08 314.271C189.652 314.058 189.208 313.878 188.753 313.731C187.763 313.241 186.699 312.914 185.604 312.764C185.083 312.78 184.563 312.84 184.052 312.944C183.422 312.944 182.77 312.944 182.14 312.944C181.384 313.086 180.683 313.436 180.116 313.956C179.779 314.204 179.172 314.653 179.284 315.171C179.396 315.688 180.206 315.666 180.634 315.553C181.123 315.4 181.629 315.301 182.14 315.261C182.716 315.328 183.297 315.328 183.872 315.261C184.567 315.069 185.291 315.001 186.009 315.058C186.768 315.147 187.52 315.29 188.258 315.486C188.911 315.621 189.585 315.486 190.237 315.733C190.941 315.914 191.632 316.139 192.307 316.408C192.307 316.565 192.599 316.52 192.577 316.408C192.554 315.845 191.834 315.148 191.43 314.833Z" fill="white"/>
<path d="M245.679 63.3329V63.2205C245.679 63.2205 245.544 63.2205 245.679 63.3329Z" fill="#202147"/>
<path d="M253.371 83.3055C253.333 83.18 253.28 83.0593 253.214 82.9457C253.106 82.7783 252.96 82.6394 252.787 82.5408L252.269 82.2934C251.934 82.1558 251.61 81.9902 251.302 81.7986L251.145 81.6412C251.007 81.5131 250.826 81.4419 250.639 81.4419C250.451 81.4419 250.27 81.5131 250.132 81.6412C249.999 81.7759 249.925 81.9577 249.925 82.1472C249.925 82.3367 249.999 82.5186 250.132 82.6533C250.608 83.0912 251.177 83.4144 251.797 83.5979H251.617L252.067 83.8228C252.182 83.8988 252.302 83.9664 252.427 84.0253C252.501 84.0153 252.577 84.0153 252.652 84.0253C252.751 84.0529 252.857 84.0536 252.957 84.0272C253.057 84.0009 253.148 83.9484 253.221 83.8752C253.294 83.8021 253.347 83.7108 253.373 83.6107C253.4 83.5106 253.399 83.4053 253.371 83.3055Z" fill="white"/>
<path d="M281.396 65.9643C281.372 65.9059 281.332 65.8558 281.28 65.8205C281.228 65.7852 281.166 65.7664 281.103 65.7664C281.04 65.7664 280.979 65.7852 280.927 65.8205C280.875 65.8558 280.834 65.9059 280.811 65.9643V66.0768C280.742 66.1844 280.682 66.2972 280.631 66.4142V66.5491L280.451 66.819L280.226 67.0664L279.754 67.4938C279.705 67.538 279.667 67.5919 279.64 67.6519C279.614 67.712 279.6 67.7768 279.6 67.8424C279.6 67.908 279.614 67.9729 279.64 68.0329C279.667 68.0929 279.705 68.1468 279.754 68.191C279.846 68.2764 279.966 68.3239 280.091 68.3239C280.216 68.3239 280.337 68.2764 280.429 68.191C280.815 67.8791 281.15 67.507 281.418 67.0889C281.553 66.8758 281.666 66.6498 281.756 66.4142C281.662 66.2452 281.54 66.0931 281.396 65.9643Z" fill="white"/>
<path d="M286.186 54.4939C286.015 54.6404 285.871 54.8154 285.759 55.0112L285.422 55.551C285.306 55.7542 285.222 55.9743 285.174 56.2032C285.108 56.431 285.063 56.6644 285.039 56.9005C285.042 57.0018 285.08 57.0992 285.145 57.1768C285.21 57.2543 285.3 57.3076 285.399 57.3278C285.502 57.3376 285.605 57.3117 285.691 57.2543C285.777 57.197 285.841 57.1117 285.871 57.0129C285.911 56.8195 285.971 56.631 286.051 56.4506C286.051 56.4506 286.051 56.2707 286.051 56.4506V56.2258C286.042 56.1285 286.042 56.0306 286.051 55.9334C286.101 55.7502 286.161 55.57 286.231 55.3935C286.325 55.2042 286.379 54.9974 286.389 54.7863C286.396 54.7213 286.38 54.6558 286.343 54.602C286.305 54.5483 286.25 54.5098 286.186 54.4939Z" fill="white"/>
<path d="M285.647 37.1305C285.601 37.0976 285.546 37.0798 285.489 37.0798C285.433 37.0798 285.378 37.0976 285.332 37.1305C285.197 37.243 285.039 37.3329 284.927 37.4454L284.59 37.7828L283.915 38.435C283.876 38.464 283.844 38.501 283.821 38.5435C283.798 38.5859 283.784 38.6328 283.781 38.681C283.777 38.7292 283.784 38.7776 283.801 38.8229C283.818 38.8682 283.845 38.9093 283.879 38.9435C283.913 38.9777 283.954 39.0041 283.999 39.021C284.045 39.0379 284.093 39.0449 284.141 39.0415C284.189 39.038 284.236 39.0243 284.279 39.0011C284.321 38.978 284.358 38.946 284.387 38.9073L285.039 38.2326L285.354 37.8952C285.479 37.7707 285.592 37.6352 285.692 37.4904C285.73 37.4355 285.747 37.3683 285.739 37.3018C285.73 37.2353 285.698 37.1742 285.647 37.1305Z" fill="white"/>
<path d="M282.678 52.6945C282.616 52.6392 282.536 52.6086 282.453 52.6086C282.37 52.6086 282.29 52.6392 282.228 52.6945C282.068 52.802 281.918 52.9223 281.778 53.0544C281.645 53.2126 281.532 53.3863 281.441 53.5717C281.231 53.9254 281.122 54.33 281.126 54.7413C281.123 54.7963 281.131 54.8514 281.15 54.9031C281.169 54.9549 281.198 55.0022 281.236 55.0422C281.274 55.0822 281.32 55.114 281.37 55.1358C281.421 55.1575 281.475 55.1687 281.531 55.1686C281.588 55.1719 281.645 55.1631 281.698 55.1427C281.751 55.1224 281.8 55.0911 281.84 55.0507C281.88 55.0104 281.912 54.9619 281.932 54.9086C281.952 54.8553 281.961 54.7983 281.958 54.7413C281.947 54.6742 281.947 54.6059 281.958 54.5389C281.949 54.4642 281.949 54.3886 281.958 54.3139C281.958 54.3139 281.958 54.3139 281.958 54.2015L282.228 53.7741L282.363 53.5942C282.482 53.6359 282.613 53.6286 282.727 53.5738C282.841 53.5189 282.928 53.4211 282.97 53.3018C283.012 53.1825 283.004 53.0515 282.95 52.9376C282.895 52.8237 282.797 52.7363 282.678 52.6945Z" fill="white"/>
<path d="M286.839 51.4351H286.344H285.017C284.927 51.4351 284.842 51.4706 284.778 51.5339C284.715 51.5971 284.68 51.6829 284.68 51.7724C284.68 51.8619 284.715 51.9477 284.778 52.011C284.842 52.0742 284.927 52.1098 285.017 52.1098H286.344H286.839C286.839 52.1098 287.019 51.9748 287.019 51.8849C287.052 51.8474 287.075 51.8012 287.084 51.7516C287.093 51.7019 287.087 51.6508 287.069 51.6039C287.05 51.5571 287.019 51.5165 286.978 51.4866C286.937 51.4568 286.889 51.4389 286.839 51.4351Z" fill="white"/>
<path d="M281.396 48.7583C280.766 48.9157 280.609 49.6355 280.541 50.1978C280.541 50.3102 280.541 50.4227 280.541 50.5576C280.552 50.6095 280.552 50.6631 280.541 50.7151C280.541 50.6026 280.541 50.7151 280.541 50.7151C280.554 50.7744 280.554 50.8357 280.541 50.895C280.548 50.9397 280.548 50.9852 280.541 51.0299C280.472 51.1295 280.44 51.2502 280.451 51.3708C280.462 51.4914 280.515 51.6044 280.601 51.69C280.686 51.7757 280.799 51.8286 280.92 51.8395C281.041 51.8504 281.161 51.8186 281.261 51.7497C281.462 51.5096 281.601 51.2239 281.666 50.9175C281.7 50.6487 281.7 50.3766 281.666 50.1078C281.655 49.9956 281.655 49.8826 281.666 49.7704V49.523C281.656 49.4634 281.656 49.4026 281.666 49.3431V49.1631C281.675 49.1188 281.676 49.0729 281.668 49.0282C281.659 48.9836 281.642 48.941 281.617 48.9032C281.592 48.8654 281.559 48.8331 281.521 48.8082C281.483 48.7833 281.441 48.7663 281.396 48.7583Z" fill="white"/>
<path d="M246.309 33.0593C246.318 32.9621 246.318 32.8642 246.309 32.7669C246.264 32.6908 246.197 32.6305 246.116 32.5943C246.036 32.558 245.946 32.5476 245.859 32.5645C245.77 32.5888 245.691 32.6415 245.634 32.7145C245.577 32.7875 245.546 32.8769 245.544 32.9694V33.1268C245.533 33.1938 245.533 33.2622 245.544 33.3292C245.555 33.3963 245.555 33.4646 245.544 33.5316V33.7116C245.544 33.5541 245.544 33.7116 245.544 33.7116L245.342 34.1389C245.297 34.2625 245.297 34.3977 245.342 34.5213C245.39 34.6489 245.477 34.7587 245.589 34.8362C245.713 34.8808 245.848 34.8808 245.972 34.8362C246.103 34.7951 246.215 34.7071 246.286 34.5887C246.437 34.2683 246.565 33.9376 246.669 33.5991C246.69 33.4198 246.69 33.2386 246.669 33.0593C246.551 33.0256 246.427 33.0256 246.309 33.0593Z" fill="white"/>
<path d="M250.852 34.9938L250.695 34.7464V34.5889C250.656 34.4776 250.603 34.3718 250.537 34.274V34.1391C250.379 33.6795 250.126 33.2581 249.795 32.902C249.723 32.8306 249.626 32.7905 249.525 32.7905C249.424 32.7905 249.327 32.8306 249.255 32.902C249.183 32.9775 249.142 33.0783 249.142 33.1832C249.142 33.2881 249.183 33.3889 249.255 33.4643C249.263 33.5014 249.263 33.5397 249.255 33.5768C249.328 33.6657 249.389 33.7641 249.435 33.8692C249.548 34.0529 249.638 34.2492 249.705 34.454C249.787 34.6674 249.893 34.871 250.02 35.0612C250.157 35.2397 250.324 35.3921 250.515 35.5111C250.583 35.5558 250.667 35.5714 250.747 35.5546C250.827 35.5377 250.898 35.4897 250.942 35.4211C250.987 35.3525 251.003 35.2689 250.986 35.1888C250.969 35.1087 250.921 35.0385 250.852 34.9938Z" fill="white"/>
<path d="M247.658 27.9536C247.646 27.9393 247.63 27.9278 247.613 27.9199C247.595 27.912 247.576 27.908 247.557 27.908C247.538 27.908 247.519 27.912 247.502 27.9199C247.484 27.9278 247.469 27.9393 247.456 27.9536C247.302 28.1297 247.137 28.295 246.961 28.4485C246.944 28.4583 246.925 28.4635 246.905 28.4635C246.885 28.4635 246.866 28.4583 246.849 28.4485C246.768 28.4685 246.683 28.4685 246.601 28.4485C246.517 28.4743 246.445 28.5303 246.399 28.6059C246.375 28.6502 246.361 28.6987 246.356 28.7487C246.351 28.7987 246.356 28.8491 246.371 28.8971C246.385 28.9452 246.409 28.9899 246.441 29.0287C246.473 29.0674 246.512 29.0996 246.556 29.1232C246.606 29.1456 246.66 29.1571 246.714 29.1571C246.768 29.1571 246.822 29.1456 246.871 29.1232C247.096 29.0154 247.284 28.8431 247.411 28.6284C247.524 28.4485 247.591 28.2235 247.703 28.0211C247.694 27.9955 247.678 27.9724 247.658 27.9536Z" fill="white"/>
<path d="M251.414 25.2548V24.8949C251.425 24.8204 251.425 24.7446 251.414 24.67C251.397 24.6099 251.362 24.5565 251.314 24.5164C251.266 24.4764 251.207 24.4515 251.145 24.4451C251.08 24.4442 251.017 24.4664 250.968 24.5076C250.918 24.5489 250.885 24.6065 250.875 24.67C250.875 24.67 250.875 24.8274 250.875 24.8949V25.2548V25.997C250.836 26.0906 250.836 26.1958 250.875 26.2894C250.963 26.366 251.073 26.4132 251.19 26.4244C251.298 26.4088 251.4 26.3619 251.482 26.2894C251.523 26.2534 251.555 26.208 251.574 26.157C251.594 26.1061 251.601 26.0512 251.594 25.997L251.414 25.2548Z" fill="white"/>
<path d="M262.278 29.1458C262.183 29.0691 262.077 29.0084 261.963 28.9658H261.828C261.655 28.8742 261.49 28.7689 261.333 28.6509C260.973 28.3652 260.548 28.1721 260.096 28.0887C259.923 28.0209 259.73 28.0209 259.556 28.0887C259.475 28.1314 259.404 28.1921 259.35 28.2661C259.295 28.3401 259.258 28.4256 259.242 28.516C259.203 28.6008 259.183 28.6928 259.183 28.7859C259.183 28.879 259.203 28.971 259.242 29.0558C259.332 29.2084 259.476 29.321 259.646 29.3707C259.971 29.4331 260.288 29.5312 260.591 29.6631H260.434C260.693 29.7984 260.964 29.9113 261.243 30.0004H261.581C261.722 30.0228 261.866 30.0228 262.008 30.0004L262.255 29.888C262.313 29.8455 262.36 29.7905 262.393 29.7272C262.426 29.6639 262.445 29.5938 262.447 29.5223C262.449 29.4509 262.435 29.3798 262.406 29.3146C262.376 29.2494 262.333 29.1916 262.278 29.1458Z" fill="white"/>
<path d="M262.166 37.0854C261.989 36.9015 261.801 36.7287 261.603 36.5681C261.443 36.4374 261.292 36.2945 261.153 36.1408C261.093 36.0559 261.04 35.9655 260.996 35.8709V35.691C260.983 35.5413 260.983 35.3908 260.996 35.2411C260.98 35.1831 260.953 35.1288 260.917 35.0814C260.88 35.034 260.834 34.9944 260.781 34.9651C260.729 34.9357 260.671 34.9172 260.611 34.9105C260.552 34.9038 260.491 34.9092 260.434 34.9262C260.316 34.9581 260.214 35.0344 260.152 35.1393C260.089 35.2442 260.069 35.3694 260.096 35.4885C260.204 36.0415 260.461 36.5547 260.838 36.973C261.234 37.2965 261.664 37.5756 262.12 37.8052C262.216 37.8111 262.31 37.7789 262.382 37.7157C262.453 37.6524 262.497 37.5632 262.503 37.4678C262.509 37.3723 262.477 37.2784 262.413 37.2067C262.35 37.135 262.261 37.0914 262.166 37.0854Z" fill="white"/>
<path d="M262.278 23.0281C262.288 22.9785 262.287 22.9273 262.275 22.8783C262.262 22.8292 262.239 22.7835 262.207 22.7446C262.174 22.7057 262.133 22.6746 262.087 22.6536C262.041 22.6326 261.991 22.6223 261.941 22.6233C261.846 22.5907 261.743 22.5907 261.648 22.6233L261.468 22.7807C261.376 22.855 261.3 22.9468 261.243 23.0506C261.173 23.154 261.12 23.2679 261.086 23.388C261.073 23.5151 261.073 23.6432 261.086 23.7704C261.075 23.8374 261.075 23.9057 261.086 23.9728C261.076 24.0247 261.076 24.0783 261.086 24.1302C261.182 24.226 261.31 24.2822 261.446 24.2876C261.514 24.2903 261.581 24.2776 261.644 24.2503C261.706 24.223 261.761 24.182 261.806 24.1302C261.901 24.0343 261.958 23.9058 261.963 23.7704C261.952 23.6958 261.952 23.62 261.963 23.5454C261.963 23.5454 261.963 23.5454 261.963 23.4105L262.075 23.2305C262.153 23.1669 262.208 23.0802 262.233 22.9831L262.278 23.0281Z" fill="white"/>
<path d="M265.067 32.7221L264.865 32.6096L264.482 32.3622C264.173 32.1666 263.813 32.065 263.448 32.0698C263.372 32.0651 263.297 32.0776 263.228 32.1064C263.158 32.1351 263.096 32.1794 263.046 32.2358C262.996 32.2922 262.96 32.3592 262.94 32.4318C262.92 32.5044 262.916 32.5806 262.93 32.6546C262.937 32.7298 262.961 32.8025 262.999 32.8676C263.037 32.9327 263.089 32.9886 263.151 33.0315C263.214 33.0744 263.284 33.1031 263.359 33.1157C263.433 33.1283 263.51 33.1244 263.583 33.1044H263.785H263.987H264.347C264.607 33.1999 264.88 33.253 265.157 33.2619C265.229 33.2499 265.292 33.2101 265.335 33.151C265.377 33.092 265.394 33.0186 265.382 32.947C265.37 32.8754 265.33 32.8115 265.271 32.7693C265.212 32.7271 265.138 32.7101 265.067 32.7221Z" fill="white"/>
<path d="M266.731 26.5593L264.999 26.4019C264.938 26.4018 264.878 26.4141 264.822 26.4381C264.766 26.4621 264.715 26.4973 264.673 26.5415C264.631 26.5856 264.598 26.6379 264.577 26.6951C264.556 26.7523 264.547 26.8133 264.55 26.8742C264.55 26.9935 264.597 27.1079 264.681 27.1923C264.766 27.2766 264.88 27.324 264.999 27.324L266.731 27.1891C266.911 27.1891 267.069 27.0541 267.046 26.8742C267.05 26.832 267.044 26.7895 267.029 26.7498C267.015 26.71 266.991 26.674 266.961 26.644C266.932 26.6141 266.896 26.591 266.856 26.5763C266.816 26.5617 266.773 26.5559 266.731 26.5593Z" fill="white"/>
<path d="M229.665 43.8777C229.576 43.9091 229.493 43.9547 229.418 44.0127L229.215 44.1701L228.856 44.485L228.631 44.6425V44.7549L228.473 44.8899L228.248 45.0023H228.113C227.954 45.0079 227.803 45.0737 227.69 45.1864C227.577 45.2991 227.512 45.4503 227.506 45.6096C227.512 45.7667 227.578 45.9155 227.692 46.0245C227.805 46.1336 227.956 46.1945 228.113 46.1944C228.376 46.1885 228.635 46.1296 228.875 46.0214C229.114 45.9132 229.33 45.7579 229.508 45.5646C229.689 45.3958 229.841 45.1982 229.958 44.9798L230.115 44.7324C230.136 44.6285 230.136 44.5214 230.115 44.4176C230.14 44.3507 230.147 44.2785 230.135 44.2082C230.123 44.1379 230.092 44.072 230.047 44.0173C230.001 43.9625 229.942 43.9207 229.875 43.8962C229.808 43.8717 229.735 43.8654 229.665 43.8777Z" fill="white"/>
<path d="M238.774 42.6183C238.434 42.7449 238.121 42.9358 237.852 43.1806L237.47 43.428L237.2 43.6755L236.84 43.9229H236.615H236.39H236.233C236.016 43.9453 235.797 43.9453 235.581 43.9229C235.417 43.9228 235.26 43.986 235.143 44.0993C235.026 44.2125 234.957 44.367 234.951 44.5301C234.956 44.6953 235.024 44.8523 235.141 44.9692C235.258 45.0861 235.415 45.1543 235.581 45.1599C236.368 45.2632 237.166 45.0796 237.83 44.6426C238.129 44.4371 238.394 44.1867 238.617 43.9003L238.954 43.4955C239.106 43.3423 239.235 43.168 239.337 42.9782C239.341 42.9103 239.327 42.8425 239.296 42.7819C239.265 42.7213 239.218 42.67 239.161 42.6333C239.104 42.5966 239.038 42.5759 238.97 42.5733C238.902 42.5707 238.834 42.5862 238.774 42.6183Z" fill="white"/>
<path d="M314.661 69.698H314.526C314.226 69.8028 313.945 69.9547 313.694 70.1478C313.21 70.571 312.759 71.0296 312.344 71.5198C312.268 71.6027 312.226 71.711 312.226 71.8234C312.226 71.9358 312.268 72.0441 312.344 72.1271C312.429 72.1985 312.537 72.2376 312.648 72.2376C312.759 72.2376 312.866 72.1985 312.951 72.1271L313.626 71.4073L313.986 71.07C314.033 71.012 314.085 70.9592 314.143 70.9125H314.323L314.661 70.7776C314.829 70.7235 314.983 70.6312 315.111 70.5077C315.228 70.3627 315.312 70.1938 315.358 70.0128C315.4 69.9204 315.403 69.8151 315.367 69.7202C315.331 69.6253 315.259 69.5486 315.167 69.5068C315.074 69.4651 314.969 69.4617 314.874 69.4976C314.779 69.5334 314.702 69.6055 314.661 69.698Z" fill="white"/>
<path d="M324.13 50.2879C323.826 50.1663 323.539 50.0077 323.275 49.8156C322.991 49.611 322.681 49.4447 322.353 49.3208C321.623 49.0654 320.87 48.8845 320.104 48.781C320.056 48.7676 320.007 48.764 319.958 48.7705C319.909 48.7769 319.863 48.7933 319.82 48.8186C319.778 48.8439 319.742 48.8776 319.713 48.9175C319.684 48.9575 319.664 49.0029 319.654 49.0509C319.637 49.0965 319.629 49.1454 319.633 49.1941C319.636 49.2428 319.65 49.2901 319.674 49.3329C319.697 49.3756 319.73 49.4128 319.769 49.4418C319.808 49.4707 319.853 49.4909 319.901 49.5007C320.667 49.5847 321.421 49.7505 322.15 49.9955C322.443 49.9955 322.713 50.2879 323.005 50.4229C323.315 50.5903 323.667 50.6608 324.017 50.6253C324.13 50.6028 324.13 50.4453 324.13 50.2879Z" fill="white"/>
<path d="M324.467 41.4487C324.397 41.3839 324.304 41.3479 324.208 41.3479C324.113 41.3479 324.02 41.3839 323.95 41.4487L323.477 41.831C323.317 41.962 323.167 42.1049 323.028 42.2584L322.128 43.1355C322.045 43.2196 321.999 43.3327 321.999 43.4504C321.999 43.5682 322.045 43.6812 322.128 43.7653C322.17 43.8095 322.22 43.8448 322.277 43.8688C322.333 43.8929 322.393 43.9053 322.454 43.9053C322.515 43.9053 322.575 43.8929 322.632 43.8688C322.688 43.8448 322.738 43.8095 322.78 43.7653L323.635 42.8881C323.794 42.763 323.937 42.6196 324.062 42.4608L324.467 41.966C324.532 41.8954 324.568 41.8031 324.568 41.7073C324.568 41.6115 324.532 41.5192 324.467 41.4487Z" fill="white"/>
<path d="M305.192 40.0991C305.175 39.9998 305.122 39.9102 305.043 39.8478C304.964 39.7854 304.865 39.7548 304.764 39.7617C304.662 39.7585 304.562 39.7901 304.48 39.8515C304.399 39.9128 304.34 40.0001 304.315 40.0991C304.302 40.1961 304.302 40.2944 304.315 40.3915V40.2565C304.322 40.3238 304.322 40.3917 304.315 40.4589L304.045 40.7064C303.701 40.9425 303.34 41.153 302.965 41.3361C302.849 41.4104 302.765 41.5263 302.732 41.6602C302.698 41.794 302.718 41.9356 302.785 42.0559C302.856 42.176 302.97 42.2641 303.104 42.3018C303.239 42.3396 303.382 42.324 303.505 42.2583C303.82 42.1008 304.135 41.9434 304.427 41.7635C304.807 41.5486 305.125 41.2386 305.349 40.8638C305.426 40.7011 305.471 40.5257 305.484 40.3465C305.4 40.2498 305.301 40.1664 305.192 40.0991Z" fill="white"/>
<path d="M279.664 31.3951L278.607 31.2152C278.211 31.1705 277.811 31.1705 277.415 31.2152C277.26 31.2152 277.111 31.2768 277.001 31.3865C276.892 31.4962 276.83 31.6449 276.83 31.8C276.83 31.9551 276.892 32.1038 277.001 32.2135C277.111 32.3232 277.26 32.3848 277.415 32.3848C277.812 32.4072 278.21 32.4072 278.607 32.3848L279.664 32.1824C279.768 32.1824 279.868 32.1409 279.942 32.0671C280.016 31.9933 280.058 31.8931 280.058 31.7888C280.058 31.6844 280.016 31.5842 279.942 31.5104C279.868 31.4366 279.768 31.3951 279.664 31.3951Z" fill="white"/>
<path d="M207.466 36.0058C207.467 35.942 207.45 35.8793 207.419 35.824C207.387 35.7687 207.341 35.7227 207.286 35.6909C207.185 35.6222 207.071 35.5764 206.95 35.557C206.83 35.5376 206.706 35.5449 206.589 35.5784C206.416 35.6345 206.25 35.7099 206.094 35.8033C205.794 36.0249 205.528 36.2903 205.307 36.5905C205.273 36.6567 205.256 36.73 205.256 36.8042C205.256 36.8785 205.273 36.9517 205.307 37.0179C205.324 37.0877 205.354 37.1536 205.397 37.2115C205.439 37.2694 205.493 37.3183 205.554 37.3552C205.692 37.4091 205.844 37.4091 205.982 37.3552C206.124 37.3116 206.245 37.2151 206.319 37.0853C206.421 36.9491 206.543 36.828 206.679 36.7255L206.949 36.5456L207.084 36.4331C207.139 36.4376 207.195 36.4292 207.246 36.4086C207.298 36.388 207.344 36.3557 207.381 36.3144C207.418 36.273 207.445 36.2236 207.46 36.17C207.474 36.1165 207.477 36.0603 207.466 36.0058Z" fill="white"/>
<path d="M210.458 25.4798C210.428 25.4285 210.385 25.3858 210.334 25.3561C210.283 25.3264 210.224 25.3108 210.165 25.3108C210.106 25.3108 210.048 25.3264 209.996 25.3561C209.945 25.3858 209.902 25.4285 209.873 25.4798C209.866 25.5246 209.866 25.5701 209.873 25.6148C209.588 25.712 209.322 25.8565 209.085 26.0421C208.561 26.4447 208.099 26.9221 207.713 27.4591C207.677 27.521 207.654 27.5894 207.645 27.6604C207.636 27.7314 207.64 27.8036 207.659 27.8726C207.678 27.9417 207.71 28.0063 207.755 28.0628C207.799 28.1192 207.854 28.1663 207.916 28.2013C208.04 28.2617 208.182 28.2744 208.314 28.2371C208.447 28.1997 208.561 28.115 208.636 27.9989L208.793 27.7965L209.108 27.4591C209.343 27.2686 209.569 27.0659 209.783 26.8518C209.837 26.7863 209.897 26.7261 209.963 26.6719L210.165 26.537C210.284 26.4547 210.384 26.3472 210.458 26.2221C210.471 26.1477 210.471 26.0716 210.458 25.9972C210.511 25.8289 210.511 25.6481 210.458 25.4798Z" fill="white"/>
<path d="M221.996 33.0819L221.681 32.947H221.546C221.321 32.767 221.118 32.5646 220.893 32.4071C220.668 32.2497 219.724 31.7999 219.184 31.44C219.085 31.3888 218.969 31.3765 218.861 31.4056C218.753 31.4347 218.66 31.5031 218.599 31.5975C218.548 31.697 218.536 31.8122 218.565 31.9203C218.594 32.0285 218.662 32.1219 218.757 32.1823C219.342 32.5421 219.994 32.7445 220.534 33.1269L220.803 33.3518L221.163 33.6217C221.412 33.8003 221.712 33.8949 222.018 33.8916C222.265 33.7117 222.378 33.1719 221.996 33.0819Z" fill="white"/>
<path d="M225.819 71.0024C225.611 70.9909 225.404 71.0275 225.213 71.1094C225.021 71.1914 224.852 71.3164 224.717 71.4747C224.697 71.5484 224.697 71.626 224.717 71.6996C224.72 71.7514 224.734 71.8021 224.757 71.8485C224.78 71.8949 224.812 71.9361 224.852 71.9695C224.919 72.0328 225.007 72.0681 225.099 72.0681C225.191 72.0681 225.28 72.0328 225.347 71.9695L225.504 71.8121H225.662H225.864C225.923 71.8242 225.985 71.8242 226.044 71.8121C226.065 71.7539 226.065 71.6904 226.044 71.6322C226.128 71.6023 226.196 71.5406 226.234 71.4604C226.272 71.3803 226.276 71.2883 226.246 71.2048C226.217 71.1213 226.155 71.0531 226.075 71.0151C225.994 70.9771 225.903 70.9726 225.819 71.0024Z" fill="white"/>
<path d="M241.923 57.0579H241.563H241.383L241.226 56.9454H241.113L240.731 56.698C240.479 56.5349 240.207 56.4063 239.921 56.3157C239.575 56.2252 239.211 56.2252 238.864 56.3157C238.744 56.3523 238.643 56.4331 238.58 56.5416C238.518 56.6501 238.499 56.7784 238.527 56.9005C238.564 57.0203 238.644 57.1218 238.753 57.1844C238.861 57.247 238.99 57.2661 239.112 57.2378H239.427H239.786H239.944L240.304 57.4627C240.548 57.6286 240.827 57.737 241.119 57.7798C241.411 57.8227 241.709 57.7988 241.991 57.7101C242.053 57.6862 242.107 57.6427 242.144 57.586C242.18 57.5294 242.197 57.4625 242.193 57.3953C242.203 57.3547 242.204 57.3122 242.196 57.2712C242.187 57.2302 242.169 57.1918 242.142 57.159C242.116 57.1263 242.083 57.1001 242.045 57.0826C242.007 57.065 241.965 57.0566 241.923 57.0579Z" fill="white"/>
<path d="M251.729 51.3674C251.632 51.2662 251.507 51.1959 251.37 51.165H251.122C250.95 51.1426 250.776 51.1426 250.605 51.165C250.381 51.2086 250.162 51.2765 249.953 51.3674L249.638 51.5023H249.48C249.283 51.6027 249.08 51.6928 248.873 51.7722C248.814 51.7956 248.764 51.8359 248.729 51.888C248.694 51.9402 248.675 52.0017 248.675 52.0646C248.675 52.1276 248.694 52.1891 248.729 52.2412C248.764 52.2933 248.814 52.3337 248.873 52.357L249.48 52.492C249.711 52.5249 249.946 52.5249 250.177 52.492H250.762H251.032H251.167H251.325H251.527C251.597 52.4753 251.663 52.4447 251.721 52.4023C251.778 52.3598 251.827 52.3062 251.864 52.2446C251.981 52.2267 252.085 52.1633 252.155 52.0684C252.224 51.9735 252.253 51.8548 252.235 51.7385C252.217 51.6222 252.154 51.5177 252.059 51.4481C251.964 51.3785 251.846 51.3495 251.729 51.3674Z" fill="white"/>
<path d="M257.442 47.1615C257.428 47.1222 257.404 47.0871 257.373 47.0596C257.341 47.0321 257.303 47.013 257.262 47.0041H256.408C256.352 47.0023 256.296 47.0136 256.246 47.037C256.195 47.0605 256.15 47.0954 256.115 47.139C256.046 47.2118 256.005 47.3081 256.003 47.4089C256.002 47.5171 256.042 47.6216 256.115 47.7013C256.21 47.7322 256.313 47.7322 256.408 47.7013H257.06H257.262C257.325 47.6692 257.379 47.623 257.42 47.5664C257.438 47.5356 257.447 47.5007 257.447 47.4652C257.447 47.4296 257.438 47.3947 257.42 47.364C257.439 47.3344 257.451 47.3006 257.455 47.2654C257.459 47.2303 257.455 47.1946 257.442 47.1615Z" fill="white"/>
<path d="M262.885 58.4972C262.824 58.3203 262.724 58.159 262.593 58.0248L262.233 57.755C262.049 57.6048 261.853 57.4694 261.648 57.3501L261.063 56.9677L260.929 56.8553L260.636 56.6079C260.541 56.528 260.42 56.4866 260.296 56.4919C260.172 56.4972 260.055 56.5487 259.967 56.6364C259.88 56.724 259.828 56.8414 259.823 56.9652C259.818 57.089 259.859 57.2104 259.939 57.3051C260.256 57.6562 260.602 57.9797 260.973 58.2723L261.626 58.7671H261.761C261.761 58.7671 261.963 58.9695 262.098 58.992H262.278C262.363 59.0134 262.453 59.0143 262.539 58.9947C262.625 58.9752 262.705 58.9358 262.773 58.8795C262.858 58.7711 262.898 58.6343 262.885 58.4972Z" fill="white"/>
<path d="M264.257 53.2569C264.22 53.2237 264.172 53.2053 264.122 53.2053C264.072 53.2053 264.024 53.2237 263.987 53.2569H263.852H263.717H263.402H263.245H262.84C262.763 53.2354 262.68 53.2444 262.609 53.282C262.538 53.3197 262.484 53.3831 262.458 53.4593C262.448 53.4977 262.446 53.5378 262.452 53.577C262.458 53.6163 262.472 53.6539 262.493 53.6876C262.514 53.7213 262.542 53.7503 262.574 53.7729C262.607 53.7955 262.644 53.8113 262.683 53.8192C262.97 53.8976 263.273 53.8976 263.56 53.8192L263.92 53.6392L264.122 53.4593C264.13 53.392 264.13 53.3241 264.122 53.2569C264.166 53.2744 264.214 53.2744 264.257 53.2569Z" fill="white"/>
<path d="M267.249 49.2309H267.069L266.866 49.0285C266.596 48.7586 266.394 48.4662 266.124 48.1963C266.09 48.158 266.049 48.1274 266.002 48.1063C265.956 48.0853 265.905 48.0745 265.854 48.0745C265.803 48.0745 265.753 48.0853 265.706 48.1063C265.659 48.1274 265.618 48.158 265.584 48.1963C265.513 48.268 265.473 48.365 265.473 48.4662C265.473 48.5674 265.513 48.6644 265.584 48.7361C265.877 49.006 266.102 49.3209 266.416 49.5908C266.57 49.7359 266.744 49.8572 266.934 49.9506L267.271 50.0631C267.36 50.085 267.452 50.085 267.541 50.0631H267.676C267.786 50.0064 267.87 49.9082 267.908 49.7901C267.946 49.672 267.935 49.5437 267.878 49.4333C267.822 49.323 267.724 49.2396 267.605 49.2017C267.487 49.1637 267.359 49.1743 267.249 49.2309Z" fill="white"/>
<path d="M272.579 69.6531H272.399C272.318 69.63 272.233 69.63 272.152 69.6531H269.903C269.801 69.6531 269.704 69.6934 269.632 69.7651C269.561 69.8368 269.52 69.9341 269.52 70.0355C269.526 70.1351 269.568 70.2293 269.638 70.2998C269.709 70.3704 269.803 70.4124 269.903 70.4178H272.399L272.624 70.3054C272.684 70.2724 272.734 70.2227 272.767 70.1624C272.8 70.102 272.815 70.0335 272.81 69.9648C272.806 69.8962 272.781 69.8303 272.74 69.7751C272.699 69.7198 272.643 69.6775 272.579 69.6531Z" fill="white"/>
<path d="M275.66 63.2207H275.278C274.963 63.2207 274.671 63.2207 274.356 63.2207C274.254 63.2207 274.157 63.261 274.086 63.3327C274.014 63.4044 273.974 63.5016 273.974 63.6031C273.979 63.7027 274.021 63.7968 274.091 63.8674C274.162 63.938 274.256 63.98 274.356 63.9854C274.715 64.0191 275.076 64.0191 275.435 63.9854C275.627 63.9568 275.809 63.8853 275.969 63.7762C276.128 63.6671 276.261 63.5234 276.358 63.3556C276.313 63.3107 275.908 62.9733 275.66 63.2207Z" fill="white"/>
<path d="M280.406 70.2379L279.709 69.5632C279.561 69.4309 279.403 69.3105 279.237 69.2033L278.764 68.9559C278.144 68.6227 277.463 68.4163 276.763 68.3486C276.425 68.3486 276.335 68.8884 276.763 68.9334C277.379 69.0648 277.966 69.3088 278.494 69.6531L278.922 69.9455L279.372 70.1479C279.664 70.2829 279.934 70.4403 280.204 70.5978C280.247 70.6024 280.291 70.594 280.33 70.5739C280.369 70.5537 280.402 70.5226 280.423 70.4844C280.445 70.4461 280.455 70.4024 280.452 70.3586C280.449 70.3148 280.433 70.2728 280.406 70.2379Z" fill="white"/>
<path d="M249.075 18.2823H248.895C248.807 18.2594 248.714 18.2594 248.626 18.2823H248.153C247.853 18.3757 247.587 18.5556 247.389 18.7996C247.347 18.8365 247.314 18.8815 247.291 18.9318C247.268 18.9821 247.255 19.0366 247.254 19.092C247.252 19.1478 247.263 19.2033 247.287 19.2541C247.31 19.3049 247.345 19.3495 247.389 19.3844C247.424 19.427 247.469 19.4612 247.52 19.4847C247.57 19.5082 247.625 19.5203 247.681 19.5203C247.737 19.5203 247.792 19.5082 247.842 19.4847C247.893 19.4612 247.937 19.427 247.973 19.3844L248.153 19.2269L248.311 19.1145H248.536H248.738C248.849 19.1363 248.964 19.1363 249.075 19.1145C249.127 19.1289 249.181 19.1289 249.233 19.1145C249.25 19.0481 249.25 18.9784 249.233 18.912C249.285 18.8688 249.324 18.8116 249.345 18.7471C249.366 18.6826 249.369 18.6134 249.352 18.5476C249.336 18.4817 249.301 18.4219 249.252 18.3749C249.203 18.328 249.142 18.2959 249.075 18.2823Z" fill="white"/>
<path d="M238.437 10.478C238.189 10.478 237.92 10.478 237.65 10.478H236.93C236.472 10.4135 236.025 10.2848 235.603 10.0956C235.553 10.0683 235.498 10.0513 235.441 10.0456C235.384 10.0399 235.327 10.0456 235.273 10.0624C235.218 10.0791 235.168 10.1066 235.124 10.1432C235.08 10.1799 235.044 10.2249 235.018 10.2756C234.997 10.3285 234.988 10.3853 234.99 10.4422C234.992 10.4991 235.007 10.5549 235.032 10.6058C235.058 10.6568 235.094 10.7018 235.138 10.7379C235.182 10.774 235.233 10.8004 235.288 10.8154C235.788 11.0297 236.32 11.1589 236.862 11.1977C237.386 11.243 237.913 11.243 238.437 11.1977C238.532 11.1977 238.624 11.1598 238.691 11.0924C238.759 11.0249 238.797 10.9333 238.797 10.8379C238.797 10.7424 238.759 10.6509 238.691 10.5834C238.624 10.5159 238.532 10.478 238.437 10.478Z" fill="white"/>
<path d="M240.911 6.13701L240.753 6.02454C240.651 5.99182 240.541 5.99182 240.439 6.02454C240.34 6.11297 240.226 6.18168 240.101 6.22696H239.921H239.651H239.247C239.187 6.22506 239.129 6.23617 239.074 6.25949C239.02 6.28281 238.971 6.31776 238.932 6.3619C238.883 6.39756 238.845 6.44559 238.821 6.50096C238.798 6.55633 238.789 6.61703 238.797 6.67678C238.795 6.73931 238.805 6.80161 238.829 6.8597C238.852 6.91779 238.887 6.97042 238.932 7.01417C239.005 7.03672 239.083 7.03672 239.157 7.01417C239.439 7.0688 239.729 7.0688 240.011 7.01417L240.259 6.90171C240.347 6.87044 240.424 6.81607 240.484 6.74429C240.6 6.64292 240.705 6.52985 240.799 6.40689C240.819 6.32575 240.819 6.24062 240.799 6.15948C240.837 6.15805 240.875 6.15047 240.911 6.13701Z" fill="white"/>
<path d="M266.821 10.8377H266.641H266.371C266.188 10.8225 266.006 10.7847 265.832 10.7252C265.494 10.6001 265.17 10.4419 264.865 10.2529C264.265 9.84436 263.707 9.37722 263.2 8.85841C263.119 8.77788 263.01 8.73267 262.897 8.73267C262.783 8.73267 262.673 8.77788 262.593 8.85841C262.512 8.93894 262.467 9.04818 262.467 9.16207C262.467 9.27596 262.512 9.38516 262.593 9.46569C263.161 10.0721 263.786 10.6219 264.46 11.1076C264.821 11.3555 265.214 11.5523 265.629 11.6924C266.052 11.838 266.511 11.838 266.934 11.6924C267.047 11.6775 267.15 11.6181 267.219 11.5274C267.289 11.4367 267.32 11.3221 267.305 11.2088C267.29 11.0954 267.231 10.9927 267.14 10.9231C267.049 10.8535 266.935 10.8228 266.821 10.8377Z" fill="white"/>
<path d="M191.744 44.9575C191.711 44.911 191.667 44.8732 191.616 44.8471C191.566 44.821 191.509 44.8074 191.452 44.8074C191.395 44.8074 191.339 44.821 191.288 44.8471C191.237 44.8732 191.193 44.911 191.16 44.9575L190.957 45.2499L190.777 45.5423C190.693 45.679 190.595 45.8071 190.485 45.9246L190.35 46.1495L190.08 46.5319L189.945 46.7343L189.698 47.0042V47.1167C189.587 47.1904 189.508 47.3022 189.474 47.4309C189.441 47.5595 189.457 47.6959 189.518 47.8139C189.588 47.9286 189.7 48.0115 189.83 48.0451C189.96 48.0786 190.098 48.0603 190.215 47.9938C190.586 47.7132 190.905 47.3708 191.16 46.9817C191.317 46.7568 191.475 46.5544 191.61 46.3294C191.757 46.0883 191.877 45.8319 191.969 45.5647V45.2499C191.919 45.1355 191.842 45.0351 191.744 44.9575Z" fill="white"/>
<path d="M189.338 47.9264H189.113H188.933C189.046 47.9264 188.933 47.9264 188.933 47.9264L188.776 47.7689C188.767 47.6942 188.767 47.6188 188.776 47.544C188.776 47.544 188.776 47.544 188.776 47.4316C188.776 47.354 188.745 47.2796 188.69 47.2248C188.635 47.17 188.561 47.1392 188.483 47.1392C188.406 47.1392 188.331 47.17 188.276 47.2248C188.222 47.2796 188.191 47.354 188.191 47.4316C188.181 47.476 188.181 47.5221 188.191 47.5665C188.169 47.6627 188.169 47.7627 188.191 47.8589C188.216 47.9783 188.262 48.0924 188.326 48.1963C188.409 48.3793 188.523 48.5467 188.663 48.6911C188.821 48.824 188.995 48.9372 189.18 49.0284H189.45H189.585C189.697 49.0509 189.811 49.0509 189.923 49.0284C189.976 49.0062 190.021 48.9688 190.054 48.9207C190.086 48.8727 190.103 48.8163 190.103 48.7586C190.103 48.7008 190.086 48.6444 190.054 48.5964C190.021 48.5483 189.976 48.5109 189.923 48.4887L189.338 47.9264Z" fill="white"/>
<path d="M218.847 43.1807C218.617 43.1993 218.398 43.2854 218.217 43.4281C217.986 43.5748 217.768 43.7403 217.565 43.9229C217.182 44.2378 216.822 44.5976 216.44 44.89C216.405 44.9236 216.378 44.9638 216.359 45.0082C216.34 45.0526 216.33 45.1004 216.33 45.1487C216.33 45.1969 216.34 45.2447 216.359 45.2891C216.378 45.3336 216.405 45.3737 216.44 45.4073C216.509 45.4659 216.597 45.4981 216.688 45.4981C216.778 45.4981 216.866 45.4659 216.935 45.4073L217.947 44.3952L218.217 44.1478L218.352 44.0128C218.509 43.8779 218.689 43.7879 218.847 43.6755C218.912 43.6755 218.975 43.6494 219.022 43.603C219.068 43.5566 219.094 43.4937 219.094 43.4281C219.094 43.3625 219.068 43.2995 219.022 43.2531C218.975 43.2067 218.912 43.1807 218.847 43.1807Z" fill="white"/>
<path d="M228.046 22.8482C227.814 22.7 227.573 22.5649 227.326 22.4434C227.089 22.3155 226.841 22.2101 226.584 22.1285C226.044 22.0044 225.482 22.0044 224.942 22.1285C224.942 22.1285 224.942 22.1285 224.942 22.2634C225.472 22.3323 225.993 22.4606 226.494 22.6458C226.989 22.7807 227.484 22.9832 227.978 23.1631C228.091 23.0956 228.158 22.9157 228.046 22.8482Z" fill="white"/>
<path d="M304.045 56.3156L303.572 56.1132L303.19 55.9783H302.988L302.628 55.8433C302.387 55.7478 302.139 55.6726 301.886 55.6184H301.391C301.207 55.6319 301.025 55.6697 300.851 55.7309C300.782 55.7564 300.723 55.8025 300.681 55.8628C300.639 55.9231 300.616 55.9948 300.616 56.0682C300.616 56.1417 300.639 56.2134 300.681 56.2737C300.723 56.334 300.782 56.38 300.851 56.4056C300.997 56.4371 301.14 56.4823 301.278 56.5406H301.683H301.886L302.223 56.7205C302.482 56.8632 302.753 56.9836 303.033 57.0803H303.393C303.599 57.1368 303.816 57.1368 304.022 57.0803C304.094 57.047 304.156 56.9942 304.2 56.9279C304.243 56.8616 304.268 56.7844 304.27 56.705C304.273 56.6255 304.253 56.547 304.213 56.4782C304.173 56.4094 304.115 56.3531 304.045 56.3156Z" fill="white"/>
<path d="M216.8 14.4588C216.515 14.3774 216.219 14.3395 215.923 14.3464C215.782 14.3129 215.636 14.3129 215.496 14.3464L215.248 14.5038C214.854 14.771 214.479 15.0641 214.124 15.381C214.124 15.381 214.124 15.381 214.124 15.381C214.124 15.381 214.596 15.0886 214.843 14.9761C215 14.8846 215.179 14.8379 215.361 14.8412H215.608C215.633 14.8531 215.659 14.8594 215.687 14.8594C215.714 14.8594 215.741 14.8531 215.765 14.8412H215.945C216.22 14.8052 216.491 14.745 216.755 14.6613C216.783 14.6363 216.802 14.6034 216.81 14.5672C216.818 14.531 216.814 14.4931 216.8 14.4588Z" fill="white"/>
</svg>
