<svg width="313" height="320" viewBox="0 0 313 320" fill="none" xmlns="http://www.w3.org/2000/svg">
<path d="M123.279 95.9085H121.993H120.491C120.243 95.927 119.995 95.927 119.748 95.9085C118.716 95.7825 117.72 95.5664 116.652 95.3323C115.584 95.0982 114.733 94.9181 113.755 94.774C112.759 94.6429 111.754 94.5827 110.749 94.5939H108.721H107.707H91.7011C90.6038 94.6156 89.5068 94.5372 88.4238 94.3599L87.591 94.2698C87.0116 94.1438 86.4321 94.0357 85.7803 93.9637C85.3945 93.9363 85.0072 93.9363 84.6215 93.9637C84.0602 93.9637 83.4808 93.9637 82.9014 94.0537H82.7022H82.0685C81.3777 94.0571 80.6915 93.9414 80.0405 93.7116C79.1522 93.3824 78.2173 93.194 77.2702 93.1534H76.727H74.9164C74.3189 93.1534 73.7394 93.1534 73.1057 93.1534C72.5752 93.1887 72.0429 93.1887 71.5123 93.1534C71.0235 93.1534 70.5527 93.0093 70.0638 92.9193C69.575 92.8292 69.1041 92.7572 68.6153 92.7032C67.8587 92.6044 67.0969 92.5503 66.3339 92.5411H65.7001C64.4867 92.4645 63.2781 92.3262 62.0788 92.1269C61.3184 92.0189 60.5579 91.8928 59.7974 91.8208C58.6735 91.6921 57.5428 91.6319 56.4115 91.6407C55.5243 91.6407 54.6008 91.6407 53.786 91.6407C49.4042 91.8028 45.113 91.8208 41.8538 91.8208H41.0933C39.273 91.7669 37.4521 91.9057 35.6614 92.235L34.5207 92.4871C33.0785 92.8567 31.606 93.0978 30.1208 93.2074C29.2077 93.2606 28.2999 93.381 27.4048 93.5675C26.4625 93.7613 25.5055 93.8757 24.5439 93.9097H17.9712C16.1469 93.9556 14.3236 93.7863 12.5393 93.4055C10.5684 92.9209 8.55548 92.6255 6.52794 92.5231C5.62261 92.5231 4.71725 92.5231 3.83003 92.5231C2.88927 92.4691 1.94617 92.4691 1.00541 92.5231C0.353573 92.5231 0.40789 92.4151 0.154399 93.0093C-0.787142 95.2602 2.83419 94.5039 4.08354 94.5039C4.88023 94.5039 5.65879 94.5039 6.43737 94.5039C8.43977 94.6075 10.4281 94.8969 12.3763 95.3683C14.1609 95.7458 15.9846 95.909 17.8083 95.8545H24.1456C25.0537 95.8692 25.9617 95.815 26.8616 95.6924L27.9842 95.4763C28.5817 95.3683 29.1792 95.2422 29.7948 95.1882H30.7001C31.2433 95.1882 31.7865 95.1882 32.3478 95.0441C32.9091 94.9001 34.0137 94.72 34.8466 94.5219H35.1544C36.037 94.2977 36.9317 94.1233 37.8341 93.9997C38.4357 93.9385 39.0401 93.9084 39.6448 93.9097H47.0142C48.517 93.9097 50.0018 93.9097 51.5046 93.7836C53.0075 93.6576 54.4741 93.6576 55.9588 93.6576C56.8279 93.6576 57.7695 93.6576 58.5843 93.6576C59.3991 93.6576 60.3949 93.8736 61.4813 94.0357C62.5677 94.1978 63.2919 94.3239 64.2516 94.3959C64.9034 94.3959 65.5734 94.3959 66.2253 94.5039H67.1124C67.9816 94.5039 68.9231 94.702 69.7741 94.8461H70.1362C71.0035 95.0065 71.8806 95.1088 72.7617 95.1522H73.1057H74.8259H75.7131H76.8357C77.3654 95.142 77.8945 95.1964 78.4109 95.3143C78.7481 95.3913 79.0807 95.4875 79.4068 95.6024C79.9392 95.8078 80.4913 95.9586 81.0545 96.0526C81.3379 96.0709 81.6221 96.0709 81.9055 96.0526C82.3762 96.0526 82.8471 96.0526 83.2997 96.0526H83.8972H84.4766C85.2377 96.0598 85.9961 96.1443 86.7399 96.3047H87.2107C87.8807 96.4307 88.5325 96.5568 89.1843 96.6288C89.7269 96.6647 90.2713 96.6647 90.8139 96.6288H105.299H107.816H110.315H111.311C113.142 96.7169 114.96 96.9762 116.743 97.4032L117.775 97.6192C118.732 97.8363 119.708 97.963 120.69 97.9974H123.188C124.181 97.9824 125.173 98.0366 126.158 98.1595C126.858 98.2086 127.538 98.4116 128.15 98.7537C128.421 98.9518 128.457 99.2399 128.24 99.6181C128.023 99.9962 126.81 100.536 126.031 100.699C124.729 100.928 123.407 101.031 122.084 101.005H86.8305H85.2733H83.7343C82.7581 101.032 81.7829 100.922 80.8372 100.681C80.0102 100.433 79.1614 100.264 78.3023 100.176C77.8315 100.176 77.3789 100.176 76.9081 100.176C76.4373 100.176 75.7131 100.176 75.0975 100.176H73.9386C73.0514 100.176 72.128 100.284 71.2407 100.284C70.5445 100.291 69.8487 100.249 69.1585 100.158L67.3478 99.8522C66.3882 99.6901 65.4285 99.51 64.4327 99.402C62.9954 99.2471 61.5509 99.1689 60.1052 99.1679H59.1456C57.459 99.239 55.7814 99.4499 54.13 99.7982C52.3344 100.084 50.5155 100.198 48.6981 100.14H48.1911H43.8636C43.0851 100.14 42.6686 99.9602 42.397 100.608C41.5098 102.751 44.8052 102.085 46.0183 102.103H49.1507C50.9688 102.158 52.788 102.038 54.5827 101.743C56.2812 101.388 58.0081 101.183 59.7431 101.131H60.2139C61.8122 101.13 63.4089 101.232 64.994 101.437C65.682 101.437 66.352 101.635 67.04 101.761C68.0557 101.97 69.0839 102.115 70.1181 102.193C70.4803 102.193 70.8605 102.193 71.2226 102.193C72.1823 102.193 73.16 102.193 74.1197 102.067C75.0793 101.941 75.532 102.067 76.2382 101.959H77.0167C77.7213 101.944 78.4255 102.005 79.1171 102.139L80.0586 102.391C80.6494 102.576 81.2552 102.708 81.8693 102.787C82.2676 102.787 82.6479 102.787 83.0462 102.787H84.0964H114.407H117.322H120.291C121.414 102.787 122.555 102.787 123.714 102.787C125.687 102.679 129.001 102.517 130.051 100.14C130.256 99.7514 130.356 99.3158 130.34 98.8768C130.324 98.4377 130.193 98.0104 129.96 97.6372C129.127 96.5028 126.991 95.9085 123.279 95.9085ZM14.6396 14.4243C15.5088 14.5864 16.4503 14.7124 17.2651 14.8205L18.7861 15.0185C20.6735 15.3043 22.5805 15.4428 24.4896 15.4327H36.3132H38.2144H40.0251C40.695 15.4327 41.3649 15.4327 42.0167 15.4327C42.9141 15.5423 43.7992 15.7352 44.6603 16.0089C45.5012 16.2665 46.3608 16.4591 47.2314 16.5852C48.7081 16.7773 50.1965 16.8675 51.6857 16.8553H52.8626C53.8222 16.8553 54.7819 16.8553 55.7234 16.8553H58.3126H59.8517H63.8352H64.831C66.6417 16.8553 68.4523 16.8553 70.263 16.8553C72.0736 16.8553 73.7214 16.8553 75.2242 16.7293C77.0456 16.624 78.8593 16.4136 80.6562 16.099L81.2537 15.9909C82.606 15.7023 83.9815 15.5335 85.3638 15.4867H85.7803C86.6503 15.541 87.5154 15.6554 88.3695 15.8289C89.1481 15.9729 89.9448 16.117 90.7777 16.189C91.1761 16.189 91.5744 16.189 91.9728 16.189C92.6789 16.189 93.4032 16.189 94.1093 16.189C94.8155 16.189 95.4673 16.189 96.1554 16.189H102.076C102.951 16.2319 103.822 16.3342 104.684 16.4951C105.534 16.6447 106.393 16.7469 107.255 16.8013C108.196 16.8013 109.156 16.8013 110.116 16.8013C111.119 16.8035 112.122 16.7554 113.121 16.6572C113.719 16.6572 114.298 16.4771 114.932 16.3871L115.801 16.243C116.791 16.102 117.789 16.0238 118.789 16.0089C119.676 16.0089 120.599 16.009 121.45 15.8829L122.844 15.7028L123.786 15.5587H124.492C125.473 15.5312 126.44 15.3109 127.335 14.9105C127.662 14.7513 127.953 14.5269 128.19 14.2512C128.427 13.9755 128.604 13.6544 128.711 13.3078C128.796 13.0065 128.817 12.691 128.774 12.3811C128.73 12.0712 128.622 11.7736 128.457 11.507C127.723 10.4963 126.728 9.70033 125.579 9.20208C123.608 8.20212 121.416 7.71282 119.205 7.77949C118.206 7.78568 117.208 7.85183 116.217 7.97758C115.33 8.10363 114.407 8.2837 113.538 8.44577C112.669 8.60783 111.546 8.84193 110.532 8.94998C108.728 9.14505 106.914 9.23526 105.1 9.2201H61.4632H51.3778C49.5497 9.17386 47.7305 8.9507 45.9459 8.55381C45.2044 8.40646 44.4547 8.30423 43.7007 8.24768C42.7346 8.17951 41.7769 8.02279 40.8398 7.77949C40.2423 7.61743 39.681 7.41933 39.0292 7.20324C37.8883 6.76121 36.7054 6.43542 35.4984 6.23084C34.7855 6.12289 34.0648 6.0747 33.3437 6.08678H31.5331H29.9397C29.2698 6.08678 28.9438 6.64501 28.9076 7.23926C28.8171 8.40975 30.8812 8.12162 31.5874 8.10362C32.2936 8.08561 32.71 8.10362 33.2713 8.10362C33.968 8.09969 34.6641 8.14785 35.3535 8.24768C36.336 8.44644 37.2993 8.72962 38.2325 9.09404C38.9386 9.34614 39.6267 9.59825 40.351 9.79633C41.3347 10.0212 42.333 10.1777 43.3385 10.2645C44.0628 10.2645 44.7871 10.4086 45.5113 10.5526C47.201 10.9354 48.9222 11.1644 50.6536 11.2369H54.13H103.271C105.299 11.2369 106.893 11.237 108.413 11.1109C110.189 10.9832 111.954 10.7486 113.701 10.4086C115.329 10.0279 116.99 9.80474 118.662 9.74231H118.952C121.575 9.61634 124.154 10.4561 126.194 12.1013C126.665 12.5695 126.538 12.7496 126.484 12.8036C126.204 13.0894 125.832 13.268 125.434 13.3078C124.972 13.3884 124.507 13.4426 124.039 13.4699H123.804C123.388 13.4699 122.971 13.5779 122.555 13.632L121.74 13.758C120.816 13.866 119.929 13.9021 118.952 13.9201C117.974 13.9381 117.141 13.9201 116.344 14.0641C115.547 14.2082 115.077 14.2442 114.534 14.3522L113.882 14.4603C112.958 14.5945 112.027 14.6727 111.093 14.6944H109.192C108.011 14.7075 106.831 14.6353 105.661 14.4783L104.919 14.3522C104.376 14.2622 103.833 14.1722 103.307 14.1182C102.652 14.0526 101.993 14.0226 101.334 14.0281H94.8336H93.3308H91.7374C91.0759 14.0355 90.4151 13.9813 89.7638 13.8661C88.2444 13.5469 86.6989 13.3661 85.1466 13.3258H84.712C83.4943 13.3963 82.2837 13.5589 81.0907 13.812L79.8775 14.0281C76.7637 14.5145 73.6139 14.7374 70.4622 14.6944C68.8145 14.6944 67.1667 14.6944 65.5009 14.6944C63.8351 14.6944 62.1694 14.6944 60.5036 14.6944H58.0954L55.6329 14.7844C54.3111 14.7844 52.9893 14.8925 51.6676 14.8925C50.2811 14.9091 48.8953 14.8248 47.5211 14.6404C46.7369 14.5226 45.9622 14.3481 45.2035 14.1182C44.3049 13.8381 43.3843 13.6333 42.4513 13.5059C41.7297 13.4294 41.0042 13.3933 40.2785 13.3978H38.4679H36.6572H24.7793C23.0052 13.4233 21.2317 13.315 19.4741 13.0737L17.6635 12.8396C16.8487 12.7496 16.0519 12.6415 15.2553 12.5155C14.3584 12.4203 13.4933 12.1315 12.7204 11.6691C12.5574 11.5431 12.4307 11.363 12.2858 11.2549C12.141 11.1469 11.9418 11.2549 11.7607 11.2549C11.5777 11.2805 11.4081 11.3646 11.2774 11.4946C11.1468 11.6245 11.0622 11.7933 11.0365 11.9753C10.937 12.2549 10.937 12.56 11.0365 12.8396C11.1469 12.9552 11.2753 13.0525 11.4167 13.1277C11.5921 13.2701 11.78 13.3966 11.978 13.5059C12.805 13.9631 13.7056 14.2738 14.6396 14.4243ZM149.715 5.11438C150.352 5.09392 150.989 5.14223 151.616 5.25845L152.412 5.4565C152.937 5.59814 153.469 5.71235 154.006 5.79865H155.02C156.098 5.77003 157.172 5.63735 158.225 5.40248L159.239 5.2044C159.835 5.08779 160.441 5.02751 161.049 5.02434H161.81C161.994 5.01745 162.173 4.96164 162.328 4.86272C162.483 4.76379 162.609 4.62534 162.692 4.46177C162.775 4.2982 162.813 4.11549 162.801 3.93258C162.789 3.74967 162.728 3.57326 162.625 3.42167C162.299 2.97148 161.466 2.98948 160.977 2.98948C159.922 3.01806 158.873 3.15076 157.844 3.38564L156.667 3.60173C156.141 3.68863 155.608 3.73678 155.074 3.74579C154.734 3.75162 154.394 3.72143 154.06 3.65575C153.682 3.59082 153.307 3.50668 152.938 3.40364C152.521 3.2956 152.123 3.18757 151.706 3.11554C151.107 3.02793 150.501 2.99178 149.896 3.0075H148.954C148.141 2.99113 147.329 2.91286 146.528 2.77339H146.22C144.527 2.55091 142.821 2.4426 141.114 2.44924H140.553C138.978 2.38333 137.416 2.13558 135.899 1.71095C134.319 1.35881 132.702 1.20154 131.083 1.24274H112.94C111.432 1.21694 109.926 1.10269 108.432 0.900591L107.472 0.79255H106.603C105.993 0.777432 105.386 0.698993 104.792 0.558471L104.448 0.450402C103.757 0.193617 103.03 0.0418518 102.293 0.00021316H102.076H100.863C100.501 0.00021316 100.121 0.00021316 99.7404 0.00021316H97.278H95.8113C95.0871 0.00021316 94.3447 0.00021316 93.6204 0.00021316C92.7131 -0.00362906 91.8062 0.0444739 90.9044 0.144277C90.378 0.221941 89.8577 0.336275 89.3473 0.486425C89.0757 0.486425 88.8041 0.648484 88.5144 0.702507C88.1923 0.764369 87.8647 0.794532 87.5366 0.79255H86.6313H85.6717C84.792 0.817761 83.9176 0.938523 83.0643 1.1527C82.2955 1.35362 81.5053 1.46245 80.7105 1.47685H79.2257C78.7768 1.47327 78.3284 1.50942 77.8859 1.58489C77.0027 1.78101 76.1075 1.91936 75.2061 1.99905C74.3551 1.99905 73.5041 1.99905 72.6712 1.99905H72.1642C71.3313 1.99905 70.4984 1.99905 69.6655 1.99905C68.8326 1.99905 67.7643 2.16114 66.8046 2.26918C65.845 2.37723 64.994 2.46727 64.143 2.52129C63.2919 2.57531 62.3323 2.52129 61.4632 2.52129H59.5077H54.637C53.9804 2.50638 53.3242 2.56679 52.6815 2.70135L51.921 2.88143C51.0157 3.11553 48.8611 3.15155 49.0783 4.68219C49.0783 5.34847 49.8569 5.2044 50.3277 5.2044C51.0521 5.17254 51.7697 5.05157 52.4643 4.84425H52.772C53.4431 4.69353 54.1304 4.62698 54.8181 4.64617H55.4518C57.3711 4.64617 59.3085 4.64617 61.3365 4.64617C63.2481 4.63786 65.1579 4.52968 67.0581 4.32204C68.9213 4.1089 70.7957 4.00667 72.6712 4.01592C74.426 4.06112 76.1806 3.91619 77.9039 3.58373C78.4108 3.48421 78.9264 3.43594 79.443 3.43966H80.8734C81.6983 3.42865 82.5189 3.31985 83.3178 3.11554C84.1162 2.90342 84.9363 2.78257 85.7622 2.75537H86.5227H87.5728H88.5144C88.9729 2.67296 89.4263 2.56476 89.8724 2.43125C90.2639 2.3137 90.6633 2.22345 91.0674 2.16114C91.8001 2.07083 92.5384 2.03469 93.2764 2.05307H94.055H96.9701C97.8936 2.05307 98.7808 2.05307 99.7586 2.05307H100.972H102.058H102.33C102.819 2.098 103.3 2.20701 103.76 2.37722L104.611 2.62933C105.207 2.75335 105.813 2.82564 106.422 2.84541H107.237L108.54 3.0075L110.079 3.20556C111.22 3.3136 112.379 3.33162 113.266 3.33162H115.837H127.679H129.49H131.3C131.952 3.33162 132.586 3.33162 133.219 3.33162C134.174 3.44282 135.119 3.62949 136.044 3.88985C136.732 4.05192 137.402 4.21399 138.108 4.34004C139.241 4.50314 140.386 4.56941 141.53 4.53813C142.182 4.53813 142.816 4.53813 143.45 4.53813C144.083 4.53813 144.934 4.70019 145.659 4.79023C146.737 4.96083 147.826 5.0571 148.918 5.07836L149.715 5.11438ZM208.126 47.7563H210.19H216.51C217.813 47.7563 219.099 47.7563 220.403 47.7563C221.706 47.7563 223.336 47.9544 224.766 48.1164C226.497 48.3279 228.238 48.4481 229.981 48.4766H230.253H234.308C236.3 48.4766 238.31 48.3866 240.32 48.3866H250.912C252.487 48.3866 254.063 48.3866 255.638 48.3866C256.29 48.3866 256.96 48.3866 257.63 48.3866C258.538 48.3968 259.446 48.3366 260.346 48.2065L261.667 47.9904C262.657 47.7897 263.663 47.6752 264.673 47.6482H265.777C266.349 47.669 266.917 47.5645 267.443 47.3421C267.911 47.115 268.288 46.7366 268.512 46.2688C268.736 45.801 268.793 45.2715 268.675 44.767L268.53 44.0647L267.932 43.9027C267.189 43.7022 266.421 43.6112 265.651 43.6326C265.035 43.6326 264.401 43.6325 263.84 43.7226H262.88H262.446C261.443 43.6919 260.444 43.5836 259.458 43.3985C258.77 43.2724 258.082 43.1644 257.394 43.0923H256.779C254.769 42.9123 252.686 42.7142 250.659 42.39L249.753 42.246C249.156 42.1379 248.558 42.0299 247.943 41.9759C247.327 41.9218 246.838 41.9759 246.277 41.9759H243.977C243.233 41.965 242.489 42.0071 241.75 42.1019C241.334 42.1019 240.935 42.246 240.519 42.318C240.102 42.39 239.324 42.5521 238.708 42.6061C238.093 42.6601 237.006 42.6061 236.155 42.6061H235.087C234.096 42.615 233.114 42.4123 232.208 42.0119H232.461H233.294C233.499 42.0292 233.705 42.0292 233.91 42.0119C234.345 41.9375 234.774 41.8352 235.196 41.7057C235.614 41.571 236.045 41.4746 236.481 41.4176C236.879 41.3907 237.278 41.3907 237.676 41.4176H239.07H240.555C241.352 41.4176 242.167 41.4176 242.981 41.4176C243.835 41.4239 244.688 41.3698 245.534 41.2556C246.367 41.1295 247.2 41.0575 248.033 40.9674C249.248 40.8792 250.457 40.7229 251.654 40.4992C252.48 40.3546 253.315 40.2763 254.153 40.2651C255.244 40.269 256.331 40.1482 257.394 39.905C258.327 39.6139 259.296 39.4563 260.273 39.4368H261.468H263.822H270.467C272.522 39.4394 274.575 39.2828 276.605 38.9686C277.703 38.8155 278.81 38.7433 279.919 38.7525H286.238H288.863H289.787C291.036 38.7274 292.282 38.6191 293.517 38.4284C294.404 38.3203 295.327 38.1943 296.178 38.1402C297.029 38.0862 297.808 38.1402 298.623 38.1402H309.487C309.976 38.1402 310.464 38.1402 310.971 38.1402C311.529 38.218 312.092 38.2601 312.655 38.2663H313.144C313.481 38.2772 313.817 38.2171 314.129 38.0899C314.441 37.9626 314.723 37.7712 314.955 37.528C315.122 37.3338 315.245 37.1065 315.317 36.8613C315.389 36.616 315.407 36.3583 315.371 36.1054C315.208 34.7008 313.814 33.7824 313.072 33.2782C311.929 32.4976 310.611 32.009 309.233 31.8556C308.636 31.8556 308.038 31.8556 307.423 31.8556C306.807 31.8556 306.608 31.8556 306.191 31.8556C305.286 31.8556 304.381 31.7115 303.493 31.6035H302.842C300.669 31.3694 298.496 31.3514 296.378 31.3334H292.068C289.968 31.3334 287.849 31.3334 285.731 31.3334H282.816C280.8 31.3388 278.787 31.4651 276.786 31.7115C274.563 31.9687 272.324 32.071 270.087 32.0177C268.91 32.0177 267.733 32.0177 266.466 32.0177H263.713H263.424C261.427 31.9754 259.436 31.7889 257.467 31.4594C256.211 31.3033 254.947 31.2311 253.682 31.2433H251.093C250.046 31.2692 249.004 31.3897 247.979 31.6035C247.083 31.7795 246.175 31.8879 245.263 31.9276H244.701C243.072 31.9276 241.442 31.9276 239.813 31.7836C238.183 31.6395 236.481 31.6395 234.833 31.6395H232.643C231.606 31.6989 230.577 31.8434 229.564 32.0717C228.545 32.2898 227.51 32.4223 226.468 32.4678H222.847H220.022H213.25H211.15H208.995H207.637C206.628 32.4921 205.628 32.662 204.668 32.9721C203.998 33.2062 202.857 33.5843 202.568 34.2686C202.523 34.3708 202.5 34.4812 202.5 34.5928C202.5 34.7043 202.523 34.8146 202.568 34.9169C202.593 35.1264 202.66 35.3286 202.767 35.5111C202.931 35.6427 203.135 35.7144 203.346 35.7144C203.557 35.7144 203.761 35.6427 203.926 35.5111C204.383 35.192 204.883 34.9375 205.41 34.7548C206.434 34.4619 207.496 34.3283 208.561 34.3587C209.285 34.3587 210.009 34.3587 210.716 34.3587C211.422 34.3587 212.11 34.3587 212.762 34.3587H218.791H224.223H225.853C227.15 34.3808 228.446 34.2417 229.709 33.9445C231.198 33.5997 232.726 33.4484 234.254 33.4943H234.815C235.938 33.4943 237.042 33.4943 238.147 33.6023H240.392C240.899 33.6023 241.406 33.6023 241.913 33.6023H244.539H245.752C246.593 33.5494 247.429 33.4289 248.25 33.2422C249.084 33.0569 249.932 32.9484 250.785 32.918H253.9C254.66 32.918 255.421 32.918 256.181 33.0081C256.941 33.0981 257.611 33.1882 258.318 33.2962C259.371 33.4814 260.436 33.6017 261.504 33.6564C262.029 33.6564 262.573 33.6564 263.098 33.6564C264.13 33.6564 265.144 33.6564 266.158 33.6564H266.882C268.258 33.6564 269.634 33.6564 271.01 33.6564H272.64C274.283 33.6206 275.921 33.4822 277.547 33.2422H277.818C279.735 33.0127 281.664 32.9104 283.594 32.9361H286.763H288.99H294.766H297.627C298.55 32.9361 299.438 32.9361 300.433 32.9361C301.429 32.9361 302.244 33.0801 303.077 33.1882C303.91 33.2962 304.888 33.3862 305.811 33.4403H307.187C308.419 33.3647 309.653 33.5488 310.809 33.9805C311.63 34.3375 312.37 34.8584 312.981 35.5111C313.126 35.6912 313.217 35.8713 313.289 35.8893C313.163 35.9051 313.035 35.9051 312.909 35.8893H312.402H310.971C310.211 35.8893 309.451 35.7813 308.618 35.7813H297.174C295.961 35.8055 294.751 35.9138 293.553 36.1054C293.01 36.1954 292.449 36.2675 291.887 36.3215C291.326 36.3755 290.276 36.4295 289.225 36.4295H280.625C278.886 36.3939 277.147 36.5084 275.428 36.7717C273.57 37.0343 271.692 37.1367 269.815 37.0778H264.003H262.392C261.776 37.0778 261.142 37.0778 260.581 37.0778C259.939 37.0694 259.297 37.1115 258.662 37.2038C258.239 37.2865 257.822 37.3947 257.412 37.528C257.033 37.6455 256.646 37.7358 256.254 37.7981C255.724 37.855 255.192 37.8851 254.66 37.8881C254.298 37.8881 253.918 37.8881 253.574 37.8881C252.693 37.9544 251.816 38.0686 250.948 38.2303C250.097 38.3563 249.301 38.4824 248.486 38.5364C247.671 38.5904 247.019 38.6805 246.295 38.7705C245.299 38.9184 244.295 39.0026 243.289 39.0226H240.501H238.056H237.694C237.016 39.0178 236.337 39.0659 235.666 39.1667C235.285 39.2412 234.91 39.3435 234.544 39.4728C234.146 39.614 233.733 39.7048 233.312 39.7429C233.102 39.7596 232.89 39.7596 232.679 39.7429C232.371 39.7251 232.063 39.7251 231.755 39.7429C231.187 39.7191 230.628 39.8979 230.18 40.2471C229.998 40.3903 229.849 40.5704 229.743 40.7753C229.637 40.9803 229.576 41.2054 229.564 41.4356C229.601 41.7663 229.711 42.0848 229.886 42.3682C230.062 42.6515 230.298 42.8927 230.578 43.0743C231.505 43.7364 232.593 44.1405 233.729 44.2448C234.61 44.3706 235.5 44.4308 236.391 44.4249C237.843 44.4209 239.292 44.2823 240.718 44.0107C242.483 43.7228 244.271 43.5963 246.059 43.6326C247.39 43.6654 248.716 43.8039 250.025 44.0467L251.437 44.2628C253.012 44.4789 254.696 44.659 256.742 44.8391C257.467 44.8391 258.173 45.0191 258.897 45.1452C259.908 45.3376 260.93 45.4639 261.957 45.5233H262.265H261.939C260.357 45.8218 258.751 45.9785 257.141 45.9915H256.543C252.922 45.9015 249.301 45.9015 245.824 45.8835H238.582C236.934 45.8835 235.304 45.8835 233.675 45.8835H232.751C231.719 45.8835 230.705 45.9735 229.673 45.9735H228.243C227.26 45.924 226.281 45.8219 225.309 45.6674C224.476 45.5594 223.662 45.4513 222.847 45.3973C221.235 45.2712 219.515 45.2172 217.306 45.2172H214.138H211.404H209.846H208.217C207.43 45.2083 206.644 45.2505 205.863 45.3433C205.265 45.3433 204.668 45.5233 204.052 45.6134C202.924 45.8309 201.779 45.9514 200.63 45.9735C196.429 45.9735 192.211 45.9735 187.956 45.9735C184.588 45.9735 181.238 45.9735 177.87 45.9735C176.054 45.9722 174.24 45.8579 172.438 45.6314L171.768 45.5233C171.128 45.4118 170.481 45.3396 169.831 45.3073H169.577H168.473H167.043C164.769 45.1367 162.522 44.7139 160.343 44.0467C159.148 43.7406 157.899 43.3984 156.722 43.1643C155.836 43.0116 154.94 42.9273 154.042 42.9122C153.284 42.9089 152.528 42.8487 151.779 42.7322C150.858 42.5706 149.959 42.3047 149.099 41.9398C148.72 41.7972 148.379 41.5692 148.103 41.2736C148.349 41.2415 148.599 41.2415 148.845 41.2736H150.185H150.928L152.376 41.0214L153.191 40.8594C154.163 40.7274 155.144 40.6733 156.124 40.6973H158.207C159.383 40.6973 160.56 40.6973 161.737 40.7874C162.57 40.7874 163.385 40.9494 164.218 41.0575C165.051 41.1655 166.173 41.3276 167.169 41.3816C168.165 41.4356 168.781 41.5257 169.596 41.6337C170.41 41.7418 171.497 41.8858 172.511 41.9218H185.095C186.386 42.0848 187.689 42.127 188.988 42.0479C190.405 41.806 191.841 41.6975 193.279 41.7238H199.852C200.67 41.6945 201.483 41.5798 202.278 41.3816C202.936 41.2177 203.61 41.1212 204.288 41.0935H204.632C204.845 41.0667 205.047 40.9814 205.215 40.847C205.382 40.7126 205.509 40.5345 205.58 40.3326C205.651 40.1306 205.665 39.9129 205.619 39.7038C205.573 39.4947 205.469 39.3025 205.32 39.1487C205.198 39.078 205.063 39.0321 204.923 39.0136C204.783 38.995 204.641 39.0042 204.505 39.0406C203.666 39.1152 202.832 39.2354 202.006 39.4008C201.413 39.5531 200.807 39.6496 200.196 39.6889H193.768H192.337C191.617 39.68 190.897 39.7221 190.183 39.8149L188.77 40.013C187.744 40.2136 186.702 40.3221 185.656 40.3372H182.56H173.38C172.509 40.3444 171.638 40.3023 170.772 40.2111C170.428 40.2111 170.084 40.1031 169.758 40.049L168.455 39.851H167.151H166.029C165.34 39.851 164.671 39.7069 163.983 39.5989C163.294 39.4908 162.172 39.3468 161.158 39.2927C160.144 39.2387 159.202 39.2927 158.225 39.2927H156.016C154.544 39.3053 153.077 39.456 151.634 39.7429C150.921 39.8542 150.2 39.9024 149.479 39.887H148.52C148.066 39.8552 147.613 39.9517 147.213 40.1652C146.812 40.3787 146.481 40.7005 146.256 41.0935C146.087 41.5275 146.06 42.0038 146.181 42.4536C146.301 42.9035 146.562 43.3037 146.926 43.5965C148.329 44.6108 149.98 45.2326 151.706 45.3973C152.36 45.4912 153.02 45.5274 153.68 45.5053V44.605L153.915 45.5053C154.841 45.5217 155.763 45.6303 156.667 45.8295C157.718 46.0636 158.75 46.3157 159.8 46.5858L161.393 47C162.789 47.3598 164.203 47.6424 165.63 47.8463C166.189 47.9122 166.751 47.9423 167.314 47.9364H169.378H170.483L172.565 48.1885C173.47 48.3145 174.376 48.4406 175.281 48.4946C176.874 48.4946 178.504 48.4946 179.934 48.4946H190.545C193.913 48.4946 197.262 48.4946 200.63 48.5846H200.902C202.345 48.5541 203.782 48.3852 205.193 48.0804C206.158 47.8794 207.14 47.7708 208.126 47.7563ZM322.831 105.074C322.252 104.48 320.695 104.822 319.97 104.822H286.926C284.804 104.826 282.685 104.994 280.589 105.326L279.973 105.435C277.998 105.79 276.002 106.024 273.998 106.137H272.278C271.047 106.137 269.815 106.137 268.656 106.137H267.244H264.746C263.369 106.137 261.993 106.137 260.617 106.029C259.513 106.029 258.408 105.849 257.304 105.741C256.199 105.633 255.077 105.507 253.954 105.453C253.248 105.453 252.542 105.453 251.836 105.453C250.767 105.453 249.699 105.453 248.613 105.453H247.182H245.263C243.778 105.453 242.311 105.453 240.682 105.453H240.41C238.799 105.453 237.169 105.453 235.558 105.453C232.797 105.423 230.038 105.591 227.301 105.957C226.277 106.117 225.242 106.202 224.205 106.209H222.557C221.952 106.205 221.347 106.241 220.747 106.317C220.276 106.317 219.823 106.461 219.352 106.551C218.882 106.641 218.139 106.785 217.542 106.839H216.962C216.119 106.824 215.28 106.709 214.464 106.497L213.468 106.245C212.78 106.065 212.092 105.885 211.385 105.759L210.661 105.651L209.358 105.417C208.452 105.2 206.913 104.714 206.931 103.814C206.931 103.58 207.221 103.22 208.561 102.823C209.63 102.539 210.719 102.341 211.82 102.229L212.762 102.121C214.029 101.959 215.278 101.797 216.546 101.707H217.596C219.513 101.613 221.423 101.415 223.318 101.113C224.643 100.873 225.99 100.764 227.337 100.789C228.116 100.789 228.876 100.789 229.655 100.789C231.792 100.789 233.928 100.915 236.191 100.915H243.289C244.575 100.915 245.878 100.915 247.164 100.915H250.061H250.514C252.472 100.908 254.428 100.751 256.362 100.446C256.793 100.376 257.229 100.34 257.666 100.338C258.225 100.342 258.782 100.396 259.332 100.5C259.803 100.589 260.282 100.632 260.762 100.626C261.272 100.629 261.781 100.587 262.283 100.5L262.935 100.41C263.687 100.26 264.45 100.17 265.216 100.14H265.578H267.244H268.675H268.856C269.862 100.149 270.865 100.034 271.843 99.7982C272.212 99.7196 272.588 99.6774 272.966 99.6721C273.479 99.6507 273.988 99.5783 274.487 99.456C274.923 99.337 275.329 99.1301 275.681 98.8482C276.033 98.5663 276.323 98.2154 276.533 97.8173C276.665 97.5355 276.734 97.2281 276.734 96.9169C276.734 96.6058 276.665 96.2984 276.533 96.0166C276.226 95.5616 275.818 95.1823 275.341 94.9077C274.864 94.6331 274.33 94.4703 273.781 94.4319L273.129 94.2698L271.879 93.8737H272.893C273.781 93.8737 274.704 93.9637 275.519 93.9637H282.472H284.282C284.808 93.9637 285.351 93.9637 285.876 93.9637C286.522 93.9099 287.164 93.8076 287.795 93.6576L288.7 93.4775C289.365 93.3724 290.037 93.3242 290.71 93.3334H293.806H302.679C303.638 93.3334 304.58 93.3334 305.54 93.4775C306.499 93.6215 307.549 93.6216 308.545 93.6216C309.088 93.6216 309.632 93.6216 310.193 93.6216C311.313 93.6324 312.392 93.2056 313.199 92.433C313.543 92.0189 313.506 90.8664 312.945 90.6323C312.076 90.2541 311.949 90.9024 311.46 91.2986C310.971 91.6948 309.903 91.6407 309.288 91.6587H308.491C307.404 91.6587 306.318 91.6587 305.123 91.4967C303.566 91.3886 301.918 91.3346 299.691 91.3346H290.203C289.134 91.3757 288.072 91.5266 287.035 91.7848C286.009 91.982 284.965 92.0725 283.92 92.0549H282.11H280.462H276.261H273.907H273.545C273.111 92.0549 272.694 92.0549 272.26 92.0549C271.97 92.037 271.68 92.037 271.391 92.0549C270.123 92.199 269.326 92.5951 269.037 93.2614C268.957 93.4367 268.915 93.6271 268.915 93.8196C268.915 94.0122 268.957 94.2025 269.037 94.3779C269.345 95.0621 270.141 95.5664 271.68 96.0706L273.364 96.5748L273.817 96.6828C274.142 96.7237 274.456 96.8277 274.74 96.989C274.617 97.2293 274.421 97.4247 274.179 97.5472C273.768 97.7225 273.322 97.8025 272.875 97.7813C272.58 97.762 272.284 97.762 271.988 97.7813C271.707 97.8222 271.428 97.8823 271.155 97.9614C270.994 98.006 270.831 98.042 270.666 98.0694C270.159 98.1598 269.643 98.1961 269.127 98.1775H268.928H267.335H265.433C264.602 98.1993 263.773 98.2775 262.953 98.4116C262.206 98.5491 261.449 98.6274 260.69 98.6457C260.307 98.6489 259.924 98.6127 259.549 98.5376C259.013 98.4275 258.467 98.3732 257.919 98.3755C257.009 98.4013 256.101 98.4916 255.203 98.6457C254.588 98.7357 253.972 98.8257 253.393 98.8798C252.813 98.9338 251.727 98.8798 250.894 98.8798C250.061 98.8798 248.703 98.8798 247.617 98.8798H246.729C245.335 98.8798 243.941 98.8798 242.547 98.8798H235.467C234.562 98.8798 233.656 98.8798 232.715 98.8798H230.597C229.492 98.8798 228.406 98.8798 227.319 98.8798H226.233C224.946 98.9337 223.663 99.0721 222.394 99.2939C221.435 99.438 220.493 99.564 219.533 99.6361L217.723 99.7801C216.129 99.8702 214.5 99.9782 212.888 100.212L211.512 100.392C209.742 100.475 208.012 100.942 206.442 101.761C205.935 102.029 205.533 102.459 205.3 102.981C205.067 103.503 205.017 104.088 205.157 104.642C205.427 105.371 205.891 106.013 206.501 106.498C207.11 106.984 207.841 107.294 208.615 107.397C209.312 107.578 210.02 107.717 210.734 107.812C211.621 107.956 212.544 108.19 213.522 108.442C214.549 108.739 215.605 108.926 216.673 109H217.035C217.978 108.973 218.917 108.865 219.841 108.676C220.919 108.455 222.018 108.346 223.119 108.352H224.784C225.444 108.357 226.103 108.321 226.758 108.244C228.917 107.915 231.094 107.705 233.276 107.613H235.703C237.296 107.613 238.871 107.613 240.446 107.613C242.022 107.613 243.633 107.613 245.227 107.613H246.82H248.92C249.989 107.613 251.039 107.613 252.107 107.613H253.556C254.751 107.613 256 107.776 257.177 107.902C258.354 108.028 259.187 108.118 260.201 108.172C261.776 108.28 263.333 108.298 264.908 108.316H266.973H268.783C269.96 108.316 271.155 108.316 272.405 108.316H274.016C276.098 108.202 278.172 107.968 280.227 107.613C282.386 107.217 284.57 106.97 286.763 106.875H293.643H308.129H315.172H322.107C322.886 106.875 323.103 106.335 322.958 105.579C322.971 105.401 322.927 105.225 322.831 105.074Z" fill="#E13A4B"/>
<path d="M134.592 326.296C135.823 325.026 137.154 323.857 138.571 322.8C139.545 322.021 140.565 321.302 141.625 320.645C142.822 319.798 143.937 318.841 144.955 317.785C147.138 315.745 149.001 313.388 150.482 310.793C151.96 308.03 153.245 305.032 154.82 302.241C155.94 299.824 157.38 297.57 159.103 295.539C161.038 293.605 163.152 291.892 165.045 289.916C167.026 287.895 168.66 285.561 169.881 283.007C170.544 281.626 171.262 280.244 172.105 278.862C172.799 277.472 173.345 276.013 173.736 274.51C174.205 273.128 174.938 271.857 175.435 270.489C175.837 269.166 176.156 267.818 176.389 266.454C177.24 263.922 178.47 261.532 180.036 259.366C181.466 256.637 182.632 253.778 183.518 250.827C184.139 249.415 184.688 247.971 185.162 246.503C185.423 244.974 185.371 243.409 185.01 241.902C184.548 239.386 184.464 236.815 184.762 234.275C184.941 232.893 185.121 231.511 185.328 230.129C185.411 229.494 185.577 228.9 185.701 228.278C185.86 227.413 185.916 226.531 185.867 225.653C185.867 222.558 185.867 219.477 186.005 216.382C186.163 214.825 186.069 213.253 185.729 211.725C185.529 211.175 185.39 210.606 185.314 210.026C185.314 209.266 185.411 208.52 185.314 207.76C185.149 204.554 183.491 201.542 181.943 198.82C181.221 197.731 180.706 196.517 180.423 195.241C180.174 193.763 179.87 192.285 179.608 190.806C179.345 189.328 179.152 187.905 178.862 186.481C178.613 185.293 178.047 184.215 177.895 183C177.784 181.561 177.756 180.117 177.812 178.675C177.812 177.086 177.812 175.497 177.812 173.908C177.83 172.548 177.973 171.193 178.24 169.86C178.381 168.638 178.707 167.446 179.207 166.322C179.683 165.209 180.311 164.168 181.073 163.227C181.904 162.313 182.785 161.446 183.712 160.63C184.286 160.168 184.75 159.583 185.068 158.918C185.386 158.254 185.55 157.526 185.549 156.789C185.557 155.332 185.418 153.879 185.135 152.45C184.589 149.631 184.298 146.769 184.264 143.897C184.264 141.894 184.347 139.186 186.447 138.15C187.166 137.79 187.746 138.15 188.409 138.481C189.791 139.158 191.449 138.923 192.941 139.421C194.165 139.738 195.406 139.987 196.658 140.167C198.04 140.443 199.422 140.554 200.803 140.858C202.185 141.162 203.567 141.783 204.948 142.239C206.33 142.695 207.712 143.068 209.093 143.552C210.383 144.044 211.642 144.612 212.866 145.251C214.249 145.913 215.675 146.48 217.135 146.951C218.5 147.482 219.917 147.867 221.363 148.098C222.667 148.236 223.983 148.236 225.287 148.098C227.772 147.649 230.311 147.579 232.817 147.891C235.581 148.457 237.957 150.405 240.251 151.925C241.494 152.74 242.724 153.611 244.037 154.302C245.349 154.992 246.538 155.131 247.684 155.808C248.831 156.485 249.812 157.383 250.973 158.018C252.133 158.654 253.377 159.29 254.565 160.008C255.955 160.815 257.434 161.455 258.973 161.915C260.355 162.343 261.64 162.868 263.008 163.297C263.771 163.51 264.553 163.649 265.343 163.711C265.99 163.716 266.636 163.762 267.277 163.849C267.756 163.99 268.219 164.18 268.659 164.416C269.488 164.772 270.381 164.956 271.284 164.955C273.964 165.065 276.355 164.955 278.648 166.502C279.182 166.891 279.768 167.203 280.389 167.428C280.933 167.571 281.464 167.755 281.978 167.98C282.906 168.494 283.772 169.111 284.562 169.818C285.384 170.541 286.109 171.368 286.718 172.278C287.518 173.47 288.625 174.425 289.923 175.041C291.153 175.649 292.383 176.202 293.557 176.92C294.731 177.639 295.975 178.495 297.205 179.255C299.719 180.83 302.248 182.419 304.832 183.87C306.048 184.561 307.305 185.169 308.479 185.901C309.654 186.633 310.497 188.029 311.768 187.849C311.892 187.849 311.947 188.029 311.768 188.043C311.431 188.092 311.086 188.057 310.766 187.941C310.445 187.826 310.158 187.633 309.93 187.38L309.585 187.076C310.165 187.739 310.649 188.457 311.27 189.148C312.074 189.826 312.955 190.406 313.896 190.875C315.802 192.105 315.747 194.509 315.692 196.54C315.623 199.704 315.692 202.868 315.692 206.033C315.692 209.197 315.623 212.54 315.83 215.801C316.037 219.062 316.079 222.24 316.59 225.39C316.825 226.772 317.087 228.154 317.226 229.632C317.364 231.111 317.295 232.782 317.226 234.371C317.226 237.632 317.226 240.879 317.226 244.14C317.191 245.783 317.274 247.427 317.474 249.059C317.695 250.551 317.986 252.03 318.207 253.508C318.635 256.561 318.566 259.615 318.897 262.669C319.229 265.722 320.279 268.955 320.804 272.133C321.305 275.074 321.587 278.049 321.647 281.031C321.647 287.304 321.205 293.633 321.647 299.892C322.089 306.151 323.457 312.051 323.236 318.199C323.099 322.316 322.267 326.38 320.777 330.22C319.395 333.467 317.143 336.217 313.329 335.747C311.861 335.499 310.38 335.333 308.894 335.249C307.346 335.249 305.813 334.987 304.279 334.807C302.873 334.515 301.452 334.298 300.023 334.158C298.543 334.103 297.06 334.158 295.588 334.324C294.12 334.554 292.638 334.688 291.153 334.724C289.721 334.673 288.295 334.526 286.883 334.282C285.336 334.034 283.788 333.688 282.227 333.578C280.731 333.495 279.232 333.495 277.737 333.578C271.372 333.692 265.008 333.336 258.697 332.514C257.315 332.348 255.85 332.514 254.469 332.265C253.087 332.016 251.512 331.477 250.006 331.173C246.844 330.394 243.572 330.17 240.334 330.51C237.309 330.816 234.267 330.923 231.228 330.828C228.047 330.985 224.858 330.948 221.681 330.718C218.531 330.223 215.358 329.886 212.175 329.709C208.9 329.709 205.598 329.971 202.323 329.709C200.789 329.557 199.283 329.322 197.75 329.253C196.216 329.184 194.682 329.253 193.135 329.253C191.587 329.253 190.012 328.963 188.451 328.838C186.889 328.714 185.287 328.686 183.698 328.673C180.478 328.673 177.259 328.755 174.026 328.673C170.793 328.59 167.781 328.161 164.644 327.913C161.508 327.664 158.316 327.65 155.138 327.664C151.97 327.602 148.801 327.712 145.646 327.996C142.7 328.396 139.717 328.438 136.761 328.12C136.167 328.037 135.573 327.94 134.993 327.802C134.716 327.733 134.164 327.719 134.026 327.443C133.887 327.167 134.343 326.545 134.592 326.296Z" fill="#EEDAAE"/>
<path d="M285.159 214.192H284.689H284.399L284.205 214.04C283.404 213.363 282.589 212.658 281.76 212.064L281.428 211.816L280.737 211.29L280.24 210.876C280.059 210.7 279.865 210.538 279.66 210.392C279.34 210.178 278.984 210.023 278.609 209.936C278.125 209.775 277.661 209.557 277.228 209.287C276.405 208.782 275.556 208.321 274.685 207.905C273.785 207.511 272.862 207.169 271.922 206.883C271.02 206.581 270.157 206.173 269.352 205.667C268.578 205.211 267.777 204.81 266.976 204.396C266.139 203.963 265.37 203.409 264.696 202.752C264.022 202.221 263.231 201.86 262.388 201.701C261.913 201.586 261.45 201.424 261.007 201.218C260.665 201.062 260.289 200.995 259.915 201.024H259.514H258.782V200.334V199.601H260.164C260.439 199.599 260.714 199.636 260.979 199.712C261.218 199.786 261.45 199.883 261.67 200.002C261.835 200.083 262.006 200.152 262.181 200.209L262.526 200.306C263.207 200.463 263.869 200.69 264.502 200.983C265.007 201.248 265.472 201.583 265.884 201.978C266.146 202.221 266.428 202.443 266.727 202.641C267.174 202.906 267.635 203.146 268.109 203.36C268.482 203.539 268.855 203.719 269.214 203.926L269.863 204.313C270.482 204.698 271.128 205.035 271.798 205.322C272.212 205.487 272.641 205.625 273.055 205.764C273.47 205.902 274.119 206.109 274.63 206.33C275.54 206.713 276.43 207.142 277.297 207.615L277.767 207.892C278.037 208.062 278.319 208.215 278.609 208.347L279.079 208.499C279.374 208.574 279.66 208.676 279.936 208.803C280.382 209.045 280.795 209.342 281.166 209.688C281.539 210.019 281.939 210.323 282.34 210.627L282.616 210.848C283.503 211.489 284.347 212.186 285.145 212.935L285.49 213.322L285.325 213.75L285.159 214.192ZM288.502 253.267C288.185 252.921 287.867 252.576 287.535 252.244C287.204 251.913 286.844 251.526 286.499 251.139C286.154 250.752 286.126 250.71 285.919 250.503L285.352 249.937C284.97 249.586 284.614 249.207 284.288 248.804L284.067 248.5C283.796 248.08 283.449 247.715 283.045 247.422C282.741 247.242 282.423 247.077 282.105 246.925C281.736 246.746 281.376 246.547 281.027 246.33L280.419 245.957C279.286 245.239 278.14 244.576 276.993 243.843C276.557 243.593 276.093 243.393 275.611 243.249L274.934 243.014C274.234 242.759 273.555 242.449 272.903 242.089C272.558 241.898 272.226 241.686 271.908 241.453L271.659 241.26C271.541 241.144 271.406 241.046 271.259 240.969C271.095 240.912 270.921 240.888 270.748 240.9H269.988C269.836 240.915 269.683 240.915 269.532 240.9C269.176 240.86 268.83 240.757 268.509 240.596C268.29 240.463 268.095 240.295 267.929 240.099L267.722 239.892C267.538 239.776 267.344 239.679 267.141 239.602L266.948 239.533L266.354 239.256L265.76 238.966C265.512 238.885 265.257 238.825 265 238.786H264.862C264.567 238.75 264.289 238.63 264.06 238.441C263.737 238.107 263.513 237.692 263.411 237.239V237.087C263.411 237.087 263.273 236.755 262.485 236.203C262.225 236.047 261.947 235.927 261.656 235.843C261.274 235.726 260.908 235.564 260.564 235.36C260.219 235.111 259.932 234.79 259.722 234.42C259.628 234.264 259.522 234.116 259.404 233.978C258.921 233.457 258.344 233.03 257.704 232.721C257.419 232.625 257.162 232.458 256.958 232.237C256.212 231.754 255.452 231.325 254.692 230.855L254.14 230.524C253.026 229.888 251.951 229.187 250.92 228.424C250.484 228.12 250.022 227.857 249.538 227.636C248.988 227.38 248.465 227.07 247.977 226.71C247.644 226.471 247.293 226.259 246.927 226.075L246.471 225.826L245.241 225.094L244.564 224.693C244.118 224.423 243.657 224.179 243.183 223.961C242.489 223.641 241.819 223.272 241.179 222.855C240.668 222.51 240.115 222.22 239.535 221.902C238.955 221.584 238.568 221.391 238.153 221.101C237.76 220.858 237.354 220.636 236.937 220.437C236.233 220.143 235.565 219.767 234.948 219.318C234.569 219.048 234.166 218.812 233.746 218.613L233.524 218.503C233.249 218.358 232.986 218.192 232.737 218.006C232.509 217.822 232.258 217.669 231.991 217.55C231.619 217.412 231.226 217.342 230.83 217.342H230.264C229.545 217.241 228.82 217.185 228.094 217.177H224.903C224.615 217.171 224.327 217.199 224.046 217.259C223.201 217.435 222.339 217.519 221.476 217.508H220.288H219.265C218.42 217.531 217.574 217.48 216.737 217.356L215.507 217.163C214.603 217.033 213.711 216.829 212.84 216.555C211.705 216.226 210.648 215.671 209.732 214.924C209.368 214.62 208.958 214.377 208.516 214.206L207.963 214.068C207.599 214.001 207.243 213.9 206.899 213.764C206.329 213.488 205.708 213.333 205.075 213.308H204.301C203.832 213.308 203.362 213.308 202.92 213.308C201.692 213.169 200.477 212.934 199.286 212.603L198.719 212.465C198.304 212.366 197.893 212.246 197.49 212.106C197.144 211.981 196.799 211.816 196.467 211.664C196.136 211.512 195.914 211.401 195.638 211.29C194.904 211.026 194.151 210.818 193.386 210.669C192.861 210.544 192.336 210.434 191.825 210.282L191.465 210.171C190.488 209.976 189.57 209.555 188.785 208.942L188.398 208.61L188.564 208.154L188.757 207.67H189.517L189.697 207.822C190.579 208.4 191.572 208.786 192.612 208.955L193.317 209.121L194.215 209.342C195.162 209.537 196.088 209.823 196.978 210.199C199.392 211.288 202.013 211.844 204.661 211.829H204.827C205.408 211.81 205.989 211.87 206.554 212.009C206.833 212.094 207.105 212.201 207.369 212.327C207.617 212.445 207.876 212.538 208.143 212.603L208.419 212.672C208.841 212.732 209.252 212.858 209.635 213.045C210.059 213.269 210.457 213.537 210.823 213.847L211.182 214.109C212.124 214.742 213.188 215.17 214.305 215.367C214.928 215.508 215.561 215.605 216.198 215.657C216.537 215.686 216.874 215.737 217.207 215.809C217.498 215.871 217.793 215.913 218.091 215.933H218.367H219.03H219.749H220.868H221.849C222.45 215.923 223.048 215.845 223.631 215.698C224.003 215.612 224.384 215.575 224.764 215.588H228.039C228.568 215.56 229.099 215.56 229.628 215.588H230.195C231.28 215.581 232.348 215.863 233.29 216.403C233.676 216.665 234.091 216.9 234.505 217.135C235.048 217.434 235.573 217.761 236.081 218.116C236.378 218.322 236.698 218.493 237.034 218.627L237.531 218.862C238.007 219.108 238.468 219.38 238.913 219.677L239.245 219.885C239.736 220.188 240.244 220.465 240.765 220.714C241.127 220.885 241.474 221.089 241.801 221.322L242.367 221.681C242.662 221.848 242.966 221.995 243.279 222.123L243.873 222.386C244.399 222.648 244.91 222.952 245.407 223.256L245.78 223.491L246.775 224.071C247.563 224.527 248.378 224.997 249.138 225.536C249.525 225.798 249.939 226.006 250.367 226.241C250.956 226.522 251.516 226.86 252.039 227.249C253.047 228.007 254.114 228.682 255.231 229.266L255.798 229.584C256.171 229.778 256.53 229.971 256.889 230.192L257.179 230.386C257.335 230.454 257.476 230.552 257.594 230.676C257.939 230.911 258.271 231.146 258.63 231.353C258.808 231.445 258.993 231.524 259.183 231.588C259.512 231.711 259.827 231.868 260.122 232.057L260.758 232.513C261.048 232.735 261.352 232.956 261.656 233.149C262.31 233.516 263.012 233.79 263.742 233.964C264.198 234.089 264.668 234.227 265.124 234.393L265.732 234.655C266.007 234.795 266.294 234.911 266.589 235.001C266.934 235.083 267.293 235.153 267.639 235.208L268.537 235.387C269.006 235.508 269.467 235.655 269.919 235.83L270.264 235.954C270.766 236.105 271.288 236.175 271.811 236.161H271.95H272.875H274.022C274.485 236.152 274.948 236.189 275.404 236.272C276.428 236.542 277.374 237.048 278.167 237.75L278.499 238.013C278.748 238.192 278.996 238.344 279.259 238.51C279.479 238.63 279.691 238.764 279.894 238.911C280.227 239.14 280.546 239.389 280.848 239.657L281.193 239.947C282.05 240.585 282.977 241.123 283.957 241.55L284.855 241.978C285.348 242.185 285.812 242.454 286.236 242.78C286.482 242.974 286.709 243.192 286.913 243.429C287.118 243.649 287.34 243.853 287.577 244.037C287.961 244.323 288.293 244.674 288.558 245.073C288.692 245.328 288.92 245.521 289.193 245.612C289.4 245.693 289.588 245.815 289.746 245.971C289.853 246.062 289.95 246.164 290.036 246.275C290.147 246.386 290.216 246.469 290.299 246.538L290.616 246.717L291.045 246.98C291.314 247.162 291.573 247.361 291.819 247.574C292.064 247.787 292.323 247.986 292.592 248.168C293.117 248.514 293.629 248.873 294.154 249.246C294.679 249.619 295.121 249.937 295.618 250.268C296.116 250.6 296.889 251.153 297.525 251.65C297.953 251.968 298.368 252.286 298.81 252.59C299.764 253.221 300.751 253.803 301.767 254.331L302.043 254.483C303.043 255.001 303.972 255.647 304.807 256.403C305.011 256.609 305.205 256.826 305.387 257.052C305.537 257.237 305.699 257.413 305.87 257.578C306.051 257.728 306.257 257.845 306.478 257.923C306.794 258.036 307.092 258.194 307.363 258.393C307.598 258.586 307.805 258.78 308.012 258.987C308.231 259.207 308.467 259.411 308.717 259.595C309.161 259.906 309.622 260.192 310.098 260.451L310.264 260.562C311.093 261.032 311.881 261.557 312.668 262.082L313.567 262.676L315.211 263.698C316.368 264.366 317.481 265.109 318.541 265.923L318.789 266.116L318.914 268.327L317.684 267.305C317.043 266.775 316.369 266.286 315.667 265.84L313.387 264.376C312.005 263.464 310.472 262.51 308.993 261.612C308.451 261.306 307.93 260.964 307.432 260.59C307.221 260.425 307.022 260.245 306.838 260.051C306.654 259.831 306.435 259.644 306.188 259.498L305.953 259.415C305.547 259.27 305.173 259.05 304.848 258.766C304.6 258.534 304.369 258.285 304.157 258.02C303.991 257.826 303.826 257.633 303.646 257.453C302.81 256.717 301.881 256.094 300.882 255.602C299.728 254.995 298.616 254.312 297.553 253.557L294.306 251.263L293.587 250.724L292.869 250.185L292.219 249.771C291.901 249.577 291.597 249.384 291.307 249.177C291.091 249.023 290.883 248.857 290.686 248.679C290.461 248.48 290.221 248.3 289.967 248.14L289.801 248.044C289.599 247.934 289.405 247.809 289.221 247.671C289.091 247.561 288.975 247.436 288.876 247.298C288.833 247.236 288.781 247.18 288.723 247.132C288.618 247.044 288.502 246.97 288.378 246.911C288.033 246.773 287.729 246.55 287.494 246.261C287.425 246.151 287.342 246.04 287.287 245.93L287.148 245.736C287.016 245.578 286.863 245.439 286.692 245.322L286.416 245.115C286.191 244.917 285.978 244.704 285.78 244.479C285.624 244.299 285.453 244.133 285.269 243.982C284.843 243.667 284.379 243.407 283.888 243.208L283.266 242.918C282.177 242.46 281.151 241.866 280.212 241.149C279.701 240.735 279.162 240.362 278.623 239.988C278.084 239.615 277.739 239.381 277.311 239.049C276.458 238.236 275.349 237.747 274.174 237.667H274.022H272.944H271.77C271.405 237.671 271.04 237.648 270.678 237.598C270.24 237.52 269.809 237.399 269.393 237.239C269.235 237.175 269.074 237.12 268.91 237.073C268.343 236.903 267.766 236.769 267.183 236.672H267.003C266.465 236.596 265.937 236.462 265.428 236.272L265.055 236.12C264.794 235.995 264.526 235.884 264.254 235.788C264.482 236.059 264.651 236.374 264.751 236.714C264.751 236.811 264.751 236.921 264.875 237.045C265 237.17 264.875 237.156 265.373 237.225C265.607 237.262 265.838 237.318 266.064 237.391C266.754 237.667 267.445 238.013 268.053 238.317C268.385 238.471 268.677 238.698 268.91 238.98C269.013 239.083 269.136 239.164 269.272 239.218C269.407 239.273 269.552 239.3 269.698 239.298H270.665C270.998 239.289 271.331 239.34 271.646 239.45C272.047 239.615 272.416 239.849 272.737 240.14C272.888 240.273 273.05 240.394 273.221 240.5C273.886 240.901 274.589 241.234 275.321 241.495L275.97 241.716C276.446 241.865 276.908 242.055 277.352 242.282C277.739 242.476 278.098 242.71 278.471 242.945C278.774 243.155 279.088 243.348 279.411 243.526C279.991 243.83 280.53 244.189 281.055 244.52L281.525 244.824C281.893 245.06 282.276 245.272 282.672 245.46C282.962 245.612 283.238 245.75 283.515 245.916C284.141 246.282 284.679 246.782 285.09 247.381C285.505 247.914 285.967 248.409 286.471 248.859L286.623 249.011C286.941 249.329 287.231 249.674 287.535 250.006C287.839 250.337 287.977 250.517 288.212 250.752L288.862 251.415C289.193 251.761 289.525 252.092 289.843 252.438C290.316 252.996 290.849 253.501 291.432 253.944C292.123 254.441 292.648 254.842 293.131 255.256C293.739 255.785 294.401 256.248 295.107 256.638C295.555 256.861 296.016 257.055 296.489 257.218C296.793 257.329 297.097 257.453 297.387 257.591C297.838 257.778 298.3 257.939 298.769 258.075L299.528 258.324C300.043 258.537 300.512 258.847 300.91 259.236L301.2 259.484C301.56 259.774 301.919 260.037 302.292 260.313C303.191 260.93 304.021 261.644 304.765 262.441C305.083 262.8 305.373 263.187 305.663 263.574C305.953 263.961 305.995 264.002 306.174 264.21C306.354 264.417 306.561 264.679 306.769 264.901C306.976 265.122 307.307 265.509 307.556 265.826C308.025 266.472 308.454 267.146 308.841 267.844C309.254 268.56 309.716 269.248 310.223 269.902C311.052 270.939 311.978 271.933 312.862 272.901L313.511 273.605C314.03 274.164 314.519 274.749 314.976 275.36C315.149 275.614 315.354 275.847 315.584 276.051C315.687 276.128 315.805 276.184 315.929 276.217C316.148 276.298 316.357 276.404 316.551 276.535C316.728 276.663 316.891 276.812 317.035 276.977L317.256 277.184C317.583 277.447 317.935 277.678 318.306 277.875L318.914 278.206C319.395 278.462 319.857 278.753 320.295 279.077C320.394 279.141 320.487 279.216 320.572 279.298L320.765 279.45L320.848 279.823L320.171 280.03L320.848 279.892L321.221 281.771L319.591 280.389C319.471 280.276 319.342 280.175 319.204 280.086C318.858 279.851 318.472 279.643 318.099 279.436L317.297 278.994C316.968 278.8 316.65 278.588 316.344 278.358C316.203 278.242 316.07 278.117 315.943 277.985C315.819 277.845 315.674 277.724 315.515 277.626L315.294 277.543C315.089 277.472 314.893 277.374 314.713 277.253C314.386 277.001 314.098 276.704 313.857 276.369C313.152 275.457 312.364 274.586 311.605 273.757L310.541 272.569C309.485 271.451 308.558 270.218 307.777 268.894C307.432 268.272 307.059 267.636 306.658 267.056C306.369 266.654 306.055 266.271 305.718 265.909L305.166 265.26L304.503 264.417C304.282 264.141 304.06 263.85 303.826 263.574C303.392 263.059 302.901 262.595 302.361 262.192L300.399 260.659L299.984 260.327C299.645 259.998 299.24 259.743 298.796 259.581C298.142 259.399 297.5 259.172 296.876 258.904C296.572 258.766 296.254 258.641 295.95 258.531C295.446 258.341 294.952 258.124 294.471 257.882C293.787 257.52 293.135 257.099 292.523 256.624L292.164 256.32C291.694 255.933 291.224 255.56 290.782 255.215C289.951 254.654 289.186 254.001 288.502 253.267ZM251.749 197.888H251.003L250.823 197.764C250.606 197.624 250.375 197.508 250.133 197.418L249.773 197.266C249.416 197.092 249.082 196.874 248.778 196.617L248.474 196.396C248.197 196.221 247.894 196.09 247.576 196.009L247.203 195.871C246.927 195.788 246.665 195.677 246.388 195.567L245.656 195.29L245.2 195.138C244.909 195.052 244.623 194.95 244.343 194.834L243.749 194.572C243.432 194.405 243.098 194.271 242.754 194.171L242.381 194.074C241.96 194.042 241.556 193.896 241.21 193.653C240.865 193.41 240.592 193.078 240.419 192.693C240.35 192.541 240.309 192.389 240.253 192.237C240.186 192.011 240.093 191.793 239.977 191.587C239.781 191.297 239.543 191.036 239.272 190.814L239.024 190.579C238.267 189.85 237.557 189.074 236.896 188.257C236.703 188.008 236.47 187.793 236.205 187.622C235.893 187.463 235.557 187.355 235.21 187.304L234.879 187.221C234.468 187.116 234.07 186.968 233.69 186.779L232.986 186.489C232.585 186.309 232.184 186.143 231.784 185.936C231.195 185.613 230.628 185.253 230.084 184.858L229.186 184.251C228.595 183.898 227.986 183.575 227.362 183.283L226.353 182.8C225.964 182.612 225.557 182.464 225.138 182.358C224.808 182.259 224.493 182.12 224.198 181.943L223.853 181.763C223.01 181.363 222.098 181.045 221.227 180.727L220.758 180.561C220.274 180.396 219.804 180.188 219.376 179.995C218.947 179.801 218.298 179.539 217.745 179.359L216.682 179.055L216.378 178.972C216.074 178.972 215.783 178.807 215.493 178.71L214.816 178.489L214.042 178.309L213.324 178.143C212.848 178.006 212.386 177.825 211.942 177.605L211.776 177.535C211.316 177.312 210.821 177.167 210.312 177.107C209.837 177.063 209.385 176.88 209.013 176.582C208.419 176.236 207.752 176.032 207.065 175.988C206.692 175.988 206.319 175.864 205.96 175.781L205.6 175.684C204.453 175.394 203.307 175.104 202.174 174.786L201.745 174.662C201.303 174.537 200.875 174.427 200.46 174.275C200.081 174.144 199.719 173.968 199.383 173.75L198.996 173.529C198.821 173.459 198.641 173.404 198.457 173.363C198.205 173.316 197.96 173.242 197.725 173.142C197.304 172.909 196.952 172.571 196.702 172.161L196.453 171.788L196.633 171.401L196.868 171H197.642L197.849 171.276C198.153 171.677 198.263 171.788 198.526 171.843C199.011 171.93 199.478 172.098 199.908 172.34C200.688 172.767 201.525 173.079 202.395 173.266L202.657 173.335C203.238 173.501 203.832 173.639 204.412 173.791L205.946 174.178C206.36 174.288 206.775 174.344 207.189 174.413C207.812 174.493 208.427 174.627 209.027 174.813C209.314 174.93 209.588 175.078 209.842 175.256L210.16 175.463C210.35 175.536 210.551 175.578 210.754 175.587C211.03 175.608 211.304 175.659 211.569 175.739C211.956 175.877 212.315 176.043 212.688 176.209L212.868 176.292C213.379 176.506 213.912 176.663 214.457 176.762C215.093 176.9 215.701 177.093 216.322 177.273C216.695 177.397 217.082 177.508 217.455 177.605C218.171 177.818 218.872 178.077 219.555 178.378L220.592 178.779L221.697 179.194C222.333 179.415 222.968 179.636 223.59 179.884C224.212 180.133 224.516 180.271 224.972 180.506L225.138 180.603C225.262 180.676 225.391 180.74 225.524 180.796H225.815C225.969 180.82 226.122 180.857 226.27 180.907C226.587 181.022 226.892 181.165 227.182 181.335L227.431 181.46L228.951 182.192C229.656 182.564 230.335 182.984 230.982 183.449L231.618 183.877C232.428 184.372 233.278 184.798 234.16 185.149L234.464 185.287C234.908 185.478 235.371 185.621 235.846 185.715C236.367 185.813 236.864 186.01 237.31 186.295C237.794 186.661 238.218 187.099 238.568 187.594C238.733 187.802 238.899 188.023 239.079 188.216C239.259 188.409 239.604 188.727 239.866 188.976C240.366 189.395 240.829 189.858 241.248 190.358C241.534 190.782 241.753 191.248 241.898 191.739C241.945 191.905 242.015 192.063 242.105 192.209C242.271 192.301 242.455 192.357 242.644 192.375C243.406 192.568 244.151 192.827 244.868 193.149C245.269 193.301 245.656 193.467 246.056 193.605L247.079 193.992L247.687 194.213L248.115 194.365C248.551 194.485 248.969 194.662 249.359 194.89L249.842 195.249C250.031 195.411 250.234 195.555 250.45 195.677L250.81 195.843C251.178 195.986 251.527 196.176 251.846 196.41L252.26 196.783L252.095 197.252L251.749 197.888ZM184.971 254.413H185.358C186.001 254.392 186.639 254.519 187.224 254.787C187.984 255.146 188.743 255.491 189.517 255.795C189.835 255.919 190.153 256.002 190.484 256.099C190.873 256.203 191.256 256.327 191.631 256.472C192.321 256.757 192.995 257.08 193.648 257.439L194.298 257.771C194.808 258.007 195.298 258.284 195.763 258.6C195.894 258.712 196.044 258.801 196.205 258.863H196.398C196.581 258.9 196.761 258.951 196.937 259.015C197.224 259.161 197.489 259.347 197.725 259.567C197.992 259.773 198.291 259.937 198.609 260.051C198.965 260.198 199.329 260.322 199.7 260.424C200.563 260.653 201.38 261.027 202.118 261.529C202.521 261.847 202.895 262.198 203.238 262.579L203.555 262.925C203.992 263.409 204.453 263.87 204.937 264.306C205.467 264.749 206.052 265.121 206.678 265.412C207.175 265.647 207.645 265.937 208.129 266.213L208.654 266.503C209.02 266.714 209.398 266.903 209.787 267.07L210.63 267.457L210.795 267.553C211.044 267.694 211.309 267.805 211.583 267.885C211.779 267.931 211.977 267.963 212.177 267.982H212.55C214.066 268.272 215.489 268.926 216.695 269.889C217.359 270.372 217.884 270.731 218.436 271.063C219.051 271.408 219.638 271.8 220.191 272.237C220.675 272.65 221.136 273.088 221.573 273.55C222.092 274.125 222.666 274.647 223.286 275.111C223.545 275.289 223.818 275.446 224.101 275.581C224.391 275.733 224.682 275.899 224.958 276.079C225.468 276.419 225.932 276.823 226.34 277.281C226.479 277.433 226.609 277.594 226.726 277.764C226.906 278.052 227.141 278.301 227.417 278.497C227.597 278.577 227.788 278.628 227.984 278.649C228.34 278.696 228.686 278.804 229.006 278.966C229.165 279.063 229.317 279.169 229.462 279.284L229.67 279.436C229.881 279.572 230.103 279.692 230.333 279.795L230.512 279.878C230.926 280.094 231.315 280.353 231.673 280.652C231.894 280.818 232.115 280.984 232.336 281.122L232.765 281.37C233.225 281.607 233.649 281.909 234.022 282.269C234.209 282.475 234.384 282.692 234.547 282.918C234.729 283.186 234.943 283.432 235.182 283.65C235.459 283.871 235.763 284.051 236.053 284.244C236.386 284.427 236.705 284.635 237.006 284.866C237.591 285.329 238.115 285.863 238.568 286.455C239.032 287.082 239.435 287.753 239.77 288.459C240.018 288.974 240.299 289.473 240.613 289.951C240.751 290.144 240.889 290.352 241.041 290.545C241.193 290.738 241.566 291.291 241.801 291.678C242.152 292.29 242.457 292.927 242.713 293.585V293.751C243.037 294.486 243.309 295.243 243.528 296.017C243.691 296.553 243.918 297.068 244.205 297.55L244.44 297.992C244.78 298.671 245.013 299.398 245.131 300.148V300.466C245.131 300.687 245.214 300.908 245.269 301.115C245.31 301.276 245.365 301.434 245.435 301.585C245.504 301.764 245.573 301.944 245.628 302.137C245.757 302.704 245.799 303.286 245.753 303.865V304.293V305.025H245.062H244.316V303.906C244.364 303.382 244.317 302.853 244.177 302.345C243.976 301.714 243.81 301.073 243.68 300.424V300.203C243.55 299.551 243.311 298.925 242.975 298.352C242.583 297.707 242.285 297.009 242.091 296.279C241.908 295.652 241.682 295.038 241.414 294.441L241.317 294.22C241.053 293.521 240.72 292.85 240.322 292.217C240.143 291.954 239.963 291.692 239.77 291.443C239.576 291.194 239.328 290.835 239.134 290.517C238.9 290.141 238.692 289.748 238.512 289.343C238.402 289.122 238.305 288.901 238.181 288.694C237.565 287.489 236.646 286.465 235.514 285.723L235.238 285.557C234.695 285.255 234.197 284.878 233.759 284.438C233.58 284.25 233.418 284.047 233.276 283.83C233.085 283.547 232.852 283.295 232.585 283.084L231.922 282.683C231.563 282.483 231.217 282.262 230.885 282.02L230.581 281.771L230.125 281.426L229.642 281.191L229.214 280.984L228.633 280.611C228.407 280.42 228.143 280.279 227.859 280.196C227.263 280.148 226.695 279.922 226.229 279.547C225.949 279.281 225.695 278.989 225.469 278.676C225.331 278.497 225.193 278.317 225.041 278.151C224.682 277.764 224.268 277.434 223.811 277.17L223.383 276.935C222.922 276.697 222.483 276.42 222.07 276.106C221.52 275.681 220.998 275.219 220.509 274.725L220.163 274.379C219.847 274.023 219.505 273.691 219.141 273.384C218.699 273.049 218.238 272.74 217.759 272.458L217.386 272.237C216.93 271.961 216.488 271.657 216.004 271.339C215.282 270.805 214.509 270.342 213.697 269.958C213.076 269.717 212.425 269.559 211.763 269.488C211.124 269.37 210.508 269.151 209.939 268.838L209.082 268.438C208.612 268.217 208.156 267.996 207.7 267.733C207.245 267.471 206.457 267.028 205.807 266.711C204.572 266.049 203.464 265.174 202.533 264.127C202.397 263.991 202.268 263.848 202.146 263.698C201.846 263.353 201.513 263.038 201.151 262.759C200.669 262.434 200.137 262.191 199.576 262.04L199.203 261.916C198.761 261.764 198.305 261.626 197.821 261.446C197.492 261.308 197.177 261.137 196.882 260.935C196.775 260.865 196.673 260.786 196.578 260.7C196.456 260.579 196.31 260.485 196.149 260.424H195.942C195.833 260.411 195.726 260.383 195.624 260.341C195.298 260.23 194.994 260.061 194.726 259.844C194.371 259.606 193.996 259.398 193.607 259.222L192.971 258.904C192.323 258.539 191.654 258.212 190.968 257.923C190.76 257.85 190.548 257.791 190.332 257.743L189.959 257.647C189.586 257.536 189.199 257.384 188.743 257.205C188.025 256.914 187.362 256.61 186.63 256.279C186.16 256.057 185.643 255.953 185.123 255.975H184.93L184.212 255.864V254.483L184.971 254.413ZM184.681 248.735L184.985 248.873C185.317 248.995 185.625 249.172 185.897 249.398C186.353 249.751 186.861 250.031 187.403 250.227L188.136 250.503C188.302 250.554 188.473 250.586 188.647 250.6H189.006C189.384 250.674 189.737 250.845 190.028 251.097C190.128 251.187 190.239 251.261 190.36 251.318C190.465 251.343 190.573 251.343 190.678 251.318C190.823 251.328 190.966 251.351 191.106 251.388C191.409 251.455 191.695 251.582 191.949 251.761C192.368 252.015 192.802 252.246 193.248 252.451L193.607 252.617L195.583 253.626L196.965 254.358C198.001 254.883 199.023 255.312 200.115 255.74L200.433 255.878C200.847 256.045 201.241 256.258 201.607 256.514C202.016 256.854 202.354 257.272 202.602 257.743L202.685 257.895C202.767 258.065 202.882 258.217 203.025 258.34C203.168 258.464 203.334 258.557 203.514 258.614C203.783 258.67 204.055 258.711 204.329 258.738L205.034 258.835L205.434 258.904C205.835 258.973 206.222 259.042 206.623 259.139C207.252 259.325 207.856 259.589 208.419 259.926L209.151 260.327C210.118 260.852 211.127 261.405 212.094 262.04C212.688 262.427 213.2 262.8 213.656 263.16L213.96 263.436C214.194 263.643 214.512 263.933 214.706 263.933H214.844H215.521V264.569V265.232L214.885 265.343H214.623C214.201 265.321 213.797 265.171 213.462 264.914C213.213 264.735 212.965 264.528 212.73 264.334L212.177 263.878C211.184 263.136 210.13 262.48 209.027 261.916L208.184 261.46C207.441 261.009 206.635 260.669 205.794 260.451C205.255 260.341 204.702 260.23 204.163 260.175H203.984C203.511 260.15 203.045 260.052 202.602 259.885C202.087 259.653 201.66 259.26 201.386 258.766L201.234 258.503C201.049 258.136 200.785 257.816 200.46 257.564C200.099 257.356 199.719 257.18 199.327 257.039L199.161 256.97C198.554 256.735 197.959 256.472 197.365 256.196C196.495 255.781 195.624 255.339 194.768 254.897L193.8 254.4C193.234 254.123 192.681 253.833 192.115 253.571H191.949C191.753 253.488 191.564 253.391 191.382 253.28L191.12 253.115C190.976 253.002 190.812 252.918 190.636 252.866C190.549 252.858 190.461 252.858 190.374 252.866C190.108 252.859 189.846 252.802 189.6 252.7C189.391 252.598 189.199 252.463 189.034 252.299L188.826 252.147C188.692 252.086 188.545 252.057 188.398 252.065H188.025C187.715 252.003 187.414 251.906 187.127 251.774L186.712 251.622C186.184 251.438 185.678 251.192 185.206 250.89L184.847 250.6C184.752 250.499 184.639 250.415 184.515 250.351L183.949 250.089L183.59 249.826L183.438 248.196L184.681 248.735ZM244.233 256.334C244.026 256.049 243.841 255.749 243.68 255.436L243.542 255.201C243.376 254.911 243.196 254.621 243.003 254.344L242.851 254.123C242.33 253.372 241.933 252.542 241.677 251.664C241.566 251.291 241.469 250.918 241.373 250.545C241.108 249.289 240.642 248.085 239.991 246.98C239.635 246.498 239.217 246.066 238.747 245.695L238.181 245.198L237.794 244.824C237.269 244.341 236.758 243.857 236.205 243.443C235.652 243.028 234.823 242.42 234.202 241.923L233.967 241.757C233.523 241.413 233.103 241.039 232.709 240.638C232.53 240.458 232.35 240.279 232.157 240.113C231.814 239.811 231.433 239.556 231.024 239.353C230.672 239.164 230.331 238.956 230.001 238.731C229.486 238.319 228.993 237.881 228.523 237.419L227.887 236.811C227.182 236.189 226.505 235.539 225.815 234.876C225.706 234.771 225.63 234.637 225.598 234.489C225.566 234.341 225.579 234.188 225.635 234.047L225.884 233.564H226.353H226.685L226.892 233.771C227.583 234.462 228.274 235.153 229.034 235.788L229.656 236.368C230.073 236.824 230.536 237.236 231.037 237.598C231.258 237.75 231.493 237.874 231.714 237.999C232.251 238.274 232.752 238.612 233.207 239.007L233.649 239.436C234.077 239.881 234.539 240.292 235.031 240.666C235.749 241.191 236.412 241.716 237.158 242.282C237.904 242.849 238.195 243.194 238.692 243.664L239.203 244.147L239.701 244.576C240.209 244.986 240.672 245.449 241.082 245.957C241.474 246.531 241.79 247.154 242.022 247.809L242.16 248.154C242.438 248.853 242.655 249.574 242.81 250.31L242.92 250.752C243.116 251.586 243.453 252.38 243.915 253.101L244.164 253.46L244.633 254.165L244.91 254.676C245.02 254.869 245.117 255.063 245.241 255.242C245.705 255.855 246.271 256.383 246.913 256.804C247.398 257.181 247.859 257.587 248.295 258.02L248.861 258.531C249.138 258.78 249.428 259.001 249.718 259.236C250.136 259.545 250.533 259.882 250.906 260.244L251.639 260.963C251.998 261.35 252.371 261.723 252.772 262.082C253.172 262.441 253.338 262.621 253.628 262.911C253.938 263.242 254.266 263.555 254.609 263.851C255.202 264.377 255.71 264.992 256.115 265.674C256.309 265.964 256.516 266.241 256.723 266.517C257.069 267.001 257.428 267.484 257.732 268.009C257.912 268.3 258.077 268.604 258.243 268.908C258.499 269.418 258.795 269.908 259.127 270.372C259.321 270.648 259.542 270.925 259.763 271.187C260.109 271.592 260.432 272.017 260.73 272.458L261.241 273.274C261.573 273.799 261.891 274.324 262.25 274.821C262.609 275.319 262.72 275.429 262.969 275.719C263.309 276.108 263.623 276.519 263.908 276.949C264.102 277.239 264.281 277.557 264.461 277.861C264.724 278.341 265.019 278.803 265.345 279.243C265.841 279.827 266.366 280.385 266.92 280.915L267.031 281.011C267.611 281.592 268.15 282.2 268.661 282.78C269.248 283.483 269.876 284.152 270.54 284.783C270.913 285.115 271.314 285.433 271.715 285.75C272.645 286.415 273.469 287.216 274.16 288.127C274.413 288.487 274.685 288.833 274.976 289.163C275.252 289.481 275.514 289.799 275.763 290.13C276.227 290.817 276.629 291.543 276.965 292.3L277.048 292.493C277.32 292.958 277.564 293.437 277.78 293.93C277.919 294.331 278.057 294.732 278.236 295.132C278.44 295.549 278.68 295.947 278.955 296.321L279.508 297.177L279.618 297.384C280.039 298.056 280.391 298.769 280.668 299.512C280.907 300.38 280.992 301.282 280.917 302.179C280.839 302.928 280.938 303.686 281.207 304.39C281.351 304.678 281.518 304.956 281.705 305.219C281.842 305.447 281.958 305.687 282.05 305.937C282.05 306.075 282.174 306.227 282.243 306.352C282.534 306.815 282.862 307.254 283.224 307.664L283.832 308.41C284.399 309.17 284.979 309.916 285.504 310.69L285.753 311.036C286.154 311.553 286.489 312.12 286.748 312.721C286.95 313.164 287.211 313.577 287.521 313.951C287.745 314.234 287.952 314.529 288.143 314.835C288.511 315.492 288.977 316.089 289.525 316.604L289.898 317.005L289.732 317.447L289.483 317.944H288.696L288.502 317.778C287.871 317.179 287.331 316.49 286.9 315.733C286.731 315.46 286.547 315.197 286.347 314.946C286.053 314.568 285.785 314.172 285.546 313.758C285.456 313.579 285.377 313.394 285.311 313.205C285.264 313.068 285.208 312.934 285.145 312.804C285.01 312.588 284.862 312.381 284.703 312.182L284.399 311.782C283.888 311.049 283.363 310.317 282.824 309.613L282.174 308.811C281.801 308.341 281.414 307.885 281.083 307.429C280.938 307.198 280.818 306.953 280.723 306.697L280.585 306.366C280.494 306.198 280.392 306.037 280.281 305.882C280.157 305.702 280.046 305.523 279.936 305.329C279.479 304.336 279.293 303.24 279.397 302.151C279.433 301.588 279.405 301.023 279.314 300.466C279.141 299.79 278.861 299.146 278.485 298.559L278.292 298.2C278.112 297.896 277.919 297.592 277.711 297.302C277.431 296.909 277.177 296.498 276.951 296.072C276.737 295.622 276.548 295.161 276.385 294.69C276.264 294.285 276.116 293.888 275.943 293.502L275.818 293.253C275.513 292.56 275.158 291.89 274.755 291.25C274.525 290.926 274.276 290.617 274.008 290.324C273.718 289.992 273.442 289.661 273.193 289.315C272.763 288.696 272.241 288.147 271.646 287.685C270.205 286.584 268.889 285.328 267.722 283.94C267.205 283.31 266.646 282.714 266.05 282.158C265.412 281.556 264.808 280.92 264.24 280.251C263.876 279.757 263.544 279.24 263.245 278.704L262.872 278.068C262.584 277.635 262.271 277.22 261.932 276.825C261.697 276.562 261.476 276.286 261.269 276.009C260.855 275.457 260.495 274.863 260.136 274.282L259.708 273.605C259.386 273.124 259.035 272.663 258.658 272.224L258.16 271.588C257.759 271.027 257.394 270.441 257.069 269.833C256.944 269.598 256.82 269.363 256.682 269.129C256.336 268.548 255.949 268.009 255.549 267.443L255.176 266.918C255.051 266.752 254.941 266.572 254.83 266.393C254.72 266.213 254.595 266.02 254.457 265.84C254.245 265.57 253.999 265.329 253.725 265.122C253.346 264.802 252.986 264.461 252.647 264.099C252.399 263.837 252.15 263.588 251.887 263.353C251.625 263.118 251.1 262.579 250.713 262.179L249.884 261.363C249.568 261.073 249.236 260.801 248.889 260.548C248.585 260.299 248.281 260.065 247.991 259.802L247.521 259.388C246.989 258.897 246.431 258.436 245.849 258.006C245.223 257.54 244.677 256.975 244.233 256.334Z" fill="#202147"/>
</svg>
