<svg width="520" height="493" viewBox="0 0 520 493" fill="none" xmlns="http://www.w3.org/2000/svg">
<mask id="mask0_3_795" style="mask-type:alpha" maskUnits="userSpaceOnUse" x="0" y="0" width="520" height="493">
<path d="M158.877 183.746C210.679 170.629 361.726 133.539 466.268 123.718C508.307 119.774 521.366 134.796 518.921 135.066C516.475 135.337 397.675 140.383 162.328 204.529L158.877 183.746Z" fill="#58606E"/>
<path d="M466.471 120.576C361.939 130.388 210.399 168.908 158.597 182.074L160.395 192.968C163.207 191.711 163.024 189.72 166.62 188.695C170.612 187.545 171.279 189.865 175.261 188.695C179.244 187.526 178.587 185.216 182.589 184.123C186.59 183.031 187.238 185.351 191.24 184.259C195.242 183.166 194.604 180.827 198.606 179.725C202.608 178.623 203.236 181.011 207.247 179.967C211.259 178.923 210.65 176.583 214.671 175.54C218.692 174.496 219.282 176.835 223.294 175.781C227.305 174.728 226.725 172.446 230.756 171.451C234.787 170.455 235.367 172.804 239.398 171.818C243.429 170.832 242.849 168.483 246.88 167.497C250.911 166.511 251.471 168.831 255.502 167.893C259.533 166.956 258.992 164.616 263.042 163.698C267.092 162.78 267.633 165.129 271.674 164.201C275.714 163.273 275.183 160.924 279.223 160.006C283.264 159.087 283.796 161.427 287.836 160.537C291.877 159.648 291.384 157.328 295.453 156.477C299.523 155.627 300.016 157.985 304.066 157.135C308.116 156.284 307.633 153.925 311.702 153.075C315.772 152.224 316.246 154.592 320.296 153.742C324.346 152.891 323.892 150.552 327.961 149.759C332.031 148.967 332.504 151.335 336.574 150.552C340.644 149.769 340.189 147.391 344.259 146.598C348.328 145.806 348.783 148.184 352.852 147.401C356.922 146.618 356.477 144.22 360.585 143.486C364.694 142.751 365.109 145.129 369.188 144.394C373.268 143.66 372.833 141.272 376.922 140.528C381.01 139.784 381.426 142.171 385.505 141.437C389.584 140.702 389.178 138.353 393.238 137.657C397.298 136.961 397.733 139.368 401.822 138.682C405.911 137.995 405.524 135.617 409.623 134.941C413.721 134.264 414.098 136.681 418.197 136.043C422.296 135.405 421.928 133.046 426.036 132.427C430.145 131.809 430.483 134.177 434.591 133.607C438.699 133.036 438.371 130.707 442.489 130.117C446.606 129.528 446.906 131.944 451.014 131.461C455.123 130.977 454.881 128.561 458.989 128.145C463.097 127.73 463.368 130.079 467.467 129.769C468.937 129.673 470.344 129.137 471.507 128.232C472.704 127.356 474.142 126.87 475.625 126.84C477.105 126.747 478.574 127.148 479.801 127.981C481.016 128.803 482.452 129.238 483.919 129.228C488.037 129.354 488.133 126.918 492.319 127.179C496.504 127.44 496.272 129.905 500.332 130.388C501.773 130.615 503.25 130.424 504.585 129.837C505.958 129.267 507.475 129.142 508.922 129.478C510.37 129.814 511.676 130.596 512.657 131.712C513.075 132.173 513.521 132.609 513.991 133.017C514.637 133.519 515.358 133.916 516.127 134.196C516.866 134.535 517.657 134.744 518.466 134.815H519.143C519.81 132.882 506.2 116.845 466.471 120.576Z" fill="#B6BDE0"/>
<path d="M466.471 120.576L457.481 121.707L447.157 122.974C443.165 123.409 438.69 124.105 433.798 124.81L418.013 127.111L400.449 130.011L391.17 131.509L381.687 133.21L362.354 136.719L343.021 140.392C336.651 141.572 330.407 142.886 324.346 144.104L306.889 147.623L291.287 150.88L259.04 157.647L267.846 155.511L277.967 153.104L284.192 151.625L291.113 150.068L306.686 146.579C312.205 145.332 318.053 144.124 324.085 142.857C330.117 141.591 336.381 140.267 342.751 139.058L362.084 135.289L381.465 131.867L390.967 130.214L400.266 128.744C406.375 127.778 412.271 126.869 417.888 126.067L433.721 124.008L440.758 123.099C442.991 122.8 445.118 122.645 447.119 122.432L457.462 121.466L466.471 120.576Z" fill="white"/>
<g style="mix-blend-mode:overlay" opacity="0.2">
<path d="M469.689 139.957C459.926 141.185 448.704 142.722 436.021 144.636L447.834 122.568C454.185 121.814 460.4 121.137 466.47 120.576C471.08 120.129 475.712 119.952 480.342 120.045L469.689 139.957ZM218.363 189.797C230.723 186.678 242.703 183.727 254.303 180.943L267.836 155.627C255.434 158.44 243.506 161.214 232.254 163.891L218.363 189.797ZM338.749 162.113C345.728 160.682 352.494 159.326 359.048 158.043L371.798 134.196C365.089 135.414 358.365 136.671 351.624 137.966L338.749 162.113Z" fill="white"/>
</g>
<path d="M153.328 208.792C153.328 208.792 147.838 244.383 147.905 268.221C147.973 292.058 165.208 382.555 165.208 382.555L159.244 401.133H213.54V209.739L153.328 208.792Z" fill="#3C90CF"/>
<path d="M167.789 210.87L123.72 321.154C123.72 321.154 98.2105 351.274 97.7079 352.686C97.2052 354.097 89.7138 367.069 90.4194 369.118C91.1251 371.168 101.439 390.307 120.124 399.49C127.703 404.323 137.688 402.709 142.038 400.776C146.388 398.843 173.289 381.124 174.256 379.993C175.223 378.862 176.189 371.293 176.189 371.293L201.805 341.163V210.87H167.789Z" fill="#31363D"/>
<path d="M199.36 330.733L201.776 329.622V222.566L136.721 288.617L123.72 321.154C123.72 321.154 118.539 327.273 112.797 334.126C112.797 334.126 147.644 342.333 151.84 344.431C156.035 346.528 168.591 366.982 168.591 366.982L169.394 346.518L175.677 358.447L199.36 330.733Z" fill="#25272B"/>
<path d="M353.065 222.151C353.065 222.151 422.324 408.238 422.334 408.799C422.344 409.36 416.264 431.911 416.264 431.911V492.568H322.123V222.151H353.065Z" fill="#31363D"/>
<path d="M353.065 222.151H322.132V492.568H354.833V357.963L363.988 251.527L353.065 222.151Z" fill="#25272B"/>
<path d="M454.61 284.876L438.129 274.61C438.129 274.61 394.533 350.975 350.822 403.299L368.289 417.296C368.289 417.296 422.653 344.585 454.61 284.876Z" fill="#28854D"/>
<path d="M450.869 295.296C451.517 294.397 457.839 283.01 458.351 282.015C458.526 281.442 458.565 280.837 458.466 280.246C458.367 279.656 458.133 279.096 457.781 278.612C457.268 278.09 442.836 269.912 441.792 269.497C440.748 269.081 439.008 268.917 438.225 270.086C437.442 271.256 430.492 283.32 430.376 283.706C430.26 284.093 431.14 285.33 431.73 285.553C431.923 285.63 433.924 286.8 436.485 288.327C436.45 287.425 436.659 286.53 437.091 285.737C437.522 284.943 438.16 284.282 438.937 283.822C439.714 283.361 440.601 283.12 441.503 283.123C442.406 283.125 443.292 283.372 444.066 283.837C444.84 284.301 445.474 284.967 445.901 285.762C446.328 286.558 446.532 287.454 446.491 288.356C446.45 289.258 446.166 290.132 445.669 290.886C445.172 291.64 444.481 292.245 443.668 292.638L448.685 295.654C448.685 295.654 450.221 296.195 450.869 295.296Z" fill="#FFAA00"/>
<path d="M359.744 392.318C359.744 392.318 376.612 405.222 376.931 405.503C377.225 405.773 377.421 406.134 377.487 406.527C377.554 406.921 377.487 407.326 377.298 407.678C376.776 408.751 372.417 416.087 372.417 416.087L351.769 398.688C351.769 398.688 356.989 393.284 357.743 392.646C357.987 392.368 358.32 392.183 358.685 392.123C359.05 392.063 359.424 392.132 359.744 392.318Z" fill="#FF8C00"/>
<path d="M369.333 422.158C369.333 422.158 363.746 427.059 363.273 427.378C363.121 427.493 362.936 427.555 362.746 427.555C362.555 427.555 362.37 427.493 362.219 427.378C361.958 427.242 344.558 414.376 344.085 414.009C343.611 413.642 343.534 412.752 343.63 411.834C343.727 410.916 347.062 404.101 347.062 404.101L370.3 420.853L369.333 422.158Z" fill="#FF8C00"/>
<path d="M333.636 395.74C333.329 395.513 333.071 395.227 332.875 394.9C332.679 394.573 332.55 394.211 332.494 393.834C332.439 393.457 332.458 393.072 332.551 392.703C332.644 392.333 332.809 391.985 333.036 391.68L335.656 388.142C336.113 387.525 336.796 387.114 337.555 387C338.314 386.886 339.088 387.077 339.706 387.533L386.037 421.858C386.344 422.084 386.603 422.369 386.8 422.696C386.997 423.022 387.127 423.385 387.184 423.762C387.24 424.139 387.222 424.523 387.13 424.893C387.037 425.263 386.873 425.612 386.646 425.918L384.026 429.456C383.799 429.762 383.514 430.02 383.187 430.216C382.86 430.412 382.498 430.542 382.121 430.597C381.744 430.653 381.359 430.634 380.99 430.541C380.62 430.448 380.272 430.283 379.967 430.055L333.636 395.74Z" fill="#FFAA00"/>
<path d="M440.603 289.999L431.633 291.401L435.065 299.81L444.035 298.399L440.603 289.999Z" fill="#E0E5FF"/>
<path d="M433.006 303.242L424.016 304.499L427.303 312.947L436.283 311.69L433.006 303.242Z" fill="#E0E5FF"/>
<path d="M425.263 316.05L416.264 317.142L419.405 325.649L428.395 324.556L425.263 316.05Z" fill="#E0E5FF"/>
<path d="M417.385 328.5L408.376 329.448L411.363 338.002L420.372 337.055L417.385 328.5Z" fill="#E0E5FF"/>
<path d="M409.371 340.69L400.353 341.473L403.185 350.076L412.213 349.293L409.371 340.69Z" fill="#E0E5FF"/>
<path d="M401.232 352.686L392.204 353.314L394.891 361.965L403.929 361.337L401.232 352.686Z" fill="#E0E5FF"/>
<path d="M392.977 364.575L383.929 365.049L386.472 373.749L395.519 373.275L392.977 364.575Z" fill="#E0E5FF"/>
<path d="M384.606 376.446L375.539 376.765L377.927 385.513L386.994 385.194L384.606 376.446Z" fill="#E0E5FF"/>
<path d="M376.119 388.374L367.042 388.529L369.285 397.325L378.371 397.17L376.119 388.374Z" fill="#E0E5FF"/>
<path d="M221.592 155.917C221.592 155.917 230.534 190.01 230.775 190.851C231.017 191.692 179.427 208.734 179.427 208.734C179.427 208.734 196.701 249.942 205.101 265.166C213.501 280.391 232.071 279.298 250.437 279.298H294.66C304.085 279.298 316.651 267.099 320.392 255.016C324.133 242.933 331.547 204.046 331.547 204.046L282.761 186.404L286.724 155.936L221.592 155.917Z" fill="#FFCBAB"/>
<path d="M264.608 195.085C266.077 193.925 276.768 182.519 284.317 174.437L286.724 155.917H221.592L224.096 165.448C238.238 182.847 250.707 192.997 253.907 195.085C257.106 197.173 262.317 196.892 264.608 195.085Z" fill="#FF9580"/>
<path d="M220.548 205.264L181.583 226.278L205.053 347.891L310.726 327.495L220.548 205.264Z" fill="#31363D"/>
<path d="M230.785 219.879L287.546 331.97L310.726 327.495L230.785 219.879Z" fill="#25272B"/>
<path d="M227.305 183.137L330.136 323.754L307.12 328.191L220.548 205.264L227.305 183.137Z" fill="#31363D"/>
<path d="M261.157 262.924L270.485 242.18L257.503 224.432L248.097 244.383L261.157 262.924Z" fill="#25272B"/>
<path d="M296.642 203.582L338.884 216.834V340.69H231.259L296.642 203.582Z" fill="#31363D"/>
<path d="M289.363 219.879L254.874 340.69H231.259L289.363 219.879Z" fill="#25272B"/>
<path d="M285.816 183.137L211.501 340.69H234.942L296.642 203.582L285.816 183.137Z" fill="#31363D"/>
<path d="M208.185 195.443L153.087 208.415C153.087 208.415 182.772 264.2 197.272 326.064C186.958 368.268 179.427 382.555 179.427 382.555L159.244 401.134C159.244 401.134 163.758 409.186 177.291 414.667H253.907L262.674 345.397L242.162 303.503L208.185 195.443Z" fill="#8FCFFF"/>
<path d="M253.907 414.667L261.891 351.613L255.869 343.358C255.869 343.358 239.639 327.669 234.487 319.298L210.805 333.469C210.805 333.469 207.257 363.599 207.905 378.263H200.007L179.427 382.555L159.244 401.134C159.244 401.134 163.758 409.186 177.291 414.667H253.907Z" fill="#75BEF5"/>
<g style="mix-blend-mode:multiply">
<path d="M184.541 414.667H253.907L261.891 351.613L255.492 345.397C234.302 370.879 210.524 394.093 184.541 414.667Z" fill="#AEC1CF"/>
</g>
<path d="M197.272 326.064L201.776 281.841C193.395 250.386 178.809 217.366 172.545 203.843L153.125 208.415C153.125 208.415 182.772 264.2 197.272 326.064Z" fill="#5DACE8"/>
<g style="mix-blend-mode:multiply">
<path d="M197.272 326.064C197.272 326.064 204.676 271.933 202.985 246.8L191.743 305.059L197.272 326.064Z" fill="#AEC1CF"/>
</g>
<path d="M227.47 178.294C227.006 178.346 226.558 178.489 226.152 178.717C225.745 178.944 225.388 179.251 225.101 179.619C223.893 180.943 208.185 195.442 208.185 195.442C208.185 195.442 238.025 308.781 238.992 311.806C239.959 314.832 281.041 389.137 281.041 389.137H304.965C304.965 389.137 259.775 306.732 259.291 304.557C258.808 302.382 227.47 178.294 227.47 178.294Z" fill="#5DACE8"/>
<path d="M304.965 389.137C304.965 389.137 285.864 354.29 272.36 329.322C268.551 323.947 259.948 311.922 259.291 311.806C258.45 311.681 238.992 311.806 238.992 311.806C239.958 314.822 281.04 389.137 281.04 389.137H304.965Z" fill="#3C90CF"/>
<path d="M300.373 189.121L367.4 214.253C367.4 214.253 352.9 274.813 346.453 294.639L354.834 357.963C354.834 357.963 370.619 385.667 370.619 387.282C370.619 388.896 359.348 406.614 347.748 414.666H227.885L289.102 327.998L300.373 189.121Z" fill="#8FCFFF"/>
<path d="M300.364 189.246L291.461 298.96L294.09 330.733C294.09 330.733 300.373 271.933 301.823 255.258C301.823 217.801 300.673 189.227 300.673 189.227L300.364 189.246Z" fill="#E8F5FF"/>
<path d="M370.619 387.282C370.619 387.282 332.997 366.441 331.547 365.697C330.097 364.952 282.49 394.212 282.49 394.212C282.49 394.212 294.09 377.615 299.252 369.805C297.231 369.805 270.649 373.671 270.649 373.671C270.649 373.671 254.467 387.301 239.446 398.292L227.846 414.666H347.709C359.348 406.614 370.619 388.896 370.619 387.282Z" fill="#75BEF5"/>
<path d="M284.182 175.433L282.761 186.385L271.703 317.684C268.155 324.769 220.954 400.65 200.007 414.666H227.875C227.875 414.666 272.341 371.332 294.09 330.733C294.09 330.733 302.306 247.767 300.373 189.121L284.288 174.621L284.182 175.433Z" fill="#5DACE8"/>
<path d="M272.225 323.039C271.036 325.301 239.117 382.004 204.26 414.666H227.875C227.875 414.666 272.341 371.332 294.09 330.733C294.09 330.733 279.716 322.556 277.899 321.715C276.082 320.874 273.433 320.748 272.225 323.039Z" fill="#3C90CF"/>
<path d="M351.837 208.415L341.204 260.613L346.443 294.678C352.9 274.813 367.4 214.253 367.4 214.253L351.837 208.415Z" fill="#5DACE8"/>
<g style="mix-blend-mode:multiply">
<path d="M334.815 220.817L346.414 294.639C346.414 294.639 350.735 279.985 352.079 274.949C352.118 274.949 347.255 254.05 334.815 220.817Z" fill="#AEC1CF"/>
</g>
<g style="mix-blend-mode:multiply">
<path d="M245.951 414.666C245.951 414.666 293.317 371.922 325.67 350.443C307.623 365.677 299.088 374.232 299.088 374.232C290.436 387.407 268.803 414.666 268.803 414.666H245.951Z" fill="#AEC1CF"/>
</g>
<path d="M331.547 365.697L370.619 387.282C370.619 387.282 351.847 373.304 331.547 365.697Z" fill="#E8F5FF"/>
<path d="M300.702 189.227L367.4 214.253C367.4 214.253 325.506 203.901 300.702 189.227Z" fill="#E8F5FF"/>
<path d="M347.738 414.666L372.707 439.364V445.202L388.579 492.568H153.125L159.244 468.643L157.282 458.735L177.291 414.666H347.738Z" fill="#3C90CF"/>
<path d="M251.887 411.129L173.802 413.062C173.802 413.062 171.656 414.937 171.173 415.266C170.689 415.594 156.103 441.046 156.431 442.496C156.76 443.946 162.067 447.813 162.067 447.813C162.067 447.813 227.557 441.365 261.234 434.918C313.433 435.082 366.405 433.071 366.405 433.071C366.405 433.071 368.531 430.249 368.048 428.963C367.565 427.677 360.179 407.697 359.841 406.73C359.364 405.894 358.703 405.176 357.908 404.633L281.698 406.566L251.887 411.129Z" fill="#FFAA00"/>
<path d="M245.951 409.553C245.951 409.553 208.629 401.095 206.715 400.737C204.802 400.379 202.849 402.429 201.776 405.145C200.703 407.861 199.843 413.062 200.693 415.478C201.544 417.895 203.545 437.846 204.26 440.485C204.595 441.915 205.398 443.191 206.542 444.11C207.686 445.03 209.105 445.54 210.572 445.56C213.801 445.463 259.774 433.12 259.774 433.12L251.2 411.486L245.951 409.553Z" fill="#FF7B00"/>
<path d="M313.462 434.531C329.962 434.231 344.21 433.845 353.751 433.564L345.564 405.01L323.196 405.58L313.462 434.531Z" fill="#FF7B00"/>
<path d="M249.75 413.545C233.801 412.211 213.801 413.98 210.573 414.666C207.344 415.353 206.126 418.62 206.977 421.878C207.827 425.135 214.468 448.943 216.276 452.452C217.224 454.132 218.773 455.389 220.612 455.972C222.45 456.555 224.441 456.42 226.184 455.594C229.693 453.902 258.45 437.953 258.45 437.953C258.45 437.953 259.533 440.611 259.9 440.727C260.267 440.843 292.882 442.419 294.09 442.061C295.298 441.703 296.748 438.31 296.632 437.469L298.44 437.585L299.252 435.894C299.252 435.894 325.023 436.86 336.748 434.686C339.538 426.579 340.367 417.926 339.165 409.437C337.831 401.578 330.581 383.212 329.015 380.979C327.449 378.746 323.215 378.785 321.282 380.012C319.348 381.24 295.54 401.685 295.54 401.685C295.54 401.685 292.524 400.235 291.558 400.592C290.591 400.95 282.616 405.793 282.616 405.793C282.616 405.793 280.499 402.178 279.107 402.69C277.715 403.202 273.307 404.623 273.307 404.623C273.307 404.623 251.133 406.479 249.141 406.837C247.15 407.194 245.913 409.495 245.913 409.495C245.913 409.495 248.175 410.162 249.75 413.545Z" fill="#FFAA00"/>
<path d="M259.9 440.727C260.258 440.843 291.722 442.361 293.984 442.071C285.835 440.031 265.623 434.753 264.366 432.153C263.109 429.553 255.367 413.603 251.945 406.576C250.543 406.721 249.528 406.827 249.18 406.895C247.247 407.262 245.951 409.553 245.951 409.553C245.951 409.553 248.175 410.162 249.75 413.545L249.122 413.497L252.022 421.153L218.315 417.75L233.898 421.617L244.531 426.247L253.23 425.125L254.854 429.475L241.321 433.216C239.987 433.583 225.729 444.942 225.729 444.942L256.063 431.892L258.479 437.933C258.479 437.933 259.533 440.611 259.9 440.727Z" fill="#FF7B00"/>
<path d="M282.616 405.812C282.616 405.812 290.707 421.153 292.283 424.661C293.858 428.17 296.632 437.469 296.632 437.469L298.44 437.585C298.44 437.585 296.391 422.361 295.424 418.736C294.458 415.111 287.807 402.709 287.807 402.709L282.616 405.812Z" fill="#FF7B00"/>
<path d="M295.54 401.704C295.54 401.704 300.963 413.178 300.673 415.111C300.383 417.044 299.252 435.894 299.252 435.894H304.965C304.965 435.894 309.199 416.078 309.44 412.82C309.682 409.563 303.312 395.053 303.312 395.053L295.54 401.704Z" fill="#FF7B00"/>
<path d="M279.078 41.8727C275.744 26.2808 268.571 2.45315 244.84 1.8635C221.109 1.27385 205.807 11.5299 187.924 21.7279C170.042 31.926 163.111 36.2952 154.74 38.7504C146.369 41.2057 119.457 43.7769 113.493 42.3367C116.712 50.3984 127.026 58.4505 139.274 57.4839C117.195 77.1453 95.6105 85.0331 87.8773 85.3617C87.8773 85.3617 92.5462 89.9629 98.346 89.9146C88.3607 95.5114 68.8636 96.4781 60.0092 95.3471C76.761 109.044 89.4916 114.264 97.3794 114.632C105.267 114.999 128.959 112.109 128.959 112.109C128.959 112.109 106.727 130.069 97.2247 132.282C102.178 134.279 107.517 135.132 112.846 134.776C104.146 142.509 92.2272 148.831 92.2272 148.831C92.2272 148.831 115.591 150.523 133.793 143.031C151.994 135.54 161.342 126.318 161.342 126.318L149.907 146.908C149.907 146.908 172.139 139.02 182.608 128.222C182.608 128.222 180.994 142.239 181.477 149.005C189.21 138.691 215.309 109.537 215.309 109.537C215.309 109.537 214.343 125.158 215.309 133.703C230.573 109.537 248.175 86.976 256.672 79.0882C265.169 71.2005 279.078 41.8727 279.078 41.8727Z" fill="#25272B"/>
<path d="M137.34 234.069C137.34 234.069 140.288 235.403 140.607 236.834C140.926 238.265 154.836 339.114 154.836 339.114C142.657 344.749 120.095 350.385 98.1913 343.618C99.3126 295.615 102.86 237.772 102.86 237.772C102.86 237.772 104.474 235.684 106.079 235.684C107.684 235.684 137.34 234.069 137.34 234.069Z" fill="#B6BDE0"/>
<path d="M151.269 313.363C149.413 314.59 147.567 315.779 145.74 316.891C132.874 317.268 120.327 314.088 110.429 310.482C126.417 308.549 140.395 300.912 148.766 295.306C148.659 294.591 148.563 293.885 148.466 293.179C139.766 299.143 124.068 307.921 106.321 308.907C103.769 307.882 101.487 306.857 99.4284 305.91C99.4284 306.596 99.3801 307.302 99.3511 307.998C109.298 312.599 125.45 318.573 142.473 318.844C128.751 326.957 113.88 332.947 98.3651 336.61C98.3651 337.277 98.3651 337.935 98.3168 338.602C101.41 337.925 105.238 336.949 109.675 335.557C109.965 335.557 135.049 333.971 153.686 330.83C153.608 330.221 153.521 329.583 153.425 328.897C141.013 330.985 125.673 332.377 116.809 333.073C129.018 328.529 140.676 322.621 151.559 315.46L151.269 313.363Z" fill="#8B95BD"/>
<path d="M147.084 283.223C146.997 282.585 146.91 281.937 146.813 281.29C124.406 284.963 107.974 284.654 100.415 284.19L100.328 286.123C102.734 286.278 106.002 286.413 109.994 286.413C122.423 286.347 134.826 285.281 147.084 283.223Z" fill="#8B95BD"/>
<path d="M101.98 253.151C101.98 253.779 101.903 254.427 101.874 255.084C106.707 255.432 112.729 255.722 119.593 255.722C127.437 255.726 135.277 255.333 143.082 254.543C142.998 253.898 142.911 253.254 142.821 252.61C129.248 253.963 115.584 254.144 101.98 253.151Z" fill="#8B95BD"/>
<path d="M101.023 271.208C101.023 271.846 100.956 272.493 100.927 273.141C117.195 272.174 133.628 266.297 144.106 261.812C144.01 261.145 143.913 260.478 143.826 259.879C133.56 264.267 117.205 270.183 101.023 271.208Z" fill="#8B95BD"/>
<g style="mix-blend-mode:multiply" opacity="0.5">
<path d="M140.559 236.834C140.24 235.403 137.292 234.069 137.292 234.069L130.39 234.446L111.396 244.867C111.396 244.867 125.895 256.988 126.001 266.394C126.098 272.851 127.384 318.409 128.176 346.248C137.386 345.305 146.386 342.897 154.836 339.114C154.836 339.114 140.878 238.255 140.559 236.834Z" fill="#AEC1CF"/>
</g>
<path d="M101.835 238.999C101.231 240.116 100.841 241.335 100.685 242.595C100.521 244.461 101.768 247.003 102.319 247.1C102.87 247.196 109.307 249.371 122.918 248.008C136.528 246.645 141.284 241.802 141.284 241.802C141.284 241.802 142.405 238.1 141.922 236.65C141.395 235.479 140.657 234.414 139.747 233.509L101.835 238.999Z" fill="#8B95BD"/>
<path d="M98.1911 343.619C98.1911 343.619 95.5715 346.122 95.5715 347.331C95.5715 348.539 96.4415 353.198 97.2148 353.643C97.9881 354.087 108.254 357.355 127.181 355.905C146.107 354.455 157.746 347.891 157.746 347.891C157.746 347.891 158.596 343.106 157.987 342.256C156.992 341.138 155.923 340.089 154.788 339.114C154.788 339.114 126.059 349.95 98.1911 343.619Z" fill="#8B95BD"/>
<path d="M6.46686 228.646L12.4407 247.1C12.4407 247.1 95.0013 216.902 162.183 205.099L157.871 183.137C157.871 183.137 69.4047 203.649 6.46686 228.646Z" fill="#28854D"/>
<path d="M16.0365 223.108C14.9732 223.369 2.79358 227.941 1.75928 228.424C1.25632 228.749 0.835618 229.186 0.530327 229.701C0.225035 230.216 0.0434914 230.795 0 231.392C0 232.126 5.79983 247.709 6.33148 248.666C6.86314 249.623 8.09077 250.908 9.44406 250.522C10.7974 250.135 23.876 245.389 24.2143 245.176C24.4084 244.832 24.5239 244.448 24.5523 244.054C24.5807 243.659 24.5214 243.264 24.3786 242.895C24.2723 242.711 23.5087 240.517 22.542 237.704C21.9875 238.412 21.252 238.958 20.4132 239.283C19.5743 239.609 18.6632 239.702 17.7759 239.552C16.8887 239.403 16.0583 239.016 15.3724 238.434C14.6865 237.852 14.1704 237.095 13.8788 236.244C13.5871 235.393 13.5306 234.479 13.7153 233.598C13.8999 232.718 14.3189 231.903 14.9279 231.241C15.537 230.579 16.3135 230.093 17.1756 229.836C18.0376 229.578 18.9532 229.558 19.8257 229.777L17.9505 224.239C17.9505 224.239 17.1192 222.837 16.0365 223.108Z" fill="#FFAA00"/>
<path d="M148.253 207.757C148.253 207.757 143.701 187.023 143.633 186.588C143.574 186.187 143.653 185.777 143.857 185.426C144.06 185.075 144.377 184.803 144.754 184.655C145.847 184.181 153.908 181.378 153.908 181.378L158.471 207.989C158.471 207.989 150.989 208.743 150.003 208.753C149.017 208.763 148.389 208.337 148.253 207.757Z" fill="#FF8C00"/>
<path d="M160.201 178.787C160.201 178.787 167.635 178.642 168.205 178.71C168.775 178.778 168.872 179.155 168.988 179.425C169.104 179.696 174.092 200.691 174.217 201.329C174.343 201.967 173.831 202.654 173.164 203.263C172.497 203.872 165.547 206.945 165.547 206.945L158.606 179.135L160.201 178.787Z" fill="#FF8C00"/>
<path d="M170.409 221.986C170.496 222.357 170.51 222.741 170.449 223.117C170.388 223.493 170.254 223.854 170.054 224.178C169.854 224.502 169.592 224.783 169.283 225.006C168.974 225.229 168.624 225.388 168.253 225.476L163.971 226.491C163.6 226.579 163.216 226.592 162.84 226.531C162.464 226.471 162.104 226.336 161.78 226.136C161.456 225.936 161.174 225.674 160.951 225.365C160.729 225.056 160.569 224.706 160.481 224.335L147.219 168.222C147.132 167.851 147.118 167.467 147.179 167.091C147.24 166.715 147.374 166.355 147.574 166.031C147.774 165.707 148.036 165.425 148.345 165.202C148.654 164.98 149.004 164.82 149.375 164.732L153.657 163.717C154.028 163.628 154.414 163.614 154.791 163.674C155.168 163.734 155.529 163.868 155.854 164.068C156.18 164.269 156.462 164.531 156.685 164.841C156.909 165.151 157.069 165.501 157.156 165.873L170.409 221.986Z" fill="#FFAA00"/>
<path d="M20.4639 233.779L28.226 238.487L31.0292 229.855L23.2671 225.138L20.4639 233.779Z" fill="#E0E5FF"/>
<path d="M34.8184 228.56L42.4935 233.402L45.432 224.819L37.7569 219.985L34.8184 228.56Z" fill="#E0E5FF"/>
<path d="M48.9989 223.765L56.5773 228.734L59.6706 220.208L52.0825 215.249L48.9989 223.765Z" fill="#E0E5FF"/>
<path d="M63.054 219.338L70.5454 224.422L73.774 215.964L66.2825 210.87L63.054 219.338Z" fill="#E0E5FF"/>
<path d="M77.0312 215.191L84.4357 220.411L87.8093 212.011L80.4145 206.791L77.0312 215.191Z" fill="#E0E5FF"/>
<path d="M90.9897 211.276L98.2975 216.622L101.826 208.28L94.518 202.924L90.9897 211.276Z" fill="#E0E5FF"/>
<path d="M104.968 207.516L112.188 212.987L115.862 204.703L108.641 199.232L104.968 207.516Z" fill="#E0E5FF"/>
<path d="M119.022 203.843L126.156 209.459L129.965 201.223L122.841 195.617L119.022 203.843Z" fill="#E0E5FF"/>
<path d="M133.203 200.208L140.24 205.94L144.203 197.772L137.156 192.04L133.203 200.208Z" fill="#E0E5FF"/>
<path d="M113.309 242.595C106.9 242.199 100.337 239.376 98.8097 235.558C97.2824 231.74 96.3254 221.783 96.3254 221.783L136.567 208.792L139.776 218.738L113.309 242.595Z" fill="#574A44"/>
<path d="M98.5778 194.302C98.5778 194.302 96.1805 192.717 94.7789 192.978C93.3773 193.239 88.6407 197.105 87.4904 198.13C86.3401 199.154 86.2918 203.427 86.7365 204.78C87.1811 206.134 88.8534 213.567 89.6364 214.447C90.4194 215.326 96.9442 221.387 98.1331 222.769C99.3221 224.152 100.627 224.77 102.715 223.079C104.803 221.387 106.466 219.705 107.075 218.178C107.785 216.337 107.785 214.297 107.075 212.455C106.205 210.677 98.5778 194.302 98.5778 194.302Z" fill="#786B66"/>
<path d="M95.127 192.949C95.388 194.495 96.8959 203.582 97.1666 205.022C97.4372 206.462 97.7079 208.454 96.5286 209.333C95.3493 210.213 92.0047 212.33 92.1691 213.751C92.3334 215.172 95.1946 217.733 97.7369 220.904C100.279 224.074 102.319 222.885 104.184 220.682C105.151 219.589 106.253 218.497 107.297 217.337C107.743 215.714 107.648 213.99 107.026 212.426C106.205 210.677 98.5779 194.302 98.5779 194.302C97.5419 193.601 96.3633 193.139 95.127 192.949Z" fill="#574A44"/>
<path d="M112.739 188.222C112.739 188.222 110.438 186.018 108.872 186.027C107.307 186.037 101.352 189.304 99.8731 190.184C98.3941 191.064 97.5048 195.732 97.7078 197.279C97.9108 198.826 98.2491 207.284 98.9064 208.376C99.5637 209.468 105.499 217.414 106.514 219.164C107.529 220.913 108.834 221.841 111.453 220.411C114.073 218.98 116.229 217.511 117.205 215.935C118.339 214.064 118.735 211.838 118.317 209.691L112.739 188.222Z" fill="#786B66"/>
<path d="M109.24 186.066C109.24 187.796 109.037 198.023 109.047 199.599C109.047 201.378 108.95 203.466 107.481 204.181C106.011 204.896 101.942 206.539 101.835 208.125C101.729 209.71 104.349 213.074 106.485 217.047C108.621 221.02 111.086 220.13 113.561 218.1C114.788 217.134 116.258 216.167 117.64 215.075C118.452 213.393 118.689 211.492 118.317 209.662L112.739 188.173C112.739 188.173 110.786 186.356 109.24 186.066Z" fill="#574A44"/>
<path d="M129.24 182.934C129.24 182.934 127.364 180.034 125.702 179.657C124.039 179.28 116.954 181.243 115.185 181.813C113.416 182.383 111.318 187.071 111.154 188.773C110.989 190.474 109.221 199.454 109.675 200.769C110.129 202.083 114.382 211.924 115.02 214.021C115.658 216.119 116.809 217.424 119.921 216.564C123.034 215.703 125.721 214.63 127.084 213.267C128.749 211.581 129.721 209.333 129.81 206.965C129.752 204.635 129.24 182.934 129.24 182.934Z" fill="#786B66"/>
<path d="M126.088 179.793C125.634 181.61 122.927 192.359 122.531 194.06C122.106 195.935 121.468 198.101 119.747 198.497C118.027 198.893 113.319 199.618 112.816 201.262C112.314 202.905 114.237 207.062 115.504 211.817C116.77 216.573 119.602 216.206 122.705 214.717C124.252 213.954 126.04 213.306 127.751 212.542C129.022 210.969 129.745 209.025 129.81 207.003C129.752 204.674 129.24 182.973 129.24 182.973C129.24 182.973 127.674 180.479 126.088 179.793Z" fill="#574A44"/>
<path d="M141.497 201.822C141.497 201.822 147.007 185.68 147.364 184.297C147.722 182.915 148.196 181.716 147.664 180.073L146.282 175.791C145.953 174.766 143.614 173.858 142.318 173.577C141.023 173.297 136.625 173.664 134.672 173.983C133.374 174.237 132.178 174.865 131.233 175.791C130.288 176.718 129.636 177.9 129.356 179.193C128.64 182.412 126.456 190.928 126.698 192.291C126.939 193.654 129.133 202.103 129.752 204.635C130.371 207.168 130.815 208.579 133.155 208.173C135.494 207.767 140.772 205.979 141.497 201.822Z" fill="#786B66"/>
<path d="M141.496 201.822C141.496 201.822 141.98 200.382 142.676 198.333C142.067 197.077 141.269 195.923 140.307 194.911C139.215 194.031 133.879 192.243 131.231 192.34C130.7 192.376 130.183 192.524 129.714 192.773C129.244 193.023 128.833 193.369 128.506 193.789C128.179 194.209 127.945 194.693 127.818 195.209C127.691 195.725 127.675 196.263 127.77 196.786C128.505 199.686 129.394 203.166 129.752 204.635C130.361 207.158 130.815 208.579 133.154 208.173C135.494 207.767 140.771 205.979 141.496 201.822Z" fill="#574A44"/>
<path d="M113.309 242.595C111.763 235.896 115.388 225.776 121.922 221.503C125.837 218.943 130.038 216.85 134.44 215.268C134.44 215.268 126.514 211.402 123.971 207.999C121.429 204.597 123.691 198.835 125.837 197.212C127.983 195.588 130.39 198.575 136.354 199.193C142.318 199.812 145.382 199.754 146.465 200.227C147.548 200.701 152.913 208.405 153.976 210.126C155.039 211.846 155.3 214.553 153.879 217.782C152.458 221.01 142.782 232.881 140.24 234.62C132.413 240.226 122.927 243.035 113.309 242.595Z" fill="#786B66"/>
<path d="M208.156 114.245C206.097 111.828 200.906 111.587 199.456 112.921C198.006 114.255 196.073 123.795 196.914 126.453C197.755 129.112 203.439 139.02 204.705 140.885C205.971 142.751 209.123 144.878 210.389 145.603C211.655 146.328 215.28 145.603 215.28 145.603L208.156 114.245Z" fill="#FF9580"/>
<path d="M301.591 114.245C303.641 111.828 308.841 111.587 310.291 112.921C311.741 114.255 313.674 123.795 312.824 126.453C311.973 129.112 306.299 139.02 305.033 140.885C303.766 142.751 300.625 144.878 299.349 145.603C298.073 146.328 294.458 145.603 294.458 145.603L301.591 114.245Z" fill="#FF9580"/>
<path d="M254.874 41.8727C307.188 41.8727 309.121 80.5382 307.671 96.2461C306.221 111.954 300.306 141.678 291.722 155.81C283.138 169.943 258.17 182.393 254.874 182.393C251.577 182.393 226.599 169.952 218.016 155.81C209.432 141.668 203.516 111.954 202.066 96.2461C200.616 80.5382 202.55 41.8727 254.874 41.8727Z" fill="#FFCBAB"/>
<path d="M254.874 41.8727C202.55 41.8727 200.616 80.5382 202.066 96.246C203.43 109.23 205.92 122.07 209.509 134.622C217.677 123.022 228.6 107.933 234.371 101.379C229.538 112.215 227.353 125.458 227.353 125.458C227.353 125.458 248.281 106.502 255.173 95.6177C255.173 95.6177 253.056 109.856 249.576 126.193C258.953 116.816 271.258 90.4269 274.303 79.7939C279.765 93.5685 282.191 117.493 282.191 117.493C282.191 117.493 287.169 109.895 288.619 101.582C289.876 109.315 295.183 137.976 295.183 137.976C295.183 137.976 299.755 127.836 301.137 121.717C301.597 122.852 302.136 123.954 302.751 125.013C305.023 115.54 306.667 105.927 307.671 96.2364C309.121 80.5382 307.188 41.8727 254.874 41.8727Z" fill="#FF9580"/>
<path d="M261.195 111.683C261.195 111.683 263.457 113.53 264.414 114.129C265.519 114.85 266.858 115.12 268.155 114.883C269.267 114.516 286.521 108.793 287.942 108.377C290.074 108.066 292.226 107.914 294.38 107.923C294.38 107.923 288.184 105.864 286.734 106.193C285.284 106.521 267.314 111.239 266.193 111.471C264.539 111.714 262.864 111.785 261.195 111.683Z" fill="#25272B"/>
<path d="M276.536 115.298C273.182 116.864 270.736 119.619 269.054 123.998C276.439 128.88 282.007 128.3 287.517 124.646C288.921 122.85 289.849 120.729 290.214 118.479C290.214 118.479 284.433 112.737 276.536 115.298Z" fill="white"/>
<path d="M285.304 123.563C284.695 124.71 283.759 125.65 282.616 126.265C281.473 126.88 280.173 127.143 278.88 127.019C277.588 126.895 276.362 126.391 275.356 125.57C274.35 124.749 273.611 123.648 273.231 122.406C272.851 121.165 272.847 119.839 273.221 118.595C273.595 117.352 274.329 116.248 275.331 115.422C276.332 114.596 277.556 114.085 278.848 113.955C280.14 113.825 281.441 114.08 282.587 114.69C284.124 115.506 285.273 116.9 285.783 118.564C286.292 120.228 286.12 122.026 285.304 123.563Z" fill="#585F6B"/>
<path d="M281.679 121.64C281.45 122.068 281.1 122.419 280.672 122.648C280.244 122.877 279.758 122.974 279.275 122.927C278.792 122.88 278.333 122.691 277.958 122.383C277.582 122.076 277.306 121.664 277.164 121.2C277.023 120.736 277.022 120.24 277.162 119.775C277.302 119.311 277.576 118.898 277.951 118.589C278.325 118.28 278.783 118.089 279.266 118.041C279.748 117.992 280.235 118.087 280.664 118.315C280.949 118.466 281.202 118.672 281.407 118.921C281.612 119.17 281.767 119.458 281.861 119.767C281.955 120.075 281.988 120.4 281.956 120.721C281.925 121.043 281.831 121.355 281.679 121.64Z" fill="#25272B"/>
<g style="mix-blend-mode:multiply" opacity="0.5">
<path d="M285.96 119.3C285.691 117.583 284.751 116.042 283.346 115.018C281.941 113.994 280.187 113.57 278.469 113.839C276.751 114.108 275.211 115.049 274.187 116.454C273.163 117.858 272.738 119.613 273.008 121.33C277.126 119.72 281.547 119.028 285.96 119.3Z" fill="#25272B"/>
</g>
<path d="M275.753 122.848C275.566 123.199 275.28 123.486 274.93 123.674C274.58 123.862 274.183 123.942 273.788 123.904C273.392 123.867 273.017 123.713 272.709 123.462C272.401 123.211 272.174 122.875 272.057 122.496C271.94 122.116 271.938 121.71 272.051 121.33C272.164 120.949 272.388 120.611 272.693 120.357C272.998 120.103 273.372 119.945 273.767 119.903C274.162 119.862 274.56 119.938 274.912 120.122C275.384 120.373 275.738 120.8 275.896 121.311C276.053 121.822 276.002 122.375 275.753 122.848Z" fill="white"/>
<path d="M266.927 123.322C270.272 119.513 275.936 115.356 281.04 115.472C282.55 115.511 284.037 115.85 285.414 116.469C286.791 117.088 288.032 117.975 289.063 119.078C288.557 121.26 287.931 123.412 287.188 125.525C289.411 123.747 291.142 118.962 291.238 117.918C288.754 115.192 283.554 111.925 277.415 114.051C272.167 115.859 269.499 119.339 266.927 123.322Z" fill="#25272B"/>
<path d="M272.94 117.222C271.301 119.07 270.034 121.216 269.209 123.544C271.48 120.501 274.112 117.745 277.048 115.337C275.589 115.747 274.202 116.383 272.94 117.222Z" fill="#25272B"/>
<path d="M289.373 116.217C290.057 116.755 290.9 117.05 291.77 117.058C292.495 116.99 294.38 117.058 294.38 117.058L289.644 122.191L289.373 116.217Z" fill="#25272B"/>
<path d="M248.552 111.683C248.552 111.683 246.29 113.53 245.333 114.129C244.225 114.85 242.883 115.12 241.582 114.883C240.471 114.516 223.216 108.793 221.805 108.377C219.67 108.066 217.515 107.914 215.357 107.923C215.357 107.923 221.563 105.864 223.013 106.193C224.463 106.521 242.423 111.239 243.545 111.471C245.202 111.714 246.88 111.785 248.552 111.683Z" fill="#25272B"/>
<path d="M233.24 115.298C236.604 116.864 239.04 119.619 240.732 123.998C233.337 128.88 227.779 128.3 222.259 124.646C220.855 122.85 219.927 120.729 219.562 118.479C219.562 118.479 225.304 112.737 233.24 115.298Z" fill="white"/>
<path d="M224.434 123.563C225.043 124.71 225.978 125.65 227.122 126.265C228.265 126.88 229.565 127.143 230.857 127.019C232.15 126.895 233.376 126.391 234.382 125.57C235.388 124.749 236.127 123.648 236.507 122.406C236.887 121.165 236.89 119.839 236.517 118.595C236.143 117.352 235.409 116.248 234.407 115.422C233.406 114.596 232.182 114.085 230.89 113.955C229.598 113.825 228.297 114.08 227.15 114.69C225.614 115.506 224.464 116.9 223.955 118.564C223.446 120.228 223.618 122.026 224.434 123.563Z" fill="#585F6B"/>
<path d="M228.059 121.64C228.287 122.068 228.636 122.419 229.063 122.649C229.491 122.879 229.976 122.977 230.459 122.931C230.942 122.886 231.401 122.697 231.777 122.391C232.153 122.085 232.431 121.674 232.573 121.21C232.716 120.747 232.719 120.251 232.58 119.786C232.441 119.321 232.168 118.908 231.795 118.598C231.422 118.288 230.965 118.096 230.482 118.045C230 117.995 229.513 118.088 229.084 118.314C228.798 118.465 228.544 118.671 228.338 118.919C228.131 119.168 227.976 119.455 227.881 119.764C227.785 120.073 227.752 120.398 227.783 120.72C227.813 121.042 227.907 121.354 228.059 121.64Z" fill="#25272B"/>
<g style="mix-blend-mode:multiply" opacity="0.5">
<path d="M223.777 119.3C224.093 117.625 225.049 116.138 226.442 115.154C227.836 114.171 229.557 113.769 231.242 114.033C232.927 114.296 234.443 115.206 235.469 116.568C236.495 117.93 236.951 119.638 236.74 121.33C232.617 119.722 228.194 119.029 223.777 119.3Z" fill="#25272B"/>
</g>
<path d="M222.569 120.857C222.755 121.208 223.041 121.496 223.391 121.685C223.742 121.874 224.14 121.954 224.536 121.917C224.932 121.879 225.308 121.724 225.616 121.473C225.924 121.221 226.151 120.884 226.268 120.503C226.384 120.123 226.385 119.717 226.27 119.336C226.156 118.955 225.931 118.616 225.624 118.363C225.317 118.11 224.941 117.954 224.546 117.914C224.15 117.875 223.751 117.953 223.4 118.14C222.93 118.391 222.578 118.817 222.422 119.327C222.267 119.836 222.319 120.386 222.569 120.857Z" fill="white"/>
<path d="M242.82 123.322C239.475 119.513 233.801 115.356 228.707 115.472C227.197 115.511 225.71 115.85 224.333 116.469C222.956 117.088 221.715 117.975 220.684 119.078C221.185 121.261 221.811 123.414 222.559 125.525C220.336 123.747 218.596 118.962 218.509 117.918C220.983 115.192 226.184 111.925 232.322 114.051C237.58 115.859 240.248 119.339 242.82 123.322Z" fill="#25272B"/>
<path d="M236.797 117.222C238.44 119.067 239.708 121.214 240.529 123.544C238.261 120.498 235.628 117.742 232.689 115.337C234.149 115.747 235.535 116.383 236.797 117.222Z" fill="#25272B"/>
<path d="M220.374 116.217C219.69 116.755 218.847 117.05 217.977 117.058C217.252 116.99 215.357 117.058 215.357 117.058L220.094 122.191L220.374 116.217Z" fill="#25272B"/>
<path d="M251.287 139.059C251.287 139.059 251.287 147.555 251.452 148.396C251.616 149.237 252.612 152.427 252.612 152.427C252.612 152.427 248.629 151.741 247.779 148.638C248.175 145.922 251.287 139.059 251.287 139.059Z" fill="#FF9580"/>
<path d="M256.884 152.185C257.493 151.383 259.098 149.363 259.707 149.692C260.335 150.098 260.782 150.732 260.954 151.46C260.876 151.779 259.427 151.982 256.884 152.185Z" fill="#BD5151"/>
<path d="M239.118 159.58C239.118 159.58 246.938 159.493 257.967 158.768C262.504 158.58 267.024 158.102 271.5 157.338L274.555 156.719C269.748 158.81 264.811 160.586 259.775 162.036C253.375 163.688 250.195 163.282 247.692 162.722C244.779 161.83 241.917 160.781 239.118 159.58Z" fill="white"/>
<path d="M245.748 162.152L239.949 159.716L245.226 159.435L239.649 159.232L239.852 158.594C239.852 158.594 238.682 159.435 238.557 159.561C238.431 159.687 238.76 160.334 238.76 160.334C238.98 160.229 239.221 160.176 239.465 160.18C239.804 160.267 245.748 162.152 245.748 162.152Z" fill="#BD5151"/>
<path d="M268.368 159.252C270.624 158.682 272.831 157.935 274.97 157.019L275.231 157.483C275.231 157.483 275.898 156.516 275.772 156.371C274.816 156.158 273.848 156.006 272.872 155.917C272.669 155.917 274.139 156.535 274.061 156.593C273.984 156.651 269.692 157.686 269.692 157.686L273.713 157.125C273.713 157.125 271.954 157.966 268.368 159.252Z" fill="#BD5151"/>
<path d="M246.851 161.291C246.851 161.291 250.157 161.61 250.64 161.61C251.123 161.61 260.964 160.373 260.964 160.373C260.964 160.373 252.699 162.152 250.882 162.152C249.513 161.995 248.164 161.707 246.851 161.291Z" fill="#B6BDE0"/>
<path d="M260.606 166.347C260.606 166.347 255.773 167.594 254.874 167.671C253.975 167.748 250.118 167.313 250.176 167.671C250.234 168.029 252.979 169.846 255.009 170.291C257.039 170.735 261.872 165.999 260.606 166.347Z" fill="#FF9580"/>
<path d="M282.075 173.49C276.275 167.69 265.951 159.377 265.845 159.29L267.073 159.039C267.798 159.619 276.923 166.927 282.761 172.814L282.075 173.49Z" fill="#348577"/>
<path d="M282.336 173.2C286.367 176.748 292.263 181.794 303.602 180.759C296.923 174.331 289.054 171.18 281.369 172.002L282.336 173.2Z" fill="#348577"/>
<path d="M282.403 172.775C286.125 176.641 291.422 182.306 290.9 193.703C284.182 187.313 280.683 179.59 281.166 171.876L282.403 172.775Z" fill="#348577"/>
<path d="M253.153 25.5365C252.193 24.7828 251.05 24.2964 249.842 24.1266C248.633 23.9569 247.401 24.1098 246.27 24.5699C246.445 23.6319 246.338 22.6632 245.963 21.786C245.588 20.9087 244.962 20.162 244.163 19.64C243.261 19.0408 242.21 18.706 241.128 18.6734C239.795 18.603 238.465 18.8689 237.261 19.4467C237.345 18.4948 237.144 17.5395 236.685 16.7016C236.225 15.8637 235.528 15.1808 234.68 14.7391C233.593 14.1986 232.382 13.955 231.17 14.0331C229.958 14.1112 228.788 14.5081 227.779 15.1838C227.771 14.2174 227.475 13.2753 226.927 12.4793C226.379 11.6832 225.605 11.0697 224.705 10.7179C223.561 10.288 222.324 10.1697 221.12 10.3752C219.915 10.5808 218.787 11.1027 217.851 11.8876C217.731 10.9308 217.326 10.032 216.691 9.30679C216.055 8.58158 215.217 8.06309 214.284 7.81801C213.217 7.537 212.094 7.537 211.027 7.81801C210.425 7.96959 209.844 8.19355 209.297 8.48499C208.679 8.84353 208.102 9.26812 207.576 9.75129C207.576 9.75129 205.952 11.9069 204.483 14.1012C203.748 15.1935 203.042 16.2858 202.549 17.1074L201.699 18.538C201.906 19.3772 202.335 20.1454 202.94 20.7625C203.545 21.3797 204.305 21.8232 205.14 22.0469C206.793 22.3369 208.794 21.8633 210.94 19.8817C211.071 20.8733 211.503 21.8009 212.177 22.5399C212.801 23.2832 213.667 23.7829 214.623 23.9512C215.454 24.0781 216.303 24.0153 217.107 23.7675C218.154 23.4712 219.138 22.9828 220.007 22.3273C219.993 22.9977 220.127 23.663 220.398 24.2764C220.669 24.8898 221.071 25.4363 221.576 25.8777C222.081 26.319 222.676 26.6444 223.32 26.8309C223.964 27.0175 224.641 27.0607 225.304 26.9575C226.534 26.8223 227.72 26.4162 228.774 25.7685C228.691 26.7785 228.916 27.79 229.422 28.6684C229.885 29.5433 230.642 30.2275 231.558 30.6017C232.483 30.9167 233.462 31.0372 234.435 30.9557C235.408 30.8742 236.354 30.5924 237.213 30.128C237.036 30.9878 237.103 31.8801 237.407 32.7036C237.711 33.5271 238.24 34.2489 238.934 34.7872C239.687 35.3566 240.591 35.6927 241.534 35.7539C242.768 35.842 244.007 35.6674 245.168 35.2415C244.873 36.2054 244.873 37.2356 245.168 38.1995C245.423 39.0397 245.937 39.7775 246.638 40.3067L254.845 30.8627C255.095 29.9058 255.069 28.8974 254.77 27.9547C254.47 27.0119 253.91 26.1734 253.153 25.5365Z" fill="#E0E5FF"/>
<path d="M245.198 38.1511C245.452 38.9914 245.966 39.7292 246.667 40.2584L249.76 36.6915C248.141 36.5223 246.576 36.0117 245.169 35.1932C244.883 36.1599 244.893 37.1902 245.198 38.1511Z" fill="#B6BDE0"/>
<path d="M254.99 28.8907C254.905 28.2572 254.705 27.6445 254.4 27.0831C254.181 27.7618 253.804 28.3788 253.3 28.8831C252.796 29.3873 252.179 29.7643 251.5 29.983C249.875 30.612 248.164 30.9933 246.425 31.114C244.654 31.2836 242.87 31.2836 241.099 31.114C239.758 31.0565 238.443 30.7276 237.233 30.1473C237.055 31.0072 237.123 31.8994 237.427 32.7229C237.731 33.5464 238.26 34.2683 238.953 34.8065C239.707 35.3759 240.611 35.712 241.553 35.7732C242.788 35.8613 244.026 35.6867 245.188 35.2609C245.188 35.2609 247.498 34.0236 249.895 32.9023C251.094 32.3416 252.322 31.81 253.259 31.4426C253.788 31.213 254.335 31.0255 254.893 30.882C254.971 30.5653 255.017 30.2414 255.028 29.9154C255.049 29.5734 255.036 29.2301 254.99 28.8907Z" fill="#B6BDE0"/>
<path d="M246.271 24.5892C246.39 23.9781 246.386 23.3493 246.258 22.7399C246.13 22.1305 245.882 21.553 245.526 21.0416C245.227 22.9749 243.419 24.2315 241.147 25.0338C239.953 25.4602 238.724 25.7836 237.474 26.0005C236.229 26.198 234.973 26.3271 233.714 26.3871C232.045 26.5217 230.365 26.3212 228.774 25.7975C228.691 26.8075 228.917 27.819 229.422 28.6974C229.886 29.5722 230.642 30.2565 231.558 30.6307C232.483 30.9457 233.462 31.0662 234.435 30.9847C235.408 30.9032 236.354 30.6214 237.213 30.157C237.213 30.157 239.388 28.7167 241.66 27.3344C243.931 25.9521 246.271 24.5892 246.271 24.5892Z" fill="#B6BDE0"/>
<path d="M232.931 22.5109C235.038 20.9352 237.261 19.4176 237.261 19.4176C237.363 18.1673 236.975 16.9264 236.179 15.9571C236.094 16.6579 235.848 17.3297 235.461 17.9199C235.073 18.5101 234.555 19.0028 233.946 19.3596C232.484 20.3121 230.883 21.0297 229.199 21.4862C227.489 21.9813 225.74 22.3274 223.97 22.5205C222.641 22.6893 221.292 22.6206 219.987 22.3175C219.972 22.9907 220.105 23.6591 220.376 24.2752C220.648 24.8914 221.051 25.4403 221.559 25.883C222.066 26.3258 222.664 26.6515 223.312 26.8372C223.959 27.0229 224.639 27.0639 225.304 26.9574C226.534 26.8222 227.719 26.4162 228.774 25.7684L230.06 24.7341C230.833 24.1155 231.877 23.2842 232.931 22.5109Z" fill="#B6BDE0"/>
<path d="M223.786 18.6444C225.72 16.8754 227.779 15.1548 227.779 15.1548C227.752 13.8941 227.239 12.6924 226.348 11.8006C226.425 13.7338 224.917 15.2998 222.83 16.6338C220.632 17.8711 218.278 18.8074 215.831 19.4177C214.928 19.6567 214.006 19.8215 213.076 19.9107C212.361 20.0086 211.636 20.0086 210.921 19.9107C211.052 20.9023 211.484 21.8299 212.158 22.5689C212.782 23.3122 213.648 23.8119 214.603 23.9802C215.435 24.1071 216.284 24.0443 217.088 23.7965C218.135 23.5002 219.119 23.0118 219.988 22.3563C219.988 22.3563 221.824 20.452 223.786 18.6444Z" fill="#B6BDE0"/>
<path d="M214.265 15.8024C215.986 13.8208 217.851 11.8875 217.851 11.8875C217.689 10.6316 217.04 9.48959 216.044 8.70728C216.112 9.40893 216.016 10.117 215.763 10.7749C215.509 11.4328 215.106 12.0223 214.584 12.4965C213.358 13.7464 211.946 14.7996 210.398 15.6187C209.609 16.0596 208.796 16.4565 207.963 16.8077C207.181 17.1726 206.381 17.4953 205.565 17.7743C204.329 18.2435 203.021 18.4922 201.699 18.509C201.906 19.3482 202.335 20.1163 202.94 20.7335C203.545 21.3506 204.305 21.7942 205.14 22.0179C206.793 22.3079 208.794 21.8342 210.94 19.8526L211.955 18.5573C212.554 17.8227 213.405 16.769 214.265 15.8024Z" fill="#B6BDE0"/>
<path d="M303.602 7.50867C302.896 6.79336 301.939 5.82671 300.973 4.92774C299.039 3.11046 297.029 1.32218 297.029 1.32218C295.86 0.589453 294.536 0.142384 293.162 0.0172201C292.042 -0.0661473 290.92 0.154256 289.914 0.655201C289.023 1.05523 288.268 1.70617 287.741 2.52845C287.214 3.35074 286.938 4.30876 286.947 5.2854C285.854 4.68377 284.627 4.36828 283.38 4.36828C282.133 4.36828 280.906 4.68377 279.813 5.2854C278.973 5.78395 278.292 6.51147 277.851 7.38282C277.409 8.25416 277.225 9.23329 277.319 10.2056C276.158 9.73016 274.896 9.55704 273.65 9.70243C272.404 9.84782 271.215 10.307 270.195 11.0369C269.403 11.6225 268.798 12.4261 268.455 13.3496C268.111 14.273 268.044 15.2765 268.262 16.2374C267.045 15.8908 265.759 15.8654 264.529 16.1635C263.299 16.4617 262.167 17.0732 261.244 17.9387C260.497 18.6409 259.975 19.5494 259.746 20.5486C259.516 21.4854 259.577 22.4697 259.92 23.3712C258.534 23.2261 257.135 23.4322 255.85 23.9705C254.748 24.4539 253.792 25.217 253.076 26.1841C252.434 27.0564 252.037 28.0842 251.926 29.1614C251.876 29.6711 251.899 30.1853 251.993 30.6887C252.042 30.9322 252.109 31.1714 252.196 31.404C252.26 31.6608 252.351 31.9103 252.467 32.1483L263.1 38.7504C263.191 38.6498 263.266 38.5357 263.322 38.4121C263.417 38.2304 263.501 38.0432 263.573 37.8514C263.716 37.4261 263.804 36.9843 263.834 36.5368C263.871 35.5248 263.631 34.5219 263.139 33.6369C264.373 33.766 265.62 33.6544 266.812 33.3083C267.713 33.0241 268.526 32.5113 269.17 31.8196C269.74 31.1451 270.119 30.3303 270.266 29.4598C270.414 28.5894 270.326 27.6953 270.011 26.8704C272.476 27.4021 274.439 27.1314 275.743 26.2421C276.598 25.6929 277.258 24.8882 277.63 23.9425C278.001 22.9968 278.065 21.958 277.812 20.9739C280.654 22.0179 282.771 21.6506 284.269 20.6646C285.012 20.1528 285.596 19.4433 285.957 18.6165C286.317 17.7897 286.439 16.8786 286.309 15.9861C288.648 17.1267 290.62 17.2234 292.109 16.6337C293.075 16.2897 293.907 15.6472 294.484 14.7992C295.061 13.9512 295.353 12.9416 295.318 11.9165C297.831 13.3762 300.151 13.6178 301.765 12.8832C302.58 12.5131 303.278 11.9283 303.786 11.1916C304.325 10.4584 304.644 9.58645 304.704 8.6783L303.602 7.50867Z" fill="#E0E5FF"/>
<path d="M261.456 35.0289C260.719 35.5056 259.943 35.9194 259.136 36.2662L263.1 38.7505C263.191 38.6498 263.266 38.5357 263.322 38.4121C263.417 38.2305 263.501 38.0432 263.573 37.8515C263.716 37.4261 263.803 36.9844 263.834 36.5368C263.871 35.5248 263.631 34.5219 263.138 33.6369C262.644 34.1757 262.078 34.644 261.456 35.0289Z" fill="#B6BDE0"/>
<path d="M258.228 30.2247C257.381 30.2869 256.53 30.2707 255.686 30.1764C254.091 29.9637 252.786 29.4321 252.128 28.1561C251.749 29.4866 251.869 30.9101 252.467 32.158L252.989 32.1C253.414 32.0729 253.84 32.0729 254.265 32.1C255.289 32.1 256.643 32.3416 257.957 32.5446C259.272 32.7476 260.586 33.0376 261.534 33.2599L263.138 33.6466C264.372 33.7757 265.62 33.6641 266.812 33.3179C267.713 33.0338 268.526 32.5209 269.17 31.8293C269.74 31.1548 270.118 30.3399 270.266 29.4695C270.414 28.5991 270.326 27.7049 270.011 26.8801C268.416 28.1851 264.733 29.3257 260.992 29.9057C260.078 30.0689 259.155 30.1754 258.228 30.2247Z" fill="#B6BDE0"/>
<path d="M269.035 22.8589C267.744 22.9162 266.45 22.8644 265.168 22.7043C262.703 22.3466 260.673 21.554 260.026 19.6787C259.757 20.2622 259.606 20.8929 259.581 21.5347C259.556 22.1766 259.658 22.8171 259.881 23.4196C259.881 23.4196 262.52 24.1542 265.023 25.0145C267.527 25.8749 270.001 26.9478 270.001 26.9478C272.466 27.4795 274.429 27.2088 275.734 26.3195C276.588 25.7703 277.248 24.9656 277.62 24.0199C277.991 23.0741 278.055 22.0354 277.802 21.0513C276.29 21.8926 274.616 22.4033 272.892 22.5496C271.616 22.7488 270.326 22.8522 269.035 22.8589Z" fill="#B6BDE0"/>
<path d="M280.934 16.9914C280.499 16.9914 280.045 16.9914 279.581 16.9914C278.641 16.9888 277.702 16.934 276.768 16.8271C275.006 16.6656 273.277 16.2488 271.635 15.5898C270.962 15.3638 270.352 14.9787 269.859 14.4672C269.366 13.9556 269.004 13.3327 268.803 12.6512C268.457 13.1862 268.224 13.7866 268.12 14.415C268.015 15.0435 268.04 15.6868 268.194 16.3051C268.194 16.3051 268.803 16.5468 269.731 16.9817C270.659 17.4167 271.886 17.9484 273.085 18.5767C275.492 19.7657 277.773 21.032 277.773 21.032C280.615 22.0759 282.732 21.7086 284.23 20.7226C284.973 20.2108 285.558 19.5013 285.918 18.6745C286.279 17.8477 286.401 16.9366 286.27 16.0441C285.002 16.6441 283.622 16.9733 282.22 17.0107C281.833 16.9721 281.369 16.9817 280.934 16.9914Z" fill="#B6BDE0"/>
<path d="M290.165 12.3805C287.571 12.2444 285.011 11.7265 282.568 10.8436C280.296 9.97359 278.508 8.65896 278.314 6.71602C277.928 7.21292 277.644 7.7813 277.478 8.38846C277.312 8.99563 277.268 9.6296 277.348 10.2539C277.348 10.2539 279.706 11.6362 281.949 13.0862C284.192 14.5361 286.347 15.9861 286.347 15.9861C288.686 17.1267 290.658 17.2234 292.147 16.6337C293.113 16.2897 293.945 15.6472 294.522 14.7992C295.099 13.9512 295.391 12.9416 295.356 11.9165C293.676 12.4261 291.909 12.5841 290.165 12.3805Z" fill="#B6BDE0"/>
<path d="M302.858 8.91034C302.08 8.93802 301.301 8.9057 300.528 8.81367C298.697 8.59761 296.892 8.19269 295.144 7.60537C291.596 6.51307 288.29 4.63779 288.29 1.86354C287.845 2.31249 287.495 2.84731 287.262 3.43554C287.03 4.02377 286.919 4.65314 286.937 5.28544L288.29 6.25208C289.102 6.87073 290.175 7.70204 291.19 8.54301C293.298 10.2153 295.289 11.9359 295.289 11.9359C297.802 13.3955 300.122 13.6372 301.736 12.9026C302.551 12.5324 303.249 11.9477 303.757 11.2109C304.296 10.4778 304.615 9.60582 304.675 8.69767C304.081 8.84947 303.47 8.92099 302.858 8.91034Z" fill="#B6BDE0"/>
<path d="M278.324 40.9834C278.142 40.1863 277.716 39.4654 277.107 38.92C276.498 38.3747 275.734 38.0318 274.922 37.9385C275.382 36.9151 275.553 35.7849 275.415 34.6712C275.27 33.6859 274.863 32.7576 274.235 31.984C273.762 31.3187 273.095 30.8159 272.325 30.5443C271.555 30.2726 270.72 30.2454 269.934 30.4663C269.965 29.3495 269.687 28.2456 269.132 27.2764C268.634 26.4075 267.905 25.6945 267.024 25.2175C266.625 25.0046 266.204 24.836 265.768 24.7148C265.358 24.6289 264.938 24.5996 264.521 24.6278C263.76 24.6624 263.033 24.9557 262.462 25.4592C262.105 24.4616 261.476 23.584 260.645 22.9262C259.815 22.2683 258.817 21.8565 257.764 21.7376C256.893 21.6187 256.006 21.767 255.222 22.1629C254.54 22.4864 253.988 23.0316 253.656 23.7095C252.885 22.8992 251.91 22.3115 250.833 22.0083C249.883 21.753 248.883 21.753 247.933 22.0083C247.135 22.1904 246.413 22.6153 245.866 23.2246C245.319 23.8339 244.974 24.5976 244.879 25.4108C243.855 24.95 242.725 24.7794 241.611 24.9178C240.604 25.083 239.661 25.521 238.885 26.1841C238.22 26.6568 237.717 27.3245 237.447 28.095C237.177 28.8655 237.153 29.7008 237.378 30.4857C236.258 30.4557 235.151 30.7332 234.178 31.288C233.318 31.7909 232.613 32.5197 232.138 33.3953C231.924 33.7929 231.759 34.2148 231.645 34.6519C231.552 35.0605 231.519 35.4807 231.549 35.8989C231.583 36.6617 231.88 37.3892 232.39 37.9578C231.395 38.3091 230.519 38.9316 229.859 39.755C229.2 40.5783 228.784 41.5697 228.658 42.617C228.54 43.4879 228.688 44.3744 229.084 45.1592C229.41 45.8394 229.954 46.3908 230.63 46.7252H240.016C240.084 46.1347 239.925 45.5406 239.572 45.0626C239.168 44.4707 238.623 43.9889 237.987 43.661C238.787 43.3837 239.538 42.979 240.21 42.4623C240.683 42.1428 241.039 41.6779 241.225 41.138C241.351 40.5674 241.337 39.9746 241.183 39.4107C241.03 38.8467 240.743 38.3283 240.345 37.8998C241.1 37.9431 241.858 37.8846 242.597 37.7258C243.118 37.6489 243.607 37.4279 244.009 37.0878C244.47 36.7137 244.779 36.1846 244.879 35.5992C245.003 34.8896 244.957 34.1606 244.743 33.4726C246.677 34.3522 247.914 34.4392 248.823 33.9946C249.27 33.7459 249.646 33.3865 249.915 32.9506C250.23 32.3916 250.425 31.7724 250.485 31.1333C250.984 31.7048 251.563 32.1999 252.206 32.6026C252.625 32.9218 253.13 33.1102 253.656 33.1439C254.247 33.2206 254.844 33.0608 255.318 32.6993C255.912 32.3023 256.395 31.7599 256.72 31.1237C256.997 31.9245 257.402 32.6752 257.919 33.3469C258.246 33.8021 258.71 34.1407 259.243 34.3136C259.814 34.4396 260.406 34.4254 260.97 34.2722C261.534 34.119 262.053 33.8314 262.481 33.4339C262.438 34.1891 262.496 34.9466 262.655 35.6862C262.736 36.2058 262.956 36.6936 263.293 37.0975C263.665 37.5592 264.196 37.8658 264.782 37.9578C265.49 38.0908 266.22 38.0476 266.908 37.8321C266.029 39.7654 265.942 40.993 266.386 41.9113C266.654 42.3639 267.033 42.7401 267.488 43.0036C268.049 43.3148 268.667 43.5089 269.306 43.574C268.736 44.0746 268.242 44.654 267.836 45.2946C267.52 45.7157 267.332 46.2192 267.295 46.7445H276.671C277.486 45.9767 278.074 45.0005 278.373 43.9219C278.619 42.9557 278.602 41.941 278.324 40.9834Z" fill="#E0E5FF"/>
<path d="M236.469 46.7445H240.016C240.084 46.154 239.925 45.5599 239.571 45.0819C239.168 44.4899 238.623 44.0082 237.986 43.6802C237.89 44.1592 237.71 44.6174 237.454 45.0335C237.169 45.6276 236.839 46.1995 236.469 46.7445Z" fill="#B6BDE0"/>
<path d="M235.222 42.0757C234.159 42.8919 233.03 43.6194 231.848 44.2506C231.396 44.5422 230.875 44.7107 230.338 44.7395C229.8 44.7684 229.265 44.6565 228.784 44.4149C228.91 44.9114 229.14 45.3756 229.458 45.7771C229.776 46.1786 230.176 46.5083 230.63 46.7445C231.795 46.0382 233.006 45.4116 234.255 44.8693C235.465 44.3745 236.713 43.977 237.986 43.6803C238.787 43.4031 239.538 42.9983 240.21 42.4817C240.683 42.1621 241.039 41.6973 241.225 41.1574C241.351 40.5867 241.336 39.994 241.183 39.43C241.03 38.866 240.742 38.3476 240.345 37.9191C239.62 39.0018 237.445 40.3937 235.222 42.0757Z" fill="#B6BDE0"/>
<path d="M241.505 34.6036C239.891 35.0386 237.812 35.5702 236.014 35.9086C234.216 36.2469 232.477 36.3146 231.578 35.0676C231.494 35.5809 231.523 36.1063 231.663 36.6072C231.804 37.108 232.051 37.5723 232.39 37.9675C232.39 37.9675 232.892 37.8708 233.675 37.7838C234.596 37.6793 235.522 37.6245 236.449 37.6195C237.357 37.6173 238.265 37.6722 239.166 37.7838C239.891 37.8708 240.345 37.9482 240.345 37.9482C241.1 37.9915 241.858 37.933 242.597 37.7742C243.118 37.6973 243.607 37.4763 244.009 37.1362C244.47 36.7621 244.779 36.2329 244.879 35.6476C245.003 34.938 244.957 34.209 244.743 33.521C244.34 33.8004 243.887 34.0005 243.409 34.1106C242.785 34.313 242.149 34.4776 241.505 34.6036Z" fill="#B6BDE0"/>
<path d="M247.769 31.0173L246.87 30.8627C246.57 30.8627 246.261 30.795 245.903 30.737L244.937 30.5727L243.97 30.4277C242.645 30.254 241.335 29.9727 240.055 29.5867C238.895 29.1614 238.025 28.6201 237.764 27.5278C237.503 27.9694 237.339 28.4611 237.28 28.9707C237.222 29.4803 237.272 29.9965 237.426 30.4857C238.742 30.8049 240.034 31.2151 241.293 31.7133C242.496 32.225 243.659 32.826 244.772 33.5113C246.706 34.3909 247.943 34.4779 248.852 34.0333C249.293 33.7699 249.66 33.397 249.915 32.9506C250.231 32.3916 250.425 31.7724 250.485 31.1333C249.579 31.2387 248.663 31.1996 247.769 31.0173Z" fill="#B6BDE0"/>
<path d="M253.656 29.5674C252.196 28.7361 250.389 27.6341 248.823 26.5998C247.257 25.5655 246.029 24.3669 246.28 22.8686C245.867 23.1765 245.524 23.5681 245.272 24.0178C245.021 24.4676 244.867 24.9653 244.821 25.4785C245.933 26.2776 246.983 27.1598 247.962 28.1174C248.678 28.8521 249.316 29.5964 249.77 30.157C250.224 30.7177 250.485 31.1237 250.485 31.1237C250.984 31.6951 251.563 32.1902 252.206 32.593C252.625 32.9122 253.13 33.1005 253.656 33.1343C254.247 33.2109 254.844 33.0511 255.318 32.6896C255.912 32.2927 256.395 31.7502 256.72 31.114C256.239 31.0186 255.781 30.835 255.367 30.5727C254.772 30.2813 254.2 29.9453 253.656 29.5674Z" fill="#B6BDE0"/>
<path d="M258.325 28.3204C257.508 27.2574 256.781 26.1291 256.15 24.9468C255.858 24.4945 255.689 23.9739 255.661 23.4365C255.632 22.8991 255.744 22.3635 255.985 21.8826C255.489 22.0088 255.025 22.2385 254.623 22.5567C254.222 22.8749 253.892 23.2743 253.656 23.7289C254.362 24.8933 254.989 26.1044 255.531 27.3538C256.026 28.564 256.423 29.8117 256.72 31.085C256.997 31.8858 257.402 32.6365 257.919 33.3082C258.246 33.7634 258.71 34.1021 259.243 34.2749C259.813 34.4009 260.406 34.3867 260.97 34.2335C261.534 34.0803 262.053 33.7927 262.481 33.3952C261.398 32.7089 260.006 30.5437 258.325 28.3204Z" fill="#B6BDE0"/>
<path d="M265.797 34.6035C265.362 32.9796 264.83 30.911 264.492 29.1034C264.153 27.2958 264.086 25.5752 265.333 24.6762C264.82 24.5912 264.295 24.619 263.794 24.7575C263.293 24.8961 262.829 25.1421 262.433 25.4785C262.433 25.4785 262.529 25.9908 262.616 26.7738C262.721 27.6949 262.776 28.621 262.781 29.548C262.783 30.456 262.728 31.3632 262.616 32.2643C262.529 32.9796 262.452 33.4436 262.452 33.4436C262.409 34.1987 262.467 34.9563 262.626 35.6958C262.707 36.2154 262.927 36.7033 263.264 37.1071C263.636 37.5688 264.167 37.8755 264.753 37.9675C265.461 38.1005 266.191 38.0573 266.879 37.8418C266.6 37.4386 266.4 36.9859 266.289 36.5078C266.088 35.8832 265.924 35.2473 265.797 34.6035Z" fill="#B6BDE0"/>
<path d="M269.402 40.8577C269.45 40.5774 269.499 40.2777 269.557 39.9684C269.615 39.6591 269.624 39.3497 269.682 39.0017C269.74 38.6537 269.789 38.3348 269.847 38.0351L269.992 37.0685C270.168 35.7592 270.449 34.4662 270.833 33.2019C271.258 32.0419 271.799 31.172 272.892 30.911C272.449 30.6513 271.958 30.4863 271.449 30.4264C270.94 30.3665 270.424 30.413 269.934 30.563C269.615 31.8788 269.204 33.1708 268.706 34.4295C268.192 35.6316 267.591 36.7946 266.908 37.9094C266.028 39.8427 265.941 41.0703 266.386 41.9886C266.654 42.4413 267.033 42.8174 267.488 43.081C268.049 43.3921 268.667 43.5862 269.305 43.6513C269.187 42.7209 269.219 41.7776 269.402 40.8577Z" fill="#B6BDE0"/>
<path d="M274.922 37.9384C274.125 39.0412 273.25 40.0847 272.302 41.0607C271.577 41.776 270.823 42.414 270.263 42.8683C269.702 43.3226 269.296 43.5836 269.296 43.5836C268.731 44.0819 268.239 44.658 267.836 45.2946C267.52 45.7157 267.332 46.2192 267.295 46.7445H270.833C271.664 45.2946 272.766 43.4869 273.8 41.9113C274.835 40.3357 276.033 39.1177 277.532 39.3594C277.219 38.9547 276.825 38.6194 276.376 38.3748C275.927 38.1302 275.431 37.9816 274.922 37.9384Z" fill="#B6BDE0"/>
<path d="M274.303 79.8133C271.258 90.4463 255.889 115.395 245.749 123.94C250.582 107.962 253.907 93.9745 253.907 93.9745C246.174 104.25 223.671 121.359 223.671 121.359C223.671 121.359 226.986 108.358 232.689 97.9668C221.805 108.348 193.405 143.002 193.405 143.002L198.519 119.948C198.519 119.948 190.544 130.707 188.852 134.815C189.336 124.424 190.544 113.394 190.544 113.394C182.927 118.054 168.186 129.044 168.186 129.044C173.615 116.57 179.83 104.453 186.793 92.7663C180.54 93.3002 174.241 92.7276 168.186 91.0746C168.186 91.0746 176.402 87.6914 178.219 85.9998C180.037 84.3082 186.068 78.5083 186.068 78.5083C179.351 77.8937 172.781 76.1793 166.62 73.4335C166.62 73.4335 185.343 63.7671 200.694 54.584C212.651 46.7349 224.376 36.4596 233.318 34.5263C242.259 32.593 264.492 29.0938 288.532 38.6345C292.617 43.4279 296.032 48.7546 298.682 54.468C298.682 54.468 310.523 61.7178 312.215 65.3427C313.906 68.9676 320.189 91.6836 320.189 91.6836C323.463 96.555 327.013 101.235 330.822 105.7C330.822 105.7 318.981 103.641 314.515 100.258C316.565 117.541 318.256 133.732 318.256 133.732C318.256 133.732 307.749 121.205 306.173 118.015C305.574 124.269 302.307 134.902 302.307 134.902C302.307 134.902 293.452 107.111 291.239 99.6197C290.852 108.029 286.86 116.207 286.86 116.207C286.86 116.207 279.765 93.5879 274.303 79.8133Z" fill="#31363D"/>
<path d="M207.663 90.949C199.31 104.584 192.974 119.356 188.852 134.805C190.544 130.697 198.519 119.938 198.519 119.938L207.663 90.949Z" fill="#25272B"/>
<path d="M281.05 61.36C278.711 68.6968 274.284 79.8132 274.284 79.8132C275.434 82.7131 276.662 86.019 277.879 89.4216C281.785 78.7499 281.05 61.36 281.05 61.36Z" fill="#25272B"/>
<path d="M307.381 106.753L306.173 118.015C307.749 121.195 318.256 133.694 318.256 133.694C312.698 122.461 307.381 106.753 307.381 106.753Z" fill="#25272B"/>
<path d="M121.98 190.716L122.048 193.335L124.629 193.741C124.629 193.741 123.121 202.064 114.586 199.86C113.542 191.112 121.98 190.716 121.98 190.716Z" fill="#FF94B1"/>
</mask>
<g mask="url(#mask0_3_795)">
<rect x="-52.1985" y="-4.83319" width="668.914" height="556.784" fill="#343434"/>
</g>
</svg>
