<svg width="1163" height="175" viewBox="0 0 1163 175" fill="none" xmlns="http://www.w3.org/2000/svg">
<path d="M1162.92 -182.982C1162.92 -179.027 1162.04 -175.073 1161.36 -171.074C1161.14 -167.37 1160.57 -163.679 1159.67 -160.021C1157.64 -154.089 1151.62 -149.147 1149.59 -143.17C1147.33 -135.114 1146.56 -126.906 1147.29 -118.727C1147.66 -115.106 1147.66 -111.473 1147.29 -107.852C1146.61 -104.123 1144.85 -100.528 1144.45 -96.7538C1143.63 -88.7107 1142.35 -80.7125 1141.74 -72.7143C1141.13 -64.7161 1141.13 -57.2121 1139.57 -49.5285C1138.02 -41.8448 1134.9 -34.9701 1132.81 -27.601C1131.79 -23.9613 1131.45 -20.2317 1130.44 -16.5472C1129.67 -14.4007 1129.11 -12.2248 1128.75 -10.0319C1128.75 -8.00984 1129.29 -5.98784 1128.75 -4.01076C1127.73 0.887016 1120.49 3.04391 1114.67 5.20074C1110.85 6.65662 1106.87 7.91835 1102.76 8.97515C1096.4 10.458 1090.79 12.6148 1084.63 14.2325C1075.64 15.8658 1066.26 16.2935 1057.02 15.4906C1045.58 15.4906 1034.15 14.5019 1022.71 14.8165C1016.71 14.7767 1010.77 15.6208 1005.32 17.2879C1000.92 18.7707 996.93 20.7478 992.464 22.0509C982.523 24.2856 972.245 25.7924 961.811 26.5442C956.767 27.431 951.797 28.4959 946.924 29.7345C941.504 30.5872 936.273 31.9012 931.361 33.6437C928.21 35.1865 924.858 36.5399 921.346 37.6877C916.62 38.5789 911.767 39.1363 906.865 39.3504C896.079 40.1223 885.219 40.3326 874.384 39.9794C868.769 39.8166 863.156 40.3188 857.806 41.4623C852.189 42.7653 846.911 44.6975 841.363 46.2252C830.739 49.1459 819.844 51.3926 809.356 54.493C798.867 57.5934 787.499 60.2894 777.078 63.974C768.078 67.7442 758.616 71.0059 748.793 73.7246C744.192 74.7581 740.132 76.3308 735.733 77.4092C730.492 78.2838 725.151 78.8699 719.764 79.1616C714.35 79.8805 709.14 81.2285 703.727 81.9474C698.313 82.6664 691.682 83.3854 685.592 84.1043C674.165 85.6566 663.119 88.2578 652.773 91.8329C643.87 94.6641 634.26 96.3852 624.42 96.9104C618.804 97.3148 613.458 98.3033 607.909 98.7976C602.549 99.0675 597.165 99.0675 591.804 98.7976C583.696 98.7242 575.904 96.6962 569.88 93.091C560.88 88.5977 547.753 88.2382 536.723 87.8787C525.821 87.7701 514.933 88.4329 504.243 89.8558C493.988 90.7166 483.633 90.9272 473.318 90.4848C468.514 90.4848 463.507 90.4849 458.77 89.9906C453.076 89.0966 447.283 88.5105 441.447 88.2381C436.926 88.4776 432.376 88.3267 427.913 87.7889C423.029 86.8899 418.292 85.6707 413.771 84.1493C408.561 82.6215 403.283 81.7228 397.937 80.4647C393.599 79.2401 389.055 78.3651 384.403 77.8585C379.396 77.5889 374.659 76.2858 369.719 76.1061C364.293 76.0149 358.905 75.4714 353.682 74.4884C343.239 72.2253 333.023 69.5239 323.096 66.4004C317.751 64.8277 312.405 63.6594 306.924 62.4462C301.443 61.233 295.285 60.8287 290.007 59.301C285.811 58.0428 282.225 56.1107 278.097 54.8076C272.77 53.4365 267.197 52.5302 261.519 52.1115C237.97 49.4604 214.152 53.145 190.333 51.123C185.47 50.5424 180.676 49.7315 175.987 48.6965C171.204 48.124 166.514 47.2515 161.98 46.0904C156.431 44.4728 151.491 42.1811 145.875 40.6534C140.517 39.1827 135.025 37.9371 129.432 36.9239C118.808 34.9918 109.47 31.3522 99.0488 28.9707C88.628 26.5892 78.7486 26.005 68.6661 23.5336C62.9453 22.0521 56.9659 21.0557 50.8695 20.568C46.8764 20.377 42.9012 20.047 38.9601 19.5794C33.3219 18.5795 28.034 16.8545 23.3965 14.502C23.3965 15.0413 22.449 15.4905 21.84 14.9963C19.0657 12.7496 15.0734 11.1769 12.6373 8.70556C10.5807 5.5296 10.3638 1.96098 12.0283 -1.3147C14.3305 -6.0463 15.8728 -10.9262 16.6297 -15.8732C16.968 -21.6247 16.6297 -27.3762 16.6297 -33.1277C15.953 -56.1787 17.171 -79.2298 16.6297 -102.281C16.6297 -113.2 13.923 -123.984 13.923 -134.947V-219.962C13.923 -225.219 14.5997 -230.521 13.923 -235.734C13.5847 -239.104 12.096 -242.294 11.3516 -245.664C10.8103 -248.091 10.8779 -250.517 10.6749 -252.988C10.3384 -259.786 9.11598 -266.551 7.02101 -273.208C4.65264 -280.353 -3.46753 -288.98 1.67521 -296.304C1.76625 -296.394 1.88651 -296.469 2.02709 -296.523C2.16768 -296.578 2.32494 -296.611 2.48719 -296.619C6.45911 -296.458 10.334 -295.738 13.8553 -294.507C18.9304 -293.294 24.6821 -292.8 29.8925 -291.856C40.9973 -290.228 52.4377 -289.863 63.7263 -290.778C75.9937 -291.684 88.3299 -292.12 100.673 -292.081C112.881 -291.713 125.113 -291.909 137.281 -292.665C160.626 -294.507 183.227 -299.45 206.843 -299.225C218.468 -298.686 230.135 -298.686 241.76 -299.225C253.872 -300.169 265.714 -301.876 277.894 -302.415C302.187 -303.494 326.344 -300.708 350.705 -301.067C375.065 -301.427 400.17 -303.314 425.139 -302.955C436.981 -302.955 448.823 -302.955 460.597 -302.326C472.371 -301.697 485.093 -300.978 497.408 -300.708C521.125 -300.244 544.769 -298.743 568.188 -296.215C580.801 -294.398 593.569 -293.092 606.421 -292.305C618.736 -291.946 631.119 -292.305 643.435 -292.305C668.404 -292.036 693.103 -289.834 717.869 -287.812C742.636 -285.79 767.605 -284.307 792.304 -283.723C804.957 -283.453 817.273 -282.69 829.859 -281.971C841.363 -281.342 852.934 -281.971 864.437 -281.072C875.941 -280.173 888.933 -278.825 901.451 -278.466C913.97 -278.106 924.932 -278.466 936.706 -278.196C961.568 -277.896 986.432 -278.677 1011.14 -280.533C1035.82 -282.624 1060.69 -283.57 1085.57 -283.364C1097.83 -283.235 1110.09 -283.67 1122.25 -284.667C1128.02 -285.191 1133.82 -285.491 1139.64 -285.565C1143.56 -285.875 1147.52 -285.439 1151.08 -284.307C1155.68 -282.24 1154.53 -278.151 1154.53 -274.961C1154.83 -272.08 1155.39 -269.214 1156.22 -266.379C1156.92 -262.532 1157.28 -258.661 1157.3 -254.786C1157.3 -238.879 1162.58 -223.332 1162.58 -207.381C1162.92 -199.293 1163.12 -191.204 1162.92 -182.982Z" fill="#E13A4B"/>
<path d="M578.197 164.251H574.5H570.803C553.717 164.251 511.686 165.35 495 175C495 175 504.992 158.388 520.479 152.586L523.443 148.525H541.195V136.982H520.479L523.443 132.92H541.195V80H548.588V132.92H600.412V80H607.805V132.92H625.557L628.521 136.982H607.805V148.525H625.557L628.521 152.586C643.908 158.388 654 175 654 175C637.347 165.35 595.283 164.282 578.197 164.251ZM570.736 136.982H548.522V148.525H570.736V136.982ZM600.345 136.982H578.13V148.525H600.345V136.982Z" fill="#E13A4B"/>
<path d="M628.521 -64.6491L625.557 -60.5687H607.805V-49.0886H628.521L625.557 -45.0082H607.805V98.5C605.707 98.835 603.642 98.7564 601.544 99C601.178 99 600.778 99 600.412 99V-45.0387H548.588V88.427C546.134 88.6854 543.665 88.0149 541.195 88V-45.0387H523.443L520.479 -49.1191H541.195V-60.599H523.443L520.479 -64.6796C505.092 -70.4652 495 -87 495 -87C511.653 -77.3775 553.717 -76.3118 570.803 -76.2813H578.197C595.283 -76.2813 637.314 -77.3775 654 -87C654 -86.9695 644.008 -70.4347 628.521 -64.6491ZM570.736 -60.5687H548.522V-49.0886H570.736V-60.5687ZM600.345 -60.5687H578.13V-49.0886H600.345V-60.5687Z" fill="#202147"/>
</svg>
