<svg width="1163" height="285" viewBox="0 0 1163 285" fill="none" xmlns="http://www.w3.org/2000/svg">
<path d="M1162.92 -182.982C1162.92 -179.027 1162.04 -175.073 1161.36 -171.074C1161.14 -167.37 1160.57 -163.679 1159.67 -160.021C1157.64 -154.089 1151.62 -149.147 1149.59 -143.17C1147.33 -135.114 1146.56 -126.906 1147.29 -118.727C1147.66 -115.106 1147.66 -111.473 1147.29 -107.852C1146.61 -104.123 1144.85 -100.528 1144.45 -96.7538C1143.63 -88.7107 1142.35 -80.7125 1141.74 -72.7143C1141.13 -64.7161 1141.13 -57.2121 1139.57 -49.5285C1138.02 -41.8448 1134.9 -34.9701 1132.81 -27.601C1131.79 -23.9613 1131.45 -20.2317 1130.44 -16.5472C1129.67 -14.4007 1129.11 -12.2248 1128.75 -10.0319C1128.75 -8.00984 1129.29 -5.98784 1128.75 -4.01076C1127.73 0.887016 1120.49 3.04391 1114.67 5.20074C1110.85 6.65662 1106.87 7.91835 1102.76 8.97515C1096.4 10.458 1090.79 12.6148 1084.63 14.2325C1075.64 15.8658 1066.26 16.2935 1057.02 15.4906C1045.58 15.4906 1034.15 14.5019 1022.71 14.8165C1016.71 14.7767 1010.77 15.6208 1005.32 17.2879C1000.92 18.7707 996.93 20.7478 992.464 22.0509C982.523 24.2856 972.245 25.7924 961.811 26.5442C956.767 27.431 951.797 28.4959 946.924 29.7345C941.504 30.5872 936.273 31.9012 931.361 33.6437C928.21 35.1865 924.858 36.5399 921.346 37.6877C916.62 38.5789 911.767 39.1363 906.865 39.3504C896.079 40.1223 885.219 40.3326 874.384 39.9794C868.769 39.8166 863.156 40.3188 857.806 41.4623C852.189 42.7653 846.911 44.6975 841.363 46.2252C830.739 49.1459 819.844 51.3926 809.356 54.493C798.867 57.5934 787.499 60.2894 777.078 63.974C768.078 67.7442 758.616 71.0059 748.793 73.7246C744.192 74.7581 740.132 76.3308 735.733 77.4092C730.492 78.2838 725.151 78.8699 719.764 79.1616C714.35 79.8805 709.14 81.2285 703.727 81.9474C698.313 82.6664 691.682 83.3854 685.592 84.1043C674.165 85.6566 663.119 88.2578 652.773 91.8329C643.87 94.6641 634.26 96.3852 624.42 96.9104C618.804 97.3148 613.458 98.3033 607.909 98.7976C602.549 99.0675 597.165 99.0675 591.804 98.7976C583.696 98.7242 575.904 96.6962 569.88 93.091C560.88 88.5977 547.753 88.2382 536.723 87.8787C525.821 87.7701 514.933 88.4329 504.243 89.8558C493.988 90.7166 483.633 90.9272 473.318 90.4848C468.514 90.4848 463.507 90.4849 458.77 89.9906C453.076 89.0966 447.283 88.5105 441.447 88.2381C436.926 88.4776 432.376 88.3267 427.913 87.7889C423.029 86.8899 418.292 85.6707 413.771 84.1493C408.561 82.6215 403.283 81.7228 397.937 80.4647C393.599 79.2401 389.055 78.3651 384.403 77.8585C379.396 77.5889 374.659 76.2858 369.719 76.1061C364.293 76.0149 358.905 75.4714 353.682 74.4884C343.239 72.2253 333.023 69.5239 323.096 66.4004C317.751 64.8277 312.405 63.6594 306.924 62.4462C301.443 61.233 295.285 60.8287 290.007 59.301C285.811 58.0428 282.225 56.1107 278.097 54.8076C272.77 53.4365 267.197 52.5302 261.519 52.1115C237.97 49.4604 214.152 53.145 190.333 51.123C185.47 50.5424 180.676 49.7315 175.987 48.6965C171.204 48.124 166.514 47.2515 161.98 46.0904C156.431 44.4728 151.491 42.1811 145.875 40.6534C140.517 39.1827 135.025 37.9371 129.432 36.9239C118.808 34.9918 109.47 31.3522 99.0488 28.9707C88.628 26.5892 78.7486 26.005 68.6661 23.5336C62.9453 22.0521 56.9659 21.0557 50.8695 20.568C46.8764 20.377 42.9012 20.047 38.9601 19.5794C33.3219 18.5795 28.034 16.8545 23.3965 14.502C23.3965 15.0413 22.449 15.4905 21.84 14.9963C19.0657 12.7496 15.0734 11.1769 12.6373 8.70556C10.5807 5.5296 10.3638 1.96098 12.0283 -1.3147C14.3305 -6.0463 15.8728 -10.9262 16.6297 -15.8732C16.968 -21.6247 16.6297 -27.3762 16.6297 -33.1277C15.953 -56.1787 17.171 -79.2298 16.6297 -102.281C16.6297 -113.2 13.923 -123.984 13.923 -134.947V-219.962C13.923 -225.219 14.5997 -230.521 13.923 -235.734C13.5847 -239.104 12.096 -242.294 11.3516 -245.664C10.8103 -248.091 10.8779 -250.517 10.6749 -252.988C10.3384 -259.786 9.11598 -266.551 7.02101 -273.208C4.65264 -280.353 -3.46753 -288.98 1.67521 -296.304C1.76625 -296.394 1.88651 -296.469 2.02709 -296.523C2.16768 -296.578 2.32494 -296.611 2.48719 -296.619C6.45911 -296.458 10.334 -295.738 13.8553 -294.507C18.9304 -293.294 24.6821 -292.8 29.8925 -291.856C40.9973 -290.228 52.4377 -289.863 63.7263 -290.778C75.9937 -291.684 88.3299 -292.12 100.673 -292.081C112.881 -291.713 125.113 -291.909 137.281 -292.665C160.626 -294.507 183.227 -299.45 206.843 -299.225C218.468 -298.686 230.135 -298.686 241.76 -299.225C253.872 -300.169 265.714 -301.876 277.894 -302.415C302.187 -303.494 326.344 -300.708 350.705 -301.067C375.065 -301.427 400.17 -303.314 425.139 -302.955C436.981 -302.955 448.823 -302.955 460.597 -302.326C472.371 -301.697 485.093 -300.978 497.408 -300.708C521.125 -300.244 544.769 -298.743 568.188 -296.215C580.801 -294.398 593.569 -293.092 606.421 -292.305C618.736 -291.946 631.119 -292.305 643.435 -292.305C668.404 -292.036 693.103 -289.834 717.869 -287.812C742.636 -285.79 767.605 -284.307 792.304 -283.723C804.957 -283.453 817.273 -282.69 829.859 -281.971C841.363 -281.342 852.934 -281.971 864.437 -281.072C875.941 -280.173 888.933 -278.825 901.451 -278.466C913.97 -278.106 924.932 -278.466 936.706 -278.196C961.568 -277.896 986.432 -278.677 1011.14 -280.533C1035.82 -282.624 1060.69 -283.57 1085.57 -283.364C1097.83 -283.235 1110.09 -283.67 1122.25 -284.667C1128.02 -285.191 1133.82 -285.491 1139.64 -285.565C1143.56 -285.875 1147.52 -285.439 1151.08 -284.307C1155.68 -282.24 1154.53 -278.151 1154.53 -274.961C1154.83 -272.08 1155.39 -269.214 1156.22 -266.379C1156.92 -262.532 1157.28 -258.661 1157.3 -254.786C1157.3 -238.879 1162.58 -223.332 1162.58 -207.381C1162.92 -199.293 1163.12 -191.204 1162.92 -182.982Z" fill="#E13A4B"/>
<path d="M636.573 134.951C636.214 134.215 634.759 133.873 634.195 133.24C633.312 131.978 632.495 130.67 631.749 129.322C630.853 127.961 629.688 126.797 628.327 125.901C627.63 125.315 626.793 124.92 625.898 124.755C625.436 124.669 625.008 124.635 624.546 124.532C620.807 123.451 616.859 123.304 613.05 124.105C612.349 124.293 611.647 124.447 610.963 124.584C611.322 124.6 611.678 124.658 612.024 124.755C613.702 125.531 615.164 126.705 616.283 128.176C617.823 129.699 618.251 131.717 619.277 133.565C619.654 134.249 620.047 134.934 620.492 135.584C620.937 136.234 621.245 136.918 621.826 137.192C622.151 137.346 622.014 137.945 621.638 137.893C621.022 137.727 620.495 137.328 620.167 136.781C619.663 136.112 619.206 135.409 618.798 134.677C618.369 133.925 617.987 133.148 617.652 132.35C617.28 131.163 616.701 130.051 615.941 129.066C615.206 128.245 614.419 127.441 613.649 126.688C612.969 125.962 612.087 125.456 611.117 125.234C610.125 125.028 609.081 125.131 608.072 124.909L607.798 124.823C606.48 124.901 605.158 124.809 603.863 124.549C601.024 123.934 597.961 123.917 595.31 122.839C593.017 121.898 592.401 121.248 592.333 118.87C592.366 118.045 592.173 117.226 591.776 116.503C591.378 115.779 590.789 115.178 590.075 114.764C589.607 114.548 589.15 114.308 588.706 114.045C588.125 113.618 587.765 112.882 587.235 112.335C586.705 111.787 585.884 111.189 585.233 110.624C584.992 110.715 584.757 110.823 584.532 110.949C584.532 110.949 584.532 111.103 584.532 111.171C584.571 111.324 584.574 111.483 584.543 111.637C584.511 111.791 584.446 111.936 584.35 112.061C584.255 112.186 584.132 112.288 583.992 112.359C583.852 112.43 583.697 112.469 583.54 112.472H583.437C583.323 112.737 583.231 113.012 583.163 113.293C582.513 116.03 583.677 119.024 583.745 121.846C583.848 122.589 583.726 123.344 583.393 124.016C583.06 124.687 582.533 125.243 581.88 125.61C580.888 126.26 579.81 126.791 578.801 127.424C578.045 127.775 577.405 128.336 576.956 129.039C576.508 129.742 576.269 130.558 576.269 131.392C576.251 131.472 576.207 131.544 576.143 131.595C576.079 131.646 576 131.674 575.918 131.674C575.837 131.674 575.757 131.646 575.694 131.595C575.63 131.544 575.585 131.472 575.568 131.392C575.376 130.598 575.438 129.763 575.745 129.005C576.052 128.247 576.588 127.605 577.278 127.167C578.267 126.499 579.289 125.882 580.341 125.319C581.013 125.008 581.636 124.598 582.188 124.105C582.735 123.24 582.925 122.198 582.719 121.196C582.599 118.579 581.624 115.944 582.12 113.327C582.204 112.939 582.313 112.556 582.445 112.181C581.594 111.544 580.903 110.719 580.426 109.769C579.947 108.965 579.571 108.058 579.092 107.271C578.613 106.484 577.586 105.56 577.09 104.431C576.937 104.065 576.811 103.687 576.714 103.302C576.03 102.874 575.345 102.43 574.661 101.916C573.223 100.975 571.986 99.7592 571.02 98.3382C570.054 96.9172 569.379 95.3193 569.033 93.6363C568.194 92.8323 567.818 91.9256 566.432 91.6177C564.327 90.9828 562.287 90.1464 560.342 89.12C557.862 87.9054 553.602 87.4092 553.875 83.714C553.89 83.2808 554.029 82.8609 554.276 82.5046C554.523 82.1483 554.867 81.8706 555.268 81.7047C555.668 81.5387 556.108 81.4916 556.535 81.5688C556.961 81.646 557.356 81.8443 557.673 82.1401C557.297 81.7638 558.409 82.3454 558.734 82.448C559.367 82.602 560.017 82.6705 560.633 82.7902C562.467 83.2431 564.246 83.8972 565.936 84.7405C569.118 86.092 573.292 86.3486 574.062 90.5399C574.08 90.6876 574.08 90.837 574.062 90.9847C576.953 91.4124 577.877 95.1931 577.86 97.6908C577.853 98.4541 577.922 99.2163 578.065 99.9661C578.188 100.324 578.285 100.69 578.356 101.061C578.475 101.382 578.613 101.696 578.767 102.002L579.776 102.669C581.088 103.604 582.194 104.797 583.027 106.176C583.155 106.418 583.248 106.677 583.3 106.946C584.088 107.617 585.009 108.112 586.003 108.4C586.173 108.448 586.317 108.561 586.404 108.715C586.491 108.869 586.513 109.051 586.465 109.221C586.419 109.644 586.218 110.034 585.901 110.316C586.995 111.189 588.159 112.027 589.134 112.762C590.109 113.498 591.358 113.72 592.333 114.815C593.022 115.533 593.538 116.399 593.838 117.347C594.181 118.87 593.223 119.776 594.625 120.906C595.98 121.722 597.512 122.198 599.09 122.291C601.332 122.548 603.521 123.301 605.728 123.643C605.625 123.54 605.728 123.403 605.882 123.489C605.988 123.595 606.103 123.692 606.224 123.78C607.048 123.874 607.881 123.874 608.705 123.78C612.126 123.455 615.36 122.069 618.969 122.36C620.556 122.532 622.128 122.818 623.674 123.215C624.427 123.455 625.2 123.626 625.983 123.728C626.599 123.728 627.249 123.557 627.848 123.865C628.105 123.985 628.122 124.122 628.413 124.31C629.111 124.873 629.774 125.478 630.397 126.123C631.246 126.917 631.977 127.827 632.57 128.826C633.294 130.308 634.234 131.674 635.358 132.881C636.145 133.582 636.881 133.702 637.274 134.694C637.326 135.036 636.727 135.293 636.573 134.951ZM573.6 98.0501C573.104 97.1947 572.865 96.1683 572.42 95.2616C572.329 95.0726 572.249 94.8784 572.18 94.6799C572.178 95.4133 572.33 96.1391 572.624 96.8107C572.919 97.4824 573.35 98.0851 573.891 98.5804C573.785 98.4088 573.688 98.2318 573.6 98.0501Z" fill="#E13A4B"/>
<path d="M684.713 199.891C686.247 201.891 687.615 204.013 688.802 206.237C690.513 208.906 692.737 211.199 694.225 214.004C694.288 214.115 694.305 214.247 694.271 214.371C694.238 214.494 694.156 214.599 694.045 214.663C693.934 214.726 693.802 214.743 693.679 214.709C693.555 214.676 693.45 214.594 693.387 214.483C691.847 212.345 690.222 210.258 688.665 208.102C687.108 205.947 686.048 203.398 684.337 201.259C682.934 199.548 681.206 198.163 679.82 196.452C678.632 194.767 677.574 192.994 676.656 191.149C675.544 189.25 672.789 188.086 670.925 187.009C669.921 186.256 668.745 185.768 667.503 185.589C666.447 185.538 665.396 185.418 664.355 185.23C662.436 184.876 660.49 184.693 658.539 184.682C656.424 184.451 654.351 183.927 652.38 183.125C650.565 182.381 648.843 181.428 647.248 180.285C646.683 179.995 646.153 179.652 645.623 179.327C646.271 179.962 646.845 180.668 647.333 181.432C648.342 182.963 649.147 184.62 649.728 186.359C649.852 187.404 650.177 188.415 650.686 189.335C651.122 189.702 651.398 190.223 651.456 190.789C651.456 190.892 651.319 190.909 651.302 190.789C651.046 190.02 650.43 189.66 650.019 189.079C649.671 188.298 649.424 187.476 649.284 186.632C648.993 185.701 648.597 184.805 648.103 183.964C647.658 183.142 647.265 182.253 646.735 181.5C645.811 180.162 644.651 179.003 643.313 178.079C643.282 178.148 643.232 178.207 643.168 178.248C643.104 178.29 643.03 178.312 642.954 178.312C642.878 178.312 642.804 178.29 642.74 178.248C642.676 178.207 642.626 178.148 642.595 178.079C641.974 177.274 641.201 176.599 640.319 176.094C639.154 175.217 637.723 174.764 636.265 174.811H635.786C634.451 174.965 633.237 175.547 631.885 175.615C631.233 175.635 630.583 175.531 629.969 175.307C629.2 175.461 628.43 175.632 627.677 175.838C627.472 175.94 627.283 176.009 627.078 176.128L626.462 176.436C627.381 177.628 628.412 178.728 629.542 179.721C630.495 180.72 631.59 181.573 632.792 182.253C633.644 182.73 634.407 183.349 635.05 184.083C636.077 185.138 637.181 186.116 638.352 187.009C639.444 188.108 640.717 189.011 642.116 189.677C642.338 189.763 642.253 190.122 642.013 190.037C640.135 189.169 638.404 188.015 636.881 186.615C636.039 186.002 635.25 185.322 634.52 184.579C633.548 183.717 632.467 182.986 631.304 182.407C629.61 181.246 628.095 179.846 626.804 178.25C626.42 177.782 626.082 177.278 625.795 176.744C625.254 176.984 624.675 177.129 624.084 177.172C621.638 177.942 619.038 177.856 616.352 178.558C614.512 179.201 612.617 179.671 610.689 179.96C608.208 180.065 605.743 180.421 603.333 181.021C600.75 181.791 598.851 183.57 596.49 184.699L595.874 184.939C598.063 185.394 600.196 186.083 602.238 186.992C604.946 188.432 607.532 190.092 609.971 191.953C612.503 193.663 614.692 195.203 614.829 198.573C614.906 199.92 614.872 201.27 614.727 202.611C614.6 204.426 614.892 206.247 615.582 207.931C616.083 209.119 616.816 210.194 617.738 211.096C618.592 212.377 619.369 213.708 620.064 215.082C621.841 217.988 624.165 220.521 626.907 222.541C628.179 223.541 629.504 224.472 630.876 225.329C631.921 225.894 632.791 226.734 633.391 227.759C633.493 227.964 633.579 228.186 633.665 228.392C634.357 228.852 635.083 229.258 635.837 229.606C636.502 230.029 637.273 230.255 638.061 230.256C638.577 230.171 639.103 230.171 639.618 230.256C640.216 230.485 640.844 230.629 641.483 230.684C642.167 230.684 642.868 230.564 643.57 230.581C644.608 230.644 645.636 230.828 646.632 231.129C647.472 231.339 648.259 231.724 648.941 232.258C649.614 233.017 650.162 233.877 650.567 234.807C651.198 235.623 651.871 236.406 652.585 237.151C653.133 237.886 653.732 239.443 654.775 239.529C655.066 239.529 655.083 240.008 654.775 240.008C654.398 239.964 654.036 239.833 653.719 239.625C653.401 239.417 653.136 239.138 652.945 238.81C652.26 237.955 651.644 237.099 650.892 236.329C650.239 235.435 649.666 234.485 649.181 233.49C648.333 232.436 647.103 231.76 645.76 231.608C645.1 231.456 644.431 231.348 643.758 231.283C643.005 231.283 642.252 231.368 641.5 231.283C640.913 231.236 640.337 231.103 639.789 230.889C639.069 230.744 638.333 230.692 637.599 230.735C636.528 230.475 635.517 230.01 634.623 229.367C634.367 229.236 634.121 229.088 633.887 228.922C634.073 229.598 634.182 230.292 634.212 230.992C634.931 232.703 634.212 234.944 634.212 236.774C634.52 238.467 635.455 239.982 636.829 241.017C639.48 243.455 642.651 245.256 646.102 246.286C647.254 246.638 648.274 247.33 649.027 248.27C650.187 249.499 651.229 250.834 652.141 252.256C652.876 253.437 653.509 255.267 654.895 255.849C654.956 255.867 655.008 255.909 655.038 255.965C655.069 256.021 655.076 256.087 655.057 256.148C655.039 256.21 654.998 256.261 654.941 256.292C654.885 256.322 654.819 256.329 654.758 256.311C653.68 256.123 653.047 254.942 652.414 254.104C651.781 253.266 651.011 251.983 650.259 250.956C650.036 251.264 649.814 251.572 649.574 251.846C649.227 252.219 648.849 252.562 648.445 252.872C647.605 253.513 646.881 254.294 646.307 255.182C645.841 256.056 645.611 257.037 645.641 258.027C645.671 259.018 645.96 259.983 646.478 260.827C646.478 260.93 646.392 261.05 646.307 260.964C645.701 260.188 645.323 259.257 645.217 258.278C645.112 257.299 645.282 256.309 645.708 255.421C646.213 254.456 646.919 253.61 647.778 252.941C648.582 252.222 649.403 251.572 650.173 250.837C649.93 250.475 649.667 250.126 649.386 249.793C648.453 248.388 647.063 247.349 645.452 246.85C643.857 246.384 642.332 245.705 640.918 244.832C638.04 243.438 635.623 241.247 633.955 238.519C633.903 239.27 633.718 240.006 633.408 240.692C632.628 242.01 631.759 243.273 630.808 244.473C630.098 245.426 629.623 246.534 629.422 247.706C629.433 248.23 629.375 248.753 629.251 249.263C628.772 250.597 627.54 251.162 627.249 252.684C627.166 253.868 626.871 255.027 626.377 256.106C624.937 259.547 624.35 263.286 624.666 267.003C624.666 270.117 626.377 273.11 625.881 276.224C625.881 276.429 625.504 276.378 625.521 276.224C625.744 273.333 624.17 270.664 623.811 267.824C623.426 264.9 623.426 261.938 623.811 259.014C624.06 257.768 624.486 256.564 625.077 255.438C625.49 254.668 625.724 253.814 625.761 252.941C625.726 252.406 625.778 251.868 625.915 251.35C626.377 250.152 627.626 249.553 627.951 248.219C628.046 247.095 628.317 245.992 628.755 244.952C630.106 242.403 632.364 240.709 632.433 237.664C632.433 234.978 633.1 231.916 632.433 229.315C631.92 227.502 630.397 226.818 629.011 225.894C627.626 224.97 626.582 224.183 625.419 223.208C622.943 221.323 620.773 219.067 618.986 216.519C618.182 215.322 617.601 213.987 616.78 212.79C616.211 212.064 615.562 211.404 614.846 210.822C614.846 211.01 614.846 211.199 614.949 211.387C615.237 214.034 615.191 216.706 614.812 219.342C614.025 224.748 609.15 227.895 604.548 230.154C602.837 230.958 602.375 231.112 601.879 233.045C601.447 234.303 601.199 235.617 601.143 236.945C601.314 238.347 601.349 239.762 601.246 241.171C601.246 241.359 601.143 241.547 601.109 241.735C601.451 244.609 603.966 246.098 605.933 248.048C606.947 248.907 607.779 249.959 608.38 251.144C608.734 251.999 608.976 252.896 609.098 253.813L609.612 256.995C609.619 257.013 609.621 257.033 609.619 257.053C609.617 257.072 609.61 257.091 609.599 257.107C609.588 257.123 609.574 257.136 609.556 257.145C609.539 257.155 609.52 257.159 609.5 257.159C609.481 257.159 609.461 257.155 609.444 257.145C609.427 257.136 609.412 257.123 609.401 257.107C609.39 257.091 609.383 257.072 609.381 257.053C609.379 257.033 609.382 257.013 609.389 256.995C608.773 255.045 609.03 252.838 608.14 250.956C607.345 249.608 606.314 248.414 605.095 247.432C603.384 245.807 601.52 244.404 601.143 242.043C600.73 243.154 600.415 244.299 600.202 245.465C599.912 248.048 600.63 250.819 599.484 253.249C598.871 254.427 598.192 255.57 597.448 256.67C596.52 258.323 595.862 260.113 595.498 261.973C595.498 262.127 595.241 262.059 595.258 261.973C595.69 259.33 596.707 256.817 598.235 254.617C600.202 251.418 599.142 248.322 599.741 244.849C599.98 243.395 600.75 242.146 600.852 240.675C600.955 239.203 600.613 237.852 600.647 236.432C600.782 235.318 600.994 234.215 601.28 233.13C601.322 232.387 601.514 231.659 601.845 230.992C602.278 230.411 602.873 229.97 603.555 229.726C604.878 229.052 606.157 228.298 607.388 227.468C610.073 225.757 612.862 223.67 613.409 220.334C614.162 215.886 613.29 211.489 613.05 207.059C613.05 206.819 612.913 206.58 612.828 206.357C612.195 204.646 611.117 203.312 610.501 201.653C609.492 199.052 607.08 198.231 604.873 196.691C602.371 194.701 599.555 193.14 596.541 192.073C594.985 191.611 593.394 191.268 591.82 190.909C590.246 190.55 588.638 189.849 586.995 189.524C585.561 189.36 584.146 189.056 582.77 188.617C581.31 187.917 579.903 187.111 578.562 186.205C577.455 185.608 576.313 185.082 575.14 184.631L575.602 185.024C576.577 185.88 577.689 186.29 578.698 187.06C580.763 188.956 582.372 191.296 583.403 193.903C584.378 195.905 584.994 197.188 583.899 199.326C583.352 200.421 582.53 201.362 582 202.457C581.128 204.167 581.812 205.348 582.257 207.059C582.402 208.28 582.402 209.515 582.257 210.737C582.286 211.617 582.246 212.498 582.137 213.371C582.43 213.985 582.797 214.559 583.232 215.082C584.224 216.03 585.108 217.086 585.866 218.23C586.403 219.374 586.832 220.565 587.149 221.788C587.356 223.128 587.865 224.403 588.638 225.518C588.656 225.549 588.664 225.586 588.659 225.622C588.655 225.658 588.64 225.692 588.615 225.719C588.59 225.746 588.557 225.764 588.521 225.771C588.485 225.778 588.448 225.773 588.415 225.757C587.577 224.796 587.052 223.603 586.91 222.336C586.585 220.862 586.074 219.436 585.387 218.093C584.927 217.425 584.394 216.811 583.796 216.262C583.282 215.727 582.808 215.156 582.376 214.552L581.983 213.867C581.947 214.043 581.896 214.215 581.829 214.381C580.905 216.741 578.51 218.743 576.697 220.454C576.543 220.608 576.303 220.368 576.457 220.197C578.442 217.939 580.974 215.629 581.436 212.601C581.258 211.944 581.217 211.257 581.316 210.583C581.316 210.446 581.572 210.48 581.555 210.583C581.547 210.742 581.547 210.902 581.555 211.062C581.789 209.816 581.847 208.543 581.726 207.281C581.418 206.186 580.82 205.57 580.837 204.441C580.837 202.525 582.223 201.02 583.112 199.446C584.327 197.29 583.694 196.024 582.513 194.125C581.659 192.815 580.661 191.604 579.537 190.516C577.826 188.805 575.756 187.556 573.891 185.914C571.559 184.253 569.08 182.81 566.484 181.603C564.613 180.275 563.093 178.514 562.053 176.471L561.848 176.128L560.872 175.444C557.775 173.126 555.007 170.398 552.644 167.335C551.995 166.483 551.389 165.598 550.83 164.683C550.83 165.368 550.83 166.052 550.83 166.753C551.07 169.177 551.07 171.618 550.83 174.041C550.798 174.455 550.655 174.852 550.418 175.192C550.18 175.532 549.856 175.802 549.479 175.974C550.053 177.81 550.376 179.715 550.437 181.637C550.484 182.325 550.351 183.013 550.051 183.634C549.751 184.255 549.294 184.787 548.726 185.178C547.78 185.674 546.803 186.108 545.801 186.478C544.535 187.094 543.32 187.864 542.071 188.514C541.438 188.856 540.805 189.164 540.155 189.472H540.275C538.462 190.088 537.264 191.833 535.776 192.979C534.287 194.125 534.869 196.897 535.263 198.625C535.941 201.582 535.665 204.678 534.476 207.469C533.973 208.363 533.604 209.325 533.381 210.326C533.295 211.362 533.295 212.404 533.381 213.44C533.483 215.51 533.381 217.836 534.681 219.598C535.588 220.796 539.112 221.651 539.026 223.448C539.026 223.55 538.855 223.584 538.838 223.448C538.633 222.13 536.152 221.309 535.194 220.591C534.191 219.787 533.506 218.653 533.261 217.391C532.851 215.418 532.695 213.4 532.799 211.387C533.046 209.471 533.464 207.582 534.048 205.741C534.476 203.673 534.51 201.544 534.151 199.463C533.547 197.618 533.185 195.704 533.073 193.766C533.078 193.556 533.118 193.347 533.193 193.15C532.936 193.304 532.696 193.475 532.423 193.612C531.451 194.012 530.522 194.511 529.651 195.1C527.941 196.486 527.239 199.446 526.692 201.516C526.11 204.507 525.903 207.558 526.076 210.6C526.076 211.986 525.973 213.405 526.076 214.791C526.199 215.997 526.411 217.192 526.709 218.367C526.786 219.392 526.786 220.421 526.709 221.446C526.884 222.7 527.147 223.941 527.496 225.158C527.598 226.43 527.564 227.709 527.393 228.973C527.334 230.607 527.554 232.238 528.043 233.798C528.317 234.424 528.429 235.11 528.369 235.791C528.31 236.473 528.08 237.128 527.701 237.698C526.281 239.323 523.886 239.563 522.073 240.504C519.646 241.592 517.35 242.952 515.23 244.558C514.277 246.632 514.083 248.976 514.682 251.179C514.925 254.145 514.833 257.129 514.409 260.075C514.416 260.095 514.419 260.117 514.416 260.139C514.413 260.161 514.405 260.182 514.393 260.2C514.38 260.218 514.363 260.233 514.344 260.243C514.324 260.254 514.302 260.259 514.28 260.259C514.258 260.259 514.237 260.254 514.217 260.243C514.197 260.233 514.181 260.218 514.168 260.2C514.155 260.182 514.147 260.161 514.145 260.139C514.142 260.117 514.144 260.095 514.152 260.075C514.152 258.364 514.46 256.653 514.58 254.942C514.628 253.35 514.514 251.756 514.238 250.186C513.914 248.403 514.103 246.563 514.785 244.883C511.021 248.134 504.914 250.135 504.521 255.781C504.646 257.839 504.17 259.889 503.152 261.683C501.939 263.742 500.56 265.699 499.029 267.533C498.704 267.858 498.225 267.362 498.533 267.037C500.034 265.251 501.379 263.339 502.553 261.323C503.973 259.288 503.58 257.081 503.939 254.771C504.178 253.065 505.036 251.506 506.351 250.392C507.715 249.155 509.161 248.012 510.679 246.97C511.757 246.448 512.782 245.823 513.741 245.106C514.373 244.495 515.042 243.924 515.743 243.395C517.637 242.218 519.596 241.15 521.611 240.196C523.322 239.289 526.606 238.913 527.393 236.774C527.838 235.577 527.017 234.071 526.709 232.925C526.396 231.813 526.274 230.656 526.35 229.504C526.465 228.367 526.511 227.224 526.486 226.082C526.384 224.799 525.785 223.687 525.597 222.438C525.409 221.189 525.734 220.009 525.597 218.777C525.426 217.819 525.049 216.912 524.93 215.937C524.744 213.381 524.704 210.817 524.81 208.256C524.679 205.774 524.753 203.285 525.032 200.814C525.032 200.284 525.203 199.754 525.306 199.206C524.726 199.905 524.237 200.676 523.852 201.499C523.301 202.804 522.866 204.155 522.552 205.536C522.261 206.648 521.748 207.623 521.406 208.718C520.242 212.482 521.32 217.357 517.899 220.248C514.477 223.14 509.071 223.054 505 224.936C503.805 225.342 502.777 226.129 502.074 227.177C501.85 227.781 501.506 228.333 501.065 228.802C499.782 229.914 497.387 230.701 496.668 232.412C496.668 232.583 496.326 232.532 496.395 232.412C496.737 231.334 498.003 230.496 498.824 229.811C499.558 229.353 500.256 228.838 500.911 228.272C501.475 227.656 501.595 226.835 502.126 226.202C503.725 224.769 505.702 223.825 507.822 223.482C510.299 222.952 512.708 222.148 515.007 221.087C516.287 220.613 517.416 219.804 518.275 218.743C518.85 217.796 519.299 216.778 519.609 215.715C520.311 213.491 519.951 211.01 520.636 208.752C520.961 207.692 521.508 206.699 521.816 205.639C522.108 204.478 522.468 203.336 522.894 202.217C523.231 201.257 523.697 200.348 524.28 199.514C524.609 199.147 524.97 198.81 525.357 198.505C525.569 197.275 525.943 196.078 526.469 194.947C527.439 193.349 528.822 192.043 530.473 191.166C532.368 189.828 534.37 188.649 536.46 187.642C538.718 186.564 540.566 184.836 542.721 183.57C543.586 183.078 544.477 182.632 545.39 182.236C546.451 181.757 546.451 182.013 546.673 181.072C546.863 179.027 546.718 176.964 546.246 174.965C546.191 174.683 546.191 174.392 546.246 174.11C546.075 172.228 546.246 170.295 545.955 168.413C545.664 166.531 545.305 164.991 545.168 163.281C545.145 161.8 544.788 160.344 544.124 159.021C543.315 157.989 542.94 156.681 543.081 155.377C543.106 155.192 543.176 155.015 543.286 154.864C543.286 154.436 543.132 153.991 543.046 153.547C542.448 152.644 541.785 151.786 541.062 150.98C539.535 149.114 538.195 147.103 537.059 144.976C536.46 143.83 535.673 142.803 535.057 141.691C534.441 140.579 534.219 139.553 533.569 138.578L533.175 138.27C531.812 137.286 530.577 136.137 529.497 134.848C528.728 134.318 527.975 133.77 527.256 133.24C525.252 131.643 523.344 129.93 521.542 128.108C517.813 124.464 513.998 120.974 510.166 117.45C509.071 117.364 507.976 117.056 506.864 117.022C505.355 117.031 503.876 116.604 502.605 115.79C501.463 114.899 500.23 114.13 498.926 113.498C497.353 112.848 496.634 111.548 495.248 110.744C492.726 109.307 490.074 108.11 487.328 107.168C484.273 106.352 481.551 104.599 479.544 102.156C478.634 100.759 477.904 99.2529 477.371 97.6737C476.687 96.0827 475.66 94.6114 475.01 93.0033C474.36 91.3952 473.556 89.5819 472.94 87.8711C472.598 86.9131 472.615 85.8011 472.29 84.8773C472.051 84.2443 471.537 83.714 471.229 83.1666C470.538 81.4577 469.726 79.7999 468.8 78.2054C467.808 76.7 466.816 75.1945 465.892 73.6548C464.039 70.5504 462.454 67.2939 461.153 63.9207C460.944 63.674 460.798 63.3806 460.726 63.0653L460.623 62.5692C460.556 62.2781 460.548 61.9763 460.601 61.6823C460.654 61.3882 460.766 61.1079 460.931 60.8585C460.825 60.3162 460.921 59.7537 461.201 59.2777C461.482 58.8016 461.927 58.445 462.453 58.2753C465.875 56.9751 469.211 60.6532 472.324 61.5085C474.771 62.1586 477.32 62.4666 479.749 63.2193C481.682 63.7838 484.282 65.6486 483.735 68.0436V68.4028C484.086 68.8288 484.395 69.287 484.659 69.7715C485.309 70.9519 485.788 72.2178 486.37 73.4496C486.951 74.6813 487.43 75.8788 488.08 77.0934C488.544 78.3663 489.116 79.5968 489.791 80.7715C490.511 81.6381 491.089 82.6141 491.502 83.6627C491.761 84.7088 492.194 85.7037 492.785 86.6052C493.361 87.263 493.839 88.0005 494.205 88.7949C494.393 89.3082 494.205 90.0096 494.427 90.5057C494.693 91.062 495.032 91.5799 495.437 92.0453C496.606 94.014 497.662 96.0473 498.601 98.1356C498.936 98.8843 499.393 99.5723 499.953 100.171C500.86 100.993 502.04 101.506 502.912 102.395C503.203 102.669 503.922 103.285 503.682 103.268C504.123 103.431 504.547 103.637 504.948 103.884C506.026 104.585 507.001 105.423 508.079 106.125C510.353 107.538 512.499 109.147 514.494 110.932L514.717 111.137C515.671 111.1 516.626 111.14 517.574 111.257C521.782 112.437 524.536 115.825 527.273 118.938C528.71 120.649 530.695 121.333 532.217 122.907C533.546 124.392 534.758 125.976 535.844 127.646C536.582 128.825 537.201 130.074 537.692 131.375C538.325 132.008 538.941 132.641 539.591 133.257C541.182 134.78 544.295 137.141 544.826 139.638C545.403 139.815 545.904 140.183 546.246 140.682C547.956 143.419 548.196 146.686 548.521 149.92C549.594 152.674 550.905 155.33 552.438 157.858C554.121 160.558 556.045 163.1 558.187 165.453C560.644 167.85 563.378 169.946 566.33 171.698C569.341 173.699 572.471 175.53 575.585 177.343C577.296 178.318 579.006 179.139 580.82 179.995C581.339 180.089 581.867 180.124 582.394 180.097C583.924 179.886 585.471 179.829 587.013 179.926C588.376 180.141 589.767 180.106 591.118 179.824C592.636 179.348 594.185 178.982 595.754 178.729C596.969 178.592 598.167 178.421 599.381 178.352C599.955 178.321 600.527 178.252 601.092 178.147C601.902 177.394 602.689 176.625 603.453 175.838C605.164 174.127 607.849 173.323 609.834 171.954C610.758 171.304 610.997 170.158 611.887 169.456C612.519 169.034 613.25 168.781 614.008 168.721C615.936 168.433 617.906 168.7 619.688 169.491C620.573 169.976 621.353 170.633 621.98 171.424C622.245 171.752 622.49 172.094 622.716 172.45C623.164 173.038 623.708 173.547 624.324 173.956C624.707 173.733 625.115 173.555 625.539 173.425C625.961 173.069 626.458 172.812 626.993 172.673C628.703 172.279 630.414 173.22 632.125 173.494C632.929 173.357 633.716 173.135 634.537 172.963C635.349 172.776 636.19 172.75 637.012 172.888C637.834 173.026 638.621 173.325 639.327 173.768C641.363 175.033 643.057 176.796 645.058 178.113C645.931 178.677 646.854 179.105 647.778 179.601C648.702 180.097 649.763 181.072 650.84 181.654C652.076 182.152 653.345 182.563 654.638 182.886C655.883 183.402 657.21 183.691 658.556 183.741C660.386 183.741 662.217 183.964 664.013 184.135C665.194 184.254 666.306 184.528 667.52 184.562C668.199 184.547 668.875 184.646 669.522 184.853C671.572 185.793 673.521 186.939 675.338 188.275C675.762 188.548 676.158 188.863 676.519 189.216C676.528 189.193 676.543 189.174 676.563 189.161C676.583 189.147 676.606 189.14 676.63 189.14C676.654 189.14 676.677 189.147 676.697 189.161C676.717 189.174 676.732 189.193 676.741 189.216C677.135 189.91 677.693 190.498 678.366 190.926C678.992 191.224 679.675 191.382 680.368 191.388C681.715 191.362 683.061 191.465 684.388 191.696C686.057 191.959 687.633 192.635 688.973 193.663C689.492 194.175 690.066 194.628 690.684 195.015C690.894 195.116 691.07 195.277 691.188 195.478C691.307 195.679 691.364 195.911 691.351 196.144C691.351 196.18 691.336 196.215 691.311 196.241C691.285 196.266 691.25 196.281 691.214 196.281C691.178 196.281 691.143 196.266 691.117 196.241C691.092 196.215 691.077 196.18 691.077 196.144C691.077 195.477 689.999 195.254 689.537 194.878C688.951 194.298 688.309 193.777 687.621 193.321C686.017 192.537 684.272 192.077 682.489 191.97C680.928 192.04 679.372 191.754 677.939 191.132C678.332 191.85 678.708 192.62 679.222 193.458C680.834 195.78 682.673 197.934 684.713 199.891ZM496.531 108.109C496.531 108.109 496.377 108.4 496.531 108.109V108.109ZM487.636 104.174C487.89 104.527 488.259 104.781 488.679 104.893C489.115 105.053 489.569 105.163 490.031 105.218C490.321 105.218 490.629 105.218 490.92 105.321C491.226 105.395 491.524 105.498 491.81 105.629C492.336 105.84 492.831 106.122 493.281 106.467C493.552 106.67 493.852 106.831 494.171 106.946C494.461 107.031 494.752 107.031 495.043 107.117C495.111 107.135 495.183 107.138 495.252 107.124C495.322 107.11 495.387 107.081 495.443 107.038C495.5 106.995 495.545 106.939 495.577 106.876C495.608 106.813 495.624 106.743 495.625 106.672C495.625 105.971 494.992 105.44 494.496 105.064C493.88 104.601 493.192 104.242 492.46 104.003C492.061 103.887 491.677 103.726 491.314 103.524C491.04 103.304 490.754 103.098 490.458 102.909C490.092 102.768 489.696 102.723 489.307 102.776C488.918 102.83 488.549 102.982 488.234 103.216C488.118 103.206 488 103.228 487.896 103.28C487.791 103.332 487.702 103.412 487.64 103.511C487.578 103.611 487.545 103.725 487.544 103.842C487.543 103.959 487.575 104.074 487.636 104.174ZM494.171 101.061L493.794 100.685C493.618 100.59 493.435 100.51 493.247 100.445C492.87 100.257 492.785 99.8121 492.408 99.5897C492.082 99.404 491.745 99.2383 491.399 99.0936C490.952 99.0163 490.495 99.0163 490.048 99.0936C489.555 99.0332 489.076 98.8947 488.628 98.683C487.746 98.4893 486.837 98.4488 485.942 98.5633H485.719C485.697 98.5633 485.675 98.5723 485.659 98.5883C485.643 98.6044 485.634 98.6261 485.634 98.6488C485.634 98.6715 485.643 98.6932 485.659 98.7093C485.675 98.7253 485.697 98.7343 485.719 98.7343H485.925C486.87 98.6775 487.817 98.8053 488.713 99.1107C489.052 99.2974 489.414 99.4356 489.791 99.5213C490.247 99.4872 490.704 99.4872 491.16 99.5213C491.356 99.601 491.545 99.6984 491.724 99.8121C491.878 99.8121 492.049 99.9319 492.203 100.017C492.357 100.103 492.597 100.616 492.956 100.787C493.161 100.858 493.362 100.944 493.555 101.044C493.723 101.158 493.873 101.296 493.999 101.454C494.342 101.797 494.718 102.104 495.094 102.412C495.094 102.412 495.283 102.412 495.214 102.31C494.855 101.848 494.478 101.454 494.136 101.061H494.171ZM497.421 105.731C497.183 105.045 496.742 104.448 496.155 104.021C495.454 103.363 494.679 102.789 493.846 102.31C492.905 101.848 491.912 101.472 490.937 101.061C490.101 100.709 489.229 100.451 488.337 100.291C487.67 100.192 486.989 100.338 486.421 100.702C485.908 101.027 485.223 101.797 484.573 101.728C484.573 101.728 484.471 101.865 484.573 101.882C485.446 102.122 486.284 101.044 487.071 100.804C487.932 100.656 488.817 100.782 489.603 101.164C490.374 101.389 491.129 101.669 491.861 102.002C493.427 102.725 494.883 103.664 496.189 104.79C496.754 105.252 497.216 105.646 497.147 106.501C497.132 106.755 497.092 107.008 497.027 107.254C496.952 107.534 496.83 107.8 496.668 108.041C496.744 108.015 496.814 107.974 496.874 107.921C497.026 107.71 497.136 107.472 497.199 107.22C497.389 106.748 497.454 106.235 497.387 105.731H497.421ZM564.619 178.147C565.944 179.442 567.507 180.47 569.221 181.175C567.733 180.251 566.176 179.208 564.619 178.147ZM622.493 173.408C621.807 172.241 620.901 171.219 619.825 170.397C618.62 169.772 617.281 169.449 615.924 169.456C615.079 169.283 614.202 169.378 613.414 169.728C612.625 170.077 611.966 170.664 611.528 171.407C611.218 171.941 610.761 172.375 610.21 172.656C609.269 173.169 608.5 173.836 607.473 174.366C606.029 174.952 604.689 175.766 603.504 176.778L602.238 177.942C602.767 177.784 603.282 177.584 603.778 177.343C605.951 176.265 609.013 177.343 611.356 177.343C613.067 177.454 614.785 177.414 616.489 177.223C616.997 177.106 617.511 177.014 618.028 176.95C619.165 176.698 620.272 176.325 621.33 175.838C622.149 175.397 622.943 174.911 623.708 174.383C623.262 174.114 622.853 173.786 622.493 173.408Z" fill="#E13A4B"/>
<path d="M698.057 192.5C697.956 192.757 697.842 193.008 697.715 193.253V193.373V193.458C697.697 193.541 697.668 193.622 697.629 193.698C697.553 193.982 697.462 194.262 697.355 194.536C697.288 194.743 697.202 194.943 697.099 195.135C697.099 195.135 696.705 195.596 696.722 195.614C696.74 195.631 696.876 195.408 696.722 195.614L696.603 195.785L696.243 196.247C696.053 196.452 695.841 196.635 695.61 196.794C695.468 196.853 695.308 196.853 695.166 196.794C695.104 196.865 695.024 196.919 694.935 196.949C694.845 196.979 694.75 196.985 694.657 196.966C694.565 196.947 694.479 196.903 694.409 196.84C694.339 196.777 694.287 196.696 694.259 196.606C694.066 196.103 693.928 195.581 693.848 195.049C693.712 194.487 693.712 193.9 693.848 193.338C694.146 192.591 694.581 191.906 695.131 191.32C695.367 190.953 695.705 190.663 696.103 190.487C696.501 190.311 696.943 190.255 697.373 190.327C697.573 190.411 697.753 190.537 697.899 190.697C698.046 190.857 698.155 191.047 698.22 191.254C698.286 191.461 698.305 191.68 698.277 191.895C698.248 192.11 698.173 192.317 698.057 192.5Z" fill="white"/>
<path d="M697.612 193.373V193.475C697.619 193.442 697.619 193.407 697.612 193.373Z" fill="white"/>
<path d="M700.503 218.469C699.922 219.427 698.69 218.811 697.989 218.469C697.397 218.089 696.826 217.678 696.278 217.238C695.495 216.76 694.843 216.096 694.379 215.304C694.174 215.15 693.968 215.014 693.78 214.842C693.602 214.663 693.501 214.42 693.501 214.167C693.501 213.914 693.602 213.671 693.78 213.491C693.96 213.312 694.203 213.212 694.456 213.212C694.709 213.212 694.952 213.312 695.132 213.491L695.32 213.662H695.422C695.543 213.763 695.675 213.849 695.816 213.919C696.124 214.124 696.449 214.295 696.791 214.483C697.46 214.829 698.095 215.236 698.69 215.698C699.118 216.04 699.528 216.433 699.956 216.793C700.384 217.152 700.897 217.888 700.503 218.469Z" fill="white"/>
<path d="M692.36 220.727C692.335 221.2 692.203 221.661 691.975 222.075C691.747 222.49 691.428 222.848 691.043 223.123C690.835 223.263 690.618 223.388 690.393 223.499C690.346 223.684 690.289 223.867 690.222 224.046C690.222 224.2 690.119 224.337 690.068 224.474C689.99 224.614 689.899 224.746 689.794 224.867C689.749 224.939 689.689 224.999 689.618 225.044C689.546 225.089 689.466 225.117 689.382 225.127C689.299 225.137 689.214 225.128 689.134 225.101C689.054 225.074 688.982 225.029 688.922 224.97C688.76 224.835 688.638 224.659 688.569 224.46C688.499 224.261 688.485 224.047 688.528 223.841C688.538 223.71 688.538 223.579 688.528 223.448V223.242C688.422 223.028 688.377 222.788 688.398 222.55C688.419 222.311 688.505 222.083 688.648 221.891C688.682 221.563 688.734 221.238 688.802 220.916C688.942 220.309 689.185 219.73 689.52 219.205C689.828 218.692 690.153 218.161 690.495 217.648C690.597 217.481 690.744 217.346 690.92 217.261C691.097 217.176 691.294 217.144 691.488 217.169C691.68 217.196 691.86 217.278 692.006 217.405C692.152 217.533 692.257 217.701 692.309 217.888C692.457 218.827 692.475 219.783 692.36 220.727Z" fill="white"/>
<path d="M698.296 204.51C698.18 204.679 698.021 204.815 697.835 204.903C697.422 205.144 696.956 205.279 696.479 205.297C696.001 205.315 695.527 205.215 695.097 205.006L694.618 204.835C694.527 204.879 694.428 204.908 694.328 204.92C694.203 204.938 694.076 204.938 693.951 204.92H693.849H693.541H692.754C691.779 204.92 690.786 204.578 690.478 203.535C690.399 203.226 690.441 202.899 690.598 202.622C690.754 202.344 691.012 202.138 691.317 202.046C692.241 201.822 693.203 201.793 694.139 201.961C694.687 201.961 695.217 201.961 695.747 202.063C696.417 202.093 697.075 202.256 697.681 202.542C697.856 202.625 698.012 202.743 698.139 202.89C698.266 203.036 698.361 203.206 698.419 203.391C698.477 203.576 698.496 203.771 698.475 203.963C698.454 204.156 698.393 204.342 698.296 204.51Z" fill="white"/>
<path d="M688.066 207.811C687.587 208.701 687.159 209.625 686.663 210.514C686.413 210.942 686.121 211.343 685.791 211.712C685.646 211.922 685.455 212.098 685.233 212.225C685.011 212.353 684.763 212.428 684.508 212.447C684.209 212.435 683.925 212.314 683.71 212.105C683.496 211.897 683.365 211.617 683.344 211.318C683.305 210.843 683.406 210.367 683.635 209.95C683.833 209.58 684.074 209.235 684.354 208.923L684.884 208.393C684.884 208.239 685.089 208.102 685.192 207.948C685.044 207.968 684.893 207.938 684.764 207.862C684.595 207.764 684.45 207.628 684.34 207.465C684.23 207.302 684.159 207.116 684.131 206.922C683.994 206.198 683.994 205.455 684.131 204.732C684.21 204.27 684.312 203.814 684.439 203.363C684.487 202.595 684.781 201.864 685.278 201.276C685.361 201.191 685.466 201.129 685.581 201.097C685.697 201.064 685.818 201.063 685.934 201.092C686.05 201.122 686.157 201.181 686.242 201.264C686.328 201.348 686.391 201.452 686.424 201.567C686.604 202.493 686.604 203.446 686.424 204.373C686.45 205.188 686.346 206.002 686.116 206.785C686.344 206.624 686.591 206.492 686.852 206.391C687.037 206.338 687.234 206.342 687.418 206.404C687.601 206.465 687.761 206.58 687.878 206.733C688.012 206.875 688.101 207.052 688.134 207.244C688.167 207.436 688.144 207.633 688.066 207.811Z" fill="white"/>
<path d="M655.288 195.819C655.35 195.887 655.397 195.967 655.425 196.054C655.453 196.142 655.462 196.235 655.45 196.326C655.439 196.417 655.408 196.504 655.359 196.582C655.311 196.66 655.245 196.727 655.169 196.777C655.012 196.875 654.836 196.938 654.653 196.961C654.47 196.985 654.284 196.969 654.108 196.914C653.76 196.779 653.457 196.547 653.235 196.247C653.101 196.095 652.975 195.935 652.859 195.768L652.705 195.562C652.705 195.562 652.534 195.272 652.705 195.562C652.506 195.286 652.283 195.029 652.038 194.792C651.423 194.17 650.893 193.468 650.464 192.705C650.306 192.452 650.211 192.164 650.187 191.867C650.163 191.569 650.211 191.27 650.327 190.995C650.521 190.713 650.801 190.503 651.125 190.395C651.449 190.287 651.8 190.287 652.123 190.396C652.752 190.599 653.329 190.936 653.814 191.386C654.299 191.835 654.679 192.385 654.929 192.996C655.163 193.539 655.302 194.117 655.34 194.707C655.371 195.021 655.354 195.339 655.288 195.648V195.819Z" fill="white"/>
<path d="M661.088 178.421L660.814 178.523L660.66 178.643C660.403 178.848 660.181 179.088 659.907 179.276C659.468 179.567 658.961 179.738 658.436 179.772C658.171 179.926 657.897 180.063 657.615 180.183C657.284 180.318 656.922 180.353 656.572 180.283C656.222 180.213 655.9 180.041 655.647 179.789C655.515 179.65 655.437 179.468 655.425 179.276C655.416 179.225 655.416 179.173 655.425 179.122C655.324 179.003 655.269 178.851 655.271 178.694C655.271 178.044 655.904 177.873 656.469 177.839C656.977 177.591 657.511 177.396 658.06 177.257L658.607 177.103C658.932 177.103 659.257 177.103 659.531 176.949C659.801 176.799 660.081 176.667 660.369 176.556C660.797 176.461 661.244 176.497 661.652 176.659C661.783 176.699 661.898 176.778 661.983 176.885C662.069 176.991 662.12 177.121 662.131 177.257C662.131 177.907 661.635 178.25 661.088 178.421Z" fill="white"/>
<path d="M680.573 153.717C680.309 154.343 679.945 154.921 679.495 155.428C679.337 155.775 679.211 156.136 679.119 156.506C679.033 156.78 678.914 157.053 678.811 157.344C678.708 157.635 678.435 158.764 677.853 159.055C677.72 159.11 677.578 159.138 677.434 159.138C677.29 159.138 677.148 159.11 677.015 159.055C676.944 159.082 676.867 159.092 676.792 159.084C676.716 159.076 676.644 159.05 676.58 159.008C676.517 158.966 676.464 158.91 676.426 158.844C676.389 158.777 676.368 158.703 676.365 158.627C676.322 157.79 676.322 156.95 676.365 156.113C676.365 155.651 676.365 155.172 676.365 154.71C676.385 153.731 676.65 152.772 677.135 151.921C677.398 151.48 677.82 151.155 678.315 151.015C678.628 150.944 678.954 150.963 679.256 151.069C679.559 151.175 679.825 151.363 680.026 151.613C680.273 151.898 680.451 152.236 680.546 152.601C680.641 152.966 680.65 153.348 680.573 153.717Z" fill="white"/>
<path d="M683.054 175.359C682.849 175.578 682.605 175.758 682.335 175.889L681.942 175.974L681.805 176.077C681.425 176.307 680.998 176.448 680.556 176.488H680.368C679.626 177.013 678.758 177.332 677.853 177.411C677.671 177.403 677.5 177.326 677.373 177.195C677.246 177.065 677.173 176.892 677.169 176.71C677.193 176.35 677.311 176.002 677.511 175.701C677.544 175.629 677.584 175.56 677.63 175.495C677.958 175.095 678.366 174.769 678.828 174.537C679.133 174.377 679.448 174.235 679.769 174.11C680.115 173.922 680.476 173.762 680.847 173.631C681.193 173.51 681.558 173.452 681.924 173.46H682.164C682.249 173.459 682.332 173.478 682.409 173.513C682.486 173.549 682.554 173.6 682.609 173.665C682.723 173.719 682.823 173.798 682.903 173.895C682.983 173.993 683.04 174.107 683.071 174.229C683.122 174.408 683.122 174.598 683.071 174.777C683.129 174.863 683.159 174.966 683.156 175.07C683.153 175.175 683.117 175.276 683.054 175.359Z" fill="white"/>
<path d="M632.689 204.852C631.971 205.296 631.201 204.663 630.756 204.133C630.112 203.338 629.583 202.457 629.182 201.516L628.293 200.455C627.899 199.925 627.386 199.155 627.78 198.488C628.173 197.82 628.943 198.026 629.49 198.248C629.965 198.431 630.396 198.711 630.756 199.069C631.112 199.429 631.422 199.832 631.68 200.267C631.787 200.455 631.884 200.65 631.971 200.848C631.971 200.848 631.971 201.037 632.091 201.139C632.364 201.704 632.672 202.268 632.912 202.85C633.151 203.432 633.357 204.441 632.689 204.852Z" fill="white"/>
<path d="M647.077 157.413C646.864 157.924 646.489 158.352 646.01 158.63C645.532 158.908 644.975 159.021 644.425 158.952C643.86 158.952 643.33 158.798 642.714 158.73H641.722C641.299 158.824 640.861 158.832 640.435 158.752C640.008 158.673 639.602 158.508 639.241 158.268C639.102 158.127 639.023 157.936 639.023 157.738C639.023 157.539 639.102 157.348 639.241 157.207C639.486 156.976 639.778 156.802 640.097 156.695C640.416 156.589 640.755 156.553 641.089 156.592C641.705 156.592 642.304 156.711 642.92 156.711H643.313L643.758 156.592C644.105 156.482 644.46 156.396 644.819 156.335C645.193 156.224 645.589 156.212 645.97 156.299C646.35 156.386 646.702 156.569 646.991 156.831C647.059 156.91 647.103 157.006 647.119 157.109C647.134 157.212 647.119 157.318 647.077 157.413Z" fill="white"/>
<path d="M644.511 124.686C643.826 125.507 642.8 126.842 641.654 126.654H641.568C641.491 126.707 641.402 126.74 641.308 126.749C641.215 126.758 641.121 126.743 641.035 126.705C640.949 126.668 640.874 126.608 640.818 126.533C640.761 126.459 640.725 126.37 640.713 126.277C640.69 125.907 640.736 125.536 640.85 125.182C640.824 125.058 640.824 124.93 640.85 124.806C640.985 124.377 641.226 123.989 641.551 123.677L641.637 123.574C641.666 123.343 641.711 123.115 641.773 122.89C642.085 121.984 642.58 121.151 643.228 120.444C643.775 119.845 645.178 118.972 645.794 119.999C645.868 120.147 645.903 120.312 645.896 120.478C646.009 120.509 646.112 120.569 646.193 120.654C646.275 120.738 646.332 120.843 646.358 120.957C646.328 121.673 646.148 122.375 645.829 123.017C645.511 123.66 645.062 124.228 644.511 124.686Z" fill="white"/>
<path d="M650.498 140.904C650.063 141.144 649.575 141.269 649.078 141.269C648.582 141.269 648.093 141.144 647.658 140.904L646.392 140.476C645.791 140.23 645.174 140.025 644.545 139.861C644.362 139.806 644.205 139.688 644.101 139.528C643.997 139.367 643.954 139.176 643.978 138.986C644.003 138.797 644.094 138.623 644.235 138.495C644.377 138.366 644.559 138.293 644.75 138.287C645.349 138.287 645.948 138.287 646.461 138.287H646.752C647.232 138.264 647.713 138.328 648.172 138.475C649.024 138.625 649.807 139.037 650.413 139.655C650.589 139.81 650.696 140.028 650.712 140.262C650.728 140.496 650.651 140.727 650.498 140.904Z" fill="white"/>
<path d="M606.737 146.857C605.951 147.097 605.403 146.395 605.3 145.694C605.172 144.912 605.172 144.115 605.3 143.333C605.328 143.161 605.38 142.994 605.454 142.837C605.454 142.666 605.454 142.495 605.591 142.324C605.649 141.948 605.753 141.58 605.899 141.229C605.959 141.13 606.049 141.052 606.156 141.007C606.156 141.007 606.156 140.921 606.156 140.87C606.156 140.476 606.772 140.391 606.84 140.767C606.849 140.847 606.849 140.927 606.84 141.007C606.926 141.037 607.003 141.089 607.063 141.158C607.123 141.227 607.164 141.311 607.182 141.4C607.241 141.653 607.241 141.917 607.182 142.17C607.36 143.02 607.451 143.885 607.456 144.753C607.49 145.523 607.678 146.584 606.737 146.857Z" fill="white"/>
<path d="M557.417 200.438C557.527 200.611 557.581 200.815 557.571 201.02C557.571 201.824 556.613 201.841 556.031 201.687C555.271 201.463 554.559 201.103 553.927 200.626L553.174 200.284C552.888 200.173 552.629 200.003 552.414 199.785C552.199 199.567 552.032 199.305 551.925 199.018C551.879 198.855 551.869 198.683 551.898 198.516C551.927 198.349 551.994 198.19 552.092 198.052C552.191 197.914 552.319 197.8 552.468 197.719C552.617 197.637 552.782 197.59 552.952 197.581C553.305 197.573 553.654 197.661 553.961 197.838C554.296 197.989 554.622 198.16 554.936 198.351C555.538 198.696 556.111 199.091 556.647 199.531C556.796 199.649 556.934 199.781 557.057 199.925C557.133 199.972 557.202 200.03 557.263 200.096C557.342 200.195 557.395 200.313 557.417 200.438Z" fill="white"/>
<path d="M581.521 230.068C581.493 230.532 581.412 230.991 581.282 231.437C581.273 231.522 581.273 231.608 581.282 231.693C581.186 232.102 581.042 232.498 580.854 232.874C580.682 233.189 580.588 233.541 580.58 233.9C580.582 233.973 580.57 234.046 580.544 234.115C580.517 234.183 580.477 234.246 580.426 234.298C580.375 234.351 580.314 234.393 580.246 234.421C580.179 234.45 580.106 234.465 580.033 234.465C579.884 234.46 579.743 234.399 579.638 234.294C579.533 234.19 579.473 234.048 579.468 233.9C579.46 233.623 579.495 233.346 579.571 233.079C579.555 232.988 579.555 232.896 579.571 232.805C579.562 232.686 579.562 232.566 579.571 232.446C579.571 231.933 579.571 231.402 579.571 230.889C579.572 230.406 579.653 229.926 579.81 229.469C580.033 228.905 580.529 228.374 581.179 228.699C581.829 229.024 581.521 229.623 581.521 230.068Z" fill="white"/>
<path d="M597.345 223.567C597.041 223.685 596.713 223.732 596.387 223.704C595.667 223.582 594.986 223.288 594.403 222.849C593.914 222.611 593.469 222.293 593.085 221.908C592.823 221.634 592.665 221.277 592.641 220.898C592.61 220.669 592.657 220.437 592.775 220.238C592.893 220.039 593.075 219.886 593.291 219.803C593.864 219.74 594.441 219.886 594.916 220.214H595.036C595.447 220.35 595.838 220.54 596.199 220.779C596.524 220.984 596.9 221.121 597.243 221.309C597.585 221.497 598.303 222.045 598.132 222.712C598.088 222.911 597.991 223.095 597.853 223.245C597.715 223.395 597.54 223.506 597.345 223.567Z" fill="white"/>
<path d="M601.468 215.39C601.468 215.783 601.366 216.177 601.297 216.587C601.208 217.307 600.956 217.997 600.562 218.606C600.51 218.677 600.443 218.737 600.366 218.781C600.29 218.825 600.205 218.853 600.117 218.862C600.08 218.951 600.013 219.025 599.929 219.071C599.845 219.118 599.747 219.135 599.652 219.119C599.557 219.103 599.47 219.056 599.406 218.984C599.341 218.913 599.302 218.822 599.296 218.726C599.21 217.981 599.21 217.229 599.296 216.484C599.429 215.705 599.813 214.99 600.391 214.449C600.448 214.335 600.537 214.24 600.647 214.175C600.736 214.108 600.844 214.072 600.955 214.072C601.066 214.072 601.174 214.108 601.263 214.175C601.639 214.466 601.52 214.996 601.468 215.39Z" fill="white"/>
<path d="M672.396 240.35C672.365 240.474 672.301 240.587 672.211 240.678C672.12 240.768 672.007 240.832 671.882 240.863C671.412 240.931 670.933 240.931 670.463 240.863C669.811 240.812 669.165 240.709 668.529 240.555C667.96 240.431 667.417 240.211 666.921 239.905C666.626 239.745 666.398 239.484 666.279 239.17C666.16 238.856 666.157 238.51 666.271 238.194C666.477 237.698 667.161 237.613 667.64 237.578C668.077 237.527 668.519 237.527 668.957 237.578C669.491 237.654 670.01 237.809 670.497 238.04C671.02 238.235 671.494 238.545 671.882 238.947C672.114 239.088 672.291 239.304 672.385 239.558C672.478 239.813 672.482 240.092 672.396 240.35Z" fill="white"/>
<path d="M656.879 188.651C656.737 188.78 656.582 188.894 656.417 188.993C656.425 189.055 656.425 189.119 656.417 189.181C656.415 189.323 656.383 189.463 656.324 189.593C656.265 189.722 656.181 189.838 656.075 189.934C655.584 190.309 654.983 190.513 654.365 190.516C653.795 190.55 653.224 190.55 652.654 190.516C652.564 190.511 652.48 190.474 652.416 190.411C652.353 190.347 652.316 190.263 652.312 190.173C651.679 190.071 651.114 189.78 651.046 189.027C651.042 188.938 651.062 188.85 651.105 188.772C651.147 188.694 651.209 188.628 651.285 188.582C651.674 188.379 652.115 188.296 652.551 188.343C653.043 187.951 653.636 187.708 654.262 187.642C655.021 187.462 655.812 187.462 656.571 187.642C656.686 187.649 656.795 187.691 656.884 187.763C656.974 187.834 657.04 187.931 657.073 188.04C657.107 188.15 657.106 188.267 657.071 188.376C657.037 188.485 656.97 188.581 656.879 188.651Z" fill="white"/>
<path d="M659.206 244.917C658.912 245.012 658.598 245.026 658.296 244.957C657.995 244.887 657.718 244.738 657.495 244.524C657.17 244.216 656.896 243.857 656.571 243.532C656.246 243.207 655.699 242.522 655.271 242.009C654.844 241.496 654.228 241.085 654.416 240.298C654.437 240.173 654.482 240.054 654.549 239.946C654.616 239.839 654.704 239.746 654.808 239.673C654.911 239.6 655.028 239.548 655.152 239.52C655.275 239.492 655.403 239.489 655.528 239.511C655.67 239.554 655.808 239.611 655.938 239.682C656.235 239.845 656.515 240.034 656.777 240.247C657.381 240.749 657.921 241.323 658.385 241.958C658.623 242.262 658.797 242.611 658.898 242.984C658.949 243.186 658.949 243.398 658.898 243.6L659.001 243.686C658.881 243.566 659.001 243.686 659.001 243.686C659.138 243.695 659.269 243.752 659.369 243.847C659.47 243.941 659.535 244.067 659.553 244.204C659.571 244.341 659.541 244.48 659.469 244.598C659.396 244.715 659.285 244.804 659.155 244.849L659.206 244.917Z" fill="white"/>
<path d="M610.586 260.759C610.514 261.043 610.386 261.311 610.21 261.546L610.022 261.768C610.004 262.064 610.004 262.361 610.022 262.658C610.018 262.829 609.948 262.991 609.827 263.112C609.706 263.233 609.543 263.303 609.372 263.308C609.199 263.304 609.034 263.234 608.911 263.114C608.787 262.993 608.713 262.83 608.705 262.658C608.656 261.976 608.702 261.291 608.841 260.622C608.833 260.559 608.833 260.496 608.841 260.434C608.97 260.114 609.062 259.781 609.115 259.441C609.153 259.236 609.228 259.038 609.338 258.86C609.407 258.74 609.511 258.644 609.635 258.583C609.759 258.522 609.899 258.5 610.036 258.518C610.173 258.536 610.302 258.595 610.406 258.686C610.51 258.777 610.585 258.897 610.621 259.031C610.747 259.601 610.735 260.194 610.586 260.759Z" fill="white"/>
<path d="M635.119 279.714C635.03 279.856 634.891 279.959 634.729 280.004C634.568 280.048 634.395 280.03 634.246 279.953C634.032 280.038 633.793 280.038 633.579 279.953C633.204 279.79 632.843 279.596 632.501 279.371C632.159 279.213 631.86 278.975 631.628 278.677C631.396 278.38 631.238 278.031 631.167 277.661C631.159 277.614 631.163 277.567 631.178 277.522C631.193 277.477 631.218 277.437 631.252 277.404C631.266 277.315 631.298 277.229 631.348 277.153C631.397 277.078 631.462 277.013 631.538 276.965C631.614 276.916 631.7 276.884 631.789 276.872C631.879 276.859 631.97 276.865 632.056 276.891C632.722 277.035 633.354 277.302 633.921 277.678C634.1 277.854 634.266 278.042 634.417 278.242C634.522 278.388 634.614 278.542 634.691 278.704C634.772 278.727 634.844 278.775 634.896 278.841C634.969 278.883 635.032 278.94 635.082 279.007C635.132 279.074 635.169 279.15 635.19 279.231C635.21 279.312 635.215 279.396 635.203 279.479C635.19 279.562 635.162 279.642 635.119 279.714Z" fill="white"/>
<path d="M627.403 284.607C627.368 284.717 627.3 284.814 627.208 284.884C627.117 284.954 627.005 284.995 626.89 285C626.7 284.983 626.515 284.927 626.348 284.835C626.18 284.744 626.033 284.62 625.915 284.47C625.664 284.211 625.482 283.893 625.384 283.546C625.333 283.2 625.333 282.848 625.384 282.502C625.293 282.26 625.236 282.007 625.213 281.75C624.99 280.931 624.926 280.077 625.025 279.235C625.073 279.081 625.177 278.952 625.317 278.872C625.457 278.793 625.622 278.769 625.778 278.807C626.237 279.05 626.632 279.398 626.929 279.824C627.227 280.249 627.418 280.739 627.489 281.253C627.713 282.383 627.713 283.546 627.489 284.675L627.403 284.607Z" fill="white"/>
<path d="M651.867 264.334C651.9 264.452 651.9 264.576 651.867 264.694C651.75 264.869 651.574 264.997 651.371 265.053C650.987 265.13 650.591 265.13 650.207 265.053C649.723 264.99 649.247 264.875 648.787 264.711C648.445 264.591 647.966 264.454 647.778 264.112C647.728 264.049 647.701 263.97 647.701 263.89C647.701 263.809 647.728 263.731 647.778 263.667C647.755 263.578 647.758 263.485 647.785 263.397C647.812 263.31 647.863 263.231 647.932 263.171C648.153 262.969 648.437 262.848 648.736 262.829C649.036 262.777 649.343 262.777 649.643 262.829C649.961 262.786 650.283 262.786 650.601 262.829C651.182 262.932 652.004 263.274 651.969 263.992C651.972 264.114 651.936 264.234 651.867 264.334Z" fill="white"/>
<path d="M643.878 261.272L643.741 261.665C643.604 261.973 643.399 262.247 643.245 262.538C642.933 263.21 642.463 263.797 641.876 264.249C641.8 264.291 641.716 264.315 641.629 264.32C641.542 264.325 641.455 264.311 641.375 264.278C641.295 264.245 641.223 264.195 641.164 264.13C641.106 264.066 641.063 263.99 641.038 263.906C640.935 263.504 640.926 263.083 641.012 262.677C641.098 262.27 641.277 261.889 641.534 261.563C641.802 261.175 642.138 260.839 642.526 260.571C642.668 260.311 642.874 260.093 643.125 259.938C643.192 259.897 643.267 259.871 643.345 259.863C643.423 259.854 643.502 259.862 643.577 259.886C643.652 259.91 643.72 259.951 643.778 260.004C643.836 260.057 643.881 260.122 643.912 260.194C644.029 260.25 644.12 260.348 644.168 260.468C644.211 260.538 644.238 260.617 644.246 260.698C644.254 260.78 644.244 260.863 644.216 260.94C644.188 261.017 644.143 261.087 644.085 261.144C644.026 261.202 643.955 261.245 643.878 261.272Z" fill="white"/>
<path d="M658.71 256.277C658.668 256.717 658.565 257.149 658.402 257.56C658.214 257.988 657.837 258.603 657.273 258.449C656.708 258.296 656.657 257.577 656.657 257.081C656.692 256.46 656.773 255.843 656.896 255.233C656.941 254.95 657.004 254.67 657.085 254.395C657.131 254.173 657.212 253.959 657.324 253.762C657.381 253.67 657.46 253.594 657.554 253.541C657.649 253.489 657.755 253.461 657.863 253.461C657.971 253.461 658.077 253.489 658.172 253.541C658.266 253.594 658.345 253.67 658.402 253.762C658.402 253.762 658.402 253.762 658.505 253.762C658.61 253.866 658.687 253.996 658.727 254.138C658.735 254.252 658.735 254.367 658.727 254.481V255.079C658.75 255.478 658.744 255.879 658.71 256.277Z" fill="white"/>
<path d="M673.474 253.215C673.085 253.488 672.612 253.615 672.139 253.574C671.734 253.838 671.27 253.997 670.788 254.036C670.432 254.056 670.075 253.997 669.744 253.865C669.403 253.758 669.116 253.526 668.94 253.215C668.863 253.199 668.79 253.169 668.726 253.125C668.661 253.081 668.606 253.024 668.564 252.958C668.493 252.849 668.445 252.727 668.423 252.598C668.401 252.47 668.405 252.339 668.436 252.212C668.466 252.086 668.522 251.967 668.6 251.863C668.678 251.759 668.776 251.671 668.889 251.607C669.246 251.438 669.644 251.378 670.035 251.435C670.263 251.452 670.491 251.452 670.719 251.435H671.592C671.928 251.41 672.265 251.41 672.601 251.435C672.941 251.435 673.275 251.518 673.576 251.675C673.703 251.748 673.809 251.853 673.884 251.978C673.959 252.104 674 252.247 674.004 252.394C673.997 252.565 673.945 252.732 673.851 252.877C673.758 253.021 673.628 253.138 673.474 253.215Z" fill="white"/>
<path d="M555.193 235.714C555.013 235.867 554.802 235.979 554.574 236.042C554.347 236.104 554.108 236.114 553.875 236.073C553.471 236.008 553.071 235.916 552.678 235.799L551.651 235.611C551.222 235.531 550.807 235.386 550.42 235.183C550.3 235.106 550.191 235.014 550.095 234.909H549.889C549.889 234.909 549.787 234.909 549.889 234.909C549.616 235.046 549.205 234.807 549.325 234.465C549.394 234.286 549.504 234.126 549.647 233.998C549.79 233.87 549.961 233.778 550.146 233.729C550.71 233.164 551.703 233.284 552.438 233.336C553.166 233.324 553.892 233.416 554.594 233.609C554.799 233.646 554.991 233.735 555.153 233.866C555.314 233.998 555.44 234.169 555.518 234.362C555.544 234.486 555.544 234.614 555.518 234.738C555.564 234.915 555.558 235.101 555.5 235.274C555.442 235.447 555.335 235.6 555.193 235.714Z" fill="white"/>
<path d="M538.752 258.056C538.722 258.149 538.671 258.235 538.604 258.307C538.536 258.378 538.454 258.434 538.362 258.47C538.271 258.506 538.172 258.521 538.074 258.515C537.976 258.508 537.88 258.48 537.794 258.432C537.315 258.432 536.853 257.919 536.58 257.526C536.416 257.29 536.279 257.038 536.169 256.773C536.056 256.538 535.997 256.281 535.998 256.02C535.972 255.856 535.972 255.688 535.998 255.524C535.895 255.25 535.776 254.994 535.69 254.72C535.669 254.648 535.663 254.573 535.672 254.498C535.68 254.424 535.704 254.352 535.74 254.287C535.777 254.222 535.826 254.164 535.885 254.118C535.944 254.072 536.011 254.038 536.084 254.019C536.231 253.986 536.385 254.011 536.515 254.087C536.645 254.163 536.741 254.285 536.785 254.429C536.785 254.207 536.785 254.429 536.785 254.429C536.879 254.377 536.989 254.362 537.094 254.387C537.199 254.412 537.29 254.476 537.35 254.566C537.35 254.566 537.452 254.686 537.486 254.754C537.494 254.794 537.494 254.834 537.486 254.874C537.542 254.995 537.611 255.11 537.692 255.216L537.88 255.473C537.96 255.589 538.034 255.708 538.102 255.832C538.368 256.132 538.564 256.487 538.676 256.871C538.788 257.256 538.814 257.66 538.752 258.056Z" fill="white"/>
<path d="M540.001 251.709C539.764 251.824 539.51 251.899 539.249 251.931C538.971 252.173 538.652 252.365 538.308 252.496C538.072 252.604 537.814 252.656 537.555 252.65H537.144C537.023 252.605 536.915 252.529 536.831 252.431C536.747 252.332 536.69 252.213 536.665 252.085C536.589 251.728 536.648 251.355 536.831 251.038C537.015 250.722 537.309 250.485 537.658 250.375C538.311 250.078 539.041 249.994 539.745 250.135C539.898 250.155 540.045 250.207 540.177 250.286C540.31 250.366 540.425 250.471 540.515 250.597C540.771 250.99 540.412 251.504 540.001 251.709Z" fill="white"/>
<path d="M517.556 262.367C517.527 262.496 517.462 262.615 517.368 262.709C517.274 262.803 517.155 262.868 517.026 262.897C516.7 262.955 516.364 262.888 516.085 262.709C515.677 262.384 515.289 262.036 514.922 261.665C514.323 261.207 513.832 260.623 513.485 259.955C513.438 259.87 513.413 259.774 513.414 259.677C513.414 259.58 513.44 259.485 513.488 259.401C513.536 259.316 513.605 259.246 513.689 259.196C513.772 259.146 513.867 259.119 513.964 259.116C514.196 259.121 514.421 259.192 514.614 259.322L514.905 259.544L514.99 259.629L515.264 259.818C515.304 259.798 515.348 259.788 515.392 259.788C515.437 259.788 515.481 259.798 515.521 259.818C515.738 259.88 515.95 259.96 516.153 260.057C516.399 260.188 516.619 260.362 516.804 260.57C517.238 260.933 517.519 261.446 517.591 262.007C517.594 262.128 517.583 262.249 517.556 262.367Z" fill="white"/>
<path d="M502.673 233.147C502.633 233.277 502.545 233.386 502.428 233.453C502.31 233.519 502.171 233.539 502.04 233.507C501.458 233.404 501.185 232.737 501.031 232.223C500.958 232.086 500.895 231.943 500.842 231.796C500.743 231.486 500.685 231.163 500.671 230.838C500.577 230.363 500.577 229.875 500.671 229.401V229.315C500.62 229.107 500.62 228.89 500.671 228.682C500.703 228.561 500.778 228.456 500.883 228.387C500.987 228.317 501.112 228.288 501.236 228.305C501.36 228.322 501.474 228.383 501.556 228.478C501.638 228.573 501.682 228.694 501.681 228.819C501.921 228.979 502.092 229.223 502.16 229.503C502.323 229.959 502.444 230.428 502.519 230.906C502.75 231.63 502.803 232.399 502.673 233.147Z" fill="white"/>
<path d="M504.948 229.863C504.463 229.954 503.961 229.856 503.545 229.589C503.447 229.566 503.35 229.537 503.254 229.503C502.819 229.299 502.433 229.001 502.125 228.631H501.989C501.94 228.629 501.893 228.612 501.854 228.582C501.815 228.552 501.786 228.511 501.771 228.465C501.757 228.418 501.756 228.368 501.771 228.321C501.785 228.275 501.813 228.233 501.852 228.203C501.809 228.064 501.809 227.915 501.852 227.776C501.887 227.665 501.955 227.568 502.046 227.498C502.138 227.428 502.249 227.387 502.365 227.382C502.979 227.408 503.573 227.61 504.076 227.964C504.263 228.074 504.44 228.199 504.606 228.34C504.786 228.452 504.952 228.584 505.102 228.734C505.193 228.806 505.267 228.897 505.32 229C505.373 229.103 505.404 229.216 505.41 229.332C505.396 229.457 505.345 229.575 505.262 229.67C505.18 229.765 505.07 229.832 504.948 229.863Z" fill="white"/>
<path d="M552.096 218.161C551.846 218.324 551.565 218.433 551.271 218.483C550.977 218.533 550.675 218.523 550.385 218.452C550.057 218.446 549.73 218.406 549.41 218.332H549.308C549.117 218.322 548.928 218.293 548.743 218.247C548.674 218.219 548.61 218.178 548.557 218.125C548.504 218.072 548.463 218.008 548.435 217.939L548.196 217.836C548.13 217.82 548.074 217.778 548.038 217.721C548.003 217.663 547.992 217.594 548.008 217.528C547.756 217.329 547.591 217.041 547.546 216.724C547.55 216.589 547.605 216.461 547.701 216.366C547.796 216.271 547.924 216.215 548.059 216.211C548.092 216.12 548.146 216.038 548.218 215.972C548.289 215.906 548.376 215.859 548.469 215.834C548.783 215.758 549.105 215.724 549.427 215.732C549.763 215.698 550.101 215.698 550.437 215.732C550.696 215.79 550.94 215.901 551.155 216.057C551.438 216.254 551.667 216.519 551.823 216.827C551.887 216.966 551.922 217.118 551.925 217.272C552.007 217.307 552.079 217.362 552.135 217.431C552.191 217.501 552.229 217.583 552.246 217.671C552.263 217.759 552.258 217.849 552.232 217.935C552.206 218.02 552.159 218.098 552.096 218.161Z" fill="white"/>
<path d="M563.028 220.351C562.872 220.754 562.619 221.112 562.292 221.395L562.104 221.531C562.104 221.617 561.933 221.685 561.847 221.771C561.676 221.976 561.505 222.147 561.317 222.336L561.078 222.746L560.855 223.003C560.858 223.043 560.858 223.083 560.855 223.122C560.855 223.225 560.855 223.345 560.718 223.379H560.547C560.436 223.504 560.293 223.597 560.133 223.648C559.974 223.699 559.804 223.706 559.641 223.67C559.537 223.64 559.445 223.577 559.381 223.491C559.316 223.404 559.281 223.299 559.281 223.191C559.214 223.227 559.136 223.239 559.06 223.223C558.985 223.208 558.918 223.166 558.871 223.105C558.818 223.043 558.789 222.965 558.789 222.883C558.789 222.801 558.818 222.723 558.871 222.661C558.871 222.661 558.871 222.507 558.871 222.404C558.899 222.257 558.957 222.117 559.042 221.993C559.213 221.754 559.435 221.549 559.623 221.326C559.812 221.104 559.623 221.326 559.623 221.241C559.691 221.069 559.783 220.907 559.897 220.762C560.142 220.502 560.439 220.297 560.77 220.163L560.872 220.077C560.922 220.049 560.978 220.034 561.035 220.034C561.092 220.034 561.148 220.049 561.197 220.077C561.317 219.838 561.42 219.598 561.557 219.359C561.635 219.233 561.758 219.142 561.901 219.104C562.044 219.066 562.196 219.083 562.326 219.154C562.392 219.196 562.449 219.251 562.493 219.316C562.537 219.38 562.568 219.453 562.583 219.53C562.671 219.546 562.755 219.582 562.827 219.634C562.9 219.687 562.96 219.755 563.002 219.834C563.045 219.913 563.069 220 563.074 220.09C563.078 220.179 563.063 220.268 563.028 220.351Z" fill="white"/>
<path d="M537.452 194.724C537.754 195.079 537.965 195.502 538.068 195.956C538.105 196.114 538.105 196.278 538.066 196.436C538.027 196.594 537.952 196.74 537.846 196.863C537.762 196.958 537.655 197.03 537.535 197.072C537.415 197.114 537.287 197.125 537.162 197.102C536.95 197.022 536.753 196.906 536.58 196.76L536.409 196.623C536.248 196.545 536.093 196.453 535.947 196.349C535.571 196.024 535.28 195.614 534.938 195.254C534.614 194.956 534.372 194.579 534.236 194.16C534.176 193.93 534.176 193.688 534.236 193.458C534.207 193.335 534.218 193.205 534.267 193.089C534.316 192.972 534.401 192.874 534.51 192.808C534.693 192.748 534.891 192.748 535.074 192.808L535.28 192.894C535.655 193.042 535.998 193.263 536.289 193.544C536.426 193.681 536.546 193.852 536.683 193.989L536.956 194.296C537.129 194.43 537.295 194.573 537.452 194.724Z" fill="white"/>
<path d="M630.106 222.626C630.106 222.626 630.106 222.729 630.106 222.797C630.056 222.907 629.993 223.011 629.918 223.105C629.739 223.338 629.503 223.521 629.234 223.636C628.943 223.738 628.635 223.79 628.344 223.892C627.626 224.149 626.839 224.628 626.052 224.32C625.961 224.29 625.877 224.24 625.806 224.176C625.736 224.111 625.679 224.032 625.641 223.944C625.595 223.863 625.57 223.772 625.57 223.679C625.57 223.585 625.595 223.494 625.641 223.413C625.607 223.267 625.607 223.115 625.641 222.969C625.813 222.543 626.136 222.196 626.548 221.993C627.016 221.72 627.543 221.562 628.084 221.533C628.625 221.503 629.166 221.602 629.661 221.822C629.827 221.87 629.967 221.982 630.05 222.132C630.134 222.283 630.154 222.461 630.106 222.626Z" fill="white"/>
<path d="M632.501 258.637C632.421 258.708 632.317 258.745 632.21 258.74C632.21 258.74 632.21 258.74 632.125 258.826C631.526 259.048 630.979 258.552 630.585 258.176C630.121 257.733 629.724 257.226 629.405 256.67C629.148 256.225 628.823 255.575 629.148 255.079C629.263 254.919 629.427 254.8 629.615 254.742C629.804 254.683 630.006 254.687 630.192 254.754C630.579 254.895 630.918 255.144 631.167 255.473C631.429 255.772 631.659 256.099 631.851 256.448C631.988 256.687 632.091 256.927 632.21 257.183C632.299 257.348 632.373 257.519 632.433 257.697C632.474 257.832 632.525 257.963 632.587 258.09C632.629 258.179 632.643 258.279 632.628 258.377C632.612 258.474 632.568 258.565 632.501 258.637Z" fill="white"/>
<path d="M679.239 195.357C679.161 195.598 679.025 195.817 678.843 195.993C678.661 196.169 678.439 196.297 678.195 196.367C677.827 196.511 677.442 196.609 677.049 196.657C676.702 196.774 676.335 196.815 675.971 196.777C675.767 196.803 675.56 196.803 675.355 196.777C675.302 196.78 675.249 196.771 675.2 196.752C675.15 196.734 675.104 196.705 675.066 196.668C675.028 196.631 674.997 196.587 674.976 196.538C674.955 196.489 674.945 196.437 674.945 196.384C674.893 196.323 674.856 196.25 674.837 196.172C674.818 196.094 674.818 196.012 674.836 195.934C674.854 195.856 674.891 195.783 674.942 195.722C674.994 195.66 675.059 195.611 675.133 195.58C675.142 195.535 675.142 195.488 675.133 195.443C675.178 195.299 675.268 195.173 675.39 195.084C675.636 194.876 675.906 194.698 676.194 194.553C676.673 194.302 677.209 194.178 677.75 194.194C677.987 194.209 678.21 194.306 678.383 194.468H678.606C679.085 194.433 679.239 194.964 679.239 195.357Z" fill="white"/>
<path d="M607.815 121.983C607.593 122.344 607.328 122.677 607.028 122.975C606.614 123.443 606.143 123.857 605.625 124.207C605.325 124.408 604.996 124.564 604.65 124.669L604.548 124.755C604.492 124.812 604.422 124.855 604.346 124.88C604.27 124.904 604.189 124.91 604.11 124.897C604.031 124.883 603.956 124.851 603.892 124.802C603.829 124.754 603.778 124.69 603.744 124.618C603.637 124.564 603.544 124.488 603.47 124.395C602.837 123.677 603.47 122.924 604.052 122.428C604.336 122.105 604.678 121.838 605.061 121.641C605.75 121.073 606.556 120.664 607.422 120.444C607.519 120.443 607.614 120.468 607.698 120.516C607.782 120.564 607.852 120.633 607.901 120.717C608.005 120.916 608.052 121.139 608.036 121.362C608.021 121.586 607.945 121.801 607.815 121.983Z" fill="white"/>
<path d="M591.152 135.943C591.174 136.033 591.172 136.127 591.148 136.217C591.124 136.306 591.079 136.388 591.016 136.456C590.951 136.524 590.869 136.572 590.778 136.596C590.688 136.62 590.592 136.619 590.502 136.593C589.967 136.377 589.471 136.077 589.031 135.703C588.809 135.567 588.621 135.413 588.415 135.259C588.207 135.084 588.023 134.883 587.868 134.66C587.68 134.489 587.491 134.335 587.32 134.147L586.995 133.736C586.942 133.741 586.887 133.731 586.839 133.707C586.791 133.682 586.75 133.645 586.722 133.599C586.591 133.419 586.514 133.206 586.499 132.983C586.5 132.835 586.551 132.692 586.644 132.577C586.738 132.461 586.868 132.382 587.012 132.35H587.115C587.761 132.399 588.368 132.678 588.826 133.137C589.066 133.335 589.295 133.546 589.51 133.77C590.087 134.053 590.529 134.55 590.742 135.156C590.926 135.391 591.065 135.658 591.152 135.943Z" fill="white"/>
<path d="M578.117 135.122C578.084 135.244 578.005 135.349 577.896 135.413C577.787 135.477 577.657 135.495 577.535 135.464C577.433 135.423 577.335 135.372 577.244 135.31C577.153 135.331 577.057 135.322 576.971 135.285C576.885 135.248 576.813 135.185 576.765 135.105C576.193 134.192 575.858 133.152 575.79 132.077C575.8 131.977 575.841 131.882 575.909 131.808C575.977 131.734 576.068 131.684 576.166 131.666C576.205 131.606 576.258 131.557 576.321 131.523C576.384 131.488 576.454 131.471 576.526 131.471C576.597 131.471 576.667 131.488 576.73 131.523C576.793 131.557 576.846 131.606 576.885 131.666C576.885 131.666 576.885 131.769 576.885 131.803C577.373 132.191 577.746 132.706 577.963 133.291C578.18 133.876 578.233 134.509 578.117 135.122Z" fill="white"/>
<path d="M622.014 146.259C621.954 146.36 621.869 146.445 621.767 146.504C621.666 146.564 621.551 146.597 621.433 146.601C621.109 146.55 620.806 146.408 620.56 146.19C620.456 146.159 620.365 146.092 620.304 146.002C620.297 145.945 620.297 145.888 620.304 145.831C620.118 145.595 619.962 145.336 619.842 145.061C619.652 144.672 619.519 144.257 619.448 143.829C619.398 143.697 619.398 143.551 619.448 143.419C619.44 143.305 619.44 143.191 619.448 143.077C619.43 143.036 619.42 142.993 619.42 142.948C619.42 142.904 619.43 142.86 619.448 142.82C619.457 142.723 619.457 142.626 619.448 142.529C619.451 142.387 619.504 142.251 619.598 142.144C619.692 142.038 619.821 141.968 619.962 141.948C620.106 141.921 620.255 141.951 620.379 142.03C620.503 142.11 620.592 142.233 620.629 142.375C620.629 142.375 620.629 142.495 620.629 142.564C620.629 142.7 620.748 142.854 620.817 142.991C620.885 143.128 620.817 143.214 620.954 143.333L621.159 143.487C621.412 143.72 621.626 143.991 621.792 144.291C622.066 144.839 622.442 145.626 622.014 146.259Z" fill="white"/>
<path d="M629.353 142.461C629.371 142.626 629.343 142.792 629.274 142.943C629.205 143.093 629.096 143.222 628.96 143.316C628.623 143.525 628.224 143.609 627.831 143.556C627.337 143.511 626.858 143.359 626.428 143.111C626.286 143.024 626.154 142.92 626.035 142.803C625.596 142.744 625.197 142.517 624.923 142.17C624.666 141.742 625.025 141.212 625.402 140.99C625.679 140.84 625.996 140.781 626.308 140.819C626.793 140.88 627.269 140.995 627.728 141.161C627.969 141.233 628.204 141.324 628.43 141.435C628.719 141.502 628.989 141.637 629.217 141.828C629.294 141.911 629.348 142.014 629.372 142.126C629.396 142.237 629.39 142.353 629.353 142.461Z" fill="white"/>
</svg>
